G04*
G04 #@! TF.GenerationSoftware,Altium Limited,Altium Designer,18.1.11 (251)*
G04*
G04 Layer_Color=32896*
%FSLAX24Y24*%
%MOIN*%
G70*
G01*
G75*
%ADD11C,0.0060*%
G36*
X43365Y38875D02*
X43265D01*
Y38725D01*
X43365D01*
Y38875D01*
D02*
G37*
G36*
X40692Y32465D02*
X40701Y32464D01*
X40710Y32462D01*
X40718Y32460D01*
X40726Y32458D01*
X40733Y32456D01*
X40740Y32453D01*
X40746Y32451D01*
X40751Y32448D01*
X40756Y32445D01*
X40760Y32443D01*
X40763Y32441D01*
X40766Y32439D01*
X40768Y32438D01*
X40769Y32437D01*
X40769Y32436D01*
X40775Y32431D01*
X40780Y32425D01*
X40785Y32418D01*
X40789Y32411D01*
X40792Y32405D01*
X40795Y32398D01*
X40798Y32391D01*
X40800Y32385D01*
X40802Y32378D01*
X40803Y32373D01*
X40805Y32367D01*
X40805Y32363D01*
X40806Y32359D01*
X40806Y32356D01*
X40807Y32355D01*
Y32354D01*
X40758Y32349D01*
X40758Y32356D01*
X40758Y32362D01*
X40755Y32373D01*
X40752Y32383D01*
X40750Y32387D01*
X40748Y32390D01*
X40746Y32394D01*
X40744Y32397D01*
X40743Y32399D01*
X40741Y32401D01*
X40740Y32403D01*
X40739Y32404D01*
X40738Y32405D01*
X40738Y32405D01*
X40734Y32409D01*
X40730Y32412D01*
X40725Y32415D01*
X40721Y32417D01*
X40711Y32421D01*
X40703Y32423D01*
X40695Y32425D01*
X40692Y32425D01*
X40689D01*
X40686Y32426D01*
X40677D01*
X40671Y32425D01*
X40661Y32423D01*
X40652Y32420D01*
X40644Y32416D01*
X40639Y32413D01*
X40636Y32411D01*
X40634Y32409D01*
X40632Y32408D01*
X40631Y32407D01*
X40631Y32407D01*
X40630Y32406D01*
X40627Y32403D01*
X40624Y32399D01*
X40621Y32395D01*
X40619Y32391D01*
X40615Y32383D01*
X40612Y32376D01*
X40611Y32369D01*
X40610Y32366D01*
Y32364D01*
X40610Y32362D01*
Y32361D01*
Y32360D01*
Y32359D01*
X40610Y32354D01*
X40611Y32349D01*
X40613Y32339D01*
X40617Y32330D01*
X40621Y32321D01*
X40625Y32314D01*
X40627Y32311D01*
X40629Y32308D01*
X40630Y32306D01*
X40632Y32304D01*
X40632Y32303D01*
X40632Y32303D01*
X40637Y32297D01*
X40642Y32291D01*
X40649Y32284D01*
X40655Y32277D01*
X40669Y32264D01*
X40683Y32251D01*
X40690Y32244D01*
X40696Y32239D01*
X40702Y32234D01*
X40707Y32230D01*
X40711Y32226D01*
X40714Y32224D01*
X40716Y32222D01*
X40717Y32221D01*
X40725Y32215D01*
X40731Y32209D01*
X40738Y32204D01*
X40744Y32198D01*
X40750Y32193D01*
X40755Y32188D01*
X40759Y32184D01*
X40763Y32180D01*
X40767Y32176D01*
X40770Y32173D01*
X40773Y32170D01*
X40775Y32168D01*
X40777Y32166D01*
X40778Y32165D01*
X40779Y32164D01*
X40779Y32163D01*
X40787Y32154D01*
X40793Y32145D01*
X40798Y32136D01*
X40803Y32128D01*
X40806Y32122D01*
X40807Y32119D01*
X40808Y32117D01*
X40809Y32115D01*
X40810Y32113D01*
X40810Y32113D01*
Y32112D01*
X40812Y32106D01*
X40813Y32101D01*
X40815Y32095D01*
X40815Y32090D01*
X40815Y32086D01*
Y32083D01*
Y32081D01*
Y32080D01*
X40561D01*
Y32125D01*
X40751D01*
X40744Y32134D01*
X40741Y32138D01*
X40737Y32142D01*
X40734Y32145D01*
X40732Y32148D01*
X40731Y32150D01*
X40730Y32150D01*
X40728Y32153D01*
X40724Y32156D01*
X40721Y32159D01*
X40716Y32163D01*
X40708Y32171D01*
X40699Y32179D01*
X40690Y32187D01*
X40686Y32190D01*
X40682Y32193D01*
X40680Y32195D01*
X40677Y32197D01*
X40676Y32198D01*
X40676Y32199D01*
X40666Y32207D01*
X40658Y32214D01*
X40650Y32221D01*
X40643Y32227D01*
X40636Y32233D01*
X40630Y32239D01*
X40625Y32244D01*
X40620Y32249D01*
X40616Y32252D01*
X40612Y32256D01*
X40609Y32259D01*
X40607Y32262D01*
X40605Y32264D01*
X40604Y32265D01*
X40603Y32266D01*
X40603Y32266D01*
X40595Y32275D01*
X40589Y32284D01*
X40583Y32291D01*
X40579Y32299D01*
X40575Y32304D01*
X40573Y32309D01*
X40572Y32311D01*
X40572Y32312D01*
X40571Y32312D01*
Y32313D01*
X40568Y32321D01*
X40566Y32329D01*
X40564Y32337D01*
X40563Y32344D01*
X40562Y32350D01*
X40562Y32354D01*
Y32356D01*
Y32357D01*
Y32358D01*
Y32358D01*
X40562Y32366D01*
X40563Y32374D01*
X40565Y32382D01*
X40567Y32389D01*
X40569Y32396D01*
X40572Y32402D01*
X40575Y32408D01*
X40578Y32413D01*
X40581Y32418D01*
X40584Y32422D01*
X40587Y32426D01*
X40589Y32429D01*
X40591Y32431D01*
X40593Y32433D01*
X40594Y32434D01*
X40594Y32434D01*
X40600Y32440D01*
X40607Y32444D01*
X40614Y32448D01*
X40622Y32452D01*
X40629Y32455D01*
X40636Y32457D01*
X40643Y32460D01*
X40650Y32461D01*
X40657Y32462D01*
X40663Y32463D01*
X40668Y32464D01*
X40673Y32465D01*
X40676Y32465D01*
X40682D01*
X40692Y32465D01*
D02*
G37*
G36*
X39744Y32455D02*
X39750Y32446D01*
X39757Y32438D01*
X39764Y32430D01*
X39770Y32423D01*
X39773Y32420D01*
X39775Y32418D01*
X39778Y32416D01*
X39779Y32415D01*
X39780Y32414D01*
X39780Y32413D01*
X39792Y32404D01*
X39804Y32395D01*
X39815Y32388D01*
X39826Y32381D01*
X39831Y32378D01*
X39835Y32376D01*
X39839Y32373D01*
X39843Y32372D01*
X39846Y32371D01*
X39848Y32369D01*
X39849Y32369D01*
X39849Y32368D01*
Y32323D01*
X39841Y32326D01*
X39832Y32330D01*
X39824Y32334D01*
X39817Y32338D01*
X39810Y32342D01*
X39807Y32343D01*
X39805Y32345D01*
X39802Y32346D01*
X39801Y32346D01*
X39800Y32347D01*
X39800D01*
X39790Y32353D01*
X39781Y32359D01*
X39773Y32365D01*
X39767Y32370D01*
X39762Y32374D01*
X39758Y32377D01*
X39756Y32379D01*
X39755Y32380D01*
Y32080D01*
X39708D01*
Y32465D01*
X39738D01*
X39744Y32455D01*
D02*
G37*
G36*
X40516Y32195D02*
X40371D01*
Y32242D01*
X40516D01*
Y32195D01*
D02*
G37*
G36*
X45500Y32080D02*
X45451D01*
Y32407D01*
X45340Y32080D01*
X45294D01*
X45182Y32401D01*
Y32080D01*
X45133D01*
Y32464D01*
X45202D01*
X45294Y32197D01*
X45297Y32189D01*
X45299Y32182D01*
X45301Y32176D01*
X45303Y32170D01*
X45305Y32164D01*
X45307Y32159D01*
X45308Y32155D01*
X45309Y32150D01*
X45311Y32147D01*
X45312Y32144D01*
X45312Y32141D01*
X45313Y32139D01*
X45314Y32137D01*
X45314Y32136D01*
X45314Y32135D01*
Y32135D01*
X45316Y32139D01*
X45317Y32143D01*
X45320Y32152D01*
X45323Y32161D01*
X45326Y32170D01*
X45329Y32179D01*
X45330Y32182D01*
X45331Y32185D01*
X45332Y32188D01*
X45332Y32190D01*
X45333Y32191D01*
Y32192D01*
X45424Y32464D01*
X45500D01*
Y32080D01*
D02*
G37*
G36*
X44751Y32427D02*
Y32358D01*
X44786D01*
Y32321D01*
X44751D01*
Y32161D01*
Y32153D01*
X44751Y32146D01*
Y32140D01*
X44750Y32134D01*
X44750Y32129D01*
X44750Y32125D01*
X44749Y32121D01*
X44748Y32117D01*
X44748Y32114D01*
X44747Y32112D01*
X44747Y32110D01*
X44747Y32108D01*
X44746Y32106D01*
X44746Y32105D01*
X44743Y32101D01*
X44740Y32096D01*
X44737Y32093D01*
X44734Y32090D01*
X44730Y32087D01*
X44728Y32086D01*
X44726Y32084D01*
X44726Y32084D01*
X44720Y32081D01*
X44714Y32079D01*
X44707Y32078D01*
X44700Y32077D01*
X44695Y32076D01*
X44690Y32076D01*
X44686D01*
X44673Y32077D01*
X44668Y32077D01*
X44662Y32078D01*
X44657Y32079D01*
X44653Y32079D01*
X44651Y32080D01*
X44650D01*
X44656Y32122D01*
X44661Y32121D01*
X44665Y32121D01*
X44669Y32121D01*
X44672D01*
X44674Y32120D01*
X44681D01*
X44685Y32121D01*
X44687Y32121D01*
X44690Y32122D01*
X44691Y32123D01*
X44693Y32123D01*
X44693Y32123D01*
X44694D01*
X44697Y32126D01*
X44700Y32129D01*
X44701Y32132D01*
X44702Y32132D01*
Y32133D01*
X44703Y32135D01*
X44703Y32139D01*
X44704Y32143D01*
Y32148D01*
X44704Y32152D01*
Y32155D01*
Y32158D01*
Y32158D01*
Y32158D01*
Y32321D01*
X44656D01*
Y32358D01*
X44704D01*
Y32455D01*
X44751Y32427D01*
D02*
G37*
G36*
X42993D02*
Y32358D01*
X43028D01*
Y32321D01*
X42993D01*
Y32161D01*
Y32153D01*
X42992Y32146D01*
Y32140D01*
X42992Y32134D01*
X42992Y32129D01*
X42991Y32125D01*
X42991Y32121D01*
X42990Y32117D01*
X42989Y32114D01*
X42989Y32112D01*
X42989Y32110D01*
X42988Y32108D01*
X42988Y32106D01*
X42987Y32105D01*
X42985Y32101D01*
X42982Y32096D01*
X42979Y32093D01*
X42975Y32090D01*
X42972Y32087D01*
X42969Y32086D01*
X42968Y32084D01*
X42967Y32084D01*
X42962Y32081D01*
X42955Y32079D01*
X42949Y32078D01*
X42942Y32077D01*
X42936Y32076D01*
X42932Y32076D01*
X42927D01*
X42915Y32077D01*
X42909Y32077D01*
X42904Y32078D01*
X42899Y32079D01*
X42895Y32079D01*
X42893Y32080D01*
X42892D01*
X42898Y32122D01*
X42902Y32121D01*
X42907Y32121D01*
X42910Y32121D01*
X42913D01*
X42916Y32120D01*
X42923D01*
X42926Y32121D01*
X42929Y32121D01*
X42931Y32122D01*
X42933Y32123D01*
X42934Y32123D01*
X42935Y32123D01*
X42935D01*
X42939Y32126D01*
X42941Y32129D01*
X42943Y32132D01*
X42943Y32132D01*
Y32133D01*
X42944Y32135D01*
X42945Y32139D01*
X42945Y32143D01*
Y32148D01*
X42946Y32152D01*
Y32155D01*
Y32158D01*
Y32158D01*
Y32158D01*
Y32321D01*
X42898D01*
Y32358D01*
X42946D01*
Y32455D01*
X42993Y32427D01*
D02*
G37*
G36*
X43822Y32470D02*
X43831Y32470D01*
X43848Y32467D01*
X43856Y32465D01*
X43864Y32463D01*
X43871Y32461D01*
X43878Y32459D01*
X43884Y32457D01*
X43889Y32455D01*
X43894Y32452D01*
X43898Y32451D01*
X43901Y32449D01*
X43903Y32448D01*
X43905Y32447D01*
X43905Y32447D01*
X43913Y32442D01*
X43920Y32438D01*
X43927Y32432D01*
X43933Y32427D01*
X43939Y32421D01*
X43945Y32415D01*
X43949Y32410D01*
X43954Y32405D01*
X43957Y32399D01*
X43961Y32395D01*
X43964Y32390D01*
X43966Y32387D01*
X43968Y32383D01*
X43969Y32381D01*
X43970Y32380D01*
X43970Y32379D01*
X43975Y32371D01*
X43978Y32362D01*
X43981Y32353D01*
X43984Y32344D01*
X43988Y32326D01*
X43989Y32318D01*
X43990Y32310D01*
X43991Y32303D01*
X43992Y32296D01*
X43992Y32290D01*
X43993Y32284D01*
X43993Y32280D01*
Y32277D01*
Y32275D01*
Y32274D01*
X43993Y32264D01*
X43992Y32254D01*
X43990Y32235D01*
X43989Y32226D01*
X43987Y32218D01*
X43985Y32210D01*
X43983Y32202D01*
X43981Y32196D01*
X43980Y32190D01*
X43978Y32185D01*
X43976Y32180D01*
X43975Y32177D01*
X43974Y32174D01*
X43974Y32172D01*
X43973Y32172D01*
X43969Y32163D01*
X43965Y32155D01*
X43960Y32147D01*
X43955Y32140D01*
X43950Y32133D01*
X43946Y32128D01*
X43941Y32122D01*
X43936Y32117D01*
X43932Y32113D01*
X43928Y32109D01*
X43924Y32106D01*
X43920Y32103D01*
X43918Y32101D01*
X43916Y32100D01*
X43915Y32099D01*
X43914Y32098D01*
X43907Y32094D01*
X43899Y32090D01*
X43891Y32087D01*
X43882Y32084D01*
X43873Y32082D01*
X43865Y32080D01*
X43857Y32078D01*
X43849Y32077D01*
X43841Y32076D01*
X43835Y32075D01*
X43829Y32074D01*
X43824Y32074D01*
X43819Y32074D01*
X43813D01*
X43802Y32074D01*
X43791Y32075D01*
X43781Y32076D01*
X43772Y32078D01*
X43763Y32081D01*
X43754Y32084D01*
X43747Y32087D01*
X43740Y32090D01*
X43733Y32093D01*
X43728Y32096D01*
X43723Y32098D01*
X43719Y32101D01*
X43716Y32103D01*
X43714Y32105D01*
X43712Y32106D01*
X43712Y32106D01*
X43704Y32113D01*
X43697Y32120D01*
X43691Y32127D01*
X43685Y32135D01*
X43680Y32143D01*
X43675Y32151D01*
X43671Y32158D01*
X43667Y32166D01*
X43664Y32173D01*
X43661Y32180D01*
X43659Y32186D01*
X43657Y32191D01*
X43655Y32196D01*
X43655Y32199D01*
X43654Y32201D01*
Y32202D01*
X43705Y32215D01*
X43707Y32206D01*
X43710Y32197D01*
X43712Y32190D01*
X43715Y32182D01*
X43719Y32176D01*
X43722Y32170D01*
X43725Y32165D01*
X43729Y32160D01*
X43732Y32155D01*
X43735Y32152D01*
X43738Y32148D01*
X43740Y32146D01*
X43742Y32144D01*
X43744Y32143D01*
X43744Y32142D01*
X43745Y32141D01*
X43751Y32137D01*
X43757Y32133D01*
X43762Y32130D01*
X43769Y32127D01*
X43775Y32125D01*
X43781Y32123D01*
X43792Y32120D01*
X43797Y32119D01*
X43802Y32118D01*
X43806Y32118D01*
X43810Y32117D01*
X43813Y32117D01*
X43817D01*
X43824Y32117D01*
X43830Y32118D01*
X43842Y32120D01*
X43853Y32123D01*
X43863Y32126D01*
X43867Y32128D01*
X43871Y32129D01*
X43874Y32130D01*
X43877Y32132D01*
X43880Y32133D01*
X43881Y32134D01*
X43882Y32135D01*
X43883D01*
X43888Y32138D01*
X43893Y32142D01*
X43902Y32151D01*
X43910Y32160D01*
X43916Y32169D01*
X43920Y32177D01*
X43923Y32180D01*
X43924Y32183D01*
X43925Y32186D01*
X43926Y32187D01*
X43927Y32189D01*
Y32189D01*
X43931Y32203D01*
X43935Y32218D01*
X43938Y32232D01*
X43938Y32239D01*
X43939Y32246D01*
X43940Y32252D01*
X43940Y32257D01*
X43940Y32262D01*
Y32267D01*
X43941Y32270D01*
Y32273D01*
Y32274D01*
Y32275D01*
X43940Y32289D01*
X43939Y32302D01*
X43937Y32315D01*
X43936Y32321D01*
X43935Y32326D01*
X43934Y32331D01*
X43933Y32335D01*
X43932Y32339D01*
X43931Y32342D01*
X43930Y32345D01*
X43930Y32347D01*
X43929Y32348D01*
Y32348D01*
X43924Y32361D01*
X43918Y32373D01*
X43911Y32382D01*
X43907Y32386D01*
X43904Y32390D01*
X43900Y32394D01*
X43898Y32397D01*
X43895Y32400D01*
X43893Y32402D01*
X43891Y32403D01*
X43889Y32405D01*
X43888Y32405D01*
X43888Y32405D01*
X43882Y32409D01*
X43876Y32413D01*
X43870Y32415D01*
X43863Y32418D01*
X43851Y32422D01*
X43839Y32425D01*
X43834Y32425D01*
X43829Y32426D01*
X43824Y32426D01*
X43821Y32427D01*
X43817Y32427D01*
X43806D01*
X43799Y32426D01*
X43787Y32424D01*
X43776Y32421D01*
X43772Y32419D01*
X43767Y32418D01*
X43763Y32416D01*
X43759Y32414D01*
X43757Y32413D01*
X43754Y32411D01*
X43752Y32410D01*
X43751Y32409D01*
X43750Y32408D01*
X43749Y32408D01*
X43745Y32404D01*
X43740Y32400D01*
X43733Y32390D01*
X43726Y32380D01*
X43720Y32370D01*
X43716Y32361D01*
X43714Y32357D01*
X43713Y32354D01*
X43712Y32351D01*
X43711Y32348D01*
X43710Y32347D01*
Y32347D01*
X43660Y32358D01*
X43664Y32368D01*
X43668Y32377D01*
X43671Y32386D01*
X43676Y32394D01*
X43680Y32401D01*
X43685Y32408D01*
X43689Y32414D01*
X43694Y32420D01*
X43698Y32425D01*
X43702Y32429D01*
X43706Y32433D01*
X43709Y32435D01*
X43712Y32438D01*
X43714Y32440D01*
X43715Y32440D01*
X43715Y32441D01*
X43723Y32446D01*
X43731Y32450D01*
X43739Y32455D01*
X43747Y32458D01*
X43755Y32461D01*
X43763Y32463D01*
X43771Y32465D01*
X43779Y32467D01*
X43786Y32468D01*
X43792Y32469D01*
X43798Y32470D01*
X43803Y32470D01*
X43807Y32470D01*
X43812D01*
X43822Y32470D01*
D02*
G37*
G36*
X42033Y32364D02*
X42044Y32363D01*
X42053Y32361D01*
X42062Y32358D01*
X42070Y32355D01*
X42078Y32352D01*
X42085Y32348D01*
X42092Y32345D01*
X42098Y32341D01*
X42103Y32338D01*
X42107Y32334D01*
X42110Y32331D01*
X42113Y32329D01*
X42115Y32327D01*
X42117Y32326D01*
X42117Y32325D01*
X42123Y32318D01*
X42129Y32309D01*
X42134Y32301D01*
X42138Y32292D01*
X42141Y32283D01*
X42144Y32274D01*
X42147Y32265D01*
X42148Y32256D01*
X42150Y32248D01*
X42151Y32240D01*
X42152Y32234D01*
X42152Y32228D01*
Y32223D01*
X42153Y32219D01*
Y32217D01*
Y32216D01*
X42152Y32204D01*
X42151Y32192D01*
X42150Y32181D01*
X42147Y32171D01*
X42145Y32162D01*
X42142Y32153D01*
X42138Y32145D01*
X42135Y32138D01*
X42132Y32132D01*
X42129Y32126D01*
X42126Y32122D01*
X42123Y32118D01*
X42121Y32115D01*
X42119Y32113D01*
X42118Y32111D01*
X42118Y32111D01*
X42110Y32104D01*
X42103Y32098D01*
X42095Y32093D01*
X42087Y32089D01*
X42079Y32086D01*
X42071Y32083D01*
X42063Y32080D01*
X42056Y32078D01*
X42048Y32077D01*
X42042Y32076D01*
X42036Y32075D01*
X42031Y32074D01*
X42026D01*
X42023Y32074D01*
X42021D01*
X42012Y32074D01*
X42003Y32074D01*
X41995Y32076D01*
X41988Y32077D01*
X41981Y32079D01*
X41974Y32081D01*
X41968Y32083D01*
X41963Y32085D01*
X41958Y32087D01*
X41954Y32089D01*
X41950Y32091D01*
X41947Y32093D01*
X41944Y32095D01*
X41942Y32096D01*
X41942Y32096D01*
X41941Y32097D01*
X41935Y32101D01*
X41930Y32106D01*
X41926Y32112D01*
X41921Y32117D01*
X41914Y32128D01*
X41908Y32139D01*
X41906Y32144D01*
X41904Y32148D01*
X41902Y32153D01*
X41901Y32156D01*
X41900Y32159D01*
X41899Y32161D01*
X41898Y32163D01*
Y32163D01*
X41947Y32170D01*
X41952Y32159D01*
X41957Y32150D01*
X41961Y32142D01*
X41966Y32136D01*
X41970Y32131D01*
X41974Y32128D01*
X41976Y32126D01*
X41976Y32125D01*
X41976D01*
X41984Y32121D01*
X41991Y32118D01*
X41999Y32116D01*
X42005Y32114D01*
X42011Y32113D01*
X42016Y32113D01*
X42018Y32112D01*
X42021D01*
X42027Y32113D01*
X42033Y32113D01*
X42039Y32114D01*
X42044Y32116D01*
X42054Y32120D01*
X42063Y32124D01*
X42066Y32126D01*
X42070Y32129D01*
X42072Y32131D01*
X42075Y32133D01*
X42076Y32134D01*
X42078Y32135D01*
X42078Y32136D01*
X42079Y32136D01*
X42083Y32141D01*
X42087Y32146D01*
X42090Y32152D01*
X42093Y32158D01*
X42097Y32170D01*
X42100Y32181D01*
X42102Y32186D01*
X42103Y32191D01*
X42103Y32195D01*
X42104Y32200D01*
X42104Y32202D01*
X42105Y32205D01*
Y32207D01*
Y32207D01*
X41897D01*
X41897Y32212D01*
Y32217D01*
Y32219D01*
Y32220D01*
X41897Y32232D01*
X41898Y32244D01*
X41900Y32255D01*
X41902Y32265D01*
X41905Y32275D01*
X41908Y32284D01*
X41911Y32291D01*
X41914Y32299D01*
X41917Y32305D01*
X41921Y32311D01*
X41924Y32315D01*
X41927Y32319D01*
X41929Y32322D01*
X41930Y32324D01*
X41932Y32326D01*
X41932Y32326D01*
X41939Y32333D01*
X41946Y32338D01*
X41954Y32344D01*
X41961Y32348D01*
X41969Y32352D01*
X41976Y32355D01*
X41984Y32358D01*
X41991Y32360D01*
X41997Y32361D01*
X42004Y32362D01*
X42009Y32363D01*
X42014Y32364D01*
X42018D01*
X42021Y32364D01*
X42023D01*
X42033Y32364D01*
D02*
G37*
G36*
X40041Y32363D02*
X40054Y32362D01*
X40065Y32359D01*
X40070Y32357D01*
X40075Y32356D01*
X40079Y32354D01*
X40083Y32353D01*
X40086Y32351D01*
X40089Y32350D01*
X40092Y32349D01*
X40093Y32348D01*
X40094Y32347D01*
X40094D01*
X40105Y32340D01*
X40114Y32332D01*
X40122Y32324D01*
X40129Y32316D01*
X40134Y32308D01*
X40135Y32305D01*
X40137Y32302D01*
X40138Y32300D01*
X40139Y32298D01*
X40140Y32297D01*
Y32296D01*
X40145Y32284D01*
X40148Y32270D01*
X40151Y32257D01*
X40153Y32244D01*
X40153Y32239D01*
X40154Y32234D01*
X40154Y32229D01*
Y32225D01*
X40154Y32222D01*
Y32220D01*
Y32218D01*
Y32217D01*
X40154Y32205D01*
X40153Y32193D01*
X40151Y32182D01*
X40149Y32171D01*
X40146Y32162D01*
X40144Y32153D01*
X40140Y32145D01*
X40137Y32138D01*
X40134Y32132D01*
X40131Y32126D01*
X40128Y32121D01*
X40125Y32118D01*
X40123Y32114D01*
X40122Y32112D01*
X40120Y32111D01*
X40120Y32111D01*
X40113Y32104D01*
X40106Y32098D01*
X40099Y32093D01*
X40091Y32089D01*
X40083Y32086D01*
X40076Y32083D01*
X40068Y32080D01*
X40061Y32078D01*
X40055Y32076D01*
X40048Y32076D01*
X40043Y32075D01*
X40038Y32074D01*
X40034D01*
X40031Y32074D01*
X40028D01*
X40020Y32074D01*
X40012Y32075D01*
X40005Y32076D01*
X39997Y32078D01*
X39990Y32080D01*
X39984Y32082D01*
X39978Y32084D01*
X39973Y32087D01*
X39968Y32090D01*
X39964Y32092D01*
X39961Y32094D01*
X39957Y32096D01*
X39955Y32098D01*
X39953Y32099D01*
X39952Y32100D01*
X39952Y32101D01*
X39946Y32106D01*
X39941Y32111D01*
X39936Y32118D01*
X39933Y32124D01*
X39929Y32130D01*
X39926Y32136D01*
X39921Y32148D01*
X39919Y32154D01*
X39917Y32159D01*
X39916Y32163D01*
X39914Y32168D01*
X39914Y32171D01*
X39913Y32173D01*
X39913Y32175D01*
Y32175D01*
X39959Y32182D01*
X39960Y32175D01*
X39961Y32169D01*
X39963Y32163D01*
X39965Y32158D01*
X39967Y32153D01*
X39968Y32149D01*
X39971Y32145D01*
X39973Y32142D01*
X39975Y32139D01*
X39976Y32136D01*
X39980Y32132D01*
X39982Y32130D01*
X39982Y32129D01*
X39983Y32129D01*
X39990Y32123D01*
X39998Y32119D01*
X40005Y32116D01*
X40013Y32114D01*
X40019Y32113D01*
X40022Y32113D01*
X40024D01*
X40026Y32112D01*
X40029D01*
X40035Y32113D01*
X40041Y32113D01*
X40047Y32115D01*
X40052Y32116D01*
X40062Y32120D01*
X40070Y32125D01*
X40073Y32127D01*
X40076Y32130D01*
X40079Y32132D01*
X40081Y32134D01*
X40083Y32135D01*
X40084Y32136D01*
X40085Y32137D01*
X40085Y32138D01*
X40089Y32143D01*
X40092Y32148D01*
X40095Y32155D01*
X40097Y32161D01*
X40101Y32175D01*
X40104Y32188D01*
X40104Y32194D01*
X40105Y32200D01*
X40105Y32205D01*
X40106Y32210D01*
X40106Y32214D01*
Y32217D01*
Y32219D01*
Y32219D01*
X40106Y32229D01*
X40105Y32239D01*
X40104Y32247D01*
X40103Y32255D01*
X40101Y32262D01*
X40099Y32269D01*
X40097Y32275D01*
X40095Y32280D01*
X40093Y32285D01*
X40091Y32289D01*
X40089Y32292D01*
X40087Y32295D01*
X40086Y32297D01*
X40085Y32299D01*
X40085Y32299D01*
X40084Y32300D01*
X40080Y32304D01*
X40075Y32308D01*
X40070Y32312D01*
X40066Y32315D01*
X40061Y32317D01*
X40056Y32319D01*
X40047Y32322D01*
X40039Y32324D01*
X40035Y32325D01*
X40032Y32325D01*
X40030Y32326D01*
X40026D01*
X40018Y32325D01*
X40010Y32324D01*
X40003Y32321D01*
X39998Y32319D01*
X39993Y32316D01*
X39989Y32314D01*
X39987Y32312D01*
X39986Y32311D01*
X39981Y32305D01*
X39976Y32299D01*
X39972Y32291D01*
X39968Y32285D01*
X39966Y32279D01*
X39964Y32274D01*
X39964Y32272D01*
X39963Y32270D01*
X39963Y32269D01*
Y32269D01*
X39917Y32276D01*
X39919Y32284D01*
X39921Y32291D01*
X39924Y32298D01*
X39926Y32304D01*
X39929Y32310D01*
X39933Y32315D01*
X39936Y32320D01*
X39939Y32324D01*
X39942Y32328D01*
X39945Y32331D01*
X39947Y32334D01*
X39950Y32337D01*
X39951Y32338D01*
X39953Y32340D01*
X39954Y32341D01*
X39954Y32341D01*
X39960Y32345D01*
X39966Y32349D01*
X39972Y32352D01*
X39978Y32354D01*
X39990Y32358D01*
X40002Y32361D01*
X40008Y32362D01*
X40013Y32363D01*
X40017Y32363D01*
X40021Y32364D01*
X40024Y32364D01*
X40028D01*
X40041Y32363D01*
D02*
G37*
G36*
X44216Y32364D02*
X44222Y32363D01*
X44227Y32361D01*
X44231Y32360D01*
X44235Y32358D01*
X44237Y32356D01*
X44239Y32355D01*
X44240Y32355D01*
X44242Y32353D01*
X44245Y32350D01*
X44250Y32345D01*
X44255Y32338D01*
X44260Y32331D01*
X44264Y32326D01*
X44267Y32320D01*
X44268Y32319D01*
X44269Y32317D01*
X44270Y32316D01*
Y32358D01*
X44312D01*
Y32080D01*
X44265D01*
Y32225D01*
X44265Y32236D01*
X44264Y32247D01*
X44263Y32256D01*
X44262Y32264D01*
X44260Y32271D01*
X44259Y32274D01*
X44259Y32276D01*
X44259Y32278D01*
X44258Y32279D01*
X44258Y32280D01*
Y32280D01*
X44255Y32286D01*
X44253Y32291D01*
X44250Y32296D01*
X44247Y32299D01*
X44245Y32302D01*
X44242Y32304D01*
X44241Y32306D01*
X44240Y32306D01*
X44235Y32309D01*
X44231Y32311D01*
X44226Y32313D01*
X44222Y32314D01*
X44218Y32315D01*
X44215Y32316D01*
X44212D01*
X44206Y32315D01*
X44200Y32314D01*
X44194Y32312D01*
X44189Y32311D01*
X44184Y32309D01*
X44181Y32307D01*
X44179Y32306D01*
X44178Y32305D01*
X44161Y32349D01*
X44170Y32354D01*
X44180Y32358D01*
X44188Y32361D01*
X44195Y32362D01*
X44201Y32363D01*
X44204Y32364D01*
X44206D01*
X44207Y32364D01*
X44210D01*
X44216Y32364D01*
D02*
G37*
G36*
X43179D02*
X43189Y32362D01*
X43198Y32360D01*
X43207Y32357D01*
X43215Y32353D01*
X43222Y32350D01*
X43228Y32346D01*
X43234Y32341D01*
X43239Y32337D01*
X43244Y32333D01*
X43248Y32329D01*
X43251Y32325D01*
X43253Y32322D01*
X43255Y32320D01*
X43256Y32319D01*
X43257Y32318D01*
Y32358D01*
X43299D01*
Y32080D01*
X43252D01*
Y32232D01*
X43252Y32241D01*
X43251Y32250D01*
X43250Y32258D01*
X43249Y32266D01*
X43247Y32272D01*
X43245Y32278D01*
X43243Y32284D01*
X43241Y32288D01*
X43239Y32292D01*
X43237Y32296D01*
X43235Y32298D01*
X43234Y32301D01*
X43232Y32302D01*
X43231Y32304D01*
X43231Y32304D01*
X43230Y32304D01*
X43226Y32308D01*
X43222Y32311D01*
X43213Y32316D01*
X43204Y32319D01*
X43196Y32321D01*
X43189Y32323D01*
X43186Y32323D01*
X43183D01*
X43181Y32324D01*
X43178D01*
X43171Y32323D01*
X43165Y32322D01*
X43160Y32321D01*
X43155Y32319D01*
X43151Y32318D01*
X43148Y32316D01*
X43146Y32315D01*
X43145Y32315D01*
X43140Y32311D01*
X43136Y32308D01*
X43133Y32304D01*
X43130Y32300D01*
X43128Y32297D01*
X43127Y32294D01*
X43126Y32293D01*
X43126Y32292D01*
X43124Y32286D01*
X43123Y32279D01*
X43121Y32272D01*
X43121Y32265D01*
X43120Y32259D01*
X43120Y32256D01*
Y32254D01*
Y32252D01*
Y32250D01*
Y32249D01*
Y32249D01*
Y32080D01*
X43073D01*
Y32251D01*
Y32257D01*
Y32262D01*
X43073Y32267D01*
Y32272D01*
X43074Y32276D01*
Y32280D01*
X43074Y32286D01*
X43075Y32291D01*
X43076Y32294D01*
X43076Y32296D01*
Y32296D01*
X43078Y32304D01*
X43080Y32311D01*
X43082Y32316D01*
X43085Y32321D01*
X43087Y32326D01*
X43089Y32329D01*
X43090Y32331D01*
X43091Y32331D01*
X43095Y32337D01*
X43100Y32341D01*
X43105Y32345D01*
X43110Y32349D01*
X43115Y32351D01*
X43119Y32353D01*
X43121Y32355D01*
X43122Y32355D01*
X43122D01*
X43130Y32358D01*
X43138Y32361D01*
X43146Y32362D01*
X43153Y32363D01*
X43159Y32364D01*
X43162D01*
X43164Y32364D01*
X43168D01*
X43179Y32364D01*
D02*
G37*
G36*
X42756D02*
X42761Y32363D01*
X42766Y32361D01*
X42771Y32360D01*
X42774Y32358D01*
X42777Y32356D01*
X42779Y32355D01*
X42780Y32355D01*
X42782Y32353D01*
X42785Y32350D01*
X42790Y32345D01*
X42795Y32338D01*
X42800Y32331D01*
X42804Y32326D01*
X42807Y32320D01*
X42808Y32319D01*
X42809Y32317D01*
X42810Y32316D01*
Y32358D01*
X42852D01*
Y32080D01*
X42805D01*
Y32225D01*
X42805Y32236D01*
X42804Y32247D01*
X42803Y32256D01*
X42801Y32264D01*
X42800Y32271D01*
X42799Y32274D01*
X42799Y32276D01*
X42799Y32278D01*
X42798Y32279D01*
X42798Y32280D01*
Y32280D01*
X42795Y32286D01*
X42793Y32291D01*
X42790Y32296D01*
X42787Y32299D01*
X42784Y32302D01*
X42782Y32304D01*
X42781Y32306D01*
X42780Y32306D01*
X42775Y32309D01*
X42771Y32311D01*
X42766Y32313D01*
X42761Y32314D01*
X42758Y32315D01*
X42755Y32316D01*
X42752D01*
X42746Y32315D01*
X42739Y32314D01*
X42734Y32312D01*
X42729Y32311D01*
X42724Y32309D01*
X42721Y32307D01*
X42719Y32306D01*
X42718Y32305D01*
X42701Y32349D01*
X42710Y32354D01*
X42719Y32358D01*
X42727Y32361D01*
X42735Y32362D01*
X42741Y32363D01*
X42744Y32364D01*
X42746D01*
X42747Y32364D01*
X42750D01*
X42756Y32364D01*
D02*
G37*
G36*
X42376Y32080D02*
X42329D01*
Y32464D01*
X42376D01*
Y32080D01*
D02*
G37*
G36*
X42257D02*
X42210D01*
Y32464D01*
X42257D01*
Y32080D01*
D02*
G37*
G36*
X41743Y32364D02*
X41749Y32363D01*
X41754Y32361D01*
X41758Y32360D01*
X41761Y32358D01*
X41764Y32356D01*
X41766Y32355D01*
X41767Y32355D01*
X41769Y32353D01*
X41772Y32350D01*
X41777Y32345D01*
X41782Y32338D01*
X41787Y32331D01*
X41791Y32326D01*
X41794Y32320D01*
X41795Y32319D01*
X41796Y32317D01*
X41797Y32316D01*
Y32358D01*
X41839D01*
Y32080D01*
X41792D01*
Y32225D01*
X41792Y32236D01*
X41791Y32247D01*
X41790Y32256D01*
X41788Y32264D01*
X41787Y32271D01*
X41786Y32274D01*
X41786Y32276D01*
X41786Y32278D01*
X41785Y32279D01*
X41785Y32280D01*
Y32280D01*
X41782Y32286D01*
X41780Y32291D01*
X41777Y32296D01*
X41774Y32299D01*
X41771Y32302D01*
X41769Y32304D01*
X41768Y32306D01*
X41767Y32306D01*
X41762Y32309D01*
X41758Y32311D01*
X41753Y32313D01*
X41749Y32314D01*
X41745Y32315D01*
X41742Y32316D01*
X41739D01*
X41733Y32315D01*
X41726Y32314D01*
X41721Y32312D01*
X41716Y32311D01*
X41711Y32309D01*
X41708Y32307D01*
X41706Y32306D01*
X41705Y32305D01*
X41688Y32349D01*
X41697Y32354D01*
X41707Y32358D01*
X41714Y32361D01*
X41722Y32362D01*
X41728Y32363D01*
X41731Y32364D01*
X41733D01*
X41734Y32364D01*
X41737D01*
X41743Y32364D01*
D02*
G37*
G36*
X40931Y32080D02*
X40878D01*
Y32133D01*
X40931D01*
Y32080D01*
D02*
G37*
G36*
X40223Y32364D02*
X40229Y32363D01*
X40234Y32361D01*
X40238Y32360D01*
X40242Y32358D01*
X40245Y32356D01*
X40246Y32355D01*
X40247Y32355D01*
X40250Y32353D01*
X40253Y32350D01*
X40258Y32345D01*
X40263Y32338D01*
X40267Y32331D01*
X40271Y32326D01*
X40274Y32320D01*
X40275Y32319D01*
X40276Y32317D01*
X40277Y32316D01*
Y32358D01*
X40320D01*
Y32080D01*
X40273D01*
Y32225D01*
X40272Y32236D01*
X40271Y32247D01*
X40270Y32256D01*
X40269Y32264D01*
X40268Y32271D01*
X40267Y32274D01*
X40266Y32276D01*
X40266Y32278D01*
X40265Y32279D01*
X40265Y32280D01*
Y32280D01*
X40263Y32286D01*
X40260Y32291D01*
X40257Y32296D01*
X40254Y32299D01*
X40252Y32302D01*
X40250Y32304D01*
X40248Y32306D01*
X40248Y32306D01*
X40243Y32309D01*
X40238Y32311D01*
X40233Y32313D01*
X40229Y32314D01*
X40225Y32315D01*
X40222Y32316D01*
X40220D01*
X40213Y32315D01*
X40207Y32314D01*
X40201Y32312D01*
X40196Y32311D01*
X40191Y32309D01*
X40188Y32307D01*
X40186Y32306D01*
X40185Y32305D01*
X40169Y32349D01*
X40178Y32354D01*
X40187Y32358D01*
X40195Y32361D01*
X40202Y32362D01*
X40208Y32363D01*
X40211Y32364D01*
X40213D01*
X40215Y32364D01*
X40217D01*
X40223Y32364D01*
D02*
G37*
G36*
X44954Y32364D02*
X44963Y32363D01*
X44972Y32361D01*
X44980Y32359D01*
X44988Y32357D01*
X44995Y32354D01*
X45002Y32352D01*
X45007Y32349D01*
X45013Y32346D01*
X45018Y32343D01*
X45022Y32340D01*
X45026Y32338D01*
X45028Y32336D01*
X45030Y32334D01*
X45032Y32334D01*
X45032Y32333D01*
X45039Y32326D01*
X45046Y32318D01*
X45052Y32309D01*
X45057Y32300D01*
X45061Y32290D01*
X45064Y32281D01*
X45067Y32271D01*
X45069Y32262D01*
X45071Y32253D01*
X45073Y32245D01*
X45074Y32238D01*
X45074Y32231D01*
X45074Y32226D01*
X45075Y32222D01*
Y32220D01*
Y32219D01*
Y32219D01*
X45074Y32206D01*
X45073Y32194D01*
X45072Y32182D01*
X45069Y32172D01*
X45067Y32163D01*
X45064Y32154D01*
X45060Y32146D01*
X45057Y32138D01*
X45054Y32132D01*
X45050Y32126D01*
X45047Y32122D01*
X45044Y32118D01*
X45042Y32115D01*
X45041Y32113D01*
X45039Y32111D01*
X45039Y32111D01*
X45032Y32104D01*
X45025Y32098D01*
X45017Y32093D01*
X45009Y32089D01*
X45001Y32086D01*
X44993Y32083D01*
X44986Y32080D01*
X44978Y32078D01*
X44971Y32077D01*
X44965Y32076D01*
X44959Y32075D01*
X44954Y32074D01*
X44950D01*
X44947Y32074D01*
X44945D01*
X44931Y32074D01*
X44919Y32076D01*
X44908Y32079D01*
X44902Y32080D01*
X44898Y32082D01*
X44893Y32083D01*
X44889Y32085D01*
X44886Y32086D01*
X44883Y32088D01*
X44881Y32088D01*
X44879Y32089D01*
X44878Y32090D01*
X44878D01*
X44867Y32097D01*
X44857Y32105D01*
X44849Y32113D01*
X44843Y32121D01*
X44837Y32127D01*
X44835Y32130D01*
X44834Y32133D01*
X44832Y32135D01*
X44831Y32137D01*
X44831Y32138D01*
Y32138D01*
X44828Y32144D01*
X44825Y32150D01*
X44821Y32164D01*
X44818Y32178D01*
X44817Y32192D01*
X44816Y32198D01*
X44815Y32204D01*
X44815Y32209D01*
Y32214D01*
X44814Y32217D01*
Y32220D01*
Y32222D01*
Y32222D01*
X44815Y32234D01*
X44816Y32246D01*
X44818Y32257D01*
X44820Y32267D01*
X44823Y32276D01*
X44826Y32284D01*
X44829Y32292D01*
X44833Y32299D01*
X44836Y32306D01*
X44839Y32311D01*
X44843Y32316D01*
X44845Y32319D01*
X44848Y32323D01*
X44849Y32325D01*
X44851Y32326D01*
X44851Y32326D01*
X44858Y32333D01*
X44866Y32339D01*
X44873Y32344D01*
X44881Y32348D01*
X44889Y32352D01*
X44896Y32355D01*
X44904Y32358D01*
X44911Y32360D01*
X44918Y32361D01*
X44925Y32362D01*
X44930Y32363D01*
X44935Y32364D01*
X44939D01*
X44942Y32364D01*
X44945D01*
X44954Y32364D01*
D02*
G37*
G36*
X44507D02*
X44516Y32363D01*
X44524Y32361D01*
X44533Y32359D01*
X44541Y32357D01*
X44548Y32354D01*
X44554Y32352D01*
X44560Y32349D01*
X44566Y32346D01*
X44571Y32343D01*
X44575Y32340D01*
X44579Y32338D01*
X44581Y32336D01*
X44583Y32334D01*
X44584Y32334D01*
X44585Y32333D01*
X44592Y32326D01*
X44599Y32318D01*
X44605Y32309D01*
X44610Y32300D01*
X44613Y32290D01*
X44617Y32281D01*
X44620Y32271D01*
X44622Y32262D01*
X44624Y32253D01*
X44626Y32245D01*
X44626Y32238D01*
X44627Y32231D01*
X44627Y32226D01*
X44628Y32222D01*
Y32220D01*
Y32219D01*
Y32219D01*
X44627Y32206D01*
X44626Y32194D01*
X44624Y32182D01*
X44622Y32172D01*
X44619Y32163D01*
X44616Y32154D01*
X44613Y32146D01*
X44610Y32138D01*
X44606Y32132D01*
X44603Y32126D01*
X44600Y32122D01*
X44597Y32118D01*
X44595Y32115D01*
X44594Y32113D01*
X44592Y32111D01*
X44592Y32111D01*
X44585Y32104D01*
X44577Y32098D01*
X44570Y32093D01*
X44562Y32089D01*
X44554Y32086D01*
X44546Y32083D01*
X44539Y32080D01*
X44531Y32078D01*
X44524Y32077D01*
X44518Y32076D01*
X44512Y32075D01*
X44507Y32074D01*
X44503D01*
X44500Y32074D01*
X44497D01*
X44484Y32074D01*
X44472Y32076D01*
X44460Y32079D01*
X44455Y32080D01*
X44450Y32082D01*
X44446Y32083D01*
X44442Y32085D01*
X44439Y32086D01*
X44436Y32088D01*
X44433Y32088D01*
X44432Y32089D01*
X44431Y32090D01*
X44430D01*
X44420Y32097D01*
X44410Y32105D01*
X44402Y32113D01*
X44396Y32121D01*
X44390Y32127D01*
X44388Y32130D01*
X44386Y32133D01*
X44385Y32135D01*
X44384Y32137D01*
X44383Y32138D01*
Y32138D01*
X44381Y32144D01*
X44378Y32150D01*
X44374Y32164D01*
X44371Y32178D01*
X44369Y32192D01*
X44368Y32198D01*
X44368Y32204D01*
X44368Y32209D01*
Y32214D01*
X44367Y32217D01*
Y32220D01*
Y32222D01*
Y32222D01*
X44368Y32234D01*
X44369Y32246D01*
X44371Y32257D01*
X44373Y32267D01*
X44376Y32276D01*
X44379Y32284D01*
X44382Y32292D01*
X44386Y32299D01*
X44389Y32306D01*
X44392Y32311D01*
X44396Y32316D01*
X44398Y32319D01*
X44401Y32323D01*
X44402Y32325D01*
X44403Y32326D01*
X44404Y32326D01*
X44411Y32333D01*
X44418Y32339D01*
X44426Y32344D01*
X44434Y32348D01*
X44442Y32352D01*
X44449Y32355D01*
X44457Y32358D01*
X44464Y32360D01*
X44471Y32361D01*
X44477Y32362D01*
X44483Y32363D01*
X44488Y32364D01*
X44492D01*
X44495Y32364D01*
X44497D01*
X44507Y32364D01*
D02*
G37*
G36*
X43494D02*
X43503Y32363D01*
X43512Y32361D01*
X43520Y32359D01*
X43528Y32357D01*
X43535Y32354D01*
X43541Y32352D01*
X43547Y32349D01*
X43553Y32346D01*
X43558Y32343D01*
X43562Y32340D01*
X43566Y32338D01*
X43568Y32336D01*
X43570Y32334D01*
X43571Y32334D01*
X43572Y32333D01*
X43579Y32326D01*
X43586Y32318D01*
X43592Y32309D01*
X43597Y32300D01*
X43601Y32290D01*
X43604Y32281D01*
X43607Y32271D01*
X43609Y32262D01*
X43611Y32253D01*
X43613Y32245D01*
X43613Y32238D01*
X43614Y32231D01*
X43614Y32226D01*
X43615Y32222D01*
Y32220D01*
Y32219D01*
Y32219D01*
X43614Y32206D01*
X43613Y32194D01*
X43611Y32182D01*
X43609Y32172D01*
X43606Y32163D01*
X43603Y32154D01*
X43600Y32146D01*
X43597Y32138D01*
X43593Y32132D01*
X43590Y32126D01*
X43587Y32122D01*
X43584Y32118D01*
X43582Y32115D01*
X43581Y32113D01*
X43579Y32111D01*
X43579Y32111D01*
X43572Y32104D01*
X43564Y32098D01*
X43557Y32093D01*
X43549Y32089D01*
X43541Y32086D01*
X43533Y32083D01*
X43526Y32080D01*
X43518Y32078D01*
X43511Y32077D01*
X43505Y32076D01*
X43499Y32075D01*
X43494Y32074D01*
X43490D01*
X43487Y32074D01*
X43484D01*
X43471Y32074D01*
X43459Y32076D01*
X43447Y32079D01*
X43442Y32080D01*
X43437Y32082D01*
X43433Y32083D01*
X43429Y32085D01*
X43426Y32086D01*
X43423Y32088D01*
X43420Y32088D01*
X43419Y32089D01*
X43418Y32090D01*
X43418D01*
X43407Y32097D01*
X43397Y32105D01*
X43389Y32113D01*
X43383Y32121D01*
X43377Y32127D01*
X43375Y32130D01*
X43373Y32133D01*
X43372Y32135D01*
X43371Y32137D01*
X43370Y32138D01*
Y32138D01*
X43368Y32144D01*
X43365Y32150D01*
X43361Y32164D01*
X43358Y32178D01*
X43356Y32192D01*
X43356Y32198D01*
X43355Y32204D01*
X43355Y32209D01*
Y32214D01*
X43354Y32217D01*
Y32220D01*
Y32222D01*
Y32222D01*
X43355Y32234D01*
X43356Y32246D01*
X43358Y32257D01*
X43360Y32267D01*
X43363Y32276D01*
X43366Y32284D01*
X43369Y32292D01*
X43373Y32299D01*
X43376Y32306D01*
X43379Y32311D01*
X43383Y32316D01*
X43385Y32319D01*
X43388Y32323D01*
X43389Y32325D01*
X43390Y32326D01*
X43391Y32326D01*
X43398Y32333D01*
X43405Y32339D01*
X43413Y32344D01*
X43421Y32348D01*
X43429Y32352D01*
X43436Y32355D01*
X43444Y32358D01*
X43451Y32360D01*
X43458Y32361D01*
X43465Y32362D01*
X43470Y32363D01*
X43475Y32364D01*
X43479D01*
X43482Y32364D01*
X43484D01*
X43494Y32364D01*
D02*
G37*
G36*
X42570Y32364D02*
X42579Y32363D01*
X42588Y32361D01*
X42596Y32359D01*
X42604Y32357D01*
X42611Y32354D01*
X42618Y32352D01*
X42623Y32349D01*
X42629Y32346D01*
X42634Y32343D01*
X42638Y32340D01*
X42642Y32338D01*
X42644Y32336D01*
X42646Y32334D01*
X42647Y32334D01*
X42648Y32333D01*
X42655Y32326D01*
X42662Y32318D01*
X42668Y32309D01*
X42673Y32300D01*
X42677Y32290D01*
X42680Y32281D01*
X42683Y32271D01*
X42685Y32262D01*
X42687Y32253D01*
X42689Y32245D01*
X42689Y32238D01*
X42690Y32231D01*
X42690Y32226D01*
X42691Y32222D01*
Y32220D01*
Y32219D01*
Y32219D01*
X42690Y32206D01*
X42689Y32194D01*
X42687Y32182D01*
X42685Y32172D01*
X42682Y32163D01*
X42680Y32154D01*
X42676Y32146D01*
X42673Y32138D01*
X42670Y32132D01*
X42666Y32126D01*
X42663Y32122D01*
X42660Y32118D01*
X42658Y32115D01*
X42657Y32113D01*
X42655Y32111D01*
X42655Y32111D01*
X42648Y32104D01*
X42640Y32098D01*
X42633Y32093D01*
X42625Y32089D01*
X42617Y32086D01*
X42609Y32083D01*
X42602Y32080D01*
X42594Y32078D01*
X42587Y32077D01*
X42581Y32076D01*
X42575Y32075D01*
X42570Y32074D01*
X42566D01*
X42563Y32074D01*
X42561D01*
X42547Y32074D01*
X42535Y32076D01*
X42524Y32079D01*
X42518Y32080D01*
X42514Y32082D01*
X42509Y32083D01*
X42505Y32085D01*
X42502Y32086D01*
X42499Y32088D01*
X42496Y32088D01*
X42495Y32089D01*
X42494Y32090D01*
X42494D01*
X42483Y32097D01*
X42473Y32105D01*
X42465Y32113D01*
X42459Y32120D01*
X42453Y32127D01*
X42451Y32130D01*
X42449Y32133D01*
X42448Y32135D01*
X42447Y32137D01*
X42447Y32138D01*
Y32138D01*
X42444Y32144D01*
X42441Y32150D01*
X42437Y32164D01*
X42434Y32178D01*
X42432Y32192D01*
X42432Y32198D01*
X42431Y32204D01*
X42431Y32209D01*
Y32214D01*
X42430Y32217D01*
Y32220D01*
Y32222D01*
Y32222D01*
X42431Y32234D01*
X42432Y32246D01*
X42434Y32257D01*
X42436Y32267D01*
X42439Y32276D01*
X42442Y32284D01*
X42445Y32292D01*
X42449Y32299D01*
X42452Y32306D01*
X42455Y32311D01*
X42459Y32316D01*
X42461Y32319D01*
X42464Y32323D01*
X42465Y32325D01*
X42467Y32326D01*
X42467Y32326D01*
X42474Y32333D01*
X42481Y32339D01*
X42489Y32344D01*
X42497Y32348D01*
X42505Y32352D01*
X42512Y32355D01*
X42520Y32358D01*
X42527Y32360D01*
X42534Y32361D01*
X42541Y32362D01*
X42546Y32363D01*
X42551Y32364D01*
X42555D01*
X42558Y32364D01*
X42561D01*
X42570Y32364D01*
D02*
G37*
G36*
X41577D02*
X41584Y32363D01*
X41591Y32363D01*
X41597Y32361D01*
X41603Y32360D01*
X41606Y32359D01*
X41609Y32359D01*
X41609Y32358D01*
X41610D01*
X41616Y32356D01*
X41622Y32354D01*
X41627Y32351D01*
X41632Y32349D01*
X41635Y32348D01*
X41637Y32346D01*
X41639Y32345D01*
X41640Y32345D01*
X41645Y32341D01*
X41649Y32336D01*
X41654Y32332D01*
X41657Y32328D01*
X41659Y32324D01*
X41661Y32321D01*
X41662Y32319D01*
X41663Y32319D01*
X41666Y32313D01*
X41668Y32306D01*
X41669Y32301D01*
X41670Y32295D01*
X41671Y32291D01*
X41671Y32287D01*
Y32285D01*
Y32284D01*
Y32284D01*
X41671Y32277D01*
X41669Y32269D01*
X41668Y32263D01*
X41666Y32258D01*
X41664Y32253D01*
X41663Y32249D01*
X41662Y32247D01*
X41661Y32247D01*
X41657Y32241D01*
X41652Y32235D01*
X41647Y32231D01*
X41642Y32227D01*
X41637Y32224D01*
X41634Y32222D01*
X41632Y32221D01*
X41631Y32220D01*
X41631D01*
X41627Y32219D01*
X41622Y32217D01*
X41617Y32215D01*
X41611Y32213D01*
X41599Y32209D01*
X41587Y32205D01*
X41581Y32204D01*
X41576Y32202D01*
X41571Y32201D01*
X41567Y32200D01*
X41563Y32199D01*
X41560Y32198D01*
X41559Y32197D01*
X41558D01*
X41552Y32196D01*
X41546Y32194D01*
X41540Y32192D01*
X41535Y32191D01*
X41530Y32190D01*
X41526Y32188D01*
X41523Y32187D01*
X41520Y32186D01*
X41517Y32185D01*
X41515Y32184D01*
X41512Y32183D01*
X41511Y32182D01*
X41510Y32182D01*
X41506Y32178D01*
X41502Y32174D01*
X41499Y32170D01*
X41498Y32165D01*
X41497Y32162D01*
X41496Y32159D01*
Y32157D01*
Y32156D01*
X41497Y32150D01*
X41498Y32144D01*
X41501Y32138D01*
X41504Y32134D01*
X41507Y32130D01*
X41509Y32128D01*
X41511Y32125D01*
X41512Y32125D01*
X41518Y32121D01*
X41526Y32118D01*
X41534Y32116D01*
X41542Y32114D01*
X41549Y32113D01*
X41552Y32113D01*
X41555D01*
X41557Y32112D01*
X41560D01*
X41572Y32113D01*
X41582Y32115D01*
X41590Y32117D01*
X41597Y32120D01*
X41603Y32122D01*
X41607Y32125D01*
X41610Y32126D01*
X41610Y32127D01*
X41611D01*
X41617Y32133D01*
X41622Y32140D01*
X41625Y32147D01*
X41628Y32154D01*
X41630Y32160D01*
X41631Y32163D01*
X41632Y32165D01*
X41632Y32168D01*
Y32169D01*
X41632Y32170D01*
Y32170D01*
X41679Y32163D01*
X41677Y32155D01*
X41675Y32147D01*
X41673Y32140D01*
X41670Y32133D01*
X41667Y32127D01*
X41664Y32122D01*
X41662Y32117D01*
X41658Y32112D01*
X41655Y32108D01*
X41652Y32105D01*
X41650Y32102D01*
X41648Y32100D01*
X41646Y32098D01*
X41645Y32097D01*
X41644Y32096D01*
X41643Y32096D01*
X41637Y32092D01*
X41632Y32088D01*
X41625Y32085D01*
X41618Y32083D01*
X41604Y32079D01*
X41591Y32076D01*
X41585Y32075D01*
X41579Y32075D01*
X41573Y32074D01*
X41569Y32074D01*
X41565Y32074D01*
X41560D01*
X41548Y32074D01*
X41537Y32075D01*
X41527Y32077D01*
X41518Y32079D01*
X41515Y32080D01*
X41511Y32081D01*
X41508Y32082D01*
X41506Y32083D01*
X41504Y32084D01*
X41503Y32084D01*
X41502Y32085D01*
X41501D01*
X41492Y32089D01*
X41484Y32094D01*
X41478Y32100D01*
X41472Y32105D01*
X41468Y32110D01*
X41464Y32113D01*
X41463Y32116D01*
X41462Y32116D01*
Y32117D01*
X41457Y32125D01*
X41454Y32133D01*
X41451Y32140D01*
X41449Y32147D01*
X41449Y32153D01*
X41448Y32157D01*
Y32159D01*
Y32160D01*
Y32161D01*
Y32161D01*
X41448Y32170D01*
X41449Y32178D01*
X41451Y32185D01*
X41454Y32190D01*
X41456Y32195D01*
X41458Y32199D01*
X41459Y32201D01*
X41459Y32202D01*
X41464Y32207D01*
X41469Y32212D01*
X41474Y32217D01*
X41479Y32220D01*
X41484Y32223D01*
X41487Y32225D01*
X41490Y32226D01*
X41490Y32226D01*
X41491D01*
X41495Y32228D01*
X41499Y32229D01*
X41504Y32232D01*
X41510Y32233D01*
X41521Y32237D01*
X41533Y32240D01*
X41538Y32242D01*
X41543Y32244D01*
X41548Y32245D01*
X41552Y32246D01*
X41555Y32247D01*
X41558Y32248D01*
X41560Y32248D01*
X41560D01*
X41566Y32250D01*
X41572Y32252D01*
X41577Y32253D01*
X41581Y32254D01*
X41585Y32255D01*
X41588Y32256D01*
X41591Y32257D01*
X41594Y32258D01*
X41597Y32259D01*
X41600Y32260D01*
X41601Y32260D01*
X41602D01*
X41606Y32262D01*
X41610Y32264D01*
X41613Y32267D01*
X41615Y32269D01*
X41617Y32270D01*
X41619Y32272D01*
X41620Y32272D01*
X41620Y32273D01*
X41622Y32276D01*
X41623Y32279D01*
X41625Y32284D01*
X41625Y32286D01*
X41625Y32288D01*
Y32289D01*
Y32289D01*
X41625Y32295D01*
X41623Y32299D01*
X41621Y32304D01*
X41618Y32308D01*
X41616Y32311D01*
X41614Y32313D01*
X41612Y32314D01*
X41612Y32315D01*
X41609Y32317D01*
X41606Y32319D01*
X41599Y32321D01*
X41591Y32323D01*
X41583Y32324D01*
X41576Y32325D01*
X41573D01*
X41571Y32326D01*
X41565D01*
X41555Y32325D01*
X41547Y32324D01*
X41540Y32322D01*
X41533Y32319D01*
X41529Y32317D01*
X41526Y32315D01*
X41523Y32314D01*
X41523Y32313D01*
X41518Y32308D01*
X41513Y32303D01*
X41510Y32297D01*
X41508Y32292D01*
X41506Y32287D01*
X41505Y32283D01*
X41504Y32281D01*
Y32280D01*
Y32280D01*
X41458Y32286D01*
X41460Y32296D01*
X41463Y32304D01*
X41465Y32311D01*
X41468Y32318D01*
X41471Y32322D01*
X41473Y32326D01*
X41474Y32328D01*
X41475Y32329D01*
X41480Y32335D01*
X41486Y32340D01*
X41491Y32344D01*
X41497Y32348D01*
X41503Y32351D01*
X41507Y32353D01*
X41509Y32354D01*
X41510Y32354D01*
X41511Y32355D01*
X41511D01*
X41521Y32358D01*
X41531Y32360D01*
X41541Y32362D01*
X41549Y32363D01*
X41557Y32364D01*
X41560D01*
X41563Y32364D01*
X41569D01*
X41577Y32364D01*
D02*
G37*
G36*
X41139Y32465D02*
X41146Y32464D01*
X41153Y32463D01*
X41160Y32462D01*
X41166Y32460D01*
X41172Y32458D01*
X41177Y32456D01*
X41182Y32454D01*
X41186Y32452D01*
X41190Y32450D01*
X41193Y32448D01*
X41196Y32446D01*
X41198Y32445D01*
X41199Y32443D01*
X41200Y32443D01*
X41201Y32442D01*
X41206Y32438D01*
X41210Y32433D01*
X41219Y32423D01*
X41226Y32413D01*
X41232Y32402D01*
X41234Y32397D01*
X41236Y32393D01*
X41238Y32389D01*
X41240Y32385D01*
X41241Y32383D01*
X41241Y32380D01*
X41242Y32379D01*
Y32378D01*
X41245Y32371D01*
X41247Y32362D01*
X41250Y32344D01*
X41253Y32326D01*
X41253Y32317D01*
X41254Y32308D01*
X41255Y32300D01*
X41255Y32293D01*
X41256Y32286D01*
Y32280D01*
X41256Y32276D01*
Y32272D01*
Y32270D01*
Y32269D01*
X41256Y32249D01*
X41254Y32231D01*
X41253Y32215D01*
X41250Y32199D01*
X41247Y32185D01*
X41244Y32172D01*
X41241Y32161D01*
X41237Y32150D01*
X41234Y32142D01*
X41230Y32134D01*
X41227Y32128D01*
X41224Y32122D01*
X41221Y32118D01*
X41220Y32115D01*
X41219Y32113D01*
X41218Y32113D01*
X41212Y32106D01*
X41205Y32100D01*
X41198Y32095D01*
X41191Y32090D01*
X41184Y32086D01*
X41177Y32083D01*
X41169Y32081D01*
X41163Y32078D01*
X41156Y32077D01*
X41150Y32076D01*
X41145Y32075D01*
X41140Y32074D01*
X41137Y32074D01*
X41134Y32074D01*
X41131D01*
X41123Y32074D01*
X41116Y32074D01*
X41109Y32076D01*
X41102Y32077D01*
X41096Y32079D01*
X41091Y32081D01*
X41085Y32083D01*
X41081Y32085D01*
X41076Y32087D01*
X41073Y32089D01*
X41069Y32091D01*
X41067Y32093D01*
X41065Y32094D01*
X41063Y32095D01*
X41062Y32096D01*
X41062Y32096D01*
X41057Y32101D01*
X41052Y32105D01*
X41043Y32116D01*
X41036Y32126D01*
X41031Y32136D01*
X41028Y32141D01*
X41026Y32146D01*
X41024Y32150D01*
X41023Y32153D01*
X41021Y32156D01*
X41021Y32158D01*
X41020Y32160D01*
Y32160D01*
X41018Y32168D01*
X41016Y32177D01*
X41012Y32195D01*
X41009Y32213D01*
X41008Y32222D01*
X41008Y32230D01*
X41007Y32238D01*
X41007Y32246D01*
X41006Y32252D01*
X41006Y32258D01*
Y32262D01*
Y32266D01*
Y32268D01*
Y32269D01*
Y32279D01*
X41006Y32289D01*
X41007Y32299D01*
X41007Y32307D01*
X41008Y32315D01*
X41009Y32323D01*
X41010Y32329D01*
X41010Y32336D01*
X41011Y32341D01*
X41012Y32346D01*
X41013Y32350D01*
X41013Y32353D01*
X41014Y32356D01*
X41014Y32358D01*
X41015Y32359D01*
Y32359D01*
X41018Y32371D01*
X41022Y32383D01*
X41026Y32392D01*
X41030Y32400D01*
X41032Y32404D01*
X41033Y32407D01*
X41035Y32410D01*
X41036Y32412D01*
X41037Y32414D01*
X41038Y32415D01*
X41038Y32416D01*
Y32416D01*
X41044Y32425D01*
X41051Y32432D01*
X41057Y32438D01*
X41063Y32443D01*
X41069Y32447D01*
X41073Y32450D01*
X41075Y32451D01*
X41076Y32452D01*
X41077Y32452D01*
X41077D01*
X41086Y32457D01*
X41095Y32460D01*
X41105Y32462D01*
X41113Y32463D01*
X41120Y32464D01*
X41123Y32465D01*
X41126Y32465D01*
X41131D01*
X41139Y32465D01*
D02*
G37*
G36*
X43685Y31943D02*
X43638D01*
Y31997D01*
X43685D01*
Y31943D01*
D02*
G37*
G36*
X44550Y31942D02*
X44503D01*
Y31997D01*
X44550D01*
Y31942D01*
D02*
G37*
G36*
X44016Y31897D02*
X44026Y31895D01*
X44034Y31894D01*
X44042Y31891D01*
X44047Y31889D01*
X44050Y31888D01*
X44052Y31887D01*
X44054Y31886D01*
X44055Y31885D01*
X44055Y31885D01*
X44056D01*
X44064Y31880D01*
X44070Y31874D01*
X44076Y31869D01*
X44081Y31864D01*
X44085Y31859D01*
X44088Y31855D01*
X44090Y31853D01*
X44091Y31852D01*
Y31891D01*
X44133D01*
Y31613D01*
X44086D01*
Y31757D01*
Y31764D01*
X44085Y31770D01*
X44085Y31777D01*
X44084Y31782D01*
X44084Y31787D01*
X44083Y31792D01*
X44083Y31796D01*
X44082Y31800D01*
X44081Y31804D01*
X44081Y31807D01*
X44080Y31809D01*
X44079Y31811D01*
X44079Y31813D01*
X44079Y31814D01*
X44078Y31814D01*
Y31815D01*
X44075Y31822D01*
X44071Y31828D01*
X44067Y31834D01*
X44063Y31838D01*
X44059Y31842D01*
X44056Y31844D01*
X44054Y31845D01*
X44054Y31846D01*
X44047Y31849D01*
X44041Y31852D01*
X44034Y31854D01*
X44029Y31855D01*
X44024Y31856D01*
X44020Y31857D01*
X44017D01*
X44007Y31856D01*
X43999Y31854D01*
X43993Y31852D01*
X43988Y31849D01*
X43984Y31846D01*
X43981Y31843D01*
X43980Y31842D01*
X43979Y31841D01*
X43975Y31834D01*
X43972Y31827D01*
X43970Y31819D01*
X43969Y31811D01*
X43968Y31804D01*
Y31801D01*
X43967Y31799D01*
Y31796D01*
Y31795D01*
Y31794D01*
Y31793D01*
Y31613D01*
X43920D01*
Y31774D01*
X43920Y31782D01*
X43920Y31789D01*
X43919Y31796D01*
X43918Y31802D01*
X43916Y31808D01*
X43914Y31813D01*
X43913Y31818D01*
X43910Y31822D01*
X43909Y31825D01*
X43907Y31829D01*
X43905Y31831D01*
X43904Y31833D01*
X43903Y31835D01*
X43902Y31836D01*
X43901Y31837D01*
Y31837D01*
X43897Y31840D01*
X43893Y31844D01*
X43885Y31848D01*
X43877Y31852D01*
X43869Y31854D01*
X43862Y31856D01*
X43859Y31856D01*
X43857D01*
X43855Y31857D01*
X43852D01*
X43846Y31856D01*
X43841Y31855D01*
X43836Y31854D01*
X43831Y31853D01*
X43828Y31851D01*
X43826Y31850D01*
X43824Y31849D01*
X43824Y31849D01*
X43819Y31846D01*
X43816Y31842D01*
X43813Y31839D01*
X43811Y31836D01*
X43809Y31833D01*
X43808Y31831D01*
X43807Y31829D01*
Y31829D01*
X43805Y31823D01*
X43804Y31817D01*
X43804Y31810D01*
X43803Y31804D01*
Y31797D01*
X43802Y31792D01*
Y31791D01*
Y31789D01*
Y31788D01*
Y31788D01*
Y31613D01*
X43755D01*
Y31804D01*
X43756Y31812D01*
X43756Y31820D01*
X43757Y31828D01*
X43759Y31835D01*
X43760Y31841D01*
X43762Y31847D01*
X43764Y31852D01*
X43767Y31857D01*
X43769Y31861D01*
X43771Y31864D01*
X43772Y31867D01*
X43774Y31870D01*
X43776Y31871D01*
X43777Y31873D01*
X43777Y31874D01*
X43778Y31874D01*
X43782Y31878D01*
X43787Y31882D01*
X43792Y31885D01*
X43797Y31887D01*
X43808Y31891D01*
X43818Y31894D01*
X43823Y31895D01*
X43827Y31896D01*
X43831Y31896D01*
X43835Y31897D01*
X43837Y31897D01*
X43841D01*
X43851Y31897D01*
X43860Y31895D01*
X43869Y31893D01*
X43877Y31890D01*
X43885Y31886D01*
X43892Y31882D01*
X43898Y31877D01*
X43904Y31873D01*
X43910Y31869D01*
X43914Y31864D01*
X43918Y31860D01*
X43921Y31856D01*
X43924Y31853D01*
X43926Y31851D01*
X43927Y31849D01*
X43928Y31849D01*
X43931Y31857D01*
X43935Y31864D01*
X43940Y31870D01*
X43945Y31875D01*
X43949Y31879D01*
X43952Y31882D01*
X43955Y31884D01*
X43955Y31884D01*
X43956D01*
X43964Y31889D01*
X43972Y31892D01*
X43980Y31894D01*
X43988Y31896D01*
X43995Y31896D01*
X43998Y31897D01*
X44001Y31897D01*
X44006D01*
X44016Y31897D01*
D02*
G37*
G36*
X44326D02*
X44338Y31896D01*
X44349Y31894D01*
X44353Y31893D01*
X44358Y31892D01*
X44362Y31891D01*
X44366Y31891D01*
X44368Y31890D01*
X44371Y31889D01*
X44373Y31888D01*
X44375Y31888D01*
X44376Y31887D01*
X44376D01*
X44386Y31883D01*
X44394Y31879D01*
X44401Y31874D01*
X44407Y31869D01*
X44411Y31865D01*
X44415Y31862D01*
X44417Y31860D01*
X44418Y31859D01*
Y31859D01*
X44423Y31852D01*
X44427Y31844D01*
X44430Y31836D01*
X44433Y31829D01*
X44435Y31822D01*
X44436Y31819D01*
X44437Y31817D01*
X44437Y31814D01*
X44438Y31813D01*
X44438Y31812D01*
Y31812D01*
X44392Y31805D01*
X44390Y31811D01*
X44388Y31816D01*
X44385Y31824D01*
X44381Y31832D01*
X44377Y31837D01*
X44374Y31841D01*
X44371Y31844D01*
X44369Y31846D01*
X44368Y31847D01*
X44362Y31850D01*
X44354Y31853D01*
X44346Y31855D01*
X44338Y31857D01*
X44331Y31858D01*
X44328D01*
X44325Y31858D01*
X44319D01*
X44307Y31857D01*
X44296Y31856D01*
X44287Y31853D01*
X44279Y31850D01*
X44274Y31847D01*
X44272Y31846D01*
X44269Y31844D01*
X44268Y31844D01*
X44267Y31843D01*
X44266Y31842D01*
X44262Y31837D01*
X44258Y31831D01*
X44256Y31824D01*
X44254Y31817D01*
X44253Y31811D01*
X44252Y31806D01*
Y31805D01*
Y31803D01*
Y31802D01*
Y31802D01*
Y31800D01*
Y31799D01*
Y31795D01*
X44253Y31793D01*
Y31791D01*
Y31790D01*
Y31790D01*
X44258Y31788D01*
X44264Y31786D01*
X44271Y31785D01*
X44277Y31783D01*
X44291Y31780D01*
X44305Y31777D01*
X44311Y31777D01*
X44317Y31776D01*
X44323Y31775D01*
X44328Y31774D01*
X44331Y31774D01*
X44334Y31773D01*
X44336Y31773D01*
X44337D01*
X44347Y31772D01*
X44355Y31770D01*
X44363Y31769D01*
X44368Y31768D01*
X44373Y31767D01*
X44376Y31767D01*
X44378Y31766D01*
X44379D01*
X44386Y31764D01*
X44392Y31761D01*
X44398Y31759D01*
X44403Y31756D01*
X44407Y31754D01*
X44410Y31752D01*
X44412Y31751D01*
X44413Y31750D01*
X44418Y31746D01*
X44423Y31742D01*
X44427Y31738D01*
X44430Y31733D01*
X44433Y31729D01*
X44435Y31726D01*
X44437Y31724D01*
X44437Y31723D01*
X44440Y31717D01*
X44443Y31711D01*
X44444Y31704D01*
X44445Y31698D01*
X44446Y31693D01*
X44446Y31689D01*
Y31687D01*
Y31686D01*
Y31686D01*
X44446Y31680D01*
X44445Y31673D01*
X44444Y31668D01*
X44443Y31662D01*
X44438Y31652D01*
X44434Y31644D01*
X44432Y31641D01*
X44430Y31638D01*
X44428Y31635D01*
X44425Y31633D01*
X44424Y31631D01*
X44423Y31630D01*
X44422Y31629D01*
X44422Y31629D01*
X44417Y31625D01*
X44412Y31621D01*
X44406Y31618D01*
X44401Y31616D01*
X44389Y31612D01*
X44377Y31609D01*
X44372Y31608D01*
X44367Y31608D01*
X44363Y31607D01*
X44359Y31607D01*
X44356Y31607D01*
X44351D01*
X44341Y31607D01*
X44331Y31608D01*
X44323Y31609D01*
X44315Y31611D01*
X44309Y31613D01*
X44306Y31614D01*
X44304Y31614D01*
X44302Y31615D01*
X44301Y31615D01*
X44300Y31616D01*
X44299D01*
X44290Y31620D01*
X44281Y31624D01*
X44273Y31630D01*
X44265Y31635D01*
X44258Y31640D01*
X44256Y31642D01*
X44253Y31644D01*
X44251Y31646D01*
X44250Y31647D01*
X44249Y31647D01*
X44249Y31648D01*
X44248Y31640D01*
X44247Y31634D01*
X44245Y31628D01*
X44243Y31623D01*
X44242Y31619D01*
X44241Y31615D01*
X44240Y31614D01*
X44240Y31613D01*
X44190D01*
X44193Y31619D01*
X44196Y31625D01*
X44198Y31630D01*
X44200Y31635D01*
X44201Y31640D01*
X44202Y31643D01*
X44202Y31645D01*
Y31646D01*
X44202Y31650D01*
X44203Y31655D01*
X44203Y31660D01*
X44204Y31666D01*
X44204Y31673D01*
Y31680D01*
X44205Y31694D01*
Y31701D01*
X44205Y31708D01*
Y31713D01*
Y31719D01*
Y31723D01*
Y31726D01*
Y31728D01*
Y31729D01*
Y31792D01*
Y31798D01*
Y31803D01*
X44205Y31807D01*
Y31812D01*
X44206Y31819D01*
X44206Y31825D01*
X44207Y31830D01*
X44207Y31833D01*
X44207Y31835D01*
Y31835D01*
X44209Y31842D01*
X44212Y31849D01*
X44214Y31854D01*
X44217Y31859D01*
X44219Y31862D01*
X44221Y31865D01*
X44222Y31867D01*
X44222Y31867D01*
X44227Y31872D01*
X44232Y31876D01*
X44237Y31880D01*
X44243Y31883D01*
X44248Y31885D01*
X44252Y31887D01*
X44253Y31888D01*
X44254Y31888D01*
X44255Y31889D01*
X44255D01*
X44264Y31891D01*
X44274Y31894D01*
X44283Y31895D01*
X44292Y31896D01*
X44300Y31897D01*
X44304D01*
X44307Y31897D01*
X44313D01*
X44326Y31897D01*
D02*
G37*
G36*
X42653Y31612D02*
X42655Y31607D01*
X42657Y31604D01*
X42657Y31602D01*
X42658Y31601D01*
X42660Y31596D01*
X42661Y31591D01*
X42663Y31587D01*
X42664Y31583D01*
X42667Y31577D01*
X42669Y31572D01*
X42670Y31569D01*
X42671Y31567D01*
X42672Y31566D01*
X42672Y31565D01*
X42677Y31559D01*
X42680Y31557D01*
X42682Y31555D01*
X42685Y31553D01*
X42686Y31552D01*
X42687Y31551D01*
X42688Y31551D01*
X42692Y31549D01*
X42696Y31548D01*
X42700Y31547D01*
X42704Y31546D01*
X42707Y31546D01*
X42710Y31545D01*
X42713D01*
X42717Y31546D01*
X42722Y31546D01*
X42726Y31547D01*
X42730Y31548D01*
X42734Y31549D01*
X42737Y31549D01*
X42739Y31550D01*
X42739D01*
X42734Y31506D01*
X42728Y31504D01*
X42722Y31502D01*
X42717Y31501D01*
X42712Y31501D01*
X42709Y31500D01*
X42706Y31500D01*
X42704D01*
X42695Y31500D01*
X42688Y31502D01*
X42682Y31504D01*
X42676Y31506D01*
X42671Y31507D01*
X42668Y31510D01*
X42666Y31511D01*
X42665Y31511D01*
X42659Y31516D01*
X42654Y31521D01*
X42649Y31527D01*
X42645Y31532D01*
X42641Y31537D01*
X42638Y31542D01*
X42638Y31543D01*
X42637Y31545D01*
X42636Y31545D01*
Y31545D01*
X42634Y31549D01*
X42633Y31553D01*
X42630Y31557D01*
X42628Y31562D01*
X42624Y31573D01*
X42619Y31583D01*
X42618Y31588D01*
X42615Y31593D01*
X42614Y31597D01*
X42613Y31601D01*
X42611Y31604D01*
X42610Y31606D01*
X42610Y31608D01*
Y31608D01*
X42504Y31891D01*
X42551D01*
X42611Y31728D01*
X42615Y31717D01*
X42619Y31706D01*
X42622Y31695D01*
X42625Y31685D01*
X42626Y31681D01*
X42627Y31677D01*
X42628Y31673D01*
X42629Y31671D01*
X42630Y31668D01*
X42630Y31667D01*
X42630Y31666D01*
Y31665D01*
X42634Y31678D01*
X42637Y31689D01*
X42641Y31701D01*
X42644Y31710D01*
X42645Y31714D01*
X42647Y31718D01*
X42648Y31721D01*
X42649Y31724D01*
X42650Y31727D01*
X42650Y31728D01*
X42651Y31729D01*
Y31730D01*
X42709Y31891D01*
X42759D01*
X42653Y31612D01*
D02*
G37*
G36*
X45042Y31897D02*
X45053Y31896D01*
X45062Y31894D01*
X45071Y31891D01*
X45079Y31888D01*
X45087Y31885D01*
X45094Y31881D01*
X45101Y31878D01*
X45106Y31874D01*
X45111Y31871D01*
X45116Y31867D01*
X45119Y31864D01*
X45122Y31862D01*
X45124Y31860D01*
X45126Y31859D01*
X45126Y31858D01*
X45132Y31851D01*
X45138Y31842D01*
X45143Y31834D01*
X45147Y31825D01*
X45150Y31816D01*
X45153Y31807D01*
X45156Y31798D01*
X45157Y31789D01*
X45159Y31781D01*
X45160Y31773D01*
X45161Y31767D01*
X45161Y31761D01*
Y31756D01*
X45162Y31752D01*
Y31750D01*
Y31749D01*
X45161Y31737D01*
X45160Y31725D01*
X45158Y31714D01*
X45156Y31704D01*
X45153Y31695D01*
X45151Y31686D01*
X45147Y31678D01*
X45144Y31671D01*
X45141Y31665D01*
X45138Y31659D01*
X45135Y31655D01*
X45132Y31651D01*
X45130Y31648D01*
X45128Y31646D01*
X45127Y31644D01*
X45126Y31644D01*
X45119Y31637D01*
X45112Y31631D01*
X45104Y31626D01*
X45096Y31622D01*
X45088Y31619D01*
X45080Y31616D01*
X45072Y31613D01*
X45064Y31611D01*
X45057Y31610D01*
X45051Y31609D01*
X45045Y31608D01*
X45039Y31607D01*
X45035D01*
X45032Y31607D01*
X45030D01*
X45021Y31607D01*
X45012Y31607D01*
X45004Y31609D01*
X44997Y31610D01*
X44990Y31612D01*
X44983Y31614D01*
X44977Y31616D01*
X44972Y31618D01*
X44967Y31620D01*
X44963Y31622D01*
X44959Y31624D01*
X44955Y31626D01*
X44953Y31628D01*
X44951Y31629D01*
X44950Y31629D01*
X44950Y31630D01*
X44944Y31634D01*
X44939Y31639D01*
X44935Y31645D01*
X44930Y31650D01*
X44923Y31661D01*
X44917Y31672D01*
X44915Y31677D01*
X44913Y31681D01*
X44911Y31686D01*
X44910Y31689D01*
X44908Y31692D01*
X44908Y31694D01*
X44907Y31696D01*
Y31696D01*
X44956Y31703D01*
X44960Y31692D01*
X44965Y31683D01*
X44970Y31675D01*
X44975Y31669D01*
X44979Y31664D01*
X44983Y31661D01*
X44985Y31659D01*
X44985Y31658D01*
X44985D01*
X44992Y31654D01*
X45000Y31651D01*
X45007Y31649D01*
X45014Y31647D01*
X45020Y31646D01*
X45025Y31646D01*
X45027Y31645D01*
X45030D01*
X45036Y31646D01*
X45042Y31646D01*
X45048Y31647D01*
X45053Y31649D01*
X45063Y31653D01*
X45072Y31657D01*
X45075Y31659D01*
X45079Y31662D01*
X45081Y31664D01*
X45084Y31666D01*
X45085Y31667D01*
X45086Y31668D01*
X45087Y31669D01*
X45088Y31669D01*
X45092Y31674D01*
X45096Y31679D01*
X45099Y31685D01*
X45101Y31691D01*
X45106Y31703D01*
X45109Y31714D01*
X45111Y31719D01*
X45111Y31724D01*
X45112Y31728D01*
X45113Y31733D01*
X45113Y31735D01*
X45114Y31738D01*
Y31740D01*
Y31740D01*
X44906D01*
X44906Y31745D01*
Y31750D01*
Y31752D01*
Y31753D01*
X44906Y31765D01*
X44907Y31777D01*
X44909Y31788D01*
X44911Y31798D01*
X44914Y31808D01*
X44917Y31817D01*
X44920Y31824D01*
X44923Y31832D01*
X44926Y31838D01*
X44930Y31844D01*
X44933Y31848D01*
X44935Y31852D01*
X44938Y31855D01*
X44939Y31857D01*
X44940Y31859D01*
X44941Y31859D01*
X44948Y31866D01*
X44955Y31871D01*
X44963Y31877D01*
X44970Y31881D01*
X44977Y31885D01*
X44985Y31888D01*
X44992Y31891D01*
X45000Y31893D01*
X45006Y31894D01*
X45012Y31895D01*
X45018Y31896D01*
X45023Y31897D01*
X45027D01*
X45030Y31897D01*
X45032D01*
X45042Y31897D01*
D02*
G37*
G36*
X42360Y31897D02*
X42370Y31896D01*
X42380Y31894D01*
X42389Y31891D01*
X42397Y31888D01*
X42405Y31885D01*
X42412Y31881D01*
X42418Y31878D01*
X42424Y31874D01*
X42429Y31871D01*
X42434Y31867D01*
X42437Y31864D01*
X42440Y31862D01*
X42442Y31860D01*
X42443Y31859D01*
X42444Y31858D01*
X42450Y31851D01*
X42455Y31842D01*
X42460Y31834D01*
X42464Y31825D01*
X42468Y31816D01*
X42471Y31807D01*
X42473Y31798D01*
X42475Y31789D01*
X42477Y31781D01*
X42477Y31773D01*
X42478Y31767D01*
X42479Y31761D01*
Y31756D01*
X42479Y31752D01*
Y31750D01*
Y31749D01*
X42479Y31737D01*
X42478Y31725D01*
X42476Y31714D01*
X42474Y31704D01*
X42471Y31695D01*
X42468Y31686D01*
X42465Y31678D01*
X42462Y31671D01*
X42459Y31665D01*
X42455Y31659D01*
X42452Y31655D01*
X42449Y31651D01*
X42447Y31648D01*
X42446Y31646D01*
X42444Y31644D01*
X42444Y31644D01*
X42437Y31637D01*
X42429Y31631D01*
X42422Y31626D01*
X42414Y31622D01*
X42406Y31619D01*
X42397Y31616D01*
X42390Y31613D01*
X42382Y31611D01*
X42375Y31610D01*
X42368Y31609D01*
X42363Y31608D01*
X42357Y31607D01*
X42353D01*
X42350Y31606D01*
X42347D01*
X42338Y31607D01*
X42330Y31607D01*
X42322Y31609D01*
X42314Y31610D01*
X42307Y31612D01*
X42301Y31614D01*
X42295Y31616D01*
X42289Y31618D01*
X42284Y31620D01*
X42280Y31622D01*
X42276Y31624D01*
X42273Y31626D01*
X42271Y31628D01*
X42269Y31629D01*
X42268Y31629D01*
X42268Y31630D01*
X42262Y31634D01*
X42257Y31639D01*
X42252Y31645D01*
X42248Y31650D01*
X42240Y31661D01*
X42234Y31672D01*
X42232Y31677D01*
X42230Y31681D01*
X42229Y31686D01*
X42227Y31689D01*
X42226Y31692D01*
X42225Y31694D01*
X42225Y31696D01*
Y31696D01*
X42274Y31703D01*
X42278Y31692D01*
X42283Y31683D01*
X42288Y31675D01*
X42293Y31669D01*
X42297Y31664D01*
X42300Y31661D01*
X42302Y31659D01*
X42303Y31658D01*
X42303D01*
X42310Y31654D01*
X42318Y31651D01*
X42325Y31649D01*
X42332Y31647D01*
X42338Y31646D01*
X42343Y31646D01*
X42345Y31645D01*
X42347D01*
X42353Y31646D01*
X42360Y31646D01*
X42365Y31647D01*
X42371Y31649D01*
X42381Y31653D01*
X42389Y31657D01*
X42393Y31659D01*
X42396Y31662D01*
X42399Y31664D01*
X42401Y31666D01*
X42403Y31667D01*
X42404Y31668D01*
X42405Y31669D01*
X42405Y31669D01*
X42410Y31674D01*
X42413Y31679D01*
X42416Y31685D01*
X42419Y31691D01*
X42424Y31703D01*
X42427Y31714D01*
X42428Y31719D01*
X42429Y31724D01*
X42430Y31728D01*
X42430Y31733D01*
X42431Y31735D01*
X42431Y31738D01*
Y31740D01*
Y31740D01*
X42224D01*
X42223Y31745D01*
Y31750D01*
Y31752D01*
Y31753D01*
X42224Y31765D01*
X42225Y31777D01*
X42227Y31788D01*
X42229Y31798D01*
X42231Y31808D01*
X42234Y31817D01*
X42238Y31824D01*
X42241Y31832D01*
X42244Y31838D01*
X42247Y31844D01*
X42250Y31848D01*
X42253Y31852D01*
X42255Y31855D01*
X42257Y31857D01*
X42258Y31859D01*
X42259Y31859D01*
X42265Y31866D01*
X42273Y31871D01*
X42280Y31877D01*
X42288Y31881D01*
X42295Y31885D01*
X42303Y31888D01*
X42310Y31891D01*
X42317Y31893D01*
X42324Y31894D01*
X42330Y31895D01*
X42335Y31896D01*
X42340Y31897D01*
X42344D01*
X42347Y31897D01*
X42350D01*
X42360Y31897D01*
D02*
G37*
G36*
X45500Y31613D02*
X45354D01*
X45341Y31613D01*
X45329Y31614D01*
X45318Y31615D01*
X45313Y31615D01*
X45309Y31616D01*
X45305Y31616D01*
X45302Y31617D01*
X45299Y31618D01*
X45297Y31618D01*
X45294Y31619D01*
X45293D01*
X45292Y31619D01*
X45292D01*
X45283Y31621D01*
X45275Y31624D01*
X45267Y31628D01*
X45262Y31631D01*
X45257Y31634D01*
X45253Y31636D01*
X45251Y31637D01*
X45250Y31638D01*
X45244Y31643D01*
X45238Y31649D01*
X45233Y31655D01*
X45230Y31661D01*
X45226Y31666D01*
X45224Y31670D01*
X45223Y31671D01*
X45222Y31673D01*
X45222Y31673D01*
Y31673D01*
X45218Y31682D01*
X45215Y31691D01*
X45213Y31700D01*
X45211Y31708D01*
X45210Y31714D01*
Y31717D01*
X45210Y31719D01*
Y31721D01*
Y31723D01*
Y31723D01*
Y31724D01*
Y31730D01*
X45211Y31736D01*
X45213Y31747D01*
X45216Y31757D01*
X45220Y31765D01*
X45221Y31769D01*
X45223Y31772D01*
X45225Y31775D01*
X45226Y31778D01*
X45228Y31780D01*
X45228Y31781D01*
X45229Y31782D01*
X45229Y31782D01*
X45237Y31791D01*
X45245Y31798D01*
X45254Y31804D01*
X45263Y31809D01*
X45270Y31812D01*
X45274Y31814D01*
X45277Y31815D01*
X45279Y31816D01*
X45281Y31817D01*
X45282Y31817D01*
X45282D01*
X45273Y31822D01*
X45265Y31828D01*
X45258Y31834D01*
X45252Y31839D01*
X45248Y31844D01*
X45245Y31848D01*
X45244Y31850D01*
X45243Y31851D01*
X45243Y31852D01*
Y31852D01*
X45238Y31860D01*
X45235Y31868D01*
X45232Y31876D01*
X45230Y31883D01*
X45230Y31889D01*
X45229Y31894D01*
Y31896D01*
Y31897D01*
Y31898D01*
Y31898D01*
X45230Y31908D01*
X45231Y31917D01*
X45234Y31926D01*
X45236Y31933D01*
X45239Y31940D01*
X45240Y31943D01*
X45242Y31945D01*
X45243Y31946D01*
X45243Y31948D01*
X45244Y31948D01*
Y31949D01*
X45250Y31957D01*
X45257Y31965D01*
X45264Y31971D01*
X45270Y31976D01*
X45277Y31980D01*
X45281Y31983D01*
X45283Y31983D01*
X45285Y31984D01*
X45285Y31985D01*
X45286D01*
X45297Y31989D01*
X45308Y31992D01*
X45320Y31994D01*
X45331Y31995D01*
X45336Y31996D01*
X45341Y31996D01*
X45345D01*
X45349Y31997D01*
X45500D01*
Y31613D01*
D02*
G37*
G36*
X44727Y31897D02*
X44737Y31895D01*
X44747Y31893D01*
X44755Y31890D01*
X44763Y31886D01*
X44770Y31883D01*
X44777Y31879D01*
X44783Y31874D01*
X44788Y31870D01*
X44793Y31866D01*
X44797Y31862D01*
X44799Y31858D01*
X44802Y31855D01*
X44804Y31853D01*
X44805Y31852D01*
X44805Y31851D01*
Y31891D01*
X44848D01*
Y31613D01*
X44801D01*
Y31765D01*
X44800Y31774D01*
X44800Y31783D01*
X44799Y31791D01*
X44797Y31799D01*
X44796Y31805D01*
X44794Y31811D01*
X44792Y31817D01*
X44790Y31821D01*
X44788Y31825D01*
X44786Y31829D01*
X44784Y31831D01*
X44782Y31834D01*
X44781Y31835D01*
X44780Y31837D01*
X44779Y31837D01*
X44779Y31837D01*
X44775Y31841D01*
X44770Y31844D01*
X44762Y31849D01*
X44753Y31852D01*
X44745Y31854D01*
X44738Y31856D01*
X44735Y31856D01*
X44732D01*
X44730Y31857D01*
X44727D01*
X44720Y31856D01*
X44714Y31855D01*
X44708Y31854D01*
X44703Y31852D01*
X44700Y31851D01*
X44697Y31849D01*
X44695Y31848D01*
X44694Y31848D01*
X44689Y31844D01*
X44685Y31841D01*
X44682Y31837D01*
X44679Y31833D01*
X44677Y31830D01*
X44676Y31827D01*
X44675Y31826D01*
X44675Y31825D01*
X44673Y31819D01*
X44671Y31812D01*
X44670Y31805D01*
X44670Y31798D01*
X44669Y31792D01*
X44669Y31789D01*
Y31787D01*
Y31785D01*
Y31783D01*
Y31782D01*
Y31782D01*
Y31613D01*
X44622D01*
Y31784D01*
Y31790D01*
Y31795D01*
X44622Y31800D01*
Y31805D01*
X44623Y31809D01*
Y31813D01*
X44623Y31819D01*
X44624Y31824D01*
X44624Y31827D01*
X44625Y31829D01*
Y31829D01*
X44626Y31837D01*
X44629Y31844D01*
X44631Y31849D01*
X44633Y31854D01*
X44636Y31859D01*
X44638Y31862D01*
X44639Y31864D01*
X44639Y31864D01*
X44643Y31870D01*
X44648Y31874D01*
X44654Y31878D01*
X44659Y31882D01*
X44664Y31884D01*
X44668Y31886D01*
X44670Y31888D01*
X44671Y31888D01*
X44671D01*
X44679Y31891D01*
X44687Y31894D01*
X44695Y31895D01*
X44702Y31896D01*
X44708Y31897D01*
X44710D01*
X44713Y31897D01*
X44717D01*
X44727Y31897D01*
D02*
G37*
G36*
X43685Y31613D02*
X43638D01*
Y31891D01*
X43685D01*
Y31613D01*
D02*
G37*
G36*
X43446Y31897D02*
X43456Y31895D01*
X43465Y31893D01*
X43474Y31890D01*
X43482Y31886D01*
X43489Y31883D01*
X43496Y31879D01*
X43502Y31874D01*
X43507Y31870D01*
X43512Y31866D01*
X43515Y31862D01*
X43518Y31858D01*
X43521Y31855D01*
X43523Y31853D01*
X43524Y31852D01*
X43524Y31851D01*
Y31891D01*
X43566D01*
Y31613D01*
X43519D01*
Y31765D01*
X43519Y31774D01*
X43519Y31783D01*
X43517Y31791D01*
X43516Y31799D01*
X43514Y31805D01*
X43513Y31811D01*
X43511Y31817D01*
X43509Y31821D01*
X43507Y31825D01*
X43504Y31829D01*
X43503Y31831D01*
X43501Y31834D01*
X43500Y31835D01*
X43499Y31837D01*
X43498Y31837D01*
X43498Y31837D01*
X43494Y31841D01*
X43489Y31844D01*
X43480Y31849D01*
X43472Y31852D01*
X43464Y31854D01*
X43457Y31856D01*
X43453Y31856D01*
X43451D01*
X43449Y31857D01*
X43446D01*
X43439Y31856D01*
X43432Y31855D01*
X43427Y31854D01*
X43422Y31852D01*
X43418Y31851D01*
X43415Y31849D01*
X43413Y31848D01*
X43413Y31848D01*
X43408Y31844D01*
X43404Y31841D01*
X43400Y31837D01*
X43398Y31833D01*
X43396Y31830D01*
X43395Y31827D01*
X43394Y31826D01*
X43393Y31825D01*
X43391Y31819D01*
X43390Y31812D01*
X43389Y31805D01*
X43388Y31798D01*
X43388Y31792D01*
X43388Y31789D01*
Y31787D01*
Y31785D01*
Y31783D01*
Y31782D01*
Y31782D01*
Y31613D01*
X43341D01*
Y31784D01*
Y31790D01*
Y31795D01*
X43341Y31800D01*
Y31805D01*
X43341Y31809D01*
Y31813D01*
X43342Y31819D01*
X43343Y31824D01*
X43343Y31827D01*
X43343Y31829D01*
Y31829D01*
X43345Y31837D01*
X43348Y31844D01*
X43350Y31849D01*
X43352Y31854D01*
X43355Y31859D01*
X43356Y31862D01*
X43358Y31864D01*
X43358Y31864D01*
X43362Y31870D01*
X43367Y31874D01*
X43373Y31878D01*
X43378Y31882D01*
X43383Y31884D01*
X43386Y31886D01*
X43389Y31888D01*
X43389Y31888D01*
X43390D01*
X43398Y31891D01*
X43405Y31894D01*
X43413Y31895D01*
X43420Y31896D01*
X43427Y31897D01*
X43429D01*
X43432Y31897D01*
X43436D01*
X43446Y31897D01*
D02*
G37*
G36*
X43113Y31613D02*
X42975D01*
X42962Y31613D01*
X42951Y31614D01*
X42940Y31615D01*
X42931Y31616D01*
X42927Y31616D01*
X42924Y31617D01*
X42921Y31618D01*
X42918Y31618D01*
X42916Y31619D01*
X42915D01*
X42914Y31619D01*
X42914D01*
X42904Y31622D01*
X42895Y31625D01*
X42887Y31628D01*
X42880Y31631D01*
X42875Y31634D01*
X42871Y31636D01*
X42868Y31638D01*
X42868Y31638D01*
X42868D01*
X42860Y31644D01*
X42854Y31649D01*
X42848Y31655D01*
X42843Y31661D01*
X42838Y31666D01*
X42836Y31669D01*
X42834Y31671D01*
X42833Y31672D01*
X42833Y31673D01*
Y31673D01*
X42827Y31682D01*
X42822Y31691D01*
X42817Y31701D01*
X42813Y31709D01*
X42811Y31717D01*
X42809Y31720D01*
X42808Y31723D01*
X42808Y31725D01*
X42807Y31727D01*
X42806Y31728D01*
Y31729D01*
X42803Y31742D01*
X42801Y31755D01*
X42799Y31768D01*
X42797Y31780D01*
X42797Y31786D01*
X42796Y31791D01*
Y31795D01*
X42796Y31799D01*
Y31802D01*
Y31805D01*
Y31806D01*
Y31807D01*
X42797Y31825D01*
X42797Y31834D01*
X42799Y31842D01*
X42800Y31850D01*
X42801Y31858D01*
X42802Y31865D01*
X42803Y31871D01*
X42805Y31877D01*
X42806Y31882D01*
X42808Y31887D01*
X42809Y31891D01*
X42810Y31894D01*
X42811Y31896D01*
X42811Y31897D01*
Y31898D01*
X42818Y31912D01*
X42825Y31925D01*
X42828Y31931D01*
X42832Y31936D01*
X42836Y31941D01*
X42840Y31946D01*
X42843Y31950D01*
X42846Y31953D01*
X42849Y31956D01*
X42852Y31959D01*
X42854Y31961D01*
X42855Y31962D01*
X42856Y31963D01*
X42857Y31963D01*
X42866Y31971D01*
X42875Y31976D01*
X42885Y31981D01*
X42893Y31985D01*
X42901Y31988D01*
X42905Y31988D01*
X42907Y31989D01*
X42910Y31990D01*
X42911Y31990D01*
X42912Y31991D01*
X42913D01*
X42917Y31992D01*
X42922Y31993D01*
X42934Y31994D01*
X42945Y31995D01*
X42956Y31996D01*
X42961Y31996D01*
X42966D01*
X42970Y31997D01*
X43113D01*
Y31613D01*
D02*
G37*
G36*
X42069Y31897D02*
X42075Y31896D01*
X42080Y31894D01*
X42085Y31893D01*
X42088Y31891D01*
X42091Y31889D01*
X42093Y31888D01*
X42093Y31888D01*
X42096Y31886D01*
X42099Y31883D01*
X42104Y31878D01*
X42109Y31871D01*
X42113Y31864D01*
X42118Y31859D01*
X42120Y31853D01*
X42122Y31852D01*
X42123Y31850D01*
X42123Y31849D01*
Y31891D01*
X42166D01*
Y31613D01*
X42119D01*
Y31758D01*
X42118Y31769D01*
X42118Y31780D01*
X42116Y31789D01*
X42115Y31797D01*
X42114Y31804D01*
X42113Y31807D01*
X42113Y31809D01*
X42112Y31811D01*
X42112Y31812D01*
X42111Y31813D01*
Y31813D01*
X42109Y31819D01*
X42106Y31824D01*
X42103Y31829D01*
X42100Y31832D01*
X42098Y31835D01*
X42096Y31837D01*
X42094Y31839D01*
X42094Y31839D01*
X42089Y31842D01*
X42084Y31844D01*
X42080Y31846D01*
X42075Y31847D01*
X42071Y31848D01*
X42068Y31849D01*
X42066D01*
X42059Y31848D01*
X42053Y31847D01*
X42047Y31845D01*
X42042Y31844D01*
X42038Y31842D01*
X42034Y31840D01*
X42032Y31839D01*
X42031Y31838D01*
X42015Y31882D01*
X42024Y31887D01*
X42033Y31891D01*
X42041Y31894D01*
X42048Y31895D01*
X42055Y31896D01*
X42057Y31897D01*
X42059D01*
X42061Y31897D01*
X42063D01*
X42069Y31897D01*
D02*
G37*
G36*
X44550Y31599D02*
Y31592D01*
X44550Y31586D01*
X44551Y31580D01*
X44551Y31575D01*
X44552Y31571D01*
X44552Y31567D01*
X44553Y31563D01*
X44553Y31560D01*
X44554Y31558D01*
X44555Y31556D01*
X44556Y31553D01*
X44557Y31551D01*
X44557Y31551D01*
X44560Y31547D01*
X44563Y31545D01*
X44567Y31544D01*
X44570Y31542D01*
X44574Y31542D01*
X44576Y31541D01*
X44582D01*
X44585Y31542D01*
X44593Y31543D01*
X44596Y31544D01*
X44598Y31545D01*
X44600Y31545D01*
X44601D01*
X44609Y31505D01*
X44603Y31503D01*
X44596Y31502D01*
X44590Y31501D01*
X44584Y31501D01*
X44579Y31500D01*
X44576Y31500D01*
X44573D01*
X44566Y31500D01*
X44559Y31501D01*
X44553Y31502D01*
X44547Y31504D01*
X44542Y31506D01*
X44537Y31508D01*
X44533Y31511D01*
X44529Y31513D01*
X44527Y31515D01*
X44524Y31518D01*
X44521Y31520D01*
X44519Y31522D01*
X44518Y31524D01*
X44517Y31525D01*
X44516Y31526D01*
Y31526D01*
X44514Y31530D01*
X44512Y31535D01*
X44510Y31540D01*
X44508Y31546D01*
X44506Y31558D01*
X44505Y31569D01*
X44504Y31575D01*
X44504Y31581D01*
X44503Y31585D01*
X44503Y31589D01*
Y31593D01*
Y31596D01*
Y31597D01*
Y31598D01*
Y31891D01*
X44550D01*
Y31599D01*
D02*
G37*
G36*
X45991Y42153D02*
X45991Y42151D01*
Y42149D01*
X45991Y42146D01*
X45990Y42141D01*
X45990Y42135D01*
X45990Y42133D01*
X45990Y42130D01*
X45989Y42128D01*
X45989Y42126D01*
X45989Y42125D01*
X45989Y42123D01*
Y42123D01*
Y42122D01*
X45991Y42123D01*
X45993Y42125D01*
X45998Y42127D01*
X46003Y42129D01*
X46007Y42131D01*
X46012Y42133D01*
X46014Y42133D01*
X46016Y42134D01*
X46017Y42135D01*
X46018Y42135D01*
X46019Y42135D01*
X46019D01*
X46025Y42117D01*
X46019Y42115D01*
X46014Y42114D01*
X46008Y42112D01*
X46003Y42111D01*
X46001Y42111D01*
X45999Y42110D01*
X45997Y42110D01*
X45996Y42110D01*
X45995Y42110D01*
X45994Y42109D01*
X45993Y42109D01*
X45993D01*
X45994Y42108D01*
X45996Y42106D01*
X45998Y42105D01*
X45999Y42103D01*
X46003Y42099D01*
X46006Y42095D01*
X46010Y42091D01*
X46011Y42089D01*
X46012Y42088D01*
X46013Y42086D01*
X46014Y42085D01*
X46015Y42085D01*
X46015Y42085D01*
X45999Y42074D01*
X45996Y42078D01*
X45994Y42082D01*
X45991Y42087D01*
X45988Y42091D01*
X45986Y42095D01*
X45985Y42097D01*
X45984Y42099D01*
X45983Y42100D01*
X45983Y42101D01*
X45982Y42101D01*
Y42101D01*
X45979Y42095D01*
X45975Y42090D01*
X45972Y42085D01*
X45969Y42081D01*
X45968Y42079D01*
X45967Y42078D01*
X45966Y42076D01*
X45966Y42075D01*
X45965Y42075D01*
X45965Y42074D01*
X45964Y42074D01*
Y42074D01*
X45949Y42085D01*
X45951Y42088D01*
X45954Y42091D01*
X45956Y42093D01*
X45958Y42096D01*
X45960Y42098D01*
X45962Y42100D01*
X45964Y42102D01*
X45965Y42104D01*
X45968Y42106D01*
X45970Y42108D01*
X45971Y42109D01*
X45971Y42109D01*
X45965Y42110D01*
X45959Y42111D01*
X45954Y42112D01*
X45949Y42113D01*
X45947Y42114D01*
X45944Y42115D01*
X45943Y42115D01*
X45941Y42116D01*
X45940Y42116D01*
X45939Y42116D01*
X45939Y42117D01*
X45938D01*
X45944Y42135D01*
X45951Y42133D01*
X45957Y42131D01*
X45962Y42128D01*
X45967Y42127D01*
X45968Y42126D01*
X45970Y42125D01*
X45972Y42124D01*
X45973Y42124D01*
X45974Y42123D01*
X45975Y42123D01*
X45975Y42122D01*
X45975D01*
X45975Y42130D01*
X45974Y42136D01*
X45974Y42139D01*
X45973Y42141D01*
X45973Y42144D01*
Y42146D01*
X45973Y42148D01*
X45973Y42150D01*
Y42152D01*
X45972Y42153D01*
Y42154D01*
Y42154D01*
Y42155D01*
Y42155D01*
X45991D01*
Y42153D01*
D02*
G37*
G36*
X43551Y37603D02*
X43557Y37602D01*
X43562Y37601D01*
X43567Y37599D01*
X43571Y37598D01*
X43575Y37596D01*
X43579Y37594D01*
X43582Y37591D01*
X43586Y37589D01*
X43588Y37587D01*
X43591Y37585D01*
X43592Y37583D01*
X43594Y37582D01*
X43595Y37581D01*
X43596Y37580D01*
X43596Y37580D01*
X43598Y37576D01*
X43601Y37573D01*
X43603Y37569D01*
X43605Y37565D01*
X43606Y37561D01*
X43607Y37557D01*
X43608Y37554D01*
X43609Y37550D01*
X43610Y37547D01*
X43610Y37544D01*
X43611Y37542D01*
X43611Y37539D01*
X43611Y37537D01*
Y37536D01*
Y37535D01*
Y37535D01*
X43611Y37530D01*
X43610Y37525D01*
X43609Y37521D01*
X43608Y37516D01*
X43607Y37512D01*
X43605Y37509D01*
X43604Y37505D01*
X43602Y37502D01*
X43601Y37499D01*
X43599Y37497D01*
X43598Y37495D01*
X43596Y37493D01*
X43595Y37492D01*
X43594Y37491D01*
X43594Y37490D01*
X43593Y37490D01*
X43590Y37487D01*
X43587Y37484D01*
X43583Y37482D01*
X43580Y37480D01*
X43576Y37478D01*
X43572Y37477D01*
X43569Y37476D01*
X43566Y37475D01*
X43563Y37474D01*
X43560Y37473D01*
X43558Y37473D01*
X43555Y37473D01*
X43554D01*
X43552Y37473D01*
X43551D01*
X43548Y37473D01*
X43544Y37473D01*
X43541Y37474D01*
X43538Y37474D01*
X43531Y37476D01*
X43529Y37477D01*
X43526Y37479D01*
X43524Y37480D01*
X43522Y37481D01*
X43520Y37482D01*
X43518Y37483D01*
X43517Y37484D01*
X43516Y37484D01*
X43515Y37484D01*
X43515Y37485D01*
X43525Y37433D01*
X43602D01*
Y37411D01*
X43507D01*
X43488Y37509D01*
X43510Y37512D01*
X43512Y37509D01*
X43514Y37507D01*
X43517Y37504D01*
X43519Y37502D01*
X43521Y37501D01*
X43523Y37500D01*
X43524Y37499D01*
X43524Y37499D01*
X43528Y37497D01*
X43531Y37496D01*
X43535Y37495D01*
X43538Y37494D01*
X43541Y37494D01*
X43543Y37493D01*
X43545D01*
X43548Y37494D01*
X43551Y37494D01*
X43555Y37494D01*
X43557Y37495D01*
X43562Y37497D01*
X43565Y37498D01*
X43567Y37499D01*
X43569Y37500D01*
X43570Y37501D01*
X43571Y37502D01*
X43572Y37503D01*
X43573Y37504D01*
X43574Y37505D01*
X43574Y37505D01*
X43575Y37505D01*
X43577Y37507D01*
X43578Y37510D01*
X43580Y37512D01*
X43581Y37515D01*
X43583Y37520D01*
X43585Y37525D01*
X43585Y37528D01*
X43585Y37530D01*
X43586Y37532D01*
X43586Y37534D01*
X43586Y37535D01*
Y37536D01*
Y37537D01*
Y37537D01*
X43586Y37541D01*
X43586Y37544D01*
X43585Y37548D01*
X43584Y37551D01*
X43583Y37554D01*
X43582Y37557D01*
X43581Y37560D01*
X43580Y37562D01*
X43579Y37564D01*
X43578Y37566D01*
X43577Y37567D01*
X43576Y37569D01*
X43575Y37570D01*
X43575Y37570D01*
X43574Y37571D01*
X43574Y37571D01*
X43572Y37573D01*
X43570Y37575D01*
X43567Y37577D01*
X43565Y37578D01*
X43562Y37580D01*
X43560Y37581D01*
X43555Y37582D01*
X43551Y37583D01*
X43550Y37583D01*
X43548Y37584D01*
X43547Y37584D01*
X43545D01*
X43543Y37584D01*
X43540Y37583D01*
X43536Y37582D01*
X43531Y37581D01*
X43528Y37579D01*
X43525Y37578D01*
X43523Y37576D01*
X43522Y37576D01*
X43522Y37575D01*
X43521Y37575D01*
X43521D01*
X43519Y37573D01*
X43518Y37571D01*
X43515Y37567D01*
X43513Y37562D01*
X43511Y37558D01*
X43510Y37554D01*
X43509Y37552D01*
X43509Y37551D01*
X43509Y37549D01*
X43509Y37549D01*
X43509Y37548D01*
Y37548D01*
X43484Y37550D01*
X43485Y37554D01*
X43485Y37558D01*
X43486Y37562D01*
X43488Y37566D01*
X43489Y37569D01*
X43491Y37573D01*
X43492Y37576D01*
X43494Y37578D01*
X43496Y37581D01*
X43497Y37583D01*
X43499Y37584D01*
X43500Y37586D01*
X43501Y37587D01*
X43502Y37588D01*
X43502Y37588D01*
X43503Y37589D01*
X43506Y37591D01*
X43509Y37593D01*
X43513Y37595D01*
X43516Y37597D01*
X43520Y37598D01*
X43523Y37600D01*
X43527Y37601D01*
X43530Y37601D01*
X43533Y37602D01*
X43536Y37602D01*
X43539Y37603D01*
X43541Y37603D01*
X43543Y37603D01*
X43545D01*
X43551Y37603D01*
D02*
G37*
G36*
X43381D02*
X43386Y37603D01*
X43390Y37602D01*
X43395Y37601D01*
X43399Y37601D01*
X43402Y37600D01*
X43406Y37599D01*
X43409Y37598D01*
X43411Y37597D01*
X43414Y37596D01*
X43416Y37595D01*
X43418Y37594D01*
X43419Y37594D01*
X43420Y37593D01*
X43420Y37593D01*
X43421Y37593D01*
X43424Y37590D01*
X43427Y37588D01*
X43429Y37586D01*
X43432Y37584D01*
X43434Y37581D01*
X43436Y37579D01*
X43437Y37577D01*
X43439Y37575D01*
X43441Y37571D01*
X43442Y37569D01*
X43443Y37568D01*
X43444Y37567D01*
X43444Y37566D01*
X43444Y37565D01*
Y37565D01*
X43446Y37562D01*
X43447Y37558D01*
X43448Y37550D01*
X43449Y37543D01*
X43450Y37536D01*
X43450Y37532D01*
X43451Y37529D01*
X43451Y37526D01*
X43451Y37524D01*
Y37522D01*
Y37520D01*
Y37519D01*
Y37519D01*
Y37408D01*
X43426D01*
Y37519D01*
X43425Y37525D01*
X43425Y37531D01*
X43425Y37537D01*
X43424Y37542D01*
X43423Y37546D01*
X43422Y37550D01*
X43421Y37554D01*
X43420Y37557D01*
X43419Y37559D01*
X43417Y37562D01*
X43416Y37564D01*
X43415Y37565D01*
X43415Y37566D01*
X43414Y37567D01*
X43414Y37567D01*
X43414Y37568D01*
X43411Y37570D01*
X43408Y37572D01*
X43405Y37573D01*
X43402Y37575D01*
X43399Y37576D01*
X43396Y37577D01*
X43389Y37579D01*
X43386Y37579D01*
X43383Y37580D01*
X43380Y37580D01*
X43378Y37580D01*
X43376Y37580D01*
X43374D01*
X43368Y37580D01*
X43362Y37579D01*
X43358Y37578D01*
X43353Y37577D01*
X43352Y37576D01*
X43350Y37576D01*
X43349Y37575D01*
X43348Y37575D01*
X43347Y37575D01*
X43346Y37574D01*
X43346Y37574D01*
X43346D01*
X43342Y37571D01*
X43338Y37568D01*
X43336Y37565D01*
X43334Y37562D01*
X43332Y37560D01*
X43331Y37558D01*
X43330Y37557D01*
X43330Y37556D01*
X43330Y37556D01*
Y37556D01*
X43329Y37553D01*
X43328Y37551D01*
X43327Y37545D01*
X43326Y37539D01*
X43326Y37533D01*
X43326Y37530D01*
X43326Y37527D01*
Y37525D01*
X43325Y37523D01*
Y37521D01*
Y37520D01*
Y37519D01*
Y37519D01*
Y37408D01*
X43300D01*
Y37519D01*
Y37524D01*
X43300Y37530D01*
X43301Y37535D01*
X43301Y37539D01*
X43302Y37544D01*
X43302Y37548D01*
X43303Y37551D01*
X43304Y37554D01*
X43304Y37557D01*
X43305Y37560D01*
X43306Y37562D01*
X43306Y37564D01*
X43307Y37565D01*
X43307Y37566D01*
X43307Y37567D01*
Y37567D01*
X43309Y37570D01*
X43310Y37573D01*
X43314Y37579D01*
X43318Y37583D01*
X43322Y37587D01*
X43324Y37589D01*
X43326Y37590D01*
X43327Y37591D01*
X43329Y37592D01*
X43330Y37593D01*
X43331Y37594D01*
X43331Y37594D01*
X43332Y37594D01*
X43335Y37596D01*
X43338Y37597D01*
X43346Y37599D01*
X43353Y37601D01*
X43360Y37602D01*
X43363Y37602D01*
X43367Y37603D01*
X43369Y37603D01*
X43371D01*
X43373Y37603D01*
X43376D01*
X43381Y37603D01*
D02*
G37*
%LPC*%
G36*
X42026Y32326D02*
X42023D01*
X42016Y32325D01*
X42010Y32324D01*
X42004Y32323D01*
X41999Y32321D01*
X41989Y32317D01*
X41984Y32314D01*
X41980Y32312D01*
X41977Y32309D01*
X41974Y32307D01*
X41971Y32304D01*
X41969Y32302D01*
X41967Y32301D01*
X41965Y32299D01*
X41965Y32299D01*
X41964Y32298D01*
X41959Y32291D01*
X41955Y32283D01*
X41952Y32274D01*
X41950Y32265D01*
X41948Y32258D01*
X41948Y32254D01*
X41947Y32252D01*
X41947Y32249D01*
X41947Y32247D01*
Y32246D01*
Y32246D01*
X42102D01*
X42101Y32252D01*
X42100Y32259D01*
X42098Y32270D01*
X42093Y32280D01*
X42091Y32284D01*
X42089Y32288D01*
X42087Y32292D01*
X42085Y32295D01*
X42083Y32297D01*
X42081Y32300D01*
X42080Y32301D01*
X42079Y32303D01*
X42078Y32303D01*
X42078Y32304D01*
X42074Y32307D01*
X42069Y32311D01*
X42065Y32314D01*
X42060Y32316D01*
X42051Y32320D01*
X42042Y32323D01*
X42034Y32324D01*
X42031Y32325D01*
X42028Y32325D01*
X42026Y32326D01*
D02*
G37*
G36*
X44948Y32325D02*
X44945D01*
X44938Y32325D01*
X44932Y32324D01*
X44926Y32323D01*
X44921Y32321D01*
X44911Y32317D01*
X44902Y32312D01*
X44899Y32309D01*
X44896Y32307D01*
X44893Y32305D01*
X44891Y32303D01*
X44889Y32301D01*
X44888Y32300D01*
X44887Y32299D01*
X44886Y32299D01*
X44882Y32293D01*
X44879Y32288D01*
X44876Y32281D01*
X44873Y32275D01*
X44870Y32269D01*
X44869Y32262D01*
X44866Y32249D01*
X44865Y32244D01*
X44864Y32238D01*
X44864Y32233D01*
X44863Y32229D01*
X44863Y32225D01*
Y32222D01*
Y32221D01*
Y32220D01*
X44863Y32210D01*
X44864Y32201D01*
X44865Y32192D01*
X44866Y32185D01*
X44868Y32177D01*
X44870Y32170D01*
X44872Y32164D01*
X44874Y32159D01*
X44877Y32154D01*
X44879Y32150D01*
X44881Y32147D01*
X44883Y32144D01*
X44884Y32142D01*
X44886Y32140D01*
X44886Y32139D01*
X44886Y32139D01*
X44891Y32134D01*
X44896Y32130D01*
X44901Y32126D01*
X44905Y32123D01*
X44910Y32121D01*
X44915Y32119D01*
X44924Y32116D01*
X44932Y32113D01*
X44936Y32113D01*
X44939Y32113D01*
X44941Y32112D01*
X44945D01*
X44951Y32113D01*
X44957Y32113D01*
X44963Y32115D01*
X44969Y32116D01*
X44979Y32121D01*
X44987Y32125D01*
X44991Y32128D01*
X44994Y32130D01*
X44997Y32132D01*
X44999Y32134D01*
X45001Y32136D01*
X45002Y32137D01*
X45003Y32138D01*
X45003Y32138D01*
X45007Y32144D01*
X45011Y32150D01*
X45014Y32156D01*
X45017Y32162D01*
X45021Y32175D01*
X45024Y32189D01*
X45025Y32195D01*
X45025Y32200D01*
X45026Y32205D01*
X45026Y32210D01*
X45027Y32214D01*
Y32216D01*
Y32218D01*
Y32219D01*
X45026Y32228D01*
X45026Y32237D01*
X45025Y32246D01*
X45023Y32254D01*
X45021Y32261D01*
X45019Y32267D01*
X45017Y32273D01*
X45015Y32279D01*
X45013Y32283D01*
X45011Y32287D01*
X45009Y32291D01*
X45007Y32294D01*
X45005Y32296D01*
X45004Y32297D01*
X45004Y32298D01*
X45003Y32299D01*
X44999Y32303D01*
X44994Y32307D01*
X44989Y32311D01*
X44984Y32314D01*
X44979Y32316D01*
X44975Y32319D01*
X44965Y32322D01*
X44957Y32324D01*
X44953Y32324D01*
X44950Y32325D01*
X44948Y32325D01*
D02*
G37*
G36*
X44501D02*
X44497D01*
X44491Y32325D01*
X44485Y32324D01*
X44479Y32323D01*
X44474Y32321D01*
X44464Y32317D01*
X44455Y32312D01*
X44452Y32309D01*
X44448Y32307D01*
X44446Y32305D01*
X44443Y32303D01*
X44442Y32301D01*
X44440Y32300D01*
X44440Y32299D01*
X44439Y32299D01*
X44435Y32293D01*
X44431Y32288D01*
X44428Y32281D01*
X44425Y32275D01*
X44423Y32269D01*
X44421Y32262D01*
X44418Y32249D01*
X44418Y32244D01*
X44417Y32238D01*
X44416Y32233D01*
X44416Y32229D01*
X44415Y32225D01*
Y32222D01*
Y32221D01*
Y32220D01*
X44416Y32210D01*
X44416Y32201D01*
X44418Y32192D01*
X44419Y32185D01*
X44421Y32177D01*
X44423Y32170D01*
X44425Y32164D01*
X44427Y32159D01*
X44430Y32154D01*
X44432Y32150D01*
X44434Y32147D01*
X44435Y32144D01*
X44437Y32142D01*
X44438Y32140D01*
X44439Y32139D01*
X44439Y32139D01*
X44444Y32134D01*
X44448Y32130D01*
X44453Y32126D01*
X44458Y32123D01*
X44463Y32121D01*
X44468Y32119D01*
X44477Y32116D01*
X44485Y32113D01*
X44489Y32113D01*
X44492Y32113D01*
X44494Y32112D01*
X44497D01*
X44504Y32113D01*
X44510Y32113D01*
X44516Y32115D01*
X44522Y32116D01*
X44532Y32121D01*
X44540Y32125D01*
X44544Y32128D01*
X44547Y32130D01*
X44549Y32132D01*
X44552Y32134D01*
X44554Y32136D01*
X44555Y32137D01*
X44556Y32138D01*
X44556Y32138D01*
X44560Y32144D01*
X44564Y32150D01*
X44567Y32156D01*
X44569Y32162D01*
X44574Y32175D01*
X44576Y32189D01*
X44577Y32195D01*
X44578Y32200D01*
X44579Y32205D01*
X44579Y32210D01*
X44579Y32214D01*
Y32216D01*
Y32218D01*
Y32219D01*
X44579Y32228D01*
X44579Y32237D01*
X44577Y32246D01*
X44576Y32254D01*
X44574Y32261D01*
X44572Y32267D01*
X44570Y32273D01*
X44568Y32279D01*
X44566Y32283D01*
X44564Y32287D01*
X44562Y32291D01*
X44560Y32294D01*
X44558Y32296D01*
X44557Y32297D01*
X44557Y32298D01*
X44556Y32299D01*
X44552Y32303D01*
X44547Y32307D01*
X44542Y32311D01*
X44537Y32314D01*
X44532Y32316D01*
X44527Y32319D01*
X44518Y32322D01*
X44510Y32324D01*
X44506Y32324D01*
X44503Y32325D01*
X44501Y32325D01*
D02*
G37*
G36*
X43488D02*
X43484D01*
X43478Y32325D01*
X43472Y32324D01*
X43466Y32323D01*
X43461Y32321D01*
X43451Y32317D01*
X43442Y32312D01*
X43439Y32309D01*
X43435Y32307D01*
X43433Y32305D01*
X43430Y32303D01*
X43429Y32301D01*
X43427Y32300D01*
X43427Y32299D01*
X43426Y32299D01*
X43422Y32293D01*
X43418Y32288D01*
X43415Y32281D01*
X43413Y32275D01*
X43410Y32269D01*
X43408Y32262D01*
X43405Y32249D01*
X43405Y32244D01*
X43404Y32238D01*
X43403Y32233D01*
X43403Y32229D01*
X43403Y32225D01*
Y32222D01*
Y32221D01*
Y32220D01*
X43403Y32210D01*
X43403Y32201D01*
X43405Y32192D01*
X43406Y32185D01*
X43408Y32177D01*
X43410Y32170D01*
X43412Y32164D01*
X43414Y32159D01*
X43417Y32154D01*
X43419Y32150D01*
X43421Y32147D01*
X43422Y32144D01*
X43424Y32142D01*
X43425Y32140D01*
X43426Y32139D01*
X43426Y32139D01*
X43431Y32134D01*
X43435Y32130D01*
X43440Y32126D01*
X43445Y32123D01*
X43450Y32121D01*
X43455Y32119D01*
X43464Y32116D01*
X43472Y32113D01*
X43476Y32113D01*
X43479Y32113D01*
X43481Y32112D01*
X43484D01*
X43491Y32113D01*
X43497Y32113D01*
X43503Y32115D01*
X43509Y32116D01*
X43519Y32121D01*
X43527Y32125D01*
X43531Y32128D01*
X43534Y32130D01*
X43536Y32132D01*
X43539Y32134D01*
X43541Y32136D01*
X43542Y32137D01*
X43543Y32138D01*
X43543Y32138D01*
X43547Y32144D01*
X43551Y32150D01*
X43554Y32156D01*
X43556Y32162D01*
X43561Y32175D01*
X43564Y32189D01*
X43564Y32195D01*
X43565Y32200D01*
X43566Y32205D01*
X43566Y32210D01*
X43566Y32214D01*
Y32216D01*
Y32218D01*
Y32219D01*
X43566Y32228D01*
X43566Y32237D01*
X43564Y32246D01*
X43563Y32254D01*
X43561Y32261D01*
X43559Y32267D01*
X43557Y32273D01*
X43555Y32279D01*
X43553Y32283D01*
X43551Y32287D01*
X43549Y32291D01*
X43547Y32294D01*
X43545Y32296D01*
X43544Y32297D01*
X43544Y32298D01*
X43543Y32299D01*
X43539Y32303D01*
X43534Y32307D01*
X43529Y32311D01*
X43524Y32314D01*
X43519Y32316D01*
X43514Y32319D01*
X43505Y32322D01*
X43497Y32324D01*
X43493Y32324D01*
X43490Y32325D01*
X43488Y32325D01*
D02*
G37*
G36*
X42564Y32325D02*
X42561D01*
X42554Y32325D01*
X42548Y32324D01*
X42542Y32323D01*
X42537Y32321D01*
X42527Y32317D01*
X42518Y32312D01*
X42515Y32309D01*
X42511Y32307D01*
X42509Y32305D01*
X42506Y32303D01*
X42505Y32301D01*
X42504Y32300D01*
X42503Y32299D01*
X42502Y32299D01*
X42498Y32293D01*
X42494Y32288D01*
X42491Y32281D01*
X42489Y32275D01*
X42486Y32269D01*
X42484Y32262D01*
X42481Y32249D01*
X42481Y32244D01*
X42480Y32238D01*
X42479Y32233D01*
X42479Y32229D01*
X42479Y32225D01*
Y32222D01*
Y32221D01*
Y32220D01*
X42479Y32210D01*
X42479Y32201D01*
X42481Y32192D01*
X42482Y32185D01*
X42484Y32177D01*
X42486Y32170D01*
X42488Y32164D01*
X42490Y32159D01*
X42493Y32154D01*
X42495Y32150D01*
X42497Y32147D01*
X42499Y32144D01*
X42500Y32142D01*
X42501Y32140D01*
X42502Y32139D01*
X42502Y32139D01*
X42507Y32134D01*
X42511Y32130D01*
X42516Y32126D01*
X42521Y32123D01*
X42526Y32121D01*
X42531Y32119D01*
X42540Y32116D01*
X42548Y32113D01*
X42552Y32113D01*
X42555Y32113D01*
X42557Y32112D01*
X42561D01*
X42567Y32113D01*
X42573Y32113D01*
X42579Y32115D01*
X42585Y32116D01*
X42595Y32120D01*
X42603Y32125D01*
X42607Y32128D01*
X42610Y32130D01*
X42613Y32132D01*
X42615Y32134D01*
X42617Y32136D01*
X42618Y32137D01*
X42619Y32138D01*
X42619Y32138D01*
X42623Y32144D01*
X42627Y32150D01*
X42630Y32156D01*
X42633Y32162D01*
X42637Y32175D01*
X42640Y32189D01*
X42640Y32195D01*
X42641Y32200D01*
X42642Y32205D01*
X42642Y32210D01*
X42642Y32214D01*
Y32216D01*
Y32218D01*
Y32219D01*
X42642Y32228D01*
X42642Y32237D01*
X42640Y32246D01*
X42639Y32254D01*
X42637Y32261D01*
X42635Y32267D01*
X42633Y32273D01*
X42631Y32279D01*
X42629Y32283D01*
X42627Y32287D01*
X42625Y32291D01*
X42623Y32294D01*
X42621Y32296D01*
X42620Y32297D01*
X42620Y32298D01*
X42619Y32299D01*
X42615Y32303D01*
X42610Y32307D01*
X42605Y32311D01*
X42600Y32314D01*
X42595Y32316D01*
X42590Y32319D01*
X42581Y32322D01*
X42573Y32324D01*
X42569Y32324D01*
X42566Y32325D01*
X42564Y32325D01*
D02*
G37*
G36*
X41135Y32426D02*
X41132D01*
X41125Y32425D01*
X41120Y32425D01*
X41114Y32423D01*
X41109Y32421D01*
X41100Y32416D01*
X41092Y32410D01*
X41088Y32408D01*
X41085Y32405D01*
X41083Y32402D01*
X41080Y32400D01*
X41079Y32398D01*
X41077Y32396D01*
X41077Y32395D01*
X41077Y32395D01*
X41073Y32388D01*
X41069Y32380D01*
X41066Y32371D01*
X41064Y32362D01*
X41062Y32352D01*
X41060Y32341D01*
X41057Y32320D01*
X41056Y32310D01*
X41055Y32301D01*
X41055Y32292D01*
X41055Y32284D01*
X41054Y32278D01*
Y32275D01*
Y32273D01*
Y32272D01*
Y32270D01*
Y32269D01*
Y32269D01*
X41055Y32252D01*
X41055Y32237D01*
X41056Y32222D01*
X41058Y32210D01*
X41059Y32198D01*
X41061Y32188D01*
X41063Y32179D01*
X41065Y32171D01*
X41068Y32164D01*
X41070Y32158D01*
X41071Y32153D01*
X41073Y32150D01*
X41075Y32147D01*
X41076Y32145D01*
X41076Y32144D01*
X41077Y32143D01*
X41081Y32138D01*
X41085Y32133D01*
X41090Y32129D01*
X41095Y32125D01*
X41099Y32122D01*
X41104Y32120D01*
X41108Y32118D01*
X41112Y32116D01*
X41120Y32114D01*
X41123Y32113D01*
X41126Y32113D01*
X41128D01*
X41130Y32112D01*
X41131D01*
X41137Y32113D01*
X41143Y32113D01*
X41148Y32115D01*
X41153Y32117D01*
X41163Y32122D01*
X41171Y32128D01*
X41177Y32133D01*
X41179Y32136D01*
X41182Y32138D01*
X41184Y32140D01*
X41185Y32142D01*
X41185Y32143D01*
X41186Y32143D01*
X41189Y32150D01*
X41193Y32158D01*
X41196Y32166D01*
X41199Y32176D01*
X41201Y32186D01*
X41202Y32197D01*
X41205Y32218D01*
X41206Y32228D01*
X41206Y32237D01*
X41207Y32246D01*
X41207Y32254D01*
X41208Y32260D01*
Y32263D01*
Y32265D01*
Y32267D01*
Y32268D01*
Y32269D01*
Y32269D01*
X41207Y32286D01*
X41206Y32301D01*
X41206Y32316D01*
X41204Y32329D01*
X41202Y32341D01*
X41200Y32351D01*
X41198Y32361D01*
X41196Y32369D01*
X41194Y32376D01*
X41191Y32382D01*
X41189Y32387D01*
X41187Y32391D01*
X41186Y32395D01*
X41184Y32397D01*
X41184Y32398D01*
X41184Y32398D01*
X41180Y32403D01*
X41176Y32408D01*
X41172Y32411D01*
X41167Y32414D01*
X41163Y32417D01*
X41159Y32419D01*
X41150Y32423D01*
X41143Y32425D01*
X41139Y32425D01*
X41137Y32425D01*
X41135Y32426D01*
D02*
G37*
G36*
X44253Y31753D02*
X44252D01*
X44253Y31735D01*
X44253Y31724D01*
X44254Y31715D01*
X44255Y31706D01*
X44257Y31700D01*
X44258Y31695D01*
X44259Y31691D01*
X44260Y31689D01*
X44260Y31688D01*
X44264Y31681D01*
X44269Y31674D01*
X44274Y31668D01*
X44279Y31664D01*
X44284Y31660D01*
X44288Y31657D01*
X44291Y31656D01*
X44291Y31655D01*
X44292D01*
X44300Y31651D01*
X44308Y31649D01*
X44316Y31646D01*
X44324Y31645D01*
X44330Y31644D01*
X44333Y31644D01*
X44336Y31644D01*
X44340D01*
X44350Y31644D01*
X44358Y31646D01*
X44366Y31648D01*
X44371Y31650D01*
X44376Y31652D01*
X44379Y31654D01*
X44381Y31656D01*
X44382Y31656D01*
X44386Y31661D01*
X44390Y31666D01*
X44393Y31671D01*
X44394Y31676D01*
X44395Y31681D01*
X44396Y31684D01*
X44396Y31686D01*
Y31687D01*
X44396Y31692D01*
X44395Y31696D01*
X44394Y31700D01*
X44393Y31703D01*
X44392Y31706D01*
X44391Y31708D01*
X44390Y31709D01*
X44390Y31710D01*
X44387Y31713D01*
X44384Y31716D01*
X44381Y31719D01*
X44378Y31721D01*
X44375Y31723D01*
X44373Y31724D01*
X44371Y31725D01*
X44371Y31725D01*
X44366Y31727D01*
X44359Y31729D01*
X44353Y31730D01*
X44346Y31732D01*
X44340Y31733D01*
X44334Y31734D01*
X44333Y31734D01*
X44331Y31735D01*
X44330D01*
X44320Y31736D01*
X44311Y31738D01*
X44304Y31739D01*
X44296Y31740D01*
X44289Y31742D01*
X44283Y31743D01*
X44277Y31745D01*
X44272Y31746D01*
X44267Y31748D01*
X44263Y31749D01*
X44260Y31750D01*
X44257Y31751D01*
X44255Y31752D01*
X44254Y31752D01*
X44253Y31753D01*
D02*
G37*
G36*
X45035Y31859D02*
X45032D01*
X45025Y31858D01*
X45019Y31857D01*
X45013Y31856D01*
X45008Y31854D01*
X44998Y31850D01*
X44993Y31847D01*
X44989Y31845D01*
X44986Y31842D01*
X44983Y31840D01*
X44980Y31837D01*
X44977Y31835D01*
X44976Y31834D01*
X44974Y31832D01*
X44974Y31832D01*
X44973Y31831D01*
X44968Y31824D01*
X44964Y31816D01*
X44961Y31807D01*
X44959Y31798D01*
X44957Y31791D01*
X44957Y31787D01*
X44956Y31785D01*
X44956Y31782D01*
X44955Y31780D01*
Y31779D01*
Y31779D01*
X45111D01*
X45110Y31785D01*
X45109Y31792D01*
X45106Y31803D01*
X45102Y31813D01*
X45100Y31817D01*
X45098Y31821D01*
X45096Y31825D01*
X45094Y31828D01*
X45092Y31830D01*
X45090Y31833D01*
X45089Y31834D01*
X45088Y31836D01*
X45087Y31836D01*
X45087Y31837D01*
X45083Y31840D01*
X45078Y31844D01*
X45074Y31847D01*
X45069Y31849D01*
X45059Y31853D01*
X45051Y31856D01*
X45043Y31857D01*
X45040Y31858D01*
X45037Y31858D01*
X45035Y31859D01*
D02*
G37*
G36*
X42353Y31859D02*
X42350D01*
X42343Y31858D01*
X42337Y31857D01*
X42331Y31856D01*
X42326Y31854D01*
X42316Y31850D01*
X42311Y31847D01*
X42307Y31845D01*
X42303Y31842D01*
X42300Y31840D01*
X42297Y31837D01*
X42295Y31835D01*
X42293Y31834D01*
X42292Y31832D01*
X42291Y31832D01*
X42291Y31831D01*
X42286Y31824D01*
X42282Y31816D01*
X42279Y31807D01*
X42276Y31798D01*
X42275Y31791D01*
X42274Y31787D01*
X42274Y31785D01*
X42274Y31782D01*
X42273Y31780D01*
Y31779D01*
Y31779D01*
X42429D01*
X42428Y31785D01*
X42427Y31792D01*
X42424Y31803D01*
X42420Y31813D01*
X42418Y31817D01*
X42416Y31821D01*
X42414Y31825D01*
X42412Y31828D01*
X42410Y31830D01*
X42408Y31833D01*
X42407Y31834D01*
X42405Y31836D01*
X42405Y31836D01*
X42405Y31837D01*
X42400Y31840D01*
X42396Y31844D01*
X42391Y31847D01*
X42387Y31849D01*
X42377Y31853D01*
X42369Y31856D01*
X42361Y31857D01*
X42358Y31858D01*
X42355Y31858D01*
X42353Y31859D01*
D02*
G37*
G36*
X45449Y31951D02*
X45365D01*
X45358Y31951D01*
X45352D01*
X45346Y31951D01*
X45341Y31950D01*
X45336Y31950D01*
X45332Y31949D01*
X45328Y31949D01*
X45325Y31948D01*
X45322Y31948D01*
X45319Y31947D01*
X45318Y31947D01*
X45316Y31946D01*
X45315D01*
X45314Y31946D01*
X45308Y31943D01*
X45303Y31941D01*
X45299Y31937D01*
X45295Y31934D01*
X45292Y31931D01*
X45290Y31928D01*
X45289Y31927D01*
X45288Y31926D01*
X45285Y31921D01*
X45283Y31915D01*
X45281Y31909D01*
X45280Y31904D01*
X45279Y31899D01*
X45279Y31896D01*
Y31893D01*
Y31893D01*
Y31892D01*
X45279Y31885D01*
X45280Y31879D01*
X45282Y31873D01*
X45284Y31868D01*
X45285Y31864D01*
X45287Y31861D01*
X45288Y31859D01*
X45289Y31859D01*
X45293Y31854D01*
X45297Y31850D01*
X45302Y31847D01*
X45307Y31844D01*
X45311Y31842D01*
X45314Y31841D01*
X45317Y31840D01*
X45317Y31839D01*
X45318D01*
X45321Y31839D01*
X45324Y31838D01*
X45332Y31837D01*
X45340Y31836D01*
X45348Y31836D01*
X45355D01*
X45358Y31835D01*
X45449D01*
Y31951D01*
D02*
G37*
G36*
Y31790D02*
X45361D01*
X45348Y31790D01*
X45337Y31789D01*
X45332Y31788D01*
X45327Y31788D01*
X45323Y31787D01*
X45319Y31787D01*
X45315Y31786D01*
X45312Y31785D01*
X45310Y31785D01*
X45308Y31785D01*
X45307Y31784D01*
X45305Y31784D01*
X45305Y31783D01*
X45304D01*
X45297Y31780D01*
X45292Y31777D01*
X45286Y31774D01*
X45282Y31770D01*
X45278Y31767D01*
X45276Y31764D01*
X45274Y31762D01*
X45274Y31761D01*
X45270Y31755D01*
X45267Y31749D01*
X45265Y31743D01*
X45264Y31737D01*
X45263Y31731D01*
X45262Y31728D01*
Y31726D01*
Y31725D01*
Y31724D01*
Y31724D01*
X45263Y31717D01*
X45264Y31711D01*
X45265Y31706D01*
X45266Y31701D01*
X45268Y31697D01*
X45269Y31694D01*
X45270Y31692D01*
X45270Y31691D01*
X45273Y31686D01*
X45277Y31682D01*
X45280Y31678D01*
X45283Y31676D01*
X45286Y31673D01*
X45288Y31671D01*
X45290Y31671D01*
X45290Y31670D01*
X45294Y31668D01*
X45299Y31666D01*
X45304Y31663D01*
X45309Y31662D01*
X45313Y31661D01*
X45316Y31660D01*
X45318Y31660D01*
X45319D01*
X45323Y31659D01*
X45329Y31659D01*
X45334Y31658D01*
X45340D01*
X45345Y31658D01*
X45449D01*
Y31790D01*
D02*
G37*
G36*
X43063Y31951D02*
X42974D01*
X42967Y31951D01*
X42959Y31951D01*
X42953Y31950D01*
X42947Y31950D01*
X42942Y31949D01*
X42937Y31948D01*
X42932Y31948D01*
X42929Y31947D01*
X42925Y31946D01*
X42923Y31945D01*
X42920Y31945D01*
X42919Y31944D01*
X42917Y31944D01*
X42917Y31943D01*
X42917D01*
X42911Y31941D01*
X42906Y31938D01*
X42897Y31932D01*
X42889Y31925D01*
X42882Y31917D01*
X42876Y31911D01*
X42874Y31908D01*
X42872Y31905D01*
X42870Y31903D01*
X42869Y31901D01*
X42869Y31900D01*
X42868Y31900D01*
X42865Y31894D01*
X42862Y31886D01*
X42857Y31872D01*
X42853Y31857D01*
X42851Y31842D01*
X42850Y31834D01*
X42849Y31828D01*
X42849Y31822D01*
Y31817D01*
X42848Y31813D01*
Y31810D01*
Y31808D01*
Y31807D01*
X42849Y31792D01*
X42850Y31777D01*
X42851Y31771D01*
X42852Y31765D01*
X42853Y31759D01*
X42853Y31754D01*
X42855Y31750D01*
X42855Y31745D01*
X42856Y31742D01*
X42857Y31739D01*
X42858Y31736D01*
X42858Y31735D01*
X42859Y31734D01*
Y31733D01*
X42863Y31723D01*
X42868Y31713D01*
X42872Y31705D01*
X42876Y31698D01*
X42880Y31692D01*
X42884Y31688D01*
X42886Y31686D01*
X42886Y31685D01*
X42887Y31685D01*
X42892Y31680D01*
X42898Y31676D01*
X42903Y31673D01*
X42909Y31670D01*
X42914Y31668D01*
X42917Y31666D01*
X42919Y31666D01*
X42920Y31665D01*
X42921Y31665D01*
X42921D01*
X42930Y31663D01*
X42940Y31661D01*
X42950Y31660D01*
X42959Y31659D01*
X42967Y31658D01*
X42971D01*
X42974Y31658D01*
X43063D01*
Y31951D01*
D02*
G37*
%LPD*%
D11*
X44005Y42050D02*
X45645D01*
X44005Y38050D02*
X45645D01*
M02*
