M48
;Layer_Color=9474304
;FILE_FORMAT=2:4
INCH,LZ
;TYPE=PLATED
T1F00S00C0.0150
T2F00S00C0.0200
T3F00S00C0.0280
T4F00S00C0.0300
T5F00S00C0.0354
T6F00S00C0.1181
T7F00S00C0.1772
%
T01
X04025Y02815
X04005Y02835
X04045
X04065Y02815
X04105
Y02855
X04085Y02835
X04065Y02855
X04025
X04045Y02875
X04085
X04005
X03645Y042791
X03625Y042908
X036224Y04325
X036432Y04315
X03655Y043332
X036726Y043215
X0366Y043011
X036644Y04355
X03645Y043676
X036346Y04345
X03685Y043424
X036035Y043068
X05125Y03985
X0512Y0396
X05115Y03935
X0511Y0391
X05135Y03905
X0513Y0388
X0516Y039
X05165Y03925
X0519Y0392
X0514Y0393
X05145Y039535
X0509Y03945
T02
X04275Y0301
X0398Y03375
X03905Y03415
Y0349
Y0357
Y0365
Y03725
X0424Y037412
X0418Y0392
X0445Y04025
X045807Y042186
X04655Y037412
X045
X04443Y0368
X04185Y045315
X0486Y040453
X051032Y04265
X05281Y0389
T03
X03785Y0284
X04355Y02825
X0444Y03935
Y0408
X034771Y040785
X03375Y03735
X03695Y03805
X03595Y045
X0383Y04535
X05255Y0374
T04
X039231Y0273
T05
X0483Y02815
X0488Y029016
X04525Y0255
X04425
X04325
X04225
X04125
X04025
X0409Y0433
X0419
X0429
X0439
X0449
X0459
Y0443
X0449
X0439
X0429
X0419
X0409
X033506Y044162
X034006Y045028
X033006Y043296
X032506Y04243
X032006Y041564
X031506Y040698
X0469Y0433
Y0443
X052009Y044148
X051509Y045014
X052509Y043282
X053009Y042416
X053509Y04155
X054009Y040684
X052632Y035566
X052132Y0347
T06
X03485Y0326
X0428Y04615
X0506Y0326
T07
X047041Y032323
X048459Y034777
M30
