G04*
G04 #@! TF.GenerationSoftware,Altium Limited,Altium Designer,18.1.11 (251)*
G04*
G04 Layer_Color=16711935*
%FSLAX24Y24*%
%MOIN*%
G70*
G01*
G75*
%ADD43P,0.0948X4X165.0*%
%ADD44C,0.0671*%
%ADD45R,0.0671X0.0671*%
%ADD46P,0.0948X4X285.0*%
%ADD47P,0.3184X4X105.0*%
%ADD48C,0.2252*%
%ADD49C,0.1655*%
%ADD64R,0.0850X0.0290*%
D43*
X54009Y40684D02*
D03*
D44*
X53509Y41550D02*
D03*
X53009Y42416D02*
D03*
X52509Y43282D02*
D03*
X52009Y44148D02*
D03*
X51509Y45014D02*
D03*
X46900Y43300D02*
D03*
X45900Y44300D02*
D03*
Y43300D02*
D03*
X44900Y44300D02*
D03*
Y43300D02*
D03*
X43900Y44300D02*
D03*
Y43300D02*
D03*
X42900Y44300D02*
D03*
Y43300D02*
D03*
X41900Y44300D02*
D03*
Y43300D02*
D03*
X40900Y44300D02*
D03*
Y43300D02*
D03*
X33506Y44162D02*
D03*
X33006Y43296D02*
D03*
X32506Y42430D02*
D03*
X32006Y41564D02*
D03*
X31506Y40698D02*
D03*
X48800Y29016D02*
D03*
X52632Y35566D02*
D03*
X41250Y25500D02*
D03*
X42250D02*
D03*
X43250D02*
D03*
X44250D02*
D03*
X45250D02*
D03*
D45*
X46900Y44300D02*
D03*
X40250Y25500D02*
D03*
D46*
X34006Y45028D02*
D03*
X48300Y28150D02*
D03*
X52132Y34700D02*
D03*
D47*
X47041Y32323D02*
D03*
D48*
X48459Y34777D02*
D03*
D49*
X50600Y32600D02*
D03*
X34850D02*
D03*
X42800Y46150D02*
D03*
D64*
X43850Y41800D02*
D03*
Y41300D02*
D03*
Y40800D02*
D03*
Y40300D02*
D03*
Y39800D02*
D03*
Y39300D02*
D03*
Y38800D02*
D03*
Y38300D02*
D03*
X45800D02*
D03*
Y38800D02*
D03*
Y39300D02*
D03*
Y39800D02*
D03*
Y40300D02*
D03*
Y40800D02*
D03*
Y41300D02*
D03*
Y41800D02*
D03*
M02*
