G04*
G04 #@! TF.GenerationSoftware,Altium Limited,Altium Designer,18.1.11 (251)*
G04*
G04 Layer_Physical_Order=1*
G04 Layer_Color=255*
%FSLAX24Y24*%
%MOIN*%
G70*
G01*
G75*
%ADD15C,0.0100*%
G04:AMPARAMS|DCode=16|XSize=55.1mil|YSize=47.2mil|CornerRadius=0mil|HoleSize=0mil|Usage=FLASHONLY|Rotation=120.000|XOffset=0mil|YOffset=0mil|HoleType=Round|Shape=Rectangle|*
%AMROTATEDRECTD16*
4,1,4,0.0342,-0.0121,-0.0067,-0.0357,-0.0342,0.0121,0.0067,0.0357,0.0342,-0.0121,0.0*
%
%ADD16ROTATEDRECTD16*%

G04:AMPARAMS|DCode=17|XSize=77.6mil|YSize=23.6mil|CornerRadius=0mil|HoleSize=0mil|Usage=FLASHONLY|Rotation=30.000|XOffset=0mil|YOffset=0mil|HoleType=Round|Shape=Rectangle|*
%AMROTATEDRECTD17*
4,1,4,-0.0277,-0.0296,-0.0395,-0.0092,0.0277,0.0296,0.0395,0.0092,-0.0277,-0.0296,0.0*
%
%ADD17ROTATEDRECTD17*%

G04:AMPARAMS|DCode=18|XSize=79.5mil|YSize=113mil|CornerRadius=0mil|HoleSize=0mil|Usage=FLASHONLY|Rotation=30.000|XOffset=0mil|YOffset=0mil|HoleType=Round|Shape=Rectangle|*
%AMROTATEDRECTD18*
4,1,4,-0.0062,-0.0688,-0.0627,0.0290,0.0062,0.0688,0.0627,-0.0290,-0.0062,-0.0688,0.0*
%
%ADD18ROTATEDRECTD18*%

G04:AMPARAMS|DCode=19|XSize=55.1mil|YSize=47.2mil|CornerRadius=0mil|HoleSize=0mil|Usage=FLASHONLY|Rotation=240.000|XOffset=0mil|YOffset=0mil|HoleType=Round|Shape=Rectangle|*
%AMROTATEDRECTD19*
4,1,4,-0.0067,0.0357,0.0342,0.0121,0.0067,-0.0357,-0.0342,-0.0121,-0.0067,0.0357,0.0*
%
%ADD19ROTATEDRECTD19*%

G04:AMPARAMS|DCode=20|XSize=77.6mil|YSize=23.6mil|CornerRadius=0mil|HoleSize=0mil|Usage=FLASHONLY|Rotation=150.000|XOffset=0mil|YOffset=0mil|HoleType=Round|Shape=Rectangle|*
%AMROTATEDRECTD20*
4,1,4,0.0395,-0.0092,0.0277,-0.0296,-0.0395,0.0092,-0.0277,0.0296,0.0395,-0.0092,0.0*
%
%ADD20ROTATEDRECTD20*%

G04:AMPARAMS|DCode=21|XSize=79.5mil|YSize=113mil|CornerRadius=0mil|HoleSize=0mil|Usage=FLASHONLY|Rotation=150.000|XOffset=0mil|YOffset=0mil|HoleType=Round|Shape=Rectangle|*
%AMROTATEDRECTD21*
4,1,4,0.0627,0.0290,0.0062,-0.0688,-0.0627,-0.0290,-0.0062,0.0688,0.0627,0.0290,0.0*
%
%ADD21ROTATEDRECTD21*%

%ADD22R,0.0551X0.0472*%
%ADD23R,0.0580X0.0140*%
%ADD24R,0.0472X0.0551*%
%ADD25R,0.0197X0.0118*%
%ADD26R,0.0236X0.0776*%
%ADD27R,0.1130X0.0795*%
G04:AMPARAMS|DCode=28|XSize=130mil|YSize=71mil|CornerRadius=0mil|HoleSize=0mil|Usage=FLASHONLY|Rotation=330.000|XOffset=0mil|YOffset=0mil|HoleType=Round|Shape=Rectangle|*
%AMROTATEDRECTD28*
4,1,4,-0.0740,0.0018,-0.0385,0.0632,0.0740,-0.0018,0.0385,-0.0632,-0.0740,0.0018,0.0*
%
%ADD28ROTATEDRECTD28*%

%ADD29R,0.0710X0.1300*%
G04:AMPARAMS|DCode=30|XSize=130mil|YSize=71mil|CornerRadius=0mil|HoleSize=0mil|Usage=FLASHONLY|Rotation=210.000|XOffset=0mil|YOffset=0mil|HoleType=Round|Shape=Rectangle|*
%AMROTATEDRECTD30*
4,1,4,0.0385,0.0632,0.0740,0.0018,-0.0385,-0.0632,-0.0740,-0.0018,0.0385,0.0632,0.0*
%
%ADD30ROTATEDRECTD30*%

%ADD50C,0.0800*%
%ADD51C,0.0120*%
%ADD52C,0.0300*%
%ADD53P,0.0835X4X165.0*%
%ADD54C,0.0591*%
%ADD55R,0.0591X0.0591*%
%ADD56P,0.0835X4X285.0*%
%ADD57P,0.3071X4X105.0*%
%ADD58C,0.2172*%
%ADD59C,0.0500*%
%ADD60C,0.0150*%
%ADD61C,0.0300*%
%ADD62C,0.1575*%
G36*
X52988Y45651D02*
X52998Y45639D01*
X53006Y45627D01*
X53012Y45623D01*
X53016Y45618D01*
X53030Y45611D01*
X53043Y45602D01*
X53049Y45601D01*
X56420Y39800D01*
X47285Y23962D01*
X38215D01*
X29074Y39807D01*
X33664Y47588D01*
X51894D01*
X52988Y45651D01*
D02*
G37*
%LPC*%
G36*
X41265Y46022D02*
X37236D01*
X37189Y46013D01*
X37149Y45987D01*
X37012Y45849D01*
X36902Y45894D01*
X36782Y45910D01*
X36662Y45894D01*
X36550Y45848D01*
X36454Y45774D01*
X35987Y45308D01*
X35950Y45313D01*
X35869Y45302D01*
X35794Y45271D01*
X35729Y45221D01*
X35679Y45156D01*
X35678Y45153D01*
X35675Y45152D01*
X35579Y45078D01*
X35506Y44982D01*
X35459Y44870D01*
X35443Y44750D01*
X35459Y44630D01*
X35506Y44518D01*
X35579Y44422D01*
X35547Y44386D01*
X34420Y45036D01*
X34491Y45159D01*
X33875Y45514D01*
X33520Y44898D01*
X34136Y44543D01*
X34206Y44665D01*
X35631Y43843D01*
X35710Y43816D01*
X35745Y43818D01*
X36036Y43650D01*
X36214Y43959D01*
X35923Y44127D01*
X35907Y44159D01*
X35845Y44214D01*
X35772Y44256D01*
X35787Y44302D01*
X35907Y44286D01*
X35935D01*
X36286Y44083D01*
X36464Y44392D01*
X36458Y44395D01*
X36450Y44458D01*
X36926Y44934D01*
X36971Y44949D01*
Y44949D01*
X36971D01*
X37441Y44678D01*
X37484Y44653D01*
X37527Y44629D01*
X37528Y44628D01*
X38040Y44332D01*
X38375Y44914D01*
X38296Y44960D01*
X38285Y45023D01*
X38298Y45038D01*
X38300Y45037D01*
X38381Y45048D01*
X38456Y45079D01*
X38521Y45129D01*
X38571Y45194D01*
X38602Y45269D01*
X38613Y45350D01*
X38602Y45431D01*
X38571Y45506D01*
X38521Y45571D01*
X38456Y45621D01*
X38381Y45652D01*
X38300Y45663D01*
X38219Y45652D01*
X38144Y45621D01*
X38079Y45571D01*
X38029Y45506D01*
X37998Y45431D01*
X37987Y45350D01*
X37998Y45269D01*
X38029Y45194D01*
X38048Y45169D01*
X38018Y45120D01*
X37906Y45185D01*
X37862Y45210D01*
X37820Y45234D01*
X37819Y45235D01*
X37307Y45531D01*
X37289Y45500D01*
X37238Y45510D01*
X37230Y45566D01*
X37185Y45676D01*
X37287Y45778D01*
X41214D01*
X41643Y45349D01*
X41636Y45315D01*
X41652Y45233D01*
X41699Y45163D01*
X41768Y45117D01*
X41822Y45106D01*
X41831Y45089D01*
X41836Y45053D01*
X41358Y44575D01*
X41332Y44535D01*
X41322Y44489D01*
Y43005D01*
X41332Y42958D01*
X41358Y42919D01*
X42288Y41989D01*
Y41422D01*
X42238Y41401D01*
X40683Y42956D01*
X40716Y42994D01*
X40721Y42990D01*
X40807Y42954D01*
X40900Y42942D01*
X40993Y42954D01*
X41079Y42990D01*
X41153Y43047D01*
X41210Y43121D01*
X41246Y43207D01*
X41258Y43300D01*
X41246Y43393D01*
X41210Y43479D01*
X41153Y43553D01*
X41079Y43610D01*
X40993Y43646D01*
X40900Y43658D01*
X40807Y43646D01*
X40721Y43610D01*
X40647Y43553D01*
X40617Y43515D01*
X40567Y43532D01*
Y43808D01*
X40740Y43982D01*
X40807Y43954D01*
X40900Y43942D01*
X40993Y43954D01*
X41079Y43990D01*
X41153Y44047D01*
X41210Y44121D01*
X41246Y44207D01*
X41258Y44300D01*
X41246Y44393D01*
X41210Y44479D01*
X41153Y44553D01*
X41079Y44610D01*
X40993Y44646D01*
X40900Y44658D01*
X40807Y44646D01*
X40721Y44610D01*
X40647Y44553D01*
X40590Y44479D01*
X40554Y44393D01*
X40542Y44300D01*
X40554Y44207D01*
X40582Y44140D01*
X40375Y43934D01*
X40351Y43898D01*
X40343Y43855D01*
X40343Y43855D01*
Y43025D01*
X40343Y43025D01*
X40351Y42982D01*
X40375Y42946D01*
X42088Y41234D01*
Y37948D01*
X42042Y37929D01*
X41986Y37985D01*
Y38292D01*
X41314D01*
Y37699D01*
X41954D01*
X42121Y37533D01*
X42121Y37533D01*
X42195Y37458D01*
X42186Y37412D01*
X42202Y37330D01*
X42249Y37261D01*
X42287Y37235D01*
X42300Y37190D01*
X42300Y37190D01*
Y36930D01*
Y36680D01*
Y36420D01*
Y36162D01*
X42040D01*
X41993Y36153D01*
X41953Y36127D01*
X41563Y35737D01*
X41537Y35697D01*
X41528Y35650D01*
Y34441D01*
X40746Y33659D01*
X40700Y33678D01*
Y34120D01*
Y34370D01*
Y34630D01*
Y34898D01*
X40795D01*
X40842Y34907D01*
X40881Y34933D01*
X41137Y35189D01*
X41163Y35228D01*
X41172Y35275D01*
Y40979D01*
X41169Y40995D01*
X41168Y41011D01*
X41165Y41018D01*
X41163Y41025D01*
X41154Y41039D01*
X41147Y41053D01*
X41141Y41059D01*
X41137Y41065D01*
X41123Y41074D01*
X41111Y41085D01*
X37906Y42920D01*
X37893Y42968D01*
X37902Y42984D01*
X37127Y43432D01*
X36948Y43124D01*
X37724Y42676D01*
X37753Y42726D01*
X40928Y40908D01*
Y40665D01*
X40910Y40653D01*
X40878Y40642D01*
X40873Y40645D01*
X40861Y40656D01*
X37656Y42487D01*
X37643Y42536D01*
X37652Y42551D01*
X36877Y42999D01*
X36698Y42691D01*
X37474Y42243D01*
X37503Y42293D01*
X40678Y40479D01*
Y37190D01*
X40393D01*
X39897Y37687D01*
X39857Y37713D01*
X39810Y37722D01*
X38654D01*
X38607Y37713D01*
X38568Y37687D01*
X38343Y37462D01*
X38316Y37422D01*
X38307Y37375D01*
Y37372D01*
X37951D01*
Y37748D01*
X37358D01*
Y37076D01*
X37951D01*
Y37128D01*
X38371D01*
X38383Y37120D01*
X38429Y37110D01*
X38476Y37120D01*
X38493Y37131D01*
X38846D01*
X38846Y37131D01*
Y37131D01*
X38889Y37113D01*
X38899Y37099D01*
X38968Y37052D01*
X39050Y37036D01*
X39132Y37052D01*
X39201Y37099D01*
X39248Y37168D01*
X39264Y37250D01*
X39248Y37332D01*
X39201Y37401D01*
X39162Y37428D01*
X39177Y37478D01*
X39759D01*
X40014Y37223D01*
X40000Y37190D01*
X40000D01*
Y36932D01*
X38614D01*
X38567Y36923D01*
X38528Y36897D01*
X38343Y36712D01*
X38316Y36672D01*
X38307Y36625D01*
Y36622D01*
X37951D01*
Y36948D01*
X37358D01*
Y36276D01*
X37951D01*
Y36378D01*
X38412D01*
X38429Y36381D01*
X38846D01*
X38846Y36381D01*
Y36381D01*
X38889Y36363D01*
X38899Y36349D01*
X38968Y36302D01*
X39050Y36286D01*
X39132Y36302D01*
X39201Y36349D01*
X39248Y36418D01*
X39264Y36500D01*
X39248Y36582D01*
X39211Y36638D01*
X39230Y36688D01*
X39610D01*
X39625Y36638D01*
X39623Y36637D01*
X39119Y36132D01*
X38564D01*
X38517Y36123D01*
X38478Y36097D01*
X38343Y35962D01*
X38316Y35922D01*
X38307Y35875D01*
Y35872D01*
X37951D01*
Y36148D01*
X37358D01*
Y35476D01*
X37951D01*
Y35628D01*
X38412D01*
X38429Y35631D01*
X38648D01*
X38658Y35621D01*
X38658Y35621D01*
X38695Y35596D01*
X38738Y35588D01*
X38738Y35588D01*
X38872D01*
X38899Y35549D01*
X38968Y35502D01*
X39050Y35486D01*
X39132Y35502D01*
X39201Y35549D01*
X39248Y35618D01*
X39264Y35700D01*
X39248Y35782D01*
X39206Y35844D01*
X39216Y35895D01*
X39217Y35897D01*
X39257Y35923D01*
X39761Y36428D01*
X39858D01*
X39869Y36412D01*
X39877Y36378D01*
X39593Y36094D01*
X39567Y36054D01*
X39558Y36007D01*
Y35797D01*
X39102Y35341D01*
X38523D01*
X38476Y35332D01*
X38437Y35306D01*
X38343Y35212D01*
X38316Y35172D01*
X38307Y35125D01*
Y35122D01*
X37951D01*
Y35348D01*
X37358D01*
Y34676D01*
X37951D01*
Y34878D01*
X38412D01*
X38429Y34881D01*
X38648D01*
X38708Y34821D01*
X38708Y34821D01*
X38745Y34796D01*
X38788Y34788D01*
X38788Y34788D01*
X38872D01*
X38899Y34749D01*
X38968Y34702D01*
X39050Y34686D01*
X39132Y34702D01*
X39201Y34749D01*
X39248Y34818D01*
X39264Y34900D01*
X39248Y34982D01*
X39201Y35051D01*
X39197Y35054D01*
X39199Y35083D01*
X39205Y35109D01*
X39240Y35133D01*
X39728Y35621D01*
X39778Y35600D01*
Y35051D01*
X39318Y34591D01*
X38523D01*
X38476Y34582D01*
X38437Y34556D01*
X38343Y34462D01*
X38316Y34422D01*
X38307Y34375D01*
Y34372D01*
X37951D01*
Y34548D01*
X37358D01*
Y33876D01*
X37951D01*
Y34128D01*
X38412D01*
X38429Y34131D01*
X38576D01*
Y33619D01*
X38429D01*
X38412Y33622D01*
X37951D01*
Y33748D01*
X37358D01*
Y33076D01*
X37951D01*
Y33378D01*
X38307D01*
Y33241D01*
X38316Y33194D01*
X38343Y33154D01*
X38483Y33013D01*
X38523Y32987D01*
X38570Y32978D01*
X40360D01*
X40407Y32987D01*
X40447Y33013D01*
X41737Y34303D01*
X41763Y34343D01*
X41772Y34390D01*
Y35599D01*
X42091Y35918D01*
X42300D01*
Y35650D01*
Y35400D01*
Y35140D01*
Y34890D01*
Y34630D01*
Y34370D01*
Y34092D01*
X42294D01*
X42247Y34083D01*
X42207Y34057D01*
X40163Y32013D01*
X40137Y31973D01*
X40128Y31926D01*
Y29897D01*
X40072D01*
Y29001D01*
X40428D01*
Y29897D01*
X40372D01*
Y31876D01*
X42254Y33757D01*
X42300Y33738D01*
Y33610D01*
X42300D01*
X42314Y33577D01*
X40663Y31927D01*
X40637Y31887D01*
X40628Y31840D01*
Y29897D01*
X40572D01*
Y29001D01*
X40928D01*
Y29897D01*
X40872D01*
Y31789D01*
X42693Y33610D01*
X43000D01*
Y33860D01*
Y34120D01*
Y34370D01*
Y34630D01*
Y34889D01*
X44350Y34890D01*
X44358Y34891D01*
X44368Y34891D01*
X44384Y34896D01*
X44397Y34899D01*
X44403Y34903D01*
X44413Y34906D01*
X50235Y38357D01*
X50283Y38344D01*
X50291Y38331D01*
X51066Y38779D01*
X50888Y39088D01*
X50113Y38640D01*
X50143Y38587D01*
X44317Y35134D01*
X43651Y35134D01*
X43637Y35184D01*
X50012Y38815D01*
X50041Y38764D01*
X50816Y39212D01*
X50638Y39521D01*
X49863Y39073D01*
X49872Y39058D01*
X49858Y39009D01*
X46745Y37236D01*
X46710Y37273D01*
X46748Y37330D01*
X46764Y37412D01*
X46748Y37494D01*
X46701Y37563D01*
X46632Y37610D01*
X46550Y37626D01*
X46468Y37610D01*
X46399Y37563D01*
X46372Y37524D01*
X45178D01*
X45151Y37563D01*
X45082Y37610D01*
X45000Y37626D01*
X44918Y37610D01*
X44849Y37563D01*
X44802Y37494D01*
X44786Y37412D01*
X44802Y37330D01*
X44849Y37261D01*
X44918Y37214D01*
X45000Y37198D01*
X45082Y37214D01*
X45151Y37261D01*
X45178Y37300D01*
X46372D01*
X46399Y37261D01*
X46468Y37214D01*
X46550Y37198D01*
X46592Y37206D01*
X46610Y37159D01*
X44279Y35831D01*
X44236Y35856D01*
Y36392D01*
X43696D01*
X43677Y36438D01*
X43747Y36508D01*
X44236D01*
Y36623D01*
X44257Y36636D01*
X44286Y36644D01*
X44348Y36602D01*
X44430Y36586D01*
X44512Y36602D01*
X44581Y36649D01*
X44628Y36718D01*
X44644Y36800D01*
X44628Y36882D01*
X44581Y36951D01*
X44512Y36998D01*
X44430Y37014D01*
X44348Y36998D01*
X44286Y36956D01*
X44257Y36964D01*
X44236Y36977D01*
Y37101D01*
X43564D01*
Y36671D01*
X43316Y36422D01*
X43131D01*
X43125Y36436D01*
X43122Y36472D01*
X43154Y36493D01*
X43407Y36746D01*
X43433Y36786D01*
X43442Y36833D01*
Y37287D01*
X43433Y37334D01*
X43407Y37374D01*
X42752Y38028D01*
Y42926D01*
X42743Y42973D01*
X42717Y43013D01*
X42567Y43162D01*
Y44068D01*
X42617Y44085D01*
X42647Y44047D01*
X42721Y43990D01*
X42807Y43954D01*
X42900Y43942D01*
X42993Y43954D01*
X43079Y43990D01*
X43153Y44047D01*
X43210Y44121D01*
X43246Y44207D01*
X43258Y44300D01*
X43246Y44393D01*
X43210Y44479D01*
X43153Y44553D01*
X43115Y44583D01*
X43132Y44633D01*
X43668D01*
X43685Y44583D01*
X43647Y44553D01*
X43590Y44479D01*
X43554Y44393D01*
X43542Y44300D01*
X43554Y44207D01*
X43590Y44121D01*
X43647Y44047D01*
X43721Y43990D01*
X43807Y43954D01*
X43900Y43942D01*
X43993Y43954D01*
X44079Y43990D01*
X44153Y44047D01*
X44210Y44121D01*
X44246Y44207D01*
X44258Y44300D01*
X44246Y44393D01*
X44210Y44479D01*
X44153Y44553D01*
X44115Y44583D01*
X44132Y44633D01*
X44668D01*
X44685Y44583D01*
X44647Y44553D01*
X44590Y44479D01*
X44554Y44393D01*
X44542Y44300D01*
X44554Y44207D01*
X44590Y44121D01*
X44647Y44047D01*
X44721Y43990D01*
X44807Y43954D01*
X44900Y43942D01*
X44993Y43954D01*
X45079Y43990D01*
X45153Y44047D01*
X45210Y44121D01*
X45246Y44207D01*
X45258Y44300D01*
X45246Y44393D01*
X45210Y44479D01*
X45153Y44553D01*
X45115Y44583D01*
X45132Y44633D01*
X45668D01*
X45685Y44583D01*
X45647Y44553D01*
X45590Y44479D01*
X45554Y44393D01*
X45542Y44300D01*
X45554Y44207D01*
X45590Y44121D01*
X45647Y44047D01*
X45721Y43990D01*
X45807Y43954D01*
X45900Y43942D01*
X45993Y43954D01*
X46079Y43990D01*
X46153Y44047D01*
X46210Y44121D01*
X46246Y44207D01*
X46258Y44300D01*
X46246Y44393D01*
X46210Y44479D01*
X46153Y44553D01*
X46115Y44583D01*
X46132Y44633D01*
X46394D01*
X46545Y44482D01*
Y43945D01*
X47233D01*
Y43866D01*
X47228Y43839D01*
Y43651D01*
X47140Y43563D01*
X47079Y43610D01*
X46993Y43646D01*
X46900Y43658D01*
X46807Y43646D01*
X46721Y43610D01*
X46647Y43553D01*
X46590Y43479D01*
X46554Y43393D01*
X46542Y43300D01*
X46554Y43207D01*
X46590Y43121D01*
X46647Y43047D01*
X46721Y42990D01*
X46807Y42954D01*
X46900Y42942D01*
X46993Y42954D01*
X47079Y42990D01*
X47153Y43047D01*
X47210Y43121D01*
X47246Y43207D01*
X47258Y43300D01*
X47254Y43331D01*
X47437Y43513D01*
X47463Y43553D01*
X47472Y43600D01*
Y43818D01*
X47478Y43845D01*
Y44662D01*
X47468Y44708D01*
X47442Y44748D01*
X47128Y45062D01*
X47088Y45088D01*
X47042Y45098D01*
X41993D01*
X41978Y45148D01*
X42001Y45163D01*
X42048Y45233D01*
X42064Y45315D01*
X42048Y45397D01*
X42001Y45466D01*
X41932Y45513D01*
X41850Y45529D01*
X41816Y45522D01*
X41351Y45987D01*
X41312Y46013D01*
X41265Y46022D01*
D02*
G37*
G36*
X42800Y47002D02*
X42634Y46985D01*
X42474Y46937D01*
X42327Y46858D01*
X42198Y46752D01*
X42092Y46623D01*
X42013Y46476D01*
X41965Y46316D01*
X41948Y46150D01*
X41965Y45984D01*
X42013Y45824D01*
X42092Y45677D01*
X42198Y45548D01*
X42327Y45442D01*
X42474Y45363D01*
X42634Y45315D01*
X42800Y45299D01*
X42966Y45315D01*
X43126Y45363D01*
X43273Y45442D01*
X43402Y45548D01*
X43508Y45677D01*
X43587Y45824D01*
X43635Y45984D01*
X43651Y46150D01*
X43635Y46316D01*
X43587Y46476D01*
X43508Y46623D01*
X43402Y46752D01*
X43273Y46858D01*
X43126Y46937D01*
X42966Y46985D01*
X42800Y47002D01*
D02*
G37*
G36*
X51509Y45372D02*
X51417Y45360D01*
X51330Y45324D01*
X51256Y45267D01*
X51199Y45193D01*
X51175Y45136D01*
X50564D01*
X50517Y45127D01*
X50478Y45101D01*
X46299Y40922D01*
X44685D01*
X44671Y40956D01*
X44621Y41021D01*
X44556Y41071D01*
X44481Y41102D01*
X44400Y41113D01*
X44319Y41102D01*
X44244Y41071D01*
X44179Y41021D01*
X44129Y40956D01*
X44098Y40881D01*
X44087Y40800D01*
X44098Y40719D01*
X44129Y40644D01*
X44179Y40579D01*
X44244Y40529D01*
X44319Y40498D01*
X44400Y40487D01*
X44481Y40498D01*
X44556Y40529D01*
X44621Y40579D01*
X44671Y40644D01*
X44685Y40678D01*
X46319D01*
X46340Y40628D01*
X45184Y39472D01*
X44685D01*
X44671Y39506D01*
X44621Y39571D01*
X44556Y39621D01*
X44481Y39652D01*
X44400Y39663D01*
X44319Y39652D01*
X44244Y39621D01*
X44179Y39571D01*
X44129Y39506D01*
X44098Y39431D01*
X44087Y39350D01*
X44098Y39269D01*
X44129Y39194D01*
X44179Y39129D01*
X44244Y39079D01*
X44319Y39048D01*
X44400Y39037D01*
X44481Y39048D01*
X44556Y39079D01*
X44621Y39129D01*
X44671Y39194D01*
X44685Y39228D01*
X45235D01*
X45282Y39237D01*
X45322Y39263D01*
X50084Y44026D01*
X51675D01*
X51699Y43969D01*
X51756Y43895D01*
X51830Y43838D01*
X51917Y43802D01*
X52009Y43790D01*
X52102Y43802D01*
X52189Y43838D01*
X52263Y43895D01*
X52320Y43969D01*
X52355Y44055D01*
X52368Y44148D01*
X52355Y44241D01*
X52320Y44327D01*
X52263Y44401D01*
X52189Y44458D01*
X52102Y44494D01*
X52009Y44506D01*
X51917Y44494D01*
X51830Y44458D01*
X51756Y44401D01*
X51699Y44327D01*
X51675Y44270D01*
X50064D01*
X50043Y44320D01*
X50615Y44892D01*
X51175D01*
X51199Y44835D01*
X51256Y44761D01*
X51330Y44704D01*
X51417Y44668D01*
X51509Y44656D01*
X51602Y44668D01*
X51689Y44704D01*
X51763Y44761D01*
X51820Y44835D01*
X51855Y44921D01*
X51868Y45014D01*
X51855Y45107D01*
X51820Y45193D01*
X51763Y45267D01*
X51689Y45324D01*
X51602Y45360D01*
X51509Y45372D01*
D02*
G37*
G36*
X38476Y44856D02*
X38141Y44274D01*
X38182Y44250D01*
X38189Y44201D01*
X37693Y43683D01*
X37377Y43865D01*
X37198Y43557D01*
X37974Y43109D01*
X38152Y43417D01*
X37946Y43536D01*
X37939Y43586D01*
X38435Y44104D01*
X38654Y43978D01*
X38989Y44559D01*
X38476Y44856D01*
D02*
G37*
G36*
X45900Y43658D02*
X45807Y43646D01*
X45721Y43610D01*
X45647Y43553D01*
X45590Y43479D01*
X45554Y43393D01*
X45542Y43300D01*
X45554Y43207D01*
X45590Y43121D01*
X45647Y43047D01*
X45721Y42990D01*
X45807Y42954D01*
X45900Y42942D01*
X45993Y42954D01*
X46079Y42990D01*
X46153Y43047D01*
X46210Y43121D01*
X46246Y43207D01*
X46258Y43300D01*
X46246Y43393D01*
X46210Y43479D01*
X46153Y43553D01*
X46079Y43610D01*
X45993Y43646D01*
X45900Y43658D01*
D02*
G37*
G36*
X44900D02*
X44807Y43646D01*
X44721Y43610D01*
X44647Y43553D01*
X44590Y43479D01*
X44554Y43393D01*
X44542Y43300D01*
X44554Y43207D01*
X44590Y43121D01*
X44647Y43047D01*
X44721Y42990D01*
X44807Y42954D01*
X44900Y42942D01*
X44993Y42954D01*
X45079Y42990D01*
X45153Y43047D01*
X45210Y43121D01*
X45246Y43207D01*
X45258Y43300D01*
X45246Y43393D01*
X45210Y43479D01*
X45153Y43553D01*
X45079Y43610D01*
X44993Y43646D01*
X44900Y43658D01*
D02*
G37*
G36*
X43900D02*
X43807Y43646D01*
X43721Y43610D01*
X43647Y43553D01*
X43590Y43479D01*
X43554Y43393D01*
X43542Y43300D01*
X43554Y43207D01*
X43590Y43121D01*
X43647Y43047D01*
X43721Y42990D01*
X43807Y42954D01*
X43900Y42942D01*
X43993Y42954D01*
X44079Y42990D01*
X44153Y43047D01*
X44210Y43121D01*
X44246Y43207D01*
X44258Y43300D01*
X44246Y43393D01*
X44210Y43479D01*
X44153Y43553D01*
X44079Y43610D01*
X43993Y43646D01*
X43900Y43658D01*
D02*
G37*
G36*
X33006Y43655D02*
X32913Y43643D01*
X32826Y43607D01*
X32752Y43550D01*
X32695Y43476D01*
X32659Y43389D01*
X32647Y43296D01*
X32659Y43204D01*
X32695Y43117D01*
X32752Y43043D01*
X32826Y42986D01*
X32913Y42950D01*
X33006Y42938D01*
X33098Y42950D01*
X33185Y42986D01*
X33259Y43043D01*
X33316Y43117D01*
X33352Y43204D01*
X33364Y43296D01*
X33352Y43389D01*
X33316Y43476D01*
X33259Y43550D01*
X33185Y43607D01*
X33098Y43643D01*
X33006Y43655D01*
D02*
G37*
G36*
X51032Y43114D02*
X50912Y43098D01*
X50800Y43052D01*
X50704Y42978D01*
X50448Y42722D01*
X50398Y42729D01*
X50329Y42849D01*
X49887Y42594D01*
X49801Y42582D01*
X49690Y42536D01*
X49593Y42462D01*
X49541Y42394D01*
X49099Y42139D01*
X49514Y41420D01*
X49948Y41670D01*
X50516D01*
X50516Y41670D01*
X50576Y41678D01*
X50636Y41686D01*
X50748Y41732D01*
X50844Y41806D01*
X51360Y42322D01*
X51434Y42418D01*
X51480Y42530D01*
X51496Y42650D01*
X51480Y42770D01*
X51434Y42882D01*
X51360Y42978D01*
X51264Y43052D01*
X51152Y43098D01*
X51032Y43114D01*
D02*
G37*
G36*
X53009Y42774D02*
X52917Y42762D01*
X52830Y42726D01*
X52756Y42669D01*
X52699Y42595D01*
X52663Y42509D01*
X52651Y42416D01*
X52663Y42323D01*
X52699Y42237D01*
X52756Y42163D01*
X52830Y42106D01*
X52917Y42070D01*
X53009Y42058D01*
X53102Y42070D01*
X53189Y42106D01*
X53263Y42163D01*
X53320Y42237D01*
X53355Y42323D01*
X53368Y42416D01*
X53355Y42509D01*
X53320Y42595D01*
X53263Y42669D01*
X53189Y42726D01*
X53102Y42762D01*
X53009Y42774D01*
D02*
G37*
G36*
X33506Y44521D02*
X33413Y44509D01*
X33326Y44473D01*
X33252Y44416D01*
X33195Y44342D01*
X33159Y44255D01*
X33147Y44162D01*
X33159Y44070D01*
X33195Y43983D01*
X33252Y43909D01*
X33326Y43852D01*
X33413Y43816D01*
X33506Y43804D01*
X33598Y43816D01*
X33644Y43835D01*
X35131Y42977D01*
X35210Y42950D01*
X35245Y42952D01*
X35536Y42784D01*
X35685Y43042D01*
X35737Y43032D01*
X35779Y42780D01*
X35781Y42775D01*
X35781Y42770D01*
X35789Y42753D01*
X35796Y42735D01*
X35800Y42732D01*
X35802Y42727D01*
X35816Y42714D01*
X35829Y42700D01*
X35834Y42698D01*
X35837Y42695D01*
X36480Y42312D01*
X36448Y42258D01*
X37224Y41810D01*
X37402Y42118D01*
X36627Y42566D01*
X36627D01*
X36575Y42572D01*
X36561Y42591D01*
X37165Y43637D01*
X36373Y44095D01*
X35928Y43325D01*
X35870Y43324D01*
X35858Y43342D01*
X35964Y43526D01*
X35189Y43974D01*
X35011Y43665D01*
X35486Y43391D01*
X35624Y43201D01*
X35591Y43164D01*
X35423Y43261D01*
X35407Y43293D01*
X35345Y43348D01*
X33858Y44206D01*
X33852Y44255D01*
X33816Y44342D01*
X33759Y44416D01*
X33685Y44473D01*
X33598Y44509D01*
X33506Y44521D01*
D02*
G37*
G36*
X32006Y41923D02*
X31913Y41910D01*
X31826Y41875D01*
X31752Y41818D01*
X31695Y41744D01*
X31659Y41657D01*
X31647Y41564D01*
X31659Y41472D01*
X31695Y41385D01*
X31752Y41311D01*
X31826Y41254D01*
X31913Y41218D01*
X32006Y41206D01*
X32098Y41218D01*
X32185Y41254D01*
X32259Y41311D01*
X32316Y41385D01*
X32352Y41472D01*
X32364Y41564D01*
X32352Y41657D01*
X32316Y41744D01*
X32259Y41818D01*
X32185Y41875D01*
X32098Y41910D01*
X32006Y41923D01*
D02*
G37*
G36*
X53509Y41908D02*
X53417Y41896D01*
X53330Y41860D01*
X53256Y41803D01*
X53199Y41729D01*
X53163Y41643D01*
X53157Y41594D01*
X51670Y40735D01*
X51607Y40680D01*
X51592Y40648D01*
X51300Y40480D01*
X51435Y40247D01*
X51413Y40191D01*
X51392Y40183D01*
X51346Y40183D01*
X51020Y40238D01*
X51001Y40237D01*
X50982Y40238D01*
X50978Y40236D01*
X50972Y40236D01*
X50955Y40228D01*
X50937Y40222D01*
X50444Y39929D01*
X50396Y39941D01*
X50388Y39954D01*
X49613Y39506D01*
X49791Y39197D01*
X50566Y39645D01*
X50560Y39656D01*
X50575Y39676D01*
X50633Y39668D01*
X50764Y39441D01*
X50773Y39397D01*
X50803Y39353D01*
X50823Y39339D01*
X50963Y39096D01*
X50973Y39047D01*
X51003Y39003D01*
X51026Y38987D01*
X51225Y38643D01*
X51269Y38669D01*
X51300Y38662D01*
X51353Y38673D01*
X51397Y38703D01*
X51427Y38747D01*
X51430Y38762D01*
X51607Y38864D01*
X51653Y38873D01*
X51697Y38903D01*
X51712Y38925D01*
X52017Y39101D01*
X52017Y39101D01*
X52032Y39117D01*
X52091Y39110D01*
X52229Y38873D01*
X52229D01*
X52238Y38870D01*
X52260Y38817D01*
X52333Y38721D01*
X52482Y38572D01*
X52531Y38534D01*
X52528Y38484D01*
X52434Y38430D01*
X52769Y37848D01*
X53282Y38145D01*
X53067Y38517D01*
X53138Y38572D01*
X53212Y38668D01*
X53258Y38780D01*
X53274Y38900D01*
X53258Y39020D01*
X53212Y39132D01*
X53138Y39228D01*
X52989Y39377D01*
X52958Y39401D01*
X52826Y39629D01*
X52614Y39506D01*
X52541Y39497D01*
X52429Y39450D01*
X52333Y39377D01*
X52289Y39319D01*
X52085Y39201D01*
X52032Y39228D01*
X52027Y39253D01*
X52016Y39270D01*
X52026Y39333D01*
X52270Y39474D01*
X52305Y39472D01*
X52384Y39498D01*
X53809Y40321D01*
X53879Y40199D01*
X54495Y40554D01*
X54139Y41169D01*
X53524Y40814D01*
X53595Y40692D01*
X52170Y39869D01*
X52107Y39814D01*
X52092Y39782D01*
X51800Y39614D01*
X51915Y39415D01*
X51886Y39367D01*
X51863Y39368D01*
X51572Y39872D01*
X51601Y39922D01*
X51622Y39923D01*
X51729Y39739D01*
X52504Y40187D01*
X52326Y40495D01*
X51852Y40221D01*
X51619Y40196D01*
X51604Y40244D01*
X51770Y40340D01*
X51805Y40338D01*
X51884Y40364D01*
X53371Y41223D01*
X53417Y41204D01*
X53509Y41192D01*
X53602Y41204D01*
X53689Y41240D01*
X53763Y41297D01*
X53820Y41371D01*
X53855Y41457D01*
X53868Y41550D01*
X53855Y41643D01*
X53820Y41729D01*
X53763Y41803D01*
X53689Y41860D01*
X53602Y41896D01*
X53509Y41908D01*
D02*
G37*
G36*
X31506Y41057D02*
X31413Y41044D01*
X31326Y41009D01*
X31252Y40952D01*
X31195Y40878D01*
X31159Y40791D01*
X31147Y40698D01*
X31159Y40606D01*
X31195Y40519D01*
X31252Y40445D01*
X31326Y40388D01*
X31413Y40352D01*
X31506Y40340D01*
X31598Y40352D01*
X31685Y40388D01*
X31759Y40445D01*
X31816Y40519D01*
X31852Y40606D01*
X31864Y40698D01*
X31852Y40791D01*
X31816Y40877D01*
X31759Y40952D01*
X31685Y41009D01*
X31598Y41044D01*
X31506Y41057D01*
D02*
G37*
G36*
X48450Y41764D02*
X47220Y41054D01*
X47635Y40335D01*
X48236Y40682D01*
X48399Y40519D01*
X48386Y40453D01*
X48402Y40371D01*
X48449Y40301D01*
X48518Y40255D01*
X48600Y40238D01*
X48682Y40255D01*
X48751Y40301D01*
X48798Y40371D01*
X48814Y40453D01*
X48798Y40535D01*
X48751Y40604D01*
X48682Y40650D01*
X48600Y40667D01*
X48598Y40666D01*
X48485Y40780D01*
X48491Y40829D01*
X48865Y41045D01*
X48450Y41764D01*
D02*
G37*
G36*
X34363Y41499D02*
X33948Y40781D01*
X34236Y40615D01*
X33305Y37482D01*
X33286Y37363D01*
X33299Y37242D01*
X33342Y37129D01*
X33413Y37031D01*
X33507Y36955D01*
X33618Y36905D01*
X33737Y36886D01*
X33858Y36899D01*
X33971Y36942D01*
X34069Y37013D01*
X34145Y37107D01*
X34195Y37218D01*
X35051Y40099D01*
X35097Y40117D01*
X35178Y40071D01*
X35593Y40789D01*
X35150Y41045D01*
X35108Y41104D01*
X35013Y41180D01*
X34903Y41230D01*
X34803Y41246D01*
X34363Y41499D01*
D02*
G37*
G36*
X36243Y40414D02*
X35828Y39696D01*
X36528Y39291D01*
Y38350D01*
X36537Y38303D01*
X36563Y38263D01*
X36662Y38165D01*
X36648Y38131D01*
X36637Y38050D01*
X36648Y37969D01*
X36679Y37894D01*
X36729Y37829D01*
X36770Y37798D01*
X36753Y37748D01*
X36649D01*
Y37076D01*
X36791D01*
X36827Y37041D01*
X36827Y36948D01*
X36649D01*
Y36276D01*
X36791D01*
X36826Y36241D01*
X36826Y36148D01*
X36649D01*
Y35476D01*
X36790D01*
X36825Y35441D01*
X36825Y35348D01*
X36649D01*
Y34676D01*
X36789D01*
X36824Y34641D01*
X36824Y34548D01*
X36649D01*
Y33876D01*
X36788D01*
X36824Y33841D01*
X36824Y33748D01*
X36649D01*
Y33076D01*
X37242D01*
Y33748D01*
X37104D01*
X37068Y33783D01*
X37068Y33876D01*
X37242D01*
Y34548D01*
X37104D01*
X37069Y34583D01*
X37069Y34676D01*
X37242D01*
Y35348D01*
X37105D01*
X37070Y35383D01*
X37070Y35476D01*
X37242D01*
Y36148D01*
X37106D01*
X37071Y36183D01*
X37071Y36276D01*
X37242D01*
Y36948D01*
X37107D01*
X37071Y36983D01*
X37071Y37076D01*
X37242D01*
Y37748D01*
X37147D01*
X37130Y37798D01*
X37171Y37829D01*
X37221Y37894D01*
X37252Y37969D01*
X37263Y38050D01*
X37252Y38131D01*
X37221Y38206D01*
X37171Y38271D01*
X37106Y38321D01*
X37031Y38352D01*
X36950Y38363D01*
X36869Y38352D01*
X36835Y38338D01*
X36772Y38401D01*
Y39100D01*
X36816Y39125D01*
X37057Y38986D01*
X37472Y39704D01*
X36243Y40414D01*
D02*
G37*
G36*
X41800Y39414D02*
X41718Y39398D01*
X41649Y39351D01*
X41602Y39282D01*
X41586Y39200D01*
X41593Y39166D01*
X41563Y39137D01*
X41537Y39097D01*
X41528Y39050D01*
Y39001D01*
X41314D01*
Y38408D01*
X41986D01*
Y39001D01*
X41969D01*
X41955Y39039D01*
X41953Y39051D01*
X41998Y39118D01*
X42014Y39200D01*
X41998Y39282D01*
X41951Y39351D01*
X41882Y39398D01*
X41800Y39414D01*
D02*
G37*
G36*
X52333Y38371D02*
X51821Y38076D01*
X51820Y38075D01*
X51734Y38026D01*
X51264Y37755D01*
X51600Y37173D01*
X52112Y37469D01*
X52113Y37470D01*
X52113D01*
X52155Y37494D01*
Y37494D01*
X52156Y37495D01*
X52213Y37527D01*
X52253Y37492D01*
X52248Y37481D01*
X52237Y37400D01*
X52248Y37319D01*
X52279Y37244D01*
X52329Y37179D01*
X52394Y37129D01*
X52469Y37098D01*
X52550Y37087D01*
X52631Y37098D01*
X52706Y37129D01*
X52771Y37179D01*
X52821Y37244D01*
X52852Y37319D01*
X52863Y37400D01*
X52852Y37481D01*
X52821Y37556D01*
X52771Y37621D01*
X52706Y37671D01*
X52631Y37702D01*
X52619Y37704D01*
X52608Y37755D01*
X52668Y37790D01*
X52333Y38371D01*
D02*
G37*
G36*
X51138Y38655D02*
X50363Y38207D01*
X50541Y37898D01*
X50734Y38010D01*
X50780Y37990D01*
X50885Y37536D01*
X50651Y37400D01*
X50986Y36819D01*
X51499Y37115D01*
X51164Y37696D01*
X51143Y37685D01*
X51097Y37705D01*
X50992Y38159D01*
X51316Y38346D01*
X51138Y38655D01*
D02*
G37*
G36*
X52632Y35924D02*
X52539Y35912D01*
X52453Y35876D01*
X52379Y35819D01*
X52322Y35745D01*
X52286Y35659D01*
X52274Y35566D01*
X52286Y35473D01*
X52322Y35387D01*
X52379Y35313D01*
X52453Y35256D01*
X52539Y35220D01*
X52632Y35208D01*
X52725Y35220D01*
X52811Y35256D01*
X52885Y35313D01*
X52942Y35387D01*
X52978Y35473D01*
X52990Y35566D01*
X52978Y35659D01*
X52942Y35745D01*
X52885Y35819D01*
X52811Y35876D01*
X52725Y35912D01*
X52632Y35924D01*
D02*
G37*
G36*
X52002Y35185D02*
X51647Y34570D01*
X52262Y34215D01*
X52617Y34830D01*
X52002Y35185D01*
D02*
G37*
G36*
X48519Y35925D02*
X48339Y35921D01*
X48161Y35888D01*
X47991Y35827D01*
X47833Y35741D01*
X47690Y35632D01*
X47565Y35501D01*
X47463Y35352D01*
X47386Y35189D01*
X47334Y35016D01*
X47311Y34838D01*
X47316Y34657D01*
X47348Y34480D01*
X47409Y34310D01*
X47495Y34151D01*
X47605Y34008D01*
X47735Y33884D01*
X47884Y33782D01*
X48047Y33704D01*
X48220Y33653D01*
X48399Y33630D01*
X48525Y33633D01*
X48561Y33598D01*
Y32818D01*
X48517Y32793D01*
X46622Y33888D01*
X45476Y31903D01*
X47392Y30797D01*
X47398Y30748D01*
X45429Y28779D01*
X43965D01*
Y29025D01*
X43135D01*
Y28515D01*
X43102Y28435D01*
X43086Y28315D01*
Y28250D01*
X43102Y28130D01*
X43135Y28050D01*
Y27605D01*
X43965D01*
Y27851D01*
X45622D01*
X45622Y27851D01*
X45682Y27859D01*
X45742Y27867D01*
X45854Y27913D01*
X45950Y27987D01*
X49353Y31390D01*
X49353Y31390D01*
X49426Y31486D01*
X49473Y31598D01*
X49489Y31718D01*
X49489Y31718D01*
Y34275D01*
X49532Y34366D01*
X49583Y34538D01*
X49606Y34717D01*
X49602Y34898D01*
X49569Y35075D01*
X49509Y35245D01*
X49423Y35403D01*
X49313Y35547D01*
X49182Y35671D01*
X49033Y35773D01*
X48871Y35850D01*
X48698Y35902D01*
X48519Y35925D01*
D02*
G37*
G36*
X50600Y33451D02*
X50434Y33435D01*
X50274Y33387D01*
X50127Y33308D01*
X49998Y33202D01*
X49892Y33073D01*
X49813Y32926D01*
X49765Y32766D01*
X49749Y32600D01*
X49765Y32434D01*
X49813Y32274D01*
X49892Y32127D01*
X49998Y31998D01*
X50127Y31892D01*
X50274Y31813D01*
X50434Y31765D01*
X50600Y31748D01*
X50766Y31765D01*
X50926Y31813D01*
X51073Y31892D01*
X51202Y31998D01*
X51308Y32127D01*
X51387Y32274D01*
X51435Y32434D01*
X51452Y32600D01*
X51435Y32766D01*
X51387Y32926D01*
X51308Y33073D01*
X51202Y33202D01*
X51073Y33308D01*
X50926Y33387D01*
X50766Y33435D01*
X50600Y33451D01*
D02*
G37*
G36*
X34850D02*
X34684Y33435D01*
X34524Y33387D01*
X34377Y33308D01*
X34248Y33202D01*
X34142Y33073D01*
X34063Y32926D01*
X34015Y32766D01*
X33998Y32600D01*
X34015Y32434D01*
X34063Y32274D01*
X34142Y32127D01*
X34248Y31998D01*
X34377Y31892D01*
X34524Y31813D01*
X34684Y31765D01*
X34850Y31748D01*
X35016Y31765D01*
X35176Y31813D01*
X35323Y31892D01*
X35452Y31998D01*
X35558Y32127D01*
X35637Y32274D01*
X35685Y32434D01*
X35701Y32600D01*
X35685Y32766D01*
X35637Y32926D01*
X35558Y33073D01*
X35452Y33202D01*
X35323Y33308D01*
X35176Y33387D01*
X35016Y33435D01*
X34850Y33451D01*
D02*
G37*
G36*
X43965Y31195D02*
X43135D01*
Y30607D01*
X43088Y30598D01*
X43048Y30572D01*
X42784Y30307D01*
X42750Y30314D01*
X42668Y30298D01*
X42599Y30251D01*
X42552Y30182D01*
X42536Y30100D01*
X42552Y30018D01*
X42599Y29949D01*
X42668Y29902D01*
X42750Y29886D01*
X42832Y29902D01*
X42901Y29949D01*
X42948Y30018D01*
X42964Y30100D01*
X42957Y30134D01*
X43089Y30266D01*
X43135Y30247D01*
Y29775D01*
X43965D01*
Y31195D01*
D02*
G37*
G36*
X38836Y30051D02*
X38164D01*
Y29458D01*
X38836D01*
Y29632D01*
X39394D01*
X39572Y29454D01*
Y29001D01*
X39928D01*
Y29897D01*
X39572D01*
Y29863D01*
X39522Y29847D01*
X39491Y29867D01*
X39444Y29877D01*
X38836D01*
Y30051D01*
D02*
G37*
G36*
Y29342D02*
X38164D01*
Y28749D01*
X38164D01*
X38164Y28701D01*
X38164D01*
Y28578D01*
X38147Y28569D01*
X38114Y28565D01*
X38071Y28621D01*
X38006Y28671D01*
X37931Y28702D01*
X37850Y28713D01*
X37769Y28702D01*
X37694Y28671D01*
X37629Y28621D01*
X37579Y28556D01*
X37548Y28481D01*
X37537Y28400D01*
X37548Y28319D01*
X37579Y28244D01*
X37629Y28179D01*
X37694Y28129D01*
X37769Y28098D01*
X37850Y28087D01*
X37931Y28098D01*
X38006Y28129D01*
X38071Y28179D01*
X38114Y28235D01*
X38147Y28231D01*
X38164Y28222D01*
Y28108D01*
X38200D01*
X38217Y28058D01*
X38172Y28024D01*
X38098Y27928D01*
X38052Y27816D01*
X38036Y27696D01*
X38052Y27576D01*
X38098Y27464D01*
X38172Y27368D01*
X38568Y26972D01*
X38568Y26972D01*
X38664Y26898D01*
X38776Y26852D01*
X38896Y26836D01*
X39231D01*
X39269Y26841D01*
X39307Y26842D01*
X39329Y26849D01*
X39351Y26852D01*
X39373Y26861D01*
X39497D01*
X39497Y26861D01*
X39557Y26869D01*
X39617Y26877D01*
X39729Y26923D01*
X39825Y26997D01*
X39880Y27052D01*
X39928D01*
Y27100D01*
X39968Y27140D01*
X39968Y27140D01*
X39986Y27163D01*
X40036Y27146D01*
Y25855D01*
X39895D01*
Y25145D01*
X40605D01*
Y25855D01*
X40464D01*
Y27500D01*
X40448Y27582D01*
X40428Y27611D01*
Y27948D01*
X40072D01*
Y27775D01*
X40022Y27758D01*
X39968Y27828D01*
X39928Y27859D01*
Y27948D01*
X39761D01*
X39760Y27948D01*
X39640Y27964D01*
X39520Y27948D01*
X39408Y27902D01*
X39312Y27828D01*
X39281Y27788D01*
X39248Y27784D01*
X39210Y27783D01*
X39188Y27776D01*
X39166Y27773D01*
X39144Y27764D01*
X39088D01*
X38828Y28024D01*
X38783Y28058D01*
X38800Y28108D01*
X38836D01*
Y28701D01*
X38836D01*
X38836Y28749D01*
X38836D01*
Y29342D01*
D02*
G37*
G36*
X48170Y28635D02*
X47815Y28020D01*
X48430Y27665D01*
X48785Y28280D01*
X48170Y28635D01*
D02*
G37*
G36*
X45250Y25858D02*
X45157Y25846D01*
X45071Y25810D01*
X44997Y25753D01*
X44940Y25679D01*
X44904Y25593D01*
X44892Y25500D01*
X44904Y25407D01*
X44940Y25321D01*
X44997Y25247D01*
X45071Y25190D01*
X45157Y25154D01*
X45250Y25142D01*
X45343Y25154D01*
X45429Y25190D01*
X45503Y25247D01*
X45560Y25321D01*
X45596Y25407D01*
X45608Y25500D01*
X45596Y25593D01*
X45560Y25679D01*
X45503Y25753D01*
X45429Y25810D01*
X45343Y25846D01*
X45250Y25858D01*
D02*
G37*
G36*
X44250D02*
X44157Y25846D01*
X44071Y25810D01*
X43997Y25753D01*
X43940Y25679D01*
X43904Y25593D01*
X43892Y25500D01*
X43904Y25407D01*
X43940Y25321D01*
X43997Y25247D01*
X44071Y25190D01*
X44157Y25154D01*
X44250Y25142D01*
X44343Y25154D01*
X44429Y25190D01*
X44503Y25247D01*
X44560Y25321D01*
X44596Y25407D01*
X44608Y25500D01*
X44596Y25593D01*
X44560Y25679D01*
X44503Y25753D01*
X44429Y25810D01*
X44343Y25846D01*
X44250Y25858D01*
D02*
G37*
G36*
X42250D02*
X42157Y25846D01*
X42071Y25810D01*
X41997Y25753D01*
X41940Y25679D01*
X41904Y25593D01*
X41892Y25500D01*
X41904Y25407D01*
X41940Y25321D01*
X41997Y25247D01*
X42071Y25190D01*
X42157Y25154D01*
X42250Y25142D01*
X42343Y25154D01*
X42429Y25190D01*
X42503Y25247D01*
X42560Y25321D01*
X42596Y25407D01*
X42608Y25500D01*
X42596Y25593D01*
X42560Y25679D01*
X42503Y25753D01*
X42429Y25810D01*
X42343Y25846D01*
X42250Y25858D01*
D02*
G37*
G36*
X41428Y29897D02*
X41072D01*
Y29001D01*
X41086D01*
X41101Y28982D01*
X41077Y28932D01*
X39875D01*
Y28017D01*
X40228D01*
X40250Y28012D01*
X40272Y28017D01*
X40628D01*
X40650Y28012D01*
X40672Y28017D01*
X40773D01*
X40803Y27967D01*
X40792Y27948D01*
X40572D01*
Y27052D01*
X40928D01*
Y27594D01*
X41023Y27800D01*
X41072Y27789D01*
Y27611D01*
X41052Y27582D01*
X41036Y27500D01*
Y25784D01*
X40997Y25753D01*
X40940Y25679D01*
X40904Y25593D01*
X40892Y25500D01*
X40904Y25407D01*
X40940Y25321D01*
X40997Y25247D01*
X41071Y25190D01*
X41157Y25154D01*
X41250Y25142D01*
X41343Y25154D01*
X41429Y25190D01*
X41503Y25247D01*
X41560Y25321D01*
X41596Y25407D01*
X41608Y25500D01*
X41596Y25593D01*
X41560Y25679D01*
X41503Y25753D01*
X41464Y25784D01*
Y27500D01*
X41448Y27582D01*
X41428Y27611D01*
Y27948D01*
X41138D01*
X41126Y27967D01*
X41125Y27983D01*
X41165Y28028D01*
X41250D01*
X41297Y28037D01*
X41337Y28063D01*
X41363Y28103D01*
X41372Y28150D01*
Y29001D01*
X41428D01*
Y29897D01*
D02*
G37*
%LPD*%
G36*
X42586Y44803D02*
X42358Y44575D01*
X42332Y44535D01*
X42322Y44489D01*
Y43111D01*
X42332Y43065D01*
X42358Y43025D01*
X42508Y42875D01*
Y42186D01*
X42458Y42165D01*
X41597Y43026D01*
X41598Y43028D01*
X41626Y43039D01*
X41653Y43042D01*
X41721Y42990D01*
X41807Y42954D01*
X41900Y42942D01*
X41993Y42954D01*
X42079Y42990D01*
X42153Y43047D01*
X42210Y43121D01*
X42246Y43207D01*
X42258Y43300D01*
X42246Y43393D01*
X42210Y43479D01*
X42153Y43553D01*
X42079Y43610D01*
X41993Y43646D01*
X41900Y43658D01*
X41807Y43646D01*
X41721Y43610D01*
X41647Y43553D01*
X41617Y43515D01*
X41567Y43532D01*
Y44068D01*
X41617Y44085D01*
X41647Y44047D01*
X41721Y43990D01*
X41807Y43954D01*
X41900Y43942D01*
X41993Y43954D01*
X42079Y43990D01*
X42153Y44047D01*
X42210Y44121D01*
X42246Y44207D01*
X42258Y44300D01*
X42246Y44393D01*
X42210Y44479D01*
X42153Y44553D01*
X42079Y44610D01*
X41993Y44646D01*
X41900Y44658D01*
X41852Y44652D01*
X41829Y44699D01*
X41982Y44853D01*
X42565D01*
X42586Y44803D01*
D02*
G37*
G36*
X44138Y35751D02*
X43517Y35397D01*
X43048Y35395D01*
X43000Y35444D01*
Y35658D01*
X43434D01*
X43481Y35667D01*
X43521Y35693D01*
X43627Y35799D01*
X44126D01*
X44138Y35751D01*
D02*
G37*
G36*
X40000Y34856D02*
Y34370D01*
Y33919D01*
X39959Y33904D01*
X39950Y33902D01*
X39882Y33948D01*
X39800Y33964D01*
X39718Y33948D01*
X39649Y33901D01*
X39602Y33832D01*
X39586Y33750D01*
X39602Y33668D01*
X39649Y33599D01*
X39718Y33552D01*
X39800Y33536D01*
X39882Y33552D01*
X39951Y33599D01*
X40000Y33610D01*
Y33610D01*
X40000Y33610D01*
X40632D01*
X40651Y33564D01*
X40309Y33222D01*
X38621D01*
X38552Y33291D01*
Y33381D01*
X38846D01*
Y33619D01*
X38800D01*
Y34038D01*
X38872D01*
X38899Y33999D01*
X38968Y33952D01*
X39050Y33936D01*
X39132Y33952D01*
X39201Y33999D01*
X39248Y34068D01*
X39264Y34150D01*
X39248Y34232D01*
X39205Y34297D01*
X39217Y34347D01*
X39369D01*
X39416Y34356D01*
X39456Y34383D01*
X39950Y34877D01*
X40000Y34856D01*
D02*
G37*
G36*
X48561Y32566D02*
Y31910D01*
X47669Y31018D01*
X47629Y31049D01*
X48512Y32579D01*
X48561Y32566D01*
D02*
G37*
D15*
X42200Y37612D02*
X42400Y37412D01*
X41816Y37996D02*
X42200Y37612D01*
Y41280D01*
X40455Y43855D02*
X40900Y44300D01*
X40455Y43025D02*
Y43855D01*
Y43025D02*
X42200Y41280D01*
X45000Y37412D02*
X46550D01*
X41650Y37996D02*
X41816D01*
X42400Y37310D02*
X42650Y37060D01*
X42400Y37310D02*
Y37412D01*
X38688Y37250D02*
X39050D01*
X38688Y36500D02*
X39050D01*
X38688Y35750D02*
X38738Y35700D01*
X39050D01*
X38688Y35000D02*
X38788Y34900D01*
X39050D01*
X38788Y34150D02*
X39050D01*
X38688Y34250D02*
X38788Y34150D01*
X38688Y33500D02*
Y34250D01*
D16*
X52244Y37933D02*
D03*
X52858Y38287D02*
D03*
X51689Y37612D02*
D03*
X51075Y37258D02*
D03*
D17*
X50090Y39576D02*
D03*
X50340Y39143D02*
D03*
X50590Y38709D02*
D03*
X50840Y38276D02*
D03*
X52527Y39251D02*
D03*
X52277Y39684D02*
D03*
X52027Y40117D02*
D03*
X51777Y40550D02*
D03*
D18*
X51308Y39413D02*
D03*
D19*
X37396Y45092D02*
D03*
X36782Y45446D02*
D03*
X37951Y44771D02*
D03*
X38565Y44417D02*
D03*
D20*
X36925Y42188D02*
D03*
X37175Y42621D02*
D03*
X37425Y43054D02*
D03*
X37675Y43487D02*
D03*
X35988Y44461D02*
D03*
X35738Y44028D02*
D03*
X35488Y43595D02*
D03*
X35238Y43162D02*
D03*
D21*
X36456Y43325D02*
D03*
D22*
X38500Y29046D02*
D03*
Y29754D02*
D03*
X38500Y28404D02*
D03*
Y27696D02*
D03*
X43900Y36804D02*
D03*
Y36096D02*
D03*
X41650Y38704D02*
D03*
Y37996D02*
D03*
D23*
X40350Y37060D02*
D03*
Y36810D02*
D03*
Y36550D02*
D03*
Y36300D02*
D03*
Y36040D02*
D03*
Y35780D02*
D03*
Y35530D02*
D03*
Y35270D02*
D03*
Y35020D02*
D03*
Y34760D02*
D03*
Y34500D02*
D03*
Y34250D02*
D03*
Y33990D02*
D03*
Y33740D02*
D03*
X42650D02*
D03*
Y33990D02*
D03*
Y34250D02*
D03*
Y34500D02*
D03*
Y34760D02*
D03*
Y35020D02*
D03*
Y35270D02*
D03*
Y35530D02*
D03*
Y35780D02*
D03*
Y36040D02*
D03*
Y36300D02*
D03*
Y36550D02*
D03*
Y36810D02*
D03*
Y37060D02*
D03*
D24*
X36946Y33412D02*
D03*
X37654D02*
D03*
X36946Y34212D02*
D03*
X37654D02*
D03*
X36946Y35012D02*
D03*
X37654D02*
D03*
X36946Y35812D02*
D03*
X37654D02*
D03*
X36946Y36612D02*
D03*
X37654D02*
D03*
X36946Y37412D02*
D03*
X37654D02*
D03*
D25*
X38688Y34250D02*
D03*
X38412D02*
D03*
X38688Y33500D02*
D03*
X38412D02*
D03*
X38688Y35000D02*
D03*
X38412D02*
D03*
X38412Y35750D02*
D03*
X38688D02*
D03*
X38412Y36500D02*
D03*
X38688D02*
D03*
X38412Y37250D02*
D03*
X38688D02*
D03*
D26*
X41250Y29449D02*
D03*
X40750D02*
D03*
X40250D02*
D03*
X39750D02*
D03*
Y27500D02*
D03*
X40250D02*
D03*
X40750D02*
D03*
X41250D02*
D03*
D27*
X40500Y28474D02*
D03*
D28*
X36650Y39700D02*
D03*
X34771Y40785D02*
D03*
D29*
X43550Y30485D02*
D03*
Y28315D02*
D03*
D30*
X48042Y41049D02*
D03*
X49921Y42134D02*
D03*
D50*
X36086Y44750D02*
X36782Y45446D01*
X35907Y44750D02*
X36086D01*
X50516Y42134D02*
X51032Y42650D01*
X49921Y42134D02*
X50516D01*
X43550Y28315D02*
X45622D01*
X39640Y27468D02*
Y27500D01*
X52661Y39049D02*
X52810Y38900D01*
X38500Y27696D02*
X38896Y27300D01*
X39231D01*
X39497Y27325D02*
X39640Y27468D01*
X39286Y27325D02*
X39497D01*
X39231Y27300D02*
X39286Y27325D01*
X49025Y31718D02*
Y34475D01*
X48723Y34777D02*
X49025Y34475D01*
X48459Y34777D02*
X48723D01*
X45622Y28315D02*
X49025Y31718D01*
X33750Y37350D02*
X34771Y40785D01*
X43550Y28250D02*
Y28315D01*
D51*
X39800Y33750D02*
X39810Y33740D01*
X40350D01*
X41265Y45900D02*
X41850Y45315D01*
X37236Y45900D02*
X41265D01*
X36782Y45446D02*
X37236Y45900D01*
X41250Y28150D02*
Y29449D01*
X41050Y28150D02*
X41250D01*
X40750Y27500D02*
X41050Y28150D01*
X51400Y40050D02*
X52027Y40117D01*
X51000D02*
X51400Y40050D01*
X50090Y39576D02*
X51000Y40117D01*
X35850Y43100D02*
X35900Y42800D01*
X36925Y42188D01*
X35488Y43595D02*
X35850Y43100D01*
X41445Y43005D02*
X42410Y42040D01*
Y37886D02*
Y42040D01*
Y37886D02*
X43100Y37196D01*
X42445Y44489D02*
X42711Y44755D01*
X42445Y43111D02*
X42630Y42926D01*
Y37977D02*
Y42926D01*
X42445Y43111D02*
Y44489D01*
X42630Y37977D02*
X43320Y37287D01*
X42750Y30100D02*
X43135Y30485D01*
X43550D01*
X48600Y40453D02*
Y40492D01*
X48042Y41049D02*
X48600Y40492D01*
X36949Y37412D02*
X36950Y38050D01*
X36650Y38350D02*
X36950Y38050D01*
X36650Y38350D02*
Y39700D01*
X41650Y39050D02*
X41800Y39200D01*
X41650Y38704D02*
Y39050D01*
X44426Y36804D02*
X44430Y36800D01*
X43900Y36804D02*
X44426D01*
X43871D02*
X43900D01*
X43366Y36300D02*
X43871Y36804D01*
X42650Y36300D02*
X43366D01*
X41050Y35275D02*
Y40979D01*
X40800Y35394D02*
Y40550D01*
X38429Y35875D02*
X38564Y36010D01*
X39170D01*
X39710Y36550D01*
X38523Y34469D02*
X39369D01*
X38429Y34375D02*
X38523Y34469D01*
X39369D02*
X39900Y35000D01*
X38523Y35219D02*
X39153D01*
X39680Y35746D01*
X38429Y35125D02*
X38523Y35219D01*
X39680Y35746D02*
Y36007D01*
X38614Y36810D02*
X40350D01*
X38429Y36625D02*
X38614Y36810D01*
X39710Y36550D02*
X40350D01*
X39680Y36007D02*
X39973Y36300D01*
X39900Y35916D02*
X39994Y36010D01*
X39900Y35000D02*
Y35916D01*
X39994Y36010D02*
X40350D01*
X38429Y37233D02*
Y37375D01*
X39810Y37600D02*
X40350Y37060D01*
X38654Y37600D02*
X39810D01*
X38429Y37375D02*
X38654Y37600D01*
X39973Y36300D02*
X40350D01*
X41445Y43005D02*
Y44489D01*
X46445Y44755D02*
X46900Y44300D01*
X42711Y44755D02*
X46445D01*
X47042Y44975D02*
X47355Y44662D01*
X41445Y44489D02*
X41931Y44975D01*
X47042D01*
X43320Y36833D02*
Y37287D01*
X43067Y36580D02*
X43320Y36833D01*
X42680Y36580D02*
X43067D01*
X42650Y36550D02*
X42680Y36580D01*
X43100Y36924D02*
Y37196D01*
X43006Y36830D02*
X43100Y36924D01*
X42670Y36830D02*
X43006D01*
X46900Y43300D02*
X47050D01*
X47350Y43600D01*
Y43839D01*
X47355Y43845D01*
Y44662D01*
X42650Y36810D02*
X42670Y36830D01*
X44400Y40800D02*
X46350D01*
X50564Y45014D01*
X51509D01*
X50033Y44148D02*
X52009D01*
X45235Y39350D02*
X50033Y44148D01*
X44400Y39350D02*
X45235D01*
X37951Y44771D02*
X38300Y45350D01*
X37396Y45092D02*
X37951Y44771D01*
X37850Y28400D02*
X38500Y28404D01*
X38500Y29046D02*
X38500Y28404D01*
X52244Y37933D02*
X52550Y37400D01*
X51689Y37612D02*
X52244Y37933D01*
X36949Y36612D02*
X36949Y37412D01*
X36948Y35812D02*
X36949Y36612D01*
X36947Y35012D02*
X36948Y35812D01*
X36946Y34212D02*
X36947Y35012D01*
X36946Y33412D02*
X36946Y34212D01*
X37675Y43487D02*
X38565Y44417D01*
X50840Y38276D02*
X51075Y37258D01*
X39444Y29754D02*
X39750Y29449D01*
X38500Y29754D02*
X39444D01*
X43434Y35780D02*
X43750Y36096D01*
X42650Y35780D02*
X43434D01*
X40350Y35270D02*
X40450D01*
X40480Y35300D01*
X40706D01*
X40800Y35394D01*
X40795Y35020D02*
X41050Y35275D01*
X40350Y35020D02*
X40795D01*
X41650Y34390D02*
Y35650D01*
X40360Y33100D02*
X41650Y34390D01*
X38570Y33100D02*
X40360D01*
X40250Y29449D02*
Y31926D01*
X42294Y33970D01*
X42630D01*
X42650Y33990D01*
X40750Y29449D02*
Y31840D01*
X42650Y33740D01*
X44350Y35012D02*
X50590Y38709D01*
X42650Y35011D02*
X44350Y35012D01*
X42650Y35011D02*
X42650D01*
X42650Y35270D02*
X43550Y35275D01*
X50340Y39143D01*
X37425Y43054D02*
X41050Y40979D01*
X37175Y42621D02*
X40800Y40550D01*
X42040Y36040D02*
X42650D01*
X41650Y35650D02*
X42040Y36040D01*
X38429Y33241D02*
X38570Y33100D01*
X38429Y33241D02*
Y33483D01*
X38412Y33500D02*
X38429Y33483D01*
X37654Y33412D02*
X37742Y33500D01*
X38412D01*
X37654Y37412D02*
X37816Y37250D01*
X38412D01*
X37654Y36612D02*
X37766Y36500D01*
X38412D01*
X37654Y35812D02*
X37716Y35750D01*
X38412D01*
X37654Y35012D02*
X37666Y35000D01*
X38412D01*
X37654Y34212D02*
X37692Y34250D01*
X38412D01*
X38429Y34267D02*
Y34375D01*
X38412Y34250D02*
X38429Y34267D01*
X40350Y36010D02*
Y36040D01*
X38412Y35000D02*
X38429Y35017D01*
Y35125D01*
X38412Y35750D02*
X38429Y35767D01*
Y35875D01*
X38412Y36500D02*
X38429Y36517D01*
Y36625D01*
X38412Y37250D02*
X38429Y37233D01*
D52*
X41250Y25500D02*
Y27500D01*
X40250Y25500D02*
Y27500D01*
X52277Y39684D02*
X54009Y40684D01*
X51777Y40550D02*
X53509Y41550D01*
X33506Y44162D02*
X35238Y43162D01*
X34006Y45028D02*
X35738Y44028D01*
D53*
X54009Y40684D02*
D03*
D54*
X53509Y41550D02*
D03*
X53009Y42416D02*
D03*
X52509Y43282D02*
D03*
X52009Y44148D02*
D03*
X51509Y45014D02*
D03*
X46900Y43300D02*
D03*
X45900Y44300D02*
D03*
Y43300D02*
D03*
X44900Y44300D02*
D03*
Y43300D02*
D03*
X43900Y44300D02*
D03*
Y43300D02*
D03*
X42900Y44300D02*
D03*
Y43300D02*
D03*
X41900Y44300D02*
D03*
Y43300D02*
D03*
X40900Y44300D02*
D03*
Y43300D02*
D03*
X33506Y44162D02*
D03*
X33006Y43296D02*
D03*
X32506Y42430D02*
D03*
X32006Y41564D02*
D03*
X31506Y40698D02*
D03*
X48800Y29016D02*
D03*
X52632Y35566D02*
D03*
X41250Y25500D02*
D03*
X42250D02*
D03*
X43250D02*
D03*
X44250D02*
D03*
X45250D02*
D03*
D55*
X46900Y44300D02*
D03*
X40250Y25500D02*
D03*
D56*
X34006Y45028D02*
D03*
X48300Y28150D02*
D03*
X52132Y34700D02*
D03*
D57*
X47041Y32323D02*
D03*
D58*
X48459Y34777D02*
D03*
D59*
X35950Y45000D02*
D03*
X39231Y27300D02*
D03*
X34771Y40785D02*
D03*
X33750Y37350D02*
D03*
X43550Y28250D02*
D03*
X44400Y40800D02*
D03*
Y39350D02*
D03*
X38300Y45350D02*
D03*
X37850Y28400D02*
D03*
X52550Y37400D02*
D03*
X36950Y38050D02*
D03*
D60*
X51300Y38800D02*
D03*
X51600Y39000D02*
D03*
X36035Y43068D02*
D03*
X36250Y42908D02*
D03*
X36224Y43250D02*
D03*
X36432Y43150D02*
D03*
X36346Y43450D02*
D03*
X36550Y43332D02*
D03*
X36450Y43676D02*
D03*
X36644Y43550D02*
D03*
X36850Y43424D02*
D03*
X36726Y43215D02*
D03*
X36600Y43011D02*
D03*
X36450Y42791D02*
D03*
X51100Y39100D02*
D03*
X51900Y39200D02*
D03*
X51250Y39850D02*
D03*
X51200Y39600D02*
D03*
X51450Y39535D02*
D03*
X51150Y39350D02*
D03*
X51400Y39300D02*
D03*
X51650Y39250D02*
D03*
X51350Y39050D02*
D03*
X50900Y39450D02*
D03*
X41050Y28550D02*
D03*
Y28150D02*
D03*
X40250D02*
D03*
X40050Y28350D02*
D03*
X40450D02*
D03*
X40650Y28150D02*
D03*
X40850Y28350D02*
D03*
X40650Y28550D02*
D03*
X40250D02*
D03*
X40850Y28750D02*
D03*
X40450D02*
D03*
X40050D02*
D03*
D61*
X39800Y33750D02*
D03*
X41850Y45315D02*
D03*
X45807Y42186D02*
D03*
X51032Y42650D02*
D03*
X52810Y38900D02*
D03*
X42750Y30100D02*
D03*
X48600Y40453D02*
D03*
X44500Y40250D02*
D03*
X46550Y37412D02*
D03*
X45000D02*
D03*
X41800Y39200D02*
D03*
X44430Y36800D02*
D03*
X42400Y37412D02*
D03*
X39050Y37250D02*
D03*
Y36500D02*
D03*
Y35700D02*
D03*
Y34900D02*
D03*
Y34150D02*
D03*
D62*
X50600Y32600D02*
D03*
X34850D02*
D03*
X42800Y46150D02*
D03*
M02*
