G04*
G04 #@! TF.GenerationSoftware,Altium Limited,Altium Designer,20.0.8 (157)*
G04*
G04 Layer_Color=8388736*
%FSLAX24Y24*%
%MOIN*%
G70*
G01*
G75*
%ADD22R,0.0720X0.1540*%
%ADD23R,0.0140X0.0580*%
%ADD24R,0.2206X0.1222*%
%ADD25R,0.0671X0.0493*%
%ADD26R,0.0277X0.0415*%
%ADD27R,0.1537X0.1832*%
%ADD28R,0.0430X0.0710*%
%ADD29R,0.0631X0.0552*%
%ADD30R,0.0552X0.0631*%
%ADD31R,0.1520X0.1080*%
%ADD32C,0.2252*%
%ADD33R,0.2252X0.2252*%
%ADD34C,0.1655*%
D22*
X43100Y32865D02*
D03*
Y29435D02*
D03*
D23*
X39552Y33490D02*
D03*
X39296D02*
D03*
X39040D02*
D03*
X38784D02*
D03*
X38528D02*
D03*
X38272D02*
D03*
X38016D02*
D03*
X37760D02*
D03*
X37504D02*
D03*
X37248D02*
D03*
Y35710D02*
D03*
X37504D02*
D03*
X37760D02*
D03*
X38016D02*
D03*
X38272D02*
D03*
X38528D02*
D03*
X38784D02*
D03*
X39040D02*
D03*
X39296D02*
D03*
X39552D02*
D03*
D24*
X31900Y35799D02*
D03*
Y31901D02*
D03*
D25*
X35100Y30750D02*
D03*
Y31950D02*
D03*
D26*
X40502Y32450D02*
D03*
X40000Y32450D02*
D03*
X39499Y32451D02*
D03*
X38997Y32450D02*
D03*
X38302Y32450D02*
D03*
X37800Y32450D02*
D03*
X37299Y32451D02*
D03*
X36797Y32450D02*
D03*
D27*
X39746Y31054D02*
D03*
X37546D02*
D03*
D28*
X38900Y29400D02*
D03*
X37700D02*
D03*
X42100Y34200D02*
D03*
X40900D02*
D03*
X37250Y37800D02*
D03*
X38450D02*
D03*
D29*
X36450Y33046D02*
D03*
Y33754D02*
D03*
X36050Y31196D02*
D03*
Y31904D02*
D03*
X35750Y33046D02*
D03*
Y33754D02*
D03*
X40000Y36796D02*
D03*
Y37504D02*
D03*
X39300Y36796D02*
D03*
Y37504D02*
D03*
X36450Y36154D02*
D03*
Y35446D02*
D03*
X35750Y35446D02*
D03*
Y36154D02*
D03*
X35080Y35454D02*
D03*
Y36162D02*
D03*
D30*
X38604Y36800D02*
D03*
X37896D02*
D03*
X36546Y36800D02*
D03*
X37254D02*
D03*
X35046D02*
D03*
X35754D02*
D03*
D31*
X38400Y34600D02*
D03*
D32*
X42850Y45567D02*
D03*
X37150D02*
D03*
X31450D02*
D03*
X42850Y25917D02*
D03*
X37150D02*
D03*
X31450D02*
D03*
D33*
X42850Y42733D02*
D03*
X37150D02*
D03*
X31450D02*
D03*
X42850Y23083D02*
D03*
X37150D02*
D03*
X31450D02*
D03*
D34*
X28550Y46350D02*
D03*
Y22200D02*
D03*
X45650D02*
D03*
Y46350D02*
D03*
M02*
