G04*
G04 #@! TF.GenerationSoftware,Altium Limited,Altium Designer,20.0.8 (157)*
G04*
G04 Layer_Color=32896*
%FSLAX24Y24*%
%MOIN*%
G70*
G01*
G75*
G36*
X30466Y37637D02*
X30456Y37632D01*
X30448Y37626D01*
X30439Y37619D01*
X30431Y37612D01*
X30424Y37605D01*
X30419Y37600D01*
X30417Y37598D01*
X30415Y37596D01*
X30415Y37596D01*
X30414Y37595D01*
X30405Y37584D01*
X30396Y37572D01*
X30388Y37561D01*
X30382Y37550D01*
X30377Y37540D01*
X30374Y37536D01*
X30373Y37533D01*
X30371Y37530D01*
X30370Y37528D01*
X30369Y37527D01*
Y37526D01*
X30324D01*
X30327Y37535D01*
X30331Y37543D01*
X30335Y37551D01*
X30339Y37559D01*
X30342Y37566D01*
X30345Y37571D01*
X30347Y37575D01*
X30348Y37575D01*
Y37576D01*
X30354Y37586D01*
X30360Y37595D01*
X30365Y37602D01*
X30370Y37609D01*
X30374Y37614D01*
X30378Y37617D01*
X30380Y37620D01*
X30380Y37621D01*
X30080D01*
Y37668D01*
X30466D01*
Y37637D01*
D02*
G37*
G36*
X30182Y37417D02*
X30170Y37414D01*
X30159Y37411D01*
X30150Y37407D01*
X30143Y37403D01*
X30137Y37399D01*
X30133Y37395D01*
X30130Y37394D01*
X30130Y37393D01*
X30124Y37385D01*
X30120Y37378D01*
X30117Y37370D01*
X30115Y37363D01*
X30114Y37357D01*
X30113Y37351D01*
X30113Y37348D01*
Y37347D01*
X30113Y37341D01*
X30114Y37334D01*
X30117Y37323D01*
X30121Y37314D01*
X30126Y37306D01*
X30130Y37299D01*
X30134Y37294D01*
X30137Y37292D01*
X30138Y37291D01*
X30143Y37287D01*
X30149Y37283D01*
X30161Y37278D01*
X30175Y37274D01*
X30188Y37272D01*
X30201Y37271D01*
X30206Y37270D01*
X30211D01*
X30214Y37269D01*
X30217D01*
X30219D01*
X30220D01*
X30229D01*
X30239Y37271D01*
X30248Y37272D01*
X30256Y37273D01*
X30263Y37274D01*
X30269Y37277D01*
X30276Y37278D01*
X30281Y37281D01*
X30286Y37283D01*
X30289Y37284D01*
X30293Y37287D01*
X30296Y37288D01*
X30298Y37289D01*
X30299Y37291D01*
X30300Y37292D01*
X30301D01*
X30305Y37296D01*
X30309Y37301D01*
X30316Y37310D01*
X30320Y37320D01*
X30323Y37329D01*
X30325Y37337D01*
X30326Y37343D01*
X30326Y37346D01*
Y37349D01*
X30326Y37358D01*
X30324Y37366D01*
X30322Y37372D01*
X30319Y37378D01*
X30316Y37383D01*
X30314Y37387D01*
X30312Y37389D01*
X30312Y37389D01*
X30306Y37395D01*
X30299Y37400D01*
X30292Y37404D01*
X30286Y37407D01*
X30279Y37410D01*
X30274Y37412D01*
X30271Y37412D01*
X30271Y37413D01*
X30270D01*
X30277Y37459D01*
X30292Y37455D01*
X30305Y37449D01*
X30316Y37443D01*
X30325Y37437D01*
X30332Y37431D01*
X30337Y37426D01*
X30340Y37423D01*
X30342Y37422D01*
Y37422D01*
X30349Y37410D01*
X30355Y37398D01*
X30359Y37385D01*
X30362Y37374D01*
X30364Y37363D01*
X30364Y37359D01*
Y37355D01*
X30365Y37352D01*
Y37348D01*
X30364Y37334D01*
X30362Y37322D01*
X30359Y37311D01*
X30357Y37301D01*
X30353Y37293D01*
X30352Y37289D01*
X30350Y37287D01*
X30349Y37284D01*
X30348Y37283D01*
X30348Y37282D01*
Y37281D01*
X30341Y37271D01*
X30333Y37261D01*
X30324Y37253D01*
X30316Y37247D01*
X30309Y37242D01*
X30303Y37238D01*
X30301Y37237D01*
X30299Y37236D01*
X30298Y37236D01*
X30297D01*
X30284Y37231D01*
X30271Y37227D01*
X30257Y37225D01*
X30245Y37223D01*
X30239Y37222D01*
X30234Y37222D01*
X30230D01*
X30226Y37221D01*
X30223D01*
X30221D01*
X30219D01*
X30218D01*
X30206Y37222D01*
X30194Y37223D01*
X30182Y37225D01*
X30172Y37227D01*
X30162Y37229D01*
X30154Y37232D01*
X30146Y37235D01*
X30138Y37238D01*
X30132Y37242D01*
X30127Y37245D01*
X30122Y37248D01*
X30118Y37250D01*
X30115Y37252D01*
X30113Y37254D01*
X30112Y37255D01*
X30111Y37256D01*
X30105Y37262D01*
X30099Y37269D01*
X30094Y37277D01*
X30090Y37284D01*
X30086Y37292D01*
X30083Y37299D01*
X30079Y37314D01*
X30077Y37321D01*
X30076Y37327D01*
X30075Y37333D01*
X30075Y37338D01*
X30074Y37342D01*
Y37347D01*
X30075Y37355D01*
X30075Y37364D01*
X30079Y37378D01*
X30082Y37392D01*
X30087Y37403D01*
X30090Y37407D01*
X30092Y37412D01*
X30095Y37415D01*
X30097Y37418D01*
X30099Y37420D01*
X30100Y37422D01*
X30100Y37423D01*
X30101Y37424D01*
X30106Y37429D01*
X30112Y37434D01*
X30124Y37443D01*
X30137Y37450D01*
X30148Y37455D01*
X30160Y37459D01*
X30164Y37460D01*
X30168Y37462D01*
X30172Y37462D01*
X30174Y37463D01*
X30176Y37463D01*
X30176D01*
X30182Y37417D01*
D02*
G37*
G36*
X30354Y37197D02*
X30358Y37188D01*
X30361Y37181D01*
X30363Y37173D01*
X30364Y37167D01*
X30365Y37162D01*
Y37158D01*
X30364Y37152D01*
X30363Y37147D01*
X30362Y37141D01*
X30360Y37137D01*
X30358Y37134D01*
X30357Y37130D01*
X30355Y37129D01*
X30355Y37128D01*
X30350Y37123D01*
X30345Y37118D01*
X30338Y37113D01*
X30332Y37109D01*
X30326Y37104D01*
X30321Y37101D01*
X30317Y37099D01*
X30317Y37099D01*
X30359D01*
Y37056D01*
X30080D01*
Y37103D01*
X30226D01*
X30237Y37104D01*
X30247Y37104D01*
X30256Y37105D01*
X30264Y37107D01*
X30271Y37109D01*
X30276Y37110D01*
X30279Y37110D01*
X30281Y37111D01*
X30287Y37113D01*
X30292Y37116D01*
X30296Y37119D01*
X30300Y37121D01*
X30303Y37124D01*
X30305Y37126D01*
X30306Y37127D01*
X30307Y37128D01*
X30310Y37132D01*
X30312Y37137D01*
X30314Y37142D01*
X30315Y37146D01*
X30316Y37150D01*
X30316Y37153D01*
Y37156D01*
X30316Y37162D01*
X30314Y37168D01*
X30313Y37174D01*
X30311Y37179D01*
X30309Y37183D01*
X30308Y37187D01*
X30307Y37189D01*
X30306Y37190D01*
X30349Y37207D01*
X30354Y37197D01*
D02*
G37*
G36*
X30243Y36859D02*
X30196D01*
Y37005D01*
X30243D01*
Y36859D01*
D02*
G37*
G36*
X30466Y36713D02*
X30456Y36707D01*
X30448Y36701D01*
X30439Y36694D01*
X30431Y36687D01*
X30424Y36681D01*
X30419Y36676D01*
X30417Y36673D01*
X30415Y36672D01*
X30415Y36671D01*
X30414Y36671D01*
X30405Y36659D01*
X30396Y36647D01*
X30388Y36636D01*
X30382Y36625D01*
X30377Y36616D01*
X30374Y36612D01*
X30373Y36608D01*
X30371Y36606D01*
X30370Y36603D01*
X30369Y36602D01*
Y36602D01*
X30324D01*
X30327Y36610D01*
X30331Y36618D01*
X30335Y36627D01*
X30339Y36635D01*
X30342Y36641D01*
X30345Y36647D01*
X30347Y36650D01*
X30348Y36651D01*
Y36651D01*
X30354Y36661D01*
X30360Y36670D01*
X30365Y36678D01*
X30370Y36684D01*
X30374Y36690D01*
X30378Y36693D01*
X30380Y36696D01*
X30380Y36696D01*
X30080D01*
Y36743D01*
X30466D01*
Y36713D01*
D02*
G37*
G36*
X30134Y36443D02*
X30080D01*
Y36497D01*
X30134D01*
Y36443D01*
D02*
G37*
G36*
X30290Y36368D02*
X30299D01*
X30308Y36368D01*
X30316Y36366D01*
X30323Y36366D01*
X30330Y36365D01*
X30336Y36364D01*
X30342Y36364D01*
X30347Y36363D01*
X30350Y36362D01*
X30354Y36361D01*
X30357Y36361D01*
X30358Y36360D01*
X30359Y36360D01*
X30360D01*
X30372Y36357D01*
X30383Y36353D01*
X30393Y36348D01*
X30401Y36345D01*
X30408Y36341D01*
X30413Y36339D01*
X30416Y36337D01*
X30417Y36336D01*
X30425Y36330D01*
X30433Y36324D01*
X30439Y36317D01*
X30444Y36311D01*
X30448Y36305D01*
X30451Y36301D01*
X30453Y36298D01*
X30453Y36298D01*
Y36297D01*
X30458Y36288D01*
X30460Y36279D01*
X30463Y36270D01*
X30464Y36262D01*
X30465Y36254D01*
X30466Y36248D01*
Y36243D01*
X30465Y36228D01*
X30463Y36214D01*
X30459Y36203D01*
X30455Y36193D01*
X30450Y36184D01*
X30449Y36181D01*
X30447Y36178D01*
X30445Y36176D01*
X30444Y36174D01*
X30443Y36174D01*
Y36173D01*
X30434Y36163D01*
X30424Y36155D01*
X30413Y36148D01*
X30403Y36142D01*
X30394Y36138D01*
X30390Y36136D01*
X30386Y36135D01*
X30383Y36133D01*
X30381Y36132D01*
X30380Y36132D01*
X30379D01*
X30371Y36130D01*
X30363Y36127D01*
X30344Y36124D01*
X30326Y36121D01*
X30309Y36120D01*
X30301Y36119D01*
X30293Y36118D01*
X30287D01*
X30281Y36118D01*
X30276D01*
X30272D01*
X30270D01*
X30269D01*
X30250Y36118D01*
X30232Y36120D01*
X30215Y36121D01*
X30200Y36124D01*
X30185Y36127D01*
X30172Y36130D01*
X30161Y36133D01*
X30151Y36137D01*
X30142Y36140D01*
X30134Y36144D01*
X30127Y36147D01*
X30122Y36149D01*
X30118Y36152D01*
X30115Y36154D01*
X30113Y36155D01*
X30113Y36156D01*
X30106Y36162D01*
X30100Y36168D01*
X30095Y36176D01*
X30090Y36183D01*
X30086Y36190D01*
X30083Y36197D01*
X30081Y36204D01*
X30079Y36211D01*
X30077Y36218D01*
X30076Y36224D01*
X30075Y36229D01*
X30074Y36234D01*
X30074Y36238D01*
Y36243D01*
X30075Y36258D01*
X30077Y36272D01*
X30081Y36284D01*
X30085Y36294D01*
X30089Y36302D01*
X30091Y36305D01*
X30092Y36308D01*
X30094Y36310D01*
X30095Y36312D01*
X30096Y36312D01*
Y36313D01*
X30105Y36323D01*
X30115Y36331D01*
X30126Y36338D01*
X30136Y36344D01*
X30146Y36348D01*
X30150Y36350D01*
X30153Y36352D01*
X30156Y36353D01*
X30158Y36354D01*
X30160Y36354D01*
X30160D01*
X30168Y36357D01*
X30177Y36359D01*
X30195Y36363D01*
X30213Y36365D01*
X30231Y36367D01*
X30238Y36368D01*
X30246Y36368D01*
X30252D01*
X30258Y36369D01*
X30263D01*
X30267D01*
X30269D01*
X30269D01*
X30280D01*
X30290Y36368D01*
D02*
G37*
G36*
X30354Y35944D02*
X30358Y35935D01*
X30361Y35927D01*
X30363Y35920D01*
X30364Y35914D01*
X30365Y35909D01*
Y35905D01*
X30364Y35899D01*
X30363Y35894D01*
X30362Y35888D01*
X30360Y35884D01*
X30358Y35880D01*
X30357Y35877D01*
X30355Y35875D01*
X30355Y35875D01*
X30350Y35870D01*
X30345Y35865D01*
X30338Y35860D01*
X30332Y35855D01*
X30326Y35851D01*
X30321Y35848D01*
X30317Y35846D01*
X30317Y35845D01*
X30359D01*
Y35803D01*
X30080D01*
Y35850D01*
X30226D01*
X30237Y35850D01*
X30247Y35851D01*
X30256Y35852D01*
X30264Y35854D01*
X30271Y35855D01*
X30276Y35856D01*
X30279Y35857D01*
X30281Y35858D01*
X30287Y35860D01*
X30292Y35863D01*
X30296Y35865D01*
X30300Y35868D01*
X30303Y35871D01*
X30305Y35873D01*
X30306Y35874D01*
X30307Y35875D01*
X30310Y35879D01*
X30312Y35884D01*
X30314Y35889D01*
X30315Y35893D01*
X30316Y35897D01*
X30316Y35900D01*
Y35903D01*
X30316Y35909D01*
X30314Y35915D01*
X30313Y35921D01*
X30311Y35926D01*
X30309Y35930D01*
X30308Y35934D01*
X30307Y35936D01*
X30306Y35936D01*
X30349Y35954D01*
X30354Y35944D01*
D02*
G37*
G36*
X30232Y35745D02*
X30244Y35744D01*
X30255Y35742D01*
X30266Y35740D01*
X30275Y35737D01*
X30284Y35734D01*
X30292Y35731D01*
X30299Y35728D01*
X30306Y35724D01*
X30311Y35721D01*
X30316Y35718D01*
X30319Y35715D01*
X30323Y35713D01*
X30325Y35712D01*
X30326Y35710D01*
X30327Y35710D01*
X30333Y35703D01*
X30339Y35696D01*
X30344Y35688D01*
X30349Y35681D01*
X30353Y35673D01*
X30355Y35666D01*
X30358Y35658D01*
X30360Y35651D01*
X30362Y35644D01*
X30363Y35638D01*
X30364Y35632D01*
X30364Y35628D01*
X30365Y35624D01*
Y35618D01*
X30364Y35608D01*
X30363Y35598D01*
X30362Y35588D01*
X30359Y35580D01*
X30356Y35571D01*
X30353Y35563D01*
X30349Y35556D01*
X30345Y35550D01*
X30342Y35544D01*
X30338Y35539D01*
X30335Y35535D01*
X30332Y35531D01*
X30329Y35528D01*
X30328Y35526D01*
X30327Y35525D01*
X30326Y35525D01*
X30318Y35518D01*
X30310Y35513D01*
X30302Y35508D01*
X30293Y35503D01*
X30283Y35500D01*
X30274Y35497D01*
X30257Y35493D01*
X30249Y35491D01*
X30241Y35490D01*
X30234Y35490D01*
X30228Y35489D01*
X30223Y35488D01*
X30220D01*
X30217D01*
X30217D01*
X30205Y35489D01*
X30193Y35490D01*
X30182Y35492D01*
X30172Y35494D01*
X30162Y35497D01*
X30153Y35500D01*
X30146Y35503D01*
X30138Y35506D01*
X30132Y35510D01*
X30127Y35513D01*
X30122Y35516D01*
X30118Y35518D01*
X30115Y35521D01*
X30113Y35522D01*
X30112Y35523D01*
X30111Y35524D01*
X30105Y35531D01*
X30099Y35538D01*
X30094Y35546D01*
X30090Y35555D01*
X30086Y35562D01*
X30083Y35571D01*
X30079Y35586D01*
X30077Y35593D01*
X30076Y35600D01*
X30075Y35606D01*
X30075Y35611D01*
X30074Y35615D01*
Y35621D01*
X30075Y35638D01*
X30078Y35654D01*
X30081Y35668D01*
X30084Y35673D01*
X30086Y35679D01*
X30088Y35684D01*
X30090Y35688D01*
X30092Y35692D01*
X30094Y35695D01*
X30095Y35697D01*
X30096Y35699D01*
X30097Y35700D01*
Y35701D01*
X30107Y35712D01*
X30118Y35720D01*
X30129Y35728D01*
X30140Y35734D01*
X30149Y35738D01*
X30153Y35740D01*
X30157Y35742D01*
X30160Y35743D01*
X30162Y35743D01*
X30163Y35744D01*
X30164D01*
X30170Y35695D01*
X30160Y35691D01*
X30151Y35686D01*
X30143Y35681D01*
X30137Y35676D01*
X30132Y35672D01*
X30129Y35669D01*
X30127Y35666D01*
X30126Y35666D01*
X30122Y35658D01*
X30118Y35651D01*
X30116Y35643D01*
X30115Y35637D01*
X30113Y35631D01*
X30113Y35626D01*
Y35621D01*
X30113Y35614D01*
X30114Y35608D01*
X30117Y35597D01*
X30121Y35587D01*
X30125Y35578D01*
X30129Y35572D01*
X30133Y35567D01*
X30136Y35563D01*
X30137Y35563D01*
Y35562D01*
X30147Y35555D01*
X30158Y35548D01*
X30170Y35544D01*
X30181Y35541D01*
X30191Y35539D01*
X30196Y35538D01*
X30200Y35537D01*
X30203D01*
X30205Y35537D01*
X30207D01*
X30207D01*
Y35745D01*
X30213Y35745D01*
X30217D01*
X30219D01*
X30220D01*
X30232Y35745D01*
D02*
G37*
G36*
X30122Y35458D02*
X30121Y35454D01*
X30121Y35449D01*
Y35445D01*
X30120Y35442D01*
Y35437D01*
X30121Y35430D01*
X30122Y35425D01*
X30123Y35422D01*
X30123Y35421D01*
X30126Y35417D01*
X30129Y35415D01*
X30131Y35413D01*
X30132Y35412D01*
X30135Y35412D01*
X30139Y35411D01*
X30148Y35411D01*
X30152Y35410D01*
X30155D01*
X30157D01*
X30158D01*
X30322D01*
Y35458D01*
X30359D01*
Y35410D01*
X30456D01*
X30428Y35363D01*
X30359D01*
Y35328D01*
X30322D01*
Y35363D01*
X30161D01*
X30153D01*
X30147D01*
X30141Y35364D01*
X30135Y35364D01*
X30130D01*
X30125Y35365D01*
X30118Y35366D01*
X30112Y35367D01*
X30108Y35367D01*
X30106Y35369D01*
X30106D01*
X30101Y35371D01*
X30097Y35374D01*
X30093Y35377D01*
X30090Y35380D01*
X30087Y35384D01*
X30086Y35386D01*
X30085Y35387D01*
X30084Y35388D01*
X30081Y35394D01*
X30080Y35400D01*
X30078Y35407D01*
X30077Y35414D01*
X30077Y35419D01*
X30076Y35424D01*
Y35428D01*
X30077Y35440D01*
X30077Y35446D01*
X30079Y35452D01*
X30079Y35457D01*
X30080Y35461D01*
X30080Y35463D01*
Y35464D01*
X30122Y35458D01*
D02*
G37*
G36*
X30354Y35318D02*
X30358Y35309D01*
X30361Y35301D01*
X30363Y35294D01*
X30364Y35288D01*
X30365Y35283D01*
Y35279D01*
X30364Y35273D01*
X30363Y35267D01*
X30362Y35261D01*
X30360Y35257D01*
X30358Y35254D01*
X30357Y35250D01*
X30355Y35249D01*
X30355Y35248D01*
X30350Y35243D01*
X30345Y35238D01*
X30338Y35233D01*
X30332Y35229D01*
X30326Y35224D01*
X30321Y35222D01*
X30317Y35219D01*
X30317Y35219D01*
X30359D01*
Y35176D01*
X30080D01*
Y35223D01*
X30226D01*
X30237Y35224D01*
X30247Y35224D01*
X30256Y35225D01*
X30264Y35227D01*
X30271Y35229D01*
X30276Y35230D01*
X30279Y35230D01*
X30281Y35231D01*
X30287Y35233D01*
X30292Y35236D01*
X30296Y35239D01*
X30300Y35242D01*
X30303Y35244D01*
X30305Y35246D01*
X30306Y35248D01*
X30307Y35248D01*
X30310Y35253D01*
X30312Y35258D01*
X30314Y35263D01*
X30315Y35266D01*
X30316Y35270D01*
X30316Y35273D01*
Y35276D01*
X30316Y35282D01*
X30314Y35288D01*
X30313Y35294D01*
X30311Y35299D01*
X30309Y35304D01*
X30308Y35307D01*
X30307Y35309D01*
X30306Y35310D01*
X30349Y35327D01*
X30354Y35318D01*
D02*
G37*
G36*
X30232Y35118D02*
X30244Y35117D01*
X30255Y35116D01*
X30266Y35113D01*
X30275Y35111D01*
X30284Y35108D01*
X30292Y35104D01*
X30299Y35101D01*
X30306Y35098D01*
X30311Y35094D01*
X30316Y35092D01*
X30319Y35089D01*
X30323Y35087D01*
X30325Y35085D01*
X30326Y35084D01*
X30327Y35083D01*
X30333Y35077D01*
X30339Y35069D01*
X30344Y35062D01*
X30349Y35054D01*
X30353Y35046D01*
X30355Y35039D01*
X30358Y35031D01*
X30360Y35024D01*
X30362Y35017D01*
X30363Y35011D01*
X30364Y35006D01*
X30364Y35001D01*
X30365Y34997D01*
Y34992D01*
X30364Y34981D01*
X30363Y34971D01*
X30362Y34962D01*
X30359Y34953D01*
X30356Y34945D01*
X30353Y34937D01*
X30349Y34930D01*
X30345Y34923D01*
X30342Y34917D01*
X30338Y34912D01*
X30335Y34908D01*
X30332Y34905D01*
X30329Y34902D01*
X30328Y34900D01*
X30327Y34899D01*
X30326Y34898D01*
X30318Y34892D01*
X30310Y34886D01*
X30302Y34881D01*
X30293Y34877D01*
X30283Y34874D01*
X30274Y34871D01*
X30257Y34866D01*
X30249Y34865D01*
X30241Y34864D01*
X30234Y34863D01*
X30228Y34862D01*
X30223Y34862D01*
X30220D01*
X30217D01*
X30217D01*
X30205Y34862D01*
X30193Y34864D01*
X30182Y34865D01*
X30172Y34867D01*
X30162Y34870D01*
X30153Y34873D01*
X30146Y34876D01*
X30138Y34880D01*
X30132Y34883D01*
X30127Y34886D01*
X30122Y34889D01*
X30118Y34892D01*
X30115Y34894D01*
X30113Y34896D01*
X30112Y34897D01*
X30111Y34897D01*
X30105Y34905D01*
X30099Y34912D01*
X30094Y34920D01*
X30090Y34928D01*
X30086Y34936D01*
X30083Y34944D01*
X30079Y34960D01*
X30077Y34967D01*
X30076Y34973D01*
X30075Y34980D01*
X30075Y34985D01*
X30074Y34988D01*
Y34995D01*
X30075Y35012D01*
X30078Y35027D01*
X30081Y35041D01*
X30084Y35047D01*
X30086Y35052D01*
X30088Y35057D01*
X30090Y35062D01*
X30092Y35065D01*
X30094Y35068D01*
X30095Y35071D01*
X30096Y35072D01*
X30097Y35073D01*
Y35074D01*
X30107Y35085D01*
X30118Y35094D01*
X30129Y35102D01*
X30140Y35107D01*
X30149Y35112D01*
X30153Y35113D01*
X30157Y35115D01*
X30160Y35116D01*
X30162Y35117D01*
X30163Y35117D01*
X30164D01*
X30170Y35068D01*
X30160Y35064D01*
X30151Y35059D01*
X30143Y35054D01*
X30137Y35049D01*
X30132Y35046D01*
X30129Y35042D01*
X30127Y35039D01*
X30126Y35039D01*
X30122Y35032D01*
X30118Y35024D01*
X30116Y35017D01*
X30115Y35010D01*
X30113Y35004D01*
X30113Y34999D01*
Y34995D01*
X30113Y34988D01*
X30114Y34982D01*
X30117Y34971D01*
X30121Y34961D01*
X30125Y34952D01*
X30129Y34945D01*
X30133Y34940D01*
X30136Y34937D01*
X30137Y34936D01*
Y34936D01*
X30147Y34928D01*
X30158Y34922D01*
X30170Y34917D01*
X30181Y34914D01*
X30191Y34912D01*
X30196Y34911D01*
X30200Y34911D01*
X30203D01*
X30205Y34910D01*
X30207D01*
X30207D01*
Y35118D01*
X30213Y35119D01*
X30217D01*
X30219D01*
X30220D01*
X30232Y35118D01*
D02*
G37*
G36*
X30359Y34787D02*
X30188Y34725D01*
X30177Y34721D01*
X30167Y34718D01*
X30158Y34715D01*
X30151Y34712D01*
X30144Y34710D01*
X30140Y34709D01*
X30137Y34708D01*
X30136Y34708D01*
X30146Y34704D01*
X30157Y34701D01*
X30166Y34698D01*
X30175Y34695D01*
X30182Y34693D01*
X30187Y34692D01*
X30189Y34691D01*
X30191Y34690D01*
X30191Y34690D01*
X30192D01*
X30359Y34630D01*
Y34580D01*
X30080Y34685D01*
Y34730D01*
X30359Y34836D01*
Y34787D01*
D02*
G37*
G36*
X29887Y34679D02*
X29891Y34670D01*
X29893Y34663D01*
X29896Y34655D01*
X29897Y34649D01*
X29897Y34644D01*
Y34640D01*
X29897Y34634D01*
X29896Y34629D01*
X29894Y34623D01*
X29892Y34619D01*
X29891Y34615D01*
X29889Y34612D01*
X29888Y34610D01*
X29887Y34610D01*
X29883Y34605D01*
X29877Y34600D01*
X29871Y34595D01*
X29865Y34590D01*
X29859Y34586D01*
X29854Y34583D01*
X29850Y34581D01*
X29849Y34581D01*
X29891D01*
Y34538D01*
X29613D01*
Y34585D01*
X29758D01*
X29769Y34585D01*
X29779Y34586D01*
X29789Y34587D01*
X29797Y34589D01*
X29804Y34590D01*
X29809Y34592D01*
X29812Y34592D01*
X29813Y34593D01*
X29819Y34595D01*
X29824Y34598D01*
X29829Y34600D01*
X29832Y34603D01*
X29835Y34606D01*
X29837Y34608D01*
X29839Y34609D01*
X29839Y34610D01*
X29842Y34614D01*
X29845Y34619D01*
X29846Y34624D01*
X29847Y34628D01*
X29848Y34632D01*
X29849Y34635D01*
Y34638D01*
X29848Y34644D01*
X29847Y34650D01*
X29845Y34656D01*
X29844Y34661D01*
X29842Y34665D01*
X29840Y34669D01*
X29839Y34671D01*
X29839Y34672D01*
X29882Y34689D01*
X29887Y34679D01*
D02*
G37*
G36*
X30272Y34536D02*
X30280Y34536D01*
X30287D01*
X30291Y34535D01*
X30294Y34534D01*
X30297Y34534D01*
X30297D01*
X30304Y34532D01*
X30311Y34529D01*
X30317Y34527D01*
X30322Y34525D01*
X30326Y34522D01*
X30329Y34521D01*
X30331Y34519D01*
X30332Y34519D01*
X30337Y34514D01*
X30342Y34509D01*
X30346Y34504D01*
X30349Y34499D01*
X30352Y34494D01*
X30354Y34491D01*
X30355Y34488D01*
X30355Y34487D01*
X30359Y34479D01*
X30361Y34471D01*
X30363Y34463D01*
X30364Y34456D01*
X30364Y34450D01*
X30365Y34446D01*
Y34441D01*
X30364Y34431D01*
X30363Y34421D01*
X30360Y34412D01*
X30358Y34403D01*
X30354Y34395D01*
X30350Y34388D01*
X30346Y34381D01*
X30342Y34376D01*
X30338Y34370D01*
X30333Y34366D01*
X30329Y34362D01*
X30326Y34359D01*
X30323Y34356D01*
X30321Y34355D01*
X30319Y34354D01*
X30319Y34353D01*
X30359D01*
Y34311D01*
X30080D01*
Y34358D01*
X30232D01*
X30241D01*
X30251Y34359D01*
X30258Y34360D01*
X30266Y34361D01*
X30272Y34363D01*
X30278Y34365D01*
X30284Y34367D01*
X30288Y34369D01*
X30292Y34371D01*
X30296Y34373D01*
X30298Y34375D01*
X30301Y34376D01*
X30303Y34378D01*
X30304Y34380D01*
X30311Y34388D01*
X30316Y34397D01*
X30319Y34406D01*
X30322Y34413D01*
X30323Y34421D01*
X30323Y34426D01*
X30324Y34428D01*
Y34431D01*
X30323Y34438D01*
X30323Y34445D01*
X30321Y34450D01*
X30319Y34455D01*
X30318Y34458D01*
X30317Y34462D01*
X30316Y34463D01*
X30315Y34464D01*
X30312Y34469D01*
X30308Y34473D01*
X30304Y34477D01*
X30301Y34479D01*
X30297Y34481D01*
X30294Y34483D01*
X30293Y34484D01*
X30292D01*
X30286Y34486D01*
X30279Y34487D01*
X30272Y34488D01*
X30265Y34489D01*
X30259Y34489D01*
X30254D01*
X30250D01*
X30249D01*
X30249D01*
X30080D01*
Y34537D01*
X30251D01*
X30263D01*
X30272Y34536D01*
D02*
G37*
G36*
X29765Y34480D02*
X29776Y34479D01*
X29787Y34477D01*
X29798Y34475D01*
X29807Y34472D01*
X29816Y34469D01*
X29824Y34466D01*
X29831Y34463D01*
X29838Y34460D01*
X29844Y34456D01*
X29848Y34453D01*
X29852Y34451D01*
X29855Y34448D01*
X29857Y34447D01*
X29859Y34446D01*
X29859Y34445D01*
X29866Y34438D01*
X29872Y34431D01*
X29877Y34423D01*
X29881Y34416D01*
X29885Y34408D01*
X29888Y34401D01*
X29891Y34393D01*
X29892Y34386D01*
X29894Y34379D01*
X29895Y34373D01*
X29896Y34367D01*
X29897Y34363D01*
X29897Y34359D01*
Y34354D01*
X29897Y34343D01*
X29896Y34333D01*
X29894Y34324D01*
X29891Y34315D01*
X29889Y34306D01*
X29885Y34299D01*
X29882Y34291D01*
X29878Y34285D01*
X29875Y34279D01*
X29871Y34274D01*
X29867Y34270D01*
X29865Y34266D01*
X29862Y34264D01*
X29860Y34261D01*
X29859Y34260D01*
X29859Y34260D01*
X29851Y34254D01*
X29842Y34248D01*
X29834Y34243D01*
X29825Y34239D01*
X29816Y34235D01*
X29807Y34233D01*
X29789Y34228D01*
X29781Y34226D01*
X29774Y34225D01*
X29767Y34225D01*
X29761Y34224D01*
X29756Y34224D01*
X29753D01*
X29750D01*
X29749D01*
X29737Y34224D01*
X29725Y34225D01*
X29714Y34227D01*
X29704Y34229D01*
X29695Y34232D01*
X29686Y34235D01*
X29678Y34238D01*
X29671Y34241D01*
X29665Y34245D01*
X29659Y34248D01*
X29655Y34251D01*
X29651Y34254D01*
X29648Y34256D01*
X29645Y34257D01*
X29644Y34259D01*
X29644Y34259D01*
X29637Y34266D01*
X29632Y34274D01*
X29627Y34281D01*
X29622Y34290D01*
X29619Y34297D01*
X29615Y34306D01*
X29611Y34321D01*
X29610Y34329D01*
X29609Y34335D01*
X29608Y34341D01*
X29607Y34346D01*
X29607Y34350D01*
Y34356D01*
X29608Y34373D01*
X29610Y34389D01*
X29614Y34403D01*
X29616Y34408D01*
X29618Y34414D01*
X29620Y34419D01*
X29623Y34423D01*
X29624Y34427D01*
X29626Y34430D01*
X29628Y34432D01*
X29629Y34434D01*
X29630Y34435D01*
Y34436D01*
X29640Y34447D01*
X29650Y34456D01*
X29662Y34463D01*
X29672Y34469D01*
X29681Y34473D01*
X29686Y34475D01*
X29689Y34477D01*
X29693Y34478D01*
X29695Y34478D01*
X29696Y34479D01*
X29696D01*
X29703Y34430D01*
X29692Y34426D01*
X29683Y34421D01*
X29675Y34416D01*
X29669Y34411D01*
X29665Y34407D01*
X29662Y34404D01*
X29659Y34401D01*
X29659Y34401D01*
X29654Y34393D01*
X29651Y34386D01*
X29649Y34378D01*
X29647Y34372D01*
X29646Y34366D01*
X29645Y34361D01*
Y34356D01*
X29646Y34350D01*
X29647Y34344D01*
X29649Y34332D01*
X29653Y34322D01*
X29658Y34314D01*
X29662Y34307D01*
X29665Y34302D01*
X29668Y34299D01*
X29669Y34298D01*
Y34297D01*
X29679Y34290D01*
X29690Y34284D01*
X29703Y34279D01*
X29714Y34276D01*
X29724Y34274D01*
X29728Y34273D01*
X29732Y34272D01*
X29735D01*
X29738Y34272D01*
X29739D01*
X29740D01*
Y34480D01*
X29745Y34481D01*
X29749D01*
X29751D01*
X29752D01*
X29765Y34480D01*
D02*
G37*
G36*
X30236Y34255D02*
X30247Y34254D01*
X30257Y34252D01*
X30267Y34250D01*
X30277Y34247D01*
X30285Y34244D01*
X30293Y34240D01*
X30300Y34237D01*
X30306Y34234D01*
X30312Y34230D01*
X30317Y34227D01*
X30321Y34224D01*
X30323Y34222D01*
X30326Y34220D01*
X30327Y34219D01*
X30327Y34219D01*
X30334Y34211D01*
X30339Y34204D01*
X30345Y34196D01*
X30349Y34189D01*
X30353Y34181D01*
X30355Y34173D01*
X30360Y34158D01*
X30362Y34151D01*
X30363Y34145D01*
X30364Y34139D01*
X30364Y34134D01*
X30365Y34130D01*
Y34125D01*
X30364Y34115D01*
X30364Y34107D01*
X30360Y34089D01*
X30355Y34074D01*
X30352Y34068D01*
X30349Y34062D01*
X30347Y34056D01*
X30344Y34052D01*
X30341Y34047D01*
X30339Y34044D01*
X30337Y34041D01*
X30335Y34039D01*
X30334Y34038D01*
X30334Y34037D01*
X30327Y34029D01*
X30318Y34023D01*
X30309Y34017D01*
X30301Y34013D01*
X30291Y34008D01*
X30281Y34005D01*
X30272Y34002D01*
X30263Y34000D01*
X30254Y33998D01*
X30246Y33997D01*
X30238Y33996D01*
X30232Y33995D01*
X30227D01*
X30223Y33994D01*
X30221D01*
X30220D01*
X30207Y33995D01*
X30195Y33996D01*
X30183Y33998D01*
X30173Y34000D01*
X30163Y34003D01*
X30155Y34006D01*
X30146Y34009D01*
X30139Y34012D01*
X30132Y34016D01*
X30127Y34019D01*
X30122Y34022D01*
X30118Y34024D01*
X30115Y34027D01*
X30113Y34028D01*
X30112Y34029D01*
X30111Y34030D01*
X30105Y34037D01*
X30099Y34044D01*
X30094Y34052D01*
X30090Y34060D01*
X30086Y34068D01*
X30083Y34076D01*
X30079Y34091D01*
X30077Y34098D01*
X30076Y34104D01*
X30075Y34110D01*
X30075Y34115D01*
X30074Y34119D01*
Y34125D01*
X30075Y34138D01*
X30077Y34150D01*
X30080Y34162D01*
X30082Y34171D01*
X30086Y34180D01*
X30087Y34183D01*
X30088Y34186D01*
X30089Y34189D01*
X30090Y34190D01*
X30091Y34191D01*
Y34191D01*
X30098Y34203D01*
X30106Y34212D01*
X30113Y34220D01*
X30121Y34227D01*
X30128Y34232D01*
X30133Y34236D01*
X30136Y34237D01*
X30137Y34238D01*
X30138Y34239D01*
X30138D01*
X30151Y34244D01*
X30165Y34248D01*
X30179Y34251D01*
X30193Y34253D01*
X30199Y34254D01*
X30205D01*
X30210Y34255D01*
X30215Y34255D01*
X30218D01*
X30221D01*
X30223D01*
X30223D01*
X30236Y34255D01*
D02*
G37*
G36*
X29891Y34152D02*
X29729Y34092D01*
X29717Y34088D01*
X29706Y34084D01*
X29695Y34080D01*
X29685Y34078D01*
X29677Y34075D01*
X29674Y34074D01*
X29671Y34074D01*
X29669Y34073D01*
X29667Y34073D01*
X29666Y34072D01*
X29665D01*
X29678Y34069D01*
X29690Y34065D01*
X29701Y34062D01*
X29710Y34059D01*
X29718Y34056D01*
X29721Y34055D01*
X29724Y34054D01*
X29727Y34053D01*
X29729Y34053D01*
X29729Y34052D01*
X29730D01*
X29891Y33994D01*
Y33944D01*
X29613Y34049D01*
X29608Y34047D01*
X29604Y34046D01*
X29602Y34045D01*
X29601D01*
X29592Y34042D01*
X29584Y34038D01*
X29577Y34036D01*
X29573Y34034D01*
X29569Y34033D01*
X29567Y34032D01*
X29566Y34030D01*
X29565D01*
X29559Y34026D01*
X29555Y34021D01*
X29553Y34019D01*
X29552Y34017D01*
X29551Y34016D01*
Y34016D01*
X29549Y34012D01*
X29548Y34008D01*
X29546Y33999D01*
Y33996D01*
X29546Y33993D01*
Y33991D01*
X29546Y33982D01*
X29548Y33973D01*
X29549Y33969D01*
X29549Y33967D01*
X29550Y33964D01*
Y33964D01*
X29506Y33969D01*
X29504Y33975D01*
X29503Y33981D01*
X29502Y33986D01*
X29501Y33990D01*
Y33994D01*
X29500Y33997D01*
Y33999D01*
X29501Y34007D01*
X29502Y34014D01*
X29503Y34021D01*
X29506Y34027D01*
X29508Y34032D01*
X29509Y34035D01*
X29511Y34037D01*
X29511Y34038D01*
X29516Y34044D01*
X29521Y34049D01*
X29527Y34054D01*
X29532Y34058D01*
X29537Y34062D01*
X29541Y34064D01*
X29544Y34066D01*
X29545Y34067D01*
X29549Y34068D01*
X29553Y34070D01*
X29562Y34075D01*
X29573Y34079D01*
X29583Y34083D01*
X29593Y34087D01*
X29597Y34089D01*
X29601Y34090D01*
X29604Y34092D01*
X29606Y34093D01*
X29608Y34093D01*
X29608D01*
X29891Y34199D01*
Y34152D01*
D02*
G37*
G36*
X30215Y33905D02*
X30206Y33902D01*
X30197Y33900D01*
X30190Y33897D01*
X30182Y33894D01*
X30176Y33891D01*
X30170Y33887D01*
X30165Y33883D01*
X30160Y33880D01*
X30155Y33877D01*
X30152Y33874D01*
X30148Y33871D01*
X30146Y33869D01*
X30144Y33867D01*
X30142Y33865D01*
X30142Y33865D01*
X30141Y33864D01*
X30137Y33858D01*
X30133Y33852D01*
X30127Y33840D01*
X30123Y33828D01*
X30120Y33817D01*
X30118Y33807D01*
X30117Y33803D01*
Y33799D01*
X30117Y33796D01*
Y33792D01*
X30117Y33779D01*
X30120Y33767D01*
X30122Y33756D01*
X30126Y33746D01*
X30129Y33738D01*
X30131Y33735D01*
X30132Y33732D01*
X30133Y33730D01*
X30134Y33728D01*
X30135Y33727D01*
Y33726D01*
X30142Y33716D01*
X30151Y33707D01*
X30160Y33699D01*
X30169Y33693D01*
X30177Y33688D01*
X30183Y33685D01*
X30186Y33684D01*
X30188Y33683D01*
X30189Y33682D01*
X30190D01*
X30204Y33678D01*
X30218Y33674D01*
X30233Y33671D01*
X30246Y33670D01*
X30252Y33669D01*
X30258Y33669D01*
X30263D01*
X30267Y33668D01*
X30270D01*
X30273D01*
X30274D01*
X30275D01*
X30289Y33669D01*
X30303Y33670D01*
X30315Y33672D01*
X30326Y33674D01*
X30336Y33676D01*
X30339Y33677D01*
X30343Y33678D01*
X30345Y33679D01*
X30347Y33679D01*
X30348Y33680D01*
X30349D01*
X30362Y33685D01*
X30373Y33691D01*
X30383Y33698D01*
X30391Y33705D01*
X30398Y33711D01*
X30402Y33716D01*
X30405Y33720D01*
X30406Y33721D01*
Y33721D01*
X30413Y33733D01*
X30419Y33746D01*
X30423Y33758D01*
X30425Y33770D01*
X30427Y33780D01*
X30427Y33785D01*
Y33789D01*
X30428Y33791D01*
Y33796D01*
X30427Y33810D01*
X30425Y33822D01*
X30422Y33833D01*
X30418Y33842D01*
X30414Y33850D01*
X30412Y33855D01*
X30409Y33858D01*
X30408Y33860D01*
X30400Y33868D01*
X30390Y33877D01*
X30380Y33883D01*
X30370Y33889D01*
X30362Y33893D01*
X30357Y33895D01*
X30354Y33896D01*
X30351Y33897D01*
X30349Y33898D01*
X30348Y33899D01*
X30347D01*
X30359Y33949D01*
X30369Y33946D01*
X30378Y33942D01*
X30386Y33938D01*
X30394Y33934D01*
X30402Y33929D01*
X30408Y33925D01*
X30415Y33920D01*
X30420Y33916D01*
X30425Y33911D01*
X30429Y33907D01*
X30433Y33903D01*
X30436Y33901D01*
X30439Y33898D01*
X30440Y33896D01*
X30441Y33895D01*
X30442Y33894D01*
X30447Y33886D01*
X30451Y33878D01*
X30455Y33871D01*
X30459Y33862D01*
X30464Y33846D01*
X30467Y33831D01*
X30469Y33823D01*
X30469Y33817D01*
X30470Y33811D01*
X30470Y33806D01*
X30471Y33802D01*
Y33797D01*
X30470Y33779D01*
X30467Y33761D01*
X30464Y33745D01*
X30461Y33738D01*
X30459Y33731D01*
X30457Y33725D01*
X30455Y33720D01*
X30453Y33715D01*
X30451Y33711D01*
X30450Y33708D01*
X30449Y33706D01*
X30448Y33704D01*
X30448Y33704D01*
X30438Y33689D01*
X30427Y33676D01*
X30416Y33665D01*
X30405Y33655D01*
X30395Y33648D01*
X30390Y33645D01*
X30387Y33643D01*
X30384Y33641D01*
X30382Y33640D01*
X30380Y33639D01*
X30379Y33639D01*
X30362Y33631D01*
X30344Y33625D01*
X30327Y33621D01*
X30311Y33619D01*
X30303Y33618D01*
X30296Y33617D01*
X30291Y33616D01*
X30285D01*
X30281Y33616D01*
X30278D01*
X30276D01*
X30275D01*
X30255Y33617D01*
X30236Y33619D01*
X30218Y33622D01*
X30210Y33624D01*
X30203Y33626D01*
X30196Y33628D01*
X30190Y33630D01*
X30185Y33631D01*
X30180Y33633D01*
X30177Y33634D01*
X30174Y33635D01*
X30172Y33636D01*
X30172D01*
X30155Y33644D01*
X30140Y33654D01*
X30127Y33664D01*
X30122Y33669D01*
X30117Y33673D01*
X30113Y33678D01*
X30109Y33682D01*
X30106Y33686D01*
X30104Y33689D01*
X30101Y33691D01*
X30100Y33694D01*
X30099Y33695D01*
X30099Y33695D01*
X30094Y33703D01*
X30090Y33711D01*
X30084Y33727D01*
X30080Y33744D01*
X30077Y33760D01*
X30076Y33768D01*
X30075Y33775D01*
X30074Y33781D01*
Y33786D01*
X30074Y33790D01*
Y33796D01*
X30074Y33807D01*
X30075Y33818D01*
X30076Y33828D01*
X30079Y33837D01*
X30081Y33846D01*
X30084Y33855D01*
X30087Y33862D01*
X30090Y33870D01*
X30093Y33876D01*
X30096Y33882D01*
X30099Y33886D01*
X30101Y33891D01*
X30104Y33893D01*
X30105Y33896D01*
X30106Y33897D01*
X30106Y33898D01*
X30113Y33906D01*
X30120Y33912D01*
X30127Y33918D01*
X30135Y33925D01*
X30151Y33934D01*
X30166Y33942D01*
X30173Y33946D01*
X30180Y33948D01*
X30186Y33951D01*
X30191Y33952D01*
X30196Y33954D01*
X30199Y33955D01*
X30201Y33956D01*
X30202D01*
X30215Y33905D01*
D02*
G37*
G36*
X29825Y33907D02*
X29842Y33905D01*
X29858Y33902D01*
X29865Y33901D01*
X29871Y33900D01*
X29877Y33898D01*
X29882Y33897D01*
X29887Y33896D01*
X29891Y33894D01*
X29894Y33893D01*
X29896Y33892D01*
X29897Y33892D01*
X29898D01*
X29912Y33886D01*
X29925Y33878D01*
X29936Y33871D01*
X29946Y33863D01*
X29953Y33857D01*
X29959Y33851D01*
X29961Y33849D01*
X29962Y33847D01*
X29963Y33847D01*
X29963Y33846D01*
X29971Y33837D01*
X29976Y33828D01*
X29981Y33818D01*
X29985Y33810D01*
X29988Y33802D01*
X29990Y33796D01*
X29991Y33794D01*
Y33792D01*
X29991Y33791D01*
Y33790D01*
X29993Y33781D01*
X29994Y33770D01*
X29996Y33759D01*
X29996Y33747D01*
X29997Y33737D01*
Y33590D01*
X29613D01*
Y33728D01*
X29613Y33741D01*
X29614Y33752D01*
X29615Y33763D01*
X29616Y33772D01*
X29617Y33780D01*
X29618Y33785D01*
X29618Y33787D01*
X29619Y33789D01*
Y33790D01*
X29622Y33800D01*
X29625Y33809D01*
X29628Y33816D01*
X29631Y33823D01*
X29634Y33828D01*
X29636Y33832D01*
X29638Y33835D01*
X29638Y33836D01*
X29643Y33843D01*
X29649Y33849D01*
X29655Y33855D01*
X29660Y33860D01*
X29665Y33865D01*
X29669Y33868D01*
X29672Y33870D01*
X29673Y33871D01*
X29682Y33876D01*
X29691Y33882D01*
X29700Y33886D01*
X29709Y33890D01*
X29717Y33893D01*
X29723Y33895D01*
X29725Y33896D01*
X29727Y33896D01*
X29728Y33897D01*
X29729D01*
X29742Y33900D01*
X29755Y33903D01*
X29768Y33905D01*
X29780Y33906D01*
X29791Y33907D01*
X29795D01*
X29799Y33907D01*
X29802D01*
X29805D01*
X29806D01*
X29806D01*
X29825Y33907D01*
D02*
G37*
G36*
X30255Y33320D02*
X30359Y33427D01*
Y33366D01*
X30245Y33254D01*
X30464D01*
Y33207D01*
X30080D01*
Y33254D01*
X30191D01*
X30222Y33287D01*
X30080Y33379D01*
Y33438D01*
X30255Y33320D01*
D02*
G37*
G36*
X29805Y33361D02*
X29812Y33361D01*
X29819D01*
X29824Y33360D01*
X29827Y33359D01*
X29829Y33359D01*
X29830D01*
X29837Y33357D01*
X29844Y33355D01*
X29849Y33352D01*
X29855Y33350D01*
X29859Y33347D01*
X29861Y33346D01*
X29864Y33345D01*
X29864Y33344D01*
X29870Y33340D01*
X29874Y33335D01*
X29879Y33330D01*
X29882Y33324D01*
X29885Y33320D01*
X29886Y33316D01*
X29887Y33313D01*
X29888Y33312D01*
X29891Y33305D01*
X29893Y33296D01*
X29895Y33288D01*
X29896Y33281D01*
X29897Y33275D01*
X29897Y33271D01*
Y33266D01*
X29897Y33256D01*
X29895Y33246D01*
X29893Y33237D01*
X29890Y33228D01*
X29887Y33220D01*
X29883Y33213D01*
X29879Y33206D01*
X29875Y33201D01*
X29870Y33195D01*
X29866Y33191D01*
X29862Y33187D01*
X29859Y33184D01*
X29856Y33181D01*
X29854Y33180D01*
X29852Y33179D01*
X29851Y33178D01*
X29891D01*
Y33136D01*
X29613D01*
Y33183D01*
X29764D01*
X29774D01*
X29783Y33184D01*
X29791Y33185D01*
X29798Y33186D01*
X29805Y33188D01*
X29811Y33190D01*
X29816Y33192D01*
X29821Y33194D01*
X29825Y33196D01*
X29828Y33198D01*
X29831Y33200D01*
X29833Y33201D01*
X29836Y33204D01*
X29837Y33205D01*
X29844Y33213D01*
X29848Y33222D01*
X29851Y33231D01*
X29854Y33239D01*
X29855Y33246D01*
X29856Y33251D01*
X29856Y33254D01*
Y33256D01*
X29856Y33263D01*
X29855Y33270D01*
X29854Y33275D01*
X29852Y33280D01*
X29850Y33283D01*
X29849Y33287D01*
X29848Y33288D01*
X29847Y33289D01*
X29844Y33294D01*
X29840Y33298D01*
X29836Y33302D01*
X29833Y33305D01*
X29830Y33306D01*
X29827Y33308D01*
X29825Y33309D01*
X29825D01*
X29819Y33311D01*
X29812Y33312D01*
X29805Y33313D01*
X29797Y33314D01*
X29791Y33315D01*
X29786D01*
X29782D01*
X29782D01*
X29781D01*
X29613D01*
Y33362D01*
X29784D01*
X29795D01*
X29805Y33361D01*
D02*
G37*
G36*
X29997Y33017D02*
X29943D01*
Y33064D01*
X29997D01*
Y33017D01*
D02*
G37*
G36*
X29891D02*
X29613D01*
Y33064D01*
X29891D01*
Y33017D01*
D02*
G37*
G36*
X30182Y33120D02*
X30170Y33118D01*
X30159Y33114D01*
X30150Y33110D01*
X30143Y33106D01*
X30137Y33102D01*
X30133Y33099D01*
X30130Y33097D01*
X30130Y33096D01*
X30124Y33089D01*
X30120Y33081D01*
X30117Y33073D01*
X30115Y33066D01*
X30114Y33060D01*
X30113Y33054D01*
X30113Y33051D01*
Y33050D01*
X30113Y33044D01*
X30114Y33038D01*
X30117Y33027D01*
X30121Y33017D01*
X30126Y33009D01*
X30130Y33003D01*
X30134Y32998D01*
X30137Y32995D01*
X30138Y32994D01*
X30143Y32990D01*
X30149Y32987D01*
X30161Y32982D01*
X30175Y32978D01*
X30188Y32975D01*
X30201Y32974D01*
X30206Y32973D01*
X30211D01*
X30214Y32973D01*
X30217D01*
X30219D01*
X30220D01*
X30229D01*
X30239Y32974D01*
X30248Y32975D01*
X30256Y32976D01*
X30263Y32978D01*
X30269Y32980D01*
X30276Y32982D01*
X30281Y32984D01*
X30286Y32986D01*
X30289Y32988D01*
X30293Y32990D01*
X30296Y32992D01*
X30298Y32993D01*
X30299Y32994D01*
X30300Y32995D01*
X30301D01*
X30305Y32999D01*
X30309Y33004D01*
X30316Y33013D01*
X30320Y33023D01*
X30323Y33032D01*
X30325Y33040D01*
X30326Y33046D01*
X30326Y33049D01*
Y33053D01*
X30326Y33061D01*
X30324Y33069D01*
X30322Y33075D01*
X30319Y33081D01*
X30316Y33086D01*
X30314Y33090D01*
X30312Y33092D01*
X30312Y33093D01*
X30306Y33098D01*
X30299Y33103D01*
X30292Y33108D01*
X30286Y33110D01*
X30279Y33113D01*
X30274Y33115D01*
X30271Y33115D01*
X30271Y33116D01*
X30270D01*
X30277Y33162D01*
X30292Y33158D01*
X30305Y33152D01*
X30316Y33146D01*
X30325Y33140D01*
X30332Y33134D01*
X30337Y33129D01*
X30340Y33126D01*
X30342Y33125D01*
Y33125D01*
X30349Y33113D01*
X30355Y33101D01*
X30359Y33089D01*
X30362Y33077D01*
X30364Y33066D01*
X30364Y33062D01*
Y33059D01*
X30365Y33055D01*
Y33051D01*
X30364Y33038D01*
X30362Y33025D01*
X30359Y33014D01*
X30357Y33004D01*
X30353Y32996D01*
X30352Y32993D01*
X30350Y32990D01*
X30349Y32988D01*
X30348Y32986D01*
X30348Y32985D01*
Y32984D01*
X30341Y32974D01*
X30333Y32964D01*
X30324Y32957D01*
X30316Y32950D01*
X30309Y32945D01*
X30303Y32942D01*
X30301Y32940D01*
X30299Y32939D01*
X30298Y32939D01*
X30297D01*
X30284Y32934D01*
X30271Y32930D01*
X30257Y32928D01*
X30245Y32926D01*
X30239Y32926D01*
X30234Y32925D01*
X30230D01*
X30226Y32924D01*
X30223D01*
X30221D01*
X30219D01*
X30218D01*
X30206Y32925D01*
X30194Y32926D01*
X30182Y32928D01*
X30172Y32930D01*
X30162Y32932D01*
X30154Y32935D01*
X30146Y32938D01*
X30138Y32942D01*
X30132Y32945D01*
X30127Y32948D01*
X30122Y32951D01*
X30118Y32953D01*
X30115Y32955D01*
X30113Y32957D01*
X30112Y32958D01*
X30111Y32959D01*
X30105Y32965D01*
X30099Y32973D01*
X30094Y32980D01*
X30090Y32988D01*
X30086Y32995D01*
X30083Y33003D01*
X30079Y33018D01*
X30077Y33024D01*
X30076Y33030D01*
X30075Y33036D01*
X30075Y33041D01*
X30074Y33045D01*
Y33050D01*
X30075Y33059D01*
X30075Y33067D01*
X30079Y33081D01*
X30082Y33095D01*
X30087Y33106D01*
X30090Y33110D01*
X30092Y33115D01*
X30095Y33119D01*
X30097Y33121D01*
X30099Y33124D01*
X30100Y33125D01*
X30100Y33126D01*
X30101Y33127D01*
X30106Y33133D01*
X30112Y33138D01*
X30124Y33146D01*
X30137Y33154D01*
X30148Y33159D01*
X30160Y33162D01*
X30164Y33164D01*
X30168Y33165D01*
X30172Y33165D01*
X30174Y33166D01*
X30176Y33166D01*
X30176D01*
X30182Y33120D01*
D02*
G37*
G36*
X30359Y32817D02*
X30210D01*
X30197Y32817D01*
X30186Y32816D01*
X30176Y32815D01*
X30168Y32813D01*
X30162Y32812D01*
X30158Y32811D01*
X30156Y32810D01*
X30155Y32810D01*
X30148Y32806D01*
X30142Y32802D01*
X30137Y32798D01*
X30133Y32793D01*
X30130Y32790D01*
X30127Y32786D01*
X30126Y32784D01*
X30125Y32783D01*
X30122Y32776D01*
X30119Y32768D01*
X30117Y32762D01*
X30116Y32756D01*
X30115Y32751D01*
X30115Y32747D01*
Y32743D01*
X30115Y32735D01*
X30116Y32728D01*
X30118Y32722D01*
X30120Y32717D01*
X30122Y32713D01*
X30123Y32710D01*
X30125Y32708D01*
X30125Y32707D01*
X30130Y32702D01*
X30134Y32699D01*
X30139Y32695D01*
X30143Y32692D01*
X30148Y32691D01*
X30151Y32690D01*
X30153Y32689D01*
X30154D01*
X30160Y32687D01*
X30167Y32687D01*
X30176Y32686D01*
X30184D01*
X30192Y32686D01*
X30198D01*
X30201D01*
X30202D01*
X30203D01*
X30204D01*
X30359D01*
Y32639D01*
X30186D01*
X30176D01*
X30166Y32639D01*
X30159Y32640D01*
X30152Y32640D01*
X30148D01*
X30145Y32641D01*
X30142Y32641D01*
X30142D01*
X30135Y32643D01*
X30128Y32645D01*
X30122Y32647D01*
X30117Y32650D01*
X30112Y32652D01*
X30110Y32654D01*
X30107Y32655D01*
X30107Y32656D01*
X30102Y32660D01*
X30097Y32665D01*
X30094Y32670D01*
X30090Y32676D01*
X30087Y32680D01*
X30085Y32684D01*
X30084Y32686D01*
X30084Y32687D01*
X30080Y32696D01*
X30078Y32703D01*
X30076Y32711D01*
X30075Y32718D01*
X30075Y32725D01*
X30074Y32730D01*
Y32733D01*
X30075Y32743D01*
X30076Y32753D01*
X30079Y32762D01*
X30081Y32771D01*
X30085Y32779D01*
X30089Y32786D01*
X30093Y32793D01*
X30097Y32799D01*
X30102Y32805D01*
X30106Y32809D01*
X30110Y32813D01*
X30113Y32816D01*
X30116Y32819D01*
X30118Y32821D01*
X30120Y32822D01*
X30121Y32822D01*
X30080D01*
Y32864D01*
X30359D01*
Y32817D01*
D02*
G37*
G36*
X29820Y32945D02*
X29828Y32944D01*
X29835Y32943D01*
X29841Y32942D01*
X29847Y32939D01*
X29852Y32938D01*
X29857Y32935D01*
X29861Y32933D01*
X29865Y32932D01*
X29870Y32928D01*
X29873Y32926D01*
X29874Y32924D01*
X29882Y32915D01*
X29887Y32905D01*
X29892Y32894D01*
X29895Y32884D01*
X29896Y32875D01*
X29897Y32871D01*
Y32867D01*
X29897Y32864D01*
Y32861D01*
X29897Y32851D01*
X29895Y32842D01*
X29893Y32833D01*
X29890Y32824D01*
X29886Y32817D01*
X29882Y32810D01*
X29877Y32803D01*
X29873Y32797D01*
X29868Y32792D01*
X29864Y32787D01*
X29860Y32783D01*
X29856Y32780D01*
X29852Y32777D01*
X29850Y32776D01*
X29849Y32775D01*
X29848Y32774D01*
X29856Y32771D01*
X29864Y32766D01*
X29870Y32761D01*
X29875Y32757D01*
X29879Y32752D01*
X29882Y32749D01*
X29884Y32747D01*
X29884Y32746D01*
X29889Y32738D01*
X29892Y32730D01*
X29894Y32721D01*
X29896Y32713D01*
X29897Y32706D01*
X29897Y32700D01*
Y32695D01*
X29897Y32685D01*
X29895Y32676D01*
X29893Y32667D01*
X29891Y32660D01*
X29889Y32654D01*
X29887Y32650D01*
X29885Y32647D01*
X29885Y32646D01*
X29880Y32638D01*
X29874Y32631D01*
X29869Y32625D01*
X29863Y32620D01*
X29859Y32616D01*
X29855Y32613D01*
X29852Y32611D01*
X29851Y32611D01*
X29891D01*
Y32569D01*
X29613D01*
Y32616D01*
X29757D01*
X29770Y32616D01*
X29782Y32617D01*
X29792Y32618D01*
X29800Y32620D01*
X29806Y32621D01*
X29811Y32622D01*
X29814Y32623D01*
X29815Y32624D01*
X29822Y32627D01*
X29828Y32631D01*
X29834Y32635D01*
X29838Y32639D01*
X29841Y32642D01*
X29844Y32645D01*
X29845Y32647D01*
X29846Y32648D01*
X29849Y32655D01*
X29852Y32661D01*
X29854Y32667D01*
X29855Y32673D01*
X29856Y32677D01*
X29856Y32681D01*
Y32685D01*
X29856Y32694D01*
X29854Y32702D01*
X29851Y32708D01*
X29849Y32713D01*
X29845Y32717D01*
X29843Y32720D01*
X29841Y32722D01*
X29840Y32722D01*
X29834Y32726D01*
X29826Y32729D01*
X29819Y32731D01*
X29811Y32732D01*
X29804Y32733D01*
X29798Y32734D01*
X29796D01*
X29795D01*
X29794D01*
X29793D01*
X29613D01*
Y32781D01*
X29774D01*
X29789Y32782D01*
X29802Y32785D01*
X29812Y32787D01*
X29821Y32791D01*
X29828Y32795D01*
X29832Y32798D01*
X29835Y32800D01*
X29836Y32801D01*
X29843Y32808D01*
X29848Y32817D01*
X29851Y32825D01*
X29854Y32833D01*
X29855Y32839D01*
X29856Y32845D01*
X29856Y32847D01*
Y32850D01*
X29856Y32856D01*
X29855Y32861D01*
X29854Y32866D01*
X29852Y32870D01*
X29851Y32874D01*
X29850Y32876D01*
X29849Y32878D01*
X29849Y32878D01*
X29845Y32883D01*
X29842Y32886D01*
X29839Y32889D01*
X29835Y32891D01*
X29832Y32893D01*
X29830Y32894D01*
X29829Y32895D01*
X29828D01*
X29823Y32897D01*
X29816Y32898D01*
X29810Y32898D01*
X29803Y32899D01*
X29797Y32899D01*
X29792D01*
X29789D01*
X29788D01*
X29787D01*
X29613D01*
Y32947D01*
X29804D01*
X29812D01*
X29820Y32945D01*
D02*
G37*
G36*
X30204Y32575D02*
X30215Y32573D01*
X30224Y32570D01*
X30233Y32566D01*
X30240Y32563D01*
X30245Y32560D01*
X30248Y32558D01*
X30249Y32557D01*
X30258Y32549D01*
X30266Y32541D01*
X30272Y32531D01*
X30277Y32523D01*
X30281Y32515D01*
X30283Y32509D01*
X30284Y32506D01*
X30284Y32505D01*
X30285Y32504D01*
Y32503D01*
X30291Y32513D01*
X30296Y32521D01*
X30302Y32528D01*
X30308Y32533D01*
X30312Y32538D01*
X30317Y32541D01*
X30319Y32543D01*
X30320Y32543D01*
X30328Y32548D01*
X30336Y32551D01*
X30344Y32554D01*
X30351Y32555D01*
X30357Y32556D01*
X30362Y32557D01*
X30365D01*
X30366D01*
X30375Y32556D01*
X30385Y32555D01*
X30393Y32552D01*
X30401Y32549D01*
X30408Y32546D01*
X30412Y32544D01*
X30415Y32542D01*
X30417Y32541D01*
X30425Y32535D01*
X30433Y32529D01*
X30439Y32521D01*
X30444Y32515D01*
X30448Y32509D01*
X30450Y32504D01*
X30452Y32501D01*
X30453Y32500D01*
Y32500D01*
X30456Y32489D01*
X30459Y32478D01*
X30461Y32466D01*
X30463Y32455D01*
X30464Y32445D01*
Y32440D01*
X30464Y32437D01*
Y32286D01*
X30080D01*
Y32432D01*
X30081Y32445D01*
X30081Y32457D01*
X30082Y32468D01*
X30084Y32476D01*
X30085Y32484D01*
X30085Y32489D01*
X30086Y32493D01*
Y32494D01*
X30089Y32503D01*
X30092Y32511D01*
X30095Y32518D01*
X30099Y32524D01*
X30101Y32529D01*
X30103Y32533D01*
X30105Y32535D01*
X30105Y32536D01*
X30110Y32542D01*
X30116Y32548D01*
X30122Y32552D01*
X30128Y32556D01*
X30133Y32560D01*
X30137Y32562D01*
X30140Y32564D01*
X30141Y32564D01*
X30150Y32568D01*
X30159Y32571D01*
X30167Y32573D01*
X30175Y32574D01*
X30182Y32575D01*
X30187Y32576D01*
X30191D01*
X30191D01*
X30192D01*
X30204Y32575D01*
D02*
G37*
G36*
X29619Y32508D02*
X29625Y32505D01*
X29630Y32503D01*
X29635Y32502D01*
X29640Y32500D01*
X29643Y32500D01*
X29645Y32499D01*
X29646D01*
X29650Y32499D01*
X29655Y32498D01*
X29660D01*
X29667Y32498D01*
X29680Y32497D01*
X29694D01*
X29708Y32496D01*
X29714D01*
X29719D01*
X29723D01*
X29726D01*
X29729D01*
X29729D01*
X29792D01*
X29803D01*
X29812Y32496D01*
X29820Y32495D01*
X29826D01*
X29830Y32495D01*
X29834Y32494D01*
X29835Y32494D01*
X29836D01*
X29843Y32492D01*
X29849Y32490D01*
X29854Y32488D01*
X29859Y32485D01*
X29862Y32483D01*
X29865Y32481D01*
X29867Y32480D01*
X29867Y32479D01*
X29872Y32475D01*
X29876Y32470D01*
X29880Y32464D01*
X29883Y32459D01*
X29885Y32454D01*
X29887Y32450D01*
X29888Y32447D01*
X29889Y32446D01*
X29891Y32437D01*
X29893Y32428D01*
X29895Y32418D01*
X29896Y32409D01*
X29897Y32400D01*
X29897Y32394D01*
Y32388D01*
X29897Y32375D01*
X29896Y32363D01*
X29894Y32352D01*
X29892Y32343D01*
X29891Y32336D01*
X29889Y32330D01*
X29889Y32328D01*
X29888Y32326D01*
X29887Y32326D01*
Y32325D01*
X29884Y32316D01*
X29879Y32307D01*
X29874Y32300D01*
X29870Y32294D01*
X29865Y32289D01*
X29862Y32286D01*
X29860Y32284D01*
X29859Y32283D01*
X29852Y32278D01*
X29844Y32274D01*
X29836Y32271D01*
X29829Y32268D01*
X29822Y32266D01*
X29817Y32264D01*
X29815Y32263D01*
X29813D01*
X29812Y32263D01*
X29812D01*
X29806Y32309D01*
X29816Y32312D01*
X29825Y32316D01*
X29832Y32319D01*
X29837Y32323D01*
X29842Y32326D01*
X29845Y32329D01*
X29846Y32331D01*
X29847Y32332D01*
X29851Y32338D01*
X29854Y32346D01*
X29856Y32354D01*
X29857Y32362D01*
X29858Y32370D01*
X29859Y32375D01*
Y32381D01*
X29858Y32394D01*
X29856Y32405D01*
X29854Y32414D01*
X29851Y32422D01*
X29847Y32427D01*
X29845Y32432D01*
X29843Y32434D01*
X29842Y32435D01*
X29837Y32439D01*
X29831Y32443D01*
X29825Y32445D01*
X29818Y32447D01*
X29812Y32448D01*
X29806Y32449D01*
X29803D01*
X29802D01*
X29802D01*
X29801D01*
X29799D01*
X29795D01*
X29791Y32448D01*
X29790D01*
X29790D01*
X29788Y32443D01*
X29786Y32437D01*
X29783Y32424D01*
X29780Y32409D01*
X29778Y32396D01*
X29776Y32389D01*
X29776Y32383D01*
X29775Y32378D01*
X29774Y32373D01*
X29774Y32369D01*
Y32367D01*
X29773Y32364D01*
Y32364D01*
X29772Y32354D01*
X29770Y32346D01*
X29769Y32338D01*
X29768Y32333D01*
X29768Y32328D01*
X29766Y32325D01*
X29766Y32323D01*
Y32322D01*
X29764Y32315D01*
X29761Y32309D01*
X29759Y32303D01*
X29756Y32298D01*
X29754Y32293D01*
X29752Y32291D01*
X29751Y32288D01*
X29750Y32288D01*
X29746Y32282D01*
X29742Y32278D01*
X29738Y32273D01*
X29733Y32270D01*
X29729Y32267D01*
X29726Y32265D01*
X29724Y32264D01*
X29723Y32263D01*
X29717Y32261D01*
X29710Y32258D01*
X29704Y32257D01*
X29698Y32256D01*
X29693Y32255D01*
X29689Y32255D01*
X29687D01*
X29686D01*
X29679Y32255D01*
X29674Y32256D01*
X29662Y32258D01*
X29653Y32262D01*
X29644Y32267D01*
X29638Y32271D01*
X29633Y32275D01*
X29630Y32278D01*
X29629Y32279D01*
X29622Y32289D01*
X29616Y32300D01*
X29612Y32312D01*
X29609Y32323D01*
X29608Y32333D01*
X29607Y32338D01*
Y32342D01*
X29607Y32345D01*
Y32349D01*
X29607Y32359D01*
X29608Y32369D01*
X29609Y32378D01*
X29611Y32386D01*
X29613Y32392D01*
X29614Y32397D01*
X29615Y32400D01*
X29615Y32402D01*
X29619Y32411D01*
X29624Y32420D01*
X29630Y32428D01*
X29635Y32437D01*
X29640Y32443D01*
X29644Y32448D01*
X29647Y32452D01*
X29648Y32452D01*
Y32453D01*
X29640Y32454D01*
X29634Y32455D01*
X29628Y32456D01*
X29623Y32458D01*
X29618Y32459D01*
X29615Y32460D01*
X29613Y32461D01*
X29613Y32462D01*
Y32511D01*
X29619Y32508D01*
D02*
G37*
G36*
X29997Y32151D02*
X29942D01*
Y32198D01*
X29997D01*
Y32151D01*
D02*
G37*
G36*
X29891D02*
X29599D01*
X29593D01*
X29587Y32150D01*
X29580D01*
X29575Y32150D01*
X29572Y32149D01*
X29567Y32148D01*
X29561Y32147D01*
X29557Y32146D01*
X29554Y32145D01*
X29552Y32144D01*
X29552Y32143D01*
X29548Y32141D01*
X29546Y32137D01*
X29544Y32134D01*
X29543Y32130D01*
X29542Y32127D01*
X29542Y32124D01*
Y32119D01*
X29542Y32115D01*
X29544Y32108D01*
X29544Y32105D01*
X29545Y32102D01*
X29546Y32101D01*
Y32100D01*
X29506Y32091D01*
X29502Y32105D01*
X29501Y32111D01*
X29501Y32116D01*
Y32121D01*
X29500Y32125D01*
Y32128D01*
X29501Y32135D01*
X29501Y32142D01*
X29504Y32153D01*
X29508Y32163D01*
X29513Y32171D01*
X29518Y32177D01*
X29523Y32181D01*
X29526Y32184D01*
X29526Y32185D01*
X29527D01*
X29531Y32187D01*
X29536Y32189D01*
X29546Y32192D01*
X29558Y32195D01*
X29570Y32196D01*
X29581Y32197D01*
X29585D01*
X29590Y32198D01*
X29593D01*
X29596D01*
X29598D01*
X29598D01*
X29891D01*
Y32151D01*
D02*
G37*
G36*
X29805Y32078D02*
X29812Y32077D01*
X29819D01*
X29824Y32077D01*
X29827Y32076D01*
X29829Y32076D01*
X29830D01*
X29837Y32074D01*
X29844Y32071D01*
X29849Y32069D01*
X29855Y32067D01*
X29859Y32064D01*
X29861Y32062D01*
X29864Y32061D01*
X29864Y32061D01*
X29870Y32056D01*
X29874Y32051D01*
X29879Y32046D01*
X29882Y32041D01*
X29885Y32036D01*
X29886Y32032D01*
X29887Y32030D01*
X29888Y32029D01*
X29891Y32021D01*
X29893Y32013D01*
X29895Y32005D01*
X29896Y31998D01*
X29897Y31992D01*
X29897Y31988D01*
Y31983D01*
X29897Y31973D01*
X29895Y31963D01*
X29893Y31954D01*
X29890Y31945D01*
X29887Y31937D01*
X29883Y31930D01*
X29879Y31923D01*
X29875Y31918D01*
X29870Y31912D01*
X29866Y31908D01*
X29862Y31904D01*
X29859Y31900D01*
X29856Y31898D01*
X29854Y31897D01*
X29852Y31895D01*
X29851Y31895D01*
X29891D01*
Y31853D01*
X29613D01*
Y31900D01*
X29764D01*
X29774D01*
X29783Y31901D01*
X29791Y31902D01*
X29798Y31903D01*
X29805Y31905D01*
X29811Y31907D01*
X29816Y31909D01*
X29821Y31911D01*
X29825Y31913D01*
X29828Y31915D01*
X29831Y31917D01*
X29833Y31918D01*
X29836Y31920D01*
X29837Y31922D01*
X29844Y31930D01*
X29848Y31939D01*
X29851Y31948D01*
X29854Y31955D01*
X29855Y31963D01*
X29856Y31968D01*
X29856Y31970D01*
Y31973D01*
X29856Y31980D01*
X29855Y31986D01*
X29854Y31992D01*
X29852Y31996D01*
X29850Y32000D01*
X29849Y32004D01*
X29848Y32005D01*
X29847Y32006D01*
X29844Y32011D01*
X29840Y32015D01*
X29836Y32019D01*
X29833Y32021D01*
X29830Y32023D01*
X29827Y32025D01*
X29825Y32026D01*
X29825D01*
X29819Y32028D01*
X29812Y32029D01*
X29805Y32030D01*
X29797Y32031D01*
X29791Y32031D01*
X29786D01*
X29782D01*
X29782D01*
X29781D01*
X29613D01*
Y32079D01*
X29784D01*
X29795D01*
X29805Y32078D01*
D02*
G37*
G36*
X30464Y32041D02*
X30185Y31936D01*
X30173Y31932D01*
X30162Y31928D01*
X30152Y31925D01*
X30142Y31922D01*
X30134Y31919D01*
X30128Y31918D01*
X30126Y31917D01*
X30124Y31917D01*
X30123Y31916D01*
X30122D01*
X30145Y31909D01*
X30155Y31906D01*
X30165Y31903D01*
X30173Y31900D01*
X30176Y31899D01*
X30180Y31898D01*
X30182Y31897D01*
X30183Y31897D01*
X30185Y31896D01*
X30185D01*
X30464Y31796D01*
Y31741D01*
X30080Y31889D01*
Y31943D01*
X30464Y32092D01*
Y32041D01*
D02*
G37*
G36*
X29765Y31794D02*
X29776Y31793D01*
X29787Y31792D01*
X29798Y31789D01*
X29807Y31787D01*
X29816Y31784D01*
X29824Y31781D01*
X29831Y31777D01*
X29838Y31774D01*
X29844Y31771D01*
X29848Y31768D01*
X29852Y31765D01*
X29855Y31763D01*
X29857Y31761D01*
X29859Y31760D01*
X29859Y31759D01*
X29866Y31753D01*
X29872Y31746D01*
X29877Y31738D01*
X29881Y31730D01*
X29885Y31722D01*
X29888Y31715D01*
X29891Y31707D01*
X29892Y31701D01*
X29894Y31693D01*
X29895Y31687D01*
X29896Y31682D01*
X29897Y31677D01*
X29897Y31673D01*
Y31668D01*
X29897Y31657D01*
X29896Y31647D01*
X29894Y31638D01*
X29891Y31629D01*
X29889Y31621D01*
X29885Y31613D01*
X29882Y31606D01*
X29878Y31600D01*
X29875Y31593D01*
X29871Y31588D01*
X29867Y31584D01*
X29865Y31581D01*
X29862Y31578D01*
X29860Y31576D01*
X29859Y31575D01*
X29859Y31574D01*
X29851Y31568D01*
X29842Y31562D01*
X29834Y31557D01*
X29825Y31553D01*
X29816Y31550D01*
X29807Y31547D01*
X29789Y31542D01*
X29781Y31541D01*
X29774Y31540D01*
X29767Y31539D01*
X29761Y31539D01*
X29756Y31538D01*
X29753D01*
X29750D01*
X29749D01*
X29737Y31539D01*
X29725Y31540D01*
X29714Y31541D01*
X29704Y31544D01*
X29695Y31546D01*
X29686Y31549D01*
X29678Y31552D01*
X29671Y31556D01*
X29665Y31559D01*
X29659Y31562D01*
X29655Y31565D01*
X29651Y31568D01*
X29648Y31570D01*
X29645Y31572D01*
X29644Y31573D01*
X29644Y31574D01*
X29637Y31581D01*
X29632Y31588D01*
X29627Y31596D01*
X29622Y31604D01*
X29619Y31612D01*
X29615Y31620D01*
X29611Y31636D01*
X29610Y31643D01*
X29609Y31650D01*
X29608Y31656D01*
X29607Y31661D01*
X29607Y31665D01*
Y31671D01*
X29608Y31688D01*
X29610Y31703D01*
X29614Y31717D01*
X29616Y31723D01*
X29618Y31728D01*
X29620Y31733D01*
X29623Y31738D01*
X29624Y31741D01*
X29626Y31744D01*
X29628Y31747D01*
X29629Y31748D01*
X29630Y31749D01*
Y31750D01*
X29640Y31761D01*
X29650Y31770D01*
X29662Y31778D01*
X29672Y31783D01*
X29681Y31788D01*
X29686Y31789D01*
X29689Y31791D01*
X29693Y31792D01*
X29695Y31793D01*
X29696Y31793D01*
X29696D01*
X29703Y31744D01*
X29692Y31740D01*
X29683Y31735D01*
X29675Y31730D01*
X29669Y31726D01*
X29665Y31722D01*
X29662Y31718D01*
X29659Y31716D01*
X29659Y31715D01*
X29654Y31708D01*
X29651Y31701D01*
X29649Y31693D01*
X29647Y31686D01*
X29646Y31680D01*
X29645Y31675D01*
Y31671D01*
X29646Y31664D01*
X29647Y31658D01*
X29649Y31647D01*
X29653Y31637D01*
X29658Y31628D01*
X29662Y31621D01*
X29665Y31616D01*
X29668Y31613D01*
X29669Y31612D01*
Y31612D01*
X29679Y31604D01*
X29690Y31598D01*
X29703Y31593D01*
X29714Y31590D01*
X29724Y31588D01*
X29728Y31587D01*
X29732Y31587D01*
X29735D01*
X29738Y31586D01*
X29739D01*
X29740D01*
Y31794D01*
X29745Y31795D01*
X29749D01*
X29751D01*
X29752D01*
X29765Y31794D01*
D02*
G37*
G36*
X30126Y31521D02*
X30135Y31528D01*
X30139Y31531D01*
X30143Y31534D01*
X30146Y31537D01*
X30148Y31539D01*
X30150Y31541D01*
X30151Y31541D01*
X30153Y31544D01*
X30156Y31547D01*
X30163Y31555D01*
X30172Y31564D01*
X30180Y31574D01*
X30187Y31582D01*
X30191Y31586D01*
X30194Y31590D01*
X30196Y31592D01*
X30198Y31595D01*
X30199Y31596D01*
X30200Y31596D01*
X30207Y31605D01*
X30215Y31614D01*
X30222Y31622D01*
X30228Y31629D01*
X30234Y31636D01*
X30239Y31641D01*
X30244Y31647D01*
X30249Y31651D01*
X30253Y31656D01*
X30257Y31659D01*
X30259Y31662D01*
X30262Y31665D01*
X30266Y31667D01*
X30267Y31668D01*
X30276Y31676D01*
X30284Y31683D01*
X30293Y31688D01*
X30299Y31693D01*
X30306Y31696D01*
X30310Y31698D01*
X30313Y31700D01*
X30314Y31700D01*
X30322Y31703D01*
X30331Y31706D01*
X30338Y31708D01*
X30345Y31709D01*
X30351Y31709D01*
X30355Y31710D01*
X30358D01*
X30359D01*
X30368Y31709D01*
X30375Y31708D01*
X30383Y31707D01*
X30390Y31705D01*
X30403Y31700D01*
X30414Y31694D01*
X30419Y31691D01*
X30423Y31688D01*
X30427Y31685D01*
X30429Y31682D01*
X30432Y31680D01*
X30434Y31679D01*
X30434Y31678D01*
X30435Y31677D01*
X30440Y31671D01*
X30445Y31665D01*
X30449Y31657D01*
X30453Y31650D01*
X30458Y31636D01*
X30462Y31621D01*
X30463Y31615D01*
X30464Y31609D01*
X30465Y31603D01*
X30465Y31599D01*
X30466Y31595D01*
Y31590D01*
X30465Y31580D01*
X30465Y31570D01*
X30463Y31561D01*
X30461Y31553D01*
X30459Y31545D01*
X30457Y31538D01*
X30454Y31531D01*
X30451Y31525D01*
X30449Y31520D01*
X30446Y31515D01*
X30444Y31511D01*
X30442Y31508D01*
X30440Y31505D01*
X30438Y31504D01*
X30438Y31502D01*
X30437Y31502D01*
X30432Y31496D01*
X30425Y31491D01*
X30419Y31486D01*
X30412Y31482D01*
X30399Y31476D01*
X30385Y31471D01*
X30379Y31470D01*
X30373Y31468D01*
X30368Y31467D01*
X30364Y31466D01*
X30360Y31465D01*
X30357D01*
X30355Y31465D01*
X30355D01*
X30350Y31513D01*
X30363Y31514D01*
X30374Y31516D01*
X30384Y31520D01*
X30392Y31524D01*
X30398Y31527D01*
X30403Y31530D01*
X30405Y31532D01*
X30407Y31534D01*
X30413Y31542D01*
X30418Y31551D01*
X30422Y31560D01*
X30424Y31569D01*
X30426Y31576D01*
X30427Y31583D01*
X30427Y31585D01*
Y31588D01*
X30427Y31600D01*
X30424Y31611D01*
X30421Y31620D01*
X30418Y31627D01*
X30414Y31633D01*
X30411Y31637D01*
X30409Y31640D01*
X30408Y31641D01*
X30400Y31648D01*
X30392Y31653D01*
X30384Y31657D01*
X30377Y31659D01*
X30370Y31661D01*
X30365Y31661D01*
X30362Y31662D01*
X30361D01*
X30360D01*
X30350Y31661D01*
X30340Y31658D01*
X30331Y31655D01*
X30322Y31651D01*
X30314Y31646D01*
X30308Y31642D01*
X30306Y31641D01*
X30304Y31640D01*
X30304Y31639D01*
X30303D01*
X30297Y31635D01*
X30291Y31629D01*
X30284Y31623D01*
X30278Y31616D01*
X30264Y31602D01*
X30251Y31588D01*
X30245Y31581D01*
X30239Y31575D01*
X30234Y31569D01*
X30230Y31564D01*
X30227Y31560D01*
X30224Y31557D01*
X30222Y31555D01*
X30222Y31554D01*
X30210Y31540D01*
X30199Y31527D01*
X30189Y31517D01*
X30181Y31509D01*
X30173Y31501D01*
X30168Y31496D01*
X30165Y31494D01*
X30165Y31492D01*
X30164D01*
X30155Y31485D01*
X30146Y31479D01*
X30137Y31473D01*
X30129Y31469D01*
X30122Y31465D01*
X30117Y31463D01*
X30114Y31462D01*
X30113Y31461D01*
X30113D01*
X30107Y31459D01*
X30101Y31458D01*
X30096Y31457D01*
X30091Y31456D01*
X30086Y31456D01*
X30083D01*
X30081D01*
X30080D01*
Y31711D01*
X30126D01*
Y31521D01*
D02*
G37*
G36*
X30466Y31311D02*
X30456Y31305D01*
X30448Y31299D01*
X30439Y31292D01*
X30431Y31285D01*
X30424Y31279D01*
X30419Y31274D01*
X30417Y31272D01*
X30415Y31270D01*
X30415Y31269D01*
X30414Y31269D01*
X30405Y31257D01*
X30396Y31246D01*
X30388Y31234D01*
X30382Y31223D01*
X30377Y31214D01*
X30374Y31210D01*
X30373Y31207D01*
X30371Y31204D01*
X30370Y31202D01*
X30369Y31201D01*
Y31200D01*
X30324D01*
X30327Y31208D01*
X30331Y31217D01*
X30335Y31225D01*
X30339Y31233D01*
X30342Y31239D01*
X30345Y31245D01*
X30347Y31248D01*
X30348Y31249D01*
Y31249D01*
X30354Y31259D01*
X30360Y31268D01*
X30365Y31276D01*
X30370Y31282D01*
X30374Y31288D01*
X30378Y31291D01*
X30380Y31294D01*
X30380Y31294D01*
X30080D01*
Y31342D01*
X30466D01*
Y31311D01*
D02*
G37*
G36*
X29736Y31490D02*
X29748Y31487D01*
X29757Y31484D01*
X29766Y31481D01*
X29773Y31477D01*
X29778Y31474D01*
X29781Y31472D01*
X29782Y31471D01*
X29791Y31464D01*
X29798Y31455D01*
X29804Y31446D01*
X29809Y31438D01*
X29813Y31430D01*
X29815Y31423D01*
X29816Y31421D01*
X29817Y31419D01*
X29817Y31418D01*
Y31418D01*
X29823Y31427D01*
X29829Y31435D01*
X29835Y31442D01*
X29840Y31448D01*
X29845Y31452D01*
X29849Y31455D01*
X29851Y31457D01*
X29852Y31458D01*
X29861Y31462D01*
X29869Y31465D01*
X29876Y31468D01*
X29884Y31470D01*
X29890Y31471D01*
X29895Y31471D01*
X29897D01*
X29898D01*
X29908Y31471D01*
X29917Y31469D01*
X29926Y31466D01*
X29933Y31464D01*
X29940Y31461D01*
X29945Y31458D01*
X29948Y31456D01*
X29949Y31456D01*
X29957Y31450D01*
X29965Y31443D01*
X29971Y31436D01*
X29976Y31429D01*
X29980Y31424D01*
X29983Y31419D01*
X29985Y31415D01*
X29985Y31415D01*
Y31414D01*
X29989Y31404D01*
X29992Y31392D01*
X29994Y31380D01*
X29995Y31369D01*
X29996Y31359D01*
Y31355D01*
X29997Y31351D01*
Y31200D01*
X29613D01*
Y31347D01*
X29613Y31360D01*
X29614Y31371D01*
X29615Y31382D01*
X29616Y31391D01*
X29617Y31398D01*
X29618Y31404D01*
X29619Y31407D01*
Y31408D01*
X29622Y31418D01*
X29624Y31425D01*
X29628Y31433D01*
X29631Y31439D01*
X29633Y31444D01*
X29635Y31448D01*
X29637Y31450D01*
X29638Y31450D01*
X29643Y31456D01*
X29649Y31462D01*
X29655Y31466D01*
X29660Y31471D01*
X29666Y31474D01*
X29670Y31476D01*
X29673Y31478D01*
X29674Y31479D01*
X29683Y31482D01*
X29691Y31485D01*
X29700Y31487D01*
X29708Y31489D01*
X29714Y31490D01*
X29720Y31490D01*
X29723D01*
X29724D01*
X29724D01*
X29736Y31490D01*
D02*
G37*
%LPC*%
G36*
X30278Y36320D02*
X30273D01*
X30271D01*
X30270D01*
X30269D01*
X30252D01*
X30237Y36319D01*
X30223Y36318D01*
X30210Y36317D01*
X30198Y36315D01*
X30188Y36313D01*
X30179Y36311D01*
X30171Y36309D01*
X30164Y36307D01*
X30158Y36305D01*
X30153Y36303D01*
X30150Y36301D01*
X30147Y36300D01*
X30145Y36299D01*
X30144Y36298D01*
X30143D01*
X30138Y36293D01*
X30133Y36289D01*
X30129Y36284D01*
X30126Y36280D01*
X30120Y36270D01*
X30116Y36262D01*
X30114Y36254D01*
X30113Y36249D01*
X30112Y36247D01*
Y36243D01*
X30113Y36237D01*
X30113Y36232D01*
X30117Y36221D01*
X30122Y36212D01*
X30128Y36203D01*
X30133Y36197D01*
X30138Y36192D01*
X30142Y36189D01*
X30143Y36188D01*
X30143D01*
X30150Y36184D01*
X30158Y36181D01*
X30167Y36178D01*
X30176Y36176D01*
X30186Y36173D01*
X30197Y36172D01*
X30218Y36169D01*
X30228Y36168D01*
X30238Y36167D01*
X30247Y36167D01*
X30254D01*
X30261Y36166D01*
X30266D01*
X30268D01*
X30269D01*
X30287Y36167D01*
X30302Y36167D01*
X30317Y36168D01*
X30330Y36170D01*
X30342Y36172D01*
X30352Y36174D01*
X30362Y36176D01*
X30370Y36178D01*
X30377Y36181D01*
X30383Y36182D01*
X30388Y36184D01*
X30393Y36186D01*
X30395Y36188D01*
X30398Y36189D01*
X30399Y36190D01*
X30399D01*
X30404Y36194D01*
X30409Y36198D01*
X30412Y36202D01*
X30415Y36207D01*
X30420Y36216D01*
X30424Y36224D01*
X30425Y36231D01*
X30427Y36237D01*
X30427Y36239D01*
Y36243D01*
X30427Y36249D01*
X30426Y36255D01*
X30424Y36260D01*
X30422Y36265D01*
X30417Y36275D01*
X30412Y36283D01*
X30405Y36289D01*
X30400Y36294D01*
X30398Y36296D01*
X30397Y36297D01*
X30396Y36298D01*
X30395D01*
X30389Y36302D01*
X30381Y36305D01*
X30372Y36309D01*
X30363Y36311D01*
X30353Y36313D01*
X30342Y36315D01*
X30321Y36318D01*
X30311Y36319D01*
X30301Y36319D01*
X30292Y36320D01*
X30285D01*
X30278Y36320D01*
D02*
G37*
G36*
X30248Y35696D02*
X30247D01*
X30246D01*
Y35540D01*
X30259Y35541D01*
X30271Y35545D01*
X30281Y35548D01*
X30288Y35553D01*
X30295Y35557D01*
X30300Y35561D01*
X30303Y35563D01*
X30304Y35564D01*
X30311Y35573D01*
X30317Y35582D01*
X30321Y35591D01*
X30323Y35600D01*
X30325Y35607D01*
X30326Y35613D01*
X30326Y35616D01*
Y35619D01*
X30326Y35626D01*
X30325Y35632D01*
X30322Y35643D01*
X30317Y35653D01*
X30312Y35662D01*
X30307Y35668D01*
X30303Y35673D01*
X30299Y35676D01*
X30299Y35677D01*
X30298D01*
X30291Y35682D01*
X30283Y35687D01*
X30274Y35689D01*
X30266Y35692D01*
X30258Y35694D01*
X30252Y35695D01*
X30249D01*
X30248Y35696D01*
D02*
G37*
G36*
Y35069D02*
X30247D01*
X30246D01*
Y34913D01*
X30259Y34915D01*
X30271Y34918D01*
X30281Y34922D01*
X30288Y34926D01*
X30295Y34930D01*
X30300Y34934D01*
X30303Y34936D01*
X30304Y34937D01*
X30311Y34946D01*
X30317Y34955D01*
X30321Y34965D01*
X30323Y34973D01*
X30325Y34981D01*
X30326Y34987D01*
X30326Y34989D01*
Y34992D01*
X30326Y34999D01*
X30325Y35005D01*
X30322Y35017D01*
X30317Y35027D01*
X30312Y35035D01*
X30307Y35042D01*
X30303Y35047D01*
X30299Y35049D01*
X30299Y35051D01*
X30298D01*
X30291Y35056D01*
X30283Y35060D01*
X30274Y35063D01*
X30266Y35066D01*
X30258Y35067D01*
X30252Y35068D01*
X30249D01*
X30248Y35069D01*
D02*
G37*
G36*
X29780Y34431D02*
X29779D01*
X29779D01*
Y34275D01*
X29791Y34276D01*
X29803Y34280D01*
X29813Y34284D01*
X29821Y34288D01*
X29827Y34292D01*
X29832Y34296D01*
X29835Y34298D01*
X29836Y34299D01*
X29844Y34308D01*
X29849Y34317D01*
X29853Y34326D01*
X29856Y34335D01*
X29857Y34342D01*
X29858Y34349D01*
X29859Y34351D01*
Y34354D01*
X29858Y34361D01*
X29857Y34367D01*
X29854Y34378D01*
X29850Y34388D01*
X29845Y34397D01*
X29840Y34403D01*
X29835Y34408D01*
X29832Y34411D01*
X29831Y34412D01*
X29831D01*
X29824Y34417D01*
X29815Y34422D01*
X29807Y34425D01*
X29798Y34427D01*
X29791Y34429D01*
X29784Y34430D01*
X29782D01*
X29780Y34431D01*
D02*
G37*
G36*
X30226Y34207D02*
X30223D01*
X30222D01*
X30221D01*
X30211D01*
X30202Y34206D01*
X30193Y34205D01*
X30185Y34203D01*
X30178Y34201D01*
X30171Y34199D01*
X30165Y34198D01*
X30160Y34195D01*
X30155Y34193D01*
X30151Y34191D01*
X30147Y34189D01*
X30145Y34187D01*
X30142Y34185D01*
X30141Y34184D01*
X30140Y34184D01*
X30140Y34183D01*
X30135Y34179D01*
X30131Y34174D01*
X30124Y34164D01*
X30120Y34154D01*
X30116Y34145D01*
X30115Y34137D01*
X30113Y34131D01*
X30113Y34128D01*
Y34125D01*
X30113Y34118D01*
X30114Y34112D01*
X30117Y34100D01*
X30121Y34090D01*
X30126Y34082D01*
X30131Y34075D01*
X30135Y34070D01*
X30138Y34067D01*
X30139Y34067D01*
Y34066D01*
X30145Y34062D01*
X30150Y34058D01*
X30163Y34053D01*
X30176Y34048D01*
X30190Y34045D01*
X30201Y34044D01*
X30206Y34043D01*
X30211D01*
X30215Y34043D01*
X30217D01*
X30219D01*
X30220D01*
X30229Y34043D01*
X30238Y34044D01*
X30247Y34045D01*
X30254Y34047D01*
X30262Y34048D01*
X30268Y34050D01*
X30274Y34052D01*
X30279Y34054D01*
X30284Y34057D01*
X30288Y34059D01*
X30292Y34060D01*
X30294Y34062D01*
X30297Y34064D01*
X30298Y34065D01*
X30299Y34066D01*
X30299D01*
X30304Y34070D01*
X30308Y34075D01*
X30315Y34085D01*
X30319Y34095D01*
X30323Y34104D01*
X30325Y34113D01*
X30326Y34119D01*
X30326Y34122D01*
Y34125D01*
X30326Y34132D01*
X30325Y34138D01*
X30322Y34149D01*
X30318Y34159D01*
X30313Y34167D01*
X30308Y34174D01*
X30304Y34179D01*
X30301Y34182D01*
X30300Y34183D01*
X30299D01*
X30294Y34188D01*
X30288Y34191D01*
X30276Y34197D01*
X30263Y34201D01*
X30251Y34204D01*
X30239Y34206D01*
X30234Y34206D01*
X30229D01*
X30226Y34207D01*
D02*
G37*
G36*
X29813Y33855D02*
X29810D01*
X29808D01*
X29807D01*
X29792Y33855D01*
X29778Y33853D01*
X29765Y33852D01*
X29754Y33850D01*
X29749Y33849D01*
X29745Y33848D01*
X29741Y33847D01*
X29739Y33846D01*
X29736Y33846D01*
X29735Y33845D01*
X29734Y33845D01*
X29733D01*
X29723Y33841D01*
X29713Y33836D01*
X29705Y33831D01*
X29698Y33827D01*
X29692Y33823D01*
X29688Y33820D01*
X29686Y33817D01*
X29685Y33817D01*
X29680Y33811D01*
X29676Y33806D01*
X29673Y33800D01*
X29670Y33795D01*
X29668Y33790D01*
X29666Y33786D01*
X29665Y33783D01*
X29665Y33782D01*
X29663Y33774D01*
X29661Y33764D01*
X29660Y33754D01*
X29659Y33744D01*
X29659Y33736D01*
X29658Y33732D01*
Y33641D01*
X29951D01*
Y33730D01*
X29951Y33737D01*
Y33744D01*
X29950Y33751D01*
X29948Y33762D01*
X29947Y33771D01*
X29946Y33778D01*
X29944Y33783D01*
X29943Y33786D01*
X29943Y33787D01*
X29938Y33797D01*
X29932Y33806D01*
X29925Y33815D01*
X29917Y33822D01*
X29911Y33827D01*
X29905Y33832D01*
X29903Y33833D01*
X29901Y33834D01*
X29900Y33835D01*
X29900D01*
X29893Y33838D01*
X29886Y33842D01*
X29872Y33847D01*
X29856Y33850D01*
X29841Y33853D01*
X29835Y33853D01*
X29828Y33854D01*
X29822Y33855D01*
X29817D01*
X29813Y33855D01*
D02*
G37*
G36*
X30363Y32507D02*
X30361D01*
X30360D01*
X30353Y32506D01*
X30346Y32505D01*
X30340Y32504D01*
X30336Y32502D01*
X30332Y32500D01*
X30329Y32499D01*
X30327Y32498D01*
X30327Y32497D01*
X30322Y32493D01*
X30318Y32488D01*
X30314Y32483D01*
X30312Y32479D01*
X30310Y32474D01*
X30308Y32471D01*
X30308Y32469D01*
X30307Y32468D01*
X30306Y32462D01*
X30305Y32454D01*
X30304Y32446D01*
X30304Y32438D01*
X30303Y32431D01*
Y32337D01*
X30419D01*
Y32428D01*
X30418Y32440D01*
X30417Y32449D01*
X30416Y32458D01*
X30415Y32464D01*
X30414Y32468D01*
X30413Y32470D01*
Y32471D01*
X30411Y32477D01*
X30408Y32483D01*
X30404Y32487D01*
X30401Y32491D01*
X30398Y32494D01*
X30395Y32496D01*
X30394Y32497D01*
X30393Y32498D01*
X30388Y32501D01*
X30382Y32503D01*
X30377Y32505D01*
X30371Y32506D01*
X30367Y32506D01*
X30363Y32507D01*
D02*
G37*
G36*
X30195Y32524D02*
X30193D01*
X30192D01*
X30185Y32523D01*
X30178Y32523D01*
X30173Y32521D01*
X30168Y32520D01*
X30165Y32518D01*
X30161Y32517D01*
X30160Y32516D01*
X30159Y32516D01*
X30154Y32513D01*
X30150Y32510D01*
X30146Y32506D01*
X30143Y32503D01*
X30141Y32500D01*
X30139Y32498D01*
X30138Y32496D01*
X30137Y32496D01*
X30133Y32486D01*
X30130Y32477D01*
X30128Y32473D01*
X30128Y32470D01*
X30127Y32468D01*
Y32467D01*
X30127Y32463D01*
X30126Y32458D01*
X30126Y32446D01*
Y32337D01*
X30258D01*
Y32438D01*
X30257Y32449D01*
X30256Y32459D01*
X30254Y32467D01*
X30253Y32473D01*
X30252Y32478D01*
X30252Y32480D01*
X30251Y32481D01*
X30248Y32488D01*
X30245Y32494D01*
X30241Y32500D01*
X30237Y32504D01*
X30234Y32508D01*
X30231Y32510D01*
X30229Y32511D01*
X30228Y32512D01*
X30222Y32516D01*
X30216Y32519D01*
X30210Y32521D01*
X30205Y32522D01*
X30200Y32523D01*
X30195Y32524D01*
D02*
G37*
G36*
X29753Y32449D02*
X29735Y32448D01*
X29724Y32448D01*
X29714Y32447D01*
X29706Y32446D01*
X29700Y32444D01*
X29695Y32443D01*
X29691Y32442D01*
X29689Y32441D01*
X29688Y32440D01*
X29681Y32436D01*
X29674Y32432D01*
X29669Y32426D01*
X29664Y32421D01*
X29660Y32417D01*
X29658Y32413D01*
X29656Y32410D01*
X29655Y32409D01*
X29652Y32401D01*
X29649Y32393D01*
X29647Y32385D01*
X29645Y32377D01*
X29644Y32371D01*
X29644Y32366D01*
Y32361D01*
X29644Y32351D01*
X29645Y32343D01*
X29648Y32336D01*
X29650Y32329D01*
X29652Y32325D01*
X29654Y32322D01*
X29655Y32319D01*
X29656Y32319D01*
X29661Y32314D01*
X29667Y32311D01*
X29671Y32308D01*
X29676Y32307D01*
X29681Y32306D01*
X29684Y32305D01*
X29687D01*
X29688D01*
X29692Y32306D01*
X29696Y32306D01*
X29700Y32307D01*
X29703Y32308D01*
X29706Y32309D01*
X29708Y32310D01*
X29709Y32311D01*
X29710D01*
X29716Y32317D01*
X29721Y32323D01*
X29723Y32326D01*
X29724Y32328D01*
X29725Y32329D01*
Y32330D01*
X29727Y32336D01*
X29729Y32342D01*
X29730Y32348D01*
X29731Y32355D01*
X29733Y32361D01*
X29734Y32367D01*
X29734Y32370D01*
Y32371D01*
X29736Y32380D01*
X29737Y32389D01*
X29739Y32397D01*
X29740Y32405D01*
X29742Y32412D01*
X29744Y32418D01*
X29745Y32424D01*
X29746Y32429D01*
X29748Y32434D01*
X29749Y32438D01*
X29750Y32441D01*
X29751Y32444D01*
X29751Y32446D01*
X29752Y32448D01*
X29753Y32448D01*
Y32449D01*
D02*
G37*
G36*
X29780Y31745D02*
X29779D01*
X29779D01*
Y31589D01*
X29791Y31591D01*
X29803Y31594D01*
X29813Y31598D01*
X29821Y31602D01*
X29827Y31606D01*
X29832Y31610D01*
X29835Y31612D01*
X29836Y31613D01*
X29844Y31622D01*
X29849Y31631D01*
X29853Y31641D01*
X29856Y31650D01*
X29857Y31657D01*
X29858Y31663D01*
X29859Y31665D01*
Y31668D01*
X29858Y31675D01*
X29857Y31681D01*
X29854Y31693D01*
X29850Y31703D01*
X29845Y31711D01*
X29840Y31718D01*
X29835Y31723D01*
X29832Y31726D01*
X29831Y31727D01*
X29831D01*
X29824Y31732D01*
X29815Y31736D01*
X29807Y31739D01*
X29798Y31742D01*
X29791Y31743D01*
X29784Y31744D01*
X29782D01*
X29780Y31745D01*
D02*
G37*
G36*
X29896Y31421D02*
X29893D01*
X29892D01*
X29885Y31421D01*
X29879Y31420D01*
X29873Y31418D01*
X29869Y31416D01*
X29865Y31415D01*
X29861Y31413D01*
X29860Y31412D01*
X29859Y31411D01*
X29855Y31408D01*
X29850Y31403D01*
X29847Y31398D01*
X29845Y31393D01*
X29842Y31389D01*
X29841Y31385D01*
X29840Y31383D01*
X29840Y31382D01*
X29839Y31376D01*
X29837Y31368D01*
X29837Y31360D01*
X29836Y31353D01*
X29836Y31345D01*
Y31251D01*
X29951D01*
Y31342D01*
X29950Y31354D01*
X29950Y31364D01*
X29948Y31372D01*
X29947Y31378D01*
X29947Y31382D01*
X29946Y31385D01*
Y31385D01*
X29943Y31391D01*
X29940Y31397D01*
X29937Y31401D01*
X29933Y31405D01*
X29931Y31408D01*
X29928Y31410D01*
X29926Y31411D01*
X29926Y31412D01*
X29920Y31415D01*
X29915Y31418D01*
X29909Y31419D01*
X29903Y31420D01*
X29899Y31421D01*
X29896Y31421D01*
D02*
G37*
G36*
X29728Y31438D02*
X29725D01*
X29724D01*
X29718Y31438D01*
X29711Y31437D01*
X29705Y31436D01*
X29701Y31434D01*
X29697Y31433D01*
X29694Y31431D01*
X29692Y31431D01*
X29691Y31430D01*
X29686Y31427D01*
X29682Y31424D01*
X29679Y31420D01*
X29675Y31418D01*
X29673Y31415D01*
X29671Y31413D01*
X29670Y31411D01*
X29670Y31410D01*
X29665Y31401D01*
X29662Y31391D01*
X29661Y31388D01*
X29660Y31384D01*
X29660Y31382D01*
Y31381D01*
X29659Y31377D01*
X29659Y31372D01*
X29658Y31360D01*
Y31251D01*
X29790D01*
Y31352D01*
X29789Y31364D01*
X29788Y31373D01*
X29787Y31381D01*
X29786Y31387D01*
X29785Y31392D01*
X29784Y31394D01*
X29784Y31395D01*
X29781Y31403D01*
X29778Y31409D01*
X29774Y31414D01*
X29770Y31419D01*
X29766Y31422D01*
X29764Y31424D01*
X29761Y31426D01*
X29761Y31426D01*
X29755Y31430D01*
X29749Y31433D01*
X29743Y31435D01*
X29737Y31436D01*
X29732Y31438D01*
X29728Y31438D01*
D02*
G37*
%LPD*%
M02*
