G04*
G04 #@! TF.GenerationSoftware,Altium Limited,Altium Designer,20.0.8 (157)*
G04*
G04 Layer_Color=8421504*
%FSLAX24Y24*%
%MOIN*%
G70*
G01*
G75*
%ADD15R,0.2126X0.1142*%
%ADD16R,0.0591X0.0413*%
%ADD17R,0.0197X0.0335*%
%ADD18R,0.1457X0.1752*%
%ADD19R,0.0350X0.0630*%
%ADD20R,0.0551X0.0472*%
%ADD21R,0.0472X0.0551*%
%ADD22R,0.0720X0.1540*%
%ADD23R,0.0140X0.0580*%
G36*
X39121Y34639D02*
X38693D01*
Y35101D01*
X39121D01*
Y34639D01*
D02*
G37*
G36*
X38614D02*
X38186D01*
Y35101D01*
X38614D01*
Y34639D01*
D02*
G37*
G36*
X38107D02*
X37679D01*
Y35101D01*
X38107D01*
Y34639D01*
D02*
G37*
G36*
X39121Y34099D02*
X38693D01*
Y34561D01*
X39121D01*
Y34099D01*
D02*
G37*
G36*
X38614D02*
X38186D01*
Y34561D01*
X38614D01*
Y34099D01*
D02*
G37*
G36*
X38107D02*
X37679D01*
Y34561D01*
X38107D01*
Y34099D01*
D02*
G37*
D15*
X31900Y35799D02*
D03*
Y31901D02*
D03*
D16*
X35100Y30750D02*
D03*
Y31950D02*
D03*
D17*
X40502Y32450D02*
D03*
X40000Y32450D02*
D03*
X39499Y32451D02*
D03*
X38997Y32450D02*
D03*
X38302Y32450D02*
D03*
X37800Y32450D02*
D03*
X37299Y32451D02*
D03*
X36797Y32450D02*
D03*
D18*
X39746Y31054D02*
D03*
X37546D02*
D03*
D19*
X38900Y29400D02*
D03*
X37700D02*
D03*
X42100Y34200D02*
D03*
X40900D02*
D03*
X37250Y37800D02*
D03*
X38450D02*
D03*
D20*
X36450Y33046D02*
D03*
Y33754D02*
D03*
X36050Y31196D02*
D03*
Y31904D02*
D03*
X35750Y33046D02*
D03*
Y33754D02*
D03*
X40000Y36796D02*
D03*
Y37504D02*
D03*
X39300Y36796D02*
D03*
Y37504D02*
D03*
X36450Y36154D02*
D03*
Y35446D02*
D03*
X35750Y35446D02*
D03*
Y36154D02*
D03*
X35080Y35454D02*
D03*
Y36162D02*
D03*
D21*
X38604Y36800D02*
D03*
X37896D02*
D03*
X36546Y36800D02*
D03*
X37254D02*
D03*
X35046D02*
D03*
X35754D02*
D03*
D22*
X43100Y32865D02*
D03*
Y29435D02*
D03*
D23*
X39552Y33490D02*
D03*
X39296D02*
D03*
X39040D02*
D03*
X38784D02*
D03*
X38528D02*
D03*
X38272D02*
D03*
X38016D02*
D03*
X37760D02*
D03*
X37504D02*
D03*
X37248D02*
D03*
Y35710D02*
D03*
X37504D02*
D03*
X37760D02*
D03*
X38016D02*
D03*
X38272D02*
D03*
X38528D02*
D03*
X38784D02*
D03*
X39040D02*
D03*
X39296D02*
D03*
X39552D02*
D03*
M02*
