M48
;Layer_Color=9474304
;FILE_FORMAT=2:5
INCH,LZ
;TYPE=PLATED
T1F00S00C0.01200
T2F00S00C0.01500
T3F00S00C0.11811
T4F00S00C0.17717
%
T01
X03765Y0342
Y0344
Y0346
X03785
X03805
X03825
X03845
Y0348
Y035
X03865
Y0348
Y0346
X03885
Y0348
Y035
X03905
Y0348
Y0346
Y0344
X03885
X03865
X03845
X03825
X03805
X03785
Y0342
X03805
X03825
X03845
X03865
X03885
X03905
X03825Y0348
X03805
Y035
X03825
X03785
Y0348
X03765
Y035
T02
X04375Y02905
Y02945
Y0298
X0405Y03285
X04
X03925Y0328
X03895Y03295
X03805Y03285
X03845Y03185
X0362Y0323
X03595Y03265
X03575Y03735
X03655Y03725
Y0393
X0388Y0362
X0406957Y0371156
T03
X04565Y0222
X02855
Y04635
X04565
T04
X03145Y0230827
Y0259173
X03715
Y0230827
X04285
Y0259173
Y0427327
Y0455673
X03715
Y0427327
X03145
Y0455673
M30
