G04*
G04 #@! TF.GenerationSoftware,Altium Limited,Altium Designer,20.0.8 (157)*
G04*
G04 Layer_Physical_Order=2*
G04 Layer_Color=16711680*
%FSLAX24Y24*%
%MOIN*%
G70*
G01*
G75*
%ADD12C,0.0100*%
%ADD35C,0.2172*%
%ADD36R,0.2172X0.2172*%
%ADD37C,0.1575*%
%ADD38C,0.0200*%
%ADD39C,0.0120*%
G36*
X46658Y21142D02*
X27492D01*
Y47508D01*
X46658D01*
X46658Y21142D01*
D02*
G37*
%LPC*%
G36*
X45650Y47201D02*
X45484Y47185D01*
X45324Y47137D01*
X45177Y47058D01*
X45048Y46952D01*
X44942Y46823D01*
X44863Y46676D01*
X44815Y46516D01*
X44798Y46350D01*
X44815Y46184D01*
X44863Y46024D01*
X44942Y45877D01*
X45048Y45748D01*
X45177Y45642D01*
X45324Y45563D01*
X45484Y45515D01*
X45650Y45498D01*
X45816Y45515D01*
X45976Y45563D01*
X46123Y45642D01*
X46252Y45748D01*
X46358Y45877D01*
X46437Y46024D01*
X46485Y46184D01*
X46501Y46350D01*
X46485Y46516D01*
X46437Y46676D01*
X46358Y46823D01*
X46252Y46952D01*
X46123Y47058D01*
X45976Y47137D01*
X45816Y47185D01*
X45650Y47201D01*
D02*
G37*
G36*
X28550D02*
X28384Y47185D01*
X28224Y47137D01*
X28077Y47058D01*
X27948Y46952D01*
X27842Y46823D01*
X27763Y46676D01*
X27715Y46516D01*
X27699Y46350D01*
X27715Y46184D01*
X27763Y46024D01*
X27842Y45877D01*
X27948Y45748D01*
X28077Y45642D01*
X28224Y45563D01*
X28384Y45515D01*
X28550Y45498D01*
X28716Y45515D01*
X28876Y45563D01*
X29023Y45642D01*
X29152Y45748D01*
X29258Y45877D01*
X29337Y46024D01*
X29385Y46184D01*
X29402Y46350D01*
X29385Y46516D01*
X29337Y46676D01*
X29258Y46823D01*
X29152Y46952D01*
X29023Y47058D01*
X28876Y47137D01*
X28716Y47185D01*
X28550Y47201D01*
D02*
G37*
G36*
X42850Y46717D02*
X42670Y46703D01*
X42495Y46660D01*
X42328Y46591D01*
X42174Y46497D01*
X42037Y46380D01*
X41920Y46243D01*
X41826Y46089D01*
X41757Y45922D01*
X41715Y45747D01*
X41701Y45567D01*
X41715Y45388D01*
X41757Y45212D01*
X41826Y45046D01*
X41920Y44892D01*
X42037Y44755D01*
X42174Y44637D01*
X42328Y44543D01*
X42495Y44474D01*
X42670Y44432D01*
X42850Y44418D01*
X43030Y44432D01*
X43205Y44474D01*
X43372Y44543D01*
X43526Y44637D01*
X43663Y44755D01*
X43780Y44892D01*
X43874Y45046D01*
X43943Y45212D01*
X43985Y45388D01*
X43999Y45567D01*
X43985Y45747D01*
X43943Y45922D01*
X43874Y46089D01*
X43780Y46243D01*
X43663Y46380D01*
X43526Y46497D01*
X43372Y46591D01*
X43205Y46660D01*
X43030Y46703D01*
X42850Y46717D01*
D02*
G37*
G36*
X37150D02*
X36970Y46703D01*
X36795Y46660D01*
X36628Y46591D01*
X36474Y46497D01*
X36337Y46380D01*
X36220Y46243D01*
X36126Y46089D01*
X36057Y45922D01*
X36015Y45747D01*
X36001Y45567D01*
X36015Y45388D01*
X36057Y45212D01*
X36126Y45046D01*
X36220Y44892D01*
X36337Y44755D01*
X36474Y44637D01*
X36628Y44543D01*
X36795Y44474D01*
X36970Y44432D01*
X37150Y44418D01*
X37330Y44432D01*
X37505Y44474D01*
X37672Y44543D01*
X37826Y44637D01*
X37963Y44755D01*
X38080Y44892D01*
X38174Y45046D01*
X38243Y45212D01*
X38285Y45388D01*
X38299Y45567D01*
X38285Y45747D01*
X38243Y45922D01*
X38174Y46089D01*
X38080Y46243D01*
X37963Y46380D01*
X37826Y46497D01*
X37672Y46591D01*
X37505Y46660D01*
X37330Y46703D01*
X37150Y46717D01*
D02*
G37*
G36*
X31450D02*
X31270Y46703D01*
X31095Y46660D01*
X30928Y46591D01*
X30774Y46497D01*
X30637Y46380D01*
X30520Y46243D01*
X30426Y46089D01*
X30357Y45922D01*
X30315Y45747D01*
X30301Y45567D01*
X30315Y45388D01*
X30357Y45212D01*
X30426Y45046D01*
X30520Y44892D01*
X30637Y44755D01*
X30774Y44637D01*
X30928Y44543D01*
X31095Y44474D01*
X31270Y44432D01*
X31450Y44418D01*
X31630Y44432D01*
X31805Y44474D01*
X31972Y44543D01*
X32126Y44637D01*
X32263Y44755D01*
X32380Y44892D01*
X32474Y45046D01*
X32543Y45212D01*
X32585Y45388D01*
X32599Y45567D01*
X32585Y45747D01*
X32543Y45922D01*
X32474Y46089D01*
X32380Y46243D01*
X32263Y46380D01*
X32126Y46497D01*
X31972Y46591D01*
X31805Y46660D01*
X31630Y46703D01*
X31450Y46717D01*
D02*
G37*
G36*
X36550Y39463D02*
X36488Y39451D01*
X36435Y39415D01*
X36399Y39362D01*
X36387Y39300D01*
X36399Y39238D01*
X36435Y39185D01*
X36438Y39183D01*
Y37367D01*
X36435Y37365D01*
X36399Y37312D01*
X36387Y37250D01*
X36399Y37188D01*
X36435Y37135D01*
X36488Y37099D01*
X36550Y37087D01*
X36612Y37099D01*
X36665Y37135D01*
X36701Y37188D01*
X36713Y37250D01*
X36701Y37312D01*
X36665Y37365D01*
X36662Y37367D01*
Y39183D01*
X36665Y39185D01*
X36701Y39238D01*
X36713Y39300D01*
X36701Y39362D01*
X36665Y39415D01*
X36612Y39451D01*
X36550Y39463D01*
D02*
G37*
G36*
X38050Y33013D02*
X37988Y33001D01*
X37935Y32965D01*
X37899Y32912D01*
X37887Y32850D01*
X37888Y32846D01*
X37554Y32512D01*
X36327D01*
X36284Y32504D01*
X36248Y32479D01*
X36248Y32479D01*
X36226Y32458D01*
X36200Y32463D01*
X36138Y32451D01*
X36085Y32415D01*
X36049Y32362D01*
X36037Y32300D01*
X36049Y32238D01*
X36085Y32185D01*
X36138Y32149D01*
X36200Y32137D01*
X36262Y32149D01*
X36315Y32185D01*
X36351Y32238D01*
X36358Y32272D01*
X36374Y32288D01*
X37600D01*
X37600Y32288D01*
X37643Y32296D01*
X37679Y32321D01*
X38046Y32688D01*
X38050Y32687D01*
X38112Y32699D01*
X38165Y32735D01*
X38201Y32788D01*
X38213Y32850D01*
X38201Y32912D01*
X38165Y32965D01*
X38112Y33001D01*
X38050Y33013D01*
D02*
G37*
G36*
X39250Y32963D02*
X39188Y32951D01*
X39135Y32915D01*
X39099Y32862D01*
X39087Y32800D01*
X39088Y32796D01*
X38390Y32098D01*
X38366Y32062D01*
X38357Y32019D01*
X38357Y32019D01*
Y31980D01*
X38335Y31965D01*
X38299Y31912D01*
X38287Y31850D01*
X38299Y31788D01*
X38335Y31735D01*
X38388Y31699D01*
X38450Y31687D01*
X38512Y31699D01*
X38565Y31735D01*
X38601Y31788D01*
X38613Y31850D01*
X38601Y31912D01*
X38581Y31942D01*
Y31973D01*
X39246Y32638D01*
X39250Y32637D01*
X39312Y32649D01*
X39365Y32685D01*
X39401Y32738D01*
X39413Y32800D01*
X39401Y32862D01*
X39365Y32915D01*
X39312Y32951D01*
X39250Y32963D01*
D02*
G37*
G36*
X42850Y27067D02*
X42670Y27053D01*
X42495Y27010D01*
X42328Y26941D01*
X42174Y26847D01*
X42037Y26730D01*
X41920Y26593D01*
X41826Y26439D01*
X41757Y26272D01*
X41715Y26097D01*
X41701Y25917D01*
X41715Y25738D01*
X41757Y25562D01*
X41826Y25396D01*
X41920Y25242D01*
X42037Y25105D01*
X42174Y24987D01*
X42328Y24893D01*
X42495Y24824D01*
X42670Y24782D01*
X42850Y24768D01*
X43030Y24782D01*
X43205Y24824D01*
X43372Y24893D01*
X43526Y24987D01*
X43663Y25105D01*
X43780Y25242D01*
X43874Y25396D01*
X43943Y25562D01*
X43985Y25738D01*
X43999Y25917D01*
X43985Y26097D01*
X43943Y26272D01*
X43874Y26439D01*
X43780Y26593D01*
X43663Y26730D01*
X43526Y26847D01*
X43372Y26941D01*
X43205Y27010D01*
X43030Y27053D01*
X42850Y27067D01*
D02*
G37*
G36*
X37150D02*
X36970Y27053D01*
X36795Y27010D01*
X36628Y26941D01*
X36474Y26847D01*
X36337Y26730D01*
X36220Y26593D01*
X36126Y26439D01*
X36057Y26272D01*
X36015Y26097D01*
X36001Y25917D01*
X36015Y25738D01*
X36057Y25562D01*
X36126Y25396D01*
X36220Y25242D01*
X36337Y25105D01*
X36474Y24987D01*
X36628Y24893D01*
X36795Y24824D01*
X36970Y24782D01*
X37150Y24768D01*
X37330Y24782D01*
X37505Y24824D01*
X37672Y24893D01*
X37826Y24987D01*
X37963Y25105D01*
X38080Y25242D01*
X38174Y25396D01*
X38243Y25562D01*
X38285Y25738D01*
X38299Y25917D01*
X38285Y26097D01*
X38243Y26272D01*
X38174Y26439D01*
X38080Y26593D01*
X37963Y26730D01*
X37826Y26847D01*
X37672Y26941D01*
X37505Y27010D01*
X37330Y27053D01*
X37150Y27067D01*
D02*
G37*
G36*
X31450D02*
X31270Y27053D01*
X31095Y27010D01*
X30928Y26941D01*
X30774Y26847D01*
X30637Y26730D01*
X30520Y26593D01*
X30426Y26439D01*
X30357Y26272D01*
X30315Y26097D01*
X30301Y25917D01*
X30315Y25738D01*
X30357Y25562D01*
X30426Y25396D01*
X30520Y25242D01*
X30637Y25105D01*
X30774Y24987D01*
X30928Y24893D01*
X31095Y24824D01*
X31270Y24782D01*
X31450Y24768D01*
X31630Y24782D01*
X31805Y24824D01*
X31972Y24893D01*
X32126Y24987D01*
X32263Y25105D01*
X32380Y25242D01*
X32474Y25396D01*
X32543Y25562D01*
X32585Y25738D01*
X32599Y25917D01*
X32585Y26097D01*
X32543Y26272D01*
X32474Y26439D01*
X32380Y26593D01*
X32263Y26730D01*
X32126Y26847D01*
X31972Y26941D01*
X31805Y27010D01*
X31630Y27053D01*
X31450Y27067D01*
D02*
G37*
G36*
X45650Y23052D02*
X45484Y23035D01*
X45324Y22987D01*
X45177Y22908D01*
X45048Y22802D01*
X44942Y22673D01*
X44863Y22526D01*
X44815Y22366D01*
X44798Y22200D01*
X44815Y22034D01*
X44863Y21874D01*
X44942Y21727D01*
X45048Y21598D01*
X45177Y21492D01*
X45324Y21413D01*
X45484Y21365D01*
X45650Y21349D01*
X45816Y21365D01*
X45976Y21413D01*
X46123Y21492D01*
X46252Y21598D01*
X46358Y21727D01*
X46437Y21874D01*
X46485Y22034D01*
X46501Y22200D01*
X46485Y22366D01*
X46437Y22526D01*
X46358Y22673D01*
X46252Y22802D01*
X46123Y22908D01*
X45976Y22987D01*
X45816Y23035D01*
X45650Y23052D01*
D02*
G37*
G36*
X28550D02*
X28384Y23035D01*
X28224Y22987D01*
X28077Y22908D01*
X27948Y22802D01*
X27842Y22673D01*
X27763Y22526D01*
X27715Y22366D01*
X27699Y22200D01*
X27715Y22034D01*
X27763Y21874D01*
X27842Y21727D01*
X27948Y21598D01*
X28077Y21492D01*
X28224Y21413D01*
X28384Y21365D01*
X28550Y21349D01*
X28716Y21365D01*
X28876Y21413D01*
X29023Y21492D01*
X29152Y21598D01*
X29258Y21727D01*
X29337Y21874D01*
X29385Y22034D01*
X29402Y22200D01*
X29385Y22366D01*
X29337Y22526D01*
X29258Y22673D01*
X29152Y22802D01*
X29023Y22908D01*
X28876Y22987D01*
X28716Y23035D01*
X28550Y23052D01*
D02*
G37*
%LPD*%
D12*
X36550Y37250D02*
Y39300D01*
X38469Y32019D02*
X39250Y32800D01*
X38469Y31869D02*
Y32019D01*
X38450Y31850D02*
X38469Y31869D01*
X37600Y32400D02*
X38050Y32850D01*
X36327Y32400D02*
X37600D01*
X36200Y32300D02*
X36227D01*
X36327Y32400D01*
D35*
X42850Y45567D02*
D03*
X37150D02*
D03*
X31450D02*
D03*
X42850Y25917D02*
D03*
X37150D02*
D03*
X31450D02*
D03*
D36*
X42850Y42733D02*
D03*
X37150D02*
D03*
X31450D02*
D03*
X42850Y23083D02*
D03*
X37150D02*
D03*
X31450D02*
D03*
D37*
X28550Y46350D02*
D03*
Y22200D02*
D03*
X45650D02*
D03*
Y46350D02*
D03*
D38*
X35950Y32650D02*
D03*
X36550Y39300D02*
D03*
Y37250D02*
D03*
X38950Y32950D02*
D03*
X40000Y32850D02*
D03*
X40500D02*
D03*
X43750Y29800D02*
D03*
Y29050D02*
D03*
Y29450D02*
D03*
X40696Y37116D02*
D03*
X38450Y31850D02*
D03*
X39250Y32800D02*
D03*
X38050Y32850D02*
D03*
X36200Y32300D02*
D03*
X38800Y36200D02*
D03*
X35750Y37350D02*
D03*
D39*
X38450Y34800D02*
D03*
Y35000D02*
D03*
X38650Y34800D02*
D03*
X38850Y35000D02*
D03*
Y34600D02*
D03*
X38650D02*
D03*
X38450D02*
D03*
X38250D02*
D03*
X38050D02*
D03*
Y34800D02*
D03*
X38250D02*
D03*
X38850D02*
D03*
X38650Y35000D02*
D03*
X38250D02*
D03*
X38050D02*
D03*
X37850D02*
D03*
Y34800D02*
D03*
Y34600D02*
D03*
X37650Y35000D02*
D03*
Y34800D02*
D03*
Y34600D02*
D03*
Y34200D02*
D03*
Y34400D02*
D03*
X37850D02*
D03*
Y34200D02*
D03*
X38050Y34400D02*
D03*
X38250D02*
D03*
X38450D02*
D03*
X38650D02*
D03*
X38850D02*
D03*
X39050Y35000D02*
D03*
Y34800D02*
D03*
Y34600D02*
D03*
Y34400D02*
D03*
Y34200D02*
D03*
X38850D02*
D03*
X38650D02*
D03*
X38450D02*
D03*
X38250D02*
D03*
X38050D02*
D03*
M02*
