G04*
G04 #@! TF.GenerationSoftware,Altium Limited,Altium Designer,20.0.8 (157)*
G04*
G04 Layer_Color=65535*
%FSLAX24Y24*%
%MOIN*%
G70*
G01*
G75*
%ADD10C,0.0118*%
%ADD11C,0.0050*%
%ADD12C,0.0100*%
%ADD13C,0.0079*%
%ADD14C,0.0060*%
G36*
X39627Y33100D02*
Y33000D01*
X39477D01*
Y33100D01*
X39627D01*
D02*
G37*
G36*
X37323Y36100D02*
Y36200D01*
X37173D01*
Y36100D01*
X37323D01*
D02*
G37*
G36*
X39817Y35929D02*
Y35929D01*
X39817Y35928D01*
X39816Y35927D01*
X39816Y35926D01*
X39815Y35924D01*
X39814Y35922D01*
X39813Y35918D01*
X39811Y35913D01*
X39808Y35908D01*
X39806Y35903D01*
X39804Y35899D01*
X39805D01*
X39805D01*
X39807Y35899D01*
X39808D01*
X39810Y35900D01*
X39812Y35900D01*
X39817Y35900D01*
X39823Y35901D01*
X39828Y35901D01*
X39833Y35901D01*
X39835D01*
X39837D01*
Y35883D01*
X39837D01*
X39836D01*
X39836D01*
X39835D01*
X39832Y35883D01*
X39828Y35883D01*
X39823Y35884D01*
X39818Y35884D01*
X39811Y35885D01*
X39804Y35886D01*
Y35885D01*
X39805Y35885D01*
X39805Y35884D01*
X39805Y35883D01*
X39807Y35880D01*
X39808Y35877D01*
X39810Y35872D01*
X39813Y35867D01*
X39815Y35861D01*
X39817Y35855D01*
X39799Y35849D01*
Y35849D01*
X39798Y35850D01*
X39798Y35851D01*
X39798Y35852D01*
X39797Y35853D01*
X39797Y35855D01*
X39795Y35859D01*
X39794Y35864D01*
X39793Y35870D01*
X39792Y35875D01*
X39791Y35882D01*
X39791Y35881D01*
X39790Y35880D01*
X39788Y35878D01*
X39785Y35876D01*
X39782Y35872D01*
X39778Y35869D01*
X39772Y35864D01*
X39766Y35859D01*
X39756Y35875D01*
X39756Y35875D01*
X39758Y35876D01*
X39760Y35878D01*
X39763Y35880D01*
X39767Y35882D01*
X39772Y35885D01*
X39777Y35889D01*
X39783Y35893D01*
X39783D01*
X39782Y35893D01*
X39782Y35893D01*
X39780Y35894D01*
X39777Y35896D01*
X39773Y35898D01*
X39769Y35901D01*
X39764Y35904D01*
X39759Y35907D01*
X39756Y35910D01*
X39766Y35925D01*
X39767Y35924D01*
X39767Y35924D01*
X39768Y35923D01*
X39769Y35922D01*
X39773Y35920D01*
X39777Y35916D01*
X39781Y35913D01*
X39785Y35909D01*
X39788Y35906D01*
X39790Y35905D01*
X39791Y35903D01*
Y35903D01*
X39791Y35904D01*
Y35905D01*
X39792Y35906D01*
X39792Y35908D01*
X39792Y35909D01*
X39793Y35913D01*
X39794Y35918D01*
X39795Y35924D01*
X39799Y35935D01*
X39817Y35929D01*
D02*
G37*
G36*
X36865Y34536D02*
Y34536D01*
Y34535D01*
Y34534D01*
Y34532D01*
X36864Y34529D01*
Y34526D01*
X36864Y34523D01*
X36864Y34520D01*
X36863Y34512D01*
X36862Y34504D01*
X36860Y34497D01*
X36859Y34493D01*
X36858Y34490D01*
Y34490D01*
X36858Y34489D01*
X36857Y34488D01*
X36857Y34487D01*
X36855Y34484D01*
X36852Y34480D01*
X36849Y34476D01*
X36845Y34471D01*
X36840Y34467D01*
X36834Y34463D01*
X36834D01*
X36833Y34462D01*
X36833Y34462D01*
X36831Y34461D01*
X36830Y34460D01*
X36827Y34459D01*
X36825Y34458D01*
X36822Y34457D01*
X36819Y34456D01*
X36816Y34455D01*
X36812Y34455D01*
X36808Y34454D01*
X36804Y34453D01*
X36800Y34453D01*
X36790Y34452D01*
X36787D01*
X36785Y34452D01*
X36783D01*
X36780Y34453D01*
X36777Y34453D01*
X36774Y34453D01*
X36767Y34454D01*
X36760Y34456D01*
X36753Y34458D01*
X36746Y34461D01*
X36745D01*
X36745Y34462D01*
X36744Y34462D01*
X36743Y34463D01*
X36740Y34465D01*
X36736Y34468D01*
X36732Y34472D01*
X36728Y34476D01*
X36724Y34482D01*
X36721Y34488D01*
Y34488D01*
X36721Y34489D01*
X36721Y34490D01*
X36720Y34491D01*
X36720Y34493D01*
X36719Y34495D01*
X36718Y34498D01*
X36718Y34501D01*
X36717Y34504D01*
X36716Y34508D01*
X36716Y34512D01*
X36715Y34516D01*
X36715Y34520D01*
X36714Y34525D01*
X36714Y34531D01*
Y34536D01*
Y34647D01*
X36739D01*
Y34536D01*
Y34536D01*
Y34535D01*
Y34534D01*
Y34532D01*
X36740Y34530D01*
Y34528D01*
X36740Y34522D01*
X36741Y34516D01*
X36741Y34510D01*
X36743Y34504D01*
X36743Y34502D01*
X36744Y34499D01*
X36744Y34499D01*
X36745Y34498D01*
X36746Y34496D01*
X36748Y34493D01*
X36750Y34490D01*
X36753Y34487D01*
X36756Y34484D01*
X36760Y34481D01*
X36760Y34481D01*
X36762Y34480D01*
X36764Y34479D01*
X36767Y34478D01*
X36771Y34477D01*
X36776Y34476D01*
X36782Y34475D01*
X36787Y34475D01*
X36790D01*
X36792Y34475D01*
X36794D01*
X36797Y34476D01*
X36803Y34477D01*
X36810Y34478D01*
X36816Y34480D01*
X36822Y34483D01*
X36825Y34485D01*
X36827Y34488D01*
X36828Y34488D01*
X36828Y34488D01*
X36828Y34489D01*
X36829Y34490D01*
X36830Y34492D01*
X36831Y34493D01*
X36832Y34496D01*
X36833Y34498D01*
X36834Y34501D01*
X36835Y34505D01*
X36836Y34509D01*
X36837Y34514D01*
X36838Y34519D01*
X36839Y34524D01*
X36839Y34530D01*
Y34536D01*
Y34647D01*
X36865D01*
Y34536D01*
D02*
G37*
G36*
X36986Y34455D02*
X36962D01*
Y34605D01*
X36962Y34605D01*
X36961Y34604D01*
X36959Y34602D01*
X36956Y34600D01*
X36953Y34598D01*
X36949Y34595D01*
X36945Y34592D01*
X36940Y34589D01*
X36940D01*
X36939Y34589D01*
X36938Y34588D01*
X36935Y34586D01*
X36932Y34584D01*
X36928Y34583D01*
X36924Y34581D01*
X36920Y34579D01*
X36915Y34577D01*
Y34600D01*
X36916D01*
X36916Y34600D01*
X36917Y34601D01*
X36919Y34601D01*
X36920Y34602D01*
X36922Y34603D01*
X36927Y34606D01*
X36933Y34609D01*
X36938Y34613D01*
X36944Y34617D01*
X36950Y34622D01*
X36950Y34622D01*
X36950Y34623D01*
X36951Y34624D01*
X36952Y34624D01*
X36955Y34627D01*
X36958Y34630D01*
X36961Y34634D01*
X36965Y34639D01*
X36968Y34643D01*
X36971Y34648D01*
X36986D01*
Y34455D01*
D02*
G37*
G36*
X37705Y38695D02*
X37707D01*
X37712Y38694D01*
X37718Y38693D01*
X37724Y38692D01*
X37731Y38690D01*
X37737Y38688D01*
X37737D01*
X37738Y38688D01*
X37739Y38687D01*
X37740Y38687D01*
X37743Y38685D01*
X37746Y38683D01*
X37750Y38680D01*
X37755Y38676D01*
X37758Y38672D01*
X37762Y38668D01*
Y38667D01*
X37762Y38667D01*
X37763Y38666D01*
X37763Y38665D01*
X37765Y38663D01*
X37766Y38659D01*
X37768Y38655D01*
X37770Y38649D01*
X37771Y38644D01*
X37772Y38638D01*
X37747Y38636D01*
Y38636D01*
Y38637D01*
X37747Y38637D01*
X37747Y38639D01*
X37746Y38642D01*
X37745Y38646D01*
X37743Y38650D01*
X37741Y38655D01*
X37738Y38659D01*
X37734Y38663D01*
X37733Y38663D01*
X37732Y38664D01*
X37729Y38666D01*
X37725Y38668D01*
X37721Y38669D01*
X37715Y38671D01*
X37708Y38672D01*
X37701Y38672D01*
X37697D01*
X37695Y38672D01*
X37693Y38672D01*
X37688Y38671D01*
X37682Y38670D01*
X37677Y38669D01*
X37671Y38666D01*
X37669Y38665D01*
X37667Y38664D01*
X37666Y38663D01*
X37665Y38662D01*
X37664Y38660D01*
X37662Y38658D01*
X37660Y38655D01*
X37658Y38652D01*
X37657Y38648D01*
X37657Y38643D01*
Y38643D01*
Y38642D01*
X37657Y38640D01*
X37658Y38638D01*
X37658Y38635D01*
X37660Y38632D01*
X37661Y38629D01*
X37664Y38627D01*
X37664Y38626D01*
X37666Y38625D01*
X37667Y38625D01*
X37668Y38624D01*
X37669Y38623D01*
X37671Y38622D01*
X37674Y38621D01*
X37677Y38620D01*
X37680Y38619D01*
X37683Y38618D01*
X37687Y38617D01*
X37692Y38615D01*
X37697Y38614D01*
X37702Y38613D01*
X37702D01*
X37704Y38612D01*
X37705Y38612D01*
X37707Y38612D01*
X37710Y38611D01*
X37713Y38610D01*
X37716Y38609D01*
X37719Y38609D01*
X37726Y38607D01*
X37733Y38605D01*
X37737Y38604D01*
X37740Y38602D01*
X37742Y38602D01*
X37745Y38601D01*
X37745D01*
X37745Y38600D01*
X37746Y38600D01*
X37747Y38599D01*
X37750Y38598D01*
X37754Y38595D01*
X37758Y38592D01*
X37762Y38589D01*
X37766Y38585D01*
X37769Y38581D01*
X37770Y38580D01*
X37771Y38579D01*
X37772Y38576D01*
X37774Y38573D01*
X37775Y38569D01*
X37776Y38565D01*
X37777Y38559D01*
X37778Y38554D01*
Y38553D01*
Y38553D01*
Y38552D01*
Y38551D01*
X37777Y38548D01*
X37776Y38544D01*
X37775Y38540D01*
X37774Y38535D01*
X37772Y38530D01*
X37769Y38525D01*
Y38525D01*
X37768Y38524D01*
X37767Y38523D01*
X37765Y38520D01*
X37762Y38517D01*
X37759Y38514D01*
X37754Y38511D01*
X37749Y38507D01*
X37743Y38504D01*
X37743D01*
X37743Y38504D01*
X37742Y38504D01*
X37741Y38503D01*
X37739Y38502D01*
X37737Y38502D01*
X37733Y38501D01*
X37727Y38499D01*
X37721Y38498D01*
X37714Y38497D01*
X37707Y38497D01*
X37702D01*
X37700Y38497D01*
X37697D01*
X37695Y38497D01*
X37691Y38498D01*
X37684Y38499D01*
X37677Y38500D01*
X37670Y38502D01*
X37663Y38504D01*
X37663D01*
X37662Y38504D01*
X37661Y38505D01*
X37660Y38506D01*
X37657Y38507D01*
X37653Y38510D01*
X37649Y38513D01*
X37644Y38517D01*
X37640Y38522D01*
X37635Y38527D01*
Y38527D01*
X37635Y38528D01*
X37635Y38529D01*
X37634Y38530D01*
X37633Y38531D01*
X37632Y38533D01*
X37630Y38537D01*
X37628Y38542D01*
X37627Y38548D01*
X37626Y38555D01*
X37625Y38561D01*
X37649Y38564D01*
Y38563D01*
Y38563D01*
X37649Y38562D01*
Y38561D01*
X37650Y38559D01*
X37651Y38555D01*
X37652Y38552D01*
X37653Y38547D01*
X37655Y38543D01*
X37657Y38540D01*
X37657Y38540D01*
X37658Y38538D01*
X37659Y38537D01*
X37661Y38535D01*
X37664Y38532D01*
X37667Y38530D01*
X37671Y38527D01*
X37676Y38525D01*
X37676D01*
X37676Y38525D01*
X37677Y38524D01*
X37678Y38524D01*
X37681Y38523D01*
X37684Y38522D01*
X37689Y38521D01*
X37694Y38520D01*
X37699Y38520D01*
X37705Y38519D01*
X37708D01*
X37711Y38520D01*
X37714Y38520D01*
X37718Y38521D01*
X37722Y38521D01*
X37727Y38522D01*
X37731Y38524D01*
X37732Y38524D01*
X37733Y38524D01*
X37735Y38525D01*
X37737Y38527D01*
X37740Y38529D01*
X37743Y38530D01*
X37745Y38533D01*
X37748Y38535D01*
X37748Y38536D01*
X37748Y38537D01*
X37749Y38538D01*
X37750Y38540D01*
X37751Y38543D01*
X37752Y38545D01*
X37753Y38548D01*
X37753Y38552D01*
Y38552D01*
Y38553D01*
X37753Y38555D01*
X37753Y38557D01*
X37752Y38560D01*
X37751Y38562D01*
X37750Y38565D01*
X37748Y38568D01*
X37747Y38568D01*
X37746Y38569D01*
X37745Y38570D01*
X37743Y38571D01*
X37741Y38573D01*
X37738Y38575D01*
X37735Y38577D01*
X37730Y38579D01*
X37730Y38579D01*
X37729Y38579D01*
X37727Y38580D01*
X37725Y38580D01*
X37723Y38581D01*
X37721Y38582D01*
X37719Y38582D01*
X37716Y38583D01*
X37713Y38584D01*
X37709Y38585D01*
X37705Y38586D01*
X37701Y38587D01*
X37696Y38588D01*
X37696D01*
X37695Y38588D01*
X37694Y38589D01*
X37692Y38589D01*
X37690Y38590D01*
X37687Y38590D01*
X37682Y38592D01*
X37676Y38594D01*
X37669Y38596D01*
X37664Y38598D01*
X37661Y38599D01*
X37659Y38600D01*
X37659D01*
X37659Y38600D01*
X37657Y38601D01*
X37655Y38603D01*
X37652Y38605D01*
X37648Y38607D01*
X37645Y38611D01*
X37642Y38614D01*
X37639Y38618D01*
X37639Y38619D01*
X37638Y38620D01*
X37637Y38622D01*
X37636Y38625D01*
X37635Y38629D01*
X37633Y38633D01*
X37633Y38637D01*
X37632Y38642D01*
Y38642D01*
Y38642D01*
Y38643D01*
Y38644D01*
X37633Y38647D01*
X37633Y38651D01*
X37634Y38655D01*
X37636Y38660D01*
X37638Y38664D01*
X37640Y38669D01*
Y38669D01*
X37641Y38670D01*
X37642Y38671D01*
X37644Y38673D01*
X37646Y38676D01*
X37650Y38679D01*
X37654Y38683D01*
X37659Y38686D01*
X37664Y38688D01*
X37665D01*
X37665Y38689D01*
X37666Y38689D01*
X37667Y38689D01*
X37669Y38690D01*
X37671Y38691D01*
X37675Y38692D01*
X37680Y38693D01*
X37686Y38694D01*
X37692Y38695D01*
X37700Y38695D01*
X37703D01*
X37705Y38695D01*
D02*
G37*
G36*
X37155D02*
X37156D01*
X37162Y38694D01*
X37168Y38693D01*
X37174Y38692D01*
X37180Y38690D01*
X37186Y38688D01*
X37187D01*
X37187Y38688D01*
X37188Y38687D01*
X37189Y38687D01*
X37192Y38685D01*
X37196Y38683D01*
X37200Y38680D01*
X37204Y38676D01*
X37208Y38672D01*
X37211Y38668D01*
Y38667D01*
X37212Y38667D01*
X37212Y38666D01*
X37213Y38665D01*
X37214Y38663D01*
X37216Y38659D01*
X37218Y38655D01*
X37219Y38649D01*
X37220Y38644D01*
X37221Y38638D01*
X37197Y38636D01*
Y38636D01*
Y38637D01*
X37196Y38637D01*
X37196Y38639D01*
X37195Y38642D01*
X37194Y38646D01*
X37192Y38650D01*
X37190Y38655D01*
X37187Y38659D01*
X37183Y38663D01*
X37183Y38663D01*
X37181Y38664D01*
X37178Y38666D01*
X37175Y38668D01*
X37170Y38669D01*
X37165Y38671D01*
X37158Y38672D01*
X37150Y38672D01*
X37146D01*
X37144Y38672D01*
X37142Y38672D01*
X37137Y38671D01*
X37132Y38670D01*
X37126Y38669D01*
X37121Y38666D01*
X37119Y38665D01*
X37116Y38664D01*
X37116Y38663D01*
X37115Y38662D01*
X37113Y38660D01*
X37111Y38658D01*
X37109Y38655D01*
X37108Y38652D01*
X37107Y38648D01*
X37106Y38643D01*
Y38643D01*
Y38642D01*
X37106Y38640D01*
X37107Y38638D01*
X37108Y38635D01*
X37109Y38632D01*
X37111Y38629D01*
X37113Y38627D01*
X37114Y38626D01*
X37115Y38625D01*
X37116Y38625D01*
X37117Y38624D01*
X37119Y38623D01*
X37121Y38622D01*
X37123Y38621D01*
X37126Y38620D01*
X37129Y38619D01*
X37133Y38618D01*
X37137Y38617D01*
X37141Y38615D01*
X37146Y38614D01*
X37151Y38613D01*
X37152D01*
X37153Y38612D01*
X37155Y38612D01*
X37156Y38612D01*
X37159Y38611D01*
X37162Y38610D01*
X37165Y38609D01*
X37168Y38609D01*
X37176Y38607D01*
X37183Y38605D01*
X37186Y38604D01*
X37189Y38602D01*
X37192Y38602D01*
X37194Y38601D01*
X37194D01*
X37195Y38600D01*
X37196Y38600D01*
X37197Y38599D01*
X37200Y38598D01*
X37203Y38595D01*
X37207Y38592D01*
X37212Y38589D01*
X37215Y38585D01*
X37219Y38581D01*
X37219Y38580D01*
X37220Y38579D01*
X37221Y38576D01*
X37223Y38573D01*
X37224Y38569D01*
X37226Y38565D01*
X37227Y38559D01*
X37227Y38554D01*
Y38553D01*
Y38553D01*
Y38552D01*
Y38551D01*
X37226Y38548D01*
X37226Y38544D01*
X37225Y38540D01*
X37223Y38535D01*
X37221Y38530D01*
X37218Y38525D01*
Y38525D01*
X37218Y38524D01*
X37216Y38523D01*
X37214Y38520D01*
X37212Y38517D01*
X37208Y38514D01*
X37204Y38511D01*
X37199Y38507D01*
X37193Y38504D01*
X37192D01*
X37192Y38504D01*
X37191Y38504D01*
X37190Y38503D01*
X37188Y38502D01*
X37186Y38502D01*
X37182Y38501D01*
X37177Y38499D01*
X37170Y38498D01*
X37163Y38497D01*
X37156Y38497D01*
X37151D01*
X37149Y38497D01*
X37147D01*
X37144Y38497D01*
X37141Y38498D01*
X37134Y38499D01*
X37127Y38500D01*
X37119Y38502D01*
X37112Y38504D01*
X37112D01*
X37112Y38504D01*
X37111Y38505D01*
X37110Y38506D01*
X37106Y38507D01*
X37102Y38510D01*
X37098Y38513D01*
X37093Y38517D01*
X37089Y38522D01*
X37085Y38527D01*
Y38527D01*
X37084Y38528D01*
X37084Y38529D01*
X37083Y38530D01*
X37083Y38531D01*
X37082Y38533D01*
X37080Y38537D01*
X37078Y38542D01*
X37076Y38548D01*
X37075Y38555D01*
X37074Y38561D01*
X37098Y38564D01*
Y38563D01*
Y38563D01*
X37099Y38562D01*
Y38561D01*
X37099Y38559D01*
X37100Y38555D01*
X37101Y38552D01*
X37102Y38547D01*
X37104Y38543D01*
X37106Y38540D01*
X37106Y38540D01*
X37107Y38538D01*
X37109Y38537D01*
X37111Y38535D01*
X37114Y38532D01*
X37117Y38530D01*
X37121Y38527D01*
X37125Y38525D01*
X37125D01*
X37126Y38525D01*
X37127Y38524D01*
X37127Y38524D01*
X37130Y38523D01*
X37134Y38522D01*
X37138Y38521D01*
X37143Y38520D01*
X37149Y38520D01*
X37155Y38519D01*
X37157D01*
X37160Y38520D01*
X37163Y38520D01*
X37167Y38521D01*
X37172Y38521D01*
X37176Y38522D01*
X37180Y38524D01*
X37181Y38524D01*
X37182Y38524D01*
X37184Y38525D01*
X37187Y38527D01*
X37189Y38529D01*
X37192Y38530D01*
X37195Y38533D01*
X37197Y38535D01*
X37197Y38536D01*
X37198Y38537D01*
X37199Y38538D01*
X37200Y38540D01*
X37201Y38543D01*
X37202Y38545D01*
X37202Y38548D01*
X37202Y38552D01*
Y38552D01*
Y38553D01*
X37202Y38555D01*
X37202Y38557D01*
X37201Y38560D01*
X37200Y38562D01*
X37199Y38565D01*
X37197Y38568D01*
X37197Y38568D01*
X37196Y38569D01*
X37195Y38570D01*
X37193Y38571D01*
X37191Y38573D01*
X37188Y38575D01*
X37184Y38577D01*
X37180Y38579D01*
X37179Y38579D01*
X37178Y38579D01*
X37176Y38580D01*
X37174Y38580D01*
X37173Y38581D01*
X37171Y38582D01*
X37168Y38582D01*
X37165Y38583D01*
X37162Y38584D01*
X37159Y38585D01*
X37155Y38586D01*
X37150Y38587D01*
X37146Y38588D01*
X37145D01*
X37145Y38588D01*
X37143Y38589D01*
X37142Y38589D01*
X37139Y38590D01*
X37137Y38590D01*
X37131Y38592D01*
X37125Y38594D01*
X37119Y38596D01*
X37113Y38598D01*
X37111Y38599D01*
X37109Y38600D01*
X37108D01*
X37108Y38600D01*
X37106Y38601D01*
X37104Y38603D01*
X37101Y38605D01*
X37098Y38607D01*
X37094Y38611D01*
X37091Y38614D01*
X37088Y38618D01*
X37088Y38619D01*
X37087Y38620D01*
X37086Y38622D01*
X37085Y38625D01*
X37084Y38629D01*
X37083Y38633D01*
X37082Y38637D01*
X37082Y38642D01*
Y38642D01*
Y38642D01*
Y38643D01*
Y38644D01*
X37082Y38647D01*
X37083Y38651D01*
X37084Y38655D01*
X37085Y38660D01*
X37087Y38664D01*
X37090Y38669D01*
Y38669D01*
X37090Y38670D01*
X37091Y38671D01*
X37093Y38673D01*
X37096Y38676D01*
X37099Y38679D01*
X37103Y38683D01*
X37108Y38686D01*
X37114Y38688D01*
X37114D01*
X37115Y38689D01*
X37115Y38689D01*
X37117Y38689D01*
X37118Y38690D01*
X37120Y38691D01*
X37124Y38692D01*
X37129Y38693D01*
X37135Y38694D01*
X37142Y38695D01*
X37149Y38695D01*
X37153D01*
X37155Y38695D01*
D02*
G37*
G36*
X37591Y38500D02*
X37565D01*
X37464Y38650D01*
Y38500D01*
X37440D01*
Y38692D01*
X37466D01*
X37567Y38541D01*
Y38692D01*
X37591D01*
Y38500D01*
D02*
G37*
G36*
X37951Y38669D02*
X37838D01*
Y38611D01*
X37944D01*
Y38588D01*
X37838D01*
Y38523D01*
X37956D01*
Y38500D01*
X37813D01*
Y38692D01*
X37951D01*
Y38669D01*
D02*
G37*
G36*
X37401D02*
X37287D01*
Y38611D01*
X37394D01*
Y38588D01*
X37287D01*
Y38523D01*
X37405D01*
Y38500D01*
X37262D01*
Y38692D01*
X37401D01*
Y38669D01*
D02*
G37*
G36*
X36981Y38691D02*
X36984D01*
X36989Y38691D01*
X36996Y38690D01*
X37002Y38689D01*
X37008Y38688D01*
X37011Y38687D01*
X37014Y38686D01*
X37014D01*
X37014Y38686D01*
X37016Y38685D01*
X37019Y38684D01*
X37022Y38682D01*
X37025Y38680D01*
X37029Y38676D01*
X37032Y38673D01*
X37035Y38668D01*
Y38668D01*
X37035Y38668D01*
X37037Y38666D01*
X37038Y38663D01*
X37039Y38660D01*
X37041Y38655D01*
X37042Y38650D01*
X37043Y38645D01*
X37043Y38639D01*
Y38639D01*
Y38639D01*
Y38637D01*
X37043Y38636D01*
Y38634D01*
X37043Y38632D01*
X37042Y38627D01*
X37040Y38622D01*
X37038Y38616D01*
X37034Y38610D01*
X37032Y38607D01*
X37030Y38605D01*
X37030Y38604D01*
X37029Y38604D01*
X37029Y38603D01*
X37027Y38602D01*
X37026Y38601D01*
X37024Y38600D01*
X37022Y38599D01*
X37020Y38597D01*
X37017Y38596D01*
X37014Y38594D01*
X37011Y38593D01*
X37007Y38591D01*
X37003Y38590D01*
X36999Y38589D01*
X36994Y38588D01*
X36989Y38587D01*
X36990Y38587D01*
X36991Y38586D01*
X36992Y38585D01*
X36995Y38584D01*
X37000Y38581D01*
X37002Y38579D01*
X37004Y38578D01*
X37005Y38577D01*
X37006Y38576D01*
X37009Y38573D01*
X37011Y38571D01*
X37014Y38567D01*
X37018Y38563D01*
X37022Y38558D01*
X37025Y38552D01*
X37058Y38500D01*
X37027D01*
X37002Y38540D01*
Y38540D01*
X37001Y38541D01*
X37001Y38542D01*
X37000Y38543D01*
X36998Y38546D01*
X36995Y38550D01*
X36992Y38554D01*
X36989Y38558D01*
X36986Y38562D01*
X36983Y38566D01*
X36983Y38566D01*
X36982Y38568D01*
X36981Y38569D01*
X36979Y38571D01*
X36975Y38575D01*
X36973Y38577D01*
X36970Y38579D01*
X36970Y38579D01*
X36969Y38579D01*
X36968Y38580D01*
X36967Y38581D01*
X36965Y38582D01*
X36963Y38583D01*
X36959Y38584D01*
X36958D01*
X36958Y38584D01*
X36957D01*
X36955Y38584D01*
X36953Y38585D01*
X36951D01*
X36948Y38585D01*
X36915D01*
Y38500D01*
X36890D01*
Y38692D01*
X36979D01*
X36981Y38691D01*
D02*
G37*
G36*
X35146Y35123D02*
X35069D01*
X35059Y35071D01*
X35059Y35071D01*
X35060Y35071D01*
X35061Y35072D01*
X35062Y35073D01*
X35064Y35074D01*
X35066Y35075D01*
X35070Y35077D01*
X35076Y35079D01*
X35082Y35081D01*
X35089Y35082D01*
X35092Y35083D01*
X35098D01*
X35100Y35083D01*
X35102Y35082D01*
X35104Y35082D01*
X35107Y35082D01*
X35110Y35081D01*
X35117Y35079D01*
X35120Y35077D01*
X35124Y35075D01*
X35128Y35074D01*
X35131Y35071D01*
X35134Y35069D01*
X35138Y35066D01*
X35138Y35065D01*
X35139Y35065D01*
X35139Y35064D01*
X35141Y35062D01*
X35142Y35061D01*
X35143Y35059D01*
X35145Y35056D01*
X35147Y35053D01*
X35148Y35050D01*
X35150Y35047D01*
X35151Y35043D01*
X35152Y35039D01*
X35154Y35035D01*
X35154Y35030D01*
X35155Y35026D01*
X35155Y35021D01*
Y35020D01*
Y35020D01*
Y35018D01*
X35155Y35016D01*
X35155Y35014D01*
X35154Y35011D01*
X35154Y35008D01*
X35153Y35005D01*
X35152Y34998D01*
X35149Y34991D01*
X35147Y34987D01*
X35145Y34983D01*
X35143Y34979D01*
X35140Y34976D01*
X35140Y34975D01*
X35139Y34975D01*
X35138Y34974D01*
X35137Y34972D01*
X35135Y34971D01*
X35133Y34968D01*
X35130Y34966D01*
X35127Y34964D01*
X35123Y34962D01*
X35120Y34960D01*
X35115Y34958D01*
X35111Y34956D01*
X35106Y34955D01*
X35101Y34954D01*
X35095Y34953D01*
X35090Y34952D01*
X35087D01*
X35085Y34953D01*
X35083Y34953D01*
X35080Y34953D01*
X35077Y34954D01*
X35074Y34954D01*
X35067Y34956D01*
X35061Y34959D01*
X35057Y34960D01*
X35053Y34962D01*
X35050Y34964D01*
X35047Y34967D01*
X35046Y34967D01*
X35046Y34967D01*
X35045Y34969D01*
X35044Y34970D01*
X35043Y34971D01*
X35041Y34973D01*
X35040Y34975D01*
X35038Y34977D01*
X35037Y34980D01*
X35035Y34983D01*
X35032Y34990D01*
X35029Y34997D01*
X35029Y35002D01*
X35028Y35006D01*
X35053Y35008D01*
Y35008D01*
Y35007D01*
X35053Y35006D01*
X35053Y35005D01*
X35054Y35002D01*
X35055Y34998D01*
X35057Y34993D01*
X35059Y34989D01*
X35062Y34985D01*
X35065Y34981D01*
X35066Y34980D01*
X35067Y34979D01*
X35069Y34978D01*
X35072Y34976D01*
X35075Y34975D01*
X35080Y34973D01*
X35084Y34972D01*
X35090Y34972D01*
X35091D01*
X35092Y34972D01*
X35096Y34972D01*
X35100Y34974D01*
X35104Y34975D01*
X35109Y34977D01*
X35114Y34980D01*
X35116Y34982D01*
X35118Y34985D01*
X35119Y34985D01*
X35119Y34985D01*
X35120Y34986D01*
X35120Y34987D01*
X35122Y34990D01*
X35125Y34994D01*
X35126Y34998D01*
X35128Y35004D01*
X35130Y35011D01*
X35130Y35015D01*
Y35019D01*
Y35019D01*
Y35020D01*
Y35021D01*
X35130Y35022D01*
Y35024D01*
X35130Y35026D01*
X35129Y35030D01*
X35128Y35035D01*
X35126Y35041D01*
X35123Y35046D01*
X35119Y35050D01*
Y35051D01*
X35118Y35051D01*
X35117Y35052D01*
X35115Y35054D01*
X35111Y35056D01*
X35107Y35058D01*
X35102Y35060D01*
X35096Y35062D01*
X35093Y35062D01*
X35087D01*
X35085Y35062D01*
X35082Y35062D01*
X35079Y35061D01*
X35076Y35060D01*
X35072Y35059D01*
X35069Y35057D01*
X35068Y35057D01*
X35067Y35056D01*
X35066Y35055D01*
X35063Y35053D01*
X35061Y35051D01*
X35059Y35049D01*
X35056Y35046D01*
X35054Y35043D01*
X35032Y35046D01*
X35051Y35145D01*
X35146D01*
Y35123D01*
D02*
G37*
G36*
X34936Y35147D02*
X34938D01*
X34944Y35147D01*
X34950Y35146D01*
X34957Y35145D01*
X34963Y35144D01*
X34966Y35143D01*
X34969Y35142D01*
X34969D01*
X34969Y35142D01*
X34971Y35141D01*
X34973Y35140D01*
X34976Y35138D01*
X34980Y35136D01*
X34983Y35132D01*
X34987Y35128D01*
X34990Y35124D01*
Y35124D01*
X34990Y35123D01*
X34991Y35122D01*
X34992Y35119D01*
X34994Y35115D01*
X34995Y35111D01*
X34997Y35106D01*
X34998Y35101D01*
X34998Y35095D01*
Y35095D01*
Y35094D01*
Y35093D01*
X34998Y35092D01*
Y35090D01*
X34997Y35088D01*
X34996Y35083D01*
X34995Y35078D01*
X34992Y35072D01*
X34989Y35066D01*
X34987Y35063D01*
X34985Y35061D01*
X34984Y35060D01*
X34984Y35060D01*
X34983Y35059D01*
X34982Y35058D01*
X34981Y35057D01*
X34979Y35056D01*
X34977Y35055D01*
X34975Y35053D01*
X34972Y35052D01*
X34969Y35050D01*
X34966Y35049D01*
X34962Y35047D01*
X34958Y35046D01*
X34954Y35045D01*
X34949Y35044D01*
X34944Y35043D01*
X34944Y35043D01*
X34946Y35042D01*
X34947Y35041D01*
X34949Y35040D01*
X34954Y35037D01*
X34957Y35035D01*
X34959Y35033D01*
X34960Y35033D01*
X34961Y35031D01*
X34963Y35029D01*
X34966Y35026D01*
X34969Y35023D01*
X34973Y35018D01*
X34976Y35013D01*
X34980Y35008D01*
X35013Y34956D01*
X34982D01*
X34956Y34996D01*
Y34996D01*
X34956Y34997D01*
X34955Y34997D01*
X34954Y34998D01*
X34952Y35002D01*
X34950Y35005D01*
X34947Y35010D01*
X34944Y35014D01*
X34941Y35018D01*
X34938Y35022D01*
X34938Y35022D01*
X34937Y35023D01*
X34936Y35025D01*
X34934Y35027D01*
X34929Y35031D01*
X34927Y35033D01*
X34925Y35035D01*
X34925Y35035D01*
X34924Y35035D01*
X34923Y35036D01*
X34921Y35037D01*
X34920Y35038D01*
X34918Y35038D01*
X34913Y35040D01*
X34913D01*
X34913Y35040D01*
X34911D01*
X34910Y35040D01*
X34908Y35041D01*
X34906D01*
X34903Y35041D01*
X34870D01*
Y34956D01*
X34845D01*
Y35148D01*
X34934D01*
X34936Y35147D01*
D02*
G37*
G36*
X39342Y37878D02*
X39368D01*
Y37856D01*
X39342D01*
Y37810D01*
X39319D01*
Y37856D01*
X39235D01*
Y37878D01*
X39323Y38002D01*
X39342D01*
Y37878D01*
D02*
G37*
G36*
X39151Y38001D02*
X39154D01*
X39159Y38001D01*
X39166Y38000D01*
X39172Y37999D01*
X39178Y37998D01*
X39181Y37997D01*
X39184Y37996D01*
X39184D01*
X39184Y37996D01*
X39186Y37995D01*
X39189Y37994D01*
X39192Y37992D01*
X39195Y37990D01*
X39199Y37986D01*
X39202Y37983D01*
X39205Y37978D01*
Y37978D01*
X39205Y37978D01*
X39207Y37976D01*
X39208Y37973D01*
X39209Y37970D01*
X39211Y37965D01*
X39212Y37960D01*
X39213Y37955D01*
X39213Y37949D01*
Y37949D01*
Y37949D01*
Y37947D01*
X39213Y37946D01*
Y37944D01*
X39213Y37942D01*
X39212Y37937D01*
X39210Y37932D01*
X39208Y37926D01*
X39204Y37920D01*
X39202Y37917D01*
X39200Y37915D01*
X39200Y37914D01*
X39199Y37914D01*
X39199Y37913D01*
X39197Y37912D01*
X39196Y37911D01*
X39194Y37910D01*
X39192Y37909D01*
X39190Y37907D01*
X39187Y37906D01*
X39184Y37904D01*
X39181Y37903D01*
X39177Y37901D01*
X39173Y37900D01*
X39169Y37899D01*
X39164Y37898D01*
X39159Y37897D01*
X39160Y37897D01*
X39161Y37896D01*
X39162Y37895D01*
X39165Y37894D01*
X39170Y37891D01*
X39172Y37889D01*
X39174Y37888D01*
X39175Y37887D01*
X39176Y37886D01*
X39179Y37883D01*
X39181Y37881D01*
X39184Y37877D01*
X39188Y37873D01*
X39192Y37868D01*
X39195Y37862D01*
X39228Y37810D01*
X39197D01*
X39172Y37850D01*
Y37850D01*
X39171Y37851D01*
X39171Y37852D01*
X39170Y37853D01*
X39168Y37856D01*
X39165Y37860D01*
X39162Y37864D01*
X39159Y37868D01*
X39156Y37872D01*
X39153Y37876D01*
X39153Y37876D01*
X39152Y37878D01*
X39151Y37879D01*
X39149Y37881D01*
X39145Y37885D01*
X39143Y37887D01*
X39140Y37889D01*
X39140Y37889D01*
X39139Y37889D01*
X39138Y37890D01*
X39137Y37891D01*
X39135Y37892D01*
X39133Y37893D01*
X39129Y37894D01*
X39128D01*
X39128Y37894D01*
X39127D01*
X39125Y37894D01*
X39123Y37895D01*
X39121D01*
X39118Y37895D01*
X39085D01*
Y37810D01*
X39060D01*
Y38002D01*
X39149D01*
X39151Y38001D01*
D02*
G37*
G36*
X36445Y35148D02*
X36448Y35147D01*
X36453Y35146D01*
X36458Y35145D01*
X36463Y35143D01*
X36468Y35141D01*
X36468D01*
X36468Y35141D01*
X36470Y35140D01*
X36472Y35138D01*
X36475Y35136D01*
X36479Y35134D01*
X36482Y35130D01*
X36485Y35127D01*
X36488Y35123D01*
X36488Y35122D01*
X36489Y35121D01*
X36490Y35118D01*
X36492Y35115D01*
X36493Y35112D01*
X36494Y35107D01*
X36495Y35103D01*
X36495Y35098D01*
Y35098D01*
Y35096D01*
X36495Y35094D01*
X36494Y35091D01*
X36493Y35087D01*
X36492Y35083D01*
X36490Y35079D01*
X36488Y35075D01*
X36488Y35075D01*
X36487Y35074D01*
X36485Y35072D01*
X36483Y35070D01*
X36480Y35067D01*
X36477Y35064D01*
X36473Y35062D01*
X36469Y35059D01*
X36469D01*
X36469Y35059D01*
X36470Y35059D01*
X36471Y35058D01*
X36474Y35057D01*
X36478Y35056D01*
X36483Y35053D01*
X36487Y35051D01*
X36491Y35047D01*
X36495Y35043D01*
X36495Y35042D01*
X36497Y35041D01*
X36498Y35038D01*
X36500Y35034D01*
X36502Y35030D01*
X36503Y35025D01*
X36504Y35019D01*
X36505Y35012D01*
Y35012D01*
Y35011D01*
Y35009D01*
X36504Y35008D01*
X36504Y35006D01*
X36503Y35003D01*
X36503Y35000D01*
X36502Y34997D01*
X36500Y34991D01*
X36498Y34987D01*
X36497Y34984D01*
X36495Y34980D01*
X36492Y34976D01*
X36489Y34973D01*
X36486Y34970D01*
X36486Y34969D01*
X36485Y34969D01*
X36484Y34968D01*
X36483Y34967D01*
X36481Y34965D01*
X36479Y34964D01*
X36476Y34962D01*
X36473Y34961D01*
X36470Y34959D01*
X36467Y34958D01*
X36463Y34956D01*
X36459Y34955D01*
X36454Y34954D01*
X36450Y34953D01*
X36445Y34952D01*
X36440Y34952D01*
X36437D01*
X36436Y34952D01*
X36433Y34953D01*
X36431Y34953D01*
X36428Y34953D01*
X36425Y34954D01*
X36418Y34956D01*
X36411Y34958D01*
X36408Y34960D01*
X36405Y34962D01*
X36401Y34965D01*
X36398Y34967D01*
X36398Y34967D01*
X36397Y34968D01*
X36396Y34969D01*
X36395Y34970D01*
X36394Y34971D01*
X36393Y34973D01*
X36391Y34975D01*
X36389Y34978D01*
X36388Y34980D01*
X36386Y34983D01*
X36383Y34990D01*
X36380Y34998D01*
X36380Y35002D01*
X36379Y35006D01*
X36403Y35009D01*
Y35009D01*
X36403Y35008D01*
X36403Y35007D01*
X36403Y35006D01*
X36404Y35004D01*
X36404Y35002D01*
X36406Y34998D01*
X36408Y34993D01*
X36410Y34988D01*
X36413Y34984D01*
X36416Y34980D01*
X36417Y34980D01*
X36418Y34979D01*
X36420Y34977D01*
X36423Y34976D01*
X36426Y34974D01*
X36430Y34973D01*
X36435Y34972D01*
X36440Y34971D01*
X36442D01*
X36443Y34972D01*
X36446Y34972D01*
X36450Y34973D01*
X36454Y34974D01*
X36459Y34976D01*
X36464Y34979D01*
X36468Y34983D01*
X36469Y34983D01*
X36470Y34985D01*
X36472Y34988D01*
X36474Y34991D01*
X36476Y34995D01*
X36478Y35000D01*
X36479Y35005D01*
X36480Y35011D01*
Y35012D01*
Y35012D01*
Y35013D01*
X36479Y35014D01*
X36479Y35017D01*
X36478Y35021D01*
X36477Y35025D01*
X36475Y35030D01*
X36472Y35034D01*
X36469Y35038D01*
X36468Y35039D01*
X36467Y35040D01*
X36465Y35042D01*
X36462Y35043D01*
X36458Y35045D01*
X36453Y35047D01*
X36448Y35048D01*
X36442Y35049D01*
X36439D01*
X36438Y35048D01*
X36435Y35048D01*
X36432Y35048D01*
X36429Y35047D01*
X36425Y35046D01*
X36428Y35067D01*
X36430D01*
X36431Y35067D01*
X36434D01*
X36437Y35067D01*
X36441Y35068D01*
X36445Y35069D01*
X36450Y35070D01*
X36454Y35072D01*
X36459Y35075D01*
X36459D01*
X36459Y35075D01*
X36461Y35076D01*
X36463Y35078D01*
X36465Y35080D01*
X36467Y35084D01*
X36469Y35088D01*
X36470Y35093D01*
X36471Y35096D01*
Y35099D01*
Y35099D01*
Y35099D01*
Y35101D01*
X36470Y35103D01*
X36470Y35106D01*
X36469Y35109D01*
X36467Y35113D01*
X36465Y35117D01*
X36462Y35120D01*
X36462Y35120D01*
X36461Y35121D01*
X36459Y35123D01*
X36456Y35124D01*
X36453Y35126D01*
X36449Y35127D01*
X36444Y35128D01*
X36439Y35129D01*
X36437D01*
X36435Y35128D01*
X36431Y35127D01*
X36428Y35126D01*
X36424Y35125D01*
X36420Y35123D01*
X36417Y35120D01*
X36416Y35120D01*
X36415Y35118D01*
X36414Y35116D01*
X36412Y35114D01*
X36410Y35110D01*
X36408Y35106D01*
X36406Y35100D01*
X36405Y35094D01*
X36382Y35098D01*
Y35099D01*
X36382Y35099D01*
X36382Y35101D01*
X36382Y35102D01*
X36383Y35104D01*
X36384Y35106D01*
X36385Y35112D01*
X36388Y35118D01*
X36392Y35124D01*
X36396Y35130D01*
X36401Y35135D01*
X36401Y35135D01*
X36402Y35135D01*
X36403Y35136D01*
X36404Y35137D01*
X36405Y35138D01*
X36407Y35139D01*
X36409Y35140D01*
X36411Y35142D01*
X36417Y35144D01*
X36423Y35146D01*
X36431Y35147D01*
X36435Y35148D01*
X36442D01*
X36445Y35148D01*
D02*
G37*
G36*
X36287Y35147D02*
X36289D01*
X36295Y35147D01*
X36301Y35146D01*
X36308Y35145D01*
X36314Y35143D01*
X36317Y35143D01*
X36319Y35142D01*
X36320D01*
X36320Y35142D01*
X36321Y35141D01*
X36324Y35140D01*
X36327Y35138D01*
X36330Y35135D01*
X36334Y35132D01*
X36337Y35128D01*
X36341Y35124D01*
Y35123D01*
X36341Y35123D01*
X36342Y35121D01*
X36343Y35119D01*
X36345Y35115D01*
X36346Y35111D01*
X36348Y35106D01*
X36348Y35101D01*
X36349Y35095D01*
Y35094D01*
Y35094D01*
Y35093D01*
X36348Y35091D01*
Y35089D01*
X36348Y35088D01*
X36347Y35083D01*
X36345Y35077D01*
X36343Y35071D01*
X36340Y35066D01*
X36338Y35063D01*
X36335Y35060D01*
X36335Y35060D01*
X36335Y35060D01*
X36334Y35059D01*
X36333Y35058D01*
X36331Y35057D01*
X36330Y35056D01*
X36328Y35054D01*
X36325Y35053D01*
X36323Y35051D01*
X36320Y35050D01*
X36316Y35048D01*
X36313Y35047D01*
X36308Y35046D01*
X36304Y35044D01*
X36300Y35043D01*
X36295Y35043D01*
X36295Y35042D01*
X36296Y35042D01*
X36298Y35041D01*
X36300Y35040D01*
X36305Y35037D01*
X36308Y35035D01*
X36310Y35033D01*
X36310Y35032D01*
X36312Y35031D01*
X36314Y35029D01*
X36317Y35026D01*
X36320Y35022D01*
X36323Y35018D01*
X36327Y35013D01*
X36331Y35007D01*
X36364Y34955D01*
X36332D01*
X36307Y34995D01*
Y34996D01*
X36307Y34996D01*
X36306Y34997D01*
X36305Y34998D01*
X36303Y35001D01*
X36301Y35005D01*
X36298Y35009D01*
X36295Y35014D01*
X36292Y35018D01*
X36289Y35022D01*
X36289Y35022D01*
X36288Y35023D01*
X36286Y35025D01*
X36284Y35027D01*
X36280Y35031D01*
X36278Y35033D01*
X36276Y35034D01*
X36275Y35035D01*
X36275Y35035D01*
X36274Y35035D01*
X36272Y35036D01*
X36270Y35037D01*
X36269Y35038D01*
X36264Y35039D01*
X36264D01*
X36263Y35040D01*
X36262D01*
X36261Y35040D01*
X36259Y35040D01*
X36257D01*
X36254Y35040D01*
X36221D01*
Y34955D01*
X36195D01*
Y35147D01*
X36284D01*
X36287Y35147D01*
D02*
G37*
G36*
X36548Y37296D02*
X36550Y37296D01*
X36553Y37295D01*
X36556Y37295D01*
X36559Y37294D01*
X36566Y37292D01*
X36573Y37290D01*
X36577Y37288D01*
X36581Y37286D01*
X36584Y37284D01*
X36587Y37281D01*
X36587Y37280D01*
X36588Y37280D01*
X36588Y37279D01*
X36589Y37278D01*
X36591Y37277D01*
X36592Y37275D01*
X36594Y37273D01*
X36595Y37270D01*
X36598Y37265D01*
X36601Y37258D01*
X36602Y37255D01*
X36602Y37251D01*
X36603Y37247D01*
X36603Y37243D01*
Y37243D01*
Y37241D01*
X36603Y37239D01*
X36603Y37236D01*
X36602Y37233D01*
X36601Y37229D01*
X36600Y37225D01*
X36598Y37220D01*
X36598Y37220D01*
X36597Y37218D01*
X36596Y37216D01*
X36595Y37213D01*
X36593Y37210D01*
X36590Y37206D01*
X36586Y37202D01*
X36583Y37197D01*
X36582Y37196D01*
X36581Y37195D01*
X36579Y37193D01*
X36578Y37192D01*
X36576Y37190D01*
X36574Y37188D01*
X36572Y37186D01*
X36569Y37183D01*
X36566Y37180D01*
X36563Y37177D01*
X36559Y37174D01*
X36555Y37171D01*
X36551Y37167D01*
X36547Y37163D01*
X36546Y37163D01*
X36546Y37162D01*
X36545Y37162D01*
X36543Y37161D01*
X36542Y37159D01*
X36540Y37157D01*
X36535Y37154D01*
X36530Y37149D01*
X36526Y37145D01*
X36522Y37142D01*
X36521Y37140D01*
X36519Y37139D01*
X36519Y37139D01*
X36518Y37138D01*
X36517Y37137D01*
X36516Y37135D01*
X36514Y37133D01*
X36512Y37131D01*
X36509Y37126D01*
X36604D01*
Y37104D01*
X36476D01*
Y37104D01*
Y37105D01*
Y37107D01*
X36477Y37109D01*
X36477Y37111D01*
X36478Y37114D01*
X36478Y37117D01*
X36479Y37120D01*
Y37120D01*
X36479Y37121D01*
X36480Y37122D01*
X36481Y37125D01*
X36483Y37128D01*
X36485Y37132D01*
X36488Y37136D01*
X36491Y37141D01*
X36495Y37146D01*
Y37146D01*
X36495Y37146D01*
X36497Y37148D01*
X36499Y37150D01*
X36503Y37154D01*
X36507Y37158D01*
X36512Y37163D01*
X36519Y37169D01*
X36525Y37174D01*
X36526Y37175D01*
X36527Y37175D01*
X36529Y37177D01*
X36530Y37179D01*
X36533Y37181D01*
X36536Y37183D01*
X36539Y37186D01*
X36543Y37189D01*
X36550Y37196D01*
X36557Y37202D01*
X36560Y37206D01*
X36563Y37209D01*
X36566Y37212D01*
X36568Y37215D01*
Y37215D01*
X36568Y37216D01*
X36569Y37216D01*
X36570Y37218D01*
X36571Y37221D01*
X36574Y37224D01*
X36576Y37229D01*
X36578Y37233D01*
X36579Y37239D01*
X36579Y37244D01*
Y37244D01*
Y37244D01*
X36579Y37246D01*
X36579Y37249D01*
X36578Y37252D01*
X36577Y37256D01*
X36575Y37259D01*
X36572Y37263D01*
X36569Y37267D01*
X36568Y37268D01*
X36567Y37269D01*
X36565Y37270D01*
X36562Y37272D01*
X36558Y37274D01*
X36554Y37275D01*
X36548Y37277D01*
X36543Y37277D01*
X36541D01*
X36540Y37277D01*
X36537Y37276D01*
X36533Y37275D01*
X36529Y37274D01*
X36524Y37272D01*
X36519Y37270D01*
X36515Y37267D01*
X36515Y37266D01*
X36514Y37265D01*
X36512Y37262D01*
X36510Y37259D01*
X36508Y37255D01*
X36507Y37250D01*
X36506Y37245D01*
X36505Y37238D01*
X36481Y37241D01*
Y37241D01*
X36481Y37242D01*
Y37243D01*
X36481Y37245D01*
X36482Y37248D01*
X36483Y37250D01*
X36483Y37253D01*
X36484Y37256D01*
X36486Y37263D01*
X36490Y37269D01*
X36492Y37273D01*
X36494Y37276D01*
X36497Y37279D01*
X36499Y37282D01*
X36500Y37282D01*
X36500Y37282D01*
X36501Y37283D01*
X36502Y37284D01*
X36504Y37285D01*
X36506Y37286D01*
X36508Y37288D01*
X36511Y37289D01*
X36514Y37290D01*
X36517Y37292D01*
X36521Y37293D01*
X36525Y37294D01*
X36529Y37295D01*
X36534Y37296D01*
X36538Y37296D01*
X36543Y37296D01*
X36546D01*
X36548Y37296D01*
D02*
G37*
G36*
X36388Y37295D02*
X36390D01*
X36396Y37295D01*
X36402Y37294D01*
X36409Y37293D01*
X36415Y37292D01*
X36418Y37291D01*
X36420Y37290D01*
X36421D01*
X36421Y37290D01*
X36422Y37289D01*
X36425Y37288D01*
X36428Y37286D01*
X36431Y37284D01*
X36435Y37280D01*
X36438Y37276D01*
X36442Y37272D01*
Y37272D01*
X36442Y37271D01*
X36443Y37270D01*
X36444Y37267D01*
X36446Y37263D01*
X36447Y37259D01*
X36448Y37254D01*
X36449Y37249D01*
X36450Y37243D01*
Y37243D01*
Y37242D01*
Y37241D01*
X36449Y37240D01*
Y37238D01*
X36449Y37236D01*
X36448Y37231D01*
X36446Y37226D01*
X36444Y37220D01*
X36441Y37214D01*
X36439Y37211D01*
X36436Y37208D01*
X36436Y37208D01*
X36436Y37208D01*
X36435Y37207D01*
X36434Y37206D01*
X36432Y37205D01*
X36431Y37204D01*
X36429Y37203D01*
X36426Y37201D01*
X36424Y37200D01*
X36421Y37198D01*
X36417Y37197D01*
X36414Y37195D01*
X36409Y37194D01*
X36405Y37193D01*
X36401Y37192D01*
X36396Y37191D01*
X36396Y37191D01*
X36397Y37190D01*
X36399Y37189D01*
X36401Y37188D01*
X36406Y37185D01*
X36409Y37183D01*
X36411Y37181D01*
X36411Y37181D01*
X36413Y37179D01*
X36415Y37177D01*
X36418Y37174D01*
X36421Y37171D01*
X36424Y37166D01*
X36428Y37161D01*
X36432Y37156D01*
X36465Y37104D01*
X36433D01*
X36408Y37144D01*
Y37144D01*
X36407Y37144D01*
X36407Y37145D01*
X36406Y37146D01*
X36404Y37149D01*
X36402Y37153D01*
X36399Y37157D01*
X36396Y37162D01*
X36393Y37166D01*
X36390Y37170D01*
X36389Y37170D01*
X36389Y37171D01*
X36387Y37173D01*
X36385Y37175D01*
X36381Y37179D01*
X36379Y37181D01*
X36377Y37183D01*
X36376Y37183D01*
X36376Y37183D01*
X36375Y37184D01*
X36373Y37185D01*
X36371Y37185D01*
X36370Y37186D01*
X36365Y37188D01*
X36365D01*
X36364Y37188D01*
X36363D01*
X36362Y37188D01*
X36360Y37189D01*
X36358D01*
X36355Y37189D01*
X36322D01*
Y37104D01*
X36296D01*
Y37295D01*
X36385D01*
X36388Y37295D01*
D02*
G37*
G36*
X36486Y32504D02*
X36462D01*
Y32654D01*
X36462Y32653D01*
X36461Y32652D01*
X36459Y32651D01*
X36456Y32649D01*
X36453Y32646D01*
X36449Y32643D01*
X36445Y32640D01*
X36440Y32637D01*
X36440D01*
X36439Y32637D01*
X36438Y32636D01*
X36435Y32634D01*
X36432Y32633D01*
X36428Y32631D01*
X36424Y32629D01*
X36420Y32627D01*
X36415Y32625D01*
Y32648D01*
X36416D01*
X36416Y32649D01*
X36417Y32649D01*
X36419Y32650D01*
X36420Y32651D01*
X36422Y32652D01*
X36427Y32654D01*
X36433Y32657D01*
X36438Y32661D01*
X36444Y32666D01*
X36450Y32671D01*
X36450Y32671D01*
X36450Y32671D01*
X36451Y32672D01*
X36452Y32673D01*
X36455Y32675D01*
X36458Y32679D01*
X36461Y32683D01*
X36465Y32687D01*
X36468Y32692D01*
X36471Y32696D01*
X36486D01*
Y32504D01*
D02*
G37*
G36*
X36305Y32695D02*
X36308D01*
X36313Y32695D01*
X36320Y32694D01*
X36326Y32693D01*
X36332Y32692D01*
X36335Y32691D01*
X36338Y32690D01*
X36338D01*
X36338Y32690D01*
X36340Y32689D01*
X36343Y32688D01*
X36346Y32686D01*
X36349Y32684D01*
X36352Y32680D01*
X36356Y32676D01*
X36359Y32672D01*
Y32672D01*
X36359Y32671D01*
X36361Y32670D01*
X36362Y32667D01*
X36363Y32663D01*
X36365Y32659D01*
X36366Y32654D01*
X36367Y32649D01*
X36367Y32643D01*
Y32643D01*
Y32642D01*
Y32641D01*
X36367Y32640D01*
Y32638D01*
X36367Y32636D01*
X36366Y32631D01*
X36364Y32626D01*
X36362Y32620D01*
X36358Y32614D01*
X36356Y32611D01*
X36354Y32608D01*
X36354Y32608D01*
X36353Y32608D01*
X36352Y32607D01*
X36351Y32606D01*
X36350Y32605D01*
X36348Y32604D01*
X36346Y32603D01*
X36344Y32601D01*
X36341Y32600D01*
X36338Y32598D01*
X36335Y32597D01*
X36331Y32595D01*
X36327Y32594D01*
X36323Y32593D01*
X36318Y32592D01*
X36313Y32591D01*
X36314Y32591D01*
X36315Y32590D01*
X36316Y32589D01*
X36319Y32588D01*
X36324Y32585D01*
X36326Y32583D01*
X36328Y32581D01*
X36329Y32581D01*
X36330Y32579D01*
X36333Y32577D01*
X36335Y32574D01*
X36338Y32571D01*
X36342Y32566D01*
X36346Y32561D01*
X36349Y32556D01*
X36382Y32504D01*
X36351D01*
X36326Y32544D01*
Y32544D01*
X36325Y32544D01*
X36325Y32545D01*
X36324Y32546D01*
X36322Y32549D01*
X36319Y32553D01*
X36316Y32557D01*
X36313Y32562D01*
X36310Y32566D01*
X36307Y32570D01*
X36307Y32570D01*
X36306Y32571D01*
X36305Y32573D01*
X36303Y32575D01*
X36299Y32579D01*
X36297Y32581D01*
X36294Y32583D01*
X36294Y32583D01*
X36293Y32583D01*
X36292Y32584D01*
X36291Y32585D01*
X36289Y32585D01*
X36287Y32586D01*
X36283Y32588D01*
X36282D01*
X36282Y32588D01*
X36281D01*
X36279Y32588D01*
X36277Y32589D01*
X36275D01*
X36272Y32589D01*
X36239D01*
Y32504D01*
X36214D01*
Y32695D01*
X36303D01*
X36305Y32695D01*
D02*
G37*
G36*
X40410Y30002D02*
X40412Y30002D01*
X40415Y30002D01*
X40418Y30001D01*
X40421Y30001D01*
X40428Y29999D01*
X40436Y29996D01*
X40439Y29994D01*
X40443Y29992D01*
X40446Y29990D01*
X40449Y29987D01*
X40449Y29987D01*
X40450Y29986D01*
X40451Y29985D01*
X40452Y29984D01*
X40453Y29983D01*
X40454Y29981D01*
X40456Y29979D01*
X40457Y29976D01*
X40460Y29971D01*
X40463Y29965D01*
X40464Y29961D01*
X40465Y29957D01*
X40465Y29953D01*
X40466Y29949D01*
Y29949D01*
Y29947D01*
X40465Y29945D01*
X40465Y29942D01*
X40464Y29939D01*
X40463Y29935D01*
X40462Y29931D01*
X40461Y29927D01*
X40460Y29926D01*
X40460Y29925D01*
X40459Y29922D01*
X40457Y29919D01*
X40455Y29916D01*
X40452Y29912D01*
X40449Y29908D01*
X40445Y29903D01*
X40444Y29902D01*
X40443Y29901D01*
X40441Y29899D01*
X40440Y29898D01*
X40438Y29896D01*
X40436Y29894D01*
X40434Y29892D01*
X40431Y29889D01*
X40428Y29887D01*
X40425Y29884D01*
X40421Y29881D01*
X40418Y29877D01*
X40413Y29873D01*
X40409Y29870D01*
X40408Y29869D01*
X40408Y29869D01*
X40407Y29868D01*
X40405Y29867D01*
X40404Y29865D01*
X40402Y29863D01*
X40397Y29860D01*
X40393Y29856D01*
X40388Y29852D01*
X40384Y29848D01*
X40383Y29847D01*
X40381Y29845D01*
X40381Y29845D01*
X40380Y29844D01*
X40379Y29843D01*
X40378Y29841D01*
X40376Y29839D01*
X40375Y29837D01*
X40371Y29833D01*
X40466D01*
Y29810D01*
X40339D01*
Y29810D01*
Y29811D01*
Y29813D01*
X40339Y29815D01*
X40339Y29818D01*
X40340Y29820D01*
X40340Y29823D01*
X40341Y29826D01*
Y29827D01*
X40342Y29827D01*
X40342Y29829D01*
X40343Y29831D01*
X40345Y29834D01*
X40347Y29838D01*
X40350Y29843D01*
X40353Y29847D01*
X40357Y29852D01*
Y29852D01*
X40357Y29852D01*
X40359Y29854D01*
X40361Y29857D01*
X40365Y29860D01*
X40369Y29864D01*
X40374Y29869D01*
X40381Y29875D01*
X40388Y29881D01*
X40388Y29881D01*
X40389Y29882D01*
X40391Y29883D01*
X40393Y29885D01*
X40395Y29887D01*
X40398Y29889D01*
X40401Y29892D01*
X40405Y29895D01*
X40412Y29902D01*
X40419Y29909D01*
X40422Y29912D01*
X40425Y29915D01*
X40428Y29918D01*
X40430Y29921D01*
Y29922D01*
X40431Y29922D01*
X40431Y29923D01*
X40432Y29924D01*
X40434Y29927D01*
X40436Y29930D01*
X40438Y29935D01*
X40440Y29940D01*
X40441Y29945D01*
X40441Y29950D01*
Y29950D01*
Y29950D01*
X40441Y29952D01*
X40441Y29955D01*
X40440Y29958D01*
X40439Y29962D01*
X40437Y29966D01*
X40434Y29970D01*
X40431Y29973D01*
X40431Y29974D01*
X40429Y29975D01*
X40427Y29976D01*
X40424Y29978D01*
X40420Y29980D01*
X40416Y29982D01*
X40411Y29983D01*
X40405Y29983D01*
X40403D01*
X40402Y29983D01*
X40399Y29983D01*
X40395Y29982D01*
X40391Y29981D01*
X40386Y29979D01*
X40382Y29976D01*
X40377Y29973D01*
X40377Y29972D01*
X40376Y29971D01*
X40374Y29969D01*
X40372Y29965D01*
X40370Y29961D01*
X40369Y29957D01*
X40368Y29951D01*
X40367Y29945D01*
X40343Y29947D01*
Y29947D01*
X40343Y29948D01*
Y29950D01*
X40344Y29952D01*
X40344Y29954D01*
X40345Y29956D01*
X40346Y29959D01*
X40346Y29962D01*
X40349Y29969D01*
X40352Y29976D01*
X40354Y29979D01*
X40356Y29982D01*
X40359Y29985D01*
X40362Y29988D01*
X40362Y29988D01*
X40362Y29989D01*
X40363Y29989D01*
X40365Y29990D01*
X40366Y29991D01*
X40368Y29993D01*
X40370Y29994D01*
X40373Y29995D01*
X40376Y29997D01*
X40380Y29998D01*
X40383Y29999D01*
X40387Y30000D01*
X40391Y30001D01*
X40396Y30002D01*
X40400Y30002D01*
X40405Y30002D01*
X40408D01*
X40410Y30002D01*
D02*
G37*
G36*
X40230Y30005D02*
X40233D01*
X40235Y30004D01*
X40239Y30004D01*
X40242Y30003D01*
X40249Y30002D01*
X40257Y30000D01*
X40266Y29996D01*
X40270Y29994D01*
X40274Y29992D01*
X40274Y29992D01*
X40275Y29992D01*
X40276Y29991D01*
X40277Y29990D01*
X40279Y29989D01*
X40281Y29987D01*
X40286Y29983D01*
X40291Y29978D01*
X40297Y29972D01*
X40302Y29965D01*
X40306Y29957D01*
Y29957D01*
X40307Y29956D01*
X40307Y29955D01*
X40308Y29953D01*
X40309Y29951D01*
X40310Y29948D01*
X40311Y29945D01*
X40312Y29942D01*
X40313Y29938D01*
X40314Y29934D01*
X40315Y29930D01*
X40316Y29926D01*
X40317Y29916D01*
X40318Y29906D01*
Y29906D01*
Y29905D01*
Y29904D01*
Y29902D01*
X40317Y29900D01*
Y29897D01*
X40317Y29894D01*
X40317Y29892D01*
X40316Y29885D01*
X40315Y29878D01*
X40313Y29870D01*
X40310Y29863D01*
Y29863D01*
X40310Y29862D01*
X40310Y29861D01*
X40309Y29860D01*
X40308Y29858D01*
X40307Y29857D01*
X40305Y29852D01*
X40302Y29847D01*
X40298Y29841D01*
X40294Y29836D01*
X40289Y29830D01*
X40289D01*
X40290Y29830D01*
X40290Y29829D01*
X40292Y29828D01*
X40293Y29827D01*
X40295Y29826D01*
X40299Y29824D01*
X40304Y29820D01*
X40310Y29817D01*
X40316Y29815D01*
X40321Y29812D01*
X40314Y29795D01*
X40313D01*
X40313Y29795D01*
X40312Y29796D01*
X40310Y29796D01*
X40308Y29797D01*
X40306Y29798D01*
X40303Y29799D01*
X40301Y29801D01*
X40295Y29804D01*
X40288Y29808D01*
X40280Y29813D01*
X40272Y29819D01*
X40272D01*
X40272Y29818D01*
X40270Y29817D01*
X40269Y29817D01*
X40267Y29816D01*
X40264Y29815D01*
X40262Y29814D01*
X40259Y29813D01*
X40255Y29812D01*
X40252Y29811D01*
X40244Y29809D01*
X40235Y29807D01*
X40230Y29807D01*
X40225Y29807D01*
X40223D01*
X40221Y29807D01*
X40219D01*
X40216Y29807D01*
X40213Y29808D01*
X40210Y29808D01*
X40202Y29810D01*
X40194Y29812D01*
X40186Y29815D01*
X40182Y29817D01*
X40178Y29819D01*
X40178Y29819D01*
X40177Y29820D01*
X40176Y29820D01*
X40175Y29821D01*
X40173Y29823D01*
X40171Y29824D01*
X40166Y29828D01*
X40161Y29833D01*
X40156Y29839D01*
X40150Y29846D01*
X40146Y29854D01*
Y29855D01*
X40145Y29855D01*
X40144Y29857D01*
X40144Y29858D01*
X40143Y29860D01*
X40142Y29863D01*
X40141Y29866D01*
X40140Y29869D01*
X40139Y29873D01*
X40138Y29877D01*
X40137Y29881D01*
X40136Y29886D01*
X40135Y29895D01*
X40134Y29906D01*
Y29906D01*
Y29907D01*
Y29908D01*
X40134Y29910D01*
Y29913D01*
X40135Y29916D01*
X40135Y29919D01*
X40136Y29923D01*
X40137Y29931D01*
X40139Y29939D01*
X40142Y29948D01*
X40146Y29957D01*
X40146Y29958D01*
X40146Y29958D01*
X40147Y29960D01*
X40148Y29961D01*
X40149Y29963D01*
X40150Y29965D01*
X40154Y29971D01*
X40159Y29976D01*
X40164Y29982D01*
X40171Y29988D01*
X40178Y29993D01*
X40179Y29993D01*
X40179Y29993D01*
X40180Y29994D01*
X40182Y29995D01*
X40184Y29996D01*
X40186Y29997D01*
X40189Y29998D01*
X40192Y29999D01*
X40196Y30000D01*
X40199Y30001D01*
X40207Y30003D01*
X40216Y30004D01*
X40221Y30005D01*
X40228D01*
X40230Y30005D01*
D02*
G37*
G36*
X36948Y29860D02*
X36925D01*
Y30010D01*
X36924Y30010D01*
X36923Y30008D01*
X36921Y30007D01*
X36919Y30005D01*
X36916Y30002D01*
X36912Y30000D01*
X36907Y29997D01*
X36902Y29993D01*
X36902D01*
X36902Y29993D01*
X36900Y29992D01*
X36897Y29991D01*
X36894Y29989D01*
X36890Y29987D01*
X36886Y29985D01*
X36882Y29983D01*
X36878Y29982D01*
Y30004D01*
X36878D01*
X36878Y30005D01*
X36879Y30005D01*
X36881Y30006D01*
X36883Y30007D01*
X36884Y30008D01*
X36889Y30011D01*
X36895Y30014D01*
X36900Y30018D01*
X36906Y30022D01*
X36912Y30027D01*
X36912Y30027D01*
X36912Y30027D01*
X36913Y30028D01*
X36914Y30029D01*
X36917Y30032D01*
X36920Y30035D01*
X36924Y30039D01*
X36927Y30043D01*
X36930Y30048D01*
X36933Y30052D01*
X36948D01*
Y29860D01*
D02*
G37*
G36*
X36748Y30055D02*
X36750D01*
X36753Y30054D01*
X36756Y30054D01*
X36760Y30053D01*
X36767Y30052D01*
X36775Y30050D01*
X36783Y30046D01*
X36787Y30044D01*
X36791Y30042D01*
X36792Y30042D01*
X36792Y30042D01*
X36793Y30041D01*
X36795Y30040D01*
X36797Y30039D01*
X36799Y30037D01*
X36804Y30033D01*
X36809Y30028D01*
X36814Y30022D01*
X36819Y30015D01*
X36824Y30007D01*
Y30007D01*
X36824Y30006D01*
X36825Y30005D01*
X36825Y30003D01*
X36827Y30001D01*
X36827Y29998D01*
X36829Y29995D01*
X36830Y29992D01*
X36830Y29988D01*
X36832Y29984D01*
X36833Y29980D01*
X36834Y29976D01*
X36835Y29966D01*
X36835Y29956D01*
Y29956D01*
Y29955D01*
Y29954D01*
Y29952D01*
X36835Y29950D01*
Y29947D01*
X36835Y29944D01*
X36834Y29942D01*
X36834Y29935D01*
X36832Y29928D01*
X36830Y29920D01*
X36828Y29913D01*
Y29913D01*
X36828Y29912D01*
X36827Y29911D01*
X36827Y29910D01*
X36826Y29908D01*
X36825Y29907D01*
X36823Y29902D01*
X36820Y29897D01*
X36816Y29891D01*
X36811Y29886D01*
X36806Y29880D01*
X36807D01*
X36807Y29880D01*
X36808Y29879D01*
X36809Y29878D01*
X36811Y29877D01*
X36813Y29876D01*
X36817Y29874D01*
X36822Y29871D01*
X36827Y29867D01*
X36833Y29865D01*
X36839Y29862D01*
X36831Y29845D01*
X36831D01*
X36830Y29845D01*
X36829Y29846D01*
X36828Y29846D01*
X36826Y29847D01*
X36824Y29848D01*
X36821Y29849D01*
X36818Y29851D01*
X36812Y29854D01*
X36805Y29858D01*
X36798Y29863D01*
X36790Y29869D01*
X36790D01*
X36789Y29868D01*
X36788Y29867D01*
X36786Y29867D01*
X36784Y29866D01*
X36782Y29865D01*
X36779Y29864D01*
X36776Y29863D01*
X36773Y29862D01*
X36769Y29861D01*
X36761Y29859D01*
X36752Y29857D01*
X36748Y29857D01*
X36743Y29857D01*
X36740D01*
X36739Y29857D01*
X36736D01*
X36734Y29857D01*
X36730Y29858D01*
X36727Y29858D01*
X36720Y29860D01*
X36712Y29862D01*
X36704Y29865D01*
X36700Y29867D01*
X36696Y29869D01*
X36695Y29869D01*
X36695Y29870D01*
X36694Y29871D01*
X36692Y29871D01*
X36690Y29873D01*
X36688Y29874D01*
X36684Y29878D01*
X36678Y29883D01*
X36673Y29889D01*
X36668Y29896D01*
X36663Y29904D01*
Y29905D01*
X36663Y29905D01*
X36662Y29907D01*
X36662Y29908D01*
X36661Y29910D01*
X36660Y29913D01*
X36658Y29916D01*
X36658Y29919D01*
X36657Y29923D01*
X36655Y29927D01*
X36655Y29931D01*
X36653Y29936D01*
X36652Y29945D01*
X36652Y29956D01*
Y29956D01*
Y29957D01*
Y29958D01*
X36652Y29960D01*
Y29963D01*
X36652Y29966D01*
X36653Y29969D01*
X36653Y29973D01*
X36655Y29981D01*
X36657Y29989D01*
X36659Y29998D01*
X36663Y30007D01*
X36663Y30008D01*
X36664Y30008D01*
X36664Y30010D01*
X36665Y30011D01*
X36666Y30013D01*
X36668Y30015D01*
X36672Y30021D01*
X36676Y30026D01*
X36682Y30032D01*
X36688Y30038D01*
X36696Y30043D01*
X36696Y30043D01*
X36697Y30043D01*
X36698Y30044D01*
X36700Y30045D01*
X36702Y30046D01*
X36704Y30047D01*
X36707Y30048D01*
X36710Y30049D01*
X36713Y30050D01*
X36717Y30051D01*
X36725Y30053D01*
X36734Y30054D01*
X36739Y30055D01*
X36746D01*
X36748Y30055D01*
D02*
G37*
G36*
X33315Y30954D02*
X33291D01*
Y31104D01*
X33291Y31103D01*
X33289Y31102D01*
X33288Y31101D01*
X33285Y31099D01*
X33282Y31096D01*
X33278Y31093D01*
X33274Y31090D01*
X33269Y31087D01*
X33268D01*
X33268Y31087D01*
X33266Y31086D01*
X33264Y31084D01*
X33260Y31083D01*
X33256Y31081D01*
X33252Y31079D01*
X33248Y31077D01*
X33244Y31075D01*
Y31098D01*
X33244D01*
X33245Y31099D01*
X33246Y31099D01*
X33247Y31100D01*
X33249Y31101D01*
X33251Y31102D01*
X33256Y31104D01*
X33261Y31107D01*
X33267Y31111D01*
X33272Y31116D01*
X33278Y31121D01*
X33279Y31121D01*
X33279Y31121D01*
X33280Y31122D01*
X33281Y31123D01*
X33283Y31125D01*
X33287Y31129D01*
X33290Y31133D01*
X33293Y31137D01*
X33297Y31142D01*
X33299Y31146D01*
X33315D01*
Y30954D01*
D02*
G37*
G36*
X33111Y30976D02*
X33205D01*
Y30954D01*
X33085D01*
Y31145D01*
X33111D01*
Y30976D01*
D02*
G37*
G36*
X30078Y41447D02*
X30080D01*
X30082Y41447D01*
X30087Y41446D01*
X30093Y41444D01*
X30099Y41442D01*
X30105Y41439D01*
X30108Y41437D01*
X30111Y41435D01*
X30111Y41434D01*
X30111Y41434D01*
X30112Y41433D01*
X30113Y41433D01*
X30114Y41431D01*
X30116Y41430D01*
X30119Y41426D01*
X30122Y41421D01*
X30124Y41415D01*
X30127Y41408D01*
X30129Y41400D01*
X30105Y41398D01*
Y41398D01*
X30105Y41398D01*
X30104Y41400D01*
X30104Y41403D01*
X30102Y41406D01*
X30101Y41409D01*
X30100Y41412D01*
X30098Y41415D01*
X30096Y41418D01*
X30095Y41418D01*
X30094Y41420D01*
X30092Y41421D01*
X30089Y41423D01*
X30086Y41425D01*
X30082Y41426D01*
X30077Y41428D01*
X30072Y41428D01*
X30070D01*
X30068Y41428D01*
X30066Y41427D01*
X30062Y41426D01*
X30059Y41425D01*
X30056Y41424D01*
X30052Y41422D01*
X30052Y41421D01*
X30050Y41420D01*
X30048Y41418D01*
X30046Y41416D01*
X30043Y41412D01*
X30040Y41408D01*
X30037Y41403D01*
X30035Y41398D01*
Y41398D01*
X30034Y41397D01*
X30034Y41396D01*
X30034Y41395D01*
X30033Y41393D01*
X30033Y41392D01*
X30032Y41389D01*
X30032Y41387D01*
X30031Y41384D01*
X30030Y41380D01*
X30030Y41377D01*
X30029Y41373D01*
X30029Y41368D01*
X30029Y41364D01*
X30028Y41359D01*
Y41354D01*
X30029Y41354D01*
X30030Y41356D01*
X30032Y41358D01*
X30034Y41361D01*
X30037Y41364D01*
X30040Y41367D01*
X30044Y41370D01*
X30049Y41373D01*
X30049D01*
X30049Y41373D01*
X30051Y41374D01*
X30053Y41375D01*
X30057Y41376D01*
X30061Y41377D01*
X30065Y41378D01*
X30070Y41379D01*
X30075Y41379D01*
X30077D01*
X30079Y41379D01*
X30081Y41379D01*
X30083Y41379D01*
X30086Y41378D01*
X30089Y41377D01*
X30095Y41375D01*
X30098Y41374D01*
X30102Y41372D01*
X30105Y41370D01*
X30109Y41368D01*
X30112Y41365D01*
X30115Y41362D01*
X30115Y41362D01*
X30116Y41361D01*
X30117Y41360D01*
X30117Y41359D01*
X30119Y41357D01*
X30120Y41355D01*
X30122Y41352D01*
X30123Y41350D01*
X30125Y41347D01*
X30126Y41343D01*
X30128Y41339D01*
X30129Y41336D01*
X30130Y41331D01*
X30131Y41327D01*
X30131Y41322D01*
X30132Y41317D01*
Y41317D01*
Y41316D01*
Y41315D01*
Y41314D01*
X30131Y41312D01*
Y41311D01*
X30130Y41306D01*
X30130Y41301D01*
X30128Y41295D01*
X30126Y41289D01*
X30124Y41284D01*
Y41283D01*
X30123Y41283D01*
X30123Y41282D01*
X30122Y41281D01*
X30120Y41278D01*
X30118Y41275D01*
X30115Y41271D01*
X30111Y41267D01*
X30107Y41263D01*
X30102Y41260D01*
X30102D01*
X30102Y41259D01*
X30101Y41259D01*
X30100Y41259D01*
X30097Y41257D01*
X30093Y41256D01*
X30089Y41254D01*
X30083Y41253D01*
X30078Y41252D01*
X30071Y41252D01*
X30070D01*
X30068Y41252D01*
X30066D01*
X30064Y41252D01*
X30061Y41253D01*
X30058Y41254D01*
X30054Y41254D01*
X30050Y41256D01*
X30047Y41257D01*
X30043Y41259D01*
X30038Y41261D01*
X30035Y41263D01*
X30031Y41266D01*
X30027Y41269D01*
X30023Y41273D01*
X30023Y41274D01*
X30022Y41274D01*
X30022Y41275D01*
X30020Y41277D01*
X30019Y41280D01*
X30017Y41283D01*
X30016Y41286D01*
X30014Y41290D01*
X30012Y41295D01*
X30011Y41300D01*
X30009Y41306D01*
X30008Y41312D01*
X30006Y41320D01*
X30006Y41327D01*
X30005Y41336D01*
X30005Y41344D01*
Y41345D01*
Y41345D01*
Y41346D01*
Y41347D01*
X30005Y41350D01*
Y41354D01*
X30005Y41358D01*
X30006Y41363D01*
X30006Y41369D01*
X30007Y41375D01*
X30008Y41382D01*
X30010Y41389D01*
X30011Y41395D01*
X30013Y41402D01*
X30016Y41408D01*
X30019Y41415D01*
X30022Y41420D01*
X30025Y41425D01*
X30025Y41426D01*
X30026Y41426D01*
X30027Y41427D01*
X30029Y41429D01*
X30030Y41431D01*
X30032Y41432D01*
X30035Y41434D01*
X30038Y41436D01*
X30041Y41438D01*
X30045Y41441D01*
X30049Y41442D01*
X30053Y41444D01*
X30058Y41446D01*
X30063Y41447D01*
X30068Y41447D01*
X30074Y41448D01*
X30076D01*
X30078Y41447D01*
D02*
G37*
G36*
X29974Y41316D02*
Y41316D01*
Y41315D01*
Y41314D01*
Y41312D01*
X29974Y41310D01*
Y41308D01*
X29973Y41302D01*
X29973Y41296D01*
X29971Y41290D01*
X29970Y41284D01*
X29968Y41279D01*
Y41278D01*
X29968Y41278D01*
X29967Y41276D01*
X29965Y41274D01*
X29963Y41271D01*
X29961Y41268D01*
X29958Y41265D01*
X29954Y41261D01*
X29949Y41259D01*
X29949Y41258D01*
X29947Y41257D01*
X29945Y41256D01*
X29941Y41255D01*
X29937Y41254D01*
X29932Y41253D01*
X29926Y41252D01*
X29920Y41252D01*
X29917D01*
X29916Y41252D01*
X29914Y41252D01*
X29911Y41252D01*
X29906Y41254D01*
X29899Y41255D01*
X29893Y41258D01*
X29890Y41259D01*
X29887Y41261D01*
X29884Y41264D01*
X29881Y41266D01*
X29881Y41266D01*
X29881Y41267D01*
X29880Y41268D01*
X29879Y41269D01*
X29878Y41270D01*
X29877Y41272D01*
X29876Y41274D01*
X29875Y41277D01*
X29873Y41280D01*
X29872Y41283D01*
X29871Y41286D01*
X29870Y41290D01*
X29870Y41294D01*
X29869Y41299D01*
X29868Y41304D01*
Y41309D01*
X29891Y41312D01*
Y41312D01*
Y41311D01*
Y41310D01*
X29892Y41309D01*
X29892Y41307D01*
Y41305D01*
X29893Y41300D01*
X29894Y41295D01*
X29895Y41290D01*
X29897Y41286D01*
X29898Y41284D01*
X29899Y41282D01*
X29900Y41282D01*
X29901Y41281D01*
X29903Y41280D01*
X29905Y41279D01*
X29908Y41277D01*
X29911Y41276D01*
X29915Y41275D01*
X29920Y41274D01*
X29921D01*
X29923Y41275D01*
X29925Y41275D01*
X29928Y41275D01*
X29931Y41276D01*
X29934Y41277D01*
X29936Y41279D01*
X29937Y41279D01*
X29937Y41279D01*
X29939Y41280D01*
X29940Y41282D01*
X29942Y41284D01*
X29943Y41285D01*
X29945Y41288D01*
X29946Y41290D01*
Y41291D01*
X29946Y41292D01*
X29947Y41294D01*
X29947Y41296D01*
X29948Y41300D01*
X29948Y41304D01*
X29948Y41309D01*
Y41315D01*
Y41447D01*
X29974D01*
Y41316D01*
D02*
G37*
G36*
X35723Y41317D02*
Y41316D01*
Y41316D01*
Y41315D01*
Y41313D01*
X35723Y41311D01*
Y41308D01*
X35722Y41303D01*
X35722Y41297D01*
X35721Y41291D01*
X35719Y41285D01*
X35717Y41279D01*
Y41279D01*
X35717Y41279D01*
X35716Y41277D01*
X35715Y41275D01*
X35713Y41272D01*
X35710Y41269D01*
X35707Y41266D01*
X35703Y41262D01*
X35699Y41259D01*
X35698Y41259D01*
X35696Y41258D01*
X35694Y41257D01*
X35690Y41256D01*
X35686Y41255D01*
X35681Y41254D01*
X35675Y41253D01*
X35669Y41252D01*
X35667D01*
X35665Y41253D01*
X35663Y41253D01*
X35661Y41253D01*
X35655Y41254D01*
X35649Y41256D01*
X35642Y41259D01*
X35639Y41260D01*
X35636Y41262D01*
X35633Y41264D01*
X35630Y41267D01*
X35630Y41267D01*
X35630Y41267D01*
X35629Y41269D01*
X35629Y41270D01*
X35627Y41271D01*
X35626Y41273D01*
X35625Y41275D01*
X35624Y41278D01*
X35623Y41280D01*
X35622Y41284D01*
X35621Y41287D01*
X35619Y41291D01*
X35619Y41295D01*
X35618Y41300D01*
X35618Y41305D01*
Y41310D01*
X35641Y41313D01*
Y41313D01*
Y41312D01*
Y41311D01*
X35641Y41310D01*
X35641Y41308D01*
Y41306D01*
X35642Y41301D01*
X35643Y41296D01*
X35645Y41291D01*
X35646Y41287D01*
X35647Y41285D01*
X35649Y41283D01*
X35649Y41283D01*
X35650Y41282D01*
X35652Y41281D01*
X35654Y41279D01*
X35657Y41278D01*
X35660Y41277D01*
X35665Y41275D01*
X35669Y41275D01*
X35671D01*
X35672Y41275D01*
X35675Y41276D01*
X35677Y41276D01*
X35680Y41277D01*
X35683Y41278D01*
X35686Y41279D01*
X35686Y41280D01*
X35687Y41280D01*
X35688Y41281D01*
X35689Y41282D01*
X35691Y41284D01*
X35693Y41286D01*
X35694Y41289D01*
X35695Y41291D01*
Y41292D01*
X35696Y41293D01*
X35696Y41295D01*
X35696Y41297D01*
X35697Y41300D01*
X35697Y41305D01*
X35698Y41310D01*
Y41315D01*
Y41448D01*
X35723D01*
Y41317D01*
D02*
G37*
G36*
X35873Y41423D02*
X35796D01*
X35786Y41371D01*
X35786Y41371D01*
X35787Y41371D01*
X35788Y41372D01*
X35789Y41373D01*
X35791Y41374D01*
X35793Y41375D01*
X35797Y41377D01*
X35803Y41379D01*
X35809Y41381D01*
X35816Y41382D01*
X35819Y41383D01*
X35825D01*
X35827Y41383D01*
X35829Y41382D01*
X35831Y41382D01*
X35834Y41382D01*
X35837Y41381D01*
X35844Y41379D01*
X35847Y41377D01*
X35851Y41375D01*
X35855Y41374D01*
X35858Y41371D01*
X35861Y41369D01*
X35865Y41366D01*
X35865Y41365D01*
X35866Y41365D01*
X35866Y41364D01*
X35868Y41362D01*
X35869Y41361D01*
X35870Y41359D01*
X35872Y41356D01*
X35874Y41353D01*
X35875Y41350D01*
X35877Y41347D01*
X35878Y41343D01*
X35879Y41339D01*
X35881Y41335D01*
X35881Y41330D01*
X35882Y41326D01*
X35882Y41321D01*
Y41320D01*
Y41320D01*
Y41318D01*
X35882Y41316D01*
X35882Y41314D01*
X35881Y41311D01*
X35881Y41308D01*
X35880Y41305D01*
X35879Y41298D01*
X35876Y41291D01*
X35874Y41287D01*
X35872Y41283D01*
X35870Y41279D01*
X35867Y41276D01*
X35867Y41275D01*
X35866Y41275D01*
X35865Y41274D01*
X35864Y41272D01*
X35862Y41270D01*
X35860Y41268D01*
X35857Y41266D01*
X35854Y41264D01*
X35850Y41262D01*
X35847Y41260D01*
X35842Y41258D01*
X35838Y41256D01*
X35833Y41255D01*
X35828Y41254D01*
X35822Y41253D01*
X35817Y41252D01*
X35814D01*
X35812Y41253D01*
X35810Y41253D01*
X35807Y41253D01*
X35804Y41254D01*
X35801Y41254D01*
X35794Y41256D01*
X35788Y41259D01*
X35784Y41260D01*
X35780Y41262D01*
X35777Y41264D01*
X35774Y41267D01*
X35773Y41267D01*
X35773Y41267D01*
X35772Y41269D01*
X35771Y41270D01*
X35770Y41271D01*
X35768Y41273D01*
X35767Y41275D01*
X35765Y41277D01*
X35764Y41280D01*
X35762Y41283D01*
X35759Y41290D01*
X35757Y41297D01*
X35756Y41302D01*
X35755Y41306D01*
X35780Y41308D01*
Y41308D01*
Y41307D01*
X35780Y41306D01*
X35780Y41305D01*
X35781Y41302D01*
X35782Y41298D01*
X35784Y41293D01*
X35786Y41289D01*
X35789Y41285D01*
X35792Y41281D01*
X35793Y41280D01*
X35794Y41279D01*
X35796Y41278D01*
X35799Y41276D01*
X35802Y41275D01*
X35807Y41273D01*
X35811Y41272D01*
X35817Y41272D01*
X35818D01*
X35819Y41272D01*
X35823Y41272D01*
X35827Y41274D01*
X35831Y41275D01*
X35836Y41277D01*
X35841Y41280D01*
X35843Y41282D01*
X35845Y41285D01*
X35846Y41285D01*
X35846Y41285D01*
X35847Y41286D01*
X35847Y41287D01*
X35849Y41290D01*
X35852Y41294D01*
X35853Y41298D01*
X35855Y41304D01*
X35857Y41311D01*
X35857Y41315D01*
Y41319D01*
Y41319D01*
Y41320D01*
Y41321D01*
X35857Y41322D01*
Y41324D01*
X35857Y41326D01*
X35856Y41330D01*
X35855Y41335D01*
X35853Y41341D01*
X35850Y41346D01*
X35846Y41350D01*
Y41351D01*
X35845Y41351D01*
X35844Y41352D01*
X35842Y41354D01*
X35838Y41356D01*
X35834Y41358D01*
X35829Y41360D01*
X35823Y41362D01*
X35820Y41362D01*
X35814D01*
X35812Y41362D01*
X35809Y41362D01*
X35806Y41361D01*
X35803Y41360D01*
X35799Y41359D01*
X35796Y41357D01*
X35795Y41357D01*
X35794Y41356D01*
X35793Y41355D01*
X35790Y41353D01*
X35788Y41351D01*
X35786Y41349D01*
X35783Y41346D01*
X35781Y41343D01*
X35759Y41346D01*
X35778Y41445D01*
X35873D01*
Y41423D01*
D02*
G37*
G36*
X41374Y41317D02*
Y41316D01*
Y41316D01*
Y41315D01*
Y41313D01*
X41374Y41311D01*
Y41308D01*
X41374Y41303D01*
X41373Y41297D01*
X41372Y41291D01*
X41370Y41285D01*
X41368Y41279D01*
Y41279D01*
X41368Y41279D01*
X41367Y41277D01*
X41366Y41275D01*
X41364Y41272D01*
X41361Y41269D01*
X41358Y41266D01*
X41354Y41262D01*
X41350Y41259D01*
X41349Y41259D01*
X41348Y41258D01*
X41345Y41257D01*
X41341Y41256D01*
X41337Y41255D01*
X41332Y41254D01*
X41326Y41253D01*
X41320Y41252D01*
X41318D01*
X41316Y41253D01*
X41314Y41253D01*
X41312Y41253D01*
X41306Y41254D01*
X41300Y41256D01*
X41293Y41259D01*
X41290Y41260D01*
X41287Y41262D01*
X41284Y41264D01*
X41282Y41267D01*
X41281Y41267D01*
X41281Y41267D01*
X41280Y41269D01*
X41280Y41270D01*
X41279Y41271D01*
X41277Y41273D01*
X41276Y41275D01*
X41275Y41278D01*
X41274Y41280D01*
X41273Y41284D01*
X41272Y41287D01*
X41270Y41291D01*
X41270Y41295D01*
X41269Y41300D01*
X41269Y41305D01*
Y41310D01*
X41292Y41313D01*
Y41313D01*
Y41312D01*
Y41311D01*
X41292Y41310D01*
X41292Y41308D01*
Y41306D01*
X41293Y41301D01*
X41294Y41296D01*
X41296Y41291D01*
X41297Y41287D01*
X41298Y41285D01*
X41300Y41283D01*
X41300Y41283D01*
X41301Y41282D01*
X41303Y41281D01*
X41305Y41279D01*
X41308Y41278D01*
X41311Y41277D01*
X41316Y41275D01*
X41320Y41275D01*
X41322D01*
X41323Y41275D01*
X41326Y41276D01*
X41328Y41276D01*
X41331Y41277D01*
X41334Y41278D01*
X41337Y41279D01*
X41337Y41280D01*
X41338Y41280D01*
X41339Y41281D01*
X41341Y41282D01*
X41342Y41284D01*
X41344Y41286D01*
X41345Y41289D01*
X41346Y41291D01*
Y41292D01*
X41347Y41293D01*
X41347Y41295D01*
X41348Y41297D01*
X41348Y41300D01*
X41348Y41305D01*
X41349Y41310D01*
Y41315D01*
Y41448D01*
X41374D01*
Y41317D01*
D02*
G37*
G36*
X41505Y41323D02*
X41531D01*
Y41302D01*
X41505D01*
Y41256D01*
X41482D01*
Y41302D01*
X41398D01*
Y41323D01*
X41486Y41448D01*
X41505D01*
Y41323D01*
D02*
G37*
G36*
X29972Y21648D02*
X29975Y21647D01*
X29980Y21646D01*
X29985Y21645D01*
X29990Y21643D01*
X29995Y21641D01*
X29995D01*
X29995Y21641D01*
X29997Y21640D01*
X29999Y21638D01*
X30002Y21636D01*
X30006Y21634D01*
X30009Y21630D01*
X30012Y21627D01*
X30015Y21623D01*
X30015Y21622D01*
X30016Y21621D01*
X30017Y21618D01*
X30019Y21615D01*
X30020Y21612D01*
X30021Y21607D01*
X30022Y21603D01*
X30022Y21598D01*
Y21598D01*
Y21596D01*
X30022Y21594D01*
X30021Y21591D01*
X30020Y21587D01*
X30019Y21583D01*
X30017Y21579D01*
X30015Y21575D01*
X30015Y21575D01*
X30014Y21574D01*
X30012Y21572D01*
X30010Y21570D01*
X30007Y21567D01*
X30004Y21564D01*
X30000Y21562D01*
X29996Y21559D01*
X29996D01*
X29996Y21559D01*
X29997Y21559D01*
X29998Y21558D01*
X30001Y21557D01*
X30005Y21556D01*
X30010Y21553D01*
X30014Y21551D01*
X30018Y21547D01*
X30022Y21543D01*
X30022Y21542D01*
X30024Y21541D01*
X30025Y21538D01*
X30027Y21534D01*
X30029Y21530D01*
X30030Y21525D01*
X30031Y21519D01*
X30032Y21512D01*
Y21512D01*
Y21511D01*
Y21509D01*
X30031Y21508D01*
X30031Y21506D01*
X30030Y21503D01*
X30030Y21500D01*
X30029Y21497D01*
X30027Y21491D01*
X30025Y21487D01*
X30024Y21484D01*
X30022Y21480D01*
X30019Y21476D01*
X30016Y21473D01*
X30013Y21470D01*
X30013Y21469D01*
X30012Y21469D01*
X30011Y21468D01*
X30010Y21467D01*
X30008Y21465D01*
X30006Y21464D01*
X30003Y21462D01*
X30000Y21461D01*
X29997Y21459D01*
X29994Y21458D01*
X29990Y21456D01*
X29986Y21455D01*
X29981Y21454D01*
X29977Y21453D01*
X29972Y21452D01*
X29967Y21452D01*
X29964D01*
X29963Y21452D01*
X29960Y21453D01*
X29958Y21453D01*
X29955Y21453D01*
X29952Y21454D01*
X29945Y21456D01*
X29938Y21458D01*
X29935Y21460D01*
X29932Y21462D01*
X29928Y21465D01*
X29925Y21467D01*
X29925Y21467D01*
X29924Y21468D01*
X29923Y21469D01*
X29922Y21470D01*
X29921Y21471D01*
X29920Y21473D01*
X29918Y21475D01*
X29916Y21478D01*
X29915Y21480D01*
X29913Y21483D01*
X29910Y21490D01*
X29907Y21498D01*
X29907Y21502D01*
X29906Y21506D01*
X29930Y21509D01*
Y21509D01*
X29930Y21508D01*
X29930Y21507D01*
X29930Y21506D01*
X29931Y21504D01*
X29931Y21502D01*
X29933Y21498D01*
X29935Y21493D01*
X29937Y21488D01*
X29940Y21484D01*
X29943Y21480D01*
X29944Y21480D01*
X29945Y21479D01*
X29947Y21477D01*
X29950Y21476D01*
X29953Y21474D01*
X29957Y21473D01*
X29962Y21472D01*
X29967Y21471D01*
X29969D01*
X29970Y21472D01*
X29973Y21472D01*
X29977Y21473D01*
X29981Y21474D01*
X29986Y21476D01*
X29991Y21479D01*
X29995Y21483D01*
X29996Y21483D01*
X29997Y21485D01*
X29999Y21488D01*
X30001Y21491D01*
X30003Y21495D01*
X30005Y21500D01*
X30006Y21505D01*
X30007Y21511D01*
Y21512D01*
Y21512D01*
Y21513D01*
X30006Y21514D01*
X30006Y21517D01*
X30005Y21521D01*
X30004Y21525D01*
X30002Y21530D01*
X29999Y21534D01*
X29996Y21538D01*
X29995Y21539D01*
X29994Y21540D01*
X29992Y21542D01*
X29989Y21543D01*
X29985Y21545D01*
X29980Y21547D01*
X29975Y21548D01*
X29969Y21549D01*
X29966D01*
X29965Y21548D01*
X29962Y21548D01*
X29959Y21548D01*
X29956Y21547D01*
X29952Y21546D01*
X29955Y21567D01*
X29957D01*
X29958Y21567D01*
X29961D01*
X29964Y21567D01*
X29968Y21568D01*
X29972Y21569D01*
X29977Y21570D01*
X29981Y21572D01*
X29986Y21575D01*
X29986D01*
X29986Y21575D01*
X29988Y21576D01*
X29990Y21578D01*
X29992Y21580D01*
X29994Y21584D01*
X29996Y21588D01*
X29997Y21593D01*
X29998Y21596D01*
Y21599D01*
Y21599D01*
Y21599D01*
Y21601D01*
X29997Y21603D01*
X29997Y21606D01*
X29996Y21609D01*
X29994Y21613D01*
X29992Y21617D01*
X29989Y21620D01*
X29989Y21620D01*
X29988Y21621D01*
X29986Y21623D01*
X29983Y21624D01*
X29980Y21626D01*
X29976Y21627D01*
X29971Y21628D01*
X29966Y21629D01*
X29964D01*
X29962Y21628D01*
X29958Y21627D01*
X29955Y21626D01*
X29951Y21625D01*
X29947Y21623D01*
X29944Y21620D01*
X29943Y21620D01*
X29942Y21618D01*
X29941Y21616D01*
X29939Y21614D01*
X29937Y21610D01*
X29935Y21606D01*
X29933Y21600D01*
X29932Y21594D01*
X29909Y21598D01*
Y21599D01*
X29909Y21599D01*
X29909Y21601D01*
X29909Y21602D01*
X29910Y21604D01*
X29911Y21606D01*
X29912Y21612D01*
X29915Y21618D01*
X29919Y21624D01*
X29923Y21630D01*
X29928Y21635D01*
X29928Y21635D01*
X29929Y21635D01*
X29930Y21636D01*
X29931Y21637D01*
X29932Y21638D01*
X29934Y21639D01*
X29936Y21640D01*
X29938Y21642D01*
X29944Y21644D01*
X29950Y21646D01*
X29958Y21647D01*
X29962Y21648D01*
X29969D01*
X29972Y21648D01*
D02*
G37*
G36*
X29874Y21516D02*
Y21516D01*
Y21515D01*
Y21514D01*
Y21512D01*
X29874Y21510D01*
Y21508D01*
X29873Y21503D01*
X29873Y21497D01*
X29871Y21490D01*
X29870Y21484D01*
X29868Y21479D01*
Y21479D01*
X29868Y21478D01*
X29867Y21477D01*
X29865Y21475D01*
X29863Y21471D01*
X29861Y21468D01*
X29858Y21465D01*
X29854Y21462D01*
X29849Y21459D01*
X29849Y21459D01*
X29847Y21458D01*
X29845Y21457D01*
X29841Y21456D01*
X29837Y21454D01*
X29832Y21453D01*
X29826Y21452D01*
X29820Y21452D01*
X29817D01*
X29816Y21452D01*
X29814Y21453D01*
X29811Y21453D01*
X29806Y21454D01*
X29799Y21456D01*
X29793Y21458D01*
X29790Y21460D01*
X29787Y21462D01*
X29784Y21464D01*
X29781Y21466D01*
X29781Y21467D01*
X29781Y21467D01*
X29780Y21468D01*
X29779Y21469D01*
X29778Y21471D01*
X29777Y21473D01*
X29776Y21475D01*
X29775Y21477D01*
X29773Y21480D01*
X29772Y21483D01*
X29771Y21487D01*
X29770Y21491D01*
X29770Y21495D01*
X29769Y21499D01*
X29768Y21504D01*
Y21509D01*
X29791Y21513D01*
Y21512D01*
Y21512D01*
Y21511D01*
X29792Y21509D01*
X29792Y21507D01*
Y21506D01*
X29793Y21501D01*
X29794Y21496D01*
X29795Y21491D01*
X29797Y21486D01*
X29798Y21484D01*
X29799Y21483D01*
X29800Y21483D01*
X29801Y21482D01*
X29802Y21480D01*
X29805Y21479D01*
X29808Y21477D01*
X29811Y21476D01*
X29815Y21475D01*
X29820Y21475D01*
X29821D01*
X29823Y21475D01*
X29825Y21475D01*
X29828Y21476D01*
X29831Y21476D01*
X29834Y21478D01*
X29836Y21479D01*
X29837Y21479D01*
X29837Y21480D01*
X29839Y21481D01*
X29840Y21482D01*
X29842Y21484D01*
X29843Y21486D01*
X29845Y21488D01*
X29846Y21491D01*
Y21491D01*
X29846Y21492D01*
X29847Y21494D01*
X29847Y21497D01*
X29848Y21500D01*
X29848Y21504D01*
X29848Y21509D01*
Y21515D01*
Y21647D01*
X29874D01*
Y21516D01*
D02*
G37*
G36*
X35625D02*
Y21516D01*
Y21515D01*
Y21514D01*
Y21512D01*
X35625Y21510D01*
Y21508D01*
X35624Y21503D01*
X35624Y21497D01*
X35622Y21490D01*
X35621Y21484D01*
X35619Y21479D01*
Y21479D01*
X35619Y21478D01*
X35618Y21477D01*
X35616Y21475D01*
X35614Y21471D01*
X35612Y21468D01*
X35609Y21465D01*
X35605Y21462D01*
X35600Y21459D01*
X35600Y21459D01*
X35598Y21458D01*
X35596Y21457D01*
X35592Y21456D01*
X35588Y21454D01*
X35583Y21453D01*
X35577Y21452D01*
X35571Y21452D01*
X35568D01*
X35567Y21452D01*
X35565Y21453D01*
X35562Y21453D01*
X35557Y21454D01*
X35550Y21456D01*
X35544Y21458D01*
X35541Y21460D01*
X35538Y21462D01*
X35535Y21464D01*
X35532Y21466D01*
X35532Y21467D01*
X35532Y21467D01*
X35531Y21468D01*
X35530Y21469D01*
X35529Y21471D01*
X35528Y21473D01*
X35527Y21475D01*
X35525Y21477D01*
X35524Y21480D01*
X35523Y21483D01*
X35522Y21487D01*
X35521Y21491D01*
X35521Y21495D01*
X35520Y21499D01*
X35519Y21504D01*
Y21509D01*
X35542Y21513D01*
Y21512D01*
Y21512D01*
Y21511D01*
X35543Y21509D01*
X35543Y21507D01*
Y21506D01*
X35544Y21501D01*
X35545Y21496D01*
X35546Y21491D01*
X35548Y21486D01*
X35549Y21484D01*
X35550Y21483D01*
X35551Y21483D01*
X35552Y21482D01*
X35553Y21480D01*
X35556Y21479D01*
X35559Y21477D01*
X35562Y21476D01*
X35566Y21475D01*
X35571Y21475D01*
X35572D01*
X35574Y21475D01*
X35576Y21475D01*
X35579Y21476D01*
X35582Y21476D01*
X35584Y21478D01*
X35587Y21479D01*
X35588Y21479D01*
X35588Y21480D01*
X35589Y21481D01*
X35591Y21482D01*
X35593Y21484D01*
X35594Y21486D01*
X35596Y21488D01*
X35597Y21491D01*
Y21491D01*
X35597Y21492D01*
X35598Y21494D01*
X35598Y21497D01*
X35599Y21500D01*
X35599Y21504D01*
X35599Y21509D01*
Y21515D01*
Y21647D01*
X35625D01*
Y21516D01*
D02*
G37*
G36*
X35725Y21648D02*
X35727Y21647D01*
X35730Y21647D01*
X35733Y21647D01*
X35736Y21646D01*
X35743Y21644D01*
X35750Y21641D01*
X35754Y21640D01*
X35758Y21638D01*
X35761Y21635D01*
X35764Y21632D01*
X35764Y21632D01*
X35765Y21632D01*
X35765Y21631D01*
X35766Y21630D01*
X35768Y21628D01*
X35769Y21626D01*
X35771Y21624D01*
X35772Y21622D01*
X35775Y21617D01*
X35778Y21610D01*
X35779Y21607D01*
X35780Y21603D01*
X35780Y21599D01*
X35780Y21595D01*
Y21594D01*
Y21593D01*
X35780Y21591D01*
X35780Y21588D01*
X35779Y21584D01*
X35778Y21580D01*
X35777Y21576D01*
X35775Y21572D01*
X35775Y21571D01*
X35775Y21570D01*
X35773Y21568D01*
X35772Y21565D01*
X35770Y21562D01*
X35767Y21557D01*
X35763Y21553D01*
X35760Y21548D01*
X35759Y21548D01*
X35758Y21546D01*
X35756Y21545D01*
X35755Y21543D01*
X35753Y21542D01*
X35751Y21540D01*
X35749Y21537D01*
X35746Y21535D01*
X35743Y21532D01*
X35740Y21529D01*
X35736Y21526D01*
X35732Y21522D01*
X35728Y21519D01*
X35724Y21515D01*
X35723Y21515D01*
X35723Y21514D01*
X35722Y21513D01*
X35720Y21512D01*
X35719Y21511D01*
X35717Y21509D01*
X35712Y21505D01*
X35707Y21501D01*
X35703Y21497D01*
X35699Y21493D01*
X35698Y21492D01*
X35696Y21491D01*
X35696Y21490D01*
X35695Y21489D01*
X35694Y21488D01*
X35693Y21487D01*
X35691Y21485D01*
X35689Y21483D01*
X35686Y21478D01*
X35781D01*
Y21455D01*
X35653D01*
Y21456D01*
Y21457D01*
Y21458D01*
X35654Y21461D01*
X35654Y21463D01*
X35655Y21466D01*
X35655Y21469D01*
X35656Y21472D01*
Y21472D01*
X35657Y21472D01*
X35657Y21474D01*
X35658Y21476D01*
X35660Y21480D01*
X35662Y21484D01*
X35665Y21488D01*
X35668Y21493D01*
X35672Y21497D01*
Y21498D01*
X35672Y21498D01*
X35674Y21499D01*
X35676Y21502D01*
X35680Y21506D01*
X35684Y21510D01*
X35689Y21515D01*
X35696Y21520D01*
X35702Y21526D01*
X35703Y21526D01*
X35704Y21527D01*
X35706Y21529D01*
X35707Y21530D01*
X35710Y21532D01*
X35713Y21535D01*
X35716Y21538D01*
X35720Y21541D01*
X35727Y21547D01*
X35734Y21554D01*
X35737Y21557D01*
X35740Y21561D01*
X35743Y21564D01*
X35745Y21567D01*
Y21567D01*
X35745Y21567D01*
X35746Y21568D01*
X35747Y21569D01*
X35748Y21572D01*
X35751Y21576D01*
X35753Y21580D01*
X35755Y21585D01*
X35756Y21590D01*
X35756Y21595D01*
Y21596D01*
Y21596D01*
X35756Y21598D01*
X35756Y21600D01*
X35755Y21603D01*
X35754Y21607D01*
X35752Y21611D01*
X35749Y21615D01*
X35746Y21619D01*
X35745Y21619D01*
X35744Y21621D01*
X35742Y21622D01*
X35739Y21624D01*
X35735Y21625D01*
X35731Y21627D01*
X35725Y21628D01*
X35720Y21629D01*
X35718D01*
X35717Y21628D01*
X35714Y21628D01*
X35710Y21627D01*
X35706Y21626D01*
X35701Y21624D01*
X35696Y21622D01*
X35692Y21618D01*
X35692Y21618D01*
X35691Y21616D01*
X35689Y21614D01*
X35687Y21611D01*
X35685Y21607D01*
X35684Y21602D01*
X35683Y21596D01*
X35682Y21590D01*
X35658Y21593D01*
Y21593D01*
X35658Y21594D01*
Y21595D01*
X35658Y21597D01*
X35659Y21599D01*
X35660Y21602D01*
X35660Y21605D01*
X35661Y21608D01*
X35663Y21614D01*
X35667Y21621D01*
X35669Y21624D01*
X35671Y21628D01*
X35674Y21631D01*
X35676Y21634D01*
X35677Y21634D01*
X35677Y21634D01*
X35678Y21635D01*
X35680Y21636D01*
X35681Y21637D01*
X35683Y21638D01*
X35685Y21639D01*
X35688Y21641D01*
X35691Y21642D01*
X35694Y21643D01*
X35698Y21645D01*
X35702Y21646D01*
X35706Y21647D01*
X35711Y21647D01*
X35715Y21648D01*
X35720Y21648D01*
X35723D01*
X35725Y21648D01*
D02*
G37*
G36*
X41343Y21516D02*
Y21516D01*
Y21515D01*
Y21514D01*
Y21512D01*
X41342Y21510D01*
Y21508D01*
X41342Y21503D01*
X41341Y21497D01*
X41340Y21490D01*
X41338Y21484D01*
X41336Y21479D01*
Y21479D01*
X41336Y21478D01*
X41335Y21477D01*
X41334Y21475D01*
X41332Y21471D01*
X41329Y21468D01*
X41326Y21465D01*
X41322Y21462D01*
X41318Y21459D01*
X41317Y21459D01*
X41316Y21458D01*
X41313Y21457D01*
X41310Y21456D01*
X41305Y21454D01*
X41300Y21453D01*
X41295Y21452D01*
X41289Y21452D01*
X41286D01*
X41284Y21452D01*
X41282Y21453D01*
X41280Y21453D01*
X41274Y21454D01*
X41268Y21456D01*
X41262Y21458D01*
X41258Y21460D01*
X41255Y21462D01*
X41252Y21464D01*
X41250Y21466D01*
X41249Y21467D01*
X41249Y21467D01*
X41249Y21468D01*
X41248Y21469D01*
X41247Y21471D01*
X41246Y21473D01*
X41244Y21475D01*
X41243Y21477D01*
X41242Y21480D01*
X41241Y21483D01*
X41240Y21487D01*
X41239Y21491D01*
X41238Y21495D01*
X41237Y21499D01*
X41237Y21504D01*
Y21509D01*
X41260Y21513D01*
Y21512D01*
Y21512D01*
Y21511D01*
X41260Y21509D01*
X41261Y21507D01*
Y21506D01*
X41261Y21501D01*
X41262Y21496D01*
X41264Y21491D01*
X41266Y21486D01*
X41267Y21484D01*
X41268Y21483D01*
X41268Y21483D01*
X41269Y21482D01*
X41271Y21480D01*
X41273Y21479D01*
X41276Y21477D01*
X41280Y21476D01*
X41284Y21475D01*
X41288Y21475D01*
X41290D01*
X41292Y21475D01*
X41294Y21475D01*
X41297Y21476D01*
X41299Y21476D01*
X41302Y21478D01*
X41305Y21479D01*
X41305Y21479D01*
X41306Y21480D01*
X41307Y21481D01*
X41309Y21482D01*
X41310Y21484D01*
X41312Y21486D01*
X41313Y21488D01*
X41314Y21491D01*
Y21491D01*
X41315Y21492D01*
X41315Y21494D01*
X41316Y21497D01*
X41316Y21500D01*
X41316Y21504D01*
X41317Y21509D01*
Y21515D01*
Y21647D01*
X41343D01*
Y21516D01*
D02*
G37*
G36*
X41463Y21455D02*
X41439D01*
Y21605D01*
X41439Y21605D01*
X41438Y21604D01*
X41436Y21602D01*
X41433Y21600D01*
X41430Y21598D01*
X41426Y21595D01*
X41422Y21592D01*
X41417Y21589D01*
X41417D01*
X41416Y21589D01*
X41415Y21588D01*
X41412Y21586D01*
X41409Y21584D01*
X41405Y21583D01*
X41401Y21581D01*
X41397Y21579D01*
X41392Y21577D01*
Y21600D01*
X41393D01*
X41393Y21600D01*
X41394Y21601D01*
X41396Y21601D01*
X41397Y21602D01*
X41399Y21603D01*
X41404Y21606D01*
X41410Y21609D01*
X41415Y21613D01*
X41421Y21617D01*
X41427Y21622D01*
X41427Y21622D01*
X41427Y21623D01*
X41428Y21624D01*
X41429Y21624D01*
X41432Y21627D01*
X41435Y21630D01*
X41438Y21634D01*
X41442Y21639D01*
X41445Y21643D01*
X41448Y21648D01*
X41463D01*
Y21455D01*
D02*
G37*
G36*
X34836Y30004D02*
X34813D01*
Y30154D01*
X34812Y30153D01*
X34811Y30152D01*
X34809Y30151D01*
X34807Y30149D01*
X34803Y30146D01*
X34800Y30143D01*
X34795Y30140D01*
X34790Y30137D01*
X34790D01*
X34790Y30137D01*
X34788Y30136D01*
X34785Y30134D01*
X34782Y30133D01*
X34778Y30131D01*
X34774Y30129D01*
X34770Y30127D01*
X34766Y30125D01*
Y30148D01*
X34766D01*
X34766Y30149D01*
X34767Y30149D01*
X34769Y30150D01*
X34771Y30151D01*
X34772Y30152D01*
X34777Y30154D01*
X34783Y30157D01*
X34788Y30161D01*
X34794Y30166D01*
X34800Y30171D01*
X34800Y30171D01*
X34800Y30171D01*
X34801Y30172D01*
X34802Y30173D01*
X34805Y30175D01*
X34808Y30179D01*
X34811Y30183D01*
X34815Y30187D01*
X34818Y30192D01*
X34821Y30196D01*
X34836D01*
Y30004D01*
D02*
G37*
G36*
X34643Y30195D02*
X34648Y30195D01*
X34654Y30194D01*
X34659Y30193D01*
X34664Y30193D01*
X34664D01*
X34665Y30192D01*
X34666D01*
X34667Y30192D01*
X34670Y30191D01*
X34674Y30190D01*
X34678Y30188D01*
X34683Y30185D01*
X34687Y30182D01*
X34692Y30179D01*
X34692Y30179D01*
X34692Y30178D01*
X34693Y30177D01*
X34694Y30177D01*
X34697Y30174D01*
X34700Y30170D01*
X34704Y30165D01*
X34708Y30160D01*
X34711Y30153D01*
X34715Y30146D01*
Y30146D01*
X34715Y30145D01*
X34715Y30144D01*
X34716Y30143D01*
X34716Y30141D01*
X34717Y30138D01*
X34718Y30136D01*
X34718Y30133D01*
X34719Y30130D01*
X34720Y30126D01*
X34721Y30118D01*
X34722Y30110D01*
X34722Y30100D01*
Y30100D01*
Y30100D01*
Y30098D01*
Y30097D01*
X34722Y30095D01*
Y30093D01*
X34722Y30087D01*
X34721Y30081D01*
X34720Y30075D01*
X34719Y30068D01*
X34717Y30062D01*
Y30061D01*
X34717Y30061D01*
X34716Y30060D01*
X34716Y30059D01*
X34715Y30056D01*
X34713Y30052D01*
X34712Y30048D01*
X34710Y30043D01*
X34707Y30038D01*
X34704Y30034D01*
X34704Y30033D01*
X34703Y30032D01*
X34701Y30030D01*
X34699Y30028D01*
X34696Y30025D01*
X34693Y30022D01*
X34690Y30019D01*
X34687Y30016D01*
X34686Y30016D01*
X34685Y30015D01*
X34683Y30014D01*
X34680Y30013D01*
X34677Y30011D01*
X34673Y30010D01*
X34669Y30008D01*
X34664Y30007D01*
X34663D01*
X34662Y30007D01*
X34661Y30006D01*
X34659Y30006D01*
X34655Y30005D01*
X34650Y30005D01*
X34645Y30004D01*
X34639Y30004D01*
X34633Y30004D01*
X34564D01*
Y30195D01*
X34638D01*
X34643Y30195D01*
D02*
G37*
G36*
X39836Y37999D02*
X39839Y37999D01*
X39842Y37998D01*
X39845Y37998D01*
X39849Y37997D01*
X39856Y37996D01*
X39864Y37993D01*
X39869Y37991D01*
X39872Y37989D01*
X39876Y37987D01*
X39880Y37984D01*
X39880Y37984D01*
X39881Y37984D01*
X39882Y37983D01*
X39884Y37982D01*
X39885Y37980D01*
X39887Y37978D01*
X39889Y37976D01*
X39891Y37974D01*
X39893Y37971D01*
X39895Y37968D01*
X39898Y37965D01*
X39900Y37961D01*
X39902Y37957D01*
X39904Y37953D01*
X39906Y37948D01*
X39908Y37943D01*
X39883Y37937D01*
Y37938D01*
X39882Y37938D01*
X39882Y37939D01*
X39881Y37941D01*
X39881Y37942D01*
X39880Y37945D01*
X39878Y37949D01*
X39875Y37954D01*
X39872Y37959D01*
X39867Y37964D01*
X39863Y37968D01*
X39862Y37968D01*
X39861Y37970D01*
X39858Y37971D01*
X39854Y37973D01*
X39850Y37975D01*
X39844Y37976D01*
X39838Y37977D01*
X39831Y37978D01*
X39829D01*
X39828Y37977D01*
X39826D01*
X39823Y37977D01*
X39818Y37976D01*
X39812Y37975D01*
X39806Y37973D01*
X39800Y37970D01*
X39794Y37967D01*
X39794D01*
X39793Y37966D01*
X39792Y37965D01*
X39789Y37963D01*
X39786Y37959D01*
X39782Y37955D01*
X39779Y37950D01*
X39776Y37945D01*
X39773Y37938D01*
Y37938D01*
X39773Y37937D01*
X39773Y37937D01*
X39772Y37935D01*
X39772Y37934D01*
X39771Y37932D01*
X39771Y37927D01*
X39769Y37921D01*
X39768Y37915D01*
X39768Y37909D01*
X39767Y37901D01*
Y37901D01*
Y37900D01*
Y37899D01*
Y37897D01*
X39768Y37895D01*
Y37893D01*
X39768Y37890D01*
X39768Y37887D01*
X39769Y37880D01*
X39771Y37873D01*
X39772Y37866D01*
X39774Y37859D01*
Y37858D01*
X39775Y37858D01*
X39775Y37857D01*
X39776Y37856D01*
X39777Y37852D01*
X39780Y37848D01*
X39783Y37844D01*
X39787Y37839D01*
X39791Y37835D01*
X39797Y37831D01*
X39797D01*
X39797Y37831D01*
X39798Y37830D01*
X39799Y37830D01*
X39801Y37829D01*
X39802Y37829D01*
X39806Y37827D01*
X39811Y37825D01*
X39817Y37824D01*
X39823Y37823D01*
X39829Y37822D01*
X39831D01*
X39833Y37823D01*
X39835D01*
X39837Y37823D01*
X39842Y37824D01*
X39848Y37825D01*
X39853Y37828D01*
X39859Y37831D01*
X39862Y37832D01*
X39865Y37835D01*
X39866Y37835D01*
X39866Y37835D01*
X39867Y37836D01*
X39868Y37837D01*
X39869Y37838D01*
X39870Y37840D01*
X39872Y37842D01*
X39873Y37844D01*
X39875Y37846D01*
X39877Y37849D01*
X39879Y37852D01*
X39880Y37855D01*
X39882Y37859D01*
X39883Y37863D01*
X39884Y37867D01*
X39885Y37871D01*
X39911Y37865D01*
Y37865D01*
X39911Y37863D01*
X39910Y37862D01*
X39909Y37860D01*
X39908Y37857D01*
X39907Y37854D01*
X39906Y37851D01*
X39904Y37847D01*
X39900Y37839D01*
X39895Y37832D01*
X39892Y37828D01*
X39889Y37824D01*
X39886Y37820D01*
X39882Y37817D01*
X39882Y37817D01*
X39881Y37816D01*
X39880Y37816D01*
X39879Y37815D01*
X39876Y37813D01*
X39874Y37812D01*
X39871Y37811D01*
X39868Y37809D01*
X39864Y37807D01*
X39861Y37806D01*
X39856Y37805D01*
X39852Y37803D01*
X39847Y37802D01*
X39842Y37802D01*
X39837Y37801D01*
X39831Y37801D01*
X39828D01*
X39826Y37801D01*
X39824D01*
X39821Y37801D01*
X39817Y37802D01*
X39813Y37803D01*
X39805Y37804D01*
X39797Y37806D01*
X39789Y37809D01*
X39785Y37811D01*
X39781Y37813D01*
X39781Y37814D01*
X39780Y37814D01*
X39779Y37815D01*
X39778Y37816D01*
X39776Y37817D01*
X39774Y37819D01*
X39772Y37820D01*
X39770Y37823D01*
X39768Y37825D01*
X39765Y37828D01*
X39760Y37834D01*
X39756Y37842D01*
X39751Y37850D01*
Y37850D01*
X39751Y37851D01*
X39751Y37852D01*
X39750Y37854D01*
X39749Y37856D01*
X39748Y37859D01*
X39747Y37862D01*
X39746Y37865D01*
X39746Y37869D01*
X39744Y37873D01*
X39743Y37882D01*
X39742Y37891D01*
X39741Y37901D01*
Y37902D01*
Y37903D01*
Y37904D01*
X39742Y37906D01*
Y37909D01*
X39742Y37912D01*
X39742Y37916D01*
X39743Y37919D01*
X39744Y37927D01*
X39746Y37936D01*
X39749Y37945D01*
X39753Y37953D01*
X39753Y37954D01*
X39753Y37955D01*
X39754Y37956D01*
X39755Y37957D01*
X39756Y37959D01*
X39757Y37961D01*
X39761Y37966D01*
X39766Y37972D01*
X39771Y37977D01*
X39778Y37983D01*
X39785Y37988D01*
X39785Y37988D01*
X39786Y37988D01*
X39787Y37989D01*
X39789Y37989D01*
X39791Y37990D01*
X39793Y37991D01*
X39796Y37992D01*
X39799Y37993D01*
X39802Y37994D01*
X39806Y37996D01*
X39814Y37997D01*
X39823Y37999D01*
X39832Y37999D01*
X39834D01*
X39836Y37999D01*
D02*
G37*
G36*
X39996Y37996D02*
X39997D01*
X39999Y37996D01*
X40004Y37995D01*
X40009Y37994D01*
X40015Y37992D01*
X40021Y37990D01*
X40027Y37986D01*
X40027D01*
X40027Y37986D01*
X40028Y37985D01*
X40029Y37984D01*
X40032Y37982D01*
X40036Y37979D01*
X40039Y37975D01*
X40043Y37970D01*
X40047Y37964D01*
X40050Y37958D01*
Y37957D01*
X40051Y37957D01*
X40051Y37956D01*
X40052Y37954D01*
X40052Y37952D01*
X40053Y37950D01*
X40054Y37947D01*
X40054Y37944D01*
X40055Y37940D01*
X40056Y37936D01*
X40057Y37932D01*
X40057Y37927D01*
X40058Y37922D01*
X40058Y37916D01*
X40059Y37910D01*
Y37904D01*
Y37904D01*
Y37902D01*
Y37900D01*
Y37898D01*
X40058Y37895D01*
Y37891D01*
X40058Y37887D01*
X40057Y37883D01*
X40057Y37873D01*
X40055Y37863D01*
X40053Y37854D01*
X40052Y37849D01*
X40051Y37845D01*
Y37845D01*
X40050Y37844D01*
X40050Y37843D01*
X40049Y37842D01*
X40048Y37840D01*
X40047Y37838D01*
X40044Y37833D01*
X40041Y37828D01*
X40037Y37822D01*
X40032Y37817D01*
X40027Y37812D01*
X40026D01*
X40026Y37812D01*
X40025Y37811D01*
X40024Y37811D01*
X40022Y37810D01*
X40021Y37809D01*
X40018Y37807D01*
X40016Y37807D01*
X40011Y37804D01*
X40005Y37803D01*
X39998Y37801D01*
X39990Y37801D01*
X39988D01*
X39986Y37801D01*
X39984D01*
X39982Y37801D01*
X39977Y37803D01*
X39971Y37804D01*
X39965Y37806D01*
X39959Y37809D01*
X39956Y37811D01*
X39953Y37813D01*
X39953Y37814D01*
X39952Y37814D01*
X39952Y37815D01*
X39951Y37816D01*
X39950Y37817D01*
X39948Y37819D01*
X39946Y37822D01*
X39943Y37827D01*
X39940Y37834D01*
X39938Y37840D01*
X39936Y37848D01*
X39959Y37850D01*
Y37850D01*
X39959Y37850D01*
Y37849D01*
X39959Y37848D01*
X39960Y37845D01*
X39961Y37842D01*
X39963Y37838D01*
X39965Y37834D01*
X39967Y37830D01*
X39970Y37827D01*
X39970Y37827D01*
X39971Y37826D01*
X39973Y37825D01*
X39975Y37824D01*
X39978Y37822D01*
X39982Y37821D01*
X39986Y37820D01*
X39990Y37820D01*
X39992D01*
X39994Y37820D01*
X39997Y37821D01*
X40000Y37821D01*
X40003Y37822D01*
X40006Y37823D01*
X40009Y37825D01*
X40010Y37825D01*
X40011Y37826D01*
X40012Y37827D01*
X40014Y37829D01*
X40016Y37830D01*
X40018Y37833D01*
X40021Y37835D01*
X40023Y37838D01*
X40023Y37839D01*
X40024Y37840D01*
X40025Y37842D01*
X40026Y37844D01*
X40027Y37848D01*
X40029Y37852D01*
X40030Y37856D01*
X40031Y37861D01*
Y37861D01*
X40032Y37861D01*
Y37862D01*
X40032Y37863D01*
X40033Y37866D01*
X40033Y37870D01*
X40034Y37874D01*
X40034Y37879D01*
X40035Y37884D01*
X40035Y37890D01*
Y37890D01*
Y37891D01*
Y37892D01*
Y37894D01*
X40035Y37894D01*
X40034Y37893D01*
X40032Y37891D01*
X40030Y37888D01*
X40027Y37885D01*
X40024Y37882D01*
X40020Y37879D01*
X40016Y37876D01*
X40015Y37876D01*
X40013Y37875D01*
X40011Y37874D01*
X40008Y37873D01*
X40004Y37871D01*
X39999Y37870D01*
X39994Y37870D01*
X39989Y37869D01*
X39987D01*
X39985Y37870D01*
X39983Y37870D01*
X39981Y37870D01*
X39978Y37871D01*
X39975Y37871D01*
X39969Y37873D01*
X39966Y37875D01*
X39962Y37876D01*
X39959Y37878D01*
X39955Y37881D01*
X39952Y37883D01*
X39949Y37886D01*
X39949Y37887D01*
X39948Y37887D01*
X39948Y37888D01*
X39946Y37889D01*
X39945Y37891D01*
X39944Y37893D01*
X39942Y37896D01*
X39941Y37899D01*
X39939Y37902D01*
X39938Y37905D01*
X39936Y37909D01*
X39935Y37913D01*
X39934Y37917D01*
X39933Y37922D01*
X39933Y37927D01*
X39933Y37932D01*
Y37932D01*
Y37933D01*
Y37935D01*
X39933Y37937D01*
X39933Y37939D01*
X39933Y37942D01*
X39934Y37945D01*
X39935Y37949D01*
X39937Y37956D01*
X39938Y37960D01*
X39940Y37964D01*
X39942Y37968D01*
X39944Y37971D01*
X39947Y37975D01*
X39950Y37979D01*
X39950Y37979D01*
X39951Y37980D01*
X39951Y37980D01*
X39953Y37981D01*
X39954Y37983D01*
X39957Y37984D01*
X39959Y37986D01*
X39962Y37988D01*
X39964Y37989D01*
X39968Y37991D01*
X39975Y37994D01*
X39979Y37995D01*
X39984Y37996D01*
X39988Y37996D01*
X39993Y37997D01*
X39995D01*
X39996Y37996D01*
D02*
G37*
G36*
X35686Y35149D02*
X35689Y35149D01*
X35692Y35148D01*
X35695Y35148D01*
X35699Y35147D01*
X35706Y35146D01*
X35714Y35143D01*
X35719Y35141D01*
X35722Y35139D01*
X35726Y35137D01*
X35730Y35134D01*
X35730Y35134D01*
X35731Y35134D01*
X35732Y35133D01*
X35734Y35132D01*
X35735Y35130D01*
X35737Y35128D01*
X35739Y35126D01*
X35741Y35124D01*
X35743Y35121D01*
X35745Y35118D01*
X35748Y35115D01*
X35750Y35111D01*
X35752Y35107D01*
X35754Y35103D01*
X35756Y35098D01*
X35758Y35093D01*
X35733Y35087D01*
Y35088D01*
X35732Y35088D01*
X35732Y35089D01*
X35731Y35091D01*
X35731Y35092D01*
X35730Y35095D01*
X35728Y35099D01*
X35725Y35104D01*
X35722Y35109D01*
X35717Y35114D01*
X35713Y35118D01*
X35712Y35118D01*
X35711Y35120D01*
X35708Y35121D01*
X35704Y35123D01*
X35700Y35125D01*
X35694Y35126D01*
X35688Y35127D01*
X35681Y35128D01*
X35679D01*
X35678Y35127D01*
X35676D01*
X35673Y35127D01*
X35668Y35126D01*
X35662Y35125D01*
X35656Y35123D01*
X35650Y35120D01*
X35644Y35117D01*
X35644D01*
X35643Y35116D01*
X35642Y35115D01*
X35639Y35113D01*
X35636Y35109D01*
X35632Y35105D01*
X35629Y35100D01*
X35626Y35095D01*
X35623Y35088D01*
Y35088D01*
X35623Y35087D01*
X35623Y35087D01*
X35622Y35085D01*
X35622Y35084D01*
X35621Y35082D01*
X35621Y35077D01*
X35619Y35071D01*
X35618Y35065D01*
X35618Y35059D01*
X35617Y35051D01*
Y35051D01*
Y35050D01*
Y35049D01*
Y35047D01*
X35618Y35045D01*
Y35043D01*
X35618Y35040D01*
X35618Y35037D01*
X35619Y35030D01*
X35621Y35023D01*
X35622Y35016D01*
X35624Y35009D01*
Y35008D01*
X35625Y35008D01*
X35625Y35007D01*
X35626Y35006D01*
X35627Y35002D01*
X35630Y34998D01*
X35633Y34994D01*
X35637Y34989D01*
X35641Y34985D01*
X35647Y34981D01*
X35647D01*
X35647Y34981D01*
X35648Y34980D01*
X35649Y34980D01*
X35651Y34979D01*
X35652Y34979D01*
X35656Y34977D01*
X35661Y34975D01*
X35667Y34974D01*
X35673Y34973D01*
X35679Y34972D01*
X35681D01*
X35683Y34973D01*
X35685D01*
X35687Y34973D01*
X35692Y34974D01*
X35698Y34975D01*
X35703Y34978D01*
X35709Y34981D01*
X35712Y34982D01*
X35715Y34985D01*
X35716Y34985D01*
X35716Y34985D01*
X35717Y34986D01*
X35718Y34987D01*
X35719Y34988D01*
X35720Y34990D01*
X35722Y34992D01*
X35723Y34994D01*
X35725Y34996D01*
X35727Y34999D01*
X35729Y35002D01*
X35730Y35005D01*
X35732Y35009D01*
X35733Y35013D01*
X35734Y35017D01*
X35735Y35021D01*
X35761Y35015D01*
Y35015D01*
X35761Y35013D01*
X35760Y35012D01*
X35759Y35010D01*
X35758Y35007D01*
X35757Y35004D01*
X35756Y35001D01*
X35754Y34997D01*
X35750Y34989D01*
X35745Y34982D01*
X35742Y34978D01*
X35739Y34974D01*
X35736Y34971D01*
X35732Y34967D01*
X35732Y34967D01*
X35731Y34966D01*
X35730Y34966D01*
X35729Y34965D01*
X35726Y34963D01*
X35724Y34962D01*
X35721Y34961D01*
X35718Y34959D01*
X35714Y34957D01*
X35711Y34956D01*
X35706Y34955D01*
X35702Y34953D01*
X35697Y34952D01*
X35692Y34952D01*
X35687Y34951D01*
X35681Y34951D01*
X35678D01*
X35676Y34951D01*
X35674D01*
X35671Y34951D01*
X35667Y34952D01*
X35663Y34952D01*
X35655Y34954D01*
X35647Y34956D01*
X35639Y34959D01*
X35635Y34961D01*
X35631Y34963D01*
X35631Y34964D01*
X35630Y34964D01*
X35629Y34965D01*
X35628Y34966D01*
X35626Y34967D01*
X35624Y34969D01*
X35622Y34971D01*
X35620Y34973D01*
X35618Y34975D01*
X35615Y34978D01*
X35610Y34984D01*
X35606Y34992D01*
X35601Y35000D01*
Y35000D01*
X35601Y35001D01*
X35601Y35002D01*
X35600Y35004D01*
X35599Y35006D01*
X35598Y35009D01*
X35597Y35012D01*
X35596Y35015D01*
X35596Y35019D01*
X35594Y35023D01*
X35593Y35032D01*
X35592Y35041D01*
X35591Y35051D01*
Y35052D01*
Y35053D01*
Y35054D01*
X35592Y35056D01*
Y35059D01*
X35592Y35062D01*
X35592Y35066D01*
X35593Y35069D01*
X35594Y35077D01*
X35596Y35086D01*
X35599Y35095D01*
X35603Y35103D01*
X35603Y35104D01*
X35603Y35105D01*
X35604Y35106D01*
X35605Y35107D01*
X35606Y35109D01*
X35607Y35111D01*
X35611Y35116D01*
X35616Y35122D01*
X35621Y35127D01*
X35628Y35133D01*
X35635Y35138D01*
X35635Y35138D01*
X35636Y35138D01*
X35637Y35139D01*
X35639Y35139D01*
X35641Y35140D01*
X35643Y35141D01*
X35646Y35142D01*
X35649Y35143D01*
X35652Y35144D01*
X35656Y35146D01*
X35664Y35147D01*
X35673Y35149D01*
X35682Y35149D01*
X35684D01*
X35686Y35149D01*
D02*
G37*
G36*
X35849Y35146D02*
X35851Y35146D01*
X35854Y35146D01*
X35857Y35146D01*
X35859Y35145D01*
X35866Y35143D01*
X35873Y35141D01*
X35876Y35139D01*
X35879Y35137D01*
X35882Y35134D01*
X35885Y35132D01*
X35886Y35132D01*
X35886Y35131D01*
X35887Y35131D01*
X35888Y35129D01*
X35889Y35128D01*
X35890Y35126D01*
X35893Y35122D01*
X35896Y35117D01*
X35898Y35111D01*
X35900Y35104D01*
X35901Y35100D01*
X35901Y35096D01*
Y35096D01*
Y35096D01*
Y35094D01*
X35901Y35092D01*
X35900Y35089D01*
X35899Y35085D01*
X35898Y35081D01*
X35896Y35077D01*
X35894Y35073D01*
X35893Y35072D01*
X35892Y35071D01*
X35891Y35070D01*
X35888Y35067D01*
X35885Y35065D01*
X35882Y35062D01*
X35878Y35060D01*
X35873Y35058D01*
X35873D01*
X35873Y35057D01*
X35874Y35057D01*
X35875Y35057D01*
X35879Y35055D01*
X35883Y35053D01*
X35887Y35051D01*
X35891Y35048D01*
X35895Y35044D01*
X35899Y35039D01*
Y35039D01*
X35899Y35039D01*
X35901Y35037D01*
X35902Y35034D01*
X35904Y35031D01*
X35906Y35026D01*
X35907Y35021D01*
X35908Y35015D01*
X35909Y35009D01*
Y35008D01*
Y35008D01*
Y35006D01*
X35908Y35005D01*
X35908Y35003D01*
X35908Y35000D01*
X35907Y34997D01*
X35906Y34994D01*
X35904Y34988D01*
X35903Y34984D01*
X35901Y34981D01*
X35899Y34977D01*
X35897Y34974D01*
X35894Y34971D01*
X35891Y34967D01*
X35891Y34967D01*
X35890Y34967D01*
X35889Y34966D01*
X35888Y34965D01*
X35886Y34964D01*
X35884Y34962D01*
X35882Y34961D01*
X35879Y34959D01*
X35876Y34957D01*
X35872Y34956D01*
X35868Y34955D01*
X35865Y34953D01*
X35860Y34952D01*
X35855Y34952D01*
X35851Y34951D01*
X35845Y34951D01*
X35843D01*
X35841Y34951D01*
X35838Y34951D01*
X35835Y34952D01*
X35832Y34952D01*
X35829Y34953D01*
X35822Y34955D01*
X35818Y34956D01*
X35814Y34958D01*
X35810Y34960D01*
X35806Y34962D01*
X35803Y34964D01*
X35799Y34967D01*
X35799Y34968D01*
X35799Y34968D01*
X35798Y34969D01*
X35797Y34971D01*
X35796Y34972D01*
X35794Y34974D01*
X35793Y34976D01*
X35791Y34979D01*
X35789Y34982D01*
X35788Y34985D01*
X35785Y34992D01*
X35784Y34996D01*
X35783Y35000D01*
X35783Y35005D01*
X35782Y35009D01*
Y35010D01*
Y35010D01*
Y35011D01*
X35783Y35012D01*
Y35014D01*
X35783Y35016D01*
X35783Y35020D01*
X35784Y35025D01*
X35786Y35030D01*
X35789Y35036D01*
X35792Y35041D01*
Y35041D01*
X35792Y35041D01*
X35793Y35043D01*
X35796Y35045D01*
X35799Y35048D01*
X35802Y35050D01*
X35807Y35053D01*
X35812Y35056D01*
X35819Y35058D01*
X35819D01*
X35818Y35058D01*
X35817Y35058D01*
X35816Y35059D01*
X35814Y35060D01*
X35811Y35062D01*
X35807Y35064D01*
X35803Y35067D01*
X35800Y35070D01*
X35797Y35073D01*
X35797Y35074D01*
X35796Y35075D01*
X35795Y35077D01*
X35794Y35080D01*
X35792Y35083D01*
X35791Y35087D01*
X35790Y35092D01*
X35790Y35097D01*
Y35097D01*
Y35098D01*
Y35099D01*
X35790Y35101D01*
X35791Y35102D01*
X35791Y35105D01*
X35792Y35109D01*
X35794Y35115D01*
X35796Y35121D01*
X35798Y35124D01*
X35800Y35127D01*
X35802Y35129D01*
X35805Y35132D01*
X35805Y35133D01*
X35806Y35133D01*
X35807Y35134D01*
X35808Y35134D01*
X35809Y35136D01*
X35811Y35137D01*
X35813Y35138D01*
X35816Y35139D01*
X35818Y35141D01*
X35821Y35142D01*
X35825Y35143D01*
X35828Y35144D01*
X35836Y35146D01*
X35840Y35146D01*
X35845Y35147D01*
X35847D01*
X35849Y35146D01*
D02*
G37*
G36*
X34937Y37349D02*
X34939Y37349D01*
X34942Y37348D01*
X34945Y37348D01*
X34949Y37347D01*
X34956Y37346D01*
X34965Y37343D01*
X34969Y37341D01*
X34973Y37339D01*
X34976Y37337D01*
X34980Y37334D01*
X34981Y37334D01*
X34981Y37334D01*
X34982Y37333D01*
X34984Y37332D01*
X34985Y37330D01*
X34987Y37328D01*
X34989Y37326D01*
X34991Y37324D01*
X34993Y37321D01*
X34996Y37318D01*
X34998Y37315D01*
X35000Y37311D01*
X35002Y37307D01*
X35004Y37303D01*
X35006Y37298D01*
X35008Y37293D01*
X34983Y37287D01*
Y37288D01*
X34983Y37288D01*
X34982Y37289D01*
X34981Y37291D01*
X34981Y37292D01*
X34980Y37295D01*
X34978Y37299D01*
X34975Y37304D01*
X34972Y37309D01*
X34968Y37314D01*
X34963Y37318D01*
X34963Y37318D01*
X34961Y37320D01*
X34958Y37321D01*
X34955Y37323D01*
X34950Y37325D01*
X34945Y37326D01*
X34938Y37327D01*
X34931Y37328D01*
X34929D01*
X34928Y37327D01*
X34926D01*
X34924Y37327D01*
X34918Y37326D01*
X34912Y37325D01*
X34906Y37323D01*
X34900Y37320D01*
X34894Y37317D01*
X34894D01*
X34894Y37316D01*
X34892Y37315D01*
X34889Y37313D01*
X34886Y37309D01*
X34883Y37305D01*
X34879Y37300D01*
X34876Y37295D01*
X34873Y37288D01*
Y37288D01*
X34873Y37287D01*
X34873Y37287D01*
X34873Y37285D01*
X34872Y37284D01*
X34871Y37282D01*
X34871Y37277D01*
X34870Y37271D01*
X34868Y37265D01*
X34868Y37259D01*
X34868Y37251D01*
Y37251D01*
Y37250D01*
Y37249D01*
Y37247D01*
X34868Y37245D01*
Y37243D01*
X34868Y37240D01*
X34868Y37237D01*
X34869Y37230D01*
X34871Y37223D01*
X34872Y37216D01*
X34875Y37209D01*
Y37208D01*
X34875Y37208D01*
X34875Y37207D01*
X34876Y37206D01*
X34878Y37202D01*
X34880Y37198D01*
X34883Y37194D01*
X34887Y37189D01*
X34891Y37185D01*
X34897Y37181D01*
X34897D01*
X34898Y37181D01*
X34898Y37180D01*
X34899Y37180D01*
X34901Y37179D01*
X34903Y37179D01*
X34906Y37177D01*
X34911Y37175D01*
X34917Y37174D01*
X34923Y37173D01*
X34929Y37172D01*
X34931D01*
X34933Y37173D01*
X34935D01*
X34937Y37173D01*
X34942Y37174D01*
X34948Y37175D01*
X34953Y37178D01*
X34960Y37181D01*
X34963Y37182D01*
X34965Y37185D01*
X34966Y37185D01*
X34966Y37185D01*
X34967Y37186D01*
X34968Y37187D01*
X34969Y37188D01*
X34970Y37190D01*
X34972Y37192D01*
X34973Y37194D01*
X34975Y37196D01*
X34977Y37199D01*
X34979Y37202D01*
X34980Y37205D01*
X34982Y37209D01*
X34983Y37213D01*
X34984Y37217D01*
X34986Y37221D01*
X35011Y37215D01*
Y37215D01*
X35011Y37213D01*
X35010Y37212D01*
X35009Y37210D01*
X35009Y37207D01*
X35007Y37204D01*
X35006Y37201D01*
X35004Y37197D01*
X35001Y37189D01*
X34996Y37182D01*
X34993Y37178D01*
X34989Y37174D01*
X34986Y37171D01*
X34982Y37167D01*
X34982Y37167D01*
X34981Y37166D01*
X34980Y37166D01*
X34979Y37165D01*
X34976Y37163D01*
X34974Y37162D01*
X34971Y37161D01*
X34968Y37159D01*
X34965Y37157D01*
X34961Y37156D01*
X34957Y37155D01*
X34952Y37153D01*
X34947Y37152D01*
X34942Y37152D01*
X34937Y37151D01*
X34932Y37151D01*
X34929D01*
X34926Y37151D01*
X34924D01*
X34921Y37151D01*
X34917Y37152D01*
X34914Y37153D01*
X34906Y37154D01*
X34897Y37156D01*
X34889Y37159D01*
X34885Y37161D01*
X34881Y37163D01*
X34881Y37164D01*
X34880Y37164D01*
X34879Y37165D01*
X34878Y37166D01*
X34876Y37167D01*
X34875Y37169D01*
X34872Y37171D01*
X34870Y37173D01*
X34868Y37175D01*
X34865Y37178D01*
X34860Y37184D01*
X34856Y37192D01*
X34852Y37200D01*
Y37200D01*
X34851Y37201D01*
X34851Y37202D01*
X34850Y37204D01*
X34849Y37206D01*
X34848Y37209D01*
X34847Y37212D01*
X34847Y37215D01*
X34846Y37219D01*
X34845Y37223D01*
X34843Y37232D01*
X34842Y37241D01*
X34842Y37251D01*
Y37252D01*
Y37253D01*
Y37254D01*
X34842Y37256D01*
Y37259D01*
X34842Y37262D01*
X34842Y37266D01*
X34843Y37269D01*
X34844Y37277D01*
X34846Y37286D01*
X34849Y37295D01*
X34853Y37303D01*
X34853Y37304D01*
X34853Y37305D01*
X34854Y37306D01*
X34855Y37307D01*
X34856Y37309D01*
X34858Y37311D01*
X34861Y37316D01*
X34866Y37322D01*
X34871Y37327D01*
X34878Y37333D01*
X34885Y37338D01*
X34886Y37338D01*
X34886Y37338D01*
X34888Y37339D01*
X34889Y37339D01*
X34891Y37340D01*
X34893Y37341D01*
X34896Y37342D01*
X34899Y37343D01*
X34903Y37344D01*
X34906Y37346D01*
X34914Y37347D01*
X34923Y37349D01*
X34932Y37349D01*
X34935D01*
X34937Y37349D01*
D02*
G37*
G36*
X35158Y37325D02*
X35158Y37325D01*
X35158Y37324D01*
X35157Y37323D01*
X35155Y37321D01*
X35154Y37319D01*
X35152Y37317D01*
X35149Y37314D01*
X35147Y37311D01*
X35144Y37308D01*
X35141Y37304D01*
X35138Y37299D01*
X35135Y37295D01*
X35132Y37290D01*
X35129Y37285D01*
X35125Y37279D01*
X35122Y37273D01*
X35122Y37273D01*
X35121Y37272D01*
X35120Y37270D01*
X35119Y37267D01*
X35117Y37264D01*
X35116Y37261D01*
X35114Y37257D01*
X35112Y37253D01*
X35110Y37248D01*
X35107Y37243D01*
X35105Y37237D01*
X35103Y37231D01*
X35098Y37220D01*
X35094Y37207D01*
Y37207D01*
X35094Y37206D01*
X35094Y37204D01*
X35093Y37203D01*
X35093Y37200D01*
X35092Y37198D01*
X35091Y37195D01*
X35091Y37191D01*
X35090Y37187D01*
X35089Y37183D01*
X35088Y37174D01*
X35086Y37165D01*
X35085Y37154D01*
X35061D01*
Y37154D01*
Y37155D01*
Y37156D01*
X35061Y37158D01*
Y37160D01*
X35062Y37163D01*
X35062Y37166D01*
X35062Y37169D01*
X35063Y37173D01*
X35063Y37177D01*
X35064Y37182D01*
X35065Y37187D01*
X35066Y37192D01*
X35067Y37197D01*
X35070Y37208D01*
Y37209D01*
X35070Y37210D01*
X35071Y37211D01*
X35071Y37214D01*
X35072Y37217D01*
X35073Y37220D01*
X35075Y37224D01*
X35076Y37228D01*
X35078Y37233D01*
X35080Y37238D01*
X35084Y37248D01*
X35089Y37259D01*
X35094Y37270D01*
X35094Y37271D01*
X35095Y37272D01*
X35096Y37273D01*
X35097Y37275D01*
X35098Y37278D01*
X35100Y37281D01*
X35102Y37284D01*
X35104Y37288D01*
X35110Y37296D01*
X35115Y37304D01*
X35122Y37313D01*
X35128Y37321D01*
X35034D01*
Y37343D01*
X35158D01*
Y37325D01*
D02*
G37*
G36*
X44054Y33546D02*
X44056D01*
X44059Y33546D01*
X44064Y33545D01*
X44070Y33544D01*
X44076Y33541D01*
X44082Y33538D01*
X44085Y33536D01*
X44088Y33534D01*
X44088Y33534D01*
X44088Y33533D01*
X44089Y33533D01*
X44090Y33532D01*
X44091Y33530D01*
X44092Y33529D01*
X44095Y33525D01*
X44098Y33520D01*
X44101Y33514D01*
X44104Y33507D01*
X44105Y33499D01*
X44082Y33497D01*
Y33497D01*
X44082Y33498D01*
X44081Y33499D01*
X44080Y33502D01*
X44079Y33505D01*
X44078Y33508D01*
X44077Y33511D01*
X44075Y33515D01*
X44073Y33517D01*
X44072Y33518D01*
X44071Y33519D01*
X44069Y33520D01*
X44066Y33522D01*
X44063Y33524D01*
X44059Y33526D01*
X44054Y33527D01*
X44049Y33527D01*
X44047D01*
X44045Y33527D01*
X44043Y33526D01*
X44039Y33526D01*
X44036Y33525D01*
X44033Y33523D01*
X44029Y33521D01*
X44029Y33521D01*
X44027Y33520D01*
X44025Y33518D01*
X44023Y33515D01*
X44020Y33511D01*
X44017Y33508D01*
X44014Y33503D01*
X44011Y33497D01*
Y33497D01*
X44011Y33496D01*
X44011Y33495D01*
X44010Y33494D01*
X44010Y33493D01*
X44010Y33491D01*
X44009Y33489D01*
X44008Y33486D01*
X44008Y33483D01*
X44007Y33479D01*
X44007Y33476D01*
X44006Y33472D01*
X44006Y33467D01*
X44005Y33463D01*
X44005Y33458D01*
Y33453D01*
X44005Y33453D01*
X44007Y33455D01*
X44008Y33457D01*
X44011Y33460D01*
X44014Y33463D01*
X44017Y33466D01*
X44021Y33469D01*
X44026Y33472D01*
X44026D01*
X44026Y33472D01*
X44028Y33473D01*
X44030Y33474D01*
X44034Y33475D01*
X44038Y33477D01*
X44042Y33477D01*
X44047Y33478D01*
X44052Y33479D01*
X44054D01*
X44056Y33478D01*
X44058Y33478D01*
X44060Y33478D01*
X44063Y33477D01*
X44066Y33476D01*
X44072Y33474D01*
X44075Y33473D01*
X44079Y33471D01*
X44082Y33469D01*
X44085Y33467D01*
X44089Y33464D01*
X44092Y33461D01*
X44092Y33461D01*
X44093Y33460D01*
X44093Y33459D01*
X44094Y33458D01*
X44096Y33456D01*
X44097Y33454D01*
X44098Y33452D01*
X44100Y33449D01*
X44102Y33446D01*
X44103Y33443D01*
X44105Y33439D01*
X44106Y33435D01*
X44107Y33431D01*
X44108Y33426D01*
X44108Y33421D01*
X44108Y33416D01*
Y33416D01*
Y33415D01*
Y33415D01*
Y33413D01*
X44108Y33412D01*
Y33410D01*
X44107Y33405D01*
X44106Y33400D01*
X44105Y33395D01*
X44103Y33389D01*
X44100Y33383D01*
Y33382D01*
X44100Y33382D01*
X44100Y33381D01*
X44099Y33380D01*
X44097Y33377D01*
X44095Y33374D01*
X44092Y33370D01*
X44088Y33366D01*
X44084Y33362D01*
X44079Y33359D01*
X44079D01*
X44079Y33359D01*
X44078Y33358D01*
X44077Y33358D01*
X44074Y33356D01*
X44070Y33355D01*
X44066Y33353D01*
X44060Y33352D01*
X44054Y33351D01*
X44048Y33351D01*
X44047D01*
X44045Y33351D01*
X44043D01*
X44041Y33351D01*
X44038Y33352D01*
X44034Y33353D01*
X44031Y33354D01*
X44027Y33355D01*
X44023Y33356D01*
X44020Y33358D01*
X44015Y33360D01*
X44011Y33362D01*
X44008Y33365D01*
X44004Y33369D01*
X44000Y33372D01*
X44000Y33373D01*
X43999Y33374D01*
X43998Y33375D01*
X43997Y33377D01*
X43996Y33379D01*
X43994Y33382D01*
X43993Y33385D01*
X43991Y33389D01*
X43989Y33394D01*
X43987Y33399D01*
X43986Y33405D01*
X43985Y33412D01*
X43983Y33419D01*
X43982Y33426D01*
X43982Y33435D01*
X43982Y33444D01*
Y33444D01*
Y33444D01*
Y33445D01*
Y33446D01*
X43982Y33449D01*
Y33453D01*
X43982Y33457D01*
X43983Y33462D01*
X43983Y33468D01*
X43984Y33475D01*
X43985Y33481D01*
X43987Y33488D01*
X43988Y33495D01*
X43990Y33501D01*
X43993Y33508D01*
X43995Y33514D01*
X43998Y33520D01*
X44002Y33525D01*
X44002Y33525D01*
X44003Y33525D01*
X44004Y33526D01*
X44005Y33528D01*
X44007Y33530D01*
X44009Y33531D01*
X44012Y33534D01*
X44015Y33536D01*
X44018Y33538D01*
X44022Y33540D01*
X44026Y33541D01*
X44030Y33543D01*
X44035Y33545D01*
X44040Y33546D01*
X44045Y33546D01*
X44051Y33547D01*
X44053D01*
X44054Y33546D01*
D02*
G37*
G36*
X43887Y33549D02*
X43889Y33549D01*
X43892Y33548D01*
X43895Y33548D01*
X43899Y33547D01*
X43906Y33546D01*
X43915Y33543D01*
X43919Y33541D01*
X43923Y33539D01*
X43926Y33537D01*
X43930Y33534D01*
X43931Y33534D01*
X43931Y33534D01*
X43932Y33533D01*
X43934Y33532D01*
X43935Y33530D01*
X43937Y33528D01*
X43939Y33526D01*
X43941Y33524D01*
X43943Y33521D01*
X43946Y33518D01*
X43948Y33515D01*
X43950Y33511D01*
X43952Y33507D01*
X43954Y33503D01*
X43956Y33498D01*
X43958Y33493D01*
X43933Y33487D01*
Y33488D01*
X43933Y33488D01*
X43932Y33489D01*
X43931Y33491D01*
X43931Y33492D01*
X43930Y33495D01*
X43928Y33499D01*
X43925Y33504D01*
X43922Y33509D01*
X43918Y33514D01*
X43913Y33518D01*
X43913Y33518D01*
X43911Y33520D01*
X43908Y33521D01*
X43905Y33523D01*
X43900Y33525D01*
X43895Y33526D01*
X43888Y33527D01*
X43881Y33528D01*
X43879D01*
X43878Y33527D01*
X43876D01*
X43874Y33527D01*
X43868Y33526D01*
X43862Y33525D01*
X43856Y33523D01*
X43850Y33520D01*
X43844Y33517D01*
X43844D01*
X43844Y33516D01*
X43842Y33515D01*
X43839Y33513D01*
X43836Y33509D01*
X43833Y33505D01*
X43829Y33500D01*
X43826Y33495D01*
X43823Y33488D01*
Y33488D01*
X43823Y33487D01*
X43823Y33487D01*
X43823Y33485D01*
X43822Y33484D01*
X43821Y33482D01*
X43821Y33477D01*
X43820Y33471D01*
X43818Y33465D01*
X43818Y33459D01*
X43818Y33451D01*
Y33451D01*
Y33450D01*
Y33449D01*
Y33447D01*
X43818Y33445D01*
Y33443D01*
X43818Y33440D01*
X43818Y33437D01*
X43819Y33430D01*
X43821Y33423D01*
X43822Y33416D01*
X43825Y33409D01*
Y33408D01*
X43825Y33408D01*
X43825Y33407D01*
X43826Y33406D01*
X43828Y33402D01*
X43830Y33398D01*
X43833Y33394D01*
X43837Y33389D01*
X43841Y33385D01*
X43847Y33381D01*
X43847D01*
X43848Y33381D01*
X43848Y33380D01*
X43849Y33380D01*
X43851Y33379D01*
X43853Y33379D01*
X43856Y33377D01*
X43861Y33375D01*
X43867Y33374D01*
X43873Y33373D01*
X43879Y33372D01*
X43881D01*
X43883Y33373D01*
X43885D01*
X43887Y33373D01*
X43892Y33374D01*
X43898Y33375D01*
X43903Y33378D01*
X43910Y33381D01*
X43913Y33382D01*
X43915Y33385D01*
X43916Y33385D01*
X43916Y33385D01*
X43917Y33386D01*
X43918Y33387D01*
X43919Y33388D01*
X43920Y33390D01*
X43922Y33392D01*
X43923Y33394D01*
X43925Y33396D01*
X43927Y33399D01*
X43929Y33402D01*
X43930Y33405D01*
X43932Y33409D01*
X43933Y33413D01*
X43934Y33417D01*
X43936Y33421D01*
X43961Y33415D01*
Y33415D01*
X43961Y33413D01*
X43960Y33412D01*
X43959Y33410D01*
X43959Y33407D01*
X43957Y33404D01*
X43956Y33401D01*
X43954Y33397D01*
X43951Y33389D01*
X43946Y33382D01*
X43943Y33378D01*
X43939Y33374D01*
X43936Y33370D01*
X43932Y33367D01*
X43932Y33367D01*
X43931Y33366D01*
X43930Y33366D01*
X43929Y33365D01*
X43926Y33363D01*
X43924Y33362D01*
X43921Y33361D01*
X43918Y33359D01*
X43915Y33357D01*
X43911Y33356D01*
X43907Y33355D01*
X43902Y33353D01*
X43897Y33352D01*
X43892Y33352D01*
X43887Y33351D01*
X43882Y33351D01*
X43879D01*
X43876Y33351D01*
X43874D01*
X43871Y33351D01*
X43867Y33352D01*
X43864Y33352D01*
X43856Y33354D01*
X43847Y33356D01*
X43839Y33359D01*
X43835Y33361D01*
X43831Y33363D01*
X43831Y33364D01*
X43830Y33364D01*
X43829Y33365D01*
X43828Y33366D01*
X43826Y33367D01*
X43825Y33369D01*
X43822Y33370D01*
X43820Y33373D01*
X43818Y33375D01*
X43815Y33378D01*
X43810Y33384D01*
X43806Y33392D01*
X43802Y33400D01*
Y33400D01*
X43801Y33401D01*
X43801Y33402D01*
X43800Y33404D01*
X43799Y33406D01*
X43798Y33409D01*
X43797Y33412D01*
X43797Y33415D01*
X43796Y33419D01*
X43795Y33423D01*
X43793Y33432D01*
X43792Y33441D01*
X43792Y33451D01*
Y33452D01*
Y33453D01*
Y33454D01*
X43792Y33456D01*
Y33459D01*
X43792Y33462D01*
X43792Y33466D01*
X43793Y33469D01*
X43794Y33477D01*
X43796Y33486D01*
X43799Y33495D01*
X43803Y33503D01*
X43803Y33504D01*
X43803Y33505D01*
X43804Y33506D01*
X43805Y33507D01*
X43806Y33509D01*
X43808Y33511D01*
X43811Y33516D01*
X43816Y33522D01*
X43821Y33527D01*
X43828Y33533D01*
X43835Y33538D01*
X43836Y33538D01*
X43836Y33538D01*
X43838Y33539D01*
X43839Y33539D01*
X43841Y33540D01*
X43843Y33541D01*
X43846Y33542D01*
X43849Y33543D01*
X43853Y33544D01*
X43856Y33546D01*
X43864Y33547D01*
X43873Y33549D01*
X43882Y33549D01*
X43885D01*
X43887Y33549D01*
D02*
G37*
G36*
X40836Y34999D02*
X40838Y34999D01*
X40841Y34998D01*
X40844Y34998D01*
X40848Y34997D01*
X40856Y34996D01*
X40864Y34993D01*
X40868Y34991D01*
X40872Y34989D01*
X40876Y34987D01*
X40880Y34984D01*
X40880Y34984D01*
X40880Y34984D01*
X40882Y34983D01*
X40883Y34982D01*
X40884Y34980D01*
X40886Y34978D01*
X40888Y34976D01*
X40890Y34974D01*
X40893Y34971D01*
X40895Y34968D01*
X40897Y34965D01*
X40900Y34961D01*
X40902Y34957D01*
X40904Y34953D01*
X40905Y34948D01*
X40907Y34943D01*
X40882Y34937D01*
Y34938D01*
X40882Y34938D01*
X40881Y34939D01*
X40881Y34941D01*
X40880Y34942D01*
X40879Y34945D01*
X40877Y34949D01*
X40874Y34954D01*
X40871Y34959D01*
X40867Y34964D01*
X40862Y34968D01*
X40862Y34968D01*
X40860Y34970D01*
X40857Y34971D01*
X40854Y34973D01*
X40849Y34975D01*
X40844Y34976D01*
X40838Y34977D01*
X40831Y34978D01*
X40828D01*
X40827Y34977D01*
X40825D01*
X40823Y34977D01*
X40818Y34976D01*
X40812Y34975D01*
X40806Y34973D01*
X40799Y34970D01*
X40793Y34967D01*
X40793D01*
X40793Y34966D01*
X40791Y34965D01*
X40789Y34963D01*
X40785Y34959D01*
X40782Y34955D01*
X40779Y34950D01*
X40775Y34945D01*
X40773Y34938D01*
Y34938D01*
X40772Y34937D01*
X40772Y34937D01*
X40772Y34935D01*
X40771Y34934D01*
X40771Y34932D01*
X40770Y34927D01*
X40769Y34921D01*
X40768Y34915D01*
X40767Y34909D01*
X40767Y34901D01*
Y34901D01*
Y34900D01*
Y34899D01*
Y34897D01*
X40767Y34895D01*
Y34893D01*
X40767Y34890D01*
X40768Y34887D01*
X40769Y34880D01*
X40770Y34873D01*
X40772Y34866D01*
X40774Y34859D01*
Y34858D01*
X40774Y34858D01*
X40775Y34857D01*
X40775Y34856D01*
X40777Y34852D01*
X40779Y34848D01*
X40782Y34844D01*
X40786Y34839D01*
X40791Y34835D01*
X40796Y34831D01*
X40796D01*
X40797Y34831D01*
X40798Y34830D01*
X40799Y34830D01*
X40800Y34829D01*
X40802Y34829D01*
X40806Y34827D01*
X40811Y34825D01*
X40816Y34824D01*
X40822Y34823D01*
X40829Y34822D01*
X40831D01*
X40832Y34823D01*
X40834D01*
X40836Y34823D01*
X40841Y34824D01*
X40847Y34825D01*
X40853Y34828D01*
X40859Y34831D01*
X40862Y34832D01*
X40865Y34835D01*
X40865Y34835D01*
X40865Y34835D01*
X40866Y34836D01*
X40867Y34837D01*
X40868Y34838D01*
X40870Y34840D01*
X40871Y34842D01*
X40873Y34844D01*
X40874Y34846D01*
X40876Y34849D01*
X40878Y34852D01*
X40880Y34855D01*
X40881Y34859D01*
X40882Y34863D01*
X40884Y34867D01*
X40885Y34871D01*
X40910Y34865D01*
Y34865D01*
X40910Y34863D01*
X40910Y34862D01*
X40909Y34860D01*
X40908Y34857D01*
X40907Y34854D01*
X40905Y34851D01*
X40904Y34847D01*
X40900Y34839D01*
X40895Y34832D01*
X40892Y34828D01*
X40889Y34824D01*
X40885Y34820D01*
X40882Y34817D01*
X40881Y34817D01*
X40881Y34816D01*
X40879Y34816D01*
X40878Y34815D01*
X40876Y34813D01*
X40874Y34812D01*
X40870Y34811D01*
X40867Y34809D01*
X40864Y34807D01*
X40860Y34806D01*
X40856Y34805D01*
X40851Y34803D01*
X40847Y34802D01*
X40842Y34802D01*
X40836Y34801D01*
X40831Y34801D01*
X40828D01*
X40826Y34801D01*
X40823D01*
X40820Y34801D01*
X40817Y34802D01*
X40813Y34802D01*
X40805Y34804D01*
X40797Y34806D01*
X40788Y34809D01*
X40784Y34811D01*
X40780Y34813D01*
X40780Y34814D01*
X40780Y34814D01*
X40779Y34815D01*
X40777Y34816D01*
X40776Y34817D01*
X40774Y34819D01*
X40772Y34820D01*
X40769Y34823D01*
X40767Y34825D01*
X40765Y34828D01*
X40760Y34834D01*
X40755Y34842D01*
X40751Y34850D01*
Y34850D01*
X40750Y34851D01*
X40750Y34852D01*
X40749Y34854D01*
X40749Y34856D01*
X40748Y34859D01*
X40747Y34862D01*
X40746Y34865D01*
X40745Y34869D01*
X40744Y34873D01*
X40743Y34882D01*
X40741Y34891D01*
X40741Y34901D01*
Y34902D01*
Y34903D01*
Y34904D01*
X40741Y34906D01*
Y34909D01*
X40741Y34912D01*
X40742Y34916D01*
X40742Y34919D01*
X40744Y34927D01*
X40746Y34936D01*
X40748Y34945D01*
X40752Y34953D01*
X40753Y34954D01*
X40753Y34955D01*
X40753Y34956D01*
X40754Y34957D01*
X40756Y34959D01*
X40757Y34961D01*
X40761Y34966D01*
X40765Y34972D01*
X40771Y34977D01*
X40777Y34983D01*
X40785Y34988D01*
X40785Y34988D01*
X40786Y34988D01*
X40787Y34989D01*
X40788Y34989D01*
X40790Y34990D01*
X40793Y34991D01*
X40795Y34992D01*
X40798Y34993D01*
X40802Y34994D01*
X40805Y34996D01*
X40813Y34997D01*
X40822Y34999D01*
X40831Y34999D01*
X40834D01*
X40836Y34999D01*
D02*
G37*
G36*
X41050Y34971D02*
X40973D01*
X40963Y34919D01*
X40963Y34919D01*
X40964Y34920D01*
X40965Y34920D01*
X40966Y34921D01*
X40968Y34922D01*
X40970Y34923D01*
X40974Y34925D01*
X40980Y34927D01*
X40986Y34929D01*
X40992Y34931D01*
X40996Y34931D01*
X41002D01*
X41003Y34931D01*
X41006Y34931D01*
X41008Y34930D01*
X41011Y34930D01*
X41014Y34929D01*
X41021Y34927D01*
X41024Y34926D01*
X41028Y34924D01*
X41031Y34922D01*
X41035Y34920D01*
X41038Y34917D01*
X41042Y34914D01*
X41042Y34914D01*
X41043Y34913D01*
X41043Y34912D01*
X41044Y34911D01*
X41046Y34909D01*
X41047Y34907D01*
X41049Y34904D01*
X41051Y34902D01*
X41052Y34899D01*
X41054Y34895D01*
X41055Y34891D01*
X41056Y34888D01*
X41057Y34883D01*
X41058Y34879D01*
X41059Y34874D01*
X41059Y34869D01*
Y34869D01*
Y34868D01*
Y34866D01*
X41059Y34865D01*
X41059Y34862D01*
X41058Y34860D01*
X41058Y34857D01*
X41057Y34854D01*
X41056Y34847D01*
X41053Y34839D01*
X41051Y34835D01*
X41049Y34832D01*
X41047Y34828D01*
X41044Y34824D01*
X41044Y34824D01*
X41043Y34823D01*
X41042Y34822D01*
X41041Y34820D01*
X41039Y34819D01*
X41036Y34817D01*
X41034Y34815D01*
X41031Y34812D01*
X41027Y34810D01*
X41023Y34808D01*
X41019Y34806D01*
X41015Y34804D01*
X41010Y34803D01*
X41005Y34802D01*
X40999Y34801D01*
X40993Y34801D01*
X40991D01*
X40989Y34801D01*
X40987Y34801D01*
X40984Y34802D01*
X40981Y34802D01*
X40978Y34803D01*
X40971Y34804D01*
X40964Y34807D01*
X40961Y34809D01*
X40957Y34811D01*
X40954Y34813D01*
X40951Y34815D01*
X40950Y34816D01*
X40950Y34816D01*
X40949Y34817D01*
X40948Y34818D01*
X40947Y34819D01*
X40945Y34821D01*
X40944Y34823D01*
X40942Y34826D01*
X40941Y34828D01*
X40939Y34831D01*
X40936Y34838D01*
X40933Y34846D01*
X40933Y34850D01*
X40932Y34854D01*
X40957Y34856D01*
Y34856D01*
Y34855D01*
X40957Y34855D01*
X40957Y34853D01*
X40958Y34850D01*
X40959Y34846D01*
X40961Y34842D01*
X40963Y34837D01*
X40966Y34833D01*
X40969Y34829D01*
X40970Y34829D01*
X40971Y34828D01*
X40973Y34826D01*
X40976Y34825D01*
X40979Y34823D01*
X40984Y34822D01*
X40988Y34820D01*
X40993Y34820D01*
X40995D01*
X40996Y34820D01*
X41000Y34821D01*
X41003Y34822D01*
X41008Y34823D01*
X41013Y34825D01*
X41018Y34829D01*
X41020Y34831D01*
X41022Y34833D01*
X41023Y34833D01*
X41023Y34834D01*
X41023Y34834D01*
X41024Y34835D01*
X41026Y34838D01*
X41028Y34842D01*
X41030Y34847D01*
X41032Y34853D01*
X41034Y34860D01*
X41034Y34863D01*
Y34867D01*
Y34867D01*
Y34868D01*
Y34869D01*
X41034Y34870D01*
Y34872D01*
X41034Y34874D01*
X41033Y34878D01*
X41031Y34884D01*
X41030Y34889D01*
X41027Y34894D01*
X41023Y34899D01*
Y34899D01*
X41022Y34899D01*
X41021Y34901D01*
X41018Y34902D01*
X41015Y34905D01*
X41011Y34907D01*
X41006Y34909D01*
X41000Y34910D01*
X40997Y34911D01*
X40991D01*
X40989Y34910D01*
X40986Y34910D01*
X40983Y34909D01*
X40980Y34908D01*
X40976Y34907D01*
X40972Y34905D01*
X40972Y34905D01*
X40971Y34904D01*
X40969Y34903D01*
X40967Y34902D01*
X40965Y34900D01*
X40963Y34897D01*
X40960Y34895D01*
X40958Y34892D01*
X40936Y34895D01*
X40955Y34993D01*
X41050D01*
Y34971D01*
D02*
G37*
G36*
X37787Y37299D02*
X37789Y37299D01*
X37793Y37298D01*
X37796Y37298D01*
X37799Y37297D01*
X37807Y37296D01*
X37815Y37293D01*
X37819Y37291D01*
X37823Y37289D01*
X37827Y37287D01*
X37831Y37284D01*
X37831Y37284D01*
X37832Y37284D01*
X37833Y37283D01*
X37834Y37282D01*
X37835Y37280D01*
X37837Y37278D01*
X37839Y37276D01*
X37842Y37274D01*
X37844Y37271D01*
X37846Y37268D01*
X37848Y37265D01*
X37851Y37261D01*
X37853Y37257D01*
X37855Y37253D01*
X37857Y37248D01*
X37858Y37243D01*
X37833Y37237D01*
Y37238D01*
X37833Y37238D01*
X37832Y37239D01*
X37832Y37241D01*
X37831Y37242D01*
X37830Y37245D01*
X37828Y37249D01*
X37825Y37254D01*
X37822Y37259D01*
X37818Y37264D01*
X37814Y37268D01*
X37813Y37268D01*
X37811Y37270D01*
X37809Y37271D01*
X37805Y37273D01*
X37800Y37275D01*
X37795Y37276D01*
X37789Y37277D01*
X37782Y37278D01*
X37780D01*
X37778Y37277D01*
X37776D01*
X37774Y37277D01*
X37769Y37276D01*
X37763Y37275D01*
X37757Y37273D01*
X37750Y37270D01*
X37745Y37267D01*
X37744D01*
X37744Y37266D01*
X37742Y37265D01*
X37740Y37263D01*
X37737Y37259D01*
X37733Y37255D01*
X37730Y37250D01*
X37727Y37245D01*
X37724Y37238D01*
Y37238D01*
X37724Y37237D01*
X37723Y37237D01*
X37723Y37235D01*
X37722Y37234D01*
X37722Y37232D01*
X37721Y37227D01*
X37720Y37221D01*
X37719Y37215D01*
X37718Y37209D01*
X37718Y37201D01*
Y37201D01*
Y37200D01*
Y37199D01*
Y37197D01*
X37718Y37195D01*
Y37193D01*
X37719Y37190D01*
X37719Y37187D01*
X37720Y37180D01*
X37721Y37173D01*
X37723Y37166D01*
X37725Y37159D01*
Y37158D01*
X37725Y37158D01*
X37726Y37157D01*
X37726Y37156D01*
X37728Y37152D01*
X37730Y37148D01*
X37734Y37144D01*
X37737Y37139D01*
X37742Y37135D01*
X37747Y37131D01*
X37747D01*
X37748Y37131D01*
X37749Y37130D01*
X37750Y37130D01*
X37751Y37129D01*
X37753Y37129D01*
X37757Y37127D01*
X37762Y37125D01*
X37767Y37124D01*
X37773Y37123D01*
X37780Y37122D01*
X37782D01*
X37783Y37123D01*
X37785D01*
X37787Y37123D01*
X37792Y37124D01*
X37798Y37125D01*
X37804Y37128D01*
X37810Y37131D01*
X37813Y37132D01*
X37816Y37135D01*
X37816Y37135D01*
X37816Y37135D01*
X37817Y37136D01*
X37818Y37137D01*
X37819Y37138D01*
X37821Y37140D01*
X37822Y37142D01*
X37824Y37144D01*
X37825Y37146D01*
X37827Y37149D01*
X37829Y37152D01*
X37831Y37155D01*
X37832Y37159D01*
X37834Y37163D01*
X37835Y37167D01*
X37836Y37171D01*
X37861Y37165D01*
Y37165D01*
X37861Y37163D01*
X37861Y37162D01*
X37860Y37160D01*
X37859Y37157D01*
X37858Y37154D01*
X37857Y37151D01*
X37855Y37147D01*
X37851Y37139D01*
X37846Y37132D01*
X37843Y37128D01*
X37840Y37124D01*
X37837Y37120D01*
X37833Y37117D01*
X37832Y37117D01*
X37832Y37116D01*
X37830Y37116D01*
X37829Y37115D01*
X37827Y37113D01*
X37825Y37112D01*
X37822Y37111D01*
X37819Y37109D01*
X37815Y37107D01*
X37811Y37106D01*
X37807Y37105D01*
X37802Y37103D01*
X37798Y37102D01*
X37793Y37102D01*
X37788Y37101D01*
X37782Y37101D01*
X37779D01*
X37777Y37101D01*
X37774D01*
X37771Y37101D01*
X37768Y37102D01*
X37764Y37102D01*
X37756Y37104D01*
X37748Y37106D01*
X37739Y37109D01*
X37735Y37111D01*
X37732Y37113D01*
X37731Y37114D01*
X37731Y37114D01*
X37730Y37115D01*
X37729Y37116D01*
X37727Y37117D01*
X37725Y37119D01*
X37723Y37120D01*
X37720Y37123D01*
X37718Y37125D01*
X37716Y37128D01*
X37711Y37134D01*
X37706Y37142D01*
X37702Y37150D01*
Y37150D01*
X37701Y37151D01*
X37701Y37152D01*
X37700Y37154D01*
X37700Y37156D01*
X37699Y37159D01*
X37698Y37162D01*
X37697Y37165D01*
X37696Y37169D01*
X37695Y37173D01*
X37694Y37182D01*
X37693Y37191D01*
X37692Y37201D01*
Y37202D01*
Y37203D01*
Y37204D01*
X37692Y37206D01*
Y37209D01*
X37693Y37212D01*
X37693Y37216D01*
X37693Y37219D01*
X37695Y37227D01*
X37697Y37236D01*
X37699Y37245D01*
X37703Y37253D01*
X37704Y37254D01*
X37704Y37255D01*
X37704Y37256D01*
X37706Y37257D01*
X37707Y37259D01*
X37708Y37261D01*
X37712Y37266D01*
X37716Y37272D01*
X37722Y37277D01*
X37728Y37283D01*
X37736Y37288D01*
X37736Y37288D01*
X37737Y37288D01*
X37738Y37289D01*
X37739Y37289D01*
X37742Y37290D01*
X37744Y37291D01*
X37747Y37292D01*
X37750Y37293D01*
X37753Y37294D01*
X37757Y37296D01*
X37764Y37297D01*
X37773Y37299D01*
X37782Y37299D01*
X37785D01*
X37787Y37299D01*
D02*
G37*
G36*
X37982Y37172D02*
X38008D01*
Y37150D01*
X37982D01*
Y37104D01*
X37958D01*
Y37150D01*
X37875D01*
Y37172D01*
X37963Y37296D01*
X37982D01*
Y37172D01*
D02*
G37*
G36*
X35837Y30849D02*
X35839Y30849D01*
X35842Y30848D01*
X35845Y30848D01*
X35849Y30847D01*
X35856Y30846D01*
X35865Y30843D01*
X35869Y30841D01*
X35873Y30839D01*
X35876Y30837D01*
X35880Y30834D01*
X35881Y30834D01*
X35881Y30834D01*
X35882Y30833D01*
X35884Y30832D01*
X35885Y30830D01*
X35887Y30828D01*
X35889Y30826D01*
X35891Y30824D01*
X35893Y30821D01*
X35896Y30818D01*
X35898Y30815D01*
X35900Y30811D01*
X35902Y30807D01*
X35904Y30803D01*
X35906Y30798D01*
X35908Y30793D01*
X35883Y30787D01*
Y30788D01*
X35883Y30788D01*
X35882Y30789D01*
X35881Y30791D01*
X35881Y30792D01*
X35880Y30795D01*
X35878Y30799D01*
X35875Y30804D01*
X35872Y30809D01*
X35868Y30814D01*
X35863Y30818D01*
X35863Y30818D01*
X35861Y30820D01*
X35858Y30821D01*
X35855Y30823D01*
X35850Y30825D01*
X35845Y30826D01*
X35838Y30827D01*
X35831Y30828D01*
X35829D01*
X35828Y30827D01*
X35826D01*
X35824Y30827D01*
X35818Y30826D01*
X35812Y30825D01*
X35806Y30823D01*
X35800Y30820D01*
X35794Y30817D01*
X35794D01*
X35794Y30816D01*
X35792Y30815D01*
X35789Y30813D01*
X35786Y30809D01*
X35783Y30805D01*
X35779Y30800D01*
X35776Y30795D01*
X35773Y30788D01*
Y30788D01*
X35773Y30787D01*
X35773Y30787D01*
X35773Y30785D01*
X35772Y30784D01*
X35771Y30782D01*
X35771Y30777D01*
X35770Y30771D01*
X35768Y30765D01*
X35768Y30759D01*
X35768Y30751D01*
Y30751D01*
Y30750D01*
Y30749D01*
Y30747D01*
X35768Y30745D01*
Y30743D01*
X35768Y30740D01*
X35768Y30737D01*
X35769Y30730D01*
X35771Y30723D01*
X35772Y30716D01*
X35775Y30709D01*
Y30708D01*
X35775Y30708D01*
X35775Y30707D01*
X35776Y30706D01*
X35778Y30702D01*
X35780Y30698D01*
X35783Y30694D01*
X35787Y30689D01*
X35791Y30685D01*
X35797Y30681D01*
X35797D01*
X35798Y30681D01*
X35798Y30680D01*
X35799Y30680D01*
X35801Y30679D01*
X35803Y30679D01*
X35806Y30677D01*
X35811Y30675D01*
X35817Y30674D01*
X35823Y30673D01*
X35829Y30672D01*
X35831D01*
X35833Y30673D01*
X35835D01*
X35837Y30673D01*
X35842Y30674D01*
X35848Y30675D01*
X35853Y30678D01*
X35860Y30681D01*
X35863Y30682D01*
X35865Y30685D01*
X35866Y30685D01*
X35866Y30685D01*
X35867Y30686D01*
X35868Y30687D01*
X35869Y30688D01*
X35870Y30690D01*
X35872Y30692D01*
X35873Y30694D01*
X35875Y30696D01*
X35877Y30699D01*
X35879Y30702D01*
X35880Y30705D01*
X35882Y30709D01*
X35883Y30713D01*
X35884Y30717D01*
X35886Y30721D01*
X35911Y30715D01*
Y30715D01*
X35911Y30713D01*
X35910Y30712D01*
X35909Y30710D01*
X35909Y30707D01*
X35907Y30704D01*
X35906Y30701D01*
X35904Y30697D01*
X35901Y30689D01*
X35896Y30682D01*
X35893Y30678D01*
X35889Y30674D01*
X35886Y30670D01*
X35882Y30667D01*
X35882Y30667D01*
X35881Y30666D01*
X35880Y30666D01*
X35879Y30665D01*
X35876Y30663D01*
X35874Y30662D01*
X35871Y30661D01*
X35868Y30659D01*
X35865Y30657D01*
X35861Y30656D01*
X35857Y30655D01*
X35852Y30653D01*
X35847Y30652D01*
X35842Y30652D01*
X35837Y30651D01*
X35832Y30651D01*
X35829D01*
X35826Y30651D01*
X35824D01*
X35821Y30651D01*
X35817Y30652D01*
X35814Y30652D01*
X35806Y30654D01*
X35797Y30656D01*
X35789Y30659D01*
X35785Y30661D01*
X35781Y30663D01*
X35781Y30664D01*
X35780Y30664D01*
X35779Y30665D01*
X35778Y30666D01*
X35776Y30667D01*
X35775Y30669D01*
X35772Y30670D01*
X35770Y30673D01*
X35768Y30675D01*
X35765Y30678D01*
X35760Y30684D01*
X35756Y30692D01*
X35752Y30700D01*
Y30700D01*
X35751Y30701D01*
X35751Y30702D01*
X35750Y30704D01*
X35749Y30706D01*
X35748Y30709D01*
X35747Y30712D01*
X35747Y30715D01*
X35746Y30719D01*
X35745Y30723D01*
X35743Y30732D01*
X35742Y30741D01*
X35742Y30751D01*
Y30752D01*
Y30753D01*
Y30754D01*
X35742Y30756D01*
Y30759D01*
X35742Y30762D01*
X35742Y30766D01*
X35743Y30769D01*
X35744Y30777D01*
X35746Y30786D01*
X35749Y30795D01*
X35753Y30803D01*
X35753Y30804D01*
X35753Y30805D01*
X35754Y30806D01*
X35755Y30807D01*
X35756Y30809D01*
X35758Y30811D01*
X35761Y30816D01*
X35766Y30822D01*
X35771Y30827D01*
X35778Y30833D01*
X35785Y30838D01*
X35786Y30838D01*
X35786Y30838D01*
X35788Y30839D01*
X35789Y30839D01*
X35791Y30840D01*
X35793Y30841D01*
X35796Y30842D01*
X35799Y30843D01*
X35803Y30844D01*
X35806Y30846D01*
X35814Y30847D01*
X35823Y30849D01*
X35832Y30849D01*
X35835D01*
X35837Y30849D01*
D02*
G37*
G36*
X35999Y30846D02*
X36002Y30846D01*
X36007Y30845D01*
X36012Y30844D01*
X36017Y30842D01*
X36022Y30840D01*
X36022D01*
X36022Y30839D01*
X36024Y30839D01*
X36026Y30837D01*
X36029Y30835D01*
X36032Y30832D01*
X36036Y30829D01*
X36039Y30826D01*
X36042Y30821D01*
X36042Y30821D01*
X36043Y30820D01*
X36044Y30817D01*
X36045Y30814D01*
X36047Y30810D01*
X36048Y30806D01*
X36049Y30802D01*
X36049Y30797D01*
Y30796D01*
Y30795D01*
X36049Y30792D01*
X36048Y30789D01*
X36047Y30786D01*
X36046Y30782D01*
X36044Y30778D01*
X36042Y30774D01*
X36042Y30774D01*
X36041Y30772D01*
X36039Y30770D01*
X36037Y30768D01*
X36034Y30766D01*
X36031Y30763D01*
X36027Y30761D01*
X36022Y30758D01*
X36023D01*
X36023Y30758D01*
X36024Y30757D01*
X36025Y30757D01*
X36028Y30756D01*
X36032Y30754D01*
X36037Y30752D01*
X36041Y30749D01*
X36045Y30746D01*
X36049Y30742D01*
X36049Y30741D01*
X36050Y30739D01*
X36052Y30737D01*
X36054Y30733D01*
X36055Y30729D01*
X36057Y30723D01*
X36058Y30717D01*
X36058Y30711D01*
Y30710D01*
Y30710D01*
Y30708D01*
X36058Y30707D01*
X36058Y30704D01*
X36057Y30702D01*
X36057Y30699D01*
X36056Y30696D01*
X36054Y30689D01*
X36052Y30686D01*
X36051Y30682D01*
X36048Y30679D01*
X36046Y30675D01*
X36043Y30672D01*
X36040Y30668D01*
X36040Y30668D01*
X36039Y30667D01*
X36038Y30667D01*
X36037Y30666D01*
X36035Y30664D01*
X36033Y30663D01*
X36030Y30661D01*
X36027Y30660D01*
X36024Y30658D01*
X36021Y30656D01*
X36017Y30655D01*
X36013Y30654D01*
X36008Y30652D01*
X36004Y30652D01*
X35999Y30651D01*
X35994Y30651D01*
X35991D01*
X35989Y30651D01*
X35987Y30651D01*
X35985Y30652D01*
X35982Y30652D01*
X35979Y30653D01*
X35972Y30654D01*
X35965Y30657D01*
X35962Y30659D01*
X35958Y30661D01*
X35955Y30663D01*
X35952Y30666D01*
X35952Y30666D01*
X35951Y30667D01*
X35950Y30667D01*
X35949Y30669D01*
X35948Y30670D01*
X35947Y30672D01*
X35945Y30674D01*
X35943Y30676D01*
X35942Y30679D01*
X35940Y30682D01*
X35937Y30689D01*
X35934Y30696D01*
X35934Y30700D01*
X35933Y30705D01*
X35957Y30708D01*
Y30708D01*
X35957Y30707D01*
X35957Y30706D01*
X35957Y30705D01*
X35958Y30703D01*
X35958Y30701D01*
X35960Y30697D01*
X35961Y30692D01*
X35964Y30687D01*
X35967Y30683D01*
X35970Y30679D01*
X35971Y30679D01*
X35972Y30677D01*
X35974Y30676D01*
X35977Y30675D01*
X35980Y30673D01*
X35984Y30672D01*
X35989Y30670D01*
X35994Y30670D01*
X35996D01*
X35997Y30670D01*
X36000Y30671D01*
X36004Y30672D01*
X36008Y30673D01*
X36013Y30675D01*
X36017Y30678D01*
X36022Y30682D01*
X36022Y30682D01*
X36024Y30684D01*
X36025Y30686D01*
X36028Y30690D01*
X36030Y30694D01*
X36032Y30698D01*
X36033Y30704D01*
X36034Y30710D01*
Y30710D01*
Y30711D01*
Y30712D01*
X36033Y30713D01*
X36033Y30716D01*
X36032Y30720D01*
X36031Y30724D01*
X36029Y30728D01*
X36026Y30733D01*
X36023Y30737D01*
X36022Y30738D01*
X36021Y30739D01*
X36019Y30740D01*
X36016Y30742D01*
X36012Y30744D01*
X36007Y30746D01*
X36002Y30747D01*
X35996Y30748D01*
X35993D01*
X35991Y30747D01*
X35989Y30747D01*
X35986Y30746D01*
X35983Y30746D01*
X35979Y30745D01*
X35982Y30766D01*
X35983D01*
X35984Y30766D01*
X35988D01*
X35991Y30766D01*
X35995Y30767D01*
X35999Y30767D01*
X36004Y30769D01*
X36008Y30771D01*
X36013Y30773D01*
X36013D01*
X36013Y30774D01*
X36015Y30775D01*
X36017Y30777D01*
X36019Y30779D01*
X36021Y30783D01*
X36023Y30787D01*
X36024Y30792D01*
X36025Y30794D01*
Y30797D01*
Y30798D01*
Y30798D01*
Y30800D01*
X36024Y30802D01*
X36024Y30805D01*
X36023Y30808D01*
X36021Y30812D01*
X36019Y30815D01*
X36016Y30819D01*
X36016Y30819D01*
X36014Y30820D01*
X36012Y30821D01*
X36010Y30823D01*
X36007Y30825D01*
X36003Y30826D01*
X35998Y30827D01*
X35993Y30827D01*
X35991D01*
X35989Y30827D01*
X35985Y30826D01*
X35982Y30825D01*
X35978Y30824D01*
X35974Y30821D01*
X35971Y30819D01*
X35970Y30818D01*
X35969Y30817D01*
X35968Y30815D01*
X35966Y30812D01*
X35964Y30809D01*
X35962Y30804D01*
X35960Y30799D01*
X35959Y30793D01*
X35935Y30797D01*
Y30797D01*
X35936Y30798D01*
X35936Y30799D01*
X35936Y30801D01*
X35937Y30803D01*
X35938Y30805D01*
X35939Y30810D01*
X35942Y30816D01*
X35945Y30823D01*
X35950Y30828D01*
X35955Y30834D01*
X35955Y30834D01*
X35956Y30834D01*
X35957Y30835D01*
X35958Y30836D01*
X35959Y30837D01*
X35961Y30838D01*
X35963Y30839D01*
X35965Y30840D01*
X35971Y30843D01*
X35977Y30845D01*
X35985Y30846D01*
X35989Y30847D01*
X35996D01*
X35999Y30846D01*
D02*
G37*
G36*
X35588Y32699D02*
X35590Y32699D01*
X35593Y32698D01*
X35596Y32698D01*
X35600Y32697D01*
X35607Y32696D01*
X35616Y32693D01*
X35620Y32691D01*
X35624Y32689D01*
X35627Y32687D01*
X35631Y32684D01*
X35632Y32684D01*
X35632Y32684D01*
X35633Y32683D01*
X35635Y32682D01*
X35636Y32680D01*
X35638Y32678D01*
X35640Y32676D01*
X35642Y32674D01*
X35644Y32671D01*
X35647Y32668D01*
X35649Y32665D01*
X35651Y32661D01*
X35653Y32657D01*
X35655Y32653D01*
X35657Y32648D01*
X35659Y32643D01*
X35634Y32637D01*
Y32638D01*
X35634Y32638D01*
X35633Y32639D01*
X35632Y32641D01*
X35632Y32642D01*
X35631Y32645D01*
X35629Y32649D01*
X35626Y32654D01*
X35623Y32659D01*
X35619Y32664D01*
X35614Y32668D01*
X35614Y32668D01*
X35612Y32670D01*
X35609Y32671D01*
X35606Y32673D01*
X35601Y32675D01*
X35596Y32676D01*
X35589Y32677D01*
X35582Y32678D01*
X35580D01*
X35579Y32677D01*
X35577D01*
X35575Y32677D01*
X35569Y32676D01*
X35563Y32675D01*
X35557Y32673D01*
X35551Y32670D01*
X35545Y32667D01*
X35545D01*
X35545Y32666D01*
X35543Y32665D01*
X35540Y32663D01*
X35537Y32659D01*
X35534Y32655D01*
X35530Y32650D01*
X35527Y32645D01*
X35524Y32638D01*
Y32638D01*
X35524Y32637D01*
X35524Y32637D01*
X35524Y32635D01*
X35523Y32634D01*
X35522Y32632D01*
X35522Y32627D01*
X35521Y32621D01*
X35519Y32615D01*
X35519Y32609D01*
X35519Y32601D01*
Y32601D01*
Y32600D01*
Y32599D01*
Y32597D01*
X35519Y32595D01*
Y32593D01*
X35519Y32590D01*
X35519Y32587D01*
X35520Y32580D01*
X35522Y32573D01*
X35523Y32566D01*
X35525Y32559D01*
Y32558D01*
X35526Y32558D01*
X35526Y32557D01*
X35527Y32556D01*
X35529Y32552D01*
X35531Y32548D01*
X35534Y32544D01*
X35538Y32539D01*
X35542Y32535D01*
X35548Y32531D01*
X35548D01*
X35548Y32531D01*
X35549Y32530D01*
X35550Y32530D01*
X35552Y32529D01*
X35553Y32529D01*
X35557Y32527D01*
X35562Y32525D01*
X35568Y32524D01*
X35574Y32523D01*
X35580Y32522D01*
X35582D01*
X35584Y32523D01*
X35586D01*
X35588Y32523D01*
X35593Y32524D01*
X35599Y32525D01*
X35604Y32528D01*
X35611Y32531D01*
X35614Y32532D01*
X35616Y32535D01*
X35617Y32535D01*
X35617Y32535D01*
X35618Y32536D01*
X35619Y32537D01*
X35620Y32538D01*
X35621Y32540D01*
X35623Y32542D01*
X35624Y32544D01*
X35626Y32546D01*
X35628Y32549D01*
X35630Y32552D01*
X35631Y32555D01*
X35633Y32559D01*
X35634Y32563D01*
X35635Y32567D01*
X35637Y32571D01*
X35662Y32565D01*
Y32565D01*
X35662Y32563D01*
X35661Y32562D01*
X35660Y32560D01*
X35660Y32557D01*
X35658Y32554D01*
X35657Y32551D01*
X35655Y32547D01*
X35652Y32539D01*
X35647Y32532D01*
X35643Y32528D01*
X35640Y32524D01*
X35637Y32520D01*
X35633Y32517D01*
X35633Y32517D01*
X35632Y32516D01*
X35631Y32516D01*
X35630Y32515D01*
X35627Y32513D01*
X35625Y32512D01*
X35622Y32511D01*
X35619Y32509D01*
X35616Y32507D01*
X35612Y32506D01*
X35607Y32505D01*
X35603Y32503D01*
X35598Y32502D01*
X35593Y32502D01*
X35588Y32501D01*
X35583Y32501D01*
X35580D01*
X35577Y32501D01*
X35575D01*
X35572Y32501D01*
X35568Y32502D01*
X35565Y32503D01*
X35557Y32504D01*
X35548Y32506D01*
X35540Y32509D01*
X35536Y32511D01*
X35532Y32513D01*
X35532Y32514D01*
X35531Y32514D01*
X35530Y32515D01*
X35529Y32516D01*
X35527Y32517D01*
X35525Y32519D01*
X35523Y32520D01*
X35521Y32523D01*
X35519Y32525D01*
X35516Y32528D01*
X35511Y32534D01*
X35507Y32542D01*
X35503Y32550D01*
Y32550D01*
X35502Y32551D01*
X35502Y32552D01*
X35501Y32554D01*
X35500Y32556D01*
X35499Y32559D01*
X35498Y32562D01*
X35498Y32565D01*
X35497Y32569D01*
X35496Y32573D01*
X35494Y32582D01*
X35493Y32591D01*
X35493Y32601D01*
Y32602D01*
Y32603D01*
Y32604D01*
X35493Y32606D01*
Y32609D01*
X35493Y32612D01*
X35493Y32616D01*
X35494Y32619D01*
X35495Y32627D01*
X35497Y32636D01*
X35500Y32645D01*
X35504Y32653D01*
X35504Y32654D01*
X35504Y32655D01*
X35505Y32656D01*
X35506Y32657D01*
X35507Y32659D01*
X35509Y32661D01*
X35512Y32666D01*
X35517Y32672D01*
X35522Y32677D01*
X35529Y32683D01*
X35536Y32688D01*
X35537Y32688D01*
X35537Y32688D01*
X35539Y32689D01*
X35540Y32689D01*
X35542Y32690D01*
X35544Y32691D01*
X35547Y32692D01*
X35550Y32693D01*
X35553Y32694D01*
X35557Y32696D01*
X35565Y32697D01*
X35574Y32699D01*
X35583Y32699D01*
X35586D01*
X35588Y32699D01*
D02*
G37*
G36*
X35752Y32696D02*
X35754Y32696D01*
X35757Y32696D01*
X35760Y32695D01*
X35763Y32695D01*
X35770Y32693D01*
X35777Y32690D01*
X35781Y32688D01*
X35784Y32686D01*
X35788Y32684D01*
X35791Y32681D01*
X35791Y32681D01*
X35792Y32681D01*
X35792Y32680D01*
X35793Y32678D01*
X35795Y32677D01*
X35796Y32675D01*
X35798Y32673D01*
X35799Y32671D01*
X35802Y32665D01*
X35805Y32659D01*
X35806Y32655D01*
X35806Y32652D01*
X35807Y32648D01*
X35807Y32643D01*
Y32643D01*
Y32642D01*
X35807Y32639D01*
X35807Y32636D01*
X35806Y32633D01*
X35805Y32629D01*
X35804Y32625D01*
X35802Y32621D01*
X35802Y32620D01*
X35801Y32619D01*
X35800Y32617D01*
X35799Y32614D01*
X35796Y32610D01*
X35794Y32606D01*
X35790Y32602D01*
X35786Y32597D01*
X35786Y32597D01*
X35784Y32595D01*
X35783Y32594D01*
X35782Y32592D01*
X35780Y32591D01*
X35778Y32588D01*
X35776Y32586D01*
X35773Y32584D01*
X35770Y32581D01*
X35767Y32578D01*
X35763Y32575D01*
X35759Y32571D01*
X35755Y32568D01*
X35750Y32564D01*
X35750Y32563D01*
X35750Y32563D01*
X35748Y32562D01*
X35747Y32561D01*
X35745Y32559D01*
X35743Y32558D01*
X35739Y32554D01*
X35734Y32550D01*
X35730Y32546D01*
X35726Y32542D01*
X35724Y32541D01*
X35723Y32539D01*
X35723Y32539D01*
X35722Y32538D01*
X35721Y32537D01*
X35719Y32535D01*
X35718Y32534D01*
X35716Y32532D01*
X35713Y32527D01*
X35807D01*
Y32504D01*
X35680D01*
Y32504D01*
Y32506D01*
Y32507D01*
X35681Y32509D01*
X35681Y32512D01*
X35681Y32515D01*
X35682Y32517D01*
X35683Y32520D01*
Y32521D01*
X35683Y32521D01*
X35684Y32523D01*
X35685Y32525D01*
X35687Y32529D01*
X35689Y32532D01*
X35692Y32537D01*
X35695Y32541D01*
X35699Y32546D01*
Y32546D01*
X35699Y32547D01*
X35701Y32548D01*
X35703Y32551D01*
X35707Y32554D01*
X35711Y32558D01*
X35716Y32563D01*
X35722Y32569D01*
X35729Y32575D01*
X35730Y32575D01*
X35731Y32576D01*
X35732Y32577D01*
X35734Y32579D01*
X35737Y32581D01*
X35740Y32584D01*
X35743Y32586D01*
X35747Y32589D01*
X35753Y32596D01*
X35760Y32603D01*
X35764Y32606D01*
X35767Y32609D01*
X35770Y32612D01*
X35772Y32616D01*
Y32616D01*
X35772Y32616D01*
X35773Y32617D01*
X35773Y32618D01*
X35775Y32621D01*
X35778Y32625D01*
X35780Y32629D01*
X35781Y32634D01*
X35783Y32639D01*
X35783Y32644D01*
Y32644D01*
Y32645D01*
X35783Y32646D01*
X35783Y32649D01*
X35782Y32652D01*
X35781Y32656D01*
X35779Y32660D01*
X35776Y32664D01*
X35773Y32668D01*
X35772Y32668D01*
X35771Y32669D01*
X35769Y32671D01*
X35766Y32673D01*
X35762Y32674D01*
X35758Y32676D01*
X35752Y32677D01*
X35747Y32677D01*
X35745D01*
X35744Y32677D01*
X35740Y32677D01*
X35737Y32676D01*
X35732Y32675D01*
X35728Y32673D01*
X35723Y32670D01*
X35719Y32667D01*
X35719Y32666D01*
X35717Y32665D01*
X35716Y32663D01*
X35714Y32660D01*
X35712Y32656D01*
X35711Y32651D01*
X35709Y32645D01*
X35709Y32639D01*
X35685Y32641D01*
Y32642D01*
X35685Y32642D01*
Y32644D01*
X35685Y32646D01*
X35686Y32648D01*
X35686Y32650D01*
X35687Y32653D01*
X35688Y32657D01*
X35690Y32663D01*
X35694Y32670D01*
X35696Y32673D01*
X35698Y32676D01*
X35701Y32680D01*
X35703Y32682D01*
X35704Y32683D01*
X35704Y32683D01*
X35705Y32684D01*
X35706Y32684D01*
X35708Y32686D01*
X35710Y32687D01*
X35712Y32688D01*
X35715Y32689D01*
X35718Y32691D01*
X35721Y32692D01*
X35725Y32693D01*
X35729Y32694D01*
X35733Y32695D01*
X35737Y32696D01*
X35742Y32696D01*
X35747Y32697D01*
X35750D01*
X35752Y32696D01*
D02*
G37*
G36*
X37505Y28849D02*
X37508Y28849D01*
X37511Y28848D01*
X37514Y28848D01*
X37517Y28847D01*
X37525Y28846D01*
X37533Y28843D01*
X37537Y28841D01*
X37541Y28839D01*
X37545Y28837D01*
X37549Y28834D01*
X37549Y28834D01*
X37550Y28834D01*
X37551Y28833D01*
X37552Y28832D01*
X37554Y28830D01*
X37556Y28828D01*
X37557Y28826D01*
X37560Y28824D01*
X37562Y28821D01*
X37564Y28818D01*
X37567Y28815D01*
X37569Y28811D01*
X37571Y28807D01*
X37573Y28803D01*
X37575Y28798D01*
X37576Y28793D01*
X37551Y28787D01*
Y28788D01*
X37551Y28788D01*
X37551Y28789D01*
X37550Y28791D01*
X37549Y28792D01*
X37549Y28795D01*
X37546Y28799D01*
X37544Y28804D01*
X37540Y28809D01*
X37536Y28814D01*
X37532Y28818D01*
X37531Y28818D01*
X37529Y28820D01*
X37527Y28821D01*
X37523Y28823D01*
X37518Y28825D01*
X37513Y28826D01*
X37507Y28827D01*
X37500Y28828D01*
X37498D01*
X37496Y28827D01*
X37494D01*
X37492Y28827D01*
X37487Y28826D01*
X37481Y28825D01*
X37475Y28823D01*
X37469Y28820D01*
X37463Y28817D01*
X37462D01*
X37462Y28816D01*
X37460Y28815D01*
X37458Y28813D01*
X37455Y28809D01*
X37451Y28805D01*
X37448Y28800D01*
X37445Y28795D01*
X37442Y28788D01*
Y28788D01*
X37442Y28787D01*
X37441Y28787D01*
X37441Y28785D01*
X37441Y28784D01*
X37440Y28782D01*
X37439Y28777D01*
X37438Y28771D01*
X37437Y28765D01*
X37436Y28759D01*
X37436Y28751D01*
Y28751D01*
Y28750D01*
Y28749D01*
Y28747D01*
X37436Y28745D01*
Y28743D01*
X37437Y28740D01*
X37437Y28737D01*
X37438Y28730D01*
X37439Y28723D01*
X37441Y28716D01*
X37443Y28709D01*
Y28708D01*
X37443Y28708D01*
X37444Y28707D01*
X37444Y28706D01*
X37446Y28702D01*
X37449Y28698D01*
X37452Y28694D01*
X37456Y28689D01*
X37460Y28685D01*
X37465Y28681D01*
X37466D01*
X37466Y28681D01*
X37467Y28680D01*
X37468Y28680D01*
X37469Y28679D01*
X37471Y28679D01*
X37475Y28677D01*
X37480Y28675D01*
X37485Y28674D01*
X37492Y28673D01*
X37498Y28672D01*
X37500D01*
X37502Y28673D01*
X37503D01*
X37505Y28673D01*
X37510Y28674D01*
X37516Y28675D01*
X37522Y28678D01*
X37528Y28681D01*
X37531Y28682D01*
X37534Y28685D01*
X37534Y28685D01*
X37534Y28685D01*
X37535Y28686D01*
X37536Y28687D01*
X37538Y28688D01*
X37539Y28690D01*
X37541Y28692D01*
X37542Y28694D01*
X37544Y28696D01*
X37546Y28699D01*
X37547Y28702D01*
X37549Y28705D01*
X37550Y28709D01*
X37552Y28713D01*
X37553Y28717D01*
X37554Y28721D01*
X37580Y28715D01*
Y28715D01*
X37579Y28713D01*
X37579Y28712D01*
X37578Y28710D01*
X37577Y28707D01*
X37576Y28704D01*
X37575Y28701D01*
X37573Y28697D01*
X37569Y28689D01*
X37564Y28682D01*
X37561Y28678D01*
X37558Y28674D01*
X37555Y28670D01*
X37551Y28667D01*
X37551Y28667D01*
X37550Y28666D01*
X37549Y28666D01*
X37547Y28665D01*
X37545Y28663D01*
X37543Y28662D01*
X37540Y28661D01*
X37537Y28659D01*
X37533Y28657D01*
X37529Y28656D01*
X37525Y28655D01*
X37521Y28653D01*
X37516Y28652D01*
X37511Y28652D01*
X37506Y28651D01*
X37500Y28651D01*
X37497D01*
X37495Y28651D01*
X37492D01*
X37489Y28651D01*
X37486Y28652D01*
X37482Y28653D01*
X37474Y28654D01*
X37466Y28656D01*
X37457Y28659D01*
X37454Y28661D01*
X37450Y28663D01*
X37449Y28664D01*
X37449Y28664D01*
X37448Y28665D01*
X37447Y28666D01*
X37445Y28667D01*
X37443Y28669D01*
X37441Y28670D01*
X37439Y28673D01*
X37436Y28675D01*
X37434Y28678D01*
X37429Y28684D01*
X37424Y28692D01*
X37420Y28700D01*
Y28700D01*
X37420Y28701D01*
X37419Y28702D01*
X37418Y28704D01*
X37418Y28706D01*
X37417Y28709D01*
X37416Y28712D01*
X37415Y28715D01*
X37414Y28719D01*
X37413Y28723D01*
X37412Y28732D01*
X37411Y28741D01*
X37410Y28751D01*
Y28752D01*
Y28753D01*
Y28754D01*
X37410Y28756D01*
Y28759D01*
X37411Y28762D01*
X37411Y28766D01*
X37411Y28769D01*
X37413Y28777D01*
X37415Y28786D01*
X37418Y28795D01*
X37421Y28803D01*
X37422Y28804D01*
X37422Y28805D01*
X37423Y28806D01*
X37424Y28807D01*
X37425Y28809D01*
X37426Y28811D01*
X37430Y28816D01*
X37434Y28822D01*
X37440Y28827D01*
X37446Y28833D01*
X37454Y28838D01*
X37454Y28838D01*
X37455Y28838D01*
X37456Y28839D01*
X37457Y28839D01*
X37460Y28840D01*
X37462Y28841D01*
X37465Y28842D01*
X37468Y28843D01*
X37471Y28844D01*
X37475Y28846D01*
X37482Y28847D01*
X37491Y28849D01*
X37500Y28849D01*
X37503D01*
X37505Y28849D01*
D02*
G37*
G36*
X37690Y28654D02*
X37666D01*
Y28804D01*
X37666Y28804D01*
X37665Y28803D01*
X37663Y28801D01*
X37660Y28799D01*
X37657Y28797D01*
X37653Y28794D01*
X37649Y28791D01*
X37644Y28788D01*
X37644D01*
X37643Y28787D01*
X37642Y28786D01*
X37639Y28785D01*
X37636Y28783D01*
X37632Y28781D01*
X37628Y28779D01*
X37623Y28777D01*
X37619Y28776D01*
Y28798D01*
X37620D01*
X37620Y28799D01*
X37621Y28799D01*
X37623Y28800D01*
X37624Y28801D01*
X37626Y28802D01*
X37631Y28805D01*
X37636Y28808D01*
X37642Y28812D01*
X37648Y28816D01*
X37654Y28821D01*
X37654Y28821D01*
X37654Y28821D01*
X37655Y28822D01*
X37656Y28823D01*
X37659Y28826D01*
X37662Y28829D01*
X37665Y28833D01*
X37669Y28838D01*
X37672Y28842D01*
X37675Y28847D01*
X37690D01*
Y28654D01*
D02*
G37*
%LPC*%
G36*
X36976Y38670D02*
X36915D01*
Y38607D01*
X36973D01*
X36976Y38607D01*
X36980Y38607D01*
X36984Y38608D01*
X36989Y38608D01*
X36993Y38609D01*
X36997Y38610D01*
X36997Y38611D01*
X36999Y38611D01*
X37000Y38612D01*
X37002Y38613D01*
X37005Y38615D01*
X37007Y38617D01*
X37010Y38619D01*
X37012Y38622D01*
X37012Y38622D01*
X37013Y38623D01*
X37014Y38625D01*
X37015Y38627D01*
X37015Y38630D01*
X37016Y38632D01*
X37017Y38636D01*
X37017Y38639D01*
Y38639D01*
Y38640D01*
X37017Y38641D01*
X37017Y38644D01*
X37016Y38647D01*
X37015Y38650D01*
X37013Y38654D01*
X37011Y38658D01*
X37007Y38661D01*
X37007Y38662D01*
X37005Y38663D01*
X37003Y38664D01*
X36999Y38666D01*
X36995Y38668D01*
X36990Y38669D01*
X36983Y38670D01*
X36976Y38670D01*
D02*
G37*
G36*
X34931Y35126D02*
X34870D01*
Y35063D01*
X34927D01*
X34931Y35063D01*
X34934Y35063D01*
X34939Y35064D01*
X34943Y35064D01*
X34948Y35065D01*
X34952Y35066D01*
X34952Y35066D01*
X34953Y35067D01*
X34955Y35068D01*
X34957Y35069D01*
X34960Y35071D01*
X34962Y35072D01*
X34965Y35075D01*
X34967Y35078D01*
X34967Y35078D01*
X34967Y35079D01*
X34968Y35081D01*
X34969Y35083D01*
X34970Y35085D01*
X34971Y35088D01*
X34972Y35092D01*
X34972Y35095D01*
Y35095D01*
Y35095D01*
X34972Y35097D01*
X34971Y35100D01*
X34971Y35103D01*
X34969Y35106D01*
X34968Y35110D01*
X34965Y35114D01*
X34962Y35117D01*
X34961Y35118D01*
X34960Y35119D01*
X34958Y35120D01*
X34954Y35122D01*
X34950Y35123D01*
X34944Y35125D01*
X34938Y35126D01*
X34931Y35126D01*
D02*
G37*
G36*
X39319Y37963D02*
X39258Y37878D01*
X39319D01*
Y37963D01*
D02*
G37*
G36*
X39146Y37980D02*
X39085D01*
Y37917D01*
X39143D01*
X39146Y37917D01*
X39150Y37917D01*
X39154Y37918D01*
X39159Y37918D01*
X39163Y37919D01*
X39167Y37920D01*
X39167Y37921D01*
X39169Y37921D01*
X39170Y37922D01*
X39172Y37923D01*
X39175Y37925D01*
X39177Y37927D01*
X39180Y37929D01*
X39182Y37932D01*
X39182Y37932D01*
X39183Y37933D01*
X39184Y37935D01*
X39185Y37937D01*
X39185Y37940D01*
X39186Y37942D01*
X39187Y37946D01*
X39187Y37949D01*
Y37949D01*
Y37950D01*
X39187Y37951D01*
X39187Y37954D01*
X39186Y37957D01*
X39185Y37960D01*
X39183Y37964D01*
X39181Y37968D01*
X39177Y37971D01*
X39177Y37972D01*
X39175Y37973D01*
X39173Y37974D01*
X39169Y37976D01*
X39165Y37978D01*
X39160Y37979D01*
X39153Y37980D01*
X39146Y37980D01*
D02*
G37*
G36*
X36281Y35126D02*
X36221D01*
Y35062D01*
X36278D01*
X36281Y35063D01*
X36285Y35063D01*
X36290Y35063D01*
X36294Y35064D01*
X36298Y35065D01*
X36302Y35066D01*
X36303Y35066D01*
X36304Y35066D01*
X36306Y35067D01*
X36308Y35068D01*
X36310Y35070D01*
X36313Y35072D01*
X36315Y35075D01*
X36317Y35077D01*
X36318Y35078D01*
X36318Y35079D01*
X36319Y35080D01*
X36320Y35083D01*
X36321Y35085D01*
X36322Y35088D01*
X36322Y35091D01*
X36323Y35094D01*
Y35095D01*
Y35095D01*
X36322Y35097D01*
X36322Y35099D01*
X36321Y35102D01*
X36320Y35106D01*
X36318Y35110D01*
X36316Y35113D01*
X36313Y35117D01*
X36312Y35117D01*
X36311Y35118D01*
X36308Y35120D01*
X36305Y35121D01*
X36301Y35123D01*
X36295Y35124D01*
X36289Y35125D01*
X36281Y35126D01*
D02*
G37*
G36*
X36382Y37274D02*
X36322D01*
Y37211D01*
X36379D01*
X36382Y37211D01*
X36386Y37211D01*
X36391Y37211D01*
X36395Y37212D01*
X36399Y37213D01*
X36403Y37214D01*
X36404Y37214D01*
X36405Y37215D01*
X36407Y37216D01*
X36409Y37217D01*
X36411Y37218D01*
X36414Y37220D01*
X36416Y37223D01*
X36418Y37226D01*
X36419Y37226D01*
X36419Y37227D01*
X36420Y37229D01*
X36421Y37231D01*
X36422Y37233D01*
X36423Y37236D01*
X36423Y37239D01*
X36424Y37243D01*
Y37243D01*
Y37243D01*
X36423Y37245D01*
X36423Y37248D01*
X36422Y37251D01*
X36421Y37254D01*
X36419Y37258D01*
X36417Y37262D01*
X36414Y37265D01*
X36413Y37266D01*
X36412Y37267D01*
X36409Y37268D01*
X36406Y37270D01*
X36402Y37271D01*
X36396Y37273D01*
X36390Y37274D01*
X36382Y37274D01*
D02*
G37*
G36*
X36300Y32674D02*
X36239D01*
Y32611D01*
X36297D01*
X36300Y32611D01*
X36304Y32611D01*
X36308Y32611D01*
X36313Y32612D01*
X36317Y32613D01*
X36321Y32614D01*
X36321Y32614D01*
X36323Y32615D01*
X36324Y32616D01*
X36326Y32617D01*
X36329Y32618D01*
X36331Y32620D01*
X36334Y32623D01*
X36336Y32626D01*
X36336Y32626D01*
X36337Y32627D01*
X36338Y32629D01*
X36339Y32631D01*
X36339Y32633D01*
X36340Y32636D01*
X36341Y32639D01*
X36341Y32643D01*
Y32643D01*
Y32643D01*
X36341Y32645D01*
X36341Y32648D01*
X36340Y32651D01*
X36339Y32654D01*
X36337Y32658D01*
X36334Y32662D01*
X36331Y32665D01*
X36331Y32666D01*
X36329Y32667D01*
X36327Y32668D01*
X36323Y32670D01*
X36319Y32671D01*
X36314Y32673D01*
X36307Y32674D01*
X36300Y32674D01*
D02*
G37*
G36*
X40226Y29983D02*
X40223D01*
X40221Y29983D01*
X40219Y29983D01*
X40216Y29982D01*
X40213Y29981D01*
X40210Y29981D01*
X40206Y29980D01*
X40202Y29978D01*
X40198Y29977D01*
X40194Y29975D01*
X40190Y29973D01*
X40186Y29970D01*
X40182Y29967D01*
X40179Y29963D01*
X40179Y29963D01*
X40178Y29963D01*
X40177Y29961D01*
X40176Y29960D01*
X40174Y29958D01*
X40173Y29955D01*
X40171Y29952D01*
X40170Y29949D01*
X40168Y29945D01*
X40166Y29941D01*
X40165Y29936D01*
X40163Y29931D01*
X40162Y29925D01*
X40161Y29919D01*
X40161Y29912D01*
X40160Y29906D01*
Y29905D01*
Y29904D01*
Y29902D01*
X40161Y29899D01*
X40161Y29896D01*
X40161Y29893D01*
X40162Y29889D01*
X40162Y29884D01*
X40165Y29875D01*
X40166Y29870D01*
X40168Y29866D01*
X40170Y29861D01*
X40172Y29857D01*
X40175Y29852D01*
X40179Y29848D01*
X40179Y29848D01*
X40179Y29847D01*
X40180Y29846D01*
X40182Y29845D01*
X40184Y29843D01*
X40186Y29842D01*
X40189Y29840D01*
X40192Y29838D01*
X40195Y29836D01*
X40198Y29835D01*
X40202Y29833D01*
X40206Y29831D01*
X40211Y29830D01*
X40216Y29829D01*
X40221Y29829D01*
X40226Y29828D01*
X40228D01*
X40231Y29829D01*
X40234Y29829D01*
X40238Y29829D01*
X40243Y29830D01*
X40247Y29832D01*
X40252Y29833D01*
X40251Y29834D01*
X40250Y29835D01*
X40247Y29836D01*
X40244Y29838D01*
X40240Y29839D01*
X40236Y29841D01*
X40231Y29843D01*
X40226Y29844D01*
X40233Y29863D01*
X40233D01*
X40234Y29862D01*
X40235Y29862D01*
X40236Y29862D01*
X40238Y29861D01*
X40241Y29860D01*
X40246Y29858D01*
X40251Y29855D01*
X40257Y29852D01*
X40263Y29849D01*
X40269Y29844D01*
X40269Y29845D01*
X40270Y29845D01*
X40271Y29847D01*
X40273Y29848D01*
X40274Y29850D01*
X40276Y29853D01*
X40278Y29856D01*
X40280Y29860D01*
X40282Y29864D01*
X40284Y29868D01*
X40286Y29873D01*
X40288Y29879D01*
X40290Y29885D01*
X40291Y29891D01*
X40291Y29898D01*
X40292Y29906D01*
Y29906D01*
Y29907D01*
Y29908D01*
Y29909D01*
X40291Y29912D01*
Y29914D01*
X40291Y29917D01*
X40290Y29919D01*
X40290Y29926D01*
X40288Y29933D01*
X40286Y29940D01*
X40284Y29946D01*
Y29947D01*
X40283Y29947D01*
X40283Y29948D01*
X40282Y29949D01*
X40280Y29952D01*
X40278Y29956D01*
X40274Y29961D01*
X40270Y29965D01*
X40266Y29970D01*
X40260Y29973D01*
X40260D01*
X40260Y29974D01*
X40259Y29974D01*
X40257Y29975D01*
X40256Y29976D01*
X40254Y29976D01*
X40250Y29978D01*
X40245Y29980D01*
X40239Y29982D01*
X40233Y29983D01*
X40226Y29983D01*
D02*
G37*
G36*
X36743Y30033D02*
X36741D01*
X36739Y30033D01*
X36736Y30033D01*
X36734Y30032D01*
X36730Y30031D01*
X36727Y30031D01*
X36723Y30029D01*
X36720Y30028D01*
X36716Y30027D01*
X36712Y30025D01*
X36708Y30023D01*
X36704Y30020D01*
X36700Y30017D01*
X36696Y30013D01*
X36696Y30013D01*
X36696Y30013D01*
X36695Y30011D01*
X36694Y30010D01*
X36692Y30008D01*
X36691Y30005D01*
X36689Y30002D01*
X36687Y29999D01*
X36685Y29995D01*
X36684Y29991D01*
X36682Y29986D01*
X36681Y29981D01*
X36679Y29975D01*
X36679Y29969D01*
X36678Y29962D01*
X36678Y29956D01*
Y29955D01*
Y29954D01*
Y29952D01*
X36678Y29949D01*
X36678Y29946D01*
X36679Y29943D01*
X36679Y29939D01*
X36680Y29934D01*
X36682Y29925D01*
X36684Y29920D01*
X36686Y29916D01*
X36688Y29911D01*
X36690Y29907D01*
X36693Y29902D01*
X36696Y29898D01*
X36696Y29898D01*
X36697Y29897D01*
X36698Y29896D01*
X36699Y29895D01*
X36701Y29893D01*
X36704Y29892D01*
X36706Y29890D01*
X36709Y29888D01*
X36712Y29886D01*
X36716Y29885D01*
X36720Y29883D01*
X36724Y29881D01*
X36729Y29880D01*
X36733Y29879D01*
X36738Y29879D01*
X36743Y29878D01*
X36746D01*
X36748Y29879D01*
X36752Y29879D01*
X36756Y29879D01*
X36760Y29880D01*
X36765Y29882D01*
X36769Y29883D01*
X36769Y29884D01*
X36767Y29885D01*
X36765Y29886D01*
X36762Y29888D01*
X36758Y29889D01*
X36754Y29891D01*
X36749Y29893D01*
X36744Y29894D01*
X36750Y29913D01*
X36751D01*
X36752Y29912D01*
X36753Y29912D01*
X36754Y29911D01*
X36756Y29911D01*
X36758Y29910D01*
X36763Y29908D01*
X36769Y29905D01*
X36775Y29902D01*
X36781Y29899D01*
X36787Y29894D01*
X36787Y29895D01*
X36788Y29895D01*
X36789Y29897D01*
X36790Y29898D01*
X36792Y29900D01*
X36794Y29903D01*
X36796Y29906D01*
X36798Y29910D01*
X36800Y29914D01*
X36802Y29918D01*
X36804Y29923D01*
X36806Y29929D01*
X36807Y29935D01*
X36808Y29941D01*
X36809Y29948D01*
X36809Y29956D01*
Y29956D01*
Y29957D01*
Y29958D01*
Y29959D01*
X36809Y29962D01*
Y29964D01*
X36809Y29967D01*
X36808Y29969D01*
X36807Y29976D01*
X36806Y29983D01*
X36804Y29990D01*
X36801Y29996D01*
Y29997D01*
X36801Y29997D01*
X36800Y29998D01*
X36800Y29999D01*
X36798Y30002D01*
X36795Y30006D01*
X36792Y30011D01*
X36788Y30015D01*
X36783Y30020D01*
X36778Y30023D01*
X36778D01*
X36777Y30024D01*
X36776Y30024D01*
X36775Y30025D01*
X36774Y30026D01*
X36772Y30026D01*
X36768Y30028D01*
X36763Y30030D01*
X36757Y30032D01*
X36750Y30033D01*
X36743Y30033D01*
D02*
G37*
G36*
X30070Y41359D02*
X30068D01*
X30067Y41358D01*
X30065Y41358D01*
X30061Y41357D01*
X30057Y41356D01*
X30052Y41354D01*
X30047Y41351D01*
X30043Y41347D01*
X30042Y41346D01*
X30041Y41345D01*
X30039Y41343D01*
X30037Y41339D01*
X30035Y41335D01*
X30034Y41329D01*
X30032Y41324D01*
X30032Y41317D01*
Y41316D01*
Y41315D01*
X30032Y41313D01*
X30032Y41310D01*
X30033Y41306D01*
X30034Y41302D01*
X30035Y41298D01*
X30037Y41294D01*
X30037Y41293D01*
X30038Y41292D01*
X30039Y41290D01*
X30041Y41287D01*
X30043Y41285D01*
X30045Y41282D01*
X30048Y41279D01*
X30051Y41277D01*
X30052Y41277D01*
X30053Y41276D01*
X30055Y41275D01*
X30057Y41274D01*
X30060Y41273D01*
X30063Y41272D01*
X30067Y41271D01*
X30071Y41271D01*
X30072D01*
X30073Y41271D01*
X30076Y41272D01*
X30080Y41272D01*
X30084Y41274D01*
X30088Y41276D01*
X30093Y41279D01*
X30095Y41281D01*
X30097Y41283D01*
Y41283D01*
X30097Y41284D01*
X30098Y41285D01*
X30100Y41288D01*
X30102Y41292D01*
X30104Y41296D01*
X30106Y41302D01*
X30107Y41308D01*
X30107Y41316D01*
Y41316D01*
Y41316D01*
Y41318D01*
X30107Y41319D01*
Y41321D01*
X30107Y41323D01*
X30106Y41327D01*
X30105Y41332D01*
X30103Y41337D01*
X30100Y41342D01*
X30097Y41347D01*
X30096Y41348D01*
X30095Y41349D01*
X30093Y41351D01*
X30089Y41353D01*
X30086Y41355D01*
X30081Y41357D01*
X30076Y41358D01*
X30070Y41359D01*
D02*
G37*
G36*
X41482Y41409D02*
X41421Y41323D01*
X41482D01*
Y41409D01*
D02*
G37*
G36*
X34634Y30173D02*
X34589D01*
Y30026D01*
X34635D01*
X34637Y30027D01*
X34641Y30027D01*
X34646Y30027D01*
X34651Y30028D01*
X34656Y30029D01*
X34660Y30030D01*
X34660Y30030D01*
X34662Y30030D01*
X34664Y30031D01*
X34666Y30032D01*
X34669Y30034D01*
X34672Y30036D01*
X34674Y30038D01*
X34677Y30040D01*
X34677Y30040D01*
X34679Y30041D01*
X34680Y30043D01*
X34682Y30046D01*
X34684Y30050D01*
X34687Y30054D01*
X34689Y30059D01*
X34691Y30064D01*
Y30064D01*
X34691Y30065D01*
X34692Y30066D01*
X34692Y30067D01*
X34692Y30068D01*
X34693Y30070D01*
X34693Y30072D01*
X34694Y30074D01*
X34695Y30080D01*
X34695Y30086D01*
X34696Y30093D01*
X34696Y30101D01*
Y30101D01*
Y30102D01*
Y30104D01*
X34696Y30106D01*
Y30108D01*
X34696Y30111D01*
X34695Y30115D01*
X34695Y30118D01*
X34694Y30125D01*
X34692Y30133D01*
X34690Y30140D01*
X34688Y30144D01*
X34686Y30147D01*
Y30147D01*
X34686Y30148D01*
X34685Y30149D01*
X34685Y30150D01*
X34682Y30152D01*
X34680Y30156D01*
X34676Y30159D01*
X34672Y30163D01*
X34667Y30166D01*
X34662Y30169D01*
X34662Y30169D01*
X34660Y30169D01*
X34658Y30170D01*
X34654Y30171D01*
X34650Y30171D01*
X34644Y30172D01*
X34641Y30172D01*
X34637D01*
X34634Y30173D01*
D02*
G37*
G36*
X39998Y37977D02*
X39994D01*
X39993Y37977D01*
X39990Y37977D01*
X39986Y37976D01*
X39982Y37974D01*
X39977Y37972D01*
X39972Y37969D01*
X39970Y37966D01*
X39968Y37964D01*
Y37964D01*
X39967Y37964D01*
X39967Y37963D01*
X39966Y37962D01*
X39964Y37959D01*
X39962Y37955D01*
X39960Y37951D01*
X39958Y37945D01*
X39957Y37938D01*
X39957Y37931D01*
Y37931D01*
Y37930D01*
Y37929D01*
X39957Y37928D01*
Y37926D01*
X39957Y37925D01*
X39958Y37920D01*
X39959Y37916D01*
X39961Y37911D01*
X39964Y37906D01*
X39967Y37901D01*
X39968Y37901D01*
X39969Y37900D01*
X39972Y37898D01*
X39975Y37896D01*
X39979Y37894D01*
X39984Y37892D01*
X39989Y37891D01*
X39995Y37890D01*
X39997D01*
X39998Y37890D01*
X40001Y37891D01*
X40004Y37891D01*
X40009Y37893D01*
X40013Y37895D01*
X40018Y37898D01*
X40022Y37901D01*
X40022Y37902D01*
X40023Y37904D01*
X40025Y37906D01*
X40027Y37910D01*
X40029Y37914D01*
X40031Y37919D01*
X40032Y37926D01*
X40033Y37933D01*
Y37933D01*
Y37934D01*
Y37935D01*
X40032Y37936D01*
Y37938D01*
X40032Y37940D01*
X40031Y37945D01*
X40030Y37950D01*
X40028Y37955D01*
X40025Y37961D01*
X40022Y37965D01*
Y37966D01*
X40021Y37966D01*
X40020Y37967D01*
X40018Y37969D01*
X40015Y37971D01*
X40011Y37973D01*
X40006Y37975D01*
X40001Y37977D01*
X39998Y37977D01*
D02*
G37*
G36*
X35845Y35127D02*
X35843D01*
X35841Y35127D01*
X35837Y35126D01*
X35834Y35125D01*
X35830Y35124D01*
X35826Y35121D01*
X35823Y35118D01*
X35822Y35118D01*
X35821Y35117D01*
X35820Y35115D01*
X35819Y35113D01*
X35817Y35110D01*
X35816Y35106D01*
X35814Y35102D01*
X35814Y35098D01*
Y35097D01*
Y35097D01*
X35814Y35095D01*
X35815Y35093D01*
X35815Y35090D01*
X35816Y35086D01*
X35818Y35083D01*
X35820Y35079D01*
X35823Y35075D01*
X35823Y35075D01*
X35824Y35074D01*
X35826Y35073D01*
X35829Y35071D01*
X35832Y35070D01*
X35836Y35068D01*
X35840Y35067D01*
X35845Y35067D01*
X35846D01*
X35848Y35067D01*
X35850Y35067D01*
X35853Y35068D01*
X35857Y35069D01*
X35861Y35071D01*
X35865Y35073D01*
X35868Y35075D01*
X35868Y35076D01*
X35869Y35077D01*
X35871Y35079D01*
X35872Y35081D01*
X35874Y35084D01*
X35875Y35088D01*
X35876Y35092D01*
X35877Y35097D01*
Y35097D01*
Y35097D01*
Y35099D01*
X35876Y35101D01*
X35876Y35104D01*
X35875Y35108D01*
X35873Y35111D01*
X35871Y35115D01*
X35868Y35118D01*
X35867Y35119D01*
X35866Y35120D01*
X35864Y35121D01*
X35861Y35123D01*
X35858Y35125D01*
X35855Y35126D01*
X35850Y35127D01*
X35845Y35127D01*
D02*
G37*
G36*
X35845Y35048D02*
X35843D01*
X35842Y35048D01*
X35839Y35047D01*
X35835Y35046D01*
X35830Y35045D01*
X35826Y35043D01*
X35821Y35040D01*
X35817Y35037D01*
X35817Y35036D01*
X35816Y35035D01*
X35814Y35032D01*
X35812Y35029D01*
X35810Y35025D01*
X35808Y35020D01*
X35807Y35015D01*
X35806Y35009D01*
Y35009D01*
Y35008D01*
X35807Y35006D01*
X35807Y35003D01*
X35807Y35000D01*
X35808Y34997D01*
X35809Y34993D01*
X35811Y34990D01*
X35811Y34990D01*
X35812Y34988D01*
X35813Y34987D01*
X35814Y34985D01*
X35816Y34982D01*
X35819Y34980D01*
X35822Y34977D01*
X35825Y34975D01*
X35825Y34975D01*
X35827Y34974D01*
X35829Y34974D01*
X35831Y34973D01*
X35834Y34972D01*
X35838Y34971D01*
X35842Y34971D01*
X35845Y34970D01*
X35847D01*
X35848Y34971D01*
X35852Y34971D01*
X35855Y34972D01*
X35860Y34973D01*
X35865Y34975D01*
X35869Y34977D01*
X35873Y34981D01*
X35874Y34982D01*
X35875Y34983D01*
X35877Y34985D01*
X35879Y34989D01*
X35881Y34992D01*
X35883Y34997D01*
X35884Y35003D01*
X35884Y35008D01*
Y35009D01*
Y35009D01*
Y35010D01*
X35884Y35011D01*
X35884Y35014D01*
X35883Y35018D01*
X35882Y35023D01*
X35880Y35027D01*
X35877Y35032D01*
X35873Y35036D01*
X35873Y35037D01*
X35871Y35038D01*
X35869Y35040D01*
X35865Y35042D01*
X35861Y35044D01*
X35856Y35046D01*
X35851Y35047D01*
X35845Y35048D01*
D02*
G37*
G36*
X44047Y33458D02*
X44045D01*
X44044Y33457D01*
X44041Y33457D01*
X44038Y33456D01*
X44033Y33455D01*
X44029Y33453D01*
X44024Y33450D01*
X44020Y33446D01*
X44019Y33446D01*
X44018Y33444D01*
X44016Y33442D01*
X44014Y33438D01*
X44012Y33434D01*
X44010Y33429D01*
X44009Y33423D01*
X44009Y33416D01*
Y33416D01*
Y33414D01*
X44009Y33412D01*
X44009Y33409D01*
X44010Y33405D01*
X44011Y33401D01*
X44012Y33397D01*
X44014Y33393D01*
X44014Y33392D01*
X44015Y33391D01*
X44016Y33389D01*
X44018Y33387D01*
X44020Y33384D01*
X44022Y33381D01*
X44025Y33379D01*
X44028Y33376D01*
X44029Y33376D01*
X44030Y33375D01*
X44032Y33374D01*
X44034Y33373D01*
X44037Y33372D01*
X44040Y33371D01*
X44044Y33370D01*
X44048Y33370D01*
X44049D01*
X44050Y33370D01*
X44053Y33371D01*
X44057Y33372D01*
X44061Y33373D01*
X44065Y33375D01*
X44069Y33378D01*
X44072Y33380D01*
X44074Y33382D01*
Y33382D01*
X44074Y33383D01*
X44075Y33384D01*
X44077Y33387D01*
X44079Y33391D01*
X44081Y33395D01*
X44083Y33401D01*
X44084Y33407D01*
X44084Y33415D01*
Y33415D01*
Y33416D01*
Y33417D01*
X44084Y33418D01*
Y33420D01*
X44084Y33422D01*
X44083Y33426D01*
X44082Y33431D01*
X44080Y33436D01*
X44077Y33441D01*
X44074Y33446D01*
X44073Y33447D01*
X44072Y33448D01*
X44069Y33450D01*
X44066Y33452D01*
X44062Y33454D01*
X44058Y33456D01*
X44053Y33457D01*
X44047Y33458D01*
D02*
G37*
G36*
X37958Y37258D02*
X37898Y37172D01*
X37958D01*
Y37258D01*
D02*
G37*
%LPD*%
D10*
X42948Y40843D02*
G03*
X42948Y40843I-59J0D01*
G01*
X37248D02*
G03*
X37248Y40843I-59J0D01*
G01*
X31548D02*
G03*
X31548Y40843I-59J0D01*
G01*
X42948Y21193D02*
G03*
X42948Y21193I-59J0D01*
G01*
X37248D02*
G03*
X37248Y21193I-59J0D01*
G01*
X31548D02*
G03*
X31548Y21193I-59J0D01*
G01*
D11*
X43401Y41099D02*
X43756Y41500D01*
X44051Y41835D02*
X44444Y42280D01*
X41944Y41500D02*
X42299Y41099D01*
X41256Y42280D02*
X41649Y41835D01*
X42299Y41099D02*
X43401D01*
X44444Y42280D02*
Y47201D01*
X41256D02*
X44444D01*
X41256Y42280D02*
Y47201D01*
X37701Y41099D02*
X38056Y41500D01*
X38351Y41835D02*
X38744Y42280D01*
X36244Y41500D02*
X36599Y41099D01*
X35556Y42280D02*
X35949Y41835D01*
X36599Y41099D02*
X37701D01*
X38744Y42280D02*
Y47201D01*
X35556D02*
X38744D01*
X35556Y42280D02*
Y47201D01*
X32001Y41099D02*
X32356Y41500D01*
X32651Y41835D02*
X33044Y42280D01*
X30544Y41500D02*
X30899Y41099D01*
X29856Y42280D02*
X30249Y41835D01*
X30899Y41099D02*
X32001D01*
X33044Y42280D02*
Y47201D01*
X29856D02*
X33044D01*
X29856Y42280D02*
Y47201D01*
X43401Y21449D02*
X43756Y21850D01*
X44051Y22185D02*
X44444Y22630D01*
X41944Y21850D02*
X42299Y21449D01*
X41256Y22630D02*
X41649Y22185D01*
X42299Y21449D02*
X43401D01*
X44444Y22630D02*
Y27551D01*
X41256D02*
X44444D01*
X41256Y22630D02*
Y27551D01*
X37701Y21449D02*
X38056Y21850D01*
X38351Y22185D02*
X38744Y22630D01*
X36244Y21850D02*
X36599Y21449D01*
X35556Y22630D02*
X35949Y22185D01*
X36599Y21449D02*
X37701D01*
X38744Y22630D02*
Y27551D01*
X35556D02*
X38744D01*
X35556Y22630D02*
Y27551D01*
X32001Y21449D02*
X32356Y21850D01*
X32651Y22185D02*
X33044Y22630D01*
X30544Y21850D02*
X30899Y21449D01*
X29856Y22630D02*
X30249Y22185D01*
X30899Y21449D02*
X32001D01*
X33044Y22630D02*
Y27551D01*
X29856D02*
X33044D01*
X29856Y22630D02*
Y27551D01*
D12*
X34650Y30400D02*
X35500D01*
X34650Y30350D02*
X35500D01*
X37570Y29850D02*
X39030D01*
X37390Y28950D02*
Y29850D01*
X37570Y28950D02*
X39030D01*
X39210D02*
Y29400D01*
X39030Y28950D02*
X39200D01*
X37400D02*
X37570D01*
X37400Y29850D02*
X37570D01*
X39210Y29400D02*
Y29840D01*
X39200Y29850D02*
X39210Y29840D01*
X39030Y29850D02*
X39200D01*
X40600Y33750D02*
X40770D01*
X40590Y33760D02*
X40600Y33750D01*
X40590Y33760D02*
Y34200D01*
X42230Y33750D02*
X42400D01*
X42230Y34650D02*
X42400D01*
X40600D02*
X40770D01*
X40590Y34200D02*
Y34650D01*
X40770D02*
X42230D01*
X42410Y33750D02*
Y34650D01*
X40770Y33750D02*
X42230D01*
X38580Y38250D02*
X38750D01*
X38760Y38240D01*
Y37800D02*
Y38240D01*
X36950Y38250D02*
X37120D01*
X36950Y37350D02*
X37120D01*
X38580D02*
X38750D01*
X38760D02*
Y37800D01*
X37120Y37350D02*
X38580D01*
X36940D02*
Y38250D01*
X37120D02*
X38580D01*
X29850Y28450D02*
X30050D01*
X29950D01*
Y29050D01*
X29850Y28950D01*
X30650Y28450D02*
Y29050D01*
X30350Y28750D01*
X30750D01*
X30950D02*
X31350D01*
X31849Y28450D02*
Y29050D01*
X31549Y28750D01*
X31949D01*
X32549Y28450D02*
X32149D01*
X32549Y28850D01*
Y28950D01*
X32449Y29050D01*
X32249D01*
X32149Y28950D01*
X32749Y29050D02*
Y28650D01*
X32949Y28450D01*
X33149Y28650D01*
Y29050D01*
X30700Y39700D02*
X30900D01*
X30800D01*
Y40300D01*
X30700Y40200D01*
X31600Y39700D02*
X31200D01*
X31600Y40100D01*
Y40200D01*
X31500Y40300D01*
X31300D01*
X31200Y40200D01*
X31800Y40300D02*
Y39900D01*
X32000Y39700D01*
X32200Y39900D01*
Y40300D01*
D13*
X34600Y30304D02*
X34838D01*
X34600D02*
Y32346D01*
X35312Y30304D02*
X35550D01*
Y32346D01*
X35100D02*
X35550D01*
X34838Y30304D02*
X35312D01*
X34600Y32346D02*
X35100D01*
X36214Y33400D02*
X36686D01*
X35814Y31550D02*
X36286D01*
X35514Y33400D02*
X35986D01*
X39764Y37150D02*
X40236D01*
X39064D02*
X39536D01*
X38250Y36564D02*
Y37036D01*
X36900Y36564D02*
Y37036D01*
X36214Y35800D02*
X36686D01*
X35514D02*
X35986D01*
X34843Y35808D02*
X35316D01*
X35400Y36564D02*
Y37036D01*
D14*
X43100Y33925D02*
Y34225D01*
X42950Y34075D02*
X43250D01*
X41020Y29070D02*
Y33230D01*
Y29070D02*
X42609D01*
X45180D02*
Y33230D01*
X43591D02*
X45180D01*
X41020D02*
X42609D01*
X43591Y29070D02*
X45180D01*
X39750Y33808D02*
Y35392D01*
X37050Y33808D02*
Y35392D01*
M02*
