G04*
G04 #@! TF.GenerationSoftware,Altium Limited,Altium Designer,20.0.8 (157)*
G04*
G04 Layer_Physical_Order=1*
G04 Layer_Color=255*
%FSLAX24Y24*%
%MOIN*%
G70*
G01*
G75*
%ADD12C,0.0100*%
%ADD15R,0.2126X0.1142*%
%ADD16R,0.0591X0.0413*%
%ADD17R,0.0197X0.0335*%
%ADD18R,0.1457X0.1752*%
%ADD19R,0.0350X0.0630*%
%ADD20R,0.0551X0.0472*%
%ADD21R,0.0472X0.0551*%
%ADD22R,0.0720X0.1540*%
%ADD23R,0.0140X0.0580*%
%ADD31R,0.1520X0.1080*%
%ADD35C,0.2172*%
%ADD36R,0.2172X0.2172*%
%ADD37C,0.1575*%
%ADD38C,0.0200*%
%ADD39C,0.0120*%
G36*
X37350Y37450D02*
X35876D01*
X35865Y37465D01*
X35812Y37501D01*
X35750Y37513D01*
X35688Y37501D01*
X35635Y37465D01*
X35624Y37450D01*
X33000D01*
Y35200D01*
X30850D01*
Y38900D01*
X37350D01*
Y37450D01*
D02*
G37*
G36*
X38500Y32024D02*
Y28250D01*
X46658D01*
Y21142D01*
X27492D01*
Y29650D01*
X36500D01*
Y31448D01*
X36621Y31568D01*
X36621Y31568D01*
X36645Y31605D01*
X36654Y31648D01*
Y31821D01*
X36854Y32021D01*
X37050D01*
X37050Y32021D01*
X37093Y32029D01*
X37124Y32050D01*
X38474D01*
X38500Y32024D01*
D02*
G37*
G36*
X46658Y31850D02*
X41700D01*
Y37500D01*
X40470D01*
X40386Y37584D01*
X40350Y37608D01*
X40336Y37611D01*
Y37801D01*
X39664D01*
Y37801D01*
X39636D01*
Y37801D01*
X38964D01*
Y37500D01*
X38300D01*
Y39000D01*
X27492D01*
Y47508D01*
X46658D01*
X46658Y31850D01*
D02*
G37*
G36*
X40472Y30954D02*
X40621D01*
Y30324D01*
X40464Y30166D01*
X39007D01*
X38879Y30326D01*
Y30954D01*
X39016D01*
Y31929D01*
X40472D01*
Y30954D01*
D02*
G37*
G36*
X32950Y30450D02*
X35700D01*
Y31435D01*
X35815Y31550D01*
X36400D01*
Y29750D01*
X30850D01*
Y32500D01*
X32950D01*
Y30450D01*
D02*
G37*
%LPC*%
G36*
X43996Y24228D02*
X41704D01*
Y21937D01*
X43996D01*
Y24228D01*
D02*
G37*
G36*
X38296D02*
X36004D01*
Y21937D01*
X38296D01*
Y24228D01*
D02*
G37*
G36*
X32596D02*
X30304D01*
Y21937D01*
X32596D01*
Y24228D01*
D02*
G37*
G36*
X45650Y23052D02*
X45484Y23035D01*
X45324Y22987D01*
X45177Y22908D01*
X45048Y22802D01*
X44942Y22673D01*
X44863Y22526D01*
X44815Y22366D01*
X44798Y22200D01*
X44815Y22034D01*
X44863Y21874D01*
X44942Y21727D01*
X45048Y21598D01*
X45177Y21492D01*
X45324Y21413D01*
X45484Y21365D01*
X45650Y21349D01*
X45816Y21365D01*
X45976Y21413D01*
X46123Y21492D01*
X46252Y21598D01*
X46358Y21727D01*
X46437Y21874D01*
X46485Y22034D01*
X46501Y22200D01*
X46485Y22366D01*
X46437Y22526D01*
X46358Y22673D01*
X46252Y22802D01*
X46123Y22908D01*
X45976Y22987D01*
X45816Y23035D01*
X45650Y23052D01*
D02*
G37*
G36*
X28550D02*
X28384Y23035D01*
X28224Y22987D01*
X28077Y22908D01*
X27948Y22802D01*
X27842Y22673D01*
X27763Y22526D01*
X27715Y22366D01*
X27699Y22200D01*
X27715Y22034D01*
X27763Y21874D01*
X27842Y21727D01*
X27948Y21598D01*
X28077Y21492D01*
X28224Y21413D01*
X28384Y21365D01*
X28550Y21349D01*
X28716Y21365D01*
X28876Y21413D01*
X29023Y21492D01*
X29152Y21598D01*
X29258Y21727D01*
X29337Y21874D01*
X29385Y22034D01*
X29402Y22200D01*
X29385Y22366D01*
X29337Y22526D01*
X29258Y22673D01*
X29152Y22802D01*
X29023Y22908D01*
X28876Y22987D01*
X28716Y23035D01*
X28550Y23052D01*
D02*
G37*
G36*
X45650Y47201D02*
X45484Y47185D01*
X45324Y47137D01*
X45177Y47058D01*
X45048Y46952D01*
X44942Y46823D01*
X44863Y46676D01*
X44815Y46516D01*
X44798Y46350D01*
X44815Y46184D01*
X44863Y46024D01*
X44942Y45877D01*
X45048Y45748D01*
X45177Y45642D01*
X45324Y45563D01*
X45484Y45515D01*
X45650Y45498D01*
X45816Y45515D01*
X45976Y45563D01*
X46123Y45642D01*
X46252Y45748D01*
X46358Y45877D01*
X46437Y46024D01*
X46485Y46184D01*
X46501Y46350D01*
X46485Y46516D01*
X46437Y46676D01*
X46358Y46823D01*
X46252Y46952D01*
X46123Y47058D01*
X45976Y47137D01*
X45816Y47185D01*
X45650Y47201D01*
D02*
G37*
G36*
X28550D02*
X28384Y47185D01*
X28224Y47137D01*
X28077Y47058D01*
X27948Y46952D01*
X27842Y46823D01*
X27763Y46676D01*
X27715Y46516D01*
X27699Y46350D01*
X27715Y46184D01*
X27763Y46024D01*
X27842Y45877D01*
X27948Y45748D01*
X28077Y45642D01*
X28224Y45563D01*
X28384Y45515D01*
X28550Y45498D01*
X28716Y45515D01*
X28876Y45563D01*
X29023Y45642D01*
X29152Y45748D01*
X29258Y45877D01*
X29337Y46024D01*
X29385Y46184D01*
X29402Y46350D01*
X29385Y46516D01*
X29337Y46676D01*
X29258Y46823D01*
X29152Y46952D01*
X29023Y47058D01*
X28876Y47137D01*
X28716Y47185D01*
X28550Y47201D01*
D02*
G37*
G36*
X43996Y43878D02*
X41704D01*
Y41587D01*
X43996D01*
Y43878D01*
D02*
G37*
G36*
X38296D02*
X36004D01*
Y41587D01*
X38296D01*
Y43878D01*
D02*
G37*
G36*
X32596D02*
X30304D01*
Y41587D01*
X32596D01*
Y43878D01*
D02*
G37*
%LPD*%
D12*
X35925Y35980D02*
X35929Y35967D01*
X35750Y36154D02*
X35925Y35980D01*
X36224Y35632D02*
Y35671D01*
Y35632D02*
X36411Y35446D01*
X35929Y35967D02*
X36224Y35671D01*
X36411Y35446D02*
X36450D01*
X38246Y37800D02*
X38450D01*
X38096Y37650D02*
X38246Y37800D01*
X38400Y37750D02*
X38450Y37800D01*
X35750Y33046D02*
X35764D01*
X35950Y32859D01*
Y32650D02*
Y32859D01*
X36546Y36800D02*
X36550Y36804D01*
Y37250D01*
X39040Y33055D02*
Y33490D01*
X38950Y32965D02*
X39040Y33055D01*
X38950Y32950D02*
Y32965D01*
X40000Y32450D02*
Y32850D01*
X40501Y32451D02*
X40502Y32450D01*
X40501Y32451D02*
Y32849D01*
X40500Y32850D02*
X40501Y32849D01*
X40000Y32450D02*
X40501D01*
X40502Y32450D01*
X39499Y32451D02*
X39999D01*
X40000Y32450D01*
X43100Y29435D02*
Y29490D01*
X43410Y29800D02*
X43750D01*
X43100Y29490D02*
Y29845D01*
Y29490D02*
X43410Y29800D01*
X43100Y29360D02*
Y29435D01*
Y29360D02*
X43410Y29050D01*
X43750D01*
X43100Y29435D02*
X43115Y29450D01*
X43750D01*
X38935Y29435D02*
X43100D01*
X38900Y29400D02*
X38935Y29435D01*
X40900Y32045D02*
Y34200D01*
Y32045D02*
X43100Y29845D01*
X40307Y37504D02*
X40696Y37116D01*
X40000Y37504D02*
X40307D01*
X39300D02*
X40000D01*
X37546Y31054D02*
Y31172D01*
X38224Y31850D01*
X38450D01*
X39296Y32873D02*
Y33490D01*
X39250Y32827D02*
X39296Y32873D01*
X39250Y32800D02*
Y32827D01*
X38036Y35430D02*
X38186Y35280D01*
X38016Y35710D02*
X38036Y35690D01*
X39176Y35280D02*
X39270Y35186D01*
X38186Y35280D02*
X39176D01*
X38843Y33950D02*
X39206D01*
X39270Y34014D01*
X38784Y33490D02*
Y33891D01*
X38843Y33950D01*
X39270Y34014D02*
Y35186D01*
X38036Y35430D02*
Y35690D01*
X38016Y32911D02*
Y33490D01*
Y32911D02*
X38050Y32877D01*
Y32850D02*
Y32877D01*
X36050Y31904D02*
X36200Y32054D01*
Y32300D01*
X35100Y31950D02*
Y33144D01*
X38528Y33490D02*
X38548Y33470D01*
X35100Y33144D02*
X35711Y33754D01*
X35750D01*
X36997D02*
X37132Y33890D01*
X38388D01*
X38452Y33786D02*
Y33826D01*
Y33786D02*
X38528Y33710D01*
X38388Y33890D02*
X38452Y33826D01*
X36450Y33754D02*
X36997D01*
X38528Y33490D02*
Y33710D01*
X35750Y33754D02*
X36450D01*
X36845Y32568D02*
X36898D01*
X37484Y33470D02*
X37504Y33490D01*
X37484Y33154D02*
Y33470D01*
X36898Y32568D02*
X37484Y33154D01*
X37210Y33232D02*
X37248Y33270D01*
X36636Y33232D02*
X37210D01*
X38784Y35710D02*
X38792Y35718D01*
Y36192D01*
X38800Y36200D01*
X38528Y35710D02*
X38784D01*
X35750Y36804D02*
X35754Y36800D01*
X35750Y36804D02*
Y37350D01*
X35750Y36154D02*
Y36796D01*
X35754Y36800D01*
X35976Y35240D02*
Y35259D01*
X40000Y36378D02*
Y36796D01*
X39552Y35930D02*
X40000Y36378D01*
X39552Y35710D02*
Y35930D01*
X39296Y36792D02*
X39300Y36796D01*
X39296Y35710D02*
Y36792D01*
X38604Y36761D02*
Y36800D01*
X38016Y36172D02*
X38604Y36761D01*
X38016Y35710D02*
Y36172D01*
X36450Y33046D02*
X36636Y33232D01*
X37248Y33270D02*
Y33490D01*
X36011Y31904D02*
X36050D01*
X35345Y31239D02*
X36011Y31904D01*
X35345Y30906D02*
Y31239D01*
X35189Y30750D02*
X35345Y30906D01*
X35100Y30750D02*
X35189D01*
X36050Y31196D02*
X36089D01*
X36807Y32133D02*
X37050D01*
X36541Y31648D02*
Y31867D01*
X37050Y32133D02*
X37299Y32382D01*
X36541Y31867D02*
X36807Y32133D01*
X37299Y32382D02*
Y32451D01*
X36089Y31196D02*
X36541Y31648D01*
X38851Y32568D02*
X38949D01*
X38997Y32519D01*
X38292Y33127D02*
Y33470D01*
Y33127D02*
X38572Y32847D01*
X38572D01*
X38851Y32568D01*
X38997Y32450D02*
Y32519D01*
X38272Y33490D02*
X38292Y33470D01*
X39746Y31054D02*
Y31202D01*
X39068Y31880D02*
X39746Y31202D01*
X38803Y31880D02*
X39068D01*
X38301Y32382D02*
X38803Y31880D01*
X38301Y32382D02*
Y32450D01*
X36797Y32450D02*
Y32519D01*
X36845Y32568D01*
X37799Y32451D02*
X37800Y32450D01*
X37780Y32470D02*
X37799Y32451D01*
X37780Y32470D02*
Y33470D01*
X37760Y33490D02*
X37780Y33470D01*
X37800Y32450D02*
X38301D01*
X37299Y32451D02*
X37799D01*
X38096Y37348D02*
Y37650D01*
X38604Y36800D02*
Y36839D01*
X38096Y37348D02*
X38604Y36839D01*
X37250Y37800D02*
X37750D01*
X37896Y36800D02*
Y37654D01*
X37750Y37800D02*
X37896Y37654D01*
X35789Y35446D02*
X35976Y35259D01*
Y35240D02*
X36156Y35059D01*
X36817D01*
X35750Y35446D02*
X35789D01*
X36817Y35059D02*
X37248Y35490D01*
Y35710D01*
X37760D02*
Y36664D01*
X37896Y36800D01*
X37500Y35714D02*
X37504Y35710D01*
X37500Y35714D02*
Y36129D01*
X37254Y36761D02*
Y36800D01*
Y36374D02*
Y36761D01*
Y36374D02*
X37500Y36129D01*
X36450Y36154D02*
X36636Y36341D01*
X36834D01*
X37254Y36761D01*
X35046Y36196D02*
Y36800D01*
Y36196D02*
X35080Y36162D01*
Y35454D02*
X35742D01*
X35750Y35446D01*
D15*
X31900Y35799D02*
D03*
Y31901D02*
D03*
D16*
X35100Y30750D02*
D03*
Y31950D02*
D03*
D17*
X40502Y32450D02*
D03*
X40000Y32450D02*
D03*
X39499Y32451D02*
D03*
X38997Y32450D02*
D03*
X38302Y32450D02*
D03*
X37800Y32450D02*
D03*
X37299Y32451D02*
D03*
X36797Y32450D02*
D03*
D18*
X39746Y31054D02*
D03*
X37546D02*
D03*
D19*
X38900Y29400D02*
D03*
X37700D02*
D03*
X42100Y34200D02*
D03*
X40900D02*
D03*
X37250Y37800D02*
D03*
X38450D02*
D03*
D20*
X36450Y33046D02*
D03*
Y33754D02*
D03*
X36050Y31196D02*
D03*
Y31904D02*
D03*
X35750Y33046D02*
D03*
Y33754D02*
D03*
X40000Y36796D02*
D03*
Y37504D02*
D03*
X39300Y36796D02*
D03*
Y37504D02*
D03*
X36450Y36154D02*
D03*
Y35446D02*
D03*
X35750Y35446D02*
D03*
Y36154D02*
D03*
X35080Y35454D02*
D03*
Y36162D02*
D03*
D21*
X38604Y36800D02*
D03*
X37896D02*
D03*
X36546Y36800D02*
D03*
X37254D02*
D03*
X35046D02*
D03*
X35754D02*
D03*
D22*
X43100Y32865D02*
D03*
Y29435D02*
D03*
D23*
X39552Y33490D02*
D03*
X39296D02*
D03*
X39040D02*
D03*
X38784D02*
D03*
X38528D02*
D03*
X38272D02*
D03*
X38016D02*
D03*
X37760D02*
D03*
X37504D02*
D03*
X37248D02*
D03*
Y35710D02*
D03*
X37504D02*
D03*
X37760D02*
D03*
X38016D02*
D03*
X38272D02*
D03*
X38528D02*
D03*
X38784D02*
D03*
X39040D02*
D03*
X39296D02*
D03*
X39552D02*
D03*
D31*
X38400Y34600D02*
D03*
D35*
X42850Y45567D02*
D03*
X37150D02*
D03*
X31450D02*
D03*
X42850Y25917D02*
D03*
X37150D02*
D03*
X31450D02*
D03*
D36*
X42850Y42733D02*
D03*
X37150D02*
D03*
X31450D02*
D03*
X42850Y23083D02*
D03*
X37150D02*
D03*
X31450D02*
D03*
D37*
X28550Y46350D02*
D03*
Y22200D02*
D03*
X45650D02*
D03*
Y46350D02*
D03*
D38*
X35950Y32650D02*
D03*
X36550Y39300D02*
D03*
Y37250D02*
D03*
X38950Y32950D02*
D03*
X40000Y32850D02*
D03*
X40500D02*
D03*
X43750Y29800D02*
D03*
Y29050D02*
D03*
Y29450D02*
D03*
X40696Y37116D02*
D03*
X38450Y31850D02*
D03*
X39250Y32800D02*
D03*
X38050Y32850D02*
D03*
X36200Y32300D02*
D03*
X38800Y36200D02*
D03*
X35750Y37350D02*
D03*
D39*
X38450Y34800D02*
D03*
Y35000D02*
D03*
X38650Y34800D02*
D03*
X38850Y35000D02*
D03*
Y34600D02*
D03*
X38650D02*
D03*
X38450D02*
D03*
X38250D02*
D03*
X38050D02*
D03*
Y34800D02*
D03*
X38250D02*
D03*
X38850D02*
D03*
X38650Y35000D02*
D03*
X38250D02*
D03*
X38050D02*
D03*
X37850D02*
D03*
Y34800D02*
D03*
Y34600D02*
D03*
X37650Y35000D02*
D03*
Y34800D02*
D03*
Y34600D02*
D03*
Y34200D02*
D03*
Y34400D02*
D03*
X37850D02*
D03*
Y34200D02*
D03*
X38050Y34400D02*
D03*
X38250D02*
D03*
X38450D02*
D03*
X38650D02*
D03*
X38850D02*
D03*
X39050Y35000D02*
D03*
Y34800D02*
D03*
Y34600D02*
D03*
Y34400D02*
D03*
Y34200D02*
D03*
X38850D02*
D03*
X38650D02*
D03*
X38450D02*
D03*
X38250D02*
D03*
X38050D02*
D03*
M02*
