M48
;Layer_Color=9474304
;FILE_FORMAT=2:5
INCH,LZ
;TYPE=PLATED
T1F00S00C0.02000
T2F00S00C0.03543
T3F00S00C0.12598
T4F00S00C0.17717
%
T01
X0469Y0329
X0472
X0475
X0478
X0481
X0484
X0487
X049
X0493
Y0332
Y0335
Y0338
Y0341
Y0344
X049
Y0341
Y0338
Y0335
Y0332
X0487
X0484
X0481
X0478
X0475
X0472
X0469
Y0335
X0472
X0475
X0478
X0481
X0484
X0487
Y0338
X0484
X0481
X0478
X0475
X0472
X0469
Y0341
X0472
X0475
X0478
X0481
X0484
X0487
Y0344
X0484
X0481
X0478
X0475
X0472
X0469
X047Y04015
X0473
X0476
X0479
X0482
X0485
Y04045
X0482
X0479
X0476
X0473
X047
Y04075
X0473
X0476
X0479
X0482
X0485
Y04105
X0482
X0479
X0476
X0473
X047
Y04135
X0473
X0476
X0479
X0482
X0485
Y04165
X0482
X0479
X0476
X0473
X047
T02
X04265Y0398
Y0408
X0518Y04215
X0528
Y0434
X0518
Y03575
X0528
Y0345
X0518
T03
X05295Y03055
X0429
Y03805
X0397
Y04315
X0429
X05295Y03805
T04
X0405Y0325827
Y0354173
M30
