G04*
G04 #@! TF.GenerationSoftware,Altium Limited,Altium Designer,18.1.11 (251)*
G04*
G04 Layer_Physical_Order=1*
G04 Layer_Color=255*
%FSLAX25Y25*%
%MOIN*%
G70*
G01*
G75*
%ADD26C,0.01200*%
%ADD27R,0.42800X0.41200*%
%ADD28R,0.10600X0.04000*%
%ADD29R,0.06300X0.03500*%
%ADD30R,0.04724X0.05512*%
%ADD31R,0.21717X0.21717*%
%ADD32C,0.21717*%
%ADD33R,0.05906X0.05906*%
%ADD34C,0.05906*%
%ADD35R,0.05906X0.05906*%
%ADD36C,0.02000*%
%ADD37C,0.15748*%
G36*
X523500Y402500D02*
X509000D01*
Y420062D01*
X467675D01*
Y422244D01*
X469406D01*
Y429756D01*
X462819D01*
X462681Y429756D01*
X462319D01*
X462181Y429756D01*
X460588D01*
Y430744D01*
X462319D01*
Y438256D01*
X455594D01*
Y430744D01*
X457325D01*
Y429756D01*
X455594D01*
Y422244D01*
X457325D01*
Y413632D01*
X455155Y411462D01*
X447700D01*
Y405462D01*
X460300D01*
Y411462D01*
X460300Y411462D01*
X460300D01*
X460216Y411962D01*
X460464Y412332D01*
X460588Y412957D01*
Y422244D01*
X462181D01*
X462319Y422244D01*
X462681D01*
X462819Y422244D01*
X464412D01*
Y420062D01*
X464200D01*
Y402500D01*
X420500D01*
Y427517D01*
X421000Y427642D01*
X421586Y426546D01*
X422695Y425195D01*
X424046Y424086D01*
X425588Y423262D01*
X427260Y422754D01*
X429000Y422583D01*
X430740Y422754D01*
X432412Y423262D01*
X433954Y424086D01*
X435305Y425195D01*
X436414Y426546D01*
X437238Y428088D01*
X437746Y429760D01*
X437917Y431500D01*
X437746Y433240D01*
X437238Y434912D01*
X436414Y436454D01*
X435305Y437805D01*
X433954Y438914D01*
X432412Y439738D01*
X430740Y440246D01*
X429000Y440417D01*
X427260Y440246D01*
X425588Y439738D01*
X424046Y438914D01*
X422695Y437805D01*
X421586Y436454D01*
X421000Y435358D01*
X420500Y435483D01*
Y440971D01*
X523500D01*
Y402500D01*
D02*
G37*
G36*
X538971Y370000D02*
X447653D01*
X447462Y370462D01*
X462000Y385000D01*
Y395500D01*
X447500D01*
X441982Y401018D01*
X442173Y401480D01*
X464200D01*
X464412Y401306D01*
Y398462D01*
X464536Y397838D01*
X464890Y397308D01*
X465419Y396955D01*
X466043Y396831D01*
X486600D01*
X487224Y396955D01*
X487753Y397308D01*
X488107Y397838D01*
X488231Y398462D01*
X488107Y399086D01*
X487753Y399616D01*
X487224Y399969D01*
X486600Y400093D01*
X467675D01*
Y402500D01*
X507980D01*
X508058Y402110D01*
X508279Y401779D01*
X508610Y401558D01*
X509000Y401480D01*
X523500D01*
X523890Y401558D01*
X524221Y401779D01*
X524442Y402110D01*
X524520Y402500D01*
Y440971D01*
X538971D01*
Y370000D01*
D02*
G37*
G36*
X522500Y330000D02*
X509000D01*
Y347100D01*
X467675D01*
Y348244D01*
X469406D01*
Y355756D01*
X462819D01*
X462681Y355756D01*
X462319D01*
X462181Y355756D01*
X460588D01*
Y356744D01*
X462319D01*
Y364256D01*
X455594D01*
Y356744D01*
X457325D01*
Y355756D01*
X455594D01*
Y348244D01*
X457325D01*
Y338500D01*
X447700D01*
Y332500D01*
X460300D01*
Y334630D01*
X460464Y334876D01*
X460588Y335500D01*
Y348244D01*
X462181D01*
X462319Y348244D01*
X462681D01*
X462819Y348244D01*
X464412D01*
Y347100D01*
X464200D01*
Y330000D01*
X441442D01*
X440721Y330721D01*
X440390Y330942D01*
X440000Y331020D01*
X430922D01*
X426221Y335721D01*
X425890Y335942D01*
X425500Y336020D01*
X411062D01*
X410400Y336425D01*
X408676Y337140D01*
X406861Y337575D01*
X405000Y337722D01*
X403139Y337575D01*
X401324Y337140D01*
X399895Y336547D01*
X395020Y341422D01*
Y342315D01*
X394942Y342705D01*
X394721Y343036D01*
X394390Y343257D01*
X394161Y343302D01*
Y358661D01*
X400512Y365012D01*
X401532D01*
X401922Y365090D01*
X402252Y365311D01*
X404422Y367480D01*
X445500D01*
X445890Y367558D01*
X446221Y367779D01*
X446942Y368500D01*
X522500D01*
Y330000D01*
D02*
G37*
G36*
X538971Y296029D02*
X462520D01*
Y322000D01*
X462442Y322390D01*
X462221Y322721D01*
X461890Y322942D01*
X461500Y323020D01*
X448422D01*
X442923Y328519D01*
X443115Y328980D01*
X464200D01*
X464412Y328806D01*
Y325500D01*
X464536Y324876D01*
X464890Y324346D01*
X465419Y323993D01*
X466043Y323869D01*
X486600D01*
X487224Y323993D01*
X487753Y324346D01*
X488107Y324876D01*
X488231Y325500D01*
X488107Y326124D01*
X487753Y326654D01*
X487224Y327007D01*
X486600Y327131D01*
X467675D01*
Y330000D01*
X507980D01*
X508058Y329610D01*
X508279Y329279D01*
X508610Y329058D01*
X509000Y328980D01*
X522500D01*
X522890Y329058D01*
X523221Y329279D01*
X523442Y329610D01*
X523520Y330000D01*
Y368500D01*
X538971D01*
Y296029D01*
D02*
G37*
G36*
X419558Y402110D02*
X419779Y401779D01*
X420110Y401558D01*
X420500Y401480D01*
X440544D01*
X440764Y401315D01*
X440962Y401018D01*
X441040Y400628D01*
X441261Y400297D01*
X446779Y394779D01*
X447110Y394558D01*
X447500Y394480D01*
X460980D01*
Y385422D01*
X446741Y371183D01*
X446520Y370852D01*
X446442Y370462D01*
X446520Y370072D01*
X446682Y369682D01*
X445500Y368500D01*
X404000D01*
X401532Y366032D01*
X393142D01*
Y342315D01*
X394000D01*
Y341000D01*
X400000Y335000D01*
X425500D01*
X430500Y330000D01*
X440000D01*
X448000Y322000D01*
X461500D01*
Y296029D01*
X387529D01*
X387529Y402500D01*
X419480D01*
X419558Y402110D01*
D02*
G37*
%LPC*%
G36*
X529500Y389417D02*
X527760Y389246D01*
X526088Y388738D01*
X524546Y387914D01*
X523195Y386805D01*
X522086Y385454D01*
X521262Y383912D01*
X520754Y382240D01*
X520583Y380500D01*
X520754Y378760D01*
X521262Y377088D01*
X522086Y375546D01*
X523195Y374195D01*
X524546Y373086D01*
X526088Y372262D01*
X527760Y371754D01*
X529500Y371583D01*
X531240Y371754D01*
X532912Y372262D01*
X534454Y373086D01*
X535805Y374195D01*
X536914Y375546D01*
X537738Y377088D01*
X538246Y378760D01*
X538417Y380500D01*
X538246Y382240D01*
X537738Y383912D01*
X536914Y385454D01*
X535805Y386805D01*
X534454Y387914D01*
X532912Y388738D01*
X531240Y389246D01*
X529500Y389417D01*
D02*
G37*
G36*
Y314417D02*
X527760Y314246D01*
X526088Y313738D01*
X524546Y312914D01*
X523195Y311805D01*
X522086Y310454D01*
X521262Y308912D01*
X520754Y307240D01*
X520583Y305500D01*
X520754Y303760D01*
X521262Y302088D01*
X522086Y300546D01*
X523195Y299195D01*
X524546Y298086D01*
X526088Y297262D01*
X527760Y296754D01*
X529500Y296583D01*
X531240Y296754D01*
X532912Y297262D01*
X534454Y298086D01*
X535805Y299195D01*
X536914Y300546D01*
X537738Y302088D01*
X538246Y303760D01*
X538417Y305500D01*
X538246Y307240D01*
X537738Y308912D01*
X536914Y310454D01*
X535805Y311805D01*
X534454Y312914D01*
X532912Y313738D01*
X531240Y314246D01*
X529500Y314417D01*
D02*
G37*
G36*
X429000Y389417D02*
X427260Y389246D01*
X425588Y388738D01*
X424046Y387914D01*
X422695Y386805D01*
X421586Y385454D01*
X420762Y383912D01*
X420254Y382240D01*
X420083Y380500D01*
X420254Y378760D01*
X420762Y377088D01*
X421586Y375546D01*
X422695Y374195D01*
X424046Y373086D01*
X425588Y372262D01*
X427260Y371754D01*
X429000Y371583D01*
X430740Y371754D01*
X432412Y372262D01*
X433954Y373086D01*
X435305Y374195D01*
X436414Y375546D01*
X437238Y377088D01*
X437746Y378760D01*
X437917Y380500D01*
X437746Y382240D01*
X437238Y383912D01*
X436414Y385454D01*
X435305Y386805D01*
X433954Y387914D01*
X432412Y388738D01*
X430740Y389246D01*
X429000Y389417D01*
D02*
G37*
G36*
X397000D02*
X395260Y389246D01*
X393588Y388738D01*
X392046Y387914D01*
X390695Y386805D01*
X389586Y385454D01*
X388762Y383912D01*
X388254Y382240D01*
X388083Y380500D01*
X388254Y378760D01*
X388762Y377088D01*
X389586Y375546D01*
X390695Y374195D01*
X392046Y373086D01*
X393588Y372262D01*
X395260Y371754D01*
X397000Y371583D01*
X398740Y371754D01*
X400412Y372262D01*
X401954Y373086D01*
X403305Y374195D01*
X404414Y375546D01*
X405238Y377088D01*
X405746Y378760D01*
X405917Y380500D01*
X405746Y382240D01*
X405238Y383912D01*
X404414Y385454D01*
X403305Y386805D01*
X401954Y387914D01*
X400412Y388738D01*
X398740Y389246D01*
X397000Y389417D01*
D02*
G37*
G36*
X429000Y314417D02*
X427260Y314246D01*
X425588Y313738D01*
X424046Y312914D01*
X422695Y311805D01*
X421586Y310454D01*
X420762Y308912D01*
X420254Y307240D01*
X420083Y305500D01*
X420254Y303760D01*
X420762Y302088D01*
X421586Y300546D01*
X422695Y299195D01*
X424046Y298086D01*
X425588Y297262D01*
X427260Y296754D01*
X429000Y296583D01*
X430740Y296754D01*
X432412Y297262D01*
X433954Y298086D01*
X435305Y299195D01*
X436414Y300546D01*
X437238Y302088D01*
X437746Y303760D01*
X437917Y305500D01*
X437746Y307240D01*
X437238Y308912D01*
X436414Y310454D01*
X435305Y311805D01*
X433954Y312914D01*
X432412Y313738D01*
X430740Y314246D01*
X429000Y314417D01*
D02*
G37*
%LPD*%
D26*
X455516Y409516D02*
G03*
X455080Y408462I1054J-1054D01*
G01*
X466043Y325500D02*
Y352000D01*
Y325500D02*
X486600D01*
X458957Y335500D02*
Y352000D01*
Y360500D01*
X454000Y335500D02*
X458957D01*
X466043Y398462D02*
Y426000D01*
Y398462D02*
X486600D01*
X458957Y426000D02*
Y435000D01*
X455080Y408462D02*
X456159D01*
X458957Y412957D02*
Y426000D01*
X456159Y408462D02*
X457559Y409862D01*
X455516Y409516D02*
X458957Y412957D01*
D27*
X486600Y398462D02*
D03*
Y325500D02*
D03*
D28*
X454000Y388462D02*
D03*
Y398462D02*
D03*
Y408462D02*
D03*
Y315500D02*
D03*
Y325500D02*
D03*
Y335500D02*
D03*
D29*
X517500Y394500D02*
D03*
Y406500D02*
D03*
Y322000D02*
D03*
Y334000D02*
D03*
X439000Y321000D02*
D03*
Y333000D02*
D03*
Y397000D02*
D03*
Y409000D02*
D03*
D30*
X466043Y360500D02*
D03*
X458957D02*
D03*
Y352000D02*
D03*
X466043D02*
D03*
X466043Y434500D02*
D03*
X458957D02*
D03*
X458957Y426000D02*
D03*
X466043D02*
D03*
D31*
X405000Y354173D02*
D03*
D32*
Y325827D02*
D03*
D33*
X528000Y421500D02*
D03*
Y434000D02*
D03*
Y345000D02*
D03*
Y357500D02*
D03*
D34*
X518000Y421500D02*
D03*
Y434000D02*
D03*
Y345000D02*
D03*
Y357500D02*
D03*
X426500Y408000D02*
D03*
D35*
Y398000D02*
D03*
D36*
X485000Y401500D02*
D03*
X482000D02*
D03*
X479000D02*
D03*
X476000D02*
D03*
X473000D02*
D03*
X470000D02*
D03*
X485000Y404500D02*
D03*
X482000D02*
D03*
X479000D02*
D03*
X476000D02*
D03*
X473000D02*
D03*
X470000D02*
D03*
X485000Y407500D02*
D03*
X482000D02*
D03*
X479000D02*
D03*
X476000D02*
D03*
X473000D02*
D03*
X470000D02*
D03*
X485000Y410500D02*
D03*
X482000D02*
D03*
X479000D02*
D03*
X476000D02*
D03*
X473000D02*
D03*
X470000D02*
D03*
X493000Y329000D02*
D03*
Y332000D02*
D03*
Y335000D02*
D03*
Y338000D02*
D03*
Y341000D02*
D03*
Y344000D02*
D03*
X490000Y329000D02*
D03*
X487000D02*
D03*
X484000D02*
D03*
X481000D02*
D03*
X478000D02*
D03*
X475000D02*
D03*
X472000D02*
D03*
X469000D02*
D03*
X490000Y332000D02*
D03*
X487000D02*
D03*
X484000D02*
D03*
X481000D02*
D03*
X478000D02*
D03*
X475000D02*
D03*
X472000D02*
D03*
X469000D02*
D03*
X490000Y335000D02*
D03*
X487000D02*
D03*
X484000D02*
D03*
X481000D02*
D03*
X478000D02*
D03*
X475000D02*
D03*
X472000D02*
D03*
X469000D02*
D03*
X490000Y338000D02*
D03*
X487000D02*
D03*
X484000D02*
D03*
X481000D02*
D03*
X478000D02*
D03*
X475000D02*
D03*
X472000D02*
D03*
X469000D02*
D03*
X490000Y341000D02*
D03*
X487000D02*
D03*
X484000D02*
D03*
X481000D02*
D03*
X478000D02*
D03*
X475000D02*
D03*
X472000D02*
D03*
X469000D02*
D03*
X490000Y344000D02*
D03*
X487000D02*
D03*
X484000D02*
D03*
X481000D02*
D03*
X478000D02*
D03*
X475000D02*
D03*
X472000D02*
D03*
X469000D02*
D03*
X485000Y413500D02*
D03*
X482000D02*
D03*
X479000D02*
D03*
X476000D02*
D03*
X473000D02*
D03*
X470000D02*
D03*
X485000Y416500D02*
D03*
X482000D02*
D03*
X479000D02*
D03*
X476000D02*
D03*
X473000D02*
D03*
X470000D02*
D03*
D37*
X429000Y305500D02*
D03*
X529500D02*
D03*
X397000Y380500D02*
D03*
Y431500D02*
D03*
X429000D02*
D03*
X529500Y380500D02*
D03*
X429000D02*
D03*
M02*
