G04*
G04 #@! TF.GenerationSoftware,Altium Limited,Altium Designer,18.1.11 (251)*
G04*
G04 Layer_Color=32896*
%FSLAX25Y25*%
%MOIN*%
G70*
G01*
G75*
%ADD12C,0.00500*%
D12*
X518000Y386997D02*
X517334Y387663D01*
X516001D01*
X515334Y386997D01*
Y386330D01*
X516001Y385664D01*
X516667D01*
X516001D01*
X515334Y384997D01*
Y384331D01*
X516001Y383664D01*
X517334D01*
X518000Y384331D01*
X514001Y383664D02*
Y384331D01*
X513335D01*
Y383664D01*
X514001D01*
X510669Y386997D02*
X510003Y387663D01*
X508670D01*
X508003Y386997D01*
Y386330D01*
X508670Y385664D01*
X509336D01*
X508670D01*
X508003Y384997D01*
Y384331D01*
X508670Y383664D01*
X510003D01*
X510669Y384331D01*
X506670Y382998D02*
X504004D01*
X500006Y387663D02*
X502672D01*
Y385664D01*
X501339Y386330D01*
X500672D01*
X500006Y385664D01*
Y384331D01*
X500672Y383664D01*
X502005D01*
X502672Y384331D01*
X498673Y387663D02*
Y384997D01*
X497340Y383664D01*
X496007Y384997D01*
Y387663D01*
X490675D02*
Y383664D01*
X488010D01*
X486677D02*
X485344D01*
X486010D01*
Y386330D01*
X486677D01*
X483345Y383664D02*
Y386330D01*
X481345D01*
X480679Y385664D01*
Y383664D01*
X479346D02*
Y387663D01*
X477347D01*
X476680Y386997D01*
Y385664D01*
X477347Y384997D01*
X479346D01*
X478013D02*
X476680Y383664D01*
X473348D02*
X474681D01*
X475347Y384331D01*
Y385664D01*
X474681Y386330D01*
X473348D01*
X472681Y385664D01*
Y384997D01*
X475347D01*
X470015Y382331D02*
X469349D01*
X468683Y382998D01*
Y386330D01*
X470682D01*
X471348Y385664D01*
Y384331D01*
X470682Y383664D01*
X468683D01*
X463351Y386330D02*
Y383664D01*
Y384997D01*
X462684Y385664D01*
X462018Y386330D01*
X461352D01*
X456686D02*
X458686D01*
X459352Y385664D01*
Y384331D01*
X458686Y383664D01*
X456686D01*
X455353Y385664D02*
X452688D01*
X451355Y386997D02*
X450688Y387663D01*
X449356D01*
X448689Y386997D01*
Y384331D01*
X449356Y383664D01*
X450688D01*
X451355Y384331D01*
Y386997D01*
X447356Y383664D02*
Y384331D01*
X446690D01*
Y383664D01*
X447356D01*
X444024D02*
X442691D01*
X443357D01*
Y387663D01*
X444024Y386997D01*
X518000Y380332D02*
Y376333D01*
X516001D01*
X515334Y376999D01*
Y377666D01*
X516001Y378332D01*
X518000D01*
X516001D01*
X515334Y378999D01*
Y379665D01*
X516001Y380332D01*
X518000D01*
X512002Y376333D02*
X513335D01*
X514001Y376999D01*
Y378332D01*
X513335Y378999D01*
X512002D01*
X511336Y378332D01*
Y377666D01*
X514001D01*
X510003Y376333D02*
Y378999D01*
X508003D01*
X507337Y378332D01*
Y376333D01*
X506004Y375000D02*
X505337D01*
X504671Y375666D01*
Y378999D01*
X501339D02*
X500006D01*
X499339Y378332D01*
Y376333D01*
X501339D01*
X502005Y376999D01*
X501339Y377666D01*
X499339D01*
X498006Y376333D02*
Y378999D01*
X497340D01*
X496673Y378332D01*
Y376333D01*
Y378332D01*
X496007Y378999D01*
X495341Y378332D01*
Y376333D01*
X494008D02*
X492675D01*
X493341D01*
Y378999D01*
X494008D01*
X490675Y376333D02*
Y378999D01*
X488676D01*
X488010Y378332D01*
Y376333D01*
X482678Y380332D02*
Y376333D01*
X480679D01*
X480012Y376999D01*
Y379665D01*
X480679Y380332D01*
X482678D01*
X478679Y378999D02*
Y376999D01*
X478013Y376333D01*
X476014D01*
Y375666D01*
X476680Y375000D01*
X477347D01*
X476014Y376333D02*
Y378999D01*
X472681Y376333D02*
X474014D01*
X474681Y376999D01*
Y378332D01*
X474014Y378999D01*
X472681D01*
X472015Y378332D01*
Y377666D01*
X474681D01*
X470682Y378999D02*
Y376333D01*
Y377666D01*
X470015Y378332D01*
X469349Y378999D01*
X468683D01*
M02*
