G04*
G04 #@! TF.GenerationSoftware,Altium Limited,Altium Designer,18.1.11 (251)*
G04*
G04 Layer_Color=8388736*
%FSLAX25Y25*%
%MOIN*%
G70*
G01*
G75*
%ADD15R,0.43600X0.42000*%
%ADD16R,0.11400X0.04800*%
%ADD17R,0.07100X0.04300*%
%ADD18R,0.05524X0.06312*%
%ADD19R,0.22517X0.22517*%
%ADD20C,0.22517*%
%ADD21R,0.06706X0.06706*%
%ADD22C,0.06706*%
%ADD23R,0.06706X0.06706*%
%ADD24C,0.02800*%
%ADD25C,0.16548*%
D15*
X486600Y398462D02*
D03*
Y325500D02*
D03*
D16*
X454000Y388462D02*
D03*
Y398462D02*
D03*
Y408462D02*
D03*
Y315500D02*
D03*
Y325500D02*
D03*
Y335500D02*
D03*
D17*
X517500Y394500D02*
D03*
Y406500D02*
D03*
Y322000D02*
D03*
Y334000D02*
D03*
X439000Y321000D02*
D03*
Y333000D02*
D03*
Y397000D02*
D03*
Y409000D02*
D03*
D18*
X466043Y360500D02*
D03*
X458957D02*
D03*
Y352000D02*
D03*
X466043D02*
D03*
X466043Y434500D02*
D03*
X458957D02*
D03*
X458957Y426000D02*
D03*
X466043D02*
D03*
D19*
X405000Y354173D02*
D03*
D20*
Y325827D02*
D03*
D21*
X528000Y421500D02*
D03*
Y434000D02*
D03*
Y345000D02*
D03*
Y357500D02*
D03*
D22*
X518000Y421500D02*
D03*
Y434000D02*
D03*
Y345000D02*
D03*
Y357500D02*
D03*
X426500Y408000D02*
D03*
D23*
Y398000D02*
D03*
D24*
X485000Y401500D02*
D03*
X482000D02*
D03*
X479000D02*
D03*
X476000D02*
D03*
X473000D02*
D03*
X470000D02*
D03*
X485000Y404500D02*
D03*
X482000D02*
D03*
X479000D02*
D03*
X476000D02*
D03*
X473000D02*
D03*
X470000D02*
D03*
X485000Y407500D02*
D03*
X482000D02*
D03*
X479000D02*
D03*
X476000D02*
D03*
X473000D02*
D03*
X470000D02*
D03*
X485000Y410500D02*
D03*
X482000D02*
D03*
X479000D02*
D03*
X476000D02*
D03*
X473000D02*
D03*
X470000D02*
D03*
X493000Y329000D02*
D03*
Y332000D02*
D03*
Y335000D02*
D03*
Y338000D02*
D03*
Y341000D02*
D03*
Y344000D02*
D03*
X490000Y329000D02*
D03*
X487000D02*
D03*
X484000D02*
D03*
X481000D02*
D03*
X478000D02*
D03*
X475000D02*
D03*
X472000D02*
D03*
X469000D02*
D03*
X490000Y332000D02*
D03*
X487000D02*
D03*
X484000D02*
D03*
X481000D02*
D03*
X478000D02*
D03*
X475000D02*
D03*
X472000D02*
D03*
X469000D02*
D03*
X490000Y335000D02*
D03*
X487000D02*
D03*
X484000D02*
D03*
X481000D02*
D03*
X478000D02*
D03*
X475000D02*
D03*
X472000D02*
D03*
X469000D02*
D03*
X490000Y338000D02*
D03*
X487000D02*
D03*
X484000D02*
D03*
X481000D02*
D03*
X478000D02*
D03*
X475000D02*
D03*
X472000D02*
D03*
X469000D02*
D03*
X490000Y341000D02*
D03*
X487000D02*
D03*
X484000D02*
D03*
X481000D02*
D03*
X478000D02*
D03*
X475000D02*
D03*
X472000D02*
D03*
X469000D02*
D03*
X490000Y344000D02*
D03*
X487000D02*
D03*
X484000D02*
D03*
X481000D02*
D03*
X478000D02*
D03*
X475000D02*
D03*
X472000D02*
D03*
X469000D02*
D03*
X485000Y413500D02*
D03*
X482000D02*
D03*
X479000D02*
D03*
X476000D02*
D03*
X473000D02*
D03*
X470000D02*
D03*
X485000Y416500D02*
D03*
X482000D02*
D03*
X479000D02*
D03*
X476000D02*
D03*
X473000D02*
D03*
X470000D02*
D03*
D25*
X429000Y305500D02*
D03*
X529500D02*
D03*
X397000Y380500D02*
D03*
Y431500D02*
D03*
X429000D02*
D03*
X529500Y380500D02*
D03*
X429000D02*
D03*
M02*
