M48
;Layer_Color=9474304
;FILE_FORMAT=2:4
INCH,LZ
;TYPE=PLATED
T1F00S00C0.0150
T2F00S00C0.0236
T3F00S00C0.0280
T4F00S00C0.0354
T5F00S00C0.1181
T6F00S00C0.1772
%
T01
X0499Y0302
X0539Y02895
X05575Y0297
X0436Y03065
X042217Y03042
X03745Y031
X02945Y035
X0317Y03505
X03235Y03575
X03255
X03275
X03295
X03315
X03335
Y03595
X03315
X03295
X03275
X03255
X03235
Y03615
X03255
X03275
X03295
X03315
X03335
Y03635
X03315
X03295
X03275
X03255
X03235
X0339Y03645
X0327Y03765
X03295Y034
X0329Y0322
X03395
X03445Y0326
X03545
X0354Y0321
X0364Y0327
X03765Y03495
X03865Y03505
X03925Y03575
X03945
X03965
X03985
X04005
X04025
Y03595
X04005
X03985
X03965
Y03615
X03985
X04005
X04025
Y03635
X04005
X03985
X03965
X03945
Y03615
Y03595
X03925
Y03615
Y03635
X03965Y0376
X04185Y03645
X04335Y0354
X0455Y03505
X0462Y03575
X0464
X0466
X0468
Y03595
X0466
X0464
X0462
Y03615
X0464
X0466
X0468
Y03635
X0466
X0464
X0462
X046579Y037667
X0457Y0337
X04605Y03225
X0436Y032861
X042Y0321
X0406Y03365
X04705Y03225
X04755Y0327
X04855
X0481Y0322
X04955Y03255
X05155Y035
X05255Y03505
X05315Y03575
X05335
X05355
X05375
X05395
X05415
Y03595
X05395
X05375
X05355
X05335
X05315
Y03615
X05335
X05355
X05375
X05395
X05415
Y03635
X05395
X05375
X05355
X05335
X05315
X0535Y03765
X0557Y03645
X0556Y039325
X04875Y03645
X0472Y03635
Y03615
Y03595
Y03575
X047
Y03595
Y03615
Y03635
T02
X04405Y0305
Y031
X04455
Y0305
Y0315
Y032
Y0325
Y033
X04405
Y0325
Y032
Y0315
T03
X055424Y028996
X054574Y0363
X05231Y03695
T04
X0325Y02755
X0335
X0345
X0355
X0365
X0375
X0385
X0395
X0405
X0415
X0425
X0435
X0445
X0455
X03115Y0386
X03015
X02915
X03215
X03315
X03415
X036083
X037083
X038083
X039083
X040083
X041083
X043017
X044017
X045017
X046017
X047017
X048017
X04995
X05095
X05195
X05295
X05395
X05495
T05
X05655Y02755
X02755
Y0386
X05655
T06
X0299Y029533
Y032367
M30
