G04*
G04 #@! TF.GenerationSoftware,Altium Limited,Altium Designer,20.1.12 (249)*
G04*
G04 Layer_Physical_Order=2*
G04 Layer_Color=16711680*
%FSLAX24Y24*%
%MOIN*%
G70*
G04*
G04 #@! TF.SameCoordinates,7611F4AC-675D-4E0A-8C32-16A27ADB78BB*
G04*
G04*
G04 #@! TF.FilePolarity,Positive*
G04*
G01*
G75*
%ADD45C,0.0120*%
%ADD46C,0.0080*%
%ADD47C,0.0400*%
%ADD50C,0.2172*%
%ADD51R,0.2172X0.2172*%
%ADD52R,0.0591X0.0591*%
%ADD53C,0.0591*%
%ADD54R,0.0394X0.0394*%
%ADD55C,0.0394*%
%ADD56C,0.0300*%
%ADD57C,0.0500*%
%ADD58C,0.0250*%
%ADD59C,0.0150*%
%ADD60C,0.1575*%
%ADD61C,0.0200*%
G36*
X56209Y39424D02*
X56055Y39341D01*
X55919Y39231D01*
X55809Y39095D01*
X55726Y38941D01*
X55675Y38774D01*
X55658Y38600D01*
X55675Y38426D01*
X55726Y38259D01*
X55809Y38105D01*
X55919Y37969D01*
X56055Y37859D01*
X56209Y37776D01*
X56376Y37725D01*
X56550Y37708D01*
X56724Y37725D01*
X56891Y37776D01*
X57045Y37859D01*
X57181Y37969D01*
X57291Y38105D01*
X57374Y38259D01*
X57423Y38252D01*
X57423Y27898D01*
X57374Y27891D01*
X57291Y28045D01*
X57181Y28181D01*
X57045Y28291D01*
X56891Y28374D01*
X56724Y28425D01*
X56550Y28442D01*
X56376Y28425D01*
X56209Y28374D01*
X56055Y28291D01*
X55919Y28181D01*
X55809Y28045D01*
X55726Y27891D01*
X55675Y27724D01*
X55658Y27550D01*
X55675Y27376D01*
X55726Y27209D01*
X55809Y27055D01*
X55919Y26919D01*
X56055Y26809D01*
X56209Y26726D01*
X56202Y26677D01*
X53599D01*
X53580Y26724D01*
X55511Y28654D01*
X55516Y28655D01*
X55601Y28690D01*
X55674Y28746D01*
X55730Y28819D01*
X55765Y28904D01*
X55777Y28996D01*
X55765Y29087D01*
X55730Y29172D01*
X55674Y29245D01*
X55601Y29301D01*
X55516Y29337D01*
X55424Y29349D01*
X55333Y29337D01*
X55248Y29301D01*
X55175Y29245D01*
X55119Y29172D01*
X55083Y29087D01*
X55083Y29082D01*
X53178Y27178D01*
X45895D01*
Y27945D01*
X45105D01*
Y27178D01*
X44746D01*
X44729Y27228D01*
X44782Y27268D01*
X44845Y27351D01*
X44885Y27447D01*
X44899Y27550D01*
X44885Y27653D01*
X44845Y27749D01*
X44782Y27832D01*
X44699Y27895D01*
X44603Y27935D01*
X44500Y27949D01*
X44397Y27935D01*
X44301Y27895D01*
X44218Y27832D01*
X44155Y27749D01*
X44115Y27653D01*
X44101Y27550D01*
X44115Y27447D01*
X44155Y27351D01*
X44218Y27268D01*
X44271Y27228D01*
X44254Y27178D01*
X43746D01*
X43729Y27228D01*
X43782Y27268D01*
X43845Y27351D01*
X43885Y27447D01*
X43899Y27550D01*
X43885Y27653D01*
X43845Y27749D01*
X43782Y27832D01*
X43699Y27895D01*
X43603Y27935D01*
X43500Y27949D01*
X43397Y27935D01*
X43301Y27895D01*
X43218Y27832D01*
X43155Y27749D01*
X43115Y27653D01*
X43101Y27550D01*
X43115Y27447D01*
X43155Y27351D01*
X43218Y27268D01*
X43271Y27228D01*
X43254Y27178D01*
X42746D01*
X42729Y27228D01*
X42782Y27268D01*
X42845Y27351D01*
X42885Y27447D01*
X42899Y27550D01*
X42885Y27653D01*
X42845Y27749D01*
X42782Y27832D01*
X42699Y27895D01*
X42603Y27935D01*
X42500Y27949D01*
X42397Y27935D01*
X42301Y27895D01*
X42218Y27832D01*
X42155Y27749D01*
X42115Y27653D01*
X42101Y27550D01*
X42115Y27447D01*
X42155Y27351D01*
X42218Y27268D01*
X42271Y27228D01*
X42254Y27178D01*
X41746D01*
X41729Y27228D01*
X41782Y27268D01*
X41845Y27351D01*
X41885Y27447D01*
X41899Y27550D01*
X41885Y27653D01*
X41845Y27749D01*
X41782Y27832D01*
X41699Y27895D01*
X41603Y27935D01*
X41500Y27949D01*
X41397Y27935D01*
X41301Y27895D01*
X41218Y27832D01*
X41155Y27749D01*
X41115Y27653D01*
X41101Y27550D01*
X41115Y27447D01*
X41155Y27351D01*
X41218Y27268D01*
X41271Y27228D01*
X41254Y27178D01*
X40746D01*
X40729Y27228D01*
X40782Y27268D01*
X40845Y27351D01*
X40885Y27447D01*
X40899Y27550D01*
X40885Y27653D01*
X40845Y27749D01*
X40782Y27832D01*
X40699Y27895D01*
X40603Y27935D01*
X40500Y27949D01*
X40397Y27935D01*
X40301Y27895D01*
X40218Y27832D01*
X40155Y27749D01*
X40115Y27653D01*
X40101Y27550D01*
X40115Y27447D01*
X40155Y27351D01*
X40218Y27268D01*
X40271Y27228D01*
X40254Y27178D01*
X39746D01*
X39729Y27228D01*
X39782Y27268D01*
X39845Y27351D01*
X39885Y27447D01*
X39899Y27550D01*
X39885Y27653D01*
X39845Y27749D01*
X39782Y27832D01*
X39699Y27895D01*
X39603Y27935D01*
X39500Y27949D01*
X39397Y27935D01*
X39301Y27895D01*
X39218Y27832D01*
X39155Y27749D01*
X39115Y27653D01*
X39101Y27550D01*
X39115Y27447D01*
X39124Y27424D01*
X39082Y27396D01*
X38894Y27584D01*
X38885Y27653D01*
X38845Y27749D01*
X38782Y27832D01*
X38699Y27895D01*
X38603Y27935D01*
X38500Y27949D01*
X38397Y27935D01*
X38301Y27895D01*
X38218Y27832D01*
X38155Y27749D01*
X38115Y27653D01*
X38101Y27550D01*
X38115Y27447D01*
X38155Y27351D01*
X38218Y27268D01*
X38301Y27205D01*
X38397Y27165D01*
X38466Y27156D01*
X38898Y26724D01*
X38879Y26677D01*
X27898D01*
X27891Y26726D01*
X28045Y26809D01*
X28181Y26919D01*
X28291Y27055D01*
X28374Y27209D01*
X28425Y27376D01*
X28442Y27550D01*
X28425Y27724D01*
X28374Y27891D01*
X28291Y28045D01*
X28181Y28181D01*
X28045Y28291D01*
X27891Y28374D01*
X27724Y28425D01*
X27550Y28442D01*
X27376Y28425D01*
X27209Y28374D01*
X27055Y28291D01*
X26919Y28181D01*
X26809Y28045D01*
X26726Y27891D01*
X26677Y27898D01*
X26677Y38252D01*
X26726Y38259D01*
X26809Y38105D01*
X26919Y37969D01*
X27055Y37859D01*
X27209Y37776D01*
X27376Y37725D01*
X27550Y37708D01*
X27724Y37725D01*
X27891Y37776D01*
X28045Y37859D01*
X28181Y37969D01*
X28291Y38105D01*
X28374Y38259D01*
X28425Y38426D01*
X28442Y38600D01*
X28425Y38774D01*
X28374Y38941D01*
X28291Y39095D01*
X28181Y39231D01*
X28045Y39341D01*
X27891Y39424D01*
X27898Y39473D01*
X31721D01*
X31742Y39423D01*
X31289Y38970D01*
X31253Y38985D01*
X31150Y38999D01*
X31047Y38985D01*
X30951Y38945D01*
X30868Y38882D01*
X30805Y38799D01*
X30765Y38703D01*
X30751Y38600D01*
X30765Y38497D01*
X30805Y38401D01*
X30868Y38318D01*
X30951Y38255D01*
X31047Y38215D01*
X31150Y38201D01*
X31253Y38215D01*
X31349Y38255D01*
X31432Y38318D01*
X31495Y38401D01*
X31535Y38497D01*
X31549Y38600D01*
X31535Y38703D01*
X31520Y38739D01*
X31943Y39162D01*
X38241D01*
X38260Y39116D01*
X38136Y38992D01*
X38083Y38999D01*
X37980Y38985D01*
X37884Y38945D01*
X37801Y38882D01*
X37738Y38799D01*
X37698Y38703D01*
X37685Y38600D01*
X37698Y38497D01*
X37713Y38461D01*
X36285Y37032D01*
X36249Y36979D01*
X36237Y36917D01*
Y32892D01*
X36220Y32880D01*
X36165Y32798D01*
X36145Y32700D01*
X36149Y32680D01*
X35732Y32263D01*
X35592D01*
X35580Y32280D01*
X35534Y32311D01*
X35545Y32364D01*
X35548Y32364D01*
X35630Y32420D01*
X35686Y32502D01*
X35705Y32600D01*
X35686Y32698D01*
X35630Y32780D01*
X35593Y32805D01*
Y36908D01*
X36924Y38238D01*
X36980Y38215D01*
X37083Y38201D01*
X37187Y38215D01*
X37283Y38255D01*
X37365Y38318D01*
X37429Y38401D01*
X37468Y38497D01*
X37482Y38600D01*
X37468Y38703D01*
X37429Y38799D01*
X37365Y38882D01*
X37283Y38945D01*
X37187Y38985D01*
X37083Y38999D01*
X36980Y38985D01*
X36884Y38945D01*
X36801Y38882D01*
X36738Y38799D01*
X36698Y38703D01*
X36685Y38600D01*
X36698Y38497D01*
X36722Y38440D01*
X35349Y37068D01*
X35318Y37021D01*
X35307Y36967D01*
X35307Y36967D01*
Y32805D01*
X35270Y32780D01*
X35215Y32698D01*
X35195Y32600D01*
X35215Y32502D01*
X35270Y32420D01*
X35316Y32389D01*
X35305Y32336D01*
X35302Y32336D01*
X35220Y32280D01*
X35164Y32198D01*
X35145Y32100D01*
X35164Y32002D01*
X35220Y31920D01*
X35302Y31865D01*
X35400Y31845D01*
X35498Y31865D01*
X35580Y31920D01*
X35592Y31937D01*
X35800D01*
X35862Y31949D01*
X35915Y31985D01*
X36380Y32449D01*
X36400Y32445D01*
X36498Y32464D01*
X36580Y32520D01*
X36635Y32602D01*
X36655Y32700D01*
X36635Y32798D01*
X36580Y32880D01*
X36563Y32892D01*
Y36849D01*
X37944Y38230D01*
X37980Y38215D01*
X38083Y38201D01*
X38187Y38215D01*
X38283Y38255D01*
X38365Y38318D01*
X38429Y38401D01*
X38468Y38497D01*
X38482Y38600D01*
X38468Y38703D01*
X38429Y38799D01*
X38418Y38813D01*
X38768Y39162D01*
X45241D01*
X45260Y39116D01*
X45127Y38982D01*
X45120Y38985D01*
X45017Y38999D01*
X44913Y38985D01*
X44817Y38945D01*
X44735Y38882D01*
X44671Y38799D01*
X44632Y38703D01*
X44618Y38600D01*
X44632Y38497D01*
X44671Y38401D01*
X44735Y38318D01*
X44817Y38255D01*
X44913Y38215D01*
X45017Y38201D01*
X45120Y38215D01*
X45216Y38255D01*
X45299Y38318D01*
X45362Y38401D01*
X45402Y38497D01*
X45415Y38600D01*
X45402Y38703D01*
X45375Y38769D01*
X45768Y39162D01*
X52191D01*
X52210Y39116D01*
X52072Y38977D01*
X52053Y38985D01*
X51950Y38999D01*
X51847Y38985D01*
X51751Y38945D01*
X51668Y38882D01*
X51605Y38799D01*
X51565Y38703D01*
X51551Y38600D01*
X51565Y38497D01*
X51605Y38401D01*
X51668Y38318D01*
X51737Y38265D01*
Y35206D01*
X51687Y35179D01*
X51638Y35212D01*
X51600Y35219D01*
Y35000D01*
X51550D01*
Y34950D01*
X51331D01*
X51338Y34912D01*
X51388Y34838D01*
X51462Y34788D01*
X51490Y34783D01*
X51504Y34735D01*
X49548Y32779D01*
X49462Y32762D01*
X49388Y32712D01*
X49338Y32638D01*
X49321Y32552D01*
X49132Y32363D01*
X48261D01*
X48188Y32412D01*
X48100Y32429D01*
X48012Y32412D01*
X47938Y32362D01*
X47888Y32288D01*
X47871Y32200D01*
X47888Y32112D01*
X47938Y32038D01*
X48012Y31988D01*
X48100Y31971D01*
X48188Y31988D01*
X48261Y32037D01*
X49200D01*
X49262Y32049D01*
X49315Y32085D01*
X49552Y32321D01*
X49638Y32338D01*
X49712Y32388D01*
X49762Y32462D01*
X49779Y32548D01*
X52015Y34785D01*
X52051Y34838D01*
X52063Y34900D01*
Y36642D01*
X52108Y36664D01*
X52133Y36644D01*
X52219Y36609D01*
X52310Y36597D01*
X52401Y36609D01*
X52487Y36644D01*
X52560Y36700D01*
X52595Y36746D01*
X53854D01*
X54029Y36572D01*
X54017Y36518D01*
X54014Y36516D01*
X54000Y36518D01*
Y36350D01*
X53900D01*
Y36518D01*
X53882Y36515D01*
X53850Y36494D01*
X53818Y36515D01*
X53800Y36518D01*
Y36350D01*
X53700D01*
Y36518D01*
X53682Y36515D01*
X53650Y36494D01*
X53618Y36515D01*
X53600Y36518D01*
Y36350D01*
X53500D01*
Y36518D01*
X53482Y36515D01*
X53450Y36494D01*
X53418Y36515D01*
X53400Y36518D01*
Y36350D01*
X53300D01*
Y36518D01*
X53282Y36515D01*
X53250Y36494D01*
X53218Y36515D01*
X53200Y36518D01*
Y36350D01*
X53150D01*
Y36300D01*
X52982D01*
X52985Y36282D01*
X53006Y36250D01*
X52985Y36218D01*
X52982Y36200D01*
X53150D01*
Y36100D01*
X52982D01*
X52985Y36082D01*
X53006Y36050D01*
X52985Y36018D01*
X52982Y36000D01*
X53150D01*
Y35900D01*
X52982D01*
X52985Y35882D01*
X53006Y35850D01*
X52985Y35818D01*
X52982Y35800D01*
X53150D01*
Y35750D01*
X53200D01*
Y35582D01*
X53218Y35585D01*
X53250Y35606D01*
X53282Y35585D01*
X53300Y35582D01*
Y35750D01*
X53400D01*
Y35582D01*
X53418Y35585D01*
X53450Y35606D01*
X53482Y35585D01*
X53500Y35582D01*
Y35750D01*
X53600D01*
Y35582D01*
X53618Y35585D01*
X53650Y35606D01*
X53682Y35585D01*
X53700Y35582D01*
Y35750D01*
X53800D01*
Y35582D01*
X53818Y35585D01*
X53850Y35606D01*
X53882Y35585D01*
X53900Y35582D01*
Y35750D01*
X54000D01*
Y35582D01*
X54018Y35585D01*
X54050Y35606D01*
X54082Y35585D01*
X54100Y35582D01*
Y35750D01*
X54150D01*
Y35800D01*
X54318D01*
X54315Y35818D01*
X54294Y35850D01*
X54315Y35882D01*
X54318Y35900D01*
X54150D01*
Y36000D01*
X54335D01*
X54366Y36019D01*
X54398Y35994D01*
X54483Y35959D01*
X54574Y35947D01*
X54666Y35959D01*
X54751Y35994D01*
X54824Y36050D01*
X54880Y36123D01*
X54915Y36209D01*
X54927Y36300D01*
X54915Y36391D01*
X54880Y36477D01*
X54824Y36550D01*
X54751Y36606D01*
X54666Y36641D01*
X54574Y36653D01*
X54530Y36647D01*
X54083Y37094D01*
X54017Y37138D01*
X53939Y37154D01*
X52595D01*
X52560Y37200D01*
X52487Y37256D01*
X52401Y37291D01*
X52310Y37303D01*
X52219Y37291D01*
X52133Y37256D01*
X52108Y37236D01*
X52063Y37258D01*
Y38219D01*
X52149Y38255D01*
X52232Y38318D01*
X52295Y38401D01*
X52335Y38497D01*
X52349Y38600D01*
X52335Y38703D01*
X52313Y38757D01*
X52718Y39162D01*
X55408D01*
X55420Y39145D01*
X55502Y39090D01*
X55600Y39070D01*
X55698Y39090D01*
X55780Y39145D01*
X55835Y39227D01*
X55855Y39325D01*
X55835Y39423D01*
X55832Y39428D01*
X55855Y39473D01*
X56202D01*
X56209Y39424D01*
D02*
G37*
%LPC*%
G36*
X53000Y38992D02*
Y38650D01*
X53342D01*
X53335Y38703D01*
X53295Y38799D01*
X53232Y38882D01*
X53149Y38945D01*
X53053Y38985D01*
X53000Y38992D01*
D02*
G37*
G36*
X32200D02*
Y38650D01*
X32542D01*
X32535Y38703D01*
X32495Y38799D01*
X32432Y38882D01*
X32349Y38945D01*
X32253Y38985D01*
X32200Y38992D01*
D02*
G37*
G36*
X39133Y38992D02*
Y38650D01*
X39475D01*
X39468Y38703D01*
X39429Y38799D01*
X39365Y38882D01*
X39283Y38945D01*
X39187Y38985D01*
X39133Y38992D01*
D02*
G37*
G36*
X46067D02*
Y38650D01*
X46409D01*
X46402Y38703D01*
X46362Y38799D01*
X46299Y38882D01*
X46216Y38945D01*
X46120Y38985D01*
X46067Y38992D01*
D02*
G37*
G36*
X45967Y38992D02*
X45913Y38985D01*
X45817Y38945D01*
X45735Y38882D01*
X45671Y38799D01*
X45632Y38703D01*
X45625Y38650D01*
X45967D01*
Y38992D01*
D02*
G37*
G36*
X39033D02*
X38980Y38985D01*
X38884Y38945D01*
X38801Y38882D01*
X38738Y38799D01*
X38698Y38703D01*
X38691Y38650D01*
X39033D01*
Y38992D01*
D02*
G37*
G36*
X32100D02*
X32047Y38985D01*
X31951Y38945D01*
X31868Y38882D01*
X31805Y38799D01*
X31765Y38703D01*
X31758Y38650D01*
X32100D01*
Y38992D01*
D02*
G37*
G36*
X52900Y38992D02*
X52847Y38985D01*
X52751Y38945D01*
X52668Y38882D01*
X52605Y38799D01*
X52565Y38703D01*
X52558Y38650D01*
X52900D01*
Y38992D01*
D02*
G37*
G36*
X45967Y38550D02*
X45625D01*
X45632Y38497D01*
X45671Y38401D01*
X45735Y38318D01*
X45817Y38255D01*
X45913Y38215D01*
X45967Y38208D01*
Y38550D01*
D02*
G37*
G36*
X53342D02*
X53000D01*
Y38208D01*
X53053Y38215D01*
X53149Y38255D01*
X53232Y38318D01*
X53295Y38401D01*
X53335Y38497D01*
X53342Y38550D01*
D02*
G37*
G36*
X39033D02*
X38691D01*
X38698Y38497D01*
X38738Y38401D01*
X38801Y38318D01*
X38884Y38255D01*
X38980Y38215D01*
X39033Y38208D01*
Y38550D01*
D02*
G37*
G36*
X32542D02*
X32200D01*
Y38208D01*
X32253Y38215D01*
X32349Y38255D01*
X32432Y38318D01*
X32495Y38401D01*
X32535Y38497D01*
X32542Y38550D01*
D02*
G37*
G36*
X32100D02*
X31758D01*
X31765Y38497D01*
X31805Y38401D01*
X31868Y38318D01*
X31951Y38255D01*
X32047Y38215D01*
X32100Y38208D01*
Y38550D01*
D02*
G37*
G36*
X39475D02*
X39133D01*
Y38208D01*
X39187Y38215D01*
X39283Y38255D01*
X39365Y38318D01*
X39429Y38401D01*
X39468Y38497D01*
X39475Y38550D01*
D02*
G37*
G36*
X52900D02*
X52558D01*
X52565Y38497D01*
X52605Y38401D01*
X52668Y38318D01*
X52751Y38255D01*
X52847Y38215D01*
X52900Y38208D01*
Y38550D01*
D02*
G37*
G36*
X46409D02*
X46067D01*
Y38208D01*
X46120Y38215D01*
X46216Y38255D01*
X46299Y38318D01*
X46362Y38401D01*
X46402Y38497D01*
X46409Y38550D01*
D02*
G37*
G36*
X55345Y38995D02*
X54555D01*
Y38205D01*
X55345D01*
Y38995D01*
D02*
G37*
G36*
X48412D02*
X47621D01*
Y38205D01*
X48412D01*
Y38995D01*
D02*
G37*
G36*
X41479D02*
X40688D01*
Y38205D01*
X41479D01*
Y38995D01*
D02*
G37*
G36*
X34545D02*
X33755D01*
Y38205D01*
X34545D01*
Y38995D01*
D02*
G37*
G36*
X53950Y38999D02*
X53847Y38985D01*
X53751Y38945D01*
X53668Y38882D01*
X53605Y38799D01*
X53565Y38703D01*
X53551Y38600D01*
X53565Y38497D01*
X53605Y38401D01*
X53668Y38318D01*
X53751Y38255D01*
X53847Y38215D01*
X53950Y38201D01*
X54053Y38215D01*
X54149Y38255D01*
X54232Y38318D01*
X54295Y38401D01*
X54335Y38497D01*
X54349Y38600D01*
X54335Y38703D01*
X54295Y38799D01*
X54232Y38882D01*
X54149Y38945D01*
X54053Y38985D01*
X53950Y38999D01*
D02*
G37*
G36*
X47017D02*
X46913Y38985D01*
X46817Y38945D01*
X46735Y38882D01*
X46671Y38799D01*
X46632Y38703D01*
X46618Y38600D01*
X46632Y38497D01*
X46671Y38401D01*
X46735Y38318D01*
X46817Y38255D01*
X46913Y38215D01*
X47017Y38201D01*
X47120Y38215D01*
X47216Y38255D01*
X47299Y38318D01*
X47362Y38401D01*
X47402Y38497D01*
X47415Y38600D01*
X47402Y38703D01*
X47362Y38799D01*
X47299Y38882D01*
X47216Y38945D01*
X47120Y38985D01*
X47017Y38999D01*
D02*
G37*
G36*
X40083D02*
X39980Y38985D01*
X39884Y38945D01*
X39801Y38882D01*
X39738Y38799D01*
X39698Y38703D01*
X39685Y38600D01*
X39698Y38497D01*
X39738Y38401D01*
X39801Y38318D01*
X39884Y38255D01*
X39980Y38215D01*
X40083Y38201D01*
X40187Y38215D01*
X40283Y38255D01*
X40365Y38318D01*
X40429Y38401D01*
X40468Y38497D01*
X40482Y38600D01*
X40468Y38703D01*
X40429Y38799D01*
X40365Y38882D01*
X40283Y38945D01*
X40187Y38985D01*
X40083Y38999D01*
D02*
G37*
G36*
X36083D02*
X35980Y38985D01*
X35884Y38945D01*
X35801Y38882D01*
X35738Y38799D01*
X35698Y38703D01*
X35685Y38600D01*
X35698Y38497D01*
X35712Y38464D01*
X34349Y37101D01*
X34318Y37055D01*
X34307Y37000D01*
X34307Y37000D01*
Y32805D01*
X34270Y32780D01*
X34214Y32698D01*
X34195Y32600D01*
X34214Y32502D01*
X34270Y32420D01*
X34352Y32364D01*
X34450Y32345D01*
X34548Y32364D01*
X34630Y32420D01*
X34685Y32502D01*
X34705Y32600D01*
X34685Y32698D01*
X34630Y32780D01*
X34593Y32805D01*
Y36941D01*
X35900Y38248D01*
X35980Y38215D01*
X36083Y38201D01*
X36187Y38215D01*
X36283Y38255D01*
X36365Y38318D01*
X36429Y38401D01*
X36468Y38497D01*
X36482Y38600D01*
X36468Y38703D01*
X36429Y38799D01*
X36365Y38882D01*
X36283Y38945D01*
X36187Y38985D01*
X36083Y38999D01*
D02*
G37*
G36*
X33150D02*
X33047Y38985D01*
X32951Y38945D01*
X32868Y38882D01*
X32805Y38799D01*
X32765Y38703D01*
X32751Y38600D01*
X32765Y38497D01*
X32805Y38401D01*
X32868Y38318D01*
X32951Y38255D01*
X33047Y38215D01*
X33150Y38201D01*
X33253Y38215D01*
X33349Y38255D01*
X33432Y38318D01*
X33495Y38401D01*
X33535Y38497D01*
X33549Y38600D01*
X33535Y38703D01*
X33495Y38799D01*
X33432Y38882D01*
X33349Y38945D01*
X33253Y38985D01*
X33150Y38999D01*
D02*
G37*
G36*
X46629Y37886D02*
Y37717D01*
X46798D01*
X46791Y37755D01*
X46741Y37829D01*
X46666Y37879D01*
X46629Y37886D01*
D02*
G37*
G36*
X46529D02*
X46491Y37879D01*
X46416Y37829D01*
X46367Y37755D01*
X46359Y37717D01*
X46529D01*
Y37886D01*
D02*
G37*
G36*
X53550Y37869D02*
Y37700D01*
X53719D01*
X53712Y37738D01*
X53662Y37812D01*
X53588Y37862D01*
X53550Y37869D01*
D02*
G37*
G36*
X53450D02*
X53412Y37862D01*
X53338Y37812D01*
X53288Y37738D01*
X53281Y37700D01*
X53450D01*
Y37869D01*
D02*
G37*
G36*
X32750D02*
Y37700D01*
X32919D01*
X32912Y37738D01*
X32862Y37812D01*
X32788Y37862D01*
X32750Y37869D01*
D02*
G37*
G36*
X32650D02*
X32612Y37862D01*
X32538Y37812D01*
X32488Y37738D01*
X32481Y37700D01*
X32650D01*
Y37869D01*
D02*
G37*
G36*
X39700Y37819D02*
Y37650D01*
X39869D01*
X39862Y37688D01*
X39812Y37762D01*
X39738Y37812D01*
X39700Y37819D01*
D02*
G37*
G36*
X39600D02*
X39562Y37812D01*
X39488Y37762D01*
X39438Y37688D01*
X39431Y37650D01*
X39600D01*
Y37819D01*
D02*
G37*
G36*
X46798Y37617D02*
X46629D01*
Y37448D01*
X46666Y37455D01*
X46741Y37505D01*
X46791Y37579D01*
X46798Y37617D01*
D02*
G37*
G36*
X46529D02*
X46359D01*
X46367Y37579D01*
X46416Y37505D01*
X46491Y37455D01*
X46529Y37448D01*
Y37617D01*
D02*
G37*
G36*
X32919Y37600D02*
X32750D01*
Y37431D01*
X32788Y37438D01*
X32862Y37488D01*
X32912Y37562D01*
X32919Y37600D01*
D02*
G37*
G36*
X32650D02*
X32481D01*
X32488Y37562D01*
X32538Y37488D01*
X32612Y37438D01*
X32650Y37431D01*
Y37600D01*
D02*
G37*
G36*
X53719D02*
X53550D01*
Y37431D01*
X53588Y37438D01*
X53662Y37488D01*
X53712Y37562D01*
X53719Y37600D01*
D02*
G37*
G36*
X53450D02*
X53281D01*
X53288Y37562D01*
X53338Y37488D01*
X53412Y37438D01*
X53450Y37431D01*
Y37600D01*
D02*
G37*
G36*
X39869Y37550D02*
X39700D01*
Y37381D01*
X39738Y37388D01*
X39812Y37438D01*
X39862Y37512D01*
X39869Y37550D01*
D02*
G37*
G36*
X39600D02*
X39431D01*
X39438Y37512D01*
X39488Y37438D01*
X39562Y37388D01*
X39600Y37381D01*
Y37550D01*
D02*
G37*
G36*
X55750Y36669D02*
Y36500D01*
X55919D01*
X55912Y36538D01*
X55862Y36612D01*
X55788Y36662D01*
X55750Y36669D01*
D02*
G37*
G36*
X55650D02*
X55612Y36662D01*
X55538Y36612D01*
X55488Y36538D01*
X55481Y36500D01*
X55650D01*
Y36669D01*
D02*
G37*
G36*
X48800D02*
Y36500D01*
X48969D01*
X48962Y36538D01*
X48912Y36612D01*
X48838Y36662D01*
X48800Y36669D01*
D02*
G37*
G36*
X48700D02*
X48662Y36662D01*
X48588Y36612D01*
X48538Y36538D01*
X48531Y36500D01*
X48700D01*
Y36669D01*
D02*
G37*
G36*
X41900D02*
Y36500D01*
X42069D01*
X42062Y36538D01*
X42012Y36612D01*
X41938Y36662D01*
X41900Y36669D01*
D02*
G37*
G36*
X41800D02*
X41762Y36662D01*
X41688Y36612D01*
X41638Y36538D01*
X41631Y36500D01*
X41800D01*
Y36669D01*
D02*
G37*
G36*
X33950D02*
Y36500D01*
X34119D01*
X34112Y36538D01*
X34062Y36612D01*
X33988Y36662D01*
X33950Y36669D01*
D02*
G37*
G36*
X33850D02*
X33812Y36662D01*
X33738Y36612D01*
X33688Y36538D01*
X33681Y36500D01*
X33850D01*
Y36669D01*
D02*
G37*
G36*
X47150Y36518D02*
X47132Y36515D01*
X47100Y36494D01*
X47068Y36515D01*
X47050Y36518D01*
Y36350D01*
X46950D01*
Y36518D01*
X46932Y36515D01*
X46900Y36494D01*
X46868Y36515D01*
X46850Y36518D01*
Y36350D01*
X46750D01*
Y36518D01*
X46732Y36515D01*
X46700Y36494D01*
X46668Y36515D01*
X46650Y36518D01*
Y36350D01*
X46550D01*
Y36518D01*
X46532Y36515D01*
X46500Y36494D01*
X46468Y36515D01*
X46450Y36518D01*
Y36350D01*
X46350D01*
Y36518D01*
X46332Y36515D01*
X46300Y36494D01*
X46268Y36515D01*
X46250Y36518D01*
Y36350D01*
X46200D01*
Y36300D01*
X46032D01*
X46035Y36282D01*
X46056Y36250D01*
X46035Y36218D01*
X46032Y36200D01*
X46200D01*
Y36100D01*
X46032D01*
X46035Y36082D01*
X46056Y36050D01*
X46035Y36018D01*
X46032Y36000D01*
X46200D01*
Y35900D01*
X46032D01*
X46035Y35882D01*
X46056Y35850D01*
X46035Y35818D01*
X46032Y35800D01*
X46200D01*
Y35750D01*
X46250D01*
Y35582D01*
X46268Y35585D01*
X46300Y35606D01*
X46332Y35585D01*
X46350Y35582D01*
Y35750D01*
X46450D01*
Y35582D01*
X46468Y35585D01*
X46500Y35606D01*
X46532Y35585D01*
X46550Y35582D01*
Y35750D01*
X46650D01*
Y35582D01*
X46668Y35585D01*
X46700Y35606D01*
X46732Y35585D01*
X46750Y35582D01*
Y35750D01*
X46850D01*
Y35582D01*
X46868Y35585D01*
X46900Y35606D01*
X46932Y35585D01*
X46950Y35582D01*
Y35750D01*
X47050D01*
Y35582D01*
X47068Y35585D01*
X47100Y35606D01*
X47132Y35585D01*
X47150Y35582D01*
Y35750D01*
X47200D01*
Y35800D01*
X47368D01*
X47365Y35818D01*
X47344Y35850D01*
X47365Y35882D01*
X47368Y35900D01*
X47200D01*
Y36000D01*
X47368D01*
X47365Y36018D01*
X47344Y36050D01*
X47365Y36082D01*
X47368Y36100D01*
X47200D01*
Y36200D01*
X47368D01*
X47365Y36218D01*
X47344Y36250D01*
X47365Y36282D01*
X47368Y36300D01*
X47200D01*
Y36350D01*
X47150D01*
Y36518D01*
D02*
G37*
G36*
X40200D02*
X40182Y36515D01*
X40150Y36494D01*
X40118Y36515D01*
X40100Y36518D01*
Y36350D01*
X40000D01*
Y36518D01*
X39982Y36515D01*
X39950Y36494D01*
X39918Y36515D01*
X39900Y36518D01*
Y36350D01*
X39800D01*
Y36518D01*
X39782Y36515D01*
X39750Y36494D01*
X39718Y36515D01*
X39700Y36518D01*
Y36350D01*
X39600D01*
Y36518D01*
X39582Y36515D01*
X39550Y36494D01*
X39518Y36515D01*
X39500Y36518D01*
Y36350D01*
X39400D01*
Y36518D01*
X39382Y36515D01*
X39350Y36494D01*
X39318Y36515D01*
X39300Y36518D01*
Y36350D01*
X39250D01*
Y36300D01*
X39082D01*
X39085Y36282D01*
X39106Y36250D01*
X39085Y36218D01*
X39082Y36200D01*
X39250D01*
Y36100D01*
X39082D01*
X39085Y36082D01*
X39106Y36050D01*
X39085Y36018D01*
X39082Y36000D01*
X39250D01*
Y35900D01*
X39082D01*
X39085Y35882D01*
X39106Y35850D01*
X39085Y35818D01*
X39082Y35800D01*
X39250D01*
Y35750D01*
X39300D01*
Y35582D01*
X39318Y35585D01*
X39350Y35606D01*
X39382Y35585D01*
X39400Y35582D01*
Y35750D01*
X39500D01*
Y35582D01*
X39518Y35585D01*
X39550Y35606D01*
X39582Y35585D01*
X39600Y35582D01*
Y35750D01*
X39700D01*
Y35582D01*
X39718Y35585D01*
X39750Y35606D01*
X39782Y35585D01*
X39800Y35582D01*
Y35750D01*
X39900D01*
Y35582D01*
X39918Y35585D01*
X39950Y35606D01*
X39982Y35585D01*
X40000Y35582D01*
Y35750D01*
X40100D01*
Y35582D01*
X40118Y35585D01*
X40150Y35606D01*
X40182Y35585D01*
X40200Y35582D01*
Y35750D01*
X40250D01*
Y35800D01*
X40418D01*
X40415Y35818D01*
X40394Y35850D01*
X40415Y35882D01*
X40418Y35900D01*
X40250D01*
Y36000D01*
X40418D01*
X40415Y36018D01*
X40394Y36050D01*
X40415Y36082D01*
X40418Y36100D01*
X40250D01*
Y36200D01*
X40418D01*
X40415Y36218D01*
X40394Y36250D01*
X40415Y36282D01*
X40418Y36300D01*
X40250D01*
Y36350D01*
X40200D01*
Y36518D01*
D02*
G37*
G36*
X33300D02*
X33282Y36515D01*
X33250Y36494D01*
X33218Y36515D01*
X33200Y36518D01*
Y36350D01*
X33100D01*
Y36518D01*
X33082Y36515D01*
X33050Y36494D01*
X33018Y36515D01*
X33000Y36518D01*
Y36350D01*
X32900D01*
Y36518D01*
X32882Y36515D01*
X32850Y36494D01*
X32818Y36515D01*
X32800Y36518D01*
Y36350D01*
X32700D01*
Y36518D01*
X32682Y36515D01*
X32650Y36494D01*
X32618Y36515D01*
X32600Y36518D01*
Y36350D01*
X32500D01*
Y36518D01*
X32482Y36515D01*
X32450Y36494D01*
X32418Y36515D01*
X32400Y36518D01*
Y36350D01*
X32350D01*
Y36300D01*
X32182D01*
X32185Y36282D01*
X32206Y36250D01*
X32185Y36218D01*
X32182Y36200D01*
X32350D01*
Y36100D01*
X32182D01*
X32185Y36082D01*
X32206Y36050D01*
X32185Y36018D01*
X32182Y36000D01*
X32350D01*
Y35900D01*
X32182D01*
X32185Y35882D01*
X32206Y35850D01*
X32185Y35818D01*
X32182Y35800D01*
X32350D01*
Y35750D01*
X32400D01*
Y35582D01*
X32418Y35585D01*
X32450Y35606D01*
X32482Y35585D01*
X32500Y35582D01*
Y35750D01*
X32600D01*
Y35582D01*
X32618Y35585D01*
X32650Y35606D01*
X32682Y35585D01*
X32700Y35582D01*
Y35750D01*
X32800D01*
Y35582D01*
X32818Y35585D01*
X32850Y35606D01*
X32882Y35585D01*
X32900Y35582D01*
Y35750D01*
X33000D01*
Y35582D01*
X33018Y35585D01*
X33050Y35606D01*
X33082Y35585D01*
X33100Y35582D01*
Y35750D01*
X33200D01*
Y35582D01*
X33218Y35585D01*
X33250Y35606D01*
X33282Y35585D01*
X33300Y35582D01*
Y35750D01*
X33350D01*
Y35800D01*
X33518D01*
X33515Y35818D01*
X33494Y35850D01*
X33515Y35882D01*
X33518Y35900D01*
X33350D01*
Y36000D01*
X33518D01*
X33515Y36018D01*
X33494Y36050D01*
X33515Y36082D01*
X33518Y36100D01*
X33350D01*
Y36200D01*
X33518D01*
X33515Y36218D01*
X33494Y36250D01*
X33515Y36282D01*
X33518Y36300D01*
X33350D01*
Y36350D01*
X33300D01*
Y36518D01*
D02*
G37*
G36*
X53100D02*
X53082Y36515D01*
X53024Y36476D01*
X52985Y36418D01*
X52982Y36400D01*
X53100D01*
Y36518D01*
D02*
G37*
G36*
X47250D02*
Y36400D01*
X47368D01*
X47365Y36418D01*
X47326Y36476D01*
X47268Y36515D01*
X47250Y36518D01*
D02*
G37*
G36*
X46150D02*
X46132Y36515D01*
X46074Y36476D01*
X46035Y36418D01*
X46032Y36400D01*
X46150D01*
Y36518D01*
D02*
G37*
G36*
X40300D02*
Y36400D01*
X40418D01*
X40415Y36418D01*
X40376Y36476D01*
X40318Y36515D01*
X40300Y36518D01*
D02*
G37*
G36*
X39200D02*
X39182Y36515D01*
X39124Y36476D01*
X39085Y36418D01*
X39082Y36400D01*
X39200D01*
Y36518D01*
D02*
G37*
G36*
X33400D02*
Y36400D01*
X33518D01*
X33515Y36418D01*
X33476Y36476D01*
X33418Y36515D01*
X33400Y36518D01*
D02*
G37*
G36*
X32300D02*
X32282Y36515D01*
X32224Y36476D01*
X32185Y36418D01*
X32182Y36400D01*
X32300D01*
Y36518D01*
D02*
G37*
G36*
X55919Y36400D02*
X55750D01*
Y36231D01*
X55788Y36238D01*
X55862Y36288D01*
X55912Y36362D01*
X55919Y36400D01*
D02*
G37*
G36*
X55650D02*
X55481D01*
X55488Y36362D01*
X55538Y36288D01*
X55612Y36238D01*
X55650Y36231D01*
Y36400D01*
D02*
G37*
G36*
X48969D02*
X48800D01*
Y36231D01*
X48838Y36238D01*
X48912Y36288D01*
X48962Y36362D01*
X48969Y36400D01*
D02*
G37*
G36*
X48700D02*
X48531D01*
X48538Y36362D01*
X48588Y36288D01*
X48662Y36238D01*
X48700Y36231D01*
Y36400D01*
D02*
G37*
G36*
X42069D02*
X41900D01*
Y36231D01*
X41938Y36238D01*
X42012Y36288D01*
X42062Y36362D01*
X42069Y36400D01*
D02*
G37*
G36*
X41800D02*
X41631D01*
X41638Y36362D01*
X41688Y36288D01*
X41762Y36238D01*
X41800Y36231D01*
Y36400D01*
D02*
G37*
G36*
X34119D02*
X33950D01*
Y36231D01*
X33988Y36238D01*
X34062Y36288D01*
X34112Y36362D01*
X34119Y36400D01*
D02*
G37*
G36*
X33850D02*
X33681D01*
X33688Y36362D01*
X33738Y36288D01*
X33812Y36238D01*
X33850Y36231D01*
Y36400D01*
D02*
G37*
G36*
X54318Y35700D02*
X54200D01*
Y35582D01*
X54218Y35585D01*
X54276Y35624D01*
X54315Y35682D01*
X54318Y35700D01*
D02*
G37*
G36*
X53100D02*
X52982D01*
X52985Y35682D01*
X53024Y35624D01*
X53082Y35585D01*
X53100Y35582D01*
Y35700D01*
D02*
G37*
G36*
X47368D02*
X47250D01*
Y35582D01*
X47268Y35585D01*
X47326Y35624D01*
X47365Y35682D01*
X47368Y35700D01*
D02*
G37*
G36*
X46150D02*
X46032D01*
X46035Y35682D01*
X46074Y35624D01*
X46132Y35585D01*
X46150Y35582D01*
Y35700D01*
D02*
G37*
G36*
X40418D02*
X40300D01*
Y35582D01*
X40318Y35585D01*
X40376Y35624D01*
X40415Y35682D01*
X40418Y35700D01*
D02*
G37*
G36*
X39200D02*
X39082D01*
X39085Y35682D01*
X39124Y35624D01*
X39182Y35585D01*
X39200Y35582D01*
Y35700D01*
D02*
G37*
G36*
X33518D02*
X33400D01*
Y35582D01*
X33418Y35585D01*
X33476Y35624D01*
X33515Y35682D01*
X33518Y35700D01*
D02*
G37*
G36*
X32300D02*
X32182D01*
X32185Y35682D01*
X32224Y35624D01*
X32282Y35585D01*
X32300Y35582D01*
Y35700D01*
D02*
G37*
G36*
X43400Y35619D02*
Y35450D01*
X43569D01*
X43562Y35488D01*
X43512Y35562D01*
X43438Y35612D01*
X43400Y35619D01*
D02*
G37*
G36*
X52600Y35269D02*
Y35100D01*
X52769D01*
X52762Y35138D01*
X52712Y35212D01*
X52638Y35262D01*
X52600Y35269D01*
D02*
G37*
G36*
X52500D02*
X52462Y35262D01*
X52388Y35212D01*
X52338Y35138D01*
X52331Y35100D01*
X52500D01*
Y35269D01*
D02*
G37*
G36*
X45550D02*
Y35100D01*
X45719D01*
X45712Y35138D01*
X45662Y35212D01*
X45588Y35262D01*
X45550Y35269D01*
D02*
G37*
G36*
X45450D02*
X45412Y35262D01*
X45338Y35212D01*
X45288Y35138D01*
X45281Y35100D01*
X45450D01*
Y35269D01*
D02*
G37*
G36*
X38700D02*
Y35100D01*
X38869D01*
X38862Y35138D01*
X38812Y35212D01*
X38738Y35262D01*
X38700Y35269D01*
D02*
G37*
G36*
X38600D02*
X38562Y35262D01*
X38488Y35212D01*
X38438Y35138D01*
X38431Y35100D01*
X38600D01*
Y35269D01*
D02*
G37*
G36*
X31750D02*
Y35100D01*
X31919D01*
X31912Y35138D01*
X31862Y35212D01*
X31788Y35262D01*
X31750Y35269D01*
D02*
G37*
G36*
X31650D02*
X31612Y35262D01*
X31538Y35212D01*
X31488Y35138D01*
X31481Y35100D01*
X31650D01*
Y35269D01*
D02*
G37*
G36*
X51500Y35219D02*
X51462Y35212D01*
X51388Y35162D01*
X51338Y35088D01*
X51331Y35050D01*
X51500D01*
Y35219D01*
D02*
G37*
G36*
X29500D02*
Y35050D01*
X29669D01*
X29662Y35088D01*
X29612Y35162D01*
X29538Y35212D01*
X29500Y35219D01*
D02*
G37*
G36*
X29400D02*
X29362Y35212D01*
X29288Y35162D01*
X29238Y35088D01*
X29231Y35050D01*
X29400D01*
Y35219D01*
D02*
G37*
G36*
X37700Y35169D02*
Y35000D01*
X37869D01*
X37862Y35038D01*
X37812Y35112D01*
X37738Y35162D01*
X37700Y35169D01*
D02*
G37*
G36*
X37600D02*
X37562Y35162D01*
X37488Y35112D01*
X37438Y35038D01*
X37431Y35000D01*
X37600D01*
Y35169D01*
D02*
G37*
G36*
X52769Y35000D02*
X52600D01*
Y34831D01*
X52638Y34838D01*
X52712Y34888D01*
X52762Y34962D01*
X52769Y35000D01*
D02*
G37*
G36*
X52500D02*
X52331D01*
X52338Y34962D01*
X52388Y34888D01*
X52462Y34838D01*
X52500Y34831D01*
Y35000D01*
D02*
G37*
G36*
X45719D02*
X45550D01*
Y34831D01*
X45588Y34838D01*
X45662Y34888D01*
X45712Y34962D01*
X45719Y35000D01*
D02*
G37*
G36*
X45450D02*
X45281D01*
X45288Y34962D01*
X45338Y34888D01*
X45412Y34838D01*
X45450Y34831D01*
Y35000D01*
D02*
G37*
G36*
X38869D02*
X38700D01*
Y34831D01*
X38738Y34838D01*
X38812Y34888D01*
X38862Y34962D01*
X38869Y35000D01*
D02*
G37*
G36*
X38600D02*
X38431D01*
X38438Y34962D01*
X38488Y34888D01*
X38562Y34838D01*
X38600Y34831D01*
Y35000D01*
D02*
G37*
G36*
X31919D02*
X31750D01*
Y34831D01*
X31788Y34838D01*
X31862Y34888D01*
X31912Y34962D01*
X31919Y35000D01*
D02*
G37*
G36*
X31650D02*
X31481D01*
X31488Y34962D01*
X31538Y34888D01*
X31612Y34838D01*
X31650Y34831D01*
Y35000D01*
D02*
G37*
G36*
X29669Y34950D02*
X29500D01*
Y34781D01*
X29538Y34788D01*
X29612Y34838D01*
X29662Y34912D01*
X29669Y34950D01*
D02*
G37*
G36*
X29400D02*
X29231D01*
X29238Y34912D01*
X29288Y34838D01*
X29362Y34788D01*
X29400Y34781D01*
Y34950D01*
D02*
G37*
G36*
X37869Y34900D02*
X37700D01*
Y34731D01*
X37738Y34738D01*
X37812Y34788D01*
X37862Y34862D01*
X37869Y34900D01*
D02*
G37*
G36*
X37600D02*
X37431D01*
X37438Y34862D01*
X37488Y34788D01*
X37562Y34738D01*
X37600Y34731D01*
Y34900D01*
D02*
G37*
G36*
X33000Y34219D02*
Y34050D01*
X33169D01*
X33162Y34088D01*
X33112Y34162D01*
X33038Y34212D01*
X33000Y34219D01*
D02*
G37*
G36*
X32900D02*
X32862Y34212D01*
X32788Y34162D01*
X32738Y34088D01*
X32731Y34050D01*
X32900D01*
Y34219D01*
D02*
G37*
G36*
X33169Y33950D02*
X33000D01*
Y33781D01*
X33038Y33788D01*
X33112Y33838D01*
X33162Y33912D01*
X33169Y33950D01*
D02*
G37*
G36*
X32900D02*
X32731D01*
X32738Y33912D01*
X32788Y33838D01*
X32862Y33788D01*
X32900Y33781D01*
Y33950D01*
D02*
G37*
G36*
X45750Y33919D02*
Y33750D01*
X45919D01*
X45912Y33788D01*
X45862Y33862D01*
X45788Y33912D01*
X45750Y33919D01*
D02*
G37*
G36*
X40650Y33869D02*
Y33700D01*
X40819D01*
X40812Y33738D01*
X40762Y33812D01*
X40688Y33862D01*
X40650Y33869D01*
D02*
G37*
G36*
X40550D02*
X40512Y33862D01*
X40438Y33812D01*
X40388Y33738D01*
X40381Y33700D01*
X40550D01*
Y33869D01*
D02*
G37*
G36*
X40819Y33600D02*
X40650D01*
Y33431D01*
X40688Y33438D01*
X40762Y33488D01*
X40812Y33562D01*
X40819Y33600D01*
D02*
G37*
G36*
X40550D02*
X40381D01*
X40388Y33562D01*
X40438Y33488D01*
X40512Y33438D01*
X40550Y33431D01*
Y33600D01*
D02*
G37*
G36*
X44550Y33299D02*
X44473Y33289D01*
X44400Y33259D01*
X44392Y33253D01*
X44347Y33275D01*
Y33297D01*
X43753D01*
Y33112D01*
X43709Y33089D01*
X43698Y33097D01*
X43650Y33106D01*
Y32861D01*
Y32616D01*
X43698Y32626D01*
X43738Y32652D01*
X43778Y32619D01*
X43761Y32577D01*
X43751Y32500D01*
X43761Y32423D01*
X43764Y32416D01*
X43591Y32243D01*
X42175D01*
X42162Y32262D01*
X42088Y32312D01*
X42000Y32329D01*
X41912Y32312D01*
X41838Y32262D01*
X41788Y32188D01*
X41771Y32100D01*
X41788Y32012D01*
X41838Y31938D01*
X41912Y31888D01*
X42000Y31871D01*
X42088Y31888D01*
X42162Y31938D01*
X42175Y31957D01*
X43650D01*
X43650Y31957D01*
X43704Y31968D01*
X43705Y31968D01*
X43732Y31963D01*
X43757Y31952D01*
X43761Y31923D01*
X43791Y31850D01*
X43838Y31788D01*
X43856Y31775D01*
Y31725D01*
X43838Y31712D01*
X43791Y31650D01*
X43761Y31577D01*
X43751Y31500D01*
X43761Y31423D01*
X43791Y31350D01*
X43838Y31288D01*
X43856Y31275D01*
Y31225D01*
X43838Y31212D01*
X43791Y31150D01*
X43788Y31143D01*
X42797D01*
X42797Y31143D01*
X42742Y31132D01*
X42696Y31101D01*
X42696Y31101D01*
X42261Y30666D01*
X42217Y30675D01*
X42119Y30656D01*
X42037Y30600D01*
X41981Y30518D01*
X41962Y30420D01*
X41981Y30322D01*
X42037Y30240D01*
X42119Y30185D01*
X42217Y30165D01*
X42315Y30185D01*
X42397Y30240D01*
X42452Y30322D01*
X42472Y30420D01*
X42463Y30464D01*
X42856Y30857D01*
X43378D01*
X43404Y30807D01*
X43365Y30748D01*
X43355Y30700D01*
X43600D01*
Y30650D01*
X43650D01*
Y30405D01*
X43698Y30415D01*
X43715Y30426D01*
X43769Y30402D01*
X43791Y30350D01*
X43838Y30288D01*
X43900Y30241D01*
X43973Y30211D01*
X44050Y30201D01*
X44127Y30211D01*
X44200Y30241D01*
X44262Y30288D01*
X44275Y30306D01*
X44325D01*
X44338Y30288D01*
X44400Y30241D01*
X44473Y30211D01*
X44550Y30201D01*
X44627Y30211D01*
X44700Y30241D01*
X44762Y30288D01*
X44809Y30350D01*
X44839Y30423D01*
X44849Y30500D01*
X44839Y30577D01*
X44809Y30650D01*
X44762Y30712D01*
X44744Y30725D01*
Y30775D01*
X44762Y30788D01*
X44809Y30850D01*
X44839Y30923D01*
X44849Y31000D01*
X44839Y31077D01*
X44809Y31150D01*
X44762Y31212D01*
X44744Y31225D01*
Y31275D01*
X44762Y31288D01*
X44809Y31350D01*
X44839Y31423D01*
X44849Y31500D01*
X44839Y31577D01*
X44809Y31650D01*
X44762Y31712D01*
X44744Y31725D01*
Y31775D01*
X44762Y31788D01*
X44809Y31850D01*
X44839Y31923D01*
X44849Y32000D01*
X44839Y32077D01*
X44809Y32150D01*
X44762Y32212D01*
X44744Y32225D01*
Y32275D01*
X44762Y32288D01*
X44809Y32350D01*
X44839Y32423D01*
X44849Y32500D01*
X44839Y32577D01*
X44809Y32650D01*
X44762Y32712D01*
X44744Y32725D01*
Y32775D01*
X44762Y32788D01*
X44809Y32850D01*
X44839Y32923D01*
X44849Y33000D01*
X44839Y33077D01*
X44809Y33150D01*
X44762Y33212D01*
X44700Y33259D01*
X44627Y33289D01*
X44550Y33299D01*
D02*
G37*
G36*
X50950Y38999D02*
X50847Y38985D01*
X50751Y38945D01*
X50668Y38882D01*
X50605Y38799D01*
X50565Y38703D01*
X50551Y38600D01*
X50565Y38497D01*
X50605Y38401D01*
X50668Y38318D01*
X50751Y38255D01*
X50807Y38231D01*
Y35159D01*
X48594Y32946D01*
X48550Y32955D01*
X48452Y32936D01*
X48370Y32880D01*
X48314Y32798D01*
X48295Y32700D01*
X48314Y32602D01*
X48370Y32520D01*
X48452Y32464D01*
X48550Y32445D01*
X48648Y32464D01*
X48730Y32520D01*
X48786Y32602D01*
X48805Y32700D01*
X48796Y32744D01*
X51051Y34999D01*
X51051Y34999D01*
X51082Y35045D01*
X51093Y35100D01*
X51093Y35100D01*
Y38231D01*
X51149Y38255D01*
X51232Y38318D01*
X51295Y38401D01*
X51335Y38497D01*
X51349Y38600D01*
X51335Y38703D01*
X51295Y38799D01*
X51232Y38882D01*
X51149Y38945D01*
X51053Y38985D01*
X50950Y38999D01*
D02*
G37*
G36*
X49950D02*
X49847Y38985D01*
X49751Y38945D01*
X49668Y38882D01*
X49605Y38799D01*
X49565Y38703D01*
X49551Y38600D01*
X49565Y38497D01*
X49605Y38401D01*
X49668Y38318D01*
X49751Y38255D01*
X49807Y38231D01*
Y35159D01*
X47594Y32946D01*
X47550Y32955D01*
X47452Y32936D01*
X47370Y32880D01*
X47315Y32798D01*
X47295Y32700D01*
X47315Y32602D01*
X47370Y32520D01*
X47452Y32464D01*
X47550Y32445D01*
X47648Y32464D01*
X47730Y32520D01*
X47786Y32602D01*
X47805Y32700D01*
X47796Y32744D01*
X50051Y34999D01*
X50051Y34999D01*
X50082Y35045D01*
X50093Y35100D01*
X50093Y35100D01*
Y38231D01*
X50149Y38255D01*
X50232Y38318D01*
X50295Y38401D01*
X50335Y38497D01*
X50349Y38600D01*
X50335Y38703D01*
X50295Y38799D01*
X50232Y38882D01*
X50149Y38945D01*
X50053Y38985D01*
X49950Y38999D01*
D02*
G37*
G36*
X43550Y33106D02*
X43502Y33097D01*
X43420Y33041D01*
X43365Y32959D01*
X43355Y32911D01*
X43550D01*
Y33106D01*
D02*
G37*
G36*
Y32811D02*
X43355D01*
X43365Y32763D01*
X43420Y32681D01*
X43502Y32626D01*
X43550Y32616D01*
Y32811D01*
D02*
G37*
G36*
X44017Y38999D02*
X43913Y38985D01*
X43817Y38945D01*
X43735Y38882D01*
X43671Y38799D01*
X43632Y38703D01*
X43618Y38600D01*
X43632Y38497D01*
X43671Y38401D01*
X43735Y38318D01*
X43817Y38255D01*
X43874Y38231D01*
Y35009D01*
X43874Y35009D01*
X43885Y34954D01*
X43916Y34908D01*
X46674Y32149D01*
X46674Y32149D01*
X46721Y32118D01*
X46775Y32107D01*
X46845D01*
X46870Y32070D01*
X46952Y32015D01*
X47050Y31995D01*
X47148Y32015D01*
X47230Y32070D01*
X47285Y32152D01*
X47305Y32250D01*
X47285Y32348D01*
X47230Y32430D01*
X47148Y32485D01*
X47050Y32505D01*
X46952Y32485D01*
X46870Y32430D01*
X46869Y32429D01*
X46805Y32423D01*
X45786Y33441D01*
X45801Y33497D01*
X45862Y33538D01*
X45912Y33612D01*
X45919Y33650D01*
X45700D01*
Y33700D01*
X45650D01*
Y33919D01*
X45612Y33912D01*
X45538Y33862D01*
X45497Y33801D01*
X45441Y33786D01*
X44159Y35068D01*
Y38231D01*
X44216Y38255D01*
X44299Y38318D01*
X44362Y38401D01*
X44402Y38497D01*
X44415Y38600D01*
X44402Y38703D01*
X44362Y38799D01*
X44299Y38882D01*
X44216Y38945D01*
X44120Y38985D01*
X44017Y38999D01*
D02*
G37*
G36*
X43017D02*
X42913Y38985D01*
X42817Y38945D01*
X42735Y38882D01*
X42671Y38799D01*
X42632Y38703D01*
X42618Y38600D01*
X42632Y38497D01*
X42671Y38401D01*
X42735Y38318D01*
X42817Y38255D01*
X42874Y38231D01*
Y35283D01*
X42874Y35283D01*
X42885Y35229D01*
X42916Y35182D01*
X45804Y32294D01*
X45795Y32250D01*
X45814Y32152D01*
X45870Y32070D01*
X45952Y32015D01*
X46050Y31995D01*
X46148Y32015D01*
X46230Y32070D01*
X46286Y32152D01*
X46305Y32250D01*
X46286Y32348D01*
X46230Y32430D01*
X46148Y32485D01*
X46050Y32505D01*
X46006Y32496D01*
X43377Y35125D01*
X43393Y35179D01*
X43438Y35188D01*
X43512Y35238D01*
X43562Y35312D01*
X43569Y35350D01*
X43350D01*
Y35400D01*
X43300D01*
Y35619D01*
X43262Y35612D01*
X43209Y35577D01*
X43159Y35603D01*
Y38231D01*
X43216Y38255D01*
X43299Y38318D01*
X43362Y38401D01*
X43402Y38497D01*
X43415Y38600D01*
X43402Y38703D01*
X43362Y38799D01*
X43299Y38882D01*
X43216Y38945D01*
X43120Y38985D01*
X43017Y38999D01*
D02*
G37*
G36*
X30150D02*
X30047Y38985D01*
X29951Y38945D01*
X29868Y38882D01*
X29805Y38799D01*
X29765Y38703D01*
X29751Y38600D01*
X29765Y38497D01*
X29805Y38401D01*
X29868Y38318D01*
X29951Y38255D01*
X30007Y38231D01*
Y36000D01*
X30007Y36000D01*
X30018Y35945D01*
X30049Y35899D01*
X33704Y32244D01*
X33695Y32200D01*
X33714Y32102D01*
X33770Y32020D01*
X33852Y31964D01*
X33950Y31945D01*
X34048Y31964D01*
X34130Y32020D01*
X34186Y32102D01*
X34205Y32200D01*
X34186Y32298D01*
X34130Y32380D01*
X34048Y32436D01*
X33950Y32455D01*
X33906Y32446D01*
X30293Y36059D01*
Y38231D01*
X30349Y38255D01*
X30432Y38318D01*
X30495Y38401D01*
X30535Y38497D01*
X30549Y38600D01*
X30535Y38703D01*
X30495Y38799D01*
X30432Y38882D01*
X30349Y38945D01*
X30253Y38985D01*
X30150Y38999D01*
D02*
G37*
G36*
X29150D02*
X29047Y38985D01*
X28951Y38945D01*
X28868Y38882D01*
X28805Y38799D01*
X28765Y38703D01*
X28751Y38600D01*
X28765Y38497D01*
X28805Y38401D01*
X28868Y38318D01*
X28951Y38255D01*
X29007Y38231D01*
Y35950D01*
X29007Y35950D01*
X29018Y35895D01*
X29049Y35849D01*
X32654Y32244D01*
X32645Y32200D01*
X32664Y32102D01*
X32720Y32020D01*
X32802Y31964D01*
X32900Y31945D01*
X32998Y31964D01*
X33080Y32020D01*
X33135Y32102D01*
X33155Y32200D01*
X33135Y32298D01*
X33080Y32380D01*
X32998Y32436D01*
X32900Y32455D01*
X32856Y32446D01*
X29293Y36009D01*
Y38231D01*
X29349Y38255D01*
X29432Y38318D01*
X29495Y38401D01*
X29535Y38497D01*
X29549Y38600D01*
X29535Y38703D01*
X29495Y38799D01*
X29432Y38882D01*
X29349Y38945D01*
X29253Y38985D01*
X29150Y38999D01*
D02*
G37*
G36*
X29900Y33557D02*
X29714Y33542D01*
X29532Y33499D01*
X29360Y33427D01*
X29201Y33330D01*
X29059Y33208D01*
X28938Y33066D01*
X28840Y32907D01*
X28769Y32735D01*
X28725Y32553D01*
X28711Y32367D01*
X28725Y32181D01*
X28769Y32000D01*
X28840Y31827D01*
X28938Y31668D01*
X29059Y31526D01*
X29201Y31405D01*
X29360Y31307D01*
X29532Y31236D01*
X29714Y31192D01*
X29900Y31178D01*
X30086Y31192D01*
X30268Y31236D01*
X30440Y31307D01*
X30599Y31405D01*
X30741Y31526D01*
X30862Y31668D01*
X30960Y31827D01*
X31031Y32000D01*
X31075Y32181D01*
X31089Y32367D01*
X31075Y32553D01*
X31031Y32735D01*
X30960Y32907D01*
X30862Y33066D01*
X30741Y33208D01*
X30599Y33330D01*
X30440Y33427D01*
X30268Y33499D01*
X30086Y33542D01*
X29900Y33557D01*
D02*
G37*
G36*
X37500Y31219D02*
Y31050D01*
X37669D01*
X37662Y31088D01*
X37612Y31162D01*
X37538Y31212D01*
X37500Y31219D01*
D02*
G37*
G36*
X37400D02*
X37362Y31212D01*
X37288Y31162D01*
X37238Y31088D01*
X37231Y31050D01*
X37400D01*
Y31219D01*
D02*
G37*
G36*
X37669Y30950D02*
X37500D01*
Y30781D01*
X37538Y30788D01*
X37612Y30838D01*
X37662Y30912D01*
X37669Y30950D01*
D02*
G37*
G36*
X37400D02*
X37231D01*
X37238Y30912D01*
X37288Y30838D01*
X37362Y30788D01*
X37400Y30781D01*
Y30950D01*
D02*
G37*
G36*
X43550Y30600D02*
X43355D01*
X43365Y30552D01*
X43420Y30470D01*
X43502Y30415D01*
X43550Y30405D01*
Y30600D01*
D02*
G37*
G36*
X49950Y30419D02*
Y30250D01*
X50119D01*
X50112Y30288D01*
X50062Y30362D01*
X49988Y30412D01*
X49950Y30419D01*
D02*
G37*
G36*
X49850D02*
X49812Y30412D01*
X49738Y30362D01*
X49688Y30288D01*
X49681Y30250D01*
X49850D01*
Y30419D01*
D02*
G37*
G36*
X50119Y30150D02*
X49950D01*
Y29981D01*
X49988Y29988D01*
X50062Y30038D01*
X50112Y30112D01*
X50119Y30150D01*
D02*
G37*
G36*
X49850D02*
X49681D01*
X49688Y30112D01*
X49738Y30038D01*
X49812Y29988D01*
X49850Y29981D01*
Y30150D01*
D02*
G37*
G36*
X55800Y29945D02*
Y29750D01*
X55995D01*
X55985Y29798D01*
X55930Y29880D01*
X55848Y29936D01*
X55800Y29945D01*
D02*
G37*
G36*
X55700D02*
X55652Y29936D01*
X55570Y29880D01*
X55514Y29798D01*
X55505Y29750D01*
X55700D01*
Y29945D01*
D02*
G37*
G36*
X31086Y30719D02*
X29950D01*
Y29583D01*
X31086D01*
Y30719D01*
D02*
G37*
G36*
X29850D02*
X28714D01*
Y29583D01*
X29850D01*
Y30719D01*
D02*
G37*
G36*
X55995Y29650D02*
X55800D01*
Y29455D01*
X55848Y29464D01*
X55930Y29520D01*
X55985Y29602D01*
X55995Y29650D01*
D02*
G37*
G36*
X55700D02*
X55505D01*
X55514Y29602D01*
X55570Y29520D01*
X55652Y29464D01*
X55700Y29455D01*
Y29650D01*
D02*
G37*
G36*
X53950Y29169D02*
Y29000D01*
X54119D01*
X54112Y29038D01*
X54062Y29112D01*
X53988Y29162D01*
X53950Y29169D01*
D02*
G37*
G36*
X53850D02*
X53812Y29162D01*
X53738Y29112D01*
X53688Y29038D01*
X53681Y29000D01*
X53850D01*
Y29169D01*
D02*
G37*
G36*
X54119Y28900D02*
X53950D01*
Y28731D01*
X53988Y28738D01*
X54062Y28788D01*
X54112Y28862D01*
X54119Y28900D01*
D02*
G37*
G36*
X53850D02*
X53681D01*
X53688Y28862D01*
X53738Y28788D01*
X53812Y28738D01*
X53850Y28731D01*
Y28900D01*
D02*
G37*
G36*
X31086Y29483D02*
X29950D01*
Y28347D01*
X31086D01*
Y29483D01*
D02*
G37*
G36*
X29850D02*
X28714D01*
Y28347D01*
X29850D01*
Y29483D01*
D02*
G37*
G36*
X36550Y27942D02*
Y27600D01*
X36892D01*
X36885Y27653D01*
X36845Y27749D01*
X36782Y27832D01*
X36699Y27895D01*
X36603Y27935D01*
X36550Y27942D01*
D02*
G37*
G36*
X36450D02*
X36397Y27935D01*
X36301Y27895D01*
X36218Y27832D01*
X36155Y27749D01*
X36115Y27653D01*
X36108Y27600D01*
X36450D01*
Y27942D01*
D02*
G37*
G36*
X36892Y27500D02*
X36550D01*
Y27158D01*
X36603Y27165D01*
X36699Y27205D01*
X36782Y27268D01*
X36845Y27351D01*
X36885Y27447D01*
X36892Y27500D01*
D02*
G37*
G36*
X36450D02*
X36108D01*
X36115Y27447D01*
X36155Y27351D01*
X36218Y27268D01*
X36301Y27205D01*
X36397Y27165D01*
X36450Y27158D01*
Y27500D01*
D02*
G37*
G36*
X37500Y27949D02*
X37397Y27935D01*
X37301Y27895D01*
X37218Y27832D01*
X37155Y27749D01*
X37115Y27653D01*
X37101Y27550D01*
X37115Y27447D01*
X37155Y27351D01*
X37218Y27268D01*
X37301Y27205D01*
X37397Y27165D01*
X37500Y27151D01*
X37603Y27165D01*
X37699Y27205D01*
X37782Y27268D01*
X37845Y27351D01*
X37885Y27447D01*
X37899Y27550D01*
X37885Y27653D01*
X37845Y27749D01*
X37782Y27832D01*
X37699Y27895D01*
X37603Y27935D01*
X37500Y27949D01*
D02*
G37*
G36*
X35500D02*
X35397Y27935D01*
X35301Y27895D01*
X35218Y27832D01*
X35155Y27749D01*
X35115Y27653D01*
X35101Y27550D01*
X35115Y27447D01*
X35155Y27351D01*
X35218Y27268D01*
X35301Y27205D01*
X35397Y27165D01*
X35500Y27151D01*
X35603Y27165D01*
X35699Y27205D01*
X35782Y27268D01*
X35845Y27351D01*
X35885Y27447D01*
X35899Y27550D01*
X35885Y27653D01*
X35845Y27749D01*
X35782Y27832D01*
X35699Y27895D01*
X35603Y27935D01*
X35500Y27949D01*
D02*
G37*
G36*
X34500D02*
X34397Y27935D01*
X34301Y27895D01*
X34218Y27832D01*
X34155Y27749D01*
X34115Y27653D01*
X34101Y27550D01*
X34115Y27447D01*
X34155Y27351D01*
X34218Y27268D01*
X34301Y27205D01*
X34397Y27165D01*
X34500Y27151D01*
X34603Y27165D01*
X34699Y27205D01*
X34782Y27268D01*
X34845Y27351D01*
X34885Y27447D01*
X34899Y27550D01*
X34885Y27653D01*
X34845Y27749D01*
X34782Y27832D01*
X34699Y27895D01*
X34603Y27935D01*
X34500Y27949D01*
D02*
G37*
G36*
X33500D02*
X33397Y27935D01*
X33301Y27895D01*
X33218Y27832D01*
X33155Y27749D01*
X33115Y27653D01*
X33101Y27550D01*
X33115Y27447D01*
X33155Y27351D01*
X33218Y27268D01*
X33301Y27205D01*
X33397Y27165D01*
X33500Y27151D01*
X33603Y27165D01*
X33699Y27205D01*
X33782Y27268D01*
X33845Y27351D01*
X33885Y27447D01*
X33899Y27550D01*
X33885Y27653D01*
X33845Y27749D01*
X33782Y27832D01*
X33699Y27895D01*
X33603Y27935D01*
X33500Y27949D01*
D02*
G37*
G36*
X32500D02*
X32397Y27935D01*
X32301Y27895D01*
X32218Y27832D01*
X32155Y27749D01*
X32115Y27653D01*
X32101Y27550D01*
X32115Y27447D01*
X32155Y27351D01*
X32218Y27268D01*
X32301Y27205D01*
X32397Y27165D01*
X32500Y27151D01*
X32603Y27165D01*
X32699Y27205D01*
X32782Y27268D01*
X32845Y27351D01*
X32885Y27447D01*
X32899Y27550D01*
X32885Y27653D01*
X32845Y27749D01*
X32782Y27832D01*
X32699Y27895D01*
X32603Y27935D01*
X32500Y27949D01*
D02*
G37*
%LPD*%
D45*
X52650Y39325D02*
X55600D01*
X45700D02*
X52650D01*
X51950Y38600D02*
Y38625D01*
X52650Y39325D01*
X38700D02*
X45700D01*
X45017Y38600D02*
Y38642D01*
X45700Y39325D01*
X31875D02*
X38700D01*
X38083Y38600D02*
Y38708D01*
X38700Y39325D01*
X31150Y38600D02*
X31875Y39325D01*
X51900Y34900D02*
Y38550D01*
X49550Y32550D02*
X51900Y34900D01*
Y38550D02*
X51950Y38600D01*
X49200Y32200D02*
X49550Y32550D01*
X48100Y32200D02*
X49200D01*
X35400Y32100D02*
X35800D01*
X36400Y32700D01*
Y36917D01*
X38083Y38600D01*
D46*
X42797Y31000D02*
X44050D01*
X42217Y30420D02*
X42797Y31000D01*
X46775Y32250D02*
X47050D01*
X44017Y35009D02*
Y38600D01*
Y35009D02*
X46775Y32250D01*
X34450Y37000D02*
X36050Y38600D01*
X34450Y32600D02*
Y37000D01*
X48550Y32700D02*
X50950Y35100D01*
Y38600D01*
X35450Y32600D02*
Y36967D01*
X36050Y38600D02*
X36083D01*
X35450Y36967D02*
X37083Y38600D01*
X30150Y36000D02*
Y38600D01*
Y36000D02*
X33950Y32200D01*
X29150Y35950D02*
Y38600D01*
Y35950D02*
X32900Y32200D01*
X43017Y35283D02*
X46050Y32250D01*
X43017Y35283D02*
Y38600D01*
X49950Y35100D02*
Y38600D01*
X47550Y32700D02*
X49950Y35100D01*
X42000Y32100D02*
X43650D01*
X44050Y32500D01*
D47*
X38500Y27550D02*
X39175Y26875D01*
X53304D02*
X55424Y28996D01*
X39175Y26875D02*
X53304D01*
D50*
X29900Y32367D02*
D03*
D51*
Y29533D02*
D03*
D52*
X41083Y38600D02*
D03*
X34150D02*
D03*
X48017D02*
D03*
X54950D02*
D03*
X45500Y27550D02*
D03*
D53*
X40083Y38600D02*
D03*
X39083D02*
D03*
X38083D02*
D03*
X37083D02*
D03*
X36083D02*
D03*
X33150D02*
D03*
X32150D02*
D03*
X31150D02*
D03*
X30150D02*
D03*
X29150D02*
D03*
X47017D02*
D03*
X46017D02*
D03*
X45017D02*
D03*
X44017D02*
D03*
X43017D02*
D03*
X53950D02*
D03*
X52950D02*
D03*
X51950D02*
D03*
X50950D02*
D03*
X49950D02*
D03*
X32500Y27550D02*
D03*
X33500D02*
D03*
X34500D02*
D03*
X35500D02*
D03*
X36500D02*
D03*
X37500D02*
D03*
X38500D02*
D03*
X39500D02*
D03*
X40500D02*
D03*
X41500D02*
D03*
X42500D02*
D03*
X43500D02*
D03*
X44500D02*
D03*
D54*
X44050Y33000D02*
D03*
D55*
X44550D02*
D03*
X44050Y32500D02*
D03*
X44550D02*
D03*
X44050Y32000D02*
D03*
X44550D02*
D03*
X44050Y31500D02*
D03*
X44550D02*
D03*
X44050Y31000D02*
D03*
X44550D02*
D03*
X44050Y30500D02*
D03*
X44550D02*
D03*
D56*
X55600Y39325D02*
D03*
X55750Y29700D02*
D03*
X43600Y30650D02*
D03*
X48550Y32700D02*
D03*
X36400D02*
D03*
X35400Y32100D02*
D03*
X35450Y32600D02*
D03*
X43600Y32861D02*
D03*
X33950Y32200D02*
D03*
X34450Y32600D02*
D03*
X32900Y32200D02*
D03*
X47550Y32700D02*
D03*
X47050Y32250D02*
D03*
X46050D02*
D03*
X42217Y30420D02*
D03*
D57*
X52310Y36950D02*
D03*
X54574Y36300D02*
D03*
X55424Y28996D02*
D03*
D58*
X55700Y36450D02*
D03*
X40600Y33650D02*
D03*
X37450Y31000D02*
D03*
X49900Y30200D02*
D03*
X53900Y28950D02*
D03*
X45700Y33700D02*
D03*
X32950Y34000D02*
D03*
X33900Y36450D02*
D03*
X41850D02*
D03*
X48750D02*
D03*
X52550Y35050D02*
D03*
X53500Y37650D02*
D03*
X46579Y37667D02*
D03*
X45500Y35050D02*
D03*
X32700Y37650D02*
D03*
X31700Y35050D02*
D03*
X39650Y37600D02*
D03*
X38650Y35050D02*
D03*
X51550Y35000D02*
D03*
X43350Y35400D02*
D03*
X37650Y34950D02*
D03*
X29450Y35000D02*
D03*
X49550Y32550D02*
D03*
X48100Y32200D02*
D03*
X42000Y32100D02*
D03*
D59*
X54150Y36350D02*
D03*
X39650Y36150D02*
D03*
X39450Y36350D02*
D03*
X33350Y35750D02*
D03*
X33150D02*
D03*
X32950D02*
D03*
X32750D02*
D03*
X32550D02*
D03*
X32350D02*
D03*
X33350Y35950D02*
D03*
X33150D02*
D03*
X32950D02*
D03*
X32750D02*
D03*
X32550D02*
D03*
X32350D02*
D03*
X33350Y36150D02*
D03*
X33150D02*
D03*
X32950D02*
D03*
X32750D02*
D03*
X32550D02*
D03*
X32350D02*
D03*
X33350Y36350D02*
D03*
X33150D02*
D03*
X32950D02*
D03*
X32750D02*
D03*
X32550D02*
D03*
X32350D02*
D03*
X54150Y35750D02*
D03*
X53950D02*
D03*
X53750D02*
D03*
X53550D02*
D03*
X53350D02*
D03*
X53150D02*
D03*
X54150Y35950D02*
D03*
X53950D02*
D03*
X53750D02*
D03*
X53550D02*
D03*
X53350D02*
D03*
X53150D02*
D03*
X54150Y36150D02*
D03*
X53950D02*
D03*
X53750D02*
D03*
X53550D02*
D03*
X53350D02*
D03*
X53150D02*
D03*
X53950Y36350D02*
D03*
X53750D02*
D03*
X53550D02*
D03*
X53350D02*
D03*
X53150D02*
D03*
X47200Y35750D02*
D03*
X47000D02*
D03*
X46800D02*
D03*
X46600D02*
D03*
X46400D02*
D03*
X46200D02*
D03*
X47200Y35950D02*
D03*
X47000D02*
D03*
X46800D02*
D03*
X46600D02*
D03*
X46400D02*
D03*
X46200D02*
D03*
X47200Y36150D02*
D03*
X47000D02*
D03*
X46800D02*
D03*
X46600D02*
D03*
X46400D02*
D03*
X46200D02*
D03*
X47200Y36350D02*
D03*
X47000D02*
D03*
X46800D02*
D03*
X46600D02*
D03*
X46400D02*
D03*
X46200D02*
D03*
X40250Y35750D02*
D03*
X40050D02*
D03*
X39850D02*
D03*
X39650D02*
D03*
X39450D02*
D03*
X39250D02*
D03*
X40250Y35950D02*
D03*
X40050D02*
D03*
X39850D02*
D03*
X39650D02*
D03*
X39450D02*
D03*
X39250D02*
D03*
X40250Y36150D02*
D03*
X40050D02*
D03*
X39850D02*
D03*
X39450D02*
D03*
X39250D02*
D03*
X40250Y36350D02*
D03*
X40050D02*
D03*
X39850D02*
D03*
X39650D02*
D03*
X39250D02*
D03*
D60*
X56550Y27550D02*
D03*
Y38600D02*
D03*
X27550Y27550D02*
D03*
Y38600D02*
D03*
D61*
X52310Y36950D02*
X53939D01*
X54574Y36314D01*
Y36300D02*
Y36314D01*
M02*
