G04*
G04 #@! TF.GenerationSoftware,Altium Limited,Altium Designer,20.1.12 (249)*
G04*
G04 Layer_Physical_Order=1*
G04 Layer_Color=255*
%FSLAX24Y24*%
%MOIN*%
G70*
G04*
G04 #@! TF.SameCoordinates,7611F4AC-675D-4E0A-8C32-16A27ADB78BB*
G04*
G04*
G04 #@! TF.FilePolarity,Positive*
G04*
G01*
G75*
%ADD24R,0.0710X0.1300*%
%ADD34R,0.4268X0.3000*%
%ADD35R,0.0390X0.1492*%
%ADD36R,0.0580X0.0140*%
%ADD37R,0.0354X0.0827*%
%ADD38R,0.1260X0.0827*%
%ADD39R,0.0551X0.0472*%
%ADD40R,0.0472X0.0551*%
%ADD41R,0.0295X0.0177*%
%ADD42R,0.0236X0.0776*%
%ADD43R,0.1130X0.0795*%
%ADD44R,0.0210X0.0770*%
%ADD45C,0.0120*%
%ADD46C,0.0080*%
%ADD47C,0.0400*%
%ADD48C,0.0100*%
%ADD49C,0.0250*%
%ADD50C,0.2172*%
%ADD51R,0.2172X0.2172*%
%ADD52R,0.0591X0.0591*%
%ADD53C,0.0591*%
%ADD54R,0.0394X0.0394*%
%ADD55C,0.0394*%
%ADD56C,0.0300*%
%ADD57C,0.0500*%
%ADD58C,0.0250*%
%ADD59C,0.0150*%
%ADD60C,0.1575*%
G36*
X55368Y39428D02*
X55364Y39423D01*
X55345Y39325D01*
X55364Y39227D01*
X55420Y39145D01*
X55437Y39133D01*
Y37492D01*
X55435Y37491D01*
X55250D01*
Y37204D01*
X55576D01*
Y37221D01*
X55622Y37240D01*
X56937Y35925D01*
Y30041D01*
X56224D01*
Y29863D01*
X55942D01*
X55930Y29880D01*
X55848Y29936D01*
X55750Y29955D01*
X55652Y29936D01*
X55570Y29880D01*
X55514Y29798D01*
X55495Y29700D01*
X55514Y29602D01*
X55570Y29520D01*
X55652Y29464D01*
X55750Y29445D01*
X55848Y29464D01*
X55930Y29520D01*
X55942Y29537D01*
X56224D01*
Y29368D01*
X56224D01*
Y29348D01*
X56188Y29298D01*
X55605D01*
X55601Y29301D01*
X55516Y29337D01*
X55424Y29349D01*
X55333Y29337D01*
X55248Y29301D01*
X55175Y29245D01*
X55119Y29172D01*
X55083Y29087D01*
X55083Y29082D01*
X54777Y28776D01*
X54605D01*
Y28530D01*
X54597Y28471D01*
Y27930D01*
X54605Y27872D01*
Y27084D01*
X55195D01*
Y27872D01*
X55203Y27930D01*
Y28346D01*
X55511Y28654D01*
X55516Y28655D01*
X55601Y28690D01*
X55605Y28693D01*
X56224D01*
Y28659D01*
X56976D01*
Y29101D01*
X57215Y29341D01*
X57251Y29394D01*
X57263Y29456D01*
Y35992D01*
X57251Y36055D01*
X57215Y36108D01*
X55763Y37560D01*
Y38093D01*
X55775Y38096D01*
X55813Y38099D01*
X55919Y37969D01*
X56055Y37859D01*
X56209Y37776D01*
X56376Y37725D01*
X56550Y37708D01*
X56724Y37725D01*
X56891Y37776D01*
X57045Y37859D01*
X57181Y37969D01*
X57291Y38105D01*
X57374Y38259D01*
X57423Y38252D01*
X57423Y27898D01*
X57374Y27891D01*
X57291Y28045D01*
X57181Y28181D01*
X57045Y28291D01*
X56891Y28374D01*
X56724Y28425D01*
X56550Y28442D01*
X56376Y28425D01*
X56209Y28374D01*
X56055Y28291D01*
X55919Y28181D01*
X55809Y28045D01*
X55726Y27891D01*
X55675Y27724D01*
X55658Y27550D01*
X55675Y27376D01*
X55726Y27209D01*
X55809Y27055D01*
X55919Y26919D01*
X56055Y26809D01*
X56209Y26726D01*
X56202Y26677D01*
X46309D01*
X46294Y26727D01*
X46305Y26735D01*
X48625Y29056D01*
X48883D01*
X48899Y29059D01*
X49277D01*
Y30085D01*
X49163D01*
Y30527D01*
X49576Y30940D01*
X49579D01*
X49595Y30937D01*
X49824D01*
X50372Y30389D01*
X50425Y30354D01*
X50488Y30341D01*
X50624D01*
Y30182D01*
X50624Y30168D01*
Y30132D01*
X50624Y30118D01*
Y29735D01*
X50183D01*
Y30085D01*
X50150D01*
X50117Y30135D01*
X50129Y30200D01*
X50112Y30288D01*
X50062Y30362D01*
X49988Y30412D01*
X49900Y30429D01*
X49812Y30412D01*
X49738Y30362D01*
X49688Y30288D01*
X49671Y30200D01*
X49683Y30135D01*
X49650Y30085D01*
X49628D01*
Y29059D01*
X50183D01*
Y29409D01*
X50624D01*
Y28882D01*
X50624Y28868D01*
Y28832D01*
X50624Y28818D01*
Y28546D01*
X51376D01*
Y28818D01*
X51376Y28832D01*
Y28868D01*
X51376Y28882D01*
Y29541D01*
X51376D01*
Y30118D01*
X51376Y30132D01*
Y30168D01*
X51376Y30182D01*
Y30841D01*
X50624D01*
Y30667D01*
X50555D01*
X50007Y31215D01*
X49954Y31251D01*
X49892Y31263D01*
X49755D01*
Y31910D01*
X49345D01*
Y31171D01*
X49301Y31127D01*
X49255Y31146D01*
Y31910D01*
X48845D01*
Y30940D01*
X49049D01*
X49068Y30894D01*
X48885Y30710D01*
X48849Y30657D01*
X48837Y30595D01*
Y30085D01*
X48723D01*
Y29382D01*
X48558D01*
X48558Y29382D01*
X48495Y29369D01*
X48443Y29334D01*
X48418Y29309D01*
X48372Y29328D01*
Y29522D01*
X47817D01*
Y29059D01*
X48102D01*
X48121Y29012D01*
X46122Y27013D01*
X42239D01*
X42143Y27109D01*
Y27284D01*
X42193Y27301D01*
X42218Y27268D01*
X42301Y27205D01*
X42397Y27165D01*
X42500Y27151D01*
X42603Y27165D01*
X42699Y27205D01*
X42782Y27268D01*
X42845Y27351D01*
X42885Y27447D01*
X42899Y27550D01*
X42885Y27653D01*
X42862Y27710D01*
X43109Y27957D01*
X43320D01*
X43330Y27907D01*
X43301Y27895D01*
X43218Y27832D01*
X43155Y27749D01*
X43115Y27653D01*
X43101Y27550D01*
X43115Y27447D01*
X43155Y27351D01*
X43218Y27268D01*
X43301Y27205D01*
X43397Y27165D01*
X43500Y27151D01*
X43603Y27165D01*
X43699Y27205D01*
X43782Y27268D01*
X43845Y27351D01*
X43885Y27447D01*
X43899Y27550D01*
X43885Y27653D01*
X43862Y27710D01*
X44109Y27957D01*
X44320D01*
X44330Y27907D01*
X44301Y27895D01*
X44218Y27832D01*
X44155Y27749D01*
X44115Y27653D01*
X44101Y27550D01*
X44115Y27447D01*
X44155Y27351D01*
X44218Y27268D01*
X44301Y27205D01*
X44397Y27165D01*
X44500Y27151D01*
X44603Y27165D01*
X44699Y27205D01*
X44782Y27268D01*
X44845Y27351D01*
X44885Y27447D01*
X44899Y27550D01*
X44885Y27653D01*
X44862Y27710D01*
X45055Y27903D01*
X45105Y27882D01*
Y27155D01*
X45895D01*
Y27945D01*
X45712D01*
X45693Y27991D01*
X47767Y30065D01*
X47817Y30045D01*
Y29622D01*
X48044D01*
Y30085D01*
X47858D01*
X47837Y30135D01*
X48406Y30704D01*
X48437Y30750D01*
X48448Y30805D01*
X48448Y30805D01*
Y30940D01*
X48755D01*
Y31910D01*
X48614D01*
X48595Y31956D01*
X49151Y32512D01*
X49151Y32512D01*
X49182Y32558D01*
X49193Y32613D01*
X49193Y32613D01*
Y32890D01*
X49255D01*
Y33827D01*
X49345D01*
Y32890D01*
X49387D01*
Y32711D01*
X49338Y32638D01*
X49321Y32550D01*
X49338Y32462D01*
X49388Y32388D01*
X49462Y32338D01*
X49550Y32321D01*
X49638Y32338D01*
X49712Y32388D01*
X49762Y32462D01*
X49779Y32550D01*
X49762Y32638D01*
X49713Y32711D01*
Y32890D01*
X49755D01*
Y33827D01*
X51622D01*
X51666Y33814D01*
X51666Y33777D01*
Y30614D01*
X56134D01*
Y33814D01*
X53147D01*
X53132Y33864D01*
X53139Y33869D01*
X53834Y34563D01*
X54068D01*
Y35528D01*
X54132D01*
Y34563D01*
X54568D01*
Y34793D01*
X54824D01*
Y34609D01*
X55576D01*
Y35282D01*
X55576D01*
Y35318D01*
X55576D01*
Y35991D01*
X55363D01*
Y36109D01*
X55576D01*
Y36207D01*
X55626Y36235D01*
X55700Y36221D01*
X55788Y36238D01*
X55862Y36288D01*
X55912Y36362D01*
X55929Y36450D01*
X55912Y36538D01*
X55862Y36612D01*
X55788Y36662D01*
X55700Y36679D01*
X55626Y36665D01*
X55576Y36693D01*
Y36768D01*
X55576Y36782D01*
Y36818D01*
X55576Y36832D01*
Y37104D01*
X55200D01*
X54824D01*
Y36832D01*
X54824Y36818D01*
Y36782D01*
X54824Y36768D01*
Y36612D01*
X54774Y36588D01*
X54751Y36606D01*
X54666Y36641D01*
X54574Y36653D01*
X54568Y36659D01*
Y36950D01*
X54350D01*
Y37000D01*
X54300D01*
Y37488D01*
X54228D01*
X54208Y37534D01*
X54879Y38205D01*
X55345D01*
Y38995D01*
X54555D01*
Y38529D01*
X53760Y37734D01*
X53704Y37749D01*
X53662Y37812D01*
X53599Y37854D01*
X53584Y37910D01*
X53884Y38210D01*
X53950Y38201D01*
X54053Y38215D01*
X54149Y38255D01*
X54232Y38318D01*
X54295Y38401D01*
X54335Y38497D01*
X54349Y38600D01*
X54335Y38703D01*
X54295Y38799D01*
X54232Y38882D01*
X54149Y38945D01*
X54053Y38985D01*
X53950Y38999D01*
X53847Y38985D01*
X53751Y38945D01*
X53668Y38882D01*
X53605Y38799D01*
X53565Y38703D01*
X53551Y38600D01*
X53560Y38534D01*
X52688Y37662D01*
X52638Y37588D01*
X52621Y37500D01*
Y37202D01*
X52571Y37185D01*
X52560Y37200D01*
X52487Y37256D01*
X52401Y37291D01*
X52360Y37296D01*
Y36950D01*
Y36604D01*
X52401Y36609D01*
X52487Y36644D01*
X52560Y36700D01*
X52582Y36729D01*
X52632Y36712D01*
Y36512D01*
X52935D01*
Y35539D01*
X52632D01*
Y35303D01*
X52593Y35271D01*
X52550Y35279D01*
X52462Y35262D01*
X52388Y35212D01*
X52338Y35138D01*
X52321Y35050D01*
X52338Y34962D01*
X52388Y34888D01*
X52462Y34838D01*
X52550Y34821D01*
X52593Y34829D01*
X52632Y34797D01*
Y34563D01*
X52865D01*
X52884Y34517D01*
X52659Y34293D01*
X51355D01*
Y34805D01*
X51405Y34826D01*
X51462Y34788D01*
X51550Y34771D01*
X51638Y34788D01*
X51712Y34838D01*
X51762Y34912D01*
X51779Y35000D01*
X51762Y35088D01*
X51712Y35162D01*
X51638Y35212D01*
X51550Y35229D01*
X51462Y35212D01*
X51405Y35174D01*
X51355Y35195D01*
Y35715D01*
X50445D01*
Y34293D01*
X46695D01*
X46676Y34339D01*
X46900Y34563D01*
X47135D01*
Y35528D01*
X47199D01*
Y34563D01*
X47635D01*
Y34793D01*
X47891D01*
Y34609D01*
X48642D01*
Y35268D01*
X48642Y35282D01*
Y35318D01*
X48642Y35332D01*
Y35991D01*
X48430D01*
Y36109D01*
X48642D01*
Y36196D01*
X48692Y36232D01*
X48750Y36221D01*
X48838Y36238D01*
X48912Y36288D01*
X48962Y36362D01*
X48979Y36450D01*
X48962Y36538D01*
X48912Y36612D01*
X48838Y36662D01*
X48750Y36679D01*
X48692Y36668D01*
X48642Y36704D01*
Y36768D01*
X48642Y36782D01*
Y36818D01*
X48642Y36832D01*
Y37104D01*
X48267D01*
X47891D01*
Y36832D01*
X47891Y36818D01*
Y36782D01*
X47891Y36768D01*
Y36109D01*
X48104D01*
Y35991D01*
X47891D01*
Y35332D01*
X47891Y35318D01*
Y35282D01*
X47891Y35268D01*
Y35099D01*
X47635D01*
Y35539D01*
X47332D01*
Y35632D01*
X47365Y35682D01*
X47378Y35750D01*
X47365Y35818D01*
X47344Y35850D01*
X47365Y35882D01*
X47378Y35950D01*
X47365Y36018D01*
X47344Y36050D01*
X47365Y36082D01*
X47378Y36150D01*
X47365Y36218D01*
X47344Y36250D01*
X47365Y36282D01*
X47378Y36350D01*
X47365Y36418D01*
X47336Y36462D01*
X47349Y36512D01*
X47367D01*
Y37000D01*
Y37488D01*
X47294D01*
X47275Y37534D01*
X47946Y38205D01*
X48412D01*
Y38995D01*
X47621D01*
Y38529D01*
X46839Y37747D01*
X46785Y37763D01*
X46741Y37829D01*
X46681Y37869D01*
X46667Y37926D01*
X46951Y38210D01*
X47017Y38201D01*
X47120Y38215D01*
X47216Y38255D01*
X47299Y38318D01*
X47362Y38401D01*
X47402Y38497D01*
X47415Y38600D01*
X47402Y38703D01*
X47362Y38799D01*
X47299Y38882D01*
X47216Y38945D01*
X47120Y38985D01*
X47017Y38999D01*
X46913Y38985D01*
X46817Y38945D01*
X46735Y38882D01*
X46671Y38799D01*
X46632Y38703D01*
X46618Y38600D01*
X46627Y38534D01*
X45754Y37662D01*
X45705Y37588D01*
X45687Y37500D01*
Y37000D01*
X45699Y36943D01*
Y36512D01*
X46002D01*
Y35539D01*
X45699D01*
Y35240D01*
X45649Y35221D01*
X45588Y35262D01*
X45500Y35279D01*
X45412Y35262D01*
X45338Y35212D01*
X45288Y35138D01*
X45271Y35050D01*
X45288Y34962D01*
X45338Y34888D01*
X45412Y34838D01*
X45500Y34821D01*
X45588Y34838D01*
X45649Y34879D01*
X45699Y34860D01*
Y34666D01*
X44864D01*
X44864Y34666D01*
X44810Y34655D01*
X44763Y34624D01*
X44763Y34624D01*
X44468Y34329D01*
X44422Y34348D01*
Y35715D01*
X43512D01*
Y35623D01*
X43462Y35596D01*
X43438Y35612D01*
X43350Y35629D01*
X43262Y35612D01*
X43188Y35562D01*
X43138Y35488D01*
X43121Y35400D01*
X43138Y35312D01*
X43188Y35238D01*
X43262Y35188D01*
X43350Y35171D01*
X43438Y35188D01*
X43462Y35204D01*
X43512Y35177D01*
Y34215D01*
X44289D01*
X44308Y34169D01*
X44212Y34073D01*
X42363D01*
X42363Y34073D01*
X42308Y34062D01*
X42262Y34031D01*
X41784Y33553D01*
X41690D01*
Y33830D01*
X40910D01*
Y33823D01*
X40746D01*
X40688Y33862D01*
X40600Y33879D01*
X40512Y33862D01*
X40438Y33812D01*
X40388Y33738D01*
X40371Y33650D01*
X40388Y33562D01*
X40438Y33488D01*
X40512Y33438D01*
X40600Y33421D01*
X40688Y33438D01*
X40762Y33488D01*
X40768Y33497D01*
X40910D01*
Y33240D01*
Y32980D01*
Y32730D01*
Y32470D01*
Y32210D01*
Y31960D01*
Y31700D01*
Y31450D01*
Y31190D01*
Y30930D01*
Y30430D01*
X40867Y30402D01*
X39809Y31461D01*
X39762Y31492D01*
X39708Y31503D01*
X39708Y31503D01*
X39390D01*
Y31960D01*
Y32210D01*
Y32470D01*
Y32730D01*
Y32980D01*
Y33286D01*
X39401Y33288D01*
X39447Y33319D01*
X40084Y33956D01*
X40084Y33956D01*
X40115Y34002D01*
X40126Y34057D01*
Y34563D01*
X40201D01*
Y35528D01*
X40265D01*
Y34563D01*
X40701D01*
Y34793D01*
X40958D01*
Y34609D01*
X41709D01*
Y35268D01*
X41709Y35282D01*
Y35318D01*
X41709Y35332D01*
Y35991D01*
X41496D01*
Y36109D01*
X41709D01*
Y36221D01*
X41753Y36244D01*
X41762Y36238D01*
X41850Y36221D01*
X41938Y36238D01*
X42012Y36288D01*
X42062Y36362D01*
X42079Y36450D01*
X42062Y36538D01*
X42012Y36612D01*
X41938Y36662D01*
X41850Y36679D01*
X41762Y36662D01*
X41753Y36656D01*
X41709Y36679D01*
Y36768D01*
X41709Y36782D01*
Y36818D01*
X41709Y36832D01*
Y37104D01*
X41333D01*
X40958D01*
Y36832D01*
X40958Y36818D01*
Y36782D01*
X40958Y36768D01*
Y36109D01*
X41170D01*
Y35991D01*
X40958D01*
Y35332D01*
X40958Y35318D01*
Y35282D01*
X40958Y35268D01*
Y35099D01*
X40701D01*
Y35539D01*
X40398D01*
Y35657D01*
X40415Y35682D01*
X40428Y35750D01*
X40415Y35818D01*
X40398Y35843D01*
Y35857D01*
X40415Y35882D01*
X40428Y35950D01*
X40415Y36018D01*
X40398Y36043D01*
Y36057D01*
X40415Y36082D01*
X40428Y36150D01*
X40415Y36218D01*
X40398Y36243D01*
Y36257D01*
X40415Y36282D01*
X40428Y36350D01*
X40415Y36418D01*
X40398Y36443D01*
Y36512D01*
X40433D01*
Y37000D01*
Y37488D01*
X40361D01*
X40342Y37534D01*
X41012Y38205D01*
X41479D01*
Y38995D01*
X40688D01*
Y38529D01*
X39884Y37725D01*
X39834Y37730D01*
X39812Y37762D01*
X39738Y37812D01*
X39698Y37820D01*
X39682Y37874D01*
X40018Y38210D01*
X40083Y38201D01*
X40187Y38215D01*
X40283Y38255D01*
X40365Y38318D01*
X40429Y38401D01*
X40468Y38497D01*
X40482Y38600D01*
X40468Y38703D01*
X40429Y38799D01*
X40365Y38882D01*
X40283Y38945D01*
X40187Y38985D01*
X40083Y38999D01*
X39980Y38985D01*
X39884Y38945D01*
X39801Y38882D01*
X39738Y38799D01*
X39698Y38703D01*
X39685Y38600D01*
X39693Y38534D01*
X38821Y37662D01*
X38771Y37588D01*
X38754Y37500D01*
Y37000D01*
X38765Y36943D01*
Y36512D01*
X39068D01*
Y35539D01*
X38765D01*
Y35299D01*
X38715Y35266D01*
X38650Y35279D01*
X38562Y35262D01*
X38488Y35212D01*
X38438Y35138D01*
X38421Y35050D01*
X38438Y34962D01*
X38488Y34888D01*
X38562Y34838D01*
X38650Y34821D01*
X38715Y34834D01*
X38765Y34801D01*
Y34563D01*
X39201D01*
Y35528D01*
X39265D01*
Y34563D01*
X39341D01*
Y34382D01*
X39129Y34171D01*
X39098Y34125D01*
X39087Y34070D01*
X39087Y34070D01*
Y33830D01*
X38610D01*
Y33490D01*
Y33293D01*
X37677D01*
X36804Y34165D01*
X36825Y34215D01*
X37488D01*
Y34727D01*
X37538Y34754D01*
X37562Y34738D01*
X37650Y34721D01*
X37738Y34738D01*
X37812Y34788D01*
X37862Y34862D01*
X37879Y34950D01*
X37862Y35038D01*
X37812Y35112D01*
X37738Y35162D01*
X37650Y35179D01*
X37562Y35162D01*
X37538Y35146D01*
X37488Y35173D01*
Y35715D01*
X36578D01*
Y34223D01*
X33811D01*
X33516Y34517D01*
X33535Y34563D01*
X33768D01*
Y34793D01*
X34024D01*
Y34609D01*
X34776D01*
Y35282D01*
X34776D01*
Y35318D01*
X34776D01*
Y35991D01*
X34563D01*
Y36109D01*
X34776D01*
Y36768D01*
X34776Y36782D01*
Y36818D01*
X34776Y36832D01*
Y37104D01*
X34400D01*
X34024D01*
Y36832D01*
X34024Y36818D01*
Y36782D01*
X34024Y36768D01*
Y36693D01*
X33974Y36665D01*
X33900Y36679D01*
X33818Y36663D01*
X33801Y36668D01*
X33768Y36686D01*
Y36950D01*
X33600D01*
Y36512D01*
X33644D01*
X33675Y36474D01*
X33671Y36450D01*
X33688Y36362D01*
X33738Y36288D01*
X33812Y36238D01*
X33900Y36221D01*
X33974Y36235D01*
X34024Y36207D01*
Y36109D01*
X34237D01*
Y35991D01*
X34024D01*
Y35318D01*
X34024D01*
Y35282D01*
X34024D01*
Y35099D01*
X33768D01*
Y35539D01*
X33465D01*
Y35616D01*
X33476Y35624D01*
X33515Y35682D01*
X33528Y35750D01*
X33515Y35818D01*
X33494Y35850D01*
X33515Y35882D01*
X33528Y35950D01*
X33515Y36018D01*
X33494Y36050D01*
X33515Y36082D01*
X33528Y36150D01*
X33515Y36218D01*
X33494Y36250D01*
X33515Y36282D01*
X33528Y36350D01*
X33515Y36418D01*
X33486Y36462D01*
X33500Y36499D01*
Y37000D01*
Y37488D01*
X33428D01*
X33408Y37534D01*
X34079Y38205D01*
X34545D01*
Y38995D01*
X33755D01*
Y38529D01*
X32960Y37734D01*
X32904Y37749D01*
X32862Y37812D01*
X32799Y37854D01*
X32784Y37910D01*
X33084Y38210D01*
X33150Y38201D01*
X33253Y38215D01*
X33349Y38255D01*
X33432Y38318D01*
X33495Y38401D01*
X33535Y38497D01*
X33549Y38600D01*
X33535Y38703D01*
X33495Y38799D01*
X33432Y38882D01*
X33349Y38945D01*
X33253Y38985D01*
X33150Y38999D01*
X33047Y38985D01*
X32951Y38945D01*
X32868Y38882D01*
X32805Y38799D01*
X32765Y38703D01*
X32751Y38600D01*
X32760Y38534D01*
X31888Y37662D01*
X31838Y37588D01*
X31821Y37500D01*
Y37000D01*
X31832Y36943D01*
Y36512D01*
X32135D01*
Y35539D01*
X31832D01*
Y35286D01*
X31799Y35268D01*
X31782Y35263D01*
X31700Y35279D01*
X31612Y35262D01*
X31538Y35212D01*
X31488Y35138D01*
X31471Y35050D01*
X31488Y34962D01*
X31538Y34888D01*
X31612Y34838D01*
X31700Y34821D01*
X31782Y34837D01*
X31799Y34832D01*
X31832Y34814D01*
Y34563D01*
X32268D01*
Y35528D01*
X32332D01*
Y34563D01*
X32632D01*
X32921Y34275D01*
X32904Y34220D01*
X32862Y34212D01*
X32788Y34162D01*
X32738Y34088D01*
X32721Y34000D01*
X32738Y33912D01*
X32757Y33883D01*
X32745Y33860D01*
X32745D01*
Y32890D01*
X33155D01*
Y33860D01*
X33155D01*
X33143Y33883D01*
X33162Y33912D01*
X33170Y33954D01*
X33225Y33971D01*
X33289Y33906D01*
X33270Y33860D01*
X33245D01*
Y32890D01*
X33655D01*
Y33757D01*
X33745D01*
Y32890D01*
X34155D01*
Y33757D01*
X34245D01*
Y32890D01*
X34307D01*
Y32805D01*
X34270Y32780D01*
X34214Y32698D01*
X34195Y32600D01*
X34214Y32502D01*
X34270Y32420D01*
X34352Y32364D01*
X34450Y32345D01*
X34548Y32364D01*
X34630Y32420D01*
X34685Y32502D01*
X34705Y32600D01*
X34685Y32698D01*
X34630Y32780D01*
X34593Y32805D01*
Y32890D01*
X34655D01*
Y33757D01*
X34745D01*
Y32890D01*
X34807D01*
Y32172D01*
X34594Y31959D01*
X34563Y31913D01*
X34563Y31910D01*
X34245D01*
Y31142D01*
X34201Y31098D01*
X34155Y31117D01*
Y31910D01*
X34113D01*
Y32008D01*
X34130Y32020D01*
X34186Y32102D01*
X34205Y32200D01*
X34186Y32298D01*
X34130Y32380D01*
X34048Y32436D01*
X33950Y32455D01*
X33852Y32436D01*
X33770Y32380D01*
X33714Y32298D01*
X33695Y32200D01*
X33714Y32102D01*
X33770Y32020D01*
X33787Y32008D01*
Y31910D01*
X33745D01*
Y30940D01*
X33978D01*
X33997Y30894D01*
X33399Y30296D01*
X33368Y30250D01*
X33357Y30195D01*
X33357Y30195D01*
Y27919D01*
X33301Y27895D01*
X33218Y27832D01*
X33155Y27749D01*
X33115Y27653D01*
X33101Y27550D01*
X33115Y27447D01*
X33155Y27351D01*
X33218Y27268D01*
X33301Y27205D01*
X33397Y27165D01*
X33500Y27151D01*
X33603Y27165D01*
X33699Y27205D01*
X33782Y27268D01*
X33845Y27351D01*
X33885Y27447D01*
X33899Y27550D01*
X33885Y27653D01*
X33845Y27749D01*
X33782Y27832D01*
X33699Y27895D01*
X33643Y27919D01*
Y30136D01*
X34447Y30940D01*
X34552D01*
Y30388D01*
X34399Y30235D01*
X34368Y30189D01*
X34357Y30134D01*
X34357Y30134D01*
Y27919D01*
X34301Y27895D01*
X34218Y27832D01*
X34155Y27749D01*
X34115Y27653D01*
X34101Y27550D01*
X34115Y27447D01*
X34155Y27351D01*
X34218Y27268D01*
X34301Y27205D01*
X34397Y27165D01*
X34500Y27151D01*
X34603Y27165D01*
X34699Y27205D01*
X34782Y27268D01*
X34845Y27351D01*
X34885Y27447D01*
X34899Y27550D01*
X34885Y27653D01*
X34845Y27749D01*
X34782Y27832D01*
X34699Y27895D01*
X34643Y27919D01*
Y30075D01*
X34796Y30228D01*
X34796Y30228D01*
X34827Y30274D01*
X34838Y30329D01*
X34838Y30329D01*
Y30940D01*
X35155D01*
Y31679D01*
X35199Y31723D01*
X35245Y31704D01*
Y30940D01*
X35552D01*
Y30388D01*
X35399Y30235D01*
X35368Y30189D01*
X35357Y30134D01*
X35357Y30134D01*
Y27919D01*
X35301Y27895D01*
X35218Y27832D01*
X35155Y27749D01*
X35115Y27653D01*
X35101Y27550D01*
X35115Y27447D01*
X35155Y27351D01*
X35218Y27268D01*
X35301Y27205D01*
X35397Y27165D01*
X35500Y27151D01*
X35603Y27165D01*
X35699Y27205D01*
X35782Y27268D01*
X35845Y27351D01*
X35885Y27447D01*
X35899Y27550D01*
X35885Y27653D01*
X35845Y27749D01*
X35782Y27832D01*
X35699Y27895D01*
X35643Y27919D01*
Y30075D01*
X35796Y30228D01*
X35796Y30228D01*
X35827Y30274D01*
X35838Y30329D01*
X35838Y30329D01*
Y30940D01*
X36155D01*
Y31910D01*
X36014D01*
X35995Y31956D01*
X36051Y32012D01*
X36051Y32012D01*
X36082Y32058D01*
X36093Y32113D01*
Y32890D01*
X36155D01*
Y33757D01*
X36245D01*
Y32897D01*
X36220Y32880D01*
X36165Y32798D01*
X36145Y32700D01*
X36165Y32602D01*
X36220Y32520D01*
X36302Y32464D01*
X36400Y32445D01*
X36498Y32464D01*
X36580Y32520D01*
X36635Y32602D01*
X36655Y32700D01*
X36635Y32798D01*
X36613Y32831D01*
Y32890D01*
X36655D01*
Y33591D01*
X36701Y33610D01*
X37512Y32799D01*
X37512Y32799D01*
X37558Y32768D01*
X37613Y32757D01*
X37613Y32757D01*
X38610D01*
Y32470D01*
Y32210D01*
Y31893D01*
X38579Y31867D01*
X38526D01*
Y32041D01*
X37774D01*
Y31368D01*
X37774D01*
Y31332D01*
X37774D01*
Y30899D01*
X37680Y30804D01*
X37626Y30821D01*
X37620Y30849D01*
X37662Y30912D01*
X37679Y31000D01*
X37662Y31088D01*
X37612Y31162D01*
X37538Y31212D01*
X37450Y31229D01*
X37362Y31212D01*
X37288Y31162D01*
X37238Y31088D01*
X37221Y31000D01*
X37238Y30912D01*
X37287Y30839D01*
Y30726D01*
X37159D01*
Y30244D01*
X37113Y30225D01*
X36613Y30725D01*
Y30940D01*
X36655D01*
Y31910D01*
X36245D01*
Y30940D01*
X36287D01*
Y30658D01*
X36299Y30595D01*
X36335Y30542D01*
X37078Y29799D01*
X37131Y29764D01*
X37193Y29751D01*
X37808D01*
X37871Y29764D01*
X37923Y29799D01*
X38099Y29974D01*
X38310D01*
X39792Y28492D01*
Y27887D01*
X39742Y27862D01*
X39699Y27895D01*
X39603Y27935D01*
X39550Y27942D01*
Y27550D01*
Y27158D01*
X39603Y27165D01*
X39699Y27205D01*
X39742Y27238D01*
X39792Y27213D01*
Y27013D01*
X38268D01*
X37870Y27411D01*
X37885Y27447D01*
X37899Y27550D01*
X37885Y27653D01*
X37845Y27749D01*
X37782Y27832D01*
X37699Y27895D01*
X37603Y27935D01*
X37500Y27949D01*
X37397Y27935D01*
X37301Y27895D01*
X37218Y27832D01*
X37155Y27749D01*
X37115Y27653D01*
X37101Y27550D01*
X37115Y27447D01*
X37155Y27351D01*
X37218Y27268D01*
X37301Y27205D01*
X37397Y27165D01*
X37500Y27151D01*
X37603Y27165D01*
X37639Y27180D01*
X38085Y26735D01*
X38095Y26727D01*
X38080Y26677D01*
X27898D01*
X27891Y26726D01*
X28045Y26809D01*
X28181Y26919D01*
X28291Y27055D01*
X28374Y27209D01*
X28425Y27376D01*
X28442Y27550D01*
X28425Y27724D01*
X28374Y27891D01*
X28291Y28045D01*
X28181Y28181D01*
X28045Y28291D01*
X27891Y28374D01*
X27724Y28425D01*
X27550Y28442D01*
X27376Y28425D01*
X27209Y28374D01*
X27055Y28291D01*
X26919Y28181D01*
X26809Y28045D01*
X26726Y27891D01*
X26677Y27898D01*
X26677Y38252D01*
X26726Y38259D01*
X26809Y38105D01*
X26919Y37969D01*
X27055Y37859D01*
X27209Y37776D01*
X27376Y37725D01*
X27550Y37708D01*
X27724Y37725D01*
X27891Y37776D01*
X28045Y37859D01*
X28181Y37969D01*
X28291Y38105D01*
X28374Y38259D01*
X28425Y38426D01*
X28442Y38600D01*
X28425Y38774D01*
X28374Y38941D01*
X28291Y39095D01*
X28181Y39231D01*
X28045Y39341D01*
X27891Y39424D01*
X27898Y39473D01*
X55345D01*
X55368Y39428D01*
D02*
G37*
G36*
X54624Y35954D02*
X54666Y35959D01*
X54751Y35994D01*
X54788Y36022D01*
X54824Y35988D01*
Y35318D01*
X54824D01*
Y35282D01*
X54824D01*
Y35099D01*
X54568D01*
Y35539D01*
X54265D01*
Y35616D01*
X54276Y35624D01*
X54315Y35682D01*
X54328Y35750D01*
X54315Y35818D01*
X54294Y35850D01*
X54315Y35882D01*
X54328Y35950D01*
X54320Y35991D01*
X54366Y36019D01*
X54398Y35994D01*
X54483Y35959D01*
X54524Y35954D01*
Y36300D01*
X54624D01*
Y35954D01*
D02*
G37*
G36*
X39765Y34563D02*
X39841D01*
Y34116D01*
X39436Y33712D01*
X39390Y33731D01*
Y33830D01*
X39373D01*
Y34011D01*
X39584Y34222D01*
X39615Y34269D01*
X39626Y34323D01*
X39626Y34323D01*
Y34563D01*
X39701D01*
Y35528D01*
X39765D01*
Y34563D01*
D02*
G37*
G36*
X47345Y32890D02*
X47345Y32890D01*
X47345D01*
X47343Y32841D01*
X47315Y32798D01*
X47295Y32700D01*
X47315Y32602D01*
X47370Y32520D01*
X47452Y32464D01*
X47550Y32445D01*
X47648Y32464D01*
X47717Y32511D01*
X47748Y32472D01*
X47699Y32422D01*
X47668Y32376D01*
X47657Y32321D01*
X47657Y32321D01*
Y31910D01*
X47345D01*
Y31142D01*
X47301Y31098D01*
X47255Y31117D01*
Y31910D01*
X47193D01*
Y32045D01*
X47230Y32070D01*
X47285Y32152D01*
X47305Y32250D01*
X47285Y32348D01*
X47230Y32430D01*
X47148Y32485D01*
X47050Y32505D01*
X46952Y32485D01*
X46870Y32430D01*
X46814Y32348D01*
X46795Y32250D01*
X46814Y32152D01*
X46870Y32070D01*
X46907Y32045D01*
Y31910D01*
X46845D01*
Y30940D01*
X47078D01*
X47097Y30894D01*
X44446Y28243D01*
X44050D01*
X43995Y28232D01*
X43949Y28201D01*
X43949Y28201D01*
X43660Y27912D01*
X43603Y27935D01*
X43601Y27935D01*
X43589Y27987D01*
X43606Y27999D01*
X46547Y30940D01*
X46755D01*
Y31910D01*
X46345D01*
Y31142D01*
X46301Y31098D01*
X46255Y31117D01*
Y31910D01*
X46213D01*
Y32058D01*
X46230Y32070D01*
X46286Y32152D01*
X46305Y32250D01*
X46286Y32348D01*
X46230Y32430D01*
X46148Y32485D01*
X46050Y32505D01*
X45952Y32485D01*
X45870Y32430D01*
X45814Y32348D01*
X45795Y32250D01*
X45814Y32152D01*
X45870Y32070D01*
X45887Y32058D01*
Y31910D01*
X45845D01*
Y30940D01*
X46078D01*
X46097Y30894D01*
X43446Y28243D01*
X43050D01*
X42995Y28232D01*
X42949Y28201D01*
X42949Y28201D01*
X42660Y27912D01*
X42603Y27935D01*
X42549Y27942D01*
X42531Y27995D01*
X44619Y30082D01*
X44619Y30082D01*
X44649Y30129D01*
X44660Y30183D01*
X44660Y30183D01*
Y30224D01*
X44700Y30241D01*
X44762Y30288D01*
X44809Y30350D01*
X44839Y30423D01*
X44849Y30500D01*
X44839Y30577D01*
X44809Y30650D01*
X44762Y30712D01*
X44744Y30725D01*
Y30775D01*
X44762Y30788D01*
X44809Y30850D01*
X44839Y30923D01*
X44849Y31000D01*
X44839Y31077D01*
X44809Y31150D01*
X44762Y31212D01*
X44744Y31225D01*
Y31275D01*
X44762Y31288D01*
X44809Y31350D01*
X44839Y31423D01*
X44849Y31500D01*
X44839Y31577D01*
X44809Y31650D01*
X44762Y31712D01*
X44744Y31725D01*
Y31775D01*
X44762Y31788D01*
X44809Y31850D01*
X44839Y31923D01*
X44849Y32000D01*
X44839Y32077D01*
X44809Y32150D01*
X44762Y32212D01*
X44744Y32225D01*
Y32275D01*
X44762Y32288D01*
X44809Y32350D01*
X44839Y32423D01*
X44849Y32500D01*
X44839Y32577D01*
X44809Y32650D01*
X44762Y32712D01*
X44744Y32725D01*
Y32775D01*
X44762Y32788D01*
X44809Y32850D01*
X44839Y32923D01*
X44849Y33000D01*
X44839Y33077D01*
X44809Y33150D01*
X44762Y33212D01*
X44700Y33259D01*
X44679Y33268D01*
X44669Y33317D01*
X45179Y33827D01*
X45459D01*
X45486Y33777D01*
X45471Y33700D01*
X45488Y33612D01*
X45538Y33538D01*
X45612Y33488D01*
X45700Y33471D01*
X45788Y33488D01*
X45801Y33497D01*
X45845Y33473D01*
Y32890D01*
X46255D01*
Y33827D01*
X46345D01*
Y32890D01*
X46755D01*
Y33827D01*
X46845D01*
Y32890D01*
X47255D01*
Y33827D01*
X47345D01*
Y32890D01*
D02*
G37*
G36*
X43778Y32619D02*
X43761Y32577D01*
X43751Y32500D01*
X43761Y32423D01*
X43791Y32350D01*
X43838Y32288D01*
X43856Y32275D01*
Y32225D01*
X43838Y32212D01*
X43791Y32150D01*
X43761Y32077D01*
X43751Y32000D01*
X43761Y31923D01*
X43764Y31916D01*
X43702Y31854D01*
X43433D01*
Y32104D01*
Y32419D01*
Y32619D01*
X43477Y32642D01*
X43502Y32626D01*
X43600Y32606D01*
X43698Y32626D01*
X43738Y32652D01*
X43778Y32619D01*
D02*
G37*
G36*
X48162Y30864D02*
X45399Y28101D01*
X45368Y28055D01*
X45357Y28000D01*
X45357Y28000D01*
Y27945D01*
X45168D01*
X45147Y27995D01*
X47896Y30744D01*
X47896Y30744D01*
X47927Y30790D01*
X47938Y30845D01*
X47938Y30845D01*
Y30940D01*
X48162D01*
Y30864D01*
D02*
G37*
G36*
X47638Y30890D02*
X44660Y27912D01*
X44603Y27935D01*
X44601Y27935D01*
X44589Y27987D01*
X44606Y27999D01*
X47547Y30940D01*
X47618D01*
X47638Y30890D01*
D02*
G37*
G36*
X40347Y29487D02*
Y27914D01*
X40301Y27895D01*
X40218Y27832D01*
X40168Y27767D01*
X40118Y27784D01*
Y28560D01*
X40106Y28622D01*
X40071Y28675D01*
X38626Y30120D01*
X38646Y30170D01*
X39390D01*
Y30373D01*
X39440Y30394D01*
X40347Y29487D01*
D02*
G37*
G36*
X40867Y29999D02*
X40867Y29999D01*
X40913Y29968D01*
X40968Y29957D01*
X40968Y29957D01*
X42961D01*
X42966Y29956D01*
X43391D01*
X43391Y29956D01*
X43396Y29957D01*
X43650D01*
X43650Y29957D01*
X43705Y29968D01*
X43751Y29999D01*
X43966Y30214D01*
X43973Y30211D01*
X44050Y30201D01*
X44127Y30211D01*
X44200Y30241D01*
X44262Y30288D01*
X44275Y30306D01*
X44325D01*
X44338Y30288D01*
X44348Y30281D01*
X44351Y30219D01*
X41899Y27767D01*
X41895Y27760D01*
X41879Y27757D01*
X41836Y27762D01*
X41782Y27832D01*
X41699Y27895D01*
X41653Y27914D01*
Y28833D01*
X41641Y28891D01*
X41608Y28941D01*
X39591Y30958D01*
X39541Y30991D01*
X39483Y31003D01*
X39390D01*
Y31217D01*
X39649D01*
X40867Y29999D01*
D02*
G37*
G36*
X41347Y28769D02*
Y27914D01*
X41301Y27895D01*
X41218Y27832D01*
X41155Y27749D01*
X41115Y27653D01*
X41101Y27550D01*
X41115Y27447D01*
X41155Y27351D01*
X41218Y27268D01*
X41301Y27205D01*
X41397Y27165D01*
X41500Y27151D01*
X41603Y27165D01*
X41699Y27205D01*
X41782Y27268D01*
X41807Y27301D01*
X41857Y27284D01*
Y27050D01*
X41857Y27050D01*
X41827Y27013D01*
X40168D01*
X40118Y27062D01*
Y27316D01*
X40168Y27333D01*
X40218Y27268D01*
X40301Y27205D01*
X40397Y27165D01*
X40500Y27151D01*
X40603Y27165D01*
X40699Y27205D01*
X40782Y27268D01*
X40845Y27351D01*
X40885Y27447D01*
X40899Y27550D01*
X40885Y27653D01*
X40845Y27749D01*
X40782Y27832D01*
X40699Y27895D01*
X40653Y27914D01*
Y29398D01*
X40699Y29417D01*
X41347Y28769D01*
D02*
G37*
%LPC*%
G36*
X52950Y38999D02*
X52847Y38985D01*
X52751Y38945D01*
X52668Y38882D01*
X52605Y38799D01*
X52565Y38703D01*
X52551Y38600D01*
X52565Y38497D01*
X52605Y38401D01*
X52668Y38318D01*
X52751Y38255D01*
X52847Y38215D01*
X52950Y38201D01*
X53053Y38215D01*
X53149Y38255D01*
X53232Y38318D01*
X53295Y38401D01*
X53335Y38497D01*
X53349Y38600D01*
X53335Y38703D01*
X53295Y38799D01*
X53232Y38882D01*
X53149Y38945D01*
X53053Y38985D01*
X52950Y38999D01*
D02*
G37*
G36*
X51950D02*
X51847Y38985D01*
X51751Y38945D01*
X51668Y38882D01*
X51605Y38799D01*
X51565Y38703D01*
X51551Y38600D01*
X51565Y38497D01*
X51605Y38401D01*
X51668Y38318D01*
X51751Y38255D01*
X51847Y38215D01*
X51950Y38201D01*
X52053Y38215D01*
X52149Y38255D01*
X52232Y38318D01*
X52295Y38401D01*
X52335Y38497D01*
X52349Y38600D01*
X52335Y38703D01*
X52295Y38799D01*
X52232Y38882D01*
X52149Y38945D01*
X52053Y38985D01*
X51950Y38999D01*
D02*
G37*
G36*
X50950D02*
X50847Y38985D01*
X50751Y38945D01*
X50668Y38882D01*
X50605Y38799D01*
X50565Y38703D01*
X50551Y38600D01*
X50565Y38497D01*
X50605Y38401D01*
X50668Y38318D01*
X50751Y38255D01*
X50847Y38215D01*
X50950Y38201D01*
X51053Y38215D01*
X51149Y38255D01*
X51232Y38318D01*
X51295Y38401D01*
X51335Y38497D01*
X51349Y38600D01*
X51335Y38703D01*
X51295Y38799D01*
X51232Y38882D01*
X51149Y38945D01*
X51053Y38985D01*
X50950Y38999D01*
D02*
G37*
G36*
X49950D02*
X49847Y38985D01*
X49751Y38945D01*
X49668Y38882D01*
X49605Y38799D01*
X49565Y38703D01*
X49551Y38600D01*
X49565Y38497D01*
X49605Y38401D01*
X49668Y38318D01*
X49751Y38255D01*
X49847Y38215D01*
X49950Y38201D01*
X50053Y38215D01*
X50149Y38255D01*
X50232Y38318D01*
X50295Y38401D01*
X50335Y38497D01*
X50349Y38600D01*
X50335Y38703D01*
X50295Y38799D01*
X50232Y38882D01*
X50149Y38945D01*
X50053Y38985D01*
X49950Y38999D01*
D02*
G37*
G36*
X46017D02*
X45913Y38985D01*
X45817Y38945D01*
X45735Y38882D01*
X45671Y38799D01*
X45632Y38703D01*
X45618Y38600D01*
X45632Y38497D01*
X45671Y38401D01*
X45735Y38318D01*
X45817Y38255D01*
X45913Y38215D01*
X46017Y38201D01*
X46120Y38215D01*
X46216Y38255D01*
X46299Y38318D01*
X46362Y38401D01*
X46402Y38497D01*
X46415Y38600D01*
X46402Y38703D01*
X46362Y38799D01*
X46299Y38882D01*
X46216Y38945D01*
X46120Y38985D01*
X46017Y38999D01*
D02*
G37*
G36*
X45017D02*
X44913Y38985D01*
X44817Y38945D01*
X44735Y38882D01*
X44671Y38799D01*
X44632Y38703D01*
X44618Y38600D01*
X44632Y38497D01*
X44671Y38401D01*
X44735Y38318D01*
X44817Y38255D01*
X44913Y38215D01*
X45017Y38201D01*
X45120Y38215D01*
X45216Y38255D01*
X45299Y38318D01*
X45362Y38401D01*
X45402Y38497D01*
X45415Y38600D01*
X45402Y38703D01*
X45362Y38799D01*
X45299Y38882D01*
X45216Y38945D01*
X45120Y38985D01*
X45017Y38999D01*
D02*
G37*
G36*
X44017D02*
X43913Y38985D01*
X43817Y38945D01*
X43735Y38882D01*
X43671Y38799D01*
X43632Y38703D01*
X43618Y38600D01*
X43632Y38497D01*
X43671Y38401D01*
X43735Y38318D01*
X43817Y38255D01*
X43913Y38215D01*
X44017Y38201D01*
X44120Y38215D01*
X44216Y38255D01*
X44299Y38318D01*
X44362Y38401D01*
X44402Y38497D01*
X44415Y38600D01*
X44402Y38703D01*
X44362Y38799D01*
X44299Y38882D01*
X44216Y38945D01*
X44120Y38985D01*
X44017Y38999D01*
D02*
G37*
G36*
X43017D02*
X42913Y38985D01*
X42817Y38945D01*
X42735Y38882D01*
X42671Y38799D01*
X42632Y38703D01*
X42618Y38600D01*
X42632Y38497D01*
X42671Y38401D01*
X42735Y38318D01*
X42817Y38255D01*
X42913Y38215D01*
X43017Y38201D01*
X43120Y38215D01*
X43216Y38255D01*
X43299Y38318D01*
X43362Y38401D01*
X43402Y38497D01*
X43415Y38600D01*
X43402Y38703D01*
X43362Y38799D01*
X43299Y38882D01*
X43216Y38945D01*
X43120Y38985D01*
X43017Y38999D01*
D02*
G37*
G36*
X39083D02*
X38980Y38985D01*
X38884Y38945D01*
X38801Y38882D01*
X38738Y38799D01*
X38698Y38703D01*
X38685Y38600D01*
X38698Y38497D01*
X38738Y38401D01*
X38801Y38318D01*
X38884Y38255D01*
X38980Y38215D01*
X39083Y38201D01*
X39187Y38215D01*
X39283Y38255D01*
X39365Y38318D01*
X39429Y38401D01*
X39468Y38497D01*
X39482Y38600D01*
X39468Y38703D01*
X39429Y38799D01*
X39365Y38882D01*
X39283Y38945D01*
X39187Y38985D01*
X39083Y38999D01*
D02*
G37*
G36*
X38083D02*
X37980Y38985D01*
X37884Y38945D01*
X37801Y38882D01*
X37738Y38799D01*
X37698Y38703D01*
X37685Y38600D01*
X37698Y38497D01*
X37738Y38401D01*
X37801Y38318D01*
X37884Y38255D01*
X37980Y38215D01*
X38083Y38201D01*
X38187Y38215D01*
X38283Y38255D01*
X38365Y38318D01*
X38429Y38401D01*
X38468Y38497D01*
X38482Y38600D01*
X38468Y38703D01*
X38429Y38799D01*
X38365Y38882D01*
X38283Y38945D01*
X38187Y38985D01*
X38083Y38999D01*
D02*
G37*
G36*
X37083D02*
X36980Y38985D01*
X36884Y38945D01*
X36801Y38882D01*
X36738Y38799D01*
X36698Y38703D01*
X36685Y38600D01*
X36698Y38497D01*
X36738Y38401D01*
X36801Y38318D01*
X36884Y38255D01*
X36980Y38215D01*
X37083Y38201D01*
X37187Y38215D01*
X37283Y38255D01*
X37365Y38318D01*
X37429Y38401D01*
X37468Y38497D01*
X37482Y38600D01*
X37468Y38703D01*
X37429Y38799D01*
X37365Y38882D01*
X37283Y38945D01*
X37187Y38985D01*
X37083Y38999D01*
D02*
G37*
G36*
X36083D02*
X35980Y38985D01*
X35884Y38945D01*
X35801Y38882D01*
X35738Y38799D01*
X35698Y38703D01*
X35685Y38600D01*
X35698Y38497D01*
X35738Y38401D01*
X35801Y38318D01*
X35884Y38255D01*
X35980Y38215D01*
X36083Y38201D01*
X36187Y38215D01*
X36283Y38255D01*
X36365Y38318D01*
X36429Y38401D01*
X36468Y38497D01*
X36482Y38600D01*
X36468Y38703D01*
X36429Y38799D01*
X36365Y38882D01*
X36283Y38945D01*
X36187Y38985D01*
X36083Y38999D01*
D02*
G37*
G36*
X32150D02*
X32047Y38985D01*
X31951Y38945D01*
X31868Y38882D01*
X31805Y38799D01*
X31765Y38703D01*
X31751Y38600D01*
X31765Y38497D01*
X31805Y38401D01*
X31868Y38318D01*
X31951Y38255D01*
X32047Y38215D01*
X32150Y38201D01*
X32253Y38215D01*
X32349Y38255D01*
X32432Y38318D01*
X32495Y38401D01*
X32535Y38497D01*
X32549Y38600D01*
X32535Y38703D01*
X32495Y38799D01*
X32432Y38882D01*
X32349Y38945D01*
X32253Y38985D01*
X32150Y38999D01*
D02*
G37*
G36*
X31150D02*
X31047Y38985D01*
X30951Y38945D01*
X30868Y38882D01*
X30805Y38799D01*
X30765Y38703D01*
X30751Y38600D01*
X30765Y38497D01*
X30805Y38401D01*
X30868Y38318D01*
X30951Y38255D01*
X31047Y38215D01*
X31150Y38201D01*
X31253Y38215D01*
X31349Y38255D01*
X31432Y38318D01*
X31495Y38401D01*
X31535Y38497D01*
X31549Y38600D01*
X31535Y38703D01*
X31495Y38799D01*
X31432Y38882D01*
X31349Y38945D01*
X31253Y38985D01*
X31150Y38999D01*
D02*
G37*
G36*
X30150D02*
X30047Y38985D01*
X29951Y38945D01*
X29868Y38882D01*
X29805Y38799D01*
X29765Y38703D01*
X29751Y38600D01*
X29765Y38497D01*
X29805Y38401D01*
X29868Y38318D01*
X29951Y38255D01*
X30047Y38215D01*
X30150Y38201D01*
X30253Y38215D01*
X30349Y38255D01*
X30432Y38318D01*
X30495Y38401D01*
X30535Y38497D01*
X30549Y38600D01*
X30535Y38703D01*
X30495Y38799D01*
X30432Y38882D01*
X30349Y38945D01*
X30253Y38985D01*
X30150Y38999D01*
D02*
G37*
G36*
X29150D02*
X29047Y38985D01*
X28951Y38945D01*
X28868Y38882D01*
X28805Y38799D01*
X28765Y38703D01*
X28751Y38600D01*
X28765Y38497D01*
X28805Y38401D01*
X28868Y38318D01*
X28951Y38255D01*
X29047Y38215D01*
X29150Y38201D01*
X29253Y38215D01*
X29349Y38255D01*
X29432Y38318D01*
X29495Y38401D01*
X29535Y38497D01*
X29549Y38600D01*
X29535Y38703D01*
X29495Y38799D01*
X29432Y38882D01*
X29349Y38945D01*
X29253Y38985D01*
X29150Y38999D01*
D02*
G37*
G36*
X34776Y37491D02*
X34450D01*
Y37204D01*
X34776D01*
Y37491D01*
D02*
G37*
G36*
X41709D02*
X41383D01*
Y37204D01*
X41709D01*
Y37491D01*
D02*
G37*
G36*
X48642D02*
X48317D01*
Y37204D01*
X48642D01*
Y37491D01*
D02*
G37*
G36*
X48217D02*
X47891D01*
Y37204D01*
X48217D01*
Y37491D01*
D02*
G37*
G36*
X41283D02*
X40958D01*
Y37204D01*
X41283D01*
Y37491D01*
D02*
G37*
G36*
X34350D02*
X34024D01*
Y37204D01*
X34350D01*
Y37491D01*
D02*
G37*
G36*
X55150D02*
X54824D01*
Y37204D01*
X55150D01*
Y37491D01*
D02*
G37*
G36*
X51355Y37885D02*
X50950D01*
Y37185D01*
X51355D01*
Y37885D01*
D02*
G37*
G36*
X50850D02*
X50445D01*
Y37185D01*
X50850D01*
Y37885D01*
D02*
G37*
G36*
X30555D02*
X30150D01*
Y37185D01*
X30555D01*
Y37885D01*
D02*
G37*
G36*
X30050D02*
X29645D01*
Y37185D01*
X30050D01*
Y37885D01*
D02*
G37*
G36*
X37488D02*
X37083D01*
Y37185D01*
X37488D01*
Y37885D01*
D02*
G37*
G36*
X36983D02*
X36578D01*
Y37185D01*
X36983D01*
Y37885D01*
D02*
G37*
G36*
X44422D02*
X44017D01*
Y37185D01*
X44422D01*
Y37885D01*
D02*
G37*
G36*
X43917D02*
X43512D01*
Y37185D01*
X43917D01*
Y37885D01*
D02*
G37*
G36*
X47635Y37488D02*
X47467D01*
Y37050D01*
X47635D01*
Y37488D01*
D02*
G37*
G36*
X40701D02*
X40533D01*
Y37050D01*
X40701D01*
Y37488D01*
D02*
G37*
G36*
X33768D02*
X33600D01*
Y37050D01*
X33768D01*
Y37488D01*
D02*
G37*
G36*
X54568D02*
X54400D01*
Y37050D01*
X54568D01*
Y37488D01*
D02*
G37*
G36*
X52260Y37296D02*
X52219Y37291D01*
X52133Y37256D01*
X52060Y37200D01*
X52004Y37127D01*
X51969Y37041D01*
X51964Y37000D01*
X52260D01*
Y37296D01*
D02*
G37*
G36*
Y36900D02*
X51964D01*
X51969Y36859D01*
X52004Y36773D01*
X52060Y36700D01*
X52133Y36644D01*
X52219Y36609D01*
X52260Y36604D01*
Y36900D01*
D02*
G37*
G36*
X47635Y36950D02*
X47467D01*
Y36512D01*
X47635D01*
Y36950D01*
D02*
G37*
G36*
X40701Y36950D02*
X40533D01*
Y36512D01*
X40701D01*
Y36950D01*
D02*
G37*
G36*
X51355Y37085D02*
X50950D01*
Y36385D01*
X51355D01*
Y37085D01*
D02*
G37*
G36*
X50850D02*
X50445D01*
Y36385D01*
X50850D01*
Y37085D01*
D02*
G37*
G36*
X44422Y37085D02*
X44017D01*
Y36385D01*
X44422D01*
Y37085D01*
D02*
G37*
G36*
X43917D02*
X43512D01*
Y36385D01*
X43917D01*
Y37085D01*
D02*
G37*
G36*
X37488Y37085D02*
X37083D01*
Y36385D01*
X37488D01*
Y37085D01*
D02*
G37*
G36*
X36983D02*
X36578D01*
Y36385D01*
X36983D01*
Y37085D01*
D02*
G37*
G36*
X30555Y37085D02*
X30150D01*
Y36385D01*
X30555D01*
Y37085D01*
D02*
G37*
G36*
X30050D02*
X29645D01*
Y36385D01*
X30050D01*
Y37085D01*
D02*
G37*
G36*
X30555Y35715D02*
X29645D01*
Y35195D01*
X29595Y35174D01*
X29538Y35212D01*
X29450Y35229D01*
X29362Y35212D01*
X29288Y35162D01*
X29238Y35088D01*
X29221Y35000D01*
X29238Y34912D01*
X29288Y34838D01*
X29362Y34788D01*
X29450Y34771D01*
X29538Y34788D01*
X29595Y34826D01*
X29645Y34805D01*
Y34215D01*
X30555D01*
Y35715D01*
D02*
G37*
G36*
X29950Y33553D02*
Y32417D01*
X31086D01*
X31075Y32553D01*
X31031Y32735D01*
X30960Y32907D01*
X30862Y33066D01*
X30741Y33208D01*
X30599Y33330D01*
X30440Y33427D01*
X30268Y33499D01*
X30086Y33542D01*
X29950Y33553D01*
D02*
G37*
G36*
X29850D02*
X29714Y33542D01*
X29532Y33499D01*
X29360Y33427D01*
X29201Y33330D01*
X29059Y33208D01*
X28938Y33066D01*
X28840Y32907D01*
X28769Y32735D01*
X28725Y32553D01*
X28714Y32417D01*
X29850D01*
Y33553D01*
D02*
G37*
G36*
X31086Y32317D02*
X29950D01*
Y31182D01*
X30086Y31192D01*
X30268Y31236D01*
X30440Y31307D01*
X30599Y31405D01*
X30741Y31526D01*
X30862Y31668D01*
X30960Y31827D01*
X31031Y32000D01*
X31075Y32181D01*
X31086Y32317D01*
D02*
G37*
G36*
X29850D02*
X28714D01*
X28725Y32181D01*
X28769Y32000D01*
X28840Y31827D01*
X28938Y31668D01*
X29059Y31526D01*
X29201Y31405D01*
X29360Y31307D01*
X29532Y31236D01*
X29714Y31192D01*
X29850Y31182D01*
Y32317D01*
D02*
G37*
G36*
X48372Y30085D02*
X48144D01*
Y29622D01*
X48372D01*
Y30085D01*
D02*
G37*
G36*
X31086Y30719D02*
X28714D01*
Y28347D01*
X31086D01*
Y30719D01*
D02*
G37*
G36*
X51376Y28446D02*
X51050D01*
Y28159D01*
X51376D01*
Y28446D01*
D02*
G37*
G36*
X50950D02*
X50624D01*
Y28159D01*
X50950D01*
Y28446D01*
D02*
G37*
G36*
X53195Y28776D02*
X52950D01*
Y27980D01*
X53195D01*
Y28776D01*
D02*
G37*
G36*
X52850D02*
X52605D01*
Y27980D01*
X52850D01*
Y28776D01*
D02*
G37*
G36*
X39450Y27942D02*
X39397Y27935D01*
X39301Y27895D01*
X39218Y27832D01*
X39155Y27749D01*
X39115Y27653D01*
X39108Y27600D01*
X39450D01*
Y27942D01*
D02*
G37*
G36*
Y27500D02*
X39108D01*
X39115Y27447D01*
X39155Y27351D01*
X39218Y27268D01*
X39301Y27205D01*
X39397Y27165D01*
X39450Y27158D01*
Y27500D01*
D02*
G37*
G36*
X38500Y27949D02*
X38397Y27935D01*
X38301Y27895D01*
X38218Y27832D01*
X38155Y27749D01*
X38115Y27653D01*
X38101Y27550D01*
X38115Y27447D01*
X38155Y27351D01*
X38218Y27268D01*
X38301Y27205D01*
X38397Y27165D01*
X38500Y27151D01*
X38603Y27165D01*
X38699Y27205D01*
X38782Y27268D01*
X38845Y27351D01*
X38885Y27447D01*
X38899Y27550D01*
X38885Y27653D01*
X38845Y27749D01*
X38782Y27832D01*
X38699Y27895D01*
X38603Y27935D01*
X38500Y27949D01*
D02*
G37*
G36*
X36500D02*
X36397Y27935D01*
X36301Y27895D01*
X36218Y27832D01*
X36155Y27749D01*
X36115Y27653D01*
X36101Y27550D01*
X36115Y27447D01*
X36155Y27351D01*
X36218Y27268D01*
X36301Y27205D01*
X36397Y27165D01*
X36500Y27151D01*
X36603Y27165D01*
X36699Y27205D01*
X36782Y27268D01*
X36845Y27351D01*
X36885Y27447D01*
X36899Y27550D01*
X36885Y27653D01*
X36845Y27749D01*
X36782Y27832D01*
X36699Y27895D01*
X36603Y27935D01*
X36500Y27949D01*
D02*
G37*
G36*
X32900Y32455D02*
X32802Y32436D01*
X32720Y32380D01*
X32664Y32298D01*
X32645Y32200D01*
X32664Y32102D01*
X32720Y32020D01*
X32782Y31978D01*
Y31910D01*
X32745D01*
Y30940D01*
X32963D01*
X32983Y30894D01*
X32392Y30303D01*
X32359Y30254D01*
X32347Y30195D01*
Y27914D01*
X32301Y27895D01*
X32218Y27832D01*
X32155Y27749D01*
X32115Y27653D01*
X32101Y27550D01*
X32115Y27447D01*
X32155Y27351D01*
X32218Y27268D01*
X32301Y27205D01*
X32397Y27165D01*
X32500Y27151D01*
X32603Y27165D01*
X32699Y27205D01*
X32782Y27268D01*
X32845Y27351D01*
X32885Y27447D01*
X32899Y27550D01*
X32885Y27653D01*
X32845Y27749D01*
X32782Y27832D01*
X32699Y27895D01*
X32653Y27914D01*
Y30132D01*
X33461Y30940D01*
X33655D01*
Y31910D01*
X33245D01*
Y31156D01*
X33201Y31112D01*
X33155Y31132D01*
Y31910D01*
X33068D01*
Y32011D01*
X33080Y32020D01*
X33135Y32102D01*
X33155Y32200D01*
X33135Y32298D01*
X33080Y32380D01*
X32998Y32436D01*
X32900Y32455D01*
D02*
G37*
G36*
X53900Y29179D02*
X53812Y29162D01*
X53738Y29112D01*
X53688Y29038D01*
X53671Y28950D01*
X53688Y28862D01*
X53712Y28826D01*
X53685Y28776D01*
X53605D01*
Y27084D01*
X54195D01*
Y28776D01*
X54115D01*
X54088Y28826D01*
X54112Y28862D01*
X54129Y28950D01*
X54112Y29038D01*
X54062Y29112D01*
X53988Y29162D01*
X53900Y29179D01*
D02*
G37*
G36*
X53195Y27880D02*
X52950D01*
Y27084D01*
X53195D01*
Y27880D01*
D02*
G37*
G36*
X52850D02*
X52605D01*
Y27084D01*
X52850D01*
Y27880D01*
D02*
G37*
G36*
X49730Y27841D02*
X48270D01*
Y26815D01*
X49730D01*
Y27841D01*
D02*
G37*
%LPD*%
D24*
X30100Y34965D02*
D03*
Y37135D02*
D03*
X37033Y34965D02*
D03*
Y37135D02*
D03*
X43967Y34965D02*
D03*
Y37135D02*
D03*
X50900Y34965D02*
D03*
Y37135D02*
D03*
D34*
X53900Y32214D02*
D03*
D35*
X54900Y27930D02*
D03*
X53900D02*
D03*
X52900D02*
D03*
D36*
X39000Y30340D02*
D03*
Y30590D02*
D03*
Y30850D02*
D03*
Y31100D02*
D03*
Y31360D02*
D03*
Y31620D02*
D03*
Y31870D02*
D03*
Y32130D02*
D03*
Y32380D02*
D03*
Y32640D02*
D03*
Y32900D02*
D03*
Y33150D02*
D03*
Y33410D02*
D03*
Y33660D02*
D03*
X41300D02*
D03*
Y33410D02*
D03*
Y33150D02*
D03*
Y32900D02*
D03*
Y32640D02*
D03*
Y32380D02*
D03*
Y32130D02*
D03*
Y31870D02*
D03*
Y31620D02*
D03*
Y31360D02*
D03*
Y31100D02*
D03*
Y30850D02*
D03*
Y30590D02*
D03*
Y30340D02*
D03*
D37*
X49906Y29572D02*
D03*
X49000D02*
D03*
X48094D02*
D03*
D38*
X49000Y27328D02*
D03*
D39*
X51000Y29204D02*
D03*
Y28496D02*
D03*
X56600Y29704D02*
D03*
Y28996D02*
D03*
X51000Y29796D02*
D03*
Y30504D02*
D03*
X38150Y30996D02*
D03*
Y31704D02*
D03*
X34400Y35654D02*
D03*
Y34946D02*
D03*
X34400Y36446D02*
D03*
Y37154D02*
D03*
X41333Y35654D02*
D03*
Y34946D02*
D03*
X41333Y36446D02*
D03*
Y37154D02*
D03*
X48267Y35654D02*
D03*
Y34946D02*
D03*
X48267Y36446D02*
D03*
Y37154D02*
D03*
X55200Y35654D02*
D03*
Y34946D02*
D03*
X55200Y36446D02*
D03*
Y37154D02*
D03*
D40*
X37496Y30350D02*
D03*
X38204D02*
D03*
D41*
X42615Y30328D02*
D03*
Y30643D02*
D03*
Y30957D02*
D03*
Y31272D02*
D03*
X43185D02*
D03*
Y30957D02*
D03*
Y30643D02*
D03*
Y30328D02*
D03*
X42615Y31978D02*
D03*
Y32293D02*
D03*
Y32607D02*
D03*
Y32922D02*
D03*
X43185D02*
D03*
Y32607D02*
D03*
Y32293D02*
D03*
Y31978D02*
D03*
D42*
X32050Y35051D02*
D03*
X32550D02*
D03*
X33050D02*
D03*
X33550D02*
D03*
Y37000D02*
D03*
X33050D02*
D03*
X32550D02*
D03*
X32050D02*
D03*
X38983Y35051D02*
D03*
X39483D02*
D03*
X39983D02*
D03*
X40483D02*
D03*
Y37000D02*
D03*
X39983D02*
D03*
X39483D02*
D03*
X38983D02*
D03*
X45917Y35051D02*
D03*
X46417D02*
D03*
X46917D02*
D03*
X47417D02*
D03*
Y37000D02*
D03*
X46917D02*
D03*
X46417D02*
D03*
X45917D02*
D03*
X52850Y35051D02*
D03*
X53350D02*
D03*
X53850D02*
D03*
X54350D02*
D03*
Y37000D02*
D03*
X53850D02*
D03*
X53350D02*
D03*
X52850D02*
D03*
D43*
X32800Y36026D02*
D03*
X39733D02*
D03*
X46667D02*
D03*
X53600D02*
D03*
D44*
X36450Y31425D02*
D03*
X35950D02*
D03*
X35450D02*
D03*
X34950D02*
D03*
X34450D02*
D03*
X33950D02*
D03*
X33450D02*
D03*
X32950D02*
D03*
Y33375D02*
D03*
X33450D02*
D03*
X33950D02*
D03*
X34450D02*
D03*
X34950D02*
D03*
X35450D02*
D03*
X35950D02*
D03*
X36450D02*
D03*
X49550Y31425D02*
D03*
X49050D02*
D03*
X48550D02*
D03*
X48050D02*
D03*
X47550D02*
D03*
X47050D02*
D03*
X46550D02*
D03*
X46050D02*
D03*
Y33375D02*
D03*
X46550D02*
D03*
X47050D02*
D03*
X47550D02*
D03*
X48050D02*
D03*
X48550D02*
D03*
X49050D02*
D03*
X49550D02*
D03*
D45*
X55600Y37492D02*
Y39325D01*
X56596Y29700D02*
X56600Y29704D01*
X55750Y29700D02*
X56596D01*
X55204Y36450D02*
X55700D01*
X55200Y36446D02*
X55204Y36450D01*
X55600Y37492D02*
X57100Y35992D01*
X42200Y26850D02*
X46189D01*
X40100D02*
X42200D01*
X40600Y33660D02*
X41300D01*
X40600Y33650D02*
Y33660D01*
X37450Y30350D02*
Y31000D01*
Y30350D02*
X37496D01*
X49903Y29575D02*
X49906Y29572D01*
X49903Y29575D02*
Y30197D01*
X49900Y30200D02*
X49903Y30197D01*
X51000Y29204D02*
Y29796D01*
Y29204D02*
X51000Y29204D01*
X49906Y29572D02*
X50737D01*
X50961Y29796D01*
X51000D01*
X53900Y27930D02*
Y28950D01*
X45700Y33700D02*
X46005D01*
X46050Y33655D01*
Y33375D02*
Y33655D01*
X32950Y33375D02*
Y34000D01*
X34396Y36450D02*
X34400Y36446D01*
X33900Y36450D02*
X34396D01*
X34400Y35654D02*
Y36446D01*
X34400Y36446D02*
X34400Y36446D01*
X41333Y36446D02*
X41338Y36450D01*
X41850D01*
X41333Y35654D02*
Y36446D01*
X41333Y36446D02*
X41333Y36446D01*
X48267Y36446D02*
X48271Y36450D01*
X48750D01*
X48267Y35654D02*
Y36446D01*
X48267Y36446D02*
X48267Y36446D01*
X55200Y35654D02*
X55200Y35654D01*
X55200Y35654D02*
Y36446D01*
X52849Y35050D02*
X52850Y35051D01*
X52550Y35050D02*
X52849D01*
X53350Y37500D02*
X53500Y37650D01*
X53350Y37000D02*
Y37500D01*
X46417Y37000D02*
Y37524D01*
X46559Y37667D01*
X46579D01*
X45915Y35050D02*
X45917Y35051D01*
X45500Y35050D02*
X45915D01*
X32550Y37500D02*
X32700Y37650D01*
X32550Y37000D02*
Y37500D01*
X32049Y35050D02*
X32050Y35051D01*
X31700Y35050D02*
X32049D01*
X39483Y37433D02*
X39650Y37600D01*
X39483Y37000D02*
Y37433D01*
X38650Y35050D02*
X38651Y35051D01*
X38983D01*
X50900Y34965D02*
X50935Y35000D01*
X51550D01*
X43950Y34950D02*
Y35122D01*
X43672Y35400D02*
X43950Y35122D01*
X43350Y35400D02*
X43672D01*
X43965Y34965D02*
X43967D01*
X43950Y34950D02*
X43965Y34965D01*
X37033D02*
X37048Y34950D01*
X37650D01*
X30065Y35000D02*
X30100Y34965D01*
X29450Y35000D02*
X30065D01*
X49550Y32550D02*
Y33375D01*
X48050Y31425D02*
X48075Y31450D01*
Y32175D01*
X48100Y32200D01*
X36450Y32785D02*
Y33375D01*
X36400Y32735D02*
X36450Y32785D01*
X36400Y32700D02*
Y32735D01*
X34950Y31425D02*
Y31705D01*
X35320Y32075D01*
X35375D01*
X35400Y32100D01*
X36450Y30658D02*
X37193Y29914D01*
X36450Y31425D02*
X36450Y31425D01*
X37193Y29914D02*
X37808D01*
X36450Y30658D02*
Y31425D01*
X37808Y29914D02*
X38204Y30311D01*
Y30350D01*
X38200Y26850D02*
X40100D01*
X38204Y30311D02*
X39955Y28560D01*
Y26995D02*
Y28560D01*
Y26995D02*
X40100Y26850D01*
X56600Y28996D02*
X56639D01*
X57100Y29456D01*
Y35992D01*
X37500Y27550D02*
X38200Y26850D01*
X49000Y29336D02*
Y29572D01*
X48883Y29219D02*
X49000Y29336D01*
X48558Y29219D02*
X48883D01*
X46189Y26850D02*
X48558Y29219D01*
X49550Y31145D02*
Y31425D01*
Y31145D02*
X49595Y31100D01*
X49892D01*
X50488Y30504D01*
X51000D01*
X49000Y29572D02*
Y30595D01*
X49550Y31145D01*
X33950Y31425D02*
Y32200D01*
X46050Y31425D02*
Y32250D01*
X38254Y31100D02*
X39000D01*
X38150Y30996D02*
X38254Y31100D01*
X38150Y31704D02*
X38579D01*
X38654Y31630D01*
X38990D01*
X39000Y31620D01*
X37496Y30350D02*
Y30389D01*
X37926Y30819D01*
X37974D01*
X38150Y30996D01*
D46*
X42000Y27050D02*
Y27666D01*
Y27050D02*
X42200Y26850D01*
X42000Y27666D02*
X44518Y30183D01*
Y30468D01*
X44550Y30500D01*
X43596Y30646D02*
X43600Y30650D01*
X43185Y30643D02*
X43189Y30646D01*
X43596D01*
X47800Y32321D02*
X48050Y32571D01*
X47795Y31858D02*
X47800Y31863D01*
Y32321D01*
X48050Y32571D02*
Y33375D01*
X47795Y30845D02*
Y31858D01*
X44500Y27550D02*
X47795Y30845D01*
X48550Y32700D02*
Y33375D01*
X34695Y31858D02*
X34950Y32113D01*
Y33375D01*
X34695Y30329D02*
Y31858D01*
X35450Y32600D02*
Y33375D01*
X42500Y27550D02*
X43050Y28100D01*
X43505D02*
X46550Y31145D01*
X43050Y28100D02*
X43505D01*
X43500Y27550D02*
X44050Y28100D01*
X44505D02*
X47550Y31145D01*
X44050Y28100D02*
X44505D01*
X46917Y34781D02*
Y35051D01*
X46465Y34330D02*
X46917Y34781D01*
X44925Y34330D02*
X46465D01*
X46417Y34781D02*
Y35051D01*
X46159Y34523D02*
X46417Y34781D01*
X44864Y34523D02*
X46159D01*
X44271Y33930D02*
X44864Y34523D01*
X42363Y33930D02*
X44271D01*
X44400Y33550D02*
X45000Y34150D01*
X52719D01*
X44500Y33350D02*
X45120Y33970D01*
X42438Y33750D02*
X44345D01*
X42492Y33550D02*
X44400D01*
X42577Y33350D02*
X44500D01*
X45120Y33970D02*
X53039D01*
X44345Y33750D02*
X44925Y34330D01*
X41843Y33410D02*
X42363Y33930D01*
X41300Y33410D02*
X41843D01*
X41842Y32900D02*
X42492Y33550D01*
X41300Y33150D02*
X41838D01*
X42438Y33750D01*
X41867Y32640D02*
X42577Y33350D01*
X41300Y32900D02*
X41842D01*
X42355Y32874D02*
X42566D01*
X41730Y31492D02*
Y32249D01*
X42355Y32874D01*
X42566D02*
X42663Y32971D01*
X41300Y32640D02*
X41867D01*
X53039Y33970D02*
X53850Y34781D01*
X52719Y34150D02*
X53350Y34781D01*
Y35051D01*
X42364Y32607D02*
X42615D01*
X42091Y31759D02*
Y32335D01*
X42364Y32607D01*
X42919Y33151D02*
X43899D01*
X42739Y32971D02*
X42919Y33151D01*
X42663Y32971D02*
X42739D01*
X53850Y34781D02*
Y35051D01*
X43214Y32894D02*
X43567D01*
X43600Y32861D01*
X43899Y33151D02*
X44050Y33000D01*
X43185Y32607D02*
Y32922D01*
X32550Y35051D02*
X32600Y35001D01*
Y34797D02*
X33497Y33900D01*
X32600Y34797D02*
Y35001D01*
X33751Y34080D02*
X36688D01*
X37618Y33150D01*
X33497Y33900D02*
X36613D01*
X33050Y34781D02*
X33751Y34080D01*
X37618Y33150D02*
X39000D01*
X33050Y34781D02*
Y35051D01*
X37613Y32900D02*
X39000D01*
X36613Y33900D02*
X37613Y32900D01*
X39000Y33410D02*
X39010Y33420D01*
X39346D01*
X39983Y34057D01*
Y35051D01*
X39000Y33660D02*
X39220D01*
X39230Y33670D01*
Y34070D01*
X39483Y34323D01*
Y35051D01*
X34450Y32600D02*
Y33375D01*
X32925Y31450D02*
Y32175D01*
X32900Y32200D02*
X32925Y32175D01*
Y31450D02*
X32950Y31425D01*
X47550Y32700D02*
Y33375D01*
X47050Y31425D02*
Y32250D01*
X45500Y28000D02*
X48305Y30805D01*
X45500Y27550D02*
Y28000D01*
X48305Y30805D02*
Y31868D01*
X48387Y31950D02*
X48387D01*
X49050Y32613D02*
Y33375D01*
X48387Y31950D02*
X49050Y32613D01*
X48305Y31868D02*
X48387Y31950D01*
X47550Y31145D02*
Y31425D01*
X46550Y31145D02*
Y31425D01*
X35950Y32113D02*
Y33375D01*
X35695Y31858D02*
X35950Y32113D01*
X35695Y30329D02*
Y31858D01*
X35500Y30134D02*
X35695Y30329D01*
X35500Y27550D02*
Y30134D01*
X34500D02*
X34695Y30329D01*
X34500Y27550D02*
Y30134D01*
X34450Y31145D02*
Y31425D01*
X33500Y30195D02*
X34450Y31145D01*
X33500Y27550D02*
Y30195D01*
X40968Y30100D02*
X42965D01*
X39708Y31360D02*
X40968Y30100D01*
X43650D02*
X44050Y30500D01*
X43392Y30100D02*
X43650D01*
X43391Y30099D02*
X43392Y30100D01*
X42966Y30099D02*
X43391D01*
X41330Y31390D02*
X41628D01*
X41300Y31360D02*
X41330Y31390D01*
X41628D02*
X41730Y31492D01*
X41910Y31579D02*
X42091Y31759D01*
X41910Y31310D02*
Y31579D01*
X41700Y31100D02*
X41910Y31310D01*
X41300Y31100D02*
X41700D01*
X43185Y32922D02*
X43214Y32894D01*
X41990Y30340D02*
X42293Y30643D01*
X42100Y31050D02*
Y31492D01*
X41900Y30850D02*
X42100Y31050D01*
X41933Y30590D02*
X42300Y30957D01*
X41300Y30850D02*
X41900D01*
X41300Y30590D02*
X41933D01*
X42348Y30120D02*
X42556Y30328D01*
X42615D01*
X43185D02*
Y30643D01*
Y30957D01*
Y32293D02*
Y32607D01*
X39000Y31360D02*
X39708D01*
X42443Y32254D02*
X42576D01*
X42300Y31708D02*
Y32111D01*
X42576Y32254D02*
X42615Y32293D01*
X42300Y32111D02*
X42443Y32254D01*
X42300Y31708D02*
X42308Y31700D01*
X42311D02*
X42322Y31711D01*
X43761D01*
X42100Y31492D02*
X42308Y31700D01*
X42405Y31511D02*
X44039D01*
X42300Y31406D02*
X42405Y31511D01*
X43761Y31711D02*
X44050Y32000D01*
X42308Y31700D02*
X42311D01*
X44039Y31511D02*
X44050Y31500D01*
X42300Y30957D02*
Y31406D01*
X41300Y30340D02*
X41990D01*
X42293Y30643D02*
X42615D01*
X42300Y30957D02*
X42615D01*
X44550Y30500D02*
Y31000D01*
Y31500D01*
Y32000D01*
Y32500D01*
Y33000D01*
D47*
X54900Y27930D02*
Y28471D01*
X55424Y28996D01*
X56600D01*
D48*
X39460Y30590D02*
X40500Y29550D01*
X39000Y30590D02*
X39460D01*
X40500Y27550D02*
Y29550D01*
X41500Y27550D02*
Y28833D01*
X39483Y30850D02*
X41500Y28833D01*
X39000Y30850D02*
X39483D01*
X33450Y31145D02*
Y31425D01*
X32500Y30195D02*
X33450Y31145D01*
X32500Y27550D02*
Y30195D01*
X54418Y34946D02*
X55200D01*
X54350Y35014D02*
X54418Y34946D01*
X54350Y35014D02*
Y35051D01*
X47485Y34946D02*
X48267D01*
X47417Y35014D02*
X47485Y34946D01*
X47417Y35014D02*
Y35051D01*
X40551Y34946D02*
X41333D01*
X40483Y35014D02*
X40551Y34946D01*
X40483Y35014D02*
Y35051D01*
X33618Y34946D02*
X34400D01*
X33550Y35014D02*
X33618Y34946D01*
X33550Y35014D02*
Y35051D01*
X38204Y30350D02*
X38214Y30340D01*
X39000D01*
D49*
X52850Y37500D02*
X53950Y38600D01*
X52850Y37000D02*
Y37500D01*
X53850Y37000D02*
X53857Y37007D01*
Y37507D01*
X54950Y38600D01*
X46917Y37000D02*
X46924Y37007D01*
Y37507D01*
X48017Y38600D01*
X45917Y37500D02*
X47017Y38600D01*
X45917Y37000D02*
Y37500D01*
X39983Y37000D02*
X39990Y37007D01*
Y37507D01*
X41083Y38600D01*
X38983Y37000D02*
Y37500D01*
X40083Y38600D01*
X32050Y37000D02*
Y37500D01*
X33150Y38600D01*
X33050Y37000D02*
X33057Y37007D01*
Y37507D01*
X34150Y38600D01*
D50*
X29900Y32367D02*
D03*
D51*
Y29533D02*
D03*
D52*
X41083Y38600D02*
D03*
X34150D02*
D03*
X48017D02*
D03*
X54950D02*
D03*
X45500Y27550D02*
D03*
D53*
X40083Y38600D02*
D03*
X39083D02*
D03*
X38083D02*
D03*
X37083D02*
D03*
X36083D02*
D03*
X33150D02*
D03*
X32150D02*
D03*
X31150D02*
D03*
X30150D02*
D03*
X29150D02*
D03*
X47017D02*
D03*
X46017D02*
D03*
X45017D02*
D03*
X44017D02*
D03*
X43017D02*
D03*
X53950D02*
D03*
X52950D02*
D03*
X51950D02*
D03*
X50950D02*
D03*
X49950D02*
D03*
X32500Y27550D02*
D03*
X33500D02*
D03*
X34500D02*
D03*
X35500D02*
D03*
X36500D02*
D03*
X37500D02*
D03*
X38500D02*
D03*
X39500D02*
D03*
X40500D02*
D03*
X41500D02*
D03*
X42500D02*
D03*
X43500D02*
D03*
X44500D02*
D03*
D54*
X44050Y33000D02*
D03*
D55*
X44550D02*
D03*
X44050Y32500D02*
D03*
X44550D02*
D03*
X44050Y32000D02*
D03*
X44550D02*
D03*
X44050Y31500D02*
D03*
X44550D02*
D03*
X44050Y31000D02*
D03*
X44550D02*
D03*
X44050Y30500D02*
D03*
X44550D02*
D03*
D56*
X55600Y39325D02*
D03*
X55750Y29700D02*
D03*
X43600Y30650D02*
D03*
X48550Y32700D02*
D03*
X36400D02*
D03*
X35400Y32100D02*
D03*
X35450Y32600D02*
D03*
X43600Y32861D02*
D03*
X33950Y32200D02*
D03*
X34450Y32600D02*
D03*
X32900Y32200D02*
D03*
X47550Y32700D02*
D03*
X47050Y32250D02*
D03*
X46050D02*
D03*
X42217Y30420D02*
D03*
D57*
X52310Y36950D02*
D03*
X54574Y36300D02*
D03*
X55424Y28996D02*
D03*
D58*
X55700Y36450D02*
D03*
X40600Y33650D02*
D03*
X37450Y31000D02*
D03*
X49900Y30200D02*
D03*
X53900Y28950D02*
D03*
X45700Y33700D02*
D03*
X32950Y34000D02*
D03*
X33900Y36450D02*
D03*
X41850D02*
D03*
X48750D02*
D03*
X52550Y35050D02*
D03*
X53500Y37650D02*
D03*
X46579Y37667D02*
D03*
X45500Y35050D02*
D03*
X32700Y37650D02*
D03*
X31700Y35050D02*
D03*
X39650Y37600D02*
D03*
X38650Y35050D02*
D03*
X51550Y35000D02*
D03*
X43350Y35400D02*
D03*
X37650Y34950D02*
D03*
X29450Y35000D02*
D03*
X49550Y32550D02*
D03*
X48100Y32200D02*
D03*
X42000Y32100D02*
D03*
D59*
X54150Y36350D02*
D03*
X39650Y36150D02*
D03*
X39450Y36350D02*
D03*
X33350Y35750D02*
D03*
X33150D02*
D03*
X32950D02*
D03*
X32750D02*
D03*
X32550D02*
D03*
X32350D02*
D03*
X33350Y35950D02*
D03*
X33150D02*
D03*
X32950D02*
D03*
X32750D02*
D03*
X32550D02*
D03*
X32350D02*
D03*
X33350Y36150D02*
D03*
X33150D02*
D03*
X32950D02*
D03*
X32750D02*
D03*
X32550D02*
D03*
X32350D02*
D03*
X33350Y36350D02*
D03*
X33150D02*
D03*
X32950D02*
D03*
X32750D02*
D03*
X32550D02*
D03*
X32350D02*
D03*
X54150Y35750D02*
D03*
X53950D02*
D03*
X53750D02*
D03*
X53550D02*
D03*
X53350D02*
D03*
X53150D02*
D03*
X54150Y35950D02*
D03*
X53950D02*
D03*
X53750D02*
D03*
X53550D02*
D03*
X53350D02*
D03*
X53150D02*
D03*
X54150Y36150D02*
D03*
X53950D02*
D03*
X53750D02*
D03*
X53550D02*
D03*
X53350D02*
D03*
X53150D02*
D03*
X53950Y36350D02*
D03*
X53750D02*
D03*
X53550D02*
D03*
X53350D02*
D03*
X53150D02*
D03*
X47200Y35750D02*
D03*
X47000D02*
D03*
X46800D02*
D03*
X46600D02*
D03*
X46400D02*
D03*
X46200D02*
D03*
X47200Y35950D02*
D03*
X47000D02*
D03*
X46800D02*
D03*
X46600D02*
D03*
X46400D02*
D03*
X46200D02*
D03*
X47200Y36150D02*
D03*
X47000D02*
D03*
X46800D02*
D03*
X46600D02*
D03*
X46400D02*
D03*
X46200D02*
D03*
X47200Y36350D02*
D03*
X47000D02*
D03*
X46800D02*
D03*
X46600D02*
D03*
X46400D02*
D03*
X46200D02*
D03*
X40250Y35750D02*
D03*
X40050D02*
D03*
X39850D02*
D03*
X39650D02*
D03*
X39450D02*
D03*
X39250D02*
D03*
X40250Y35950D02*
D03*
X40050D02*
D03*
X39850D02*
D03*
X39650D02*
D03*
X39450D02*
D03*
X39250D02*
D03*
X40250Y36150D02*
D03*
X40050D02*
D03*
X39850D02*
D03*
X39450D02*
D03*
X39250D02*
D03*
X40250Y36350D02*
D03*
X40050D02*
D03*
X39850D02*
D03*
X39650D02*
D03*
X39250D02*
D03*
D60*
X56550Y27550D02*
D03*
Y38600D02*
D03*
X27550Y27550D02*
D03*
Y38600D02*
D03*
M02*
