G04*
G04 #@! TF.GenerationSoftware,Altium Limited,Altium Designer,20.1.12 (249)*
G04*
G04 Layer_Color=16711935*
%FSLAX24Y24*%
%MOIN*%
G70*
G04*
G04 #@! TF.SameCoordinates,7611F4AC-675D-4E0A-8C32-16A27ADB78BB*
G04*
G04*
G04 #@! TF.FilePolarity,Negative*
G04*
G01*
G75*
%ADD28C,0.2252*%
%ADD29R,0.2252X0.2252*%
%ADD30R,0.0671X0.0671*%
%ADD31C,0.0671*%
%ADD32R,0.0474X0.0474*%
%ADD33C,0.0474*%
D28*
X29900Y32367D02*
D03*
D29*
Y29533D02*
D03*
D30*
X41083Y38600D02*
D03*
X34150D02*
D03*
X48017D02*
D03*
X54950D02*
D03*
X45500Y27550D02*
D03*
D31*
X40083Y38600D02*
D03*
X39083D02*
D03*
X38083D02*
D03*
X37083D02*
D03*
X36083D02*
D03*
X33150D02*
D03*
X32150D02*
D03*
X31150D02*
D03*
X30150D02*
D03*
X29150D02*
D03*
X47017D02*
D03*
X46017D02*
D03*
X45017D02*
D03*
X44017D02*
D03*
X43017D02*
D03*
X53950D02*
D03*
X52950D02*
D03*
X51950D02*
D03*
X50950D02*
D03*
X49950D02*
D03*
X32500Y27550D02*
D03*
X33500D02*
D03*
X34500D02*
D03*
X35500D02*
D03*
X36500D02*
D03*
X37500D02*
D03*
X38500D02*
D03*
X39500D02*
D03*
X40500D02*
D03*
X41500D02*
D03*
X42500D02*
D03*
X43500D02*
D03*
X44500D02*
D03*
D32*
X44050Y33000D02*
D03*
D33*
X44550D02*
D03*
X44050Y32500D02*
D03*
X44550D02*
D03*
X44050Y32000D02*
D03*
X44550D02*
D03*
X44050Y31500D02*
D03*
X44550D02*
D03*
X44050Y31000D02*
D03*
X44550D02*
D03*
X44050Y30500D02*
D03*
X44550D02*
D03*
M02*
