G04*
G04 #@! TF.GenerationSoftware,Altium Limited,Altium Designer,20.1.12 (249)*
G04*
G04 Layer_Color=8388736*
%FSLAX24Y24*%
%MOIN*%
G70*
G04*
G04 #@! TF.SameCoordinates,7611F4AC-675D-4E0A-8C32-16A27ADB78BB*
G04*
G04*
G04 #@! TF.FilePolarity,Negative*
G04*
G01*
G75*
%ADD16R,0.4348X0.3080*%
%ADD17R,0.0470X0.1572*%
%ADD18R,0.0660X0.0220*%
%ADD19R,0.0434X0.0907*%
%ADD20R,0.1340X0.0907*%
%ADD21R,0.0631X0.0552*%
%ADD22R,0.0552X0.0631*%
%ADD23R,0.0375X0.0257*%
%ADD24R,0.0710X0.1300*%
%ADD25R,0.0316X0.0856*%
%ADD26R,0.1210X0.0875*%
%ADD27R,0.0290X0.0850*%
%ADD28C,0.2252*%
%ADD29R,0.2252X0.2252*%
%ADD30R,0.0671X0.0671*%
%ADD31C,0.0671*%
%ADD32R,0.0474X0.0474*%
%ADD33C,0.0474*%
D16*
X53900Y32214D02*
D03*
D17*
X54900Y27930D02*
D03*
X53900D02*
D03*
X52900D02*
D03*
D18*
X39000Y30340D02*
D03*
Y30590D02*
D03*
Y30850D02*
D03*
Y31100D02*
D03*
Y31360D02*
D03*
Y31620D02*
D03*
Y31870D02*
D03*
Y32130D02*
D03*
Y32380D02*
D03*
Y32640D02*
D03*
Y32900D02*
D03*
Y33150D02*
D03*
Y33410D02*
D03*
Y33660D02*
D03*
X41300D02*
D03*
Y33410D02*
D03*
Y33150D02*
D03*
Y32900D02*
D03*
Y32640D02*
D03*
Y32380D02*
D03*
Y32130D02*
D03*
Y31870D02*
D03*
Y31620D02*
D03*
Y31360D02*
D03*
Y31100D02*
D03*
Y30850D02*
D03*
Y30590D02*
D03*
Y30340D02*
D03*
D19*
X49906Y29572D02*
D03*
X49000D02*
D03*
X48094D02*
D03*
D20*
X49000Y27328D02*
D03*
D21*
X51000Y29204D02*
D03*
Y28496D02*
D03*
X56600Y29704D02*
D03*
Y28996D02*
D03*
X51000Y29796D02*
D03*
Y30504D02*
D03*
X38150Y30996D02*
D03*
Y31704D02*
D03*
X34400Y35654D02*
D03*
Y34946D02*
D03*
X34400Y36446D02*
D03*
Y37154D02*
D03*
X41333Y35654D02*
D03*
Y34946D02*
D03*
X41333Y36446D02*
D03*
Y37154D02*
D03*
X48267Y35654D02*
D03*
Y34946D02*
D03*
X48267Y36446D02*
D03*
Y37154D02*
D03*
X55200Y35654D02*
D03*
Y34946D02*
D03*
X55200Y36446D02*
D03*
Y37154D02*
D03*
D22*
X37496Y30350D02*
D03*
X38204D02*
D03*
D23*
X42615Y30328D02*
D03*
Y30643D02*
D03*
Y30957D02*
D03*
Y31272D02*
D03*
X43185D02*
D03*
Y30957D02*
D03*
Y30643D02*
D03*
Y30328D02*
D03*
X42615Y31978D02*
D03*
Y32293D02*
D03*
Y32607D02*
D03*
Y32922D02*
D03*
X43185D02*
D03*
Y32607D02*
D03*
Y32293D02*
D03*
Y31978D02*
D03*
D24*
X30100Y34965D02*
D03*
Y37135D02*
D03*
X37033Y34965D02*
D03*
Y37135D02*
D03*
X43967Y34965D02*
D03*
Y37135D02*
D03*
X50900Y34965D02*
D03*
Y37135D02*
D03*
D25*
X32050Y35051D02*
D03*
X32550D02*
D03*
X33050D02*
D03*
X33550D02*
D03*
Y37000D02*
D03*
X33050D02*
D03*
X32550D02*
D03*
X32050D02*
D03*
X38983Y35051D02*
D03*
X39483D02*
D03*
X39983D02*
D03*
X40483D02*
D03*
Y37000D02*
D03*
X39983D02*
D03*
X39483D02*
D03*
X38983D02*
D03*
X45917Y35051D02*
D03*
X46417D02*
D03*
X46917D02*
D03*
X47417D02*
D03*
Y37000D02*
D03*
X46917D02*
D03*
X46417D02*
D03*
X45917D02*
D03*
X52850Y35051D02*
D03*
X53350D02*
D03*
X53850D02*
D03*
X54350D02*
D03*
Y37000D02*
D03*
X53850D02*
D03*
X53350D02*
D03*
X52850D02*
D03*
D26*
X32800Y36026D02*
D03*
X39733D02*
D03*
X46667D02*
D03*
X53600D02*
D03*
D27*
X36450Y31425D02*
D03*
X35950D02*
D03*
X35450D02*
D03*
X34950D02*
D03*
X34450D02*
D03*
X33950D02*
D03*
X33450D02*
D03*
X32950D02*
D03*
Y33375D02*
D03*
X33450D02*
D03*
X33950D02*
D03*
X34450D02*
D03*
X34950D02*
D03*
X35450D02*
D03*
X35950D02*
D03*
X36450D02*
D03*
X49550Y31425D02*
D03*
X49050D02*
D03*
X48550D02*
D03*
X48050D02*
D03*
X47550D02*
D03*
X47050D02*
D03*
X46550D02*
D03*
X46050D02*
D03*
Y33375D02*
D03*
X46550D02*
D03*
X47050D02*
D03*
X47550D02*
D03*
X48050D02*
D03*
X48550D02*
D03*
X49050D02*
D03*
X49550D02*
D03*
D28*
X29900Y32367D02*
D03*
D29*
Y29533D02*
D03*
D30*
X41083Y38600D02*
D03*
X34150D02*
D03*
X48017D02*
D03*
X54950D02*
D03*
X45500Y27550D02*
D03*
D31*
X40083Y38600D02*
D03*
X39083D02*
D03*
X38083D02*
D03*
X37083D02*
D03*
X36083D02*
D03*
X33150D02*
D03*
X32150D02*
D03*
X31150D02*
D03*
X30150D02*
D03*
X29150D02*
D03*
X47017D02*
D03*
X46017D02*
D03*
X45017D02*
D03*
X44017D02*
D03*
X43017D02*
D03*
X53950D02*
D03*
X52950D02*
D03*
X51950D02*
D03*
X50950D02*
D03*
X49950D02*
D03*
X32500Y27550D02*
D03*
X33500D02*
D03*
X34500D02*
D03*
X35500D02*
D03*
X36500D02*
D03*
X37500D02*
D03*
X38500D02*
D03*
X39500D02*
D03*
X40500D02*
D03*
X41500D02*
D03*
X42500D02*
D03*
X43500D02*
D03*
X44500D02*
D03*
D32*
X44050Y33000D02*
D03*
D33*
X44550D02*
D03*
X44050Y32500D02*
D03*
X44550D02*
D03*
X44050Y32000D02*
D03*
X44550D02*
D03*
X44050Y31500D02*
D03*
X44550D02*
D03*
X44050Y31000D02*
D03*
X44550D02*
D03*
X44050Y30500D02*
D03*
X44550D02*
D03*
M02*
