G70*
%FSLAX24Y24*%
%IPPOS*%
%LPD*%
%ADD10C,0.008*%
%ADD18C,0.012*%
%ADD25C,0.01*%
%ADD53C,0.001*%
D10*
X014959Y005020D02*
X019152Y005020D01*
X019663Y003564D02*
X019663Y001123D01*
X014959Y005020D02*
X014959Y004587D01*
X014959Y003288D02*
X014959Y001123D01*
X018837Y000532D02*
X019112Y000532D01*
X025076Y012704D02*
X025076Y012212D01*
X025280Y012212D01*
X025434Y012704D02*
X025434Y012212D01*
X025434Y012704D02*
X025587Y012704D01*
X025587Y012704D02*
X025638Y012680D01*
X025638Y012680D02*
X025655Y012657D01*
X025655Y012657D02*
X025672Y012610D01*
X025672Y012610D02*
X025672Y012563D01*
X025672Y012563D02*
X025655Y012516D01*
X025655Y012516D02*
X025638Y012493D01*
X025638Y012493D02*
X025587Y012469D01*
X025587Y012469D02*
X025434Y012469D01*
X025553Y012469D02*
X025672Y012212D01*
X026081Y012587D02*
X026064Y012633D01*
X026064Y012633D02*
X026030Y012680D01*
X026030Y012680D02*
X025996Y012704D01*
X025996Y012704D02*
X025928Y012704D01*
X025894Y012680D01*
X025894Y012680D02*
X025860Y012633D01*
X025860Y012633D02*
X025843Y012587D01*
X025826Y012516D01*
X025826Y012516D02*
X025826Y012399D01*
X025826Y012399D02*
X025843Y012329D01*
X025860Y012282D01*
X025894Y012235D01*
X025928Y012212D01*
X025996Y012212D01*
X025996Y012212D02*
X026030Y012235D01*
X026030Y012235D02*
X026064Y012282D01*
X026064Y012282D02*
X026081Y012329D01*
X026235Y012704D02*
X026235Y012212D01*
X026439Y012212D01*
X026593Y012704D02*
X026593Y012212D01*
X026831Y012704D02*
X026593Y012376D01*
X026678Y012493D02*
X026831Y012212D01*
X026201Y002704D02*
X026201Y002212D01*
X026201Y002704D02*
X026354Y002704D01*
X026354Y002704D02*
X026405Y002680D01*
X026405Y002680D02*
X026422Y002657D01*
X026422Y002657D02*
X026439Y002610D01*
X026439Y002610D02*
X026439Y002563D01*
X026439Y002563D02*
X026422Y002516D01*
X026422Y002516D02*
X026405Y002493D01*
X026405Y002493D02*
X026354Y002469D01*
X026354Y002469D02*
X026201Y002469D01*
X026320Y002469D02*
X026439Y002212D01*
X026593Y002704D02*
X026831Y002212D01*
X026831Y002704D02*
X026593Y002212D01*
X026320Y011704D02*
X026320Y011212D01*
X026201Y011704D02*
X026439Y011704D01*
X026593Y011704D02*
X026831Y011212D01*
X026831Y011704D02*
X026593Y011212D01*
X025621Y013704D02*
X025809Y013704D01*
X025706Y013516D01*
X025706Y013516D02*
X025757Y013516D01*
X025757Y013516D02*
X025792Y013493D01*
X025809Y013469D01*
X025809Y013469D02*
X025826Y013399D01*
X025826Y013399D02*
X025826Y013352D01*
X025826Y013352D02*
X025809Y013282D01*
X025775Y013235D01*
X025723Y013212D01*
X025723Y013212D02*
X025672Y013212D01*
X025672Y013212D02*
X025621Y013235D01*
X025621Y013235D02*
X025604Y013258D01*
X025604Y013258D02*
X025587Y013305D01*
X025996Y013258D02*
X025979Y013235D01*
X025979Y013235D02*
X025996Y013212D01*
X025996Y013212D02*
X026013Y013235D01*
X026013Y013235D02*
X025996Y013258D01*
X026201Y013704D02*
X026388Y013704D01*
X026388Y013704D02*
X026286Y013516D01*
X026286Y013516D02*
X026337Y013516D01*
X026337Y013516D02*
X026371Y013493D01*
X026371Y013493D02*
X026388Y013469D01*
X026388Y013469D02*
X026405Y013399D01*
X026405Y013399D02*
X026405Y013352D01*
X026405Y013352D02*
X026388Y013282D01*
X026388Y013282D02*
X026354Y013235D01*
X026354Y013235D02*
X026303Y013212D01*
X026252Y013212D01*
X026201Y013235D01*
X026184Y013258D01*
X026184Y013258D02*
X026167Y013305D01*
X026559Y013704D02*
X026695Y013212D01*
X026831Y013704D02*
X026695Y013212D01*
X026064Y008633D02*
X026030Y008680D01*
X026030Y008680D02*
X025979Y008704D01*
X025979Y008704D02*
X025911Y008704D01*
X025860Y008680D01*
X025860Y008680D02*
X025826Y008633D01*
X025826Y008633D02*
X025826Y008587D01*
X025843Y008540D01*
X025860Y008516D01*
X025860Y008516D02*
X025894Y008493D01*
X025996Y008446D01*
X025996Y008446D02*
X026030Y008422D01*
X026030Y008422D02*
X026047Y008399D01*
X026047Y008399D02*
X026064Y008352D01*
X026064Y008352D02*
X026064Y008282D01*
X026064Y008282D02*
X026030Y008235D01*
X026030Y008235D02*
X025979Y008212D01*
X025979Y008212D02*
X025911Y008212D01*
X025860Y008235D01*
X025826Y008282D01*
X026473Y008587D02*
X026456Y008633D01*
X026456Y008633D02*
X026422Y008680D01*
X026422Y008680D02*
X026388Y008704D01*
X026388Y008704D02*
X026320Y008704D01*
X026286Y008680D01*
X026286Y008680D02*
X026252Y008633D01*
X026252Y008633D02*
X026235Y008587D01*
X026218Y008516D01*
X026218Y008516D02*
X026218Y008399D01*
X026218Y008399D02*
X026235Y008329D01*
X026252Y008282D01*
X026286Y008235D01*
X026320Y008212D01*
X026388Y008212D01*
X026388Y008212D02*
X026422Y008235D01*
X026422Y008235D02*
X026456Y008282D01*
X026456Y008282D02*
X026473Y008329D01*
X026627Y008704D02*
X026627Y008212D01*
X026831Y008212D01*
X026013Y007633D02*
X025979Y007680D01*
X025979Y007680D02*
X025928Y007704D01*
X025860Y007704D01*
X025809Y007680D01*
X025809Y007680D02*
X025775Y007633D01*
X025775Y007633D02*
X025775Y007587D01*
X025792Y007540D01*
X025809Y007516D01*
X025809Y007516D02*
X025843Y007493D01*
X025945Y007446D01*
X025979Y007422D01*
X025979Y007422D02*
X025996Y007399D01*
X025996Y007399D02*
X026013Y007352D01*
X026013Y007352D02*
X026013Y007282D01*
X026013Y007282D02*
X025979Y007235D01*
X025979Y007235D02*
X025928Y007212D01*
X025860Y007212D01*
X025809Y007235D01*
X025775Y007282D01*
X026167Y007704D02*
X026167Y007212D01*
X026167Y007704D02*
X026286Y007704D01*
X026337Y007680D01*
X026337Y007680D02*
X026371Y007633D01*
X026371Y007633D02*
X026388Y007587D01*
X026388Y007587D02*
X026405Y007516D01*
X026405Y007516D02*
X026405Y007399D01*
X026405Y007399D02*
X026388Y007329D01*
X026388Y007329D02*
X026371Y007282D01*
X026371Y007282D02*
X026337Y007235D01*
X026337Y007235D02*
X026286Y007212D01*
X026167Y007212D01*
X026695Y007704D02*
X026559Y007212D01*
X026695Y007704D02*
X026831Y007212D01*
X026610Y007376D02*
X026780Y007376D01*
X022535Y015587D02*
X022518Y015633D01*
X022518Y015633D02*
X022484Y015680D01*
X022484Y015680D02*
X022450Y015704D01*
X022382Y015704D01*
X022348Y015680D01*
X022348Y015680D02*
X022314Y015633D01*
X022314Y015633D02*
X022297Y015587D01*
X022280Y015516D01*
X022280Y015516D02*
X022280Y015399D01*
X022280Y015399D02*
X022297Y015329D01*
X022314Y015282D01*
X022348Y015235D01*
X022382Y015212D01*
X022450Y015212D01*
X022484Y015235D01*
X022484Y015235D02*
X022518Y015282D01*
X022518Y015282D02*
X022535Y015329D01*
X022535Y015329D02*
X022535Y015399D01*
X022450Y015399D02*
X022535Y015399D01*
X022689Y015704D02*
X022689Y015212D01*
X022689Y015704D02*
X022927Y015212D01*
X022927Y015704D02*
X022927Y015212D01*
X023081Y015704D02*
X023081Y015212D01*
X023081Y015704D02*
X023200Y015704D01*
X023251Y015680D01*
X023251Y015680D02*
X023285Y015633D01*
X023285Y015633D02*
X023302Y015587D01*
X023302Y015587D02*
X023319Y015516D01*
X023319Y015516D02*
X023319Y015399D01*
X023319Y015399D02*
X023302Y015329D01*
X023302Y015329D02*
X023285Y015282D01*
X023285Y015282D02*
X023251Y015235D01*
X023251Y015235D02*
X023200Y015212D01*
X023081Y015212D01*
X022280Y002704D02*
X022280Y002212D01*
X022280Y002704D02*
X022416Y002212D01*
X022552Y002704D02*
X022416Y002212D01*
X022552Y002704D02*
X022552Y002212D01*
X022706Y002704D02*
X022706Y002212D01*
X023098Y002633D02*
X023064Y002680D01*
X023064Y002680D02*
X023012Y002704D01*
X023012Y002704D02*
X022944Y002704D01*
X022944Y002704D02*
X022893Y002680D01*
X022893Y002680D02*
X022859Y002633D01*
X022859Y002633D02*
X022859Y002587D01*
X022859Y002587D02*
X022876Y002540D01*
X022876Y002540D02*
X022893Y002516D01*
X022893Y002516D02*
X022927Y002493D01*
X022927Y002493D02*
X023030Y002446D01*
X023064Y002422D01*
X023064Y002422D02*
X023081Y002399D01*
X023081Y002399D02*
X023098Y002352D01*
X023098Y002352D02*
X023098Y002282D01*
X023064Y002235D01*
X023012Y002212D01*
X023012Y002212D02*
X022944Y002212D01*
X022944Y002212D02*
X022893Y002235D01*
X022893Y002235D02*
X022859Y002282D01*
X023353Y002704D02*
X023319Y002680D01*
X023319Y002680D02*
X023285Y002633D01*
X023285Y002633D02*
X023268Y002587D01*
X023268Y002587D02*
X023251Y002516D01*
X023251Y002516D02*
X023251Y002399D01*
X023251Y002399D02*
X023268Y002329D01*
X023268Y002329D02*
X023285Y002282D01*
X023285Y002282D02*
X023319Y002235D01*
X023319Y002235D02*
X023353Y002212D01*
X023353Y002212D02*
X023422Y002212D01*
X023456Y002235D01*
X023490Y002282D01*
X023507Y002329D01*
X023524Y002399D01*
X023524Y002399D02*
X023524Y002516D01*
X023524Y002516D02*
X023507Y002587D01*
X023490Y002633D01*
X023490Y002633D02*
X023456Y002680D01*
X023456Y002680D02*
X023422Y002704D01*
X023353Y002704D01*
X022280Y003604D02*
X022280Y003112D01*
X022280Y003604D02*
X022416Y003112D01*
X022552Y003604D02*
X022416Y003112D01*
X022552Y003604D02*
X022552Y003112D01*
X022961Y003487D02*
X022944Y003533D01*
X022944Y003533D02*
X022910Y003580D01*
X022910Y003580D02*
X022876Y003604D01*
X022876Y003604D02*
X022808Y003604D01*
X022774Y003580D01*
X022774Y003580D02*
X022740Y003533D01*
X022740Y003533D02*
X022723Y003487D01*
X022706Y003416D01*
X022706Y003416D02*
X022706Y003299D01*
X022706Y003299D02*
X022723Y003229D01*
X022740Y003182D01*
X022774Y003135D01*
X022808Y003112D01*
X022876Y003112D01*
X022876Y003112D02*
X022910Y003135D01*
X022910Y003135D02*
X022944Y003182D01*
X022944Y003182D02*
X022961Y003229D01*
X023115Y003604D02*
X023115Y003112D01*
X023319Y003112D01*
X023473Y003604D02*
X023473Y003112D01*
X023711Y003604D02*
X023473Y003276D01*
X023558Y003393D02*
X023711Y003112D01*
X022535Y004587D02*
X022518Y004633D01*
X022518Y004633D02*
X022484Y004680D01*
X022484Y004680D02*
X022450Y004704D01*
X022382Y004704D01*
X022348Y004680D01*
X022348Y004680D02*
X022314Y004633D01*
X022314Y004633D02*
X022297Y004587D01*
X022280Y004516D01*
X022280Y004516D02*
X022280Y004399D01*
X022280Y004399D02*
X022297Y004329D01*
X022314Y004282D01*
X022348Y004235D01*
X022382Y004212D01*
X022450Y004212D01*
X022484Y004235D01*
X022484Y004235D02*
X022518Y004282D01*
X022518Y004282D02*
X022535Y004329D01*
X022927Y004633D02*
X022893Y004680D01*
X022893Y004680D02*
X022842Y004704D01*
X022842Y004704D02*
X022774Y004704D01*
X022723Y004680D01*
X022723Y004680D02*
X022689Y004633D01*
X022689Y004633D02*
X022689Y004587D01*
X022706Y004540D01*
X022723Y004516D01*
X022723Y004516D02*
X022757Y004493D01*
X022859Y004446D01*
X022859Y004446D02*
X022893Y004422D01*
X022893Y004422D02*
X022910Y004399D01*
X022910Y004399D02*
X022927Y004352D01*
X022927Y004352D02*
X022927Y004282D01*
X022927Y004282D02*
X022893Y004235D01*
X022893Y004235D02*
X022842Y004212D01*
X022842Y004212D02*
X022774Y004212D01*
X022723Y004235D01*
X022689Y004282D01*
X022280Y005754D02*
X022280Y005262D01*
X022280Y005754D02*
X022433Y005754D01*
X022484Y005730D01*
X022484Y005730D02*
X022501Y005707D01*
X022501Y005707D02*
X022518Y005660D01*
X022518Y005660D02*
X022518Y005613D01*
X022518Y005613D02*
X022501Y005566D01*
X022501Y005566D02*
X022484Y005543D01*
X022484Y005543D02*
X022433Y005519D01*
X022280Y005519D02*
X022433Y005519D01*
X022433Y005519D02*
X022484Y005496D01*
X022484Y005496D02*
X022501Y005472D01*
X022501Y005472D02*
X022518Y005426D01*
X022518Y005426D02*
X022518Y005355D01*
X022518Y005355D02*
X022501Y005308D01*
X022501Y005308D02*
X022484Y005285D01*
X022484Y005285D02*
X022433Y005262D01*
X022280Y005262D01*
X022927Y005637D02*
X022910Y005683D01*
X022910Y005683D02*
X022876Y005730D01*
X022876Y005730D02*
X022842Y005754D01*
X022842Y005754D02*
X022774Y005754D01*
X022740Y005730D01*
X022740Y005730D02*
X022706Y005683D01*
X022706Y005683D02*
X022689Y005637D01*
X022672Y005566D01*
X022672Y005566D02*
X022672Y005449D01*
X022672Y005449D02*
X022689Y005379D01*
X022706Y005332D01*
X022740Y005285D01*
X022774Y005262D01*
X022842Y005262D01*
X022842Y005262D02*
X022876Y005285D01*
X022876Y005285D02*
X022910Y005332D01*
X022910Y005332D02*
X022927Y005379D01*
X023081Y005754D02*
X023081Y005262D01*
X023285Y005262D01*
X023439Y005754D02*
X023439Y005262D01*
X023677Y005754D02*
X023439Y005426D01*
X023524Y005543D02*
X023677Y005262D01*
X022280Y008704D02*
X022280Y008212D01*
X022280Y008704D02*
X022416Y008212D01*
X022552Y008704D02*
X022416Y008212D01*
X022552Y008704D02*
X022552Y008212D01*
X022706Y008704D02*
X022706Y008212D01*
X022706Y008704D02*
X022927Y008704D01*
X022706Y008469D02*
X022842Y008469D01*
X022706Y008212D02*
X022927Y008212D01*
X023081Y008704D02*
X023081Y008212D01*
X023081Y008704D02*
X023217Y008212D01*
X023353Y008704D02*
X023217Y008212D01*
X023353Y008704D02*
X023353Y008212D01*
X023762Y008587D02*
X023745Y008633D01*
X023745Y008633D02*
X023711Y008680D01*
X023711Y008680D02*
X023677Y008704D01*
X023677Y008704D02*
X023609Y008704D01*
X023609Y008704D02*
X023575Y008680D01*
X023575Y008680D02*
X023541Y008633D01*
X023541Y008633D02*
X023524Y008587D01*
X023507Y008516D01*
X023507Y008516D02*
X023507Y008399D01*
X023507Y008399D02*
X023524Y008329D01*
X023541Y008282D01*
X023575Y008235D01*
X023609Y008212D01*
X023609Y008212D02*
X023677Y008212D01*
X023677Y008212D02*
X023711Y008235D01*
X023711Y008235D02*
X023745Y008282D01*
X023745Y008282D02*
X023762Y008329D01*
X024155Y008633D02*
X024120Y008680D01*
X024120Y008680D02*
X024069Y008704D01*
X024069Y008704D02*
X024001Y008704D01*
X024001Y008704D02*
X023950Y008680D01*
X023950Y008680D02*
X023916Y008633D01*
X023916Y008633D02*
X023916Y008587D01*
X023933Y008540D01*
X023950Y008516D01*
X023950Y008516D02*
X023984Y008493D01*
X023984Y008493D02*
X024086Y008446D01*
X024086Y008446D02*
X024120Y008422D01*
X024120Y008422D02*
X024137Y008399D01*
X024137Y008399D02*
X024155Y008352D01*
X024155Y008352D02*
X024155Y008282D01*
X024120Y008235D01*
X024120Y008235D02*
X024069Y008212D01*
X024069Y008212D02*
X024001Y008212D01*
X024001Y008212D02*
X023950Y008235D01*
X023916Y008282D01*
X022280Y007704D02*
X022280Y007212D01*
X022280Y007704D02*
X022416Y007212D01*
X022552Y007704D02*
X022416Y007212D01*
X022552Y007704D02*
X022552Y007212D01*
X022808Y007704D02*
X022774Y007680D01*
X022774Y007680D02*
X022740Y007633D01*
X022740Y007633D02*
X022723Y007587D01*
X022706Y007516D01*
X022706Y007516D02*
X022706Y007399D01*
X022706Y007399D02*
X022723Y007329D01*
X022740Y007282D01*
X022774Y007235D01*
X022808Y007212D01*
X022876Y007212D01*
X022876Y007212D02*
X022910Y007235D01*
X022910Y007235D02*
X022944Y007282D01*
X022944Y007282D02*
X022961Y007329D01*
X022961Y007329D02*
X022978Y007399D01*
X022978Y007399D02*
X022978Y007516D01*
X022978Y007516D02*
X022961Y007587D01*
X022961Y007587D02*
X022944Y007633D01*
X022944Y007633D02*
X022910Y007680D01*
X022910Y007680D02*
X022876Y007704D01*
X022876Y007704D02*
X022808Y007704D01*
X023370Y007633D02*
X023336Y007680D01*
X023336Y007680D02*
X023285Y007704D01*
X023285Y007704D02*
X023217Y007704D01*
X023217Y007704D02*
X023166Y007680D01*
X023166Y007680D02*
X023132Y007633D01*
X023132Y007633D02*
X023132Y007587D01*
X023149Y007540D01*
X023166Y007516D01*
X023166Y007516D02*
X023200Y007493D01*
X023302Y007446D01*
X023302Y007446D02*
X023336Y007422D01*
X023336Y007422D02*
X023353Y007399D01*
X023353Y007399D02*
X023370Y007352D01*
X023370Y007352D02*
X023370Y007282D01*
X023370Y007282D02*
X023336Y007235D01*
X023336Y007235D02*
X023285Y007212D01*
X023285Y007212D02*
X023217Y007212D01*
X023217Y007212D02*
X023166Y007235D01*
X023132Y007282D01*
X023524Y007704D02*
X023524Y007212D01*
X033197Y014558D02*
X033151Y014541D01*
X033151Y014541D02*
X033104Y014507D01*
X033104Y014507D02*
X033080Y014473D01*
X033080Y014473D02*
X033080Y014405D01*
X033080Y014405D02*
X033104Y014371D01*
X033151Y014337D01*
X033197Y014320D01*
X033197Y014320D02*
X033268Y014303D01*
X033385Y014303D01*
X033455Y014320D01*
X033455Y014320D02*
X033502Y014337D01*
X033502Y014337D02*
X033549Y014371D01*
X033549Y014371D02*
X033572Y014405D01*
X033572Y014405D02*
X033572Y014473D01*
X033572Y014473D02*
X033549Y014507D01*
X033549Y014507D02*
X033502Y014541D01*
X033502Y014541D02*
X033455Y014558D01*
X033455Y014558D02*
X033385Y014558D01*
X033385Y014473D02*
X033385Y014558D01*
X033197Y002072D02*
X033151Y002055D01*
X033151Y002055D02*
X033104Y002021D01*
X033104Y002021D02*
X033080Y001987D01*
X033080Y001987D02*
X033080Y001919D01*
X033080Y001919D02*
X033104Y001885D01*
X033151Y001851D01*
X033197Y001834D01*
X033197Y001834D02*
X033268Y001817D01*
X033385Y001817D01*
X033455Y001834D01*
X033455Y001834D02*
X033502Y001851D01*
X033502Y001851D02*
X033549Y001885D01*
X033549Y001885D02*
X033572Y001919D01*
X033572Y001919D02*
X033572Y001987D01*
X033572Y001987D02*
X033549Y002021D01*
X033549Y002021D02*
X033502Y002055D01*
X033502Y002055D02*
X033455Y002072D01*
X033455Y002072D02*
X033385Y002072D01*
X033385Y001987D02*
X033385Y002072D01*
X033080Y002226D02*
X033572Y002226D01*
X033080Y002226D02*
X033572Y002464D01*
X033080Y002464D02*
X033572Y002464D01*
X033080Y002618D02*
X033572Y002618D01*
X033080Y002618D02*
X033080Y002737D01*
X033080Y002737D02*
X033104Y002788D01*
X033104Y002788D02*
X033151Y002822D01*
X033151Y002822D02*
X033197Y002839D01*
X033197Y002839D02*
X033268Y002856D01*
X033268Y002856D02*
X033385Y002856D01*
X033385Y002856D02*
X033455Y002839D01*
X033455Y002839D02*
X033502Y002822D01*
X033502Y002822D02*
X033549Y002788D01*
X033549Y002788D02*
X033572Y002737D01*
X033572Y002737D02*
X033572Y002618D01*
X036080Y004226D02*
X036572Y004226D01*
X036080Y004226D02*
X036080Y004379D01*
X036080Y004379D02*
X036104Y004430D01*
X036104Y004430D02*
X036127Y004447D01*
X036127Y004447D02*
X036174Y004464D01*
X036174Y004464D02*
X036221Y004464D01*
X036221Y004464D02*
X036268Y004447D01*
X036268Y004447D02*
X036291Y004430D01*
X036291Y004430D02*
X036315Y004379D01*
X036315Y004379D02*
X036315Y004226D01*
X036315Y004345D02*
X036572Y004464D01*
X036080Y004618D02*
X036572Y004856D01*
X036080Y004856D02*
X036572Y004618D01*
X037080Y004345D02*
X037572Y004345D01*
X037080Y004226D02*
X037080Y004464D01*
X037080Y004618D02*
X037572Y004856D01*
X037080Y004856D02*
X037572Y004618D01*
X036080Y014255D02*
X036572Y014255D01*
X036080Y014255D02*
X036080Y014408D01*
X036080Y014408D02*
X036104Y014459D01*
X036104Y014459D02*
X036127Y014476D01*
X036127Y014476D02*
X036174Y014493D01*
X036174Y014493D02*
X036221Y014493D01*
X036221Y014493D02*
X036268Y014476D01*
X036268Y014476D02*
X036291Y014459D01*
X036291Y014459D02*
X036315Y014408D01*
X036315Y014255D01*
X036315Y014374D02*
X036572Y014493D01*
X036080Y014647D02*
X036572Y014885D01*
X036080Y014885D02*
X036572Y014647D01*
X037080Y014374D02*
X037572Y014374D01*
X037080Y014255D02*
X037080Y014493D01*
X037080Y014647D02*
X037572Y014885D01*
X037080Y014885D02*
X037572Y014647D01*
X026030Y003633D02*
X025996Y003680D01*
X025996Y003680D02*
X025945Y003704D01*
X025877Y003704D01*
X025826Y003680D01*
X025826Y003680D02*
X025792Y003633D01*
X025792Y003633D02*
X025792Y003587D01*
X025809Y003540D01*
X025826Y003516D01*
X025826Y003516D02*
X025860Y003493D01*
X025962Y003446D01*
X025962Y003446D02*
X025996Y003422D01*
X025996Y003422D02*
X026013Y003399D01*
X026013Y003399D02*
X026030Y003352D01*
X026030Y003352D02*
X026030Y003282D01*
X026030Y003282D02*
X025996Y003235D01*
X025996Y003235D02*
X025945Y003212D01*
X025877Y003212D01*
X025826Y003235D01*
X025792Y003282D01*
X026439Y003587D02*
X026422Y003633D01*
X026422Y003633D02*
X026388Y003680D01*
X026388Y003680D02*
X026354Y003704D01*
X026354Y003704D02*
X026286Y003704D01*
X026252Y003680D01*
X026252Y003680D02*
X026218Y003633D01*
X026218Y003633D02*
X026201Y003587D01*
X026184Y003516D01*
X026184Y003516D02*
X026184Y003399D01*
X026184Y003399D02*
X026201Y003329D01*
X026218Y003282D01*
X026252Y003235D01*
X026286Y003212D01*
X026354Y003212D01*
X026354Y003212D02*
X026388Y003235D01*
X026388Y003235D02*
X026422Y003282D01*
X026422Y003282D02*
X026439Y003329D01*
X026593Y003704D02*
X026593Y003212D01*
X026831Y003704D02*
X026593Y003376D01*
X026678Y003493D02*
X026831Y003212D01*
X025775Y004704D02*
X025911Y004212D01*
X026047Y004704D02*
X025911Y004212D01*
X026303Y004704D02*
X026269Y004680D01*
X026269Y004680D02*
X026235Y004633D01*
X026235Y004633D02*
X026218Y004587D01*
X026201Y004516D01*
X026201Y004516D02*
X026201Y004399D01*
X026201Y004399D02*
X026218Y004329D01*
X026235Y004282D01*
X026269Y004235D01*
X026303Y004212D01*
X026371Y004212D01*
X026371Y004212D02*
X026405Y004235D01*
X026405Y004235D02*
X026439Y004282D01*
X026439Y004282D02*
X026456Y004329D01*
X026456Y004329D02*
X026473Y004399D01*
X026473Y004399D02*
X026473Y004516D01*
X026473Y004516D02*
X026456Y004587D01*
X026456Y004587D02*
X026439Y004633D01*
X026439Y004633D02*
X026405Y004680D01*
X026405Y004680D02*
X026371Y004704D01*
X026371Y004704D02*
X026303Y004704D01*
X026627Y004704D02*
X026627Y004212D01*
X026831Y004212D01*
X013674Y003529D02*
X013651Y003563D01*
X013651Y003563D02*
X013580Y003614D01*
X013580Y003614D02*
X014072Y003614D01*
X013697Y003785D02*
X013674Y003785D01*
X013674Y003785D02*
X013627Y003802D01*
X013627Y003802D02*
X013604Y003819D01*
X013580Y003853D01*
X013580Y003853D02*
X013580Y003921D01*
X013580Y003921D02*
X013604Y003955D01*
X013604Y003955D02*
X013627Y003972D01*
X013627Y003972D02*
X013674Y003989D01*
X013674Y003989D02*
X013721Y003989D01*
X013721Y003989D02*
X013768Y003972D01*
X013768Y003972D02*
X013838Y003938D01*
X013838Y003938D02*
X014072Y003768D01*
X014072Y003768D02*
X014072Y004006D01*
X012674Y003682D02*
X012651Y003717D01*
X012580Y003768D01*
X012580Y003768D02*
X013072Y003768D01*
X012674Y003921D02*
X012651Y003955D01*
X012651Y003955D02*
X012580Y004006D01*
X012580Y004006D02*
X013072Y004006D01*
X011674Y003529D02*
X011651Y003563D01*
X011651Y003563D02*
X011580Y003614D01*
X011580Y003614D02*
X012072Y003614D01*
X011580Y003870D02*
X011604Y003819D01*
X011674Y003785D01*
X011674Y003785D02*
X011791Y003768D01*
X011791Y003768D02*
X011862Y003768D01*
X011979Y003785D01*
X012049Y003819D01*
X012049Y003819D02*
X012072Y003870D01*
X012072Y003870D02*
X012072Y003904D01*
X012072Y003904D02*
X012049Y003955D01*
X012049Y003955D02*
X011979Y003989D01*
X011979Y003989D02*
X011862Y004006D01*
X011862Y004006D02*
X011791Y004006D01*
X011791Y004006D02*
X011674Y003989D01*
X011674Y003989D02*
X011604Y003955D01*
X011604Y003955D02*
X011580Y003904D01*
X011580Y003904D02*
X011580Y003870D01*
X010744Y004006D02*
X010815Y003989D01*
X010815Y003989D02*
X010862Y003955D01*
X010862Y003955D02*
X010885Y003904D01*
X010885Y003904D02*
X010885Y003887D01*
X010885Y003887D02*
X010862Y003836D01*
X010815Y003802D01*
X010744Y003785D01*
X010744Y003785D02*
X010721Y003785D01*
X010651Y003802D01*
X010604Y003836D01*
X010580Y003887D01*
X010580Y003887D02*
X010580Y003904D01*
X010580Y003904D02*
X010604Y003955D01*
X010604Y003955D02*
X010651Y003989D01*
X010651Y003989D02*
X010744Y004006D01*
X010744Y004006D02*
X010862Y004006D01*
X010862Y004006D02*
X010979Y003989D01*
X010979Y003989D02*
X011049Y003955D01*
X011049Y003955D02*
X011072Y003904D01*
X011072Y003904D02*
X011072Y003870D01*
X011072Y003870D02*
X011049Y003819D01*
X011049Y003819D02*
X011002Y003802D01*
X009580Y003853D02*
X009604Y003802D01*
X009651Y003785D01*
X009697Y003785D01*
X009697Y003785D02*
X009744Y003802D01*
X009744Y003802D02*
X009768Y003836D01*
X009791Y003904D01*
X009791Y003904D02*
X009815Y003955D01*
X009815Y003955D02*
X009862Y003989D01*
X009862Y003989D02*
X009908Y004006D01*
X009908Y004006D02*
X009979Y004006D01*
X009979Y004006D02*
X010026Y003989D01*
X010026Y003989D02*
X010049Y003972D01*
X010049Y003972D02*
X010072Y003921D01*
X010072Y003921D02*
X010072Y003853D01*
X010072Y003853D02*
X010049Y003802D01*
X010049Y003802D02*
X010026Y003785D01*
X009979Y003768D01*
X009908Y003768D01*
X009908Y003768D02*
X009862Y003785D01*
X009815Y003819D01*
X009791Y003870D01*
X009791Y003870D02*
X009768Y003938D01*
X009768Y003938D02*
X009744Y003972D01*
X009744Y003972D02*
X009697Y003989D01*
X009697Y003989D02*
X009651Y003989D01*
X009651Y003989D02*
X009604Y003972D01*
X009604Y003972D02*
X009580Y003921D01*
X009580Y003921D02*
X009580Y003853D01*
X008580Y004006D02*
X009072Y003836D01*
X008580Y003768D02*
X008580Y004006D01*
X007651Y003989D02*
X007604Y003972D01*
X007604Y003972D02*
X007580Y003921D01*
X007580Y003921D02*
X007580Y003887D01*
X007580Y003887D02*
X007604Y003836D01*
X007674Y003802D01*
X007674Y003802D02*
X007791Y003785D01*
X007791Y003785D02*
X007908Y003785D01*
X007908Y003785D02*
X008002Y003802D01*
X008002Y003802D02*
X008049Y003836D01*
X008049Y003836D02*
X008072Y003887D01*
X008072Y003887D02*
X008072Y003904D01*
X008072Y003904D02*
X008049Y003955D01*
X008049Y003955D02*
X008002Y003989D01*
X008002Y003989D02*
X007932Y004006D01*
X007932Y004006D02*
X007908Y004006D01*
X007908Y004006D02*
X007838Y003989D01*
X007838Y003989D02*
X007791Y003955D01*
X007791Y003955D02*
X007768Y003904D01*
X007768Y003904D02*
X007768Y003887D01*
X007768Y003887D02*
X007791Y003836D01*
X007791Y003836D02*
X007838Y003802D01*
X007838Y003802D02*
X007908Y003785D01*
X006580Y003972D02*
X006580Y003802D01*
X006580Y003802D02*
X006791Y003785D01*
X006791Y003785D02*
X006768Y003802D01*
X006744Y003853D01*
X006744Y003853D02*
X006744Y003904D01*
X006744Y003904D02*
X006768Y003955D01*
X006768Y003955D02*
X006815Y003989D01*
X006815Y003989D02*
X006885Y004006D01*
X006885Y004006D02*
X006932Y003989D01*
X006932Y003989D02*
X007002Y003972D01*
X007002Y003972D02*
X007049Y003938D01*
X007049Y003938D02*
X007072Y003887D01*
X007072Y003887D02*
X007072Y003836D01*
X007072Y003836D02*
X007049Y003785D01*
X007049Y003785D02*
X007026Y003768D01*
X006979Y003751D01*
X005580Y003921D02*
X005908Y003751D01*
X005908Y003751D02*
X005908Y004006D01*
X005580Y003921D02*
X006072Y003921D01*
X004580Y003802D02*
X004580Y003989D01*
X004580Y003989D02*
X004768Y003887D01*
X004768Y003887D02*
X004768Y003938D01*
X004768Y003938D02*
X004791Y003972D01*
X004791Y003972D02*
X004815Y003989D01*
X004815Y003989D02*
X004885Y004006D01*
X004885Y004006D02*
X004932Y004006D01*
X004932Y004006D02*
X005002Y003989D01*
X005002Y003989D02*
X005049Y003955D01*
X005049Y003955D02*
X005072Y003904D01*
X005072Y003904D02*
X005072Y003853D01*
X005072Y003853D02*
X005049Y003802D01*
X005049Y003802D02*
X005026Y003785D01*
X004979Y003768D01*
X003697Y003785D02*
X003674Y003785D01*
X003674Y003785D02*
X003627Y003802D01*
X003627Y003802D02*
X003604Y003819D01*
X003580Y003853D01*
X003580Y003853D02*
X003580Y003921D01*
X003580Y003921D02*
X003604Y003955D01*
X003604Y003955D02*
X003627Y003972D01*
X003627Y003972D02*
X003674Y003989D01*
X003674Y003989D02*
X003721Y003989D01*
X003721Y003989D02*
X003768Y003972D01*
X003768Y003972D02*
X003838Y003938D01*
X003838Y003938D02*
X004072Y003768D01*
X004072Y003768D02*
X004072Y004006D01*
X002674Y003921D02*
X002651Y003955D01*
X002651Y003955D02*
X002580Y004006D01*
X002580Y004006D02*
X003072Y004006D01*
X001580Y003870D02*
X001604Y003819D01*
X001674Y003785D01*
X001674Y003785D02*
X001791Y003768D01*
X001791Y003768D02*
X001862Y003768D01*
X001979Y003785D01*
X002049Y003819D01*
X002049Y003819D02*
X002072Y003870D01*
X002072Y003870D02*
X002072Y003904D01*
X002072Y003904D02*
X002049Y003955D01*
X002049Y003955D02*
X001979Y003989D01*
X001979Y003989D02*
X001862Y004006D01*
X001862Y004006D02*
X001791Y004006D01*
X001791Y004006D02*
X001674Y003989D01*
X001674Y003989D02*
X001604Y003955D01*
X001604Y003955D02*
X001580Y003904D01*
X001580Y003904D02*
X001580Y003870D01*
X000707Y003222D02*
X000661Y003205D01*
X000661Y003205D02*
X000614Y003171D01*
X000614Y003171D02*
X000590Y003137D01*
X000590Y003137D02*
X000590Y003069D01*
X000590Y003069D02*
X000614Y003035D01*
X000661Y003001D01*
X000707Y002984D01*
X000707Y002984D02*
X000778Y002967D01*
X000895Y002967D01*
X000965Y002984D01*
X000965Y002984D02*
X001012Y003001D01*
X001012Y003001D02*
X001059Y003035D01*
X001059Y003035D02*
X001082Y003069D01*
X001082Y003069D02*
X001082Y003137D01*
X001082Y003137D02*
X001059Y003171D01*
X001059Y003171D02*
X001012Y003205D01*
X001012Y003205D02*
X000965Y003222D01*
X000965Y003222D02*
X000895Y003222D01*
X000895Y003137D02*
X000895Y003222D01*
X000590Y003376D02*
X001082Y003376D01*
X000590Y003376D02*
X001082Y003614D01*
X000590Y003614D02*
X001082Y003614D01*
X000590Y003768D02*
X001082Y003768D01*
X000590Y003768D02*
X000590Y003887D01*
X000590Y003887D02*
X000614Y003938D01*
X000614Y003938D02*
X000661Y003972D01*
X000661Y003972D02*
X000707Y003989D01*
X000707Y003989D02*
X000778Y004006D01*
X000778Y004006D02*
X000895Y004006D01*
X000895Y004006D02*
X000965Y003989D01*
X000965Y003989D02*
X001012Y003972D01*
X001012Y003972D02*
X001059Y003938D01*
X001059Y003938D02*
X001082Y003887D01*
X001082Y003887D02*
X001082Y003768D01*
X013674Y011455D02*
X013651Y011489D01*
X013580Y011540D01*
X013580Y011540D02*
X014072Y011540D01*
X013580Y011727D02*
X013580Y011915D01*
X013580Y011915D02*
X013768Y011812D01*
X013768Y011812D02*
X013768Y011864D01*
X013791Y011898D01*
X013791Y011898D02*
X013815Y011915D01*
X013885Y011932D01*
X013932Y011932D01*
X014002Y011915D01*
X014002Y011915D02*
X014049Y011881D01*
X014049Y011881D02*
X014072Y011830D01*
X014072Y011830D02*
X014072Y011778D01*
X014072Y011778D02*
X014049Y011727D01*
X014049Y011727D02*
X014026Y011710D01*
X014026Y011710D02*
X013979Y011693D01*
X012674Y011455D02*
X012651Y011489D01*
X012580Y011540D01*
X012580Y011540D02*
X013072Y011540D01*
X012580Y011864D02*
X012908Y011693D01*
X012908Y011693D02*
X012908Y011949D01*
X012580Y011864D02*
X013072Y011864D01*
X010674Y011455D02*
X010651Y011489D01*
X010580Y011540D01*
X010580Y011540D02*
X011072Y011540D01*
X010651Y011898D02*
X010604Y011881D01*
X010580Y011830D01*
X010580Y011830D02*
X010580Y011795D01*
X010580Y011795D02*
X010604Y011744D01*
X010604Y011744D02*
X010674Y011710D01*
X010674Y011710D02*
X010791Y011693D01*
X010791Y011693D02*
X010908Y011693D01*
X010908Y011693D02*
X011002Y011710D01*
X011002Y011710D02*
X011049Y011744D01*
X011049Y011744D02*
X011072Y011795D01*
X011072Y011795D02*
X011072Y011812D01*
X011072Y011812D02*
X011049Y011864D01*
X011049Y011864D02*
X011002Y011898D01*
X011002Y011898D02*
X010932Y011915D01*
X010908Y011915D01*
X010908Y011915D02*
X010838Y011898D01*
X010838Y011898D02*
X010791Y011864D01*
X010791Y011864D02*
X010768Y011812D01*
X010768Y011812D02*
X010768Y011795D01*
X010768Y011795D02*
X010791Y011744D01*
X010791Y011744D02*
X010838Y011710D01*
X010838Y011710D02*
X010908Y011693D01*
X011674Y011455D02*
X011651Y011489D01*
X011580Y011540D01*
X011580Y011540D02*
X012072Y011540D01*
X011580Y011915D02*
X011580Y011744D01*
X011580Y011744D02*
X011791Y011727D01*
X011791Y011727D02*
X011768Y011744D01*
X011768Y011744D02*
X011744Y011795D01*
X011744Y011795D02*
X011744Y011847D01*
X011744Y011847D02*
X011768Y011898D01*
X011815Y011932D01*
X011885Y011949D01*
X011932Y011932D01*
X012002Y011915D01*
X012002Y011915D02*
X012049Y011881D01*
X012049Y011881D02*
X012072Y011830D01*
X012072Y011830D02*
X012072Y011778D01*
X012072Y011778D02*
X012049Y011727D01*
X012049Y011727D02*
X012026Y011710D01*
X012026Y011710D02*
X011979Y011693D01*
X007674Y011455D02*
X007651Y011489D01*
X007580Y011540D01*
X007580Y011540D02*
X008072Y011540D01*
X007744Y011915D02*
X007815Y011898D01*
X007862Y011864D01*
X007885Y011812D01*
X007885Y011812D02*
X007885Y011795D01*
X007885Y011795D02*
X007862Y011744D01*
X007862Y011744D02*
X007815Y011710D01*
X007815Y011710D02*
X007744Y011693D01*
X007744Y011693D02*
X007721Y011693D01*
X007721Y011693D02*
X007651Y011710D01*
X007651Y011710D02*
X007604Y011744D01*
X007604Y011744D02*
X007580Y011795D01*
X007580Y011795D02*
X007580Y011812D01*
X007580Y011812D02*
X007604Y011864D01*
X007651Y011898D01*
X007744Y011915D01*
X007744Y011915D02*
X007862Y011915D01*
X007979Y011898D01*
X008049Y011864D01*
X008049Y011864D02*
X008072Y011812D01*
X008072Y011812D02*
X008072Y011778D01*
X008072Y011778D02*
X008049Y011727D01*
X008049Y011727D02*
X008002Y011710D01*
X006697Y011472D02*
X006674Y011472D01*
X006674Y011472D02*
X006627Y011489D01*
X006627Y011489D02*
X006604Y011506D01*
X006580Y011540D01*
X006580Y011540D02*
X006580Y011608D01*
X006580Y011608D02*
X006604Y011642D01*
X006604Y011642D02*
X006627Y011659D01*
X006627Y011659D02*
X006674Y011676D01*
X006674Y011676D02*
X006721Y011676D01*
X006721Y011676D02*
X006768Y011659D01*
X006768Y011659D02*
X006838Y011625D01*
X006838Y011625D02*
X007072Y011455D01*
X007072Y011455D02*
X007072Y011693D01*
X006580Y011949D02*
X006604Y011898D01*
X006674Y011864D01*
X006674Y011864D02*
X006791Y011847D01*
X006791Y011847D02*
X006862Y011847D01*
X006979Y011864D01*
X007049Y011898D01*
X007049Y011898D02*
X007072Y011949D01*
X007072Y011949D02*
X007072Y011983D01*
X007072Y011983D02*
X007049Y012034D01*
X007049Y012034D02*
X006979Y012068D01*
X006979Y012068D02*
X006862Y012085D01*
X006862Y012085D02*
X006791Y012085D01*
X006791Y012085D02*
X006674Y012068D01*
X006674Y012068D02*
X006604Y012034D01*
X006604Y012034D02*
X006580Y011983D01*
X006580Y011983D02*
X006580Y011949D01*
X008674Y011455D02*
X008651Y011489D01*
X008580Y011540D01*
X008580Y011540D02*
X009072Y011540D01*
X008580Y011778D02*
X008604Y011727D01*
X008604Y011727D02*
X008651Y011710D01*
X008651Y011710D02*
X008697Y011710D01*
X008697Y011710D02*
X008744Y011727D01*
X008744Y011727D02*
X008768Y011761D01*
X008768Y011761D02*
X008791Y011830D01*
X008791Y011830D02*
X008815Y011881D01*
X008862Y011915D01*
X008908Y011932D01*
X008908Y011932D02*
X008979Y011932D01*
X009026Y011915D01*
X009049Y011898D01*
X009049Y011898D02*
X009072Y011847D01*
X009072Y011847D02*
X009072Y011778D01*
X009072Y011778D02*
X009049Y011727D01*
X009049Y011727D02*
X009026Y011710D01*
X009026Y011710D02*
X008979Y011693D01*
X008979Y011693D02*
X008908Y011693D01*
X008908Y011693D02*
X008862Y011710D01*
X008862Y011710D02*
X008815Y011744D01*
X008815Y011744D02*
X008791Y011795D01*
X008791Y011795D02*
X008768Y011864D01*
X008744Y011898D01*
X008744Y011898D02*
X008697Y011915D01*
X008697Y011915D02*
X008651Y011915D01*
X008604Y011898D01*
X008580Y011847D01*
X008580Y011847D02*
X008580Y011778D01*
X009674Y011455D02*
X009651Y011489D01*
X009580Y011540D01*
X009580Y011540D02*
X010072Y011540D01*
X009580Y011932D02*
X010072Y011761D01*
X009580Y011693D02*
X009580Y011932D01*
X003697Y011472D02*
X003674Y011472D01*
X003674Y011472D02*
X003627Y011489D01*
X003627Y011489D02*
X003604Y011506D01*
X003580Y011540D01*
X003580Y011540D02*
X003580Y011608D01*
X003580Y011608D02*
X003604Y011642D01*
X003604Y011642D02*
X003627Y011659D01*
X003627Y011659D02*
X003674Y011676D01*
X003674Y011676D02*
X003721Y011676D01*
X003721Y011676D02*
X003768Y011659D01*
X003768Y011659D02*
X003838Y011625D01*
X003838Y011625D02*
X004072Y011455D01*
X004072Y011455D02*
X004072Y011693D01*
X003580Y011881D02*
X003580Y012068D01*
X003580Y012068D02*
X003768Y011966D01*
X003768Y012017D01*
X003768Y012017D02*
X003791Y012051D01*
X003791Y012051D02*
X003815Y012068D01*
X003815Y012068D02*
X003885Y012085D01*
X003885Y012085D02*
X003932Y012085D01*
X003932Y012085D02*
X004002Y012068D01*
X004002Y012068D02*
X004049Y012034D01*
X004049Y012034D02*
X004072Y011983D01*
X004072Y011983D02*
X004072Y011932D01*
X004072Y011932D02*
X004049Y011881D01*
X004049Y011881D02*
X004026Y011864D01*
X003979Y011847D01*
X002580Y011489D02*
X002580Y011676D01*
X002580Y011676D02*
X002768Y011574D01*
X002768Y011625D01*
X002791Y011659D01*
X002791Y011659D02*
X002815Y011676D01*
X002815Y011676D02*
X002885Y011693D01*
X002885Y011693D02*
X002932Y011693D01*
X002932Y011693D02*
X003002Y011676D01*
X003002Y011676D02*
X003049Y011642D01*
X003049Y011642D02*
X003072Y011591D01*
X003072Y011591D02*
X003072Y011540D01*
X003072Y011540D02*
X003049Y011489D01*
X003049Y011489D02*
X003026Y011472D01*
X002979Y011455D01*
X003026Y011864D02*
X003049Y011847D01*
X003049Y011847D02*
X003072Y011864D01*
X003072Y011864D02*
X003049Y011881D01*
X003049Y011881D02*
X003026Y011864D01*
X002580Y012068D02*
X002580Y012256D01*
X002580Y012256D02*
X002768Y012153D01*
X002768Y012153D02*
X002768Y012205D01*
X002791Y012239D01*
X002791Y012239D02*
X002815Y012256D01*
X002885Y012273D01*
X002932Y012273D01*
X003002Y012256D01*
X003002Y012256D02*
X003049Y012222D01*
X003049Y012222D02*
X003072Y012170D01*
X003072Y012170D02*
X003072Y012119D01*
X003072Y012119D02*
X003049Y012068D01*
X003049Y012068D02*
X003026Y012051D01*
X003026Y012051D02*
X002979Y012034D01*
X002580Y012426D02*
X003072Y012562D01*
X002580Y012699D02*
X003072Y012562D01*
X004697Y011472D02*
X004674Y011472D01*
X004674Y011472D02*
X004627Y011489D01*
X004627Y011489D02*
X004604Y011506D01*
X004580Y011540D01*
X004580Y011540D02*
X004580Y011608D01*
X004580Y011608D02*
X004604Y011642D01*
X004604Y011642D02*
X004627Y011659D01*
X004627Y011659D02*
X004674Y011676D01*
X004674Y011676D02*
X004721Y011676D01*
X004721Y011676D02*
X004768Y011659D01*
X004768Y011659D02*
X004838Y011625D01*
X004838Y011625D02*
X005072Y011455D01*
X005072Y011455D02*
X005072Y011693D01*
X004697Y011864D02*
X004674Y011864D01*
X004674Y011864D02*
X004627Y011881D01*
X004627Y011881D02*
X004604Y011898D01*
X004580Y011932D01*
X004580Y011932D02*
X004580Y012000D01*
X004580Y012000D02*
X004604Y012034D01*
X004604Y012034D02*
X004627Y012051D01*
X004627Y012051D02*
X004674Y012068D01*
X004674Y012068D02*
X004721Y012068D01*
X004721Y012068D02*
X004768Y012051D01*
X004768Y012051D02*
X004838Y012017D01*
X004838Y012017D02*
X005072Y011847D01*
X005072Y011847D02*
X005072Y012085D01*
X005697Y011472D02*
X005674Y011472D01*
X005674Y011472D02*
X005627Y011489D01*
X005627Y011489D02*
X005604Y011506D01*
X005580Y011540D01*
X005580Y011540D02*
X005580Y011608D01*
X005580Y011608D02*
X005604Y011642D01*
X005604Y011642D02*
X005627Y011659D01*
X005627Y011659D02*
X005674Y011676D01*
X005674Y011676D02*
X005721Y011676D01*
X005721Y011676D02*
X005768Y011659D01*
X005768Y011659D02*
X005838Y011625D01*
X005838Y011625D02*
X006072Y011455D01*
X006072Y011455D02*
X006072Y011693D01*
X005674Y011847D02*
X005651Y011881D01*
X005580Y011932D01*
X005580Y011932D02*
X006072Y011932D01*
X000590Y011455D02*
X001082Y011591D01*
X000590Y011727D02*
X001082Y011591D01*
X000590Y011881D02*
X001082Y011881D01*
X000590Y012034D02*
X001082Y012034D01*
X000590Y012034D02*
X001082Y012273D01*
X000590Y012273D02*
X001082Y012273D01*
X001697Y011710D02*
X001651Y011693D01*
X001651Y011693D02*
X001604Y011659D01*
X001604Y011659D02*
X001580Y011625D01*
X001580Y011625D02*
X001580Y011557D01*
X001580Y011557D02*
X001604Y011523D01*
X001651Y011489D01*
X001697Y011472D01*
X001697Y011472D02*
X001768Y011455D01*
X001885Y011455D01*
X001955Y011472D01*
X001955Y011472D02*
X002002Y011489D01*
X002002Y011489D02*
X002049Y011523D01*
X002049Y011523D02*
X002072Y011557D01*
X002072Y011557D02*
X002072Y011625D01*
X002072Y011625D02*
X002049Y011659D01*
X002049Y011659D02*
X002002Y011693D01*
X002002Y011693D02*
X001955Y011710D01*
X001955Y011710D02*
X001885Y011710D01*
X001885Y011625D02*
X001885Y011710D01*
X001580Y011864D02*
X002072Y011864D01*
X001580Y011864D02*
X002072Y012102D01*
X001580Y012102D02*
X002072Y012102D01*
X001580Y012256D02*
X002072Y012256D01*
X001580Y012256D02*
X001580Y012375D01*
X001580Y012375D02*
X001604Y012426D01*
X001604Y012426D02*
X001651Y012460D01*
X001651Y012460D02*
X001697Y012477D01*
X001697Y012477D02*
X001768Y012494D01*
X001768Y012494D02*
X001885Y012494D01*
X001885Y012494D02*
X001955Y012477D01*
X001955Y012477D02*
X002002Y012460D01*
X002002Y012460D02*
X002049Y012426D01*
X002049Y012426D02*
X002072Y012375D01*
X002072Y012375D02*
X002072Y012256D01*
X026047Y014587D02*
X026030Y014633D01*
X026030Y014633D02*
X025996Y014680D01*
X025996Y014680D02*
X025962Y014704D01*
X025962Y014704D02*
X025894Y014704D01*
X025860Y014680D01*
X025860Y014680D02*
X025826Y014633D01*
X025826Y014633D02*
X025809Y014587D01*
X025792Y014516D01*
X025792Y014516D02*
X025792Y014399D01*
X025792Y014399D02*
X025809Y014329D01*
X025826Y014282D01*
X025860Y014235D01*
X025894Y014212D01*
X025962Y014212D01*
X025962Y014212D02*
X025996Y014235D01*
X025996Y014235D02*
X026030Y014282D01*
X026030Y014282D02*
X026047Y014329D01*
X026047Y014329D02*
X026047Y014399D01*
X025962Y014399D02*
X026047Y014399D01*
X026201Y014704D02*
X026201Y014212D01*
X026201Y014704D02*
X026439Y014212D01*
X026439Y014704D02*
X026439Y014212D01*
X026593Y014704D02*
X026593Y014212D01*
X026593Y014704D02*
X026712Y014704D01*
X026712Y014704D02*
X026763Y014680D01*
X026763Y014680D02*
X026797Y014633D01*
X026797Y014633D02*
X026814Y014587D01*
X026814Y014587D02*
X026831Y014516D01*
X026831Y014516D02*
X026831Y014399D01*
X026831Y014399D02*
X026814Y014329D01*
X026814Y014329D02*
X026797Y014282D01*
X026797Y014282D02*
X026763Y014235D01*
X026763Y014235D02*
X026712Y014212D01*
X026712Y014212D02*
X026593Y014212D01*
X009001Y009837D02*
X009001Y009860D01*
X009018Y009907D01*
X009035Y009930D01*
X009035Y009930D02*
X009069Y009954D01*
X009137Y009954D01*
X009137Y009954D02*
X009171Y009930D01*
X009171Y009930D02*
X009188Y009907D01*
X009188Y009907D02*
X009205Y009860D01*
X009205Y009860D02*
X009205Y009813D01*
X009205Y009813D02*
X009188Y009766D01*
X009188Y009766D02*
X009154Y009696D01*
X009154Y009696D02*
X008984Y009462D01*
X009222Y009462D01*
X009597Y009954D02*
X009427Y009954D01*
X009410Y009743D01*
X009427Y009766D01*
X009427Y009766D02*
X009478Y009790D01*
X009529Y009790D01*
X009529Y009790D02*
X009580Y009766D01*
X009580Y009766D02*
X009614Y009719D01*
X009614Y009719D02*
X009631Y009649D01*
X009631Y009649D02*
X009614Y009602D01*
X009614Y009602D02*
X009597Y009532D01*
X009597Y009532D02*
X009563Y009485D01*
X009563Y009485D02*
X009512Y009462D01*
X009512Y009462D02*
X009461Y009462D01*
X009410Y009485D01*
X009393Y009508D01*
X009393Y009508D02*
X009376Y009555D01*
X009018Y008837D02*
X009018Y008860D01*
X009035Y008907D01*
X009052Y008930D01*
X009052Y008930D02*
X009086Y008954D01*
X009154Y008954D01*
X009154Y008954D02*
X009188Y008930D01*
X009188Y008930D02*
X009205Y008907D01*
X009205Y008907D02*
X009222Y008860D01*
X009222Y008860D02*
X009222Y008813D01*
X009222Y008813D02*
X009205Y008766D01*
X009205Y008766D02*
X009171Y008696D01*
X009171Y008696D02*
X009001Y008462D01*
X009239Y008462D01*
X009631Y008954D02*
X009461Y008462D01*
X009393Y008954D02*
X009631Y008954D01*
X009035Y007837D02*
X009035Y007860D01*
X009052Y007907D01*
X009069Y007930D01*
X009069Y007930D02*
X009103Y007954D01*
X009171Y007954D01*
X009171Y007954D02*
X009205Y007930D01*
X009205Y007930D02*
X009222Y007907D01*
X009222Y007907D02*
X009239Y007860D01*
X009239Y007860D02*
X009239Y007813D01*
X009239Y007813D02*
X009222Y007766D01*
X009222Y007766D02*
X009188Y007696D01*
X009188Y007696D02*
X009018Y007462D01*
X009256Y007462D01*
X009631Y007790D02*
X009614Y007719D01*
X009614Y007719D02*
X009580Y007672D01*
X009580Y007672D02*
X009529Y007649D01*
X009529Y007649D02*
X009512Y007649D01*
X009512Y007649D02*
X009461Y007672D01*
X009461Y007672D02*
X009427Y007719D01*
X009427Y007719D02*
X009410Y007790D01*
X009410Y007813D01*
X009410Y007813D02*
X009427Y007883D01*
X009427Y007883D02*
X009461Y007930D01*
X009461Y007930D02*
X009512Y007954D01*
X009512Y007954D02*
X009529Y007954D01*
X009529Y007954D02*
X009580Y007930D01*
X009580Y007930D02*
X009614Y007883D01*
X009614Y007883D02*
X009631Y007790D01*
X009631Y007790D02*
X009631Y007672D01*
X009631Y007672D02*
X009614Y007555D01*
X009614Y007555D02*
X009580Y007485D01*
X009580Y007485D02*
X009529Y007462D01*
X009529Y007462D02*
X009495Y007462D01*
X009444Y007485D01*
X009427Y007532D01*
X009108Y006954D02*
X009296Y006954D01*
X009193Y006766D01*
X009193Y006766D02*
X009245Y006766D01*
X009245Y006766D02*
X009279Y006743D01*
X009296Y006719D01*
X009296Y006719D02*
X009313Y006649D01*
X009313Y006649D02*
X009313Y006602D01*
X009313Y006602D02*
X009296Y006532D01*
X009262Y006485D01*
X009210Y006462D01*
X009210Y006462D02*
X009159Y006462D01*
X009159Y006462D02*
X009108Y006485D01*
X009108Y006485D02*
X009091Y006508D01*
X009091Y006508D02*
X009074Y006555D01*
X009466Y006860D02*
X009500Y006883D01*
X009500Y006883D02*
X009551Y006954D01*
X009551Y006954D02*
X009551Y006462D01*
X009035Y005954D02*
X009222Y005954D01*
X009222Y005954D02*
X009120Y005766D01*
X009120Y005766D02*
X009171Y005766D01*
X009171Y005766D02*
X009205Y005743D01*
X009205Y005743D02*
X009222Y005719D01*
X009222Y005719D02*
X009239Y005649D01*
X009239Y005649D02*
X009239Y005602D01*
X009239Y005602D02*
X009222Y005532D01*
X009222Y005532D02*
X009188Y005485D01*
X009188Y005485D02*
X009137Y005462D01*
X009137Y005462D02*
X009086Y005462D01*
X009035Y005485D01*
X009018Y005508D01*
X009018Y005508D02*
X009001Y005555D01*
X009427Y005954D02*
X009614Y005954D01*
X009614Y005954D02*
X009512Y005766D01*
X009512Y005766D02*
X009563Y005766D01*
X009563Y005766D02*
X009597Y005743D01*
X009597Y005743D02*
X009614Y005719D01*
X009614Y005719D02*
X009631Y005649D01*
X009631Y005649D02*
X009631Y005602D01*
X009631Y005602D02*
X009614Y005532D01*
X009614Y005532D02*
X009580Y005485D01*
X009580Y005485D02*
X009529Y005462D01*
X009529Y005462D02*
X009478Y005462D01*
X009427Y005485D01*
X009410Y005508D01*
X009410Y005508D02*
X009393Y005555D01*
X011001Y009837D02*
X011001Y009860D01*
X011018Y009907D01*
X011035Y009930D01*
X011035Y009930D02*
X011069Y009954D01*
X011137Y009954D01*
X011137Y009954D02*
X011171Y009930D01*
X011171Y009930D02*
X011188Y009907D01*
X011188Y009907D02*
X011205Y009860D01*
X011205Y009860D02*
X011205Y009813D01*
X011205Y009813D02*
X011188Y009766D01*
X011188Y009766D02*
X011154Y009696D01*
X011154Y009696D02*
X010984Y009462D01*
X011222Y009462D01*
X011546Y009954D02*
X011376Y009626D01*
X011631Y009626D01*
X011546Y009954D02*
X011546Y009462D01*
X011035Y008837D02*
X011035Y008860D01*
X011052Y008907D01*
X011069Y008930D01*
X011069Y008930D02*
X011103Y008954D01*
X011171Y008954D01*
X011171Y008954D02*
X011205Y008930D01*
X011205Y008930D02*
X011222Y008907D01*
X011222Y008907D02*
X011239Y008860D01*
X011239Y008860D02*
X011239Y008813D01*
X011239Y008813D02*
X011222Y008766D01*
X011222Y008766D02*
X011188Y008696D01*
X011188Y008696D02*
X011018Y008462D01*
X011256Y008462D01*
X011614Y008883D02*
X011597Y008930D01*
X011597Y008930D02*
X011546Y008954D01*
X011546Y008954D02*
X011512Y008954D01*
X011512Y008954D02*
X011461Y008930D01*
X011461Y008930D02*
X011427Y008860D01*
X011410Y008743D01*
X011410Y008626D01*
X011427Y008532D01*
X011461Y008485D01*
X011512Y008462D01*
X011512Y008462D02*
X011529Y008462D01*
X011529Y008462D02*
X011580Y008485D01*
X011580Y008485D02*
X011614Y008532D01*
X011614Y008532D02*
X011631Y008602D01*
X011631Y008602D02*
X011631Y008626D01*
X011631Y008626D02*
X011614Y008696D01*
X011614Y008696D02*
X011580Y008743D01*
X011580Y008743D02*
X011529Y008766D01*
X011529Y008766D02*
X011512Y008766D01*
X011512Y008766D02*
X011461Y008743D01*
X011427Y008696D01*
X011410Y008626D01*
X011018Y007837D02*
X011018Y007860D01*
X011035Y007907D01*
X011052Y007930D01*
X011052Y007930D02*
X011086Y007954D01*
X011154Y007954D01*
X011154Y007954D02*
X011188Y007930D01*
X011188Y007930D02*
X011205Y007907D01*
X011205Y007907D02*
X011222Y007860D01*
X011222Y007860D02*
X011222Y007813D01*
X011222Y007813D02*
X011205Y007766D01*
X011205Y007766D02*
X011171Y007696D01*
X011171Y007696D02*
X011001Y007462D01*
X011239Y007462D01*
X011478Y007954D02*
X011427Y007930D01*
X011427Y007930D02*
X011410Y007883D01*
X011410Y007883D02*
X011410Y007837D01*
X011427Y007790D01*
X011461Y007766D01*
X011461Y007766D02*
X011529Y007743D01*
X011529Y007743D02*
X011580Y007719D01*
X011580Y007719D02*
X011614Y007672D01*
X011614Y007672D02*
X011631Y007626D01*
X011631Y007626D02*
X011631Y007555D01*
X011631Y007555D02*
X011614Y007508D01*
X011614Y007508D02*
X011597Y007485D01*
X011597Y007485D02*
X011546Y007462D01*
X011546Y007462D02*
X011478Y007462D01*
X011427Y007485D01*
X011410Y007508D01*
X011410Y007508D02*
X011393Y007555D01*
X011393Y007555D02*
X011393Y007626D01*
X011410Y007672D01*
X011410Y007672D02*
X011444Y007719D01*
X011444Y007719D02*
X011495Y007743D01*
X011563Y007766D01*
X011563Y007766D02*
X011597Y007790D01*
X011597Y007790D02*
X011614Y007837D01*
X011614Y007837D02*
X011614Y007883D01*
X011614Y007883D02*
X011597Y007930D01*
X011597Y007930D02*
X011546Y007954D01*
X011546Y007954D02*
X011478Y007954D01*
X011035Y006954D02*
X011222Y006954D01*
X011222Y006954D02*
X011120Y006766D01*
X011120Y006766D02*
X011171Y006766D01*
X011171Y006766D02*
X011205Y006743D01*
X011205Y006743D02*
X011222Y006719D01*
X011222Y006719D02*
X011239Y006649D01*
X011239Y006649D02*
X011239Y006602D01*
X011239Y006602D02*
X011222Y006532D01*
X011222Y006532D02*
X011188Y006485D01*
X011188Y006485D02*
X011137Y006462D01*
X011137Y006462D02*
X011086Y006462D01*
X011035Y006485D01*
X011018Y006508D01*
X011018Y006508D02*
X011001Y006555D01*
X011495Y006954D02*
X011444Y006930D01*
X011444Y006930D02*
X011410Y006860D01*
X011393Y006743D01*
X011393Y006672D01*
X011393Y006672D02*
X011410Y006555D01*
X011410Y006555D02*
X011444Y006485D01*
X011495Y006462D01*
X011529Y006462D01*
X011529Y006462D02*
X011580Y006485D01*
X011580Y006485D02*
X011614Y006555D01*
X011614Y006555D02*
X011631Y006672D01*
X011631Y006672D02*
X011631Y006743D01*
X011631Y006743D02*
X011614Y006860D01*
X011614Y006860D02*
X011580Y006930D01*
X011580Y006930D02*
X011529Y006954D01*
X011529Y006954D02*
X011495Y006954D01*
X011035Y005954D02*
X011222Y005954D01*
X011222Y005954D02*
X011120Y005766D01*
X011120Y005766D02*
X011171Y005766D01*
X011171Y005766D02*
X011205Y005743D01*
X011205Y005743D02*
X011222Y005719D01*
X011222Y005719D02*
X011239Y005649D01*
X011239Y005649D02*
X011239Y005602D01*
X011239Y005602D02*
X011222Y005532D01*
X011222Y005532D02*
X011188Y005485D01*
X011188Y005485D02*
X011137Y005462D01*
X011137Y005462D02*
X011086Y005462D01*
X011035Y005485D01*
X011018Y005508D01*
X011018Y005508D02*
X011001Y005555D01*
X011410Y005837D02*
X011410Y005860D01*
X011427Y005907D01*
X011444Y005930D01*
X011444Y005930D02*
X011478Y005954D01*
X011546Y005954D01*
X011546Y005954D02*
X011580Y005930D01*
X011580Y005930D02*
X011597Y005907D01*
X011597Y005907D02*
X011614Y005860D01*
X011614Y005860D02*
X011614Y005813D01*
X011614Y005813D02*
X011597Y005766D01*
X011597Y005766D02*
X011563Y005696D01*
X011563Y005696D02*
X011393Y005462D01*
X011631Y005462D01*
X011447Y017510D02*
X011401Y017493D01*
X011401Y017493D02*
X011354Y017459D01*
X011354Y017459D02*
X011330Y017425D01*
X011330Y017425D02*
X011330Y017357D01*
X011330Y017357D02*
X011354Y017323D01*
X011401Y017289D01*
X011447Y017272D01*
X011447Y017272D02*
X011518Y017255D01*
X011635Y017255D01*
X011705Y017272D01*
X011705Y017272D02*
X011752Y017289D01*
X011752Y017289D02*
X011799Y017323D01*
X011799Y017323D02*
X011822Y017357D01*
X011822Y017357D02*
X011822Y017425D01*
X011822Y017425D02*
X011799Y017459D01*
X011799Y017459D02*
X011752Y017493D01*
X011752Y017493D02*
X011705Y017510D01*
X011330Y017800D02*
X011822Y017664D01*
X011330Y017800D02*
X011822Y017936D01*
X011658Y017715D02*
X011658Y017885D01*
X011330Y018090D02*
X011822Y018090D01*
X011330Y018090D02*
X011822Y018328D01*
X011330Y018328D02*
X011822Y018328D01*
X011330Y018482D02*
X011822Y018482D01*
X011330Y018720D02*
X011822Y018720D01*
X011565Y018482D02*
X011565Y018720D01*
X009447Y017510D02*
X009401Y017493D01*
X009401Y017493D02*
X009354Y017459D01*
X009354Y017459D02*
X009330Y017425D01*
X009330Y017425D02*
X009330Y017357D01*
X009330Y017357D02*
X009354Y017323D01*
X009401Y017289D01*
X009447Y017272D01*
X009447Y017272D02*
X009518Y017255D01*
X009635Y017255D01*
X009705Y017272D01*
X009705Y017272D02*
X009752Y017289D01*
X009752Y017289D02*
X009799Y017323D01*
X009799Y017323D02*
X009822Y017357D01*
X009822Y017357D02*
X009822Y017425D01*
X009822Y017425D02*
X009799Y017459D01*
X009799Y017459D02*
X009752Y017493D01*
X009752Y017493D02*
X009705Y017510D01*
X009705Y017510D02*
X009635Y017510D01*
X009635Y017425D02*
X009635Y017510D01*
X009330Y017664D02*
X009822Y017664D01*
X009330Y017664D02*
X009822Y017902D01*
X009330Y017902D02*
X009822Y017902D01*
X009330Y018056D02*
X009822Y018056D01*
X009330Y018056D02*
X009330Y018175D01*
X009330Y018175D02*
X009354Y018226D01*
X009354Y018226D02*
X009401Y018260D01*
X009401Y018260D02*
X009447Y018277D01*
X009447Y018277D02*
X009518Y018294D01*
X009518Y018294D02*
X009635Y018294D01*
X009635Y018294D02*
X009705Y018277D01*
X009705Y018277D02*
X009752Y018260D01*
X009752Y018260D02*
X009799Y018226D01*
X009799Y018226D02*
X009822Y018175D01*
X009822Y018175D02*
X009822Y018056D01*
X013447Y017510D02*
X013401Y017493D01*
X013401Y017493D02*
X013354Y017459D01*
X013354Y017459D02*
X013330Y017425D01*
X013330Y017425D02*
X013330Y017357D01*
X013330Y017357D02*
X013354Y017323D01*
X013401Y017289D01*
X013447Y017272D01*
X013447Y017272D02*
X013518Y017255D01*
X013635Y017255D01*
X013705Y017272D01*
X013705Y017272D02*
X013752Y017289D01*
X013752Y017289D02*
X013799Y017323D01*
X013799Y017323D02*
X013822Y017357D01*
X013822Y017357D02*
X013822Y017425D01*
X013822Y017425D02*
X013799Y017459D01*
X013799Y017459D02*
X013752Y017493D01*
X013752Y017493D02*
X013705Y017510D01*
X013330Y017800D02*
X013822Y017664D01*
X013330Y017800D02*
X013822Y017936D01*
X013658Y017715D02*
X013658Y017885D01*
X013330Y018090D02*
X013822Y018090D01*
X013330Y018090D02*
X013822Y018328D01*
X013330Y018328D02*
X013822Y018328D01*
X013330Y018482D02*
X013822Y018482D01*
X013822Y018482D02*
X013822Y018686D01*
X015628Y015015D02*
X015606Y015047D01*
X015606Y015047D02*
X015538Y015096D01*
X015538Y015096D02*
X016011Y015096D01*
X015651Y015260D02*
X015628Y015260D01*
X015628Y015260D02*
X015583Y015276D01*
X015583Y015276D02*
X015561Y015293D01*
X015538Y015325D01*
X015538Y015325D02*
X015538Y015391D01*
X015538Y015391D02*
X015561Y015424D01*
X015583Y015440D01*
X015583Y015440D02*
X015628Y015456D01*
X015628Y015456D02*
X015673Y015456D01*
X015673Y015456D02*
X015718Y015440D01*
X015718Y015440D02*
X015786Y015407D01*
X015786Y015407D02*
X016011Y015244D01*
X016011Y015473D01*
X015538Y015718D02*
X015561Y015669D01*
X015561Y015669D02*
X015628Y015636D01*
X015628Y015636D02*
X015741Y015620D01*
X015808Y015620D01*
X015808Y015620D02*
X015921Y015636D01*
X015921Y015636D02*
X015988Y015669D01*
X015988Y015669D02*
X016011Y015718D01*
X016011Y015718D02*
X016011Y015751D01*
X015988Y015800D01*
X015988Y015800D02*
X015921Y015833D01*
X015808Y015849D01*
X015808Y015849D02*
X015741Y015849D01*
X015741Y015849D02*
X015628Y015833D01*
X015628Y015833D02*
X015561Y015800D01*
X015538Y015751D01*
X015538Y015751D02*
X015538Y015718D01*
X036080Y012255D02*
X036572Y012255D01*
X036080Y012255D02*
X036080Y012408D01*
X036080Y012408D02*
X036104Y012459D01*
X036104Y012459D02*
X036127Y012476D01*
X036127Y012476D02*
X036174Y012493D01*
X036174Y012493D02*
X036221Y012493D01*
X036221Y012493D02*
X036268Y012476D01*
X036268Y012476D02*
X036291Y012459D01*
X036291Y012459D02*
X036315Y012408D01*
X036315Y012255D01*
X036315Y012374D02*
X036572Y012493D01*
X036080Y012647D02*
X036572Y012885D01*
X036080Y012885D02*
X036572Y012647D01*
X037080Y012374D02*
X037572Y012374D01*
X037080Y012255D02*
X037080Y012493D01*
X037080Y012647D02*
X037572Y012885D01*
X037080Y012885D02*
X037572Y012647D01*
X036080Y010255D02*
X036572Y010255D01*
X036080Y010255D02*
X036080Y010408D01*
X036080Y010408D02*
X036104Y010459D01*
X036104Y010459D02*
X036127Y010476D01*
X036127Y010476D02*
X036174Y010493D01*
X036174Y010493D02*
X036221Y010493D01*
X036221Y010493D02*
X036268Y010476D01*
X036268Y010476D02*
X036291Y010459D01*
X036291Y010459D02*
X036315Y010408D01*
X036315Y010255D01*
X036315Y010374D02*
X036572Y010493D01*
X036080Y010647D02*
X036572Y010885D01*
X036080Y010885D02*
X036572Y010647D01*
X037080Y010374D02*
X037572Y010374D01*
X037080Y010255D02*
X037080Y010493D01*
X037080Y010647D02*
X037572Y010885D01*
X037080Y010885D02*
X037572Y010647D01*
X036080Y008255D02*
X036572Y008255D01*
X036080Y008255D02*
X036080Y008408D01*
X036080Y008408D02*
X036104Y008459D01*
X036104Y008459D02*
X036127Y008476D01*
X036127Y008476D02*
X036174Y008493D01*
X036174Y008493D02*
X036221Y008493D01*
X036221Y008493D02*
X036268Y008476D01*
X036268Y008476D02*
X036291Y008459D01*
X036291Y008459D02*
X036315Y008408D01*
X036315Y008255D01*
X036315Y008374D02*
X036572Y008493D01*
X036080Y008647D02*
X036572Y008885D01*
X036080Y008885D02*
X036572Y008647D01*
X037080Y008374D02*
X037572Y008374D01*
X037080Y008255D02*
X037080Y008493D01*
X037080Y008647D02*
X037572Y008885D01*
X037080Y008885D02*
X037572Y008647D01*
X036080Y006255D02*
X036572Y006255D01*
X036080Y006255D02*
X036080Y006408D01*
X036080Y006408D02*
X036104Y006459D01*
X036104Y006459D02*
X036127Y006476D01*
X036127Y006476D02*
X036174Y006493D01*
X036174Y006493D02*
X036221Y006493D01*
X036221Y006493D02*
X036268Y006476D01*
X036268Y006476D02*
X036291Y006459D01*
X036291Y006459D02*
X036315Y006408D01*
X036315Y006255D01*
X036315Y006374D02*
X036572Y006493D01*
X036080Y006647D02*
X036572Y006885D01*
X036080Y006885D02*
X036572Y006647D01*
X037080Y006374D02*
X037572Y006374D01*
X037080Y006255D02*
X037080Y006493D01*
X037080Y006647D02*
X037572Y006885D01*
X037080Y006885D02*
X037572Y006647D01*
X033197Y012558D02*
X033151Y012541D01*
X033151Y012541D02*
X033104Y012507D01*
X033104Y012507D02*
X033080Y012473D01*
X033080Y012473D02*
X033080Y012405D01*
X033080Y012405D02*
X033104Y012371D01*
X033151Y012337D01*
X033197Y012320D01*
X033197Y012320D02*
X033268Y012303D01*
X033385Y012303D01*
X033455Y012320D01*
X033455Y012320D02*
X033502Y012337D01*
X033502Y012337D02*
X033549Y012371D01*
X033549Y012371D02*
X033572Y012405D01*
X033572Y012405D02*
X033572Y012473D01*
X033572Y012473D02*
X033549Y012507D01*
X033549Y012507D02*
X033502Y012541D01*
X033502Y012541D02*
X033455Y012558D01*
X033455Y012558D02*
X033385Y012558D01*
X033385Y012473D02*
X033385Y012558D01*
X033197Y010558D02*
X033151Y010541D01*
X033151Y010541D02*
X033104Y010507D01*
X033104Y010507D02*
X033080Y010473D01*
X033080Y010473D02*
X033080Y010405D01*
X033080Y010405D02*
X033104Y010371D01*
X033151Y010337D01*
X033197Y010320D01*
X033197Y010320D02*
X033268Y010303D01*
X033385Y010303D01*
X033455Y010320D01*
X033455Y010320D02*
X033502Y010337D01*
X033502Y010337D02*
X033549Y010371D01*
X033549Y010371D02*
X033572Y010405D01*
X033572Y010405D02*
X033572Y010473D01*
X033572Y010473D02*
X033549Y010507D01*
X033549Y010507D02*
X033502Y010541D01*
X033502Y010541D02*
X033455Y010558D01*
X033455Y010558D02*
X033385Y010558D01*
X033385Y010473D02*
X033385Y010558D01*
X033197Y008558D02*
X033151Y008541D01*
X033151Y008541D02*
X033104Y008507D01*
X033104Y008507D02*
X033080Y008473D01*
X033080Y008473D02*
X033080Y008405D01*
X033080Y008405D02*
X033104Y008371D01*
X033151Y008337D01*
X033197Y008320D01*
X033197Y008320D02*
X033268Y008303D01*
X033385Y008303D01*
X033455Y008320D01*
X033455Y008320D02*
X033502Y008337D01*
X033502Y008337D02*
X033549Y008371D01*
X033549Y008371D02*
X033572Y008405D01*
X033572Y008405D02*
X033572Y008473D01*
X033572Y008473D02*
X033549Y008507D01*
X033549Y008507D02*
X033502Y008541D01*
X033502Y008541D02*
X033455Y008558D01*
X033455Y008558D02*
X033385Y008558D01*
X033385Y008473D02*
X033385Y008558D01*
X033197Y006558D02*
X033151Y006541D01*
X033151Y006541D02*
X033104Y006507D01*
X033104Y006507D02*
X033080Y006473D01*
X033080Y006473D02*
X033080Y006405D01*
X033080Y006405D02*
X033104Y006371D01*
X033151Y006337D01*
X033197Y006320D01*
X033197Y006320D02*
X033268Y006303D01*
X033385Y006303D01*
X033455Y006320D01*
X033455Y006320D02*
X033502Y006337D01*
X033502Y006337D02*
X033549Y006371D01*
X033549Y006371D02*
X033572Y006405D01*
X033572Y006405D02*
X033572Y006473D01*
X033572Y006473D02*
X033549Y006507D01*
X033549Y006507D02*
X033502Y006541D01*
X033502Y006541D02*
X033455Y006558D01*
X033455Y006558D02*
X033385Y006558D01*
X033385Y006473D02*
X033385Y006558D01*
X033197Y004558D02*
X033151Y004541D01*
X033151Y004541D02*
X033104Y004507D01*
X033104Y004507D02*
X033080Y004473D01*
X033080Y004473D02*
X033080Y004405D01*
X033080Y004405D02*
X033104Y004371D01*
X033151Y004337D01*
X033197Y004320D01*
X033197Y004320D02*
X033268Y004303D01*
X033385Y004303D01*
X033455Y004320D01*
X033455Y004320D02*
X033502Y004337D01*
X033502Y004337D02*
X033549Y004371D01*
X033549Y004371D02*
X033572Y004405D01*
X033572Y004405D02*
X033572Y004473D01*
X033572Y004473D02*
X033549Y004507D01*
X033549Y004507D02*
X033502Y004541D01*
X033502Y004541D02*
X033455Y004558D01*
X033455Y004558D02*
X033385Y004558D01*
X033385Y004473D02*
X033385Y004558D01*
X020382Y017694D02*
X020348Y017670D01*
X020348Y017670D02*
X020314Y017623D01*
X020314Y017623D02*
X020297Y017577D01*
X020280Y017506D01*
X020280Y017506D02*
X020280Y017389D01*
X020280Y017389D02*
X020297Y017319D01*
X020314Y017272D01*
X020348Y017225D01*
X020382Y017202D01*
X020450Y017202D01*
X020484Y017225D01*
X020484Y017225D02*
X020518Y017272D01*
X020518Y017272D02*
X020535Y017319D01*
X020535Y017319D02*
X020552Y017389D01*
X020552Y017389D02*
X020552Y017506D01*
X020552Y017506D02*
X020535Y017577D01*
X020535Y017577D02*
X020518Y017623D01*
X020518Y017623D02*
X020484Y017670D01*
X020484Y017670D02*
X020450Y017694D01*
X020382Y017694D01*
X020706Y017694D02*
X020706Y017202D01*
X020706Y017694D02*
X020944Y017202D01*
X020944Y017694D02*
X020944Y017202D01*
X021405Y017787D02*
X021098Y017037D01*
X021660Y017694D02*
X021626Y017670D01*
X021626Y017670D02*
X021592Y017623D01*
X021592Y017623D02*
X021575Y017577D01*
X021558Y017506D01*
X021558Y017506D02*
X021558Y017389D01*
X021558Y017389D02*
X021575Y017319D01*
X021592Y017272D01*
X021592Y017272D02*
X021626Y017225D01*
X021626Y017225D02*
X021660Y017202D01*
X021660Y017202D02*
X021728Y017202D01*
X021728Y017202D02*
X021762Y017225D01*
X021762Y017225D02*
X021797Y017272D01*
X021814Y017319D01*
X021831Y017389D01*
X021831Y017389D02*
X021831Y017506D01*
X021831Y017506D02*
X021814Y017577D01*
X021797Y017623D01*
X021797Y017623D02*
X021762Y017670D01*
X021762Y017670D02*
X021728Y017694D01*
X021728Y017694D02*
X021660Y017694D01*
X021984Y017694D02*
X021984Y017202D01*
X021984Y017694D02*
X022206Y017694D01*
X021984Y017459D02*
X022120Y017459D01*
X022359Y017694D02*
X022359Y017202D01*
X022359Y017694D02*
X022581Y017694D01*
X022359Y017459D02*
X022495Y017459D01*
X030705Y017694D02*
X030705Y017202D01*
X030705Y017694D02*
X030859Y017694D01*
X030910Y017670D01*
X030910Y017670D02*
X030927Y017647D01*
X030944Y017600D01*
X030944Y017530D01*
X030927Y017483D01*
X030910Y017459D01*
X030910Y017459D02*
X030859Y017436D01*
X030705Y017436D01*
X031200Y017694D02*
X031165Y017670D01*
X031165Y017670D02*
X031131Y017623D01*
X031131Y017623D02*
X031114Y017577D01*
X031114Y017577D02*
X031097Y017506D01*
X031097Y017506D02*
X031097Y017389D01*
X031097Y017389D02*
X031114Y017319D01*
X031114Y017319D02*
X031131Y017272D01*
X031131Y017272D02*
X031165Y017225D01*
X031165Y017225D02*
X031200Y017202D01*
X031268Y017202D01*
X031302Y017225D01*
X031336Y017272D01*
X031353Y017319D01*
X031370Y017389D01*
X031370Y017389D02*
X031370Y017506D01*
X031370Y017506D02*
X031353Y017577D01*
X031336Y017623D01*
X031336Y017623D02*
X031302Y017670D01*
X031302Y017670D02*
X031268Y017694D01*
X031200Y017694D01*
X031523Y017694D02*
X031609Y017202D01*
X031694Y017694D02*
X031609Y017202D01*
X031694Y017694D02*
X031779Y017202D01*
X031864Y017694D02*
X031779Y017202D01*
X032018Y017694D02*
X032018Y017202D01*
X032018Y017694D02*
X032239Y017694D01*
X032018Y017459D02*
X032154Y017459D01*
X032018Y017202D02*
X032239Y017202D01*
X032393Y017694D02*
X032393Y017202D01*
X032393Y017694D02*
X032546Y017694D01*
X032546Y017694D02*
X032597Y017670D01*
X032597Y017670D02*
X032614Y017647D01*
X032614Y017647D02*
X032631Y017600D01*
X032631Y017600D02*
X032631Y017553D01*
X032631Y017553D02*
X032614Y017506D01*
X032614Y017506D02*
X032597Y017483D01*
X032597Y017483D02*
X032546Y017459D01*
X032546Y017459D02*
X032393Y017459D01*
X032512Y017459D02*
X032631Y017202D01*
X000280Y005255D02*
X014280Y005255D01*
X014280Y010255D01*
X000280Y010255D01*
X000280Y005255D01*
D18*
X029708Y003711D02*
X029653Y003786D01*
X029653Y003786D02*
X029571Y003823D01*
X029571Y003823D02*
X029462Y003823D01*
X029462Y003823D02*
X029380Y003786D01*
X029380Y003786D02*
X029326Y003711D01*
X029326Y003636D01*
X029353Y003561D01*
X029353Y003561D02*
X029380Y003523D01*
X029380Y003523D02*
X029435Y003486D01*
X029599Y003411D01*
X029653Y003373D01*
X029653Y003373D02*
X029680Y003336D01*
X029680Y003336D02*
X029708Y003261D01*
X029708Y003148D01*
X029708Y003148D02*
X029653Y003073D01*
X029653Y003073D02*
X029571Y003036D01*
X029571Y003036D02*
X029462Y003036D01*
X029462Y003036D02*
X029380Y003073D01*
X029380Y003073D02*
X029326Y003148D01*
X029953Y003336D02*
X030280Y003336D01*
X030280Y003336D02*
X030280Y003411D01*
X030280Y003411D02*
X030253Y003486D01*
X030253Y003486D02*
X030226Y003523D01*
X030226Y003523D02*
X030171Y003561D01*
X030171Y003561D02*
X030090Y003561D01*
X030035Y003523D01*
X030035Y003523D02*
X029980Y003448D01*
X029980Y003448D02*
X029953Y003336D01*
X029953Y003336D02*
X029953Y003261D01*
X029953Y003261D02*
X029980Y003148D01*
X029980Y003148D02*
X030035Y003073D01*
X030035Y003073D02*
X030090Y003036D01*
X030171Y003036D01*
X030171Y003036D02*
X030226Y003073D01*
X030226Y003073D02*
X030280Y003148D01*
X030526Y003561D02*
X030526Y003036D01*
X030526Y003336D02*
X030553Y003448D01*
X030553Y003448D02*
X030608Y003523D01*
X030608Y003523D02*
X030662Y003561D01*
X030662Y003561D02*
X030744Y003561D01*
X030990Y003823D02*
X031017Y003786D01*
X031044Y003823D01*
X031044Y003823D02*
X031017Y003861D01*
X030990Y003823D01*
X031017Y003561D02*
X031017Y003036D01*
X031617Y003561D02*
X031617Y003036D01*
X031617Y003448D02*
X031562Y003523D01*
X031562Y003523D02*
X031508Y003561D01*
X031426Y003561D01*
X031371Y003523D01*
X031371Y003523D02*
X031317Y003448D01*
X031317Y003448D02*
X031290Y003336D01*
X031290Y003261D01*
X031317Y003148D01*
X031317Y003148D02*
X031371Y003073D01*
X031371Y003073D02*
X031426Y003036D01*
X031508Y003036D01*
X031562Y003073D01*
X031562Y003073D02*
X031617Y003148D01*
X031862Y003823D02*
X031862Y003036D01*
X032108Y003673D02*
X032162Y003711D01*
X032162Y003711D02*
X032244Y003823D01*
X032244Y003823D02*
X032244Y003036D01*
X029665Y005711D02*
X029610Y005786D01*
X029610Y005786D02*
X029529Y005823D01*
X029529Y005823D02*
X029420Y005823D01*
X029420Y005823D02*
X029338Y005786D01*
X029283Y005711D01*
X029283Y005711D02*
X029283Y005636D01*
X029283Y005636D02*
X029310Y005561D01*
X029310Y005561D02*
X029338Y005523D01*
X029338Y005523D02*
X029392Y005486D01*
X029392Y005486D02*
X029556Y005411D01*
X029610Y005373D01*
X029610Y005373D02*
X029638Y005336D01*
X029665Y005261D01*
X029665Y005148D01*
X029665Y005148D02*
X029610Y005073D01*
X029610Y005073D02*
X029529Y005036D01*
X029420Y005036D01*
X029338Y005073D01*
X029338Y005073D02*
X029283Y005148D01*
X029910Y005336D02*
X030238Y005336D01*
X030238Y005411D01*
X030210Y005486D01*
X030210Y005486D02*
X030183Y005523D01*
X030183Y005523D02*
X030129Y005561D01*
X030047Y005561D01*
X029992Y005523D01*
X029992Y005523D02*
X029938Y005448D01*
X029938Y005448D02*
X029910Y005336D01*
X029910Y005336D02*
X029910Y005261D01*
X029910Y005261D02*
X029938Y005148D01*
X029938Y005148D02*
X029992Y005073D01*
X029992Y005073D02*
X030047Y005036D01*
X030129Y005036D01*
X030183Y005073D01*
X030183Y005073D02*
X030238Y005148D01*
X030483Y005561D02*
X030483Y005036D01*
X030483Y005336D02*
X030510Y005448D01*
X030510Y005448D02*
X030565Y005523D01*
X030565Y005523D02*
X030620Y005561D01*
X030701Y005561D01*
X030947Y005823D02*
X030974Y005786D01*
X030974Y005786D02*
X031001Y005823D01*
X031001Y005823D02*
X030974Y005861D01*
X030974Y005861D02*
X030947Y005823D01*
X030974Y005561D02*
X030974Y005036D01*
X031574Y005561D02*
X031574Y005036D01*
X031574Y005448D02*
X031520Y005523D01*
X031520Y005523D02*
X031465Y005561D01*
X031383Y005561D01*
X031383Y005561D02*
X031329Y005523D01*
X031329Y005523D02*
X031274Y005448D01*
X031274Y005448D02*
X031247Y005336D01*
X031247Y005261D01*
X031274Y005148D01*
X031274Y005148D02*
X031329Y005073D01*
X031329Y005073D02*
X031383Y005036D01*
X031383Y005036D02*
X031465Y005036D01*
X031520Y005073D01*
X031520Y005073D02*
X031574Y005148D01*
X031820Y005823D02*
X031820Y005036D01*
X032092Y005636D02*
X032092Y005673D01*
X032092Y005673D02*
X032120Y005748D01*
X032120Y005748D02*
X032147Y005786D01*
X032201Y005823D01*
X032201Y005823D02*
X032310Y005823D01*
X032310Y005823D02*
X032365Y005786D01*
X032392Y005748D01*
X032392Y005748D02*
X032420Y005673D01*
X032420Y005673D02*
X032420Y005598D01*
X032420Y005598D02*
X032392Y005523D01*
X032392Y005523D02*
X032338Y005411D01*
X032065Y005036D01*
X032447Y005036D01*
X029665Y007711D02*
X029610Y007786D01*
X029610Y007786D02*
X029529Y007823D01*
X029529Y007823D02*
X029420Y007823D01*
X029420Y007823D02*
X029338Y007786D01*
X029283Y007711D01*
X029283Y007711D02*
X029283Y007636D01*
X029283Y007636D02*
X029310Y007561D01*
X029310Y007561D02*
X029338Y007523D01*
X029338Y007523D02*
X029392Y007486D01*
X029392Y007486D02*
X029556Y007411D01*
X029610Y007373D01*
X029610Y007373D02*
X029638Y007336D01*
X029665Y007261D01*
X029665Y007148D01*
X029665Y007148D02*
X029610Y007073D01*
X029610Y007073D02*
X029529Y007036D01*
X029420Y007036D01*
X029338Y007073D01*
X029338Y007073D02*
X029283Y007148D01*
X029910Y007336D02*
X030238Y007336D01*
X030238Y007411D01*
X030210Y007486D01*
X030210Y007486D02*
X030183Y007523D01*
X030183Y007523D02*
X030129Y007561D01*
X030047Y007561D01*
X029992Y007523D01*
X029992Y007523D02*
X029938Y007448D01*
X029938Y007448D02*
X029910Y007336D01*
X029910Y007336D02*
X029910Y007261D01*
X029910Y007261D02*
X029938Y007148D01*
X029938Y007148D02*
X029992Y007073D01*
X029992Y007073D02*
X030047Y007036D01*
X030129Y007036D01*
X030183Y007073D01*
X030183Y007073D02*
X030238Y007148D01*
X030483Y007561D02*
X030483Y007036D01*
X030483Y007336D02*
X030510Y007448D01*
X030510Y007448D02*
X030565Y007523D01*
X030565Y007523D02*
X030620Y007561D01*
X030701Y007561D01*
X030947Y007823D02*
X030974Y007786D01*
X030974Y007786D02*
X031001Y007823D01*
X031001Y007823D02*
X030974Y007861D01*
X030974Y007861D02*
X030947Y007823D01*
X030974Y007561D02*
X030974Y007036D01*
X031574Y007561D02*
X031574Y007036D01*
X031574Y007448D02*
X031520Y007523D01*
X031520Y007523D02*
X031465Y007561D01*
X031383Y007561D01*
X031383Y007561D02*
X031329Y007523D01*
X031329Y007523D02*
X031274Y007448D01*
X031274Y007448D02*
X031247Y007336D01*
X031247Y007261D01*
X031274Y007148D01*
X031274Y007148D02*
X031329Y007073D01*
X031329Y007073D02*
X031383Y007036D01*
X031383Y007036D02*
X031465Y007036D01*
X031520Y007073D01*
X031520Y007073D02*
X031574Y007148D01*
X031820Y007823D02*
X031820Y007036D01*
X032120Y007823D02*
X032420Y007823D01*
X032420Y007823D02*
X032256Y007523D01*
X032256Y007523D02*
X032338Y007523D01*
X032338Y007523D02*
X032392Y007486D01*
X032392Y007486D02*
X032420Y007448D01*
X032420Y007448D02*
X032447Y007336D01*
X032447Y007261D01*
X032420Y007148D01*
X032420Y007148D02*
X032365Y007073D01*
X032365Y007073D02*
X032283Y007036D01*
X032283Y007036D02*
X032201Y007036D01*
X032201Y007036D02*
X032120Y007073D01*
X032120Y007073D02*
X032092Y007111D01*
X032092Y007111D02*
X032065Y007186D01*
X029651Y009711D02*
X029597Y009786D01*
X029515Y009823D01*
X029515Y009823D02*
X029406Y009823D01*
X029406Y009823D02*
X029324Y009786D01*
X029324Y009786D02*
X029270Y009711D01*
X029270Y009636D01*
X029297Y009561D01*
X029324Y009523D01*
X029324Y009523D02*
X029379Y009486D01*
X029542Y009411D01*
X029542Y009411D02*
X029597Y009373D01*
X029597Y009373D02*
X029624Y009336D01*
X029624Y009336D02*
X029651Y009261D01*
X029651Y009261D02*
X029651Y009148D01*
X029651Y009148D02*
X029597Y009073D01*
X029597Y009073D02*
X029515Y009036D01*
X029406Y009036D01*
X029324Y009073D01*
X029324Y009073D02*
X029270Y009148D01*
X029897Y009336D02*
X030224Y009336D01*
X030224Y009336D02*
X030224Y009411D01*
X030224Y009411D02*
X030197Y009486D01*
X030170Y009523D01*
X030170Y009523D02*
X030115Y009561D01*
X030033Y009561D01*
X030033Y009561D02*
X029979Y009523D01*
X029979Y009523D02*
X029924Y009448D01*
X029924Y009448D02*
X029897Y009336D01*
X029897Y009261D01*
X029924Y009148D01*
X029924Y009148D02*
X029979Y009073D01*
X029979Y009073D02*
X030033Y009036D01*
X030033Y009036D02*
X030115Y009036D01*
X030170Y009073D01*
X030170Y009073D02*
X030224Y009148D01*
X030470Y009561D02*
X030470Y009036D01*
X030470Y009336D02*
X030497Y009448D01*
X030497Y009448D02*
X030551Y009523D01*
X030551Y009523D02*
X030606Y009561D01*
X030688Y009561D01*
X030933Y009823D02*
X030960Y009786D01*
X030960Y009786D02*
X030988Y009823D01*
X030988Y009823D02*
X030960Y009861D01*
X030960Y009861D02*
X030933Y009823D01*
X030960Y009561D02*
X030960Y009036D01*
X031560Y009561D02*
X031560Y009036D01*
X031560Y009448D02*
X031506Y009523D01*
X031506Y009523D02*
X031451Y009561D01*
X031451Y009561D02*
X031370Y009561D01*
X031315Y009523D01*
X031315Y009523D02*
X031260Y009448D01*
X031260Y009448D02*
X031233Y009336D01*
X031233Y009336D02*
X031233Y009261D01*
X031233Y009261D02*
X031260Y009148D01*
X031260Y009148D02*
X031315Y009073D01*
X031315Y009073D02*
X031370Y009036D01*
X031451Y009036D01*
X031451Y009036D02*
X031506Y009073D01*
X031506Y009073D02*
X031560Y009148D01*
X031806Y009823D02*
X031806Y009036D01*
X032324Y009823D02*
X032051Y009298D01*
X032051Y009298D02*
X032460Y009298D01*
X032324Y009823D02*
X032324Y009036D01*
X029651Y011711D02*
X029597Y011786D01*
X029515Y011823D01*
X029515Y011823D02*
X029406Y011823D01*
X029406Y011823D02*
X029324Y011786D01*
X029324Y011786D02*
X029270Y011711D01*
X029270Y011636D01*
X029297Y011561D01*
X029324Y011523D01*
X029324Y011523D02*
X029379Y011486D01*
X029542Y011411D01*
X029542Y011411D02*
X029597Y011373D01*
X029597Y011373D02*
X029624Y011336D01*
X029624Y011336D02*
X029651Y011261D01*
X029651Y011261D02*
X029651Y011148D01*
X029651Y011148D02*
X029597Y011073D01*
X029597Y011073D02*
X029515Y011036D01*
X029406Y011036D01*
X029324Y011073D01*
X029324Y011073D02*
X029270Y011148D01*
X029897Y011336D02*
X030224Y011336D01*
X030224Y011336D02*
X030224Y011411D01*
X030224Y011411D02*
X030197Y011486D01*
X030170Y011523D01*
X030170Y011523D02*
X030115Y011561D01*
X030033Y011561D01*
X030033Y011561D02*
X029979Y011523D01*
X029979Y011523D02*
X029924Y011448D01*
X029924Y011448D02*
X029897Y011336D01*
X029897Y011261D01*
X029924Y011148D01*
X029924Y011148D02*
X029979Y011073D01*
X029979Y011073D02*
X030033Y011036D01*
X030033Y011036D02*
X030115Y011036D01*
X030170Y011073D01*
X030170Y011073D02*
X030224Y011148D01*
X030470Y011561D02*
X030470Y011036D01*
X030470Y011336D02*
X030497Y011448D01*
X030497Y011448D02*
X030551Y011523D01*
X030551Y011523D02*
X030606Y011561D01*
X030688Y011561D01*
X030933Y011823D02*
X030960Y011786D01*
X030960Y011786D02*
X030988Y011823D01*
X030988Y011823D02*
X030960Y011861D01*
X030960Y011861D02*
X030933Y011823D01*
X030960Y011561D02*
X030960Y011036D01*
X031560Y011561D02*
X031560Y011036D01*
X031560Y011448D02*
X031506Y011523D01*
X031506Y011523D02*
X031451Y011561D01*
X031451Y011561D02*
X031370Y011561D01*
X031315Y011523D01*
X031315Y011523D02*
X031260Y011448D01*
X031260Y011448D02*
X031233Y011336D01*
X031233Y011336D02*
X031233Y011261D01*
X031233Y011261D02*
X031260Y011148D01*
X031260Y011148D02*
X031315Y011073D01*
X031315Y011073D02*
X031370Y011036D01*
X031451Y011036D01*
X031451Y011036D02*
X031506Y011073D01*
X031506Y011073D02*
X031560Y011148D01*
X031806Y011823D02*
X031806Y011036D01*
X032406Y011823D02*
X032133Y011823D01*
X032133Y011823D02*
X032106Y011486D01*
X032133Y011523D01*
X032133Y011523D02*
X032215Y011561D01*
X032297Y011561D01*
X032379Y011523D01*
X032379Y011523D02*
X032433Y011448D01*
X032433Y011448D02*
X032460Y011336D01*
X032460Y011336D02*
X032433Y011261D01*
X032433Y011261D02*
X032406Y011148D01*
X032406Y011148D02*
X032351Y011073D01*
X032351Y011073D02*
X032270Y011036D01*
X032188Y011036D01*
X032106Y011073D01*
X032106Y011073D02*
X032079Y011111D01*
X032051Y011186D01*
X029679Y013711D02*
X029624Y013786D01*
X029624Y013786D02*
X029542Y013823D01*
X029542Y013823D02*
X029433Y013823D01*
X029433Y013823D02*
X029351Y013786D01*
X029351Y013786D02*
X029297Y013711D01*
X029297Y013636D01*
X029324Y013561D01*
X029324Y013561D02*
X029351Y013523D01*
X029351Y013523D02*
X029406Y013486D01*
X029570Y013411D01*
X029624Y013373D01*
X029624Y013373D02*
X029651Y013336D01*
X029651Y013336D02*
X029679Y013261D01*
X029679Y013148D01*
X029679Y013148D02*
X029624Y013073D01*
X029624Y013073D02*
X029542Y013036D01*
X029542Y013036D02*
X029433Y013036D01*
X029433Y013036D02*
X029351Y013073D01*
X029351Y013073D02*
X029297Y013148D01*
X029924Y013336D02*
X030251Y013336D01*
X030251Y013336D02*
X030251Y013411D01*
X030251Y013411D02*
X030224Y013486D01*
X030224Y013486D02*
X030197Y013523D01*
X030197Y013523D02*
X030142Y013561D01*
X030142Y013561D02*
X030060Y013561D01*
X030060Y013561D02*
X030006Y013523D01*
X030006Y013523D02*
X029951Y013448D01*
X029951Y013448D02*
X029924Y013336D01*
X029924Y013336D02*
X029924Y013261D01*
X029924Y013261D02*
X029951Y013148D01*
X029951Y013148D02*
X030006Y013073D01*
X030006Y013073D02*
X030060Y013036D01*
X030060Y013036D02*
X030142Y013036D01*
X030142Y013036D02*
X030197Y013073D01*
X030197Y013073D02*
X030251Y013148D01*
X030497Y013561D02*
X030497Y013036D01*
X030497Y013336D02*
X030524Y013448D01*
X030524Y013448D02*
X030579Y013523D01*
X030579Y013523D02*
X030633Y013561D01*
X030633Y013561D02*
X030715Y013561D01*
X030960Y013823D02*
X030988Y013786D01*
X031015Y013823D01*
X031015Y013823D02*
X030988Y013861D01*
X030960Y013823D01*
X030988Y013561D02*
X030988Y013036D01*
X031588Y013561D02*
X031588Y013036D01*
X031588Y013448D02*
X031533Y013523D01*
X031533Y013523D02*
X031479Y013561D01*
X031397Y013561D01*
X031342Y013523D01*
X031342Y013523D02*
X031288Y013448D01*
X031288Y013448D02*
X031260Y013336D01*
X031260Y013336D02*
X031260Y013261D01*
X031260Y013261D02*
X031288Y013148D01*
X031288Y013148D02*
X031342Y013073D01*
X031342Y013073D02*
X031397Y013036D01*
X031479Y013036D01*
X031533Y013073D01*
X031533Y013073D02*
X031588Y013148D01*
X031833Y013823D02*
X031833Y013036D01*
X032406Y013711D02*
X032379Y013786D01*
X032297Y013823D01*
X032297Y013823D02*
X032242Y013823D01*
X032242Y013823D02*
X032160Y013786D01*
X032160Y013786D02*
X032106Y013673D01*
X032106Y013673D02*
X032079Y013486D01*
X032079Y013298D01*
X032079Y013298D02*
X032106Y013148D01*
X032106Y013148D02*
X032160Y013073D01*
X032160Y013073D02*
X032242Y013036D01*
X032242Y013036D02*
X032270Y013036D01*
X032351Y013073D01*
X032351Y013073D02*
X032406Y013148D01*
X032406Y013148D02*
X032433Y013261D01*
X032433Y013261D02*
X032433Y013298D01*
X032433Y013298D02*
X032406Y013411D01*
X032351Y013486D01*
X032351Y013486D02*
X032270Y013523D01*
X032270Y013523D02*
X032242Y013523D01*
X032242Y013523D02*
X032160Y013486D01*
X032160Y013486D02*
X032106Y013411D01*
X032079Y013298D01*
X029665Y015711D02*
X029610Y015786D01*
X029610Y015786D02*
X029529Y015823D01*
X029529Y015823D02*
X029420Y015823D01*
X029420Y015823D02*
X029338Y015786D01*
X029283Y015711D01*
X029283Y015711D02*
X029283Y015636D01*
X029283Y015636D02*
X029310Y015561D01*
X029310Y015561D02*
X029338Y015523D01*
X029338Y015523D02*
X029392Y015486D01*
X029392Y015486D02*
X029556Y015411D01*
X029610Y015373D01*
X029610Y015373D02*
X029638Y015336D01*
X029665Y015261D01*
X029665Y015148D01*
X029665Y015148D02*
X029610Y015073D01*
X029610Y015073D02*
X029529Y015036D01*
X029420Y015036D01*
X029338Y015073D01*
X029338Y015073D02*
X029283Y015148D01*
X029910Y015336D02*
X030238Y015336D01*
X030238Y015411D01*
X030210Y015486D01*
X030210Y015486D02*
X030183Y015523D01*
X030183Y015523D02*
X030129Y015561D01*
X030047Y015561D01*
X029992Y015523D01*
X029992Y015523D02*
X029938Y015448D01*
X029938Y015448D02*
X029910Y015336D01*
X029910Y015336D02*
X029910Y015261D01*
X029910Y015261D02*
X029938Y015148D01*
X029938Y015148D02*
X029992Y015073D01*
X029992Y015073D02*
X030047Y015036D01*
X030129Y015036D01*
X030183Y015073D01*
X030183Y015073D02*
X030238Y015148D01*
X030483Y015561D02*
X030483Y015036D01*
X030483Y015336D02*
X030510Y015448D01*
X030510Y015448D02*
X030565Y015523D01*
X030565Y015523D02*
X030620Y015561D01*
X030701Y015561D01*
X030947Y015823D02*
X030974Y015786D01*
X030974Y015786D02*
X031001Y015823D01*
X031001Y015823D02*
X030974Y015861D01*
X030974Y015861D02*
X030947Y015823D01*
X030974Y015561D02*
X030974Y015036D01*
X031574Y015561D02*
X031574Y015036D01*
X031574Y015448D02*
X031520Y015523D01*
X031520Y015523D02*
X031465Y015561D01*
X031383Y015561D01*
X031383Y015561D02*
X031329Y015523D01*
X031329Y015523D02*
X031274Y015448D01*
X031274Y015448D02*
X031247Y015336D01*
X031247Y015261D01*
X031274Y015148D01*
X031274Y015148D02*
X031329Y015073D01*
X031329Y015073D02*
X031383Y015036D01*
X031383Y015036D02*
X031465Y015036D01*
X031520Y015073D01*
X031520Y015073D02*
X031574Y015148D01*
X031820Y015823D02*
X031820Y015036D01*
X032447Y015823D02*
X032174Y015036D01*
X032065Y015823D02*
X032447Y015823D01*
D25*
X032780Y004005D02*
X038780Y004005D01*
X038780Y003005D01*
X032780Y003005D01*
X032780Y004005D01*
X007785Y014713D02*
X007785Y013296D01*
X006919Y015138D02*
X005187Y015138D01*
X006919Y012871D02*
X005187Y012871D01*
X004163Y012871D02*
X000108Y012871D01*
X000108Y012871D02*
X000108Y015138D01*
X000108Y015138D02*
X004163Y015138D01*
X000108Y015005D02*
X000108Y015414D01*
X000108Y013005D02*
X000108Y012595D01*
X032780Y006005D02*
X038780Y006005D01*
X038780Y005005D01*
X032780Y005005D01*
X032780Y006005D01*
X032780Y008005D02*
X038780Y008005D01*
X038780Y007005D01*
X032780Y007005D01*
X032780Y008005D01*
X032780Y010005D02*
X038780Y010005D01*
X038780Y009005D01*
X032780Y009005D01*
X032780Y010005D01*
X032780Y012005D02*
X038780Y012005D01*
X038780Y011005D01*
X032780Y011005D01*
X032780Y012005D01*
X032780Y014005D02*
X038780Y014005D01*
X038780Y013005D01*
X032780Y013005D01*
X032780Y014005D01*
X032780Y016005D02*
X038780Y016005D01*
X038780Y015005D01*
X032780Y015005D01*
X032780Y016005D01*
X000280Y011255D02*
X014280Y011255D01*
X014280Y010255D01*
X000280Y010255D01*
X000280Y011255D01*
X000280Y005255D02*
X014280Y005255D01*
X014280Y004255D01*
X000280Y004255D01*
X000280Y005255D01*
X028030Y016005D02*
X028030Y002005D01*
X027030Y002005D01*
X027030Y016005D01*
X028030Y016005D01*
X022030Y016005D02*
X022030Y002005D01*
X021030Y002005D01*
X021030Y016005D01*
X022030Y016005D01*
X035630Y001255D02*
X035617Y001375D01*
X035581Y001491D01*
X035522Y001597D01*
X035443Y001690D01*
X035347Y001764D01*
X035238Y001817D01*
X035120Y001848D01*
X034999Y001854D01*
X034879Y001835D01*
X034765Y001793D01*
X034662Y001729D01*
X034574Y001645D01*
X034504Y001545D01*
X034457Y001433D01*
X034432Y001314D01*
X034433Y001193D01*
X034457Y001074D01*
X034505Y000962D01*
X034575Y000863D01*
X034663Y000779D01*
X034766Y000715D01*
X034880Y000673D01*
X035001Y000655D01*
X035122Y000662D01*
X035239Y000692D01*
X035348Y000746D01*
X035444Y000821D01*
X035523Y000913D01*
X035582Y001020D01*
X035618Y001136D01*
X035630Y001255D01*
X015680Y016805D02*
X015595Y016792D01*
X015517Y016756D01*
X015452Y016700D01*
X015406Y016628D01*
X015382Y016545D01*
X015380Y016505D01*
X015380Y016305D01*
X015405Y016005D01*
X015405Y015005D01*
X015380Y014705D01*
X015380Y014505D01*
X015680Y016805D02*
X015880Y016805D01*
X016180Y016505D02*
X016167Y016589D01*
X016131Y016667D01*
X016075Y016732D01*
X016003Y016778D01*
X015920Y016802D01*
X015880Y016805D01*
X016180Y016505D02*
X016180Y016305D01*
X016155Y016005D01*
X016155Y015005D01*
X016180Y014705D01*
X016180Y014505D01*
X015380Y014505D02*
X015392Y014420D01*
X015428Y014342D01*
X015484Y014277D01*
X015556Y014231D01*
X015639Y014207D01*
X015680Y014205D01*
X015880Y014205D01*
X015964Y014217D01*
X016042Y014253D01*
X016107Y014309D01*
X016153Y014381D01*
X016177Y014464D01*
X016180Y014505D01*
X015780Y014205D02*
X015780Y013905D01*
X015780Y016805D02*
X015780Y017105D01*
X008530Y016855D02*
X014530Y016855D01*
X014530Y013655D01*
X008530Y013655D01*
X008530Y016855D01*
X024930Y017505D02*
X024917Y017603D01*
X024881Y017695D01*
X024824Y017776D01*
X024748Y017840D01*
X024659Y017883D01*
X024562Y017903D01*
X024463Y017899D01*
X024368Y017870D01*
X024283Y017819D01*
X024213Y017749D01*
X024163Y017664D01*
X024135Y017569D01*
X024131Y017470D01*
X024152Y017373D01*
X024196Y017284D01*
X024260Y017209D01*
X024341Y017152D01*
X024434Y017116D01*
X024532Y017105D01*
X024630Y017117D01*
X024722Y017154D01*
X024803Y017212D01*
X024866Y017288D01*
X024909Y017378D01*
X024928Y017475D01*
X024930Y017505D01*
X025270Y018091D02*
X025350Y018011D01*
X025350Y016971D01*
X025270Y016891D01*
X023780Y016891D01*
X023700Y016971D01*
X023700Y018011D01*
X023780Y018091D01*
X025270Y018091D01*
X034963Y016605D02*
X035088Y016715D01*
X035195Y016843D01*
X035283Y016985D01*
X035349Y017138D01*
X035391Y017299D01*
X035409Y017465D01*
X035402Y017632D01*
X035372Y017796D01*
X035317Y017954D01*
X035239Y018101D01*
X035141Y018236D01*
X035024Y018355D01*
X034891Y018455D01*
X034744Y018535D01*
X034587Y018592D01*
X034424Y018626D01*
X034257Y018635D01*
X034091Y018619D01*
X033929Y018579D01*
X033775Y018516D01*
X033631Y018431D01*
X033502Y018325D01*
X033390Y018202D01*
X033297Y018063D01*
X033225Y017912D01*
X033177Y017753D01*
X033152Y017588D01*
X033152Y017421D01*
X033177Y017256D01*
X033226Y017096D01*
X033297Y016945D01*
X033390Y016807D01*
X033503Y016684D01*
X033596Y016605D01*
X033596Y016605D02*
X034963Y016605D01*
X007695Y009841D02*
X005530Y009841D01*
X005530Y009841D02*
X005530Y005668D01*
X007695Y005668D01*
X007880Y002895D02*
X005680Y002895D01*
X005680Y000615D01*
X005880Y000615D01*
X008680Y002895D02*
X010880Y002895D01*
X010880Y000615D01*
X010680Y000615D01*
X006730Y000615D02*
X009830Y000615D01*
X007180Y002405D02*
X007680Y002405D01*
X006880Y001105D02*
X007380Y001105D01*
X007130Y000855D02*
X007130Y001355D01*
X009180Y001105D02*
X009680Y001105D01*
X009430Y000855D02*
X009430Y001355D01*
D53*
X000030Y000005D02*
X039030Y000005D01*
X039030Y019005D01*
X000030Y019005D01*
X000030Y000005D01*
X000000Y000000D02*
M02*
