G70*
%FSLAX24Y24*%
%IPPOS*%
%LPD*%
%ADD10C,0.008*%
%ADD18C,0.012*%
%ADD25C,0.01*%
%ADD53C,0.001*%
D10*
X001290Y012385D02*
X002010Y012385D01*
X002010Y013125D01*
X000570Y013125D01*
X000570Y012385D01*
X001290Y012385D01*
X003020Y015585D02*
X005060Y015585D01*
X005060Y016425D01*
X003020Y016425D01*
X003020Y015585D01*
X009540Y017885D02*
X010260Y017885D01*
X010260Y018625D01*
X008820Y018625D01*
X008820Y017885D01*
X009540Y017885D01*
X004910Y017505D02*
X004910Y018225D01*
X004170Y018225D01*
X004170Y016785D01*
X004910Y016785D01*
X004910Y017505D01*
X025540Y004135D02*
X026260Y004135D01*
X026260Y004875D01*
X024820Y004875D01*
X024820Y004135D01*
X025540Y004135D01*
X016790Y000635D02*
X017510Y000635D01*
X017510Y001375D01*
X016070Y001375D01*
X016070Y000635D01*
X016790Y000635D01*
X031790Y017385D02*
X032510Y017385D01*
X032510Y018125D01*
X031070Y018125D01*
X031070Y017385D01*
X031790Y017385D01*
X012540Y013635D02*
X013260Y013635D01*
X013260Y014375D01*
X011820Y014375D01*
X011820Y013635D01*
X012540Y013635D01*
X019040Y003385D02*
X019760Y003385D01*
X019760Y004125D01*
X018320Y004125D01*
X018320Y003385D01*
X019040Y003385D01*
X009820Y009837D02*
X009820Y009860D01*
X009820Y009860D02*
X009803Y009907D01*
X009803Y009907D02*
X009786Y009930D01*
X009786Y009930D02*
X009752Y009954D01*
X009752Y009954D02*
X009684Y009954D01*
X009684Y009954D02*
X009650Y009930D01*
X009650Y009930D02*
X009633Y009907D01*
X009616Y009860D01*
X009616Y009813D01*
X009616Y009813D02*
X009633Y009766D01*
X009633Y009766D02*
X009667Y009696D01*
X009667Y009696D02*
X009837Y009462D01*
X009837Y009462D02*
X009599Y009462D01*
X009224Y009954D02*
X009394Y009954D01*
X009394Y009954D02*
X009411Y009743D01*
X009411Y009743D02*
X009394Y009766D01*
X009394Y009766D02*
X009343Y009790D01*
X009343Y009790D02*
X009292Y009790D01*
X009292Y009790D02*
X009241Y009766D01*
X009241Y009766D02*
X009207Y009719D01*
X009207Y009719D02*
X009190Y009649D01*
X009190Y009649D02*
X009207Y009602D01*
X009207Y009602D02*
X009224Y009532D01*
X009258Y009485D01*
X009309Y009462D01*
X009309Y009462D02*
X009360Y009462D01*
X009360Y009462D02*
X009411Y009485D01*
X009411Y009485D02*
X009428Y009508D01*
X009428Y009508D02*
X009445Y009555D01*
X009812Y008837D02*
X009812Y008860D01*
X009795Y008907D01*
X009778Y008930D01*
X009778Y008930D02*
X009744Y008954D01*
X009676Y008954D01*
X009641Y008930D01*
X009641Y008930D02*
X009624Y008907D01*
X009624Y008907D02*
X009607Y008860D01*
X009607Y008860D02*
X009607Y008813D01*
X009607Y008813D02*
X009624Y008766D01*
X009624Y008766D02*
X009658Y008696D01*
X009658Y008696D02*
X009829Y008462D01*
X009590Y008462D01*
X009198Y008954D02*
X009369Y008462D01*
X009437Y008954D02*
X009198Y008954D01*
X009803Y007837D02*
X009803Y007860D01*
X009803Y007860D02*
X009786Y007907D01*
X009786Y007907D02*
X009769Y007930D01*
X009769Y007930D02*
X009735Y007954D01*
X009735Y007954D02*
X009667Y007954D01*
X009633Y007930D01*
X009633Y007930D02*
X009616Y007907D01*
X009599Y007860D01*
X009599Y007813D01*
X009599Y007813D02*
X009616Y007766D01*
X009616Y007766D02*
X009650Y007696D01*
X009820Y007462D01*
X009820Y007462D02*
X009582Y007462D01*
X009207Y007790D02*
X009224Y007719D01*
X009224Y007719D02*
X009258Y007672D01*
X009258Y007672D02*
X009309Y007649D01*
X009309Y007649D02*
X009326Y007649D01*
X009326Y007649D02*
X009377Y007672D01*
X009377Y007672D02*
X009411Y007719D01*
X009411Y007719D02*
X009428Y007790D01*
X009428Y007790D02*
X009428Y007813D01*
X009428Y007813D02*
X009411Y007883D01*
X009411Y007883D02*
X009377Y007930D01*
X009377Y007930D02*
X009326Y007954D01*
X009326Y007954D02*
X009309Y007954D01*
X009309Y007954D02*
X009258Y007930D01*
X009258Y007930D02*
X009224Y007883D01*
X009224Y007883D02*
X009207Y007790D01*
X009207Y007672D01*
X009207Y007672D02*
X009224Y007555D01*
X009224Y007555D02*
X009258Y007485D01*
X009309Y007462D01*
X009309Y007462D02*
X009343Y007462D01*
X009343Y007462D02*
X009394Y007485D01*
X009394Y007485D02*
X009411Y007532D01*
X009718Y006954D02*
X009531Y006954D01*
X009633Y006766D01*
X009633Y006766D02*
X009582Y006766D01*
X009582Y006766D02*
X009548Y006743D01*
X009531Y006719D01*
X009531Y006719D02*
X009514Y006649D01*
X009514Y006649D02*
X009514Y006602D01*
X009514Y006602D02*
X009531Y006532D01*
X009565Y006485D01*
X009616Y006462D01*
X009667Y006462D01*
X009667Y006462D02*
X009718Y006485D01*
X009718Y006485D02*
X009735Y006508D01*
X009735Y006508D02*
X009752Y006555D01*
X009360Y006860D02*
X009326Y006883D01*
X009326Y006883D02*
X009275Y006954D01*
X009275Y006462D01*
X009795Y005954D02*
X009607Y005954D01*
X009607Y005954D02*
X009710Y005766D01*
X009710Y005766D02*
X009658Y005766D01*
X009658Y005766D02*
X009624Y005743D01*
X009624Y005743D02*
X009607Y005719D01*
X009607Y005719D02*
X009590Y005649D01*
X009590Y005649D02*
X009590Y005602D01*
X009590Y005602D02*
X009607Y005532D01*
X009607Y005532D02*
X009641Y005485D01*
X009641Y005485D02*
X009693Y005462D01*
X009744Y005462D01*
X009795Y005485D01*
X009812Y005508D01*
X009812Y005508D02*
X009829Y005555D01*
X009403Y005954D02*
X009215Y005954D01*
X009215Y005954D02*
X009318Y005766D01*
X009318Y005766D02*
X009266Y005766D01*
X009266Y005766D02*
X009232Y005743D01*
X009232Y005743D02*
X009215Y005719D01*
X009215Y005719D02*
X009198Y005649D01*
X009198Y005649D02*
X009198Y005602D01*
X009198Y005602D02*
X009215Y005532D01*
X009215Y005532D02*
X009249Y005485D01*
X009249Y005485D02*
X009301Y005462D01*
X009352Y005462D01*
X009403Y005485D01*
X009420Y005508D01*
X009420Y005508D02*
X009437Y005555D01*
X011820Y009837D02*
X011820Y009860D01*
X011820Y009860D02*
X011803Y009907D01*
X011803Y009907D02*
X011786Y009930D01*
X011786Y009930D02*
X011752Y009954D01*
X011752Y009954D02*
X011684Y009954D01*
X011684Y009954D02*
X011650Y009930D01*
X011650Y009930D02*
X011633Y009907D01*
X011616Y009860D01*
X011616Y009813D01*
X011616Y009813D02*
X011633Y009766D01*
X011633Y009766D02*
X011667Y009696D01*
X011667Y009696D02*
X011837Y009462D01*
X011837Y009462D02*
X011599Y009462D01*
X011275Y009954D02*
X011445Y009626D01*
X011445Y009626D02*
X011190Y009626D01*
X011275Y009954D02*
X011275Y009462D01*
X011803Y008837D02*
X011803Y008860D01*
X011803Y008860D02*
X011786Y008907D01*
X011786Y008907D02*
X011769Y008930D01*
X011769Y008930D02*
X011735Y008954D01*
X011735Y008954D02*
X011667Y008954D01*
X011633Y008930D01*
X011633Y008930D02*
X011616Y008907D01*
X011599Y008860D01*
X011599Y008813D01*
X011599Y008813D02*
X011616Y008766D01*
X011616Y008766D02*
X011650Y008696D01*
X011820Y008462D01*
X011820Y008462D02*
X011582Y008462D01*
X011224Y008883D02*
X011241Y008930D01*
X011241Y008930D02*
X011292Y008954D01*
X011326Y008954D01*
X011326Y008954D02*
X011377Y008930D01*
X011377Y008930D02*
X011411Y008860D01*
X011411Y008860D02*
X011428Y008743D01*
X011428Y008743D02*
X011428Y008626D01*
X011428Y008626D02*
X011411Y008532D01*
X011411Y008532D02*
X011377Y008485D01*
X011377Y008485D02*
X011326Y008462D01*
X011326Y008462D02*
X011309Y008462D01*
X011309Y008462D02*
X011258Y008485D01*
X011224Y008532D01*
X011207Y008602D01*
X011207Y008602D02*
X011207Y008626D01*
X011224Y008696D01*
X011258Y008743D01*
X011309Y008766D01*
X011309Y008766D02*
X011326Y008766D01*
X011326Y008766D02*
X011377Y008743D01*
X011377Y008743D02*
X011411Y008696D01*
X011411Y008696D02*
X011428Y008626D01*
X011812Y007837D02*
X011812Y007860D01*
X011795Y007907D01*
X011778Y007930D01*
X011778Y007930D02*
X011744Y007954D01*
X011676Y007954D01*
X011641Y007930D01*
X011641Y007930D02*
X011624Y007907D01*
X011624Y007907D02*
X011607Y007860D01*
X011607Y007860D02*
X011607Y007813D01*
X011607Y007813D02*
X011624Y007766D01*
X011624Y007766D02*
X011658Y007696D01*
X011658Y007696D02*
X011829Y007462D01*
X011590Y007462D01*
X011352Y007954D02*
X011403Y007930D01*
X011403Y007930D02*
X011420Y007883D01*
X011420Y007883D02*
X011420Y007837D01*
X011403Y007790D01*
X011369Y007766D01*
X011369Y007766D02*
X011301Y007743D01*
X011249Y007719D01*
X011249Y007719D02*
X011215Y007672D01*
X011215Y007672D02*
X011198Y007626D01*
X011198Y007626D02*
X011198Y007555D01*
X011198Y007555D02*
X011215Y007508D01*
X011215Y007508D02*
X011232Y007485D01*
X011232Y007485D02*
X011283Y007462D01*
X011283Y007462D02*
X011352Y007462D01*
X011403Y007485D01*
X011420Y007508D01*
X011420Y007508D02*
X011437Y007555D01*
X011437Y007555D02*
X011437Y007626D01*
X011420Y007672D01*
X011420Y007672D02*
X011386Y007719D01*
X011386Y007719D02*
X011335Y007743D01*
X011266Y007766D01*
X011266Y007766D02*
X011232Y007790D01*
X011232Y007790D02*
X011215Y007837D01*
X011215Y007837D02*
X011215Y007883D01*
X011215Y007883D02*
X011232Y007930D01*
X011232Y007930D02*
X011283Y007954D01*
X011283Y007954D02*
X011352Y007954D01*
X011795Y006954D02*
X011607Y006954D01*
X011607Y006954D02*
X011710Y006766D01*
X011710Y006766D02*
X011658Y006766D01*
X011658Y006766D02*
X011624Y006743D01*
X011624Y006743D02*
X011607Y006719D01*
X011607Y006719D02*
X011590Y006649D01*
X011590Y006649D02*
X011590Y006602D01*
X011590Y006602D02*
X011607Y006532D01*
X011607Y006532D02*
X011641Y006485D01*
X011641Y006485D02*
X011693Y006462D01*
X011744Y006462D01*
X011795Y006485D01*
X011812Y006508D01*
X011812Y006508D02*
X011829Y006555D01*
X011335Y006954D02*
X011386Y006930D01*
X011386Y006930D02*
X011420Y006860D01*
X011437Y006743D01*
X011437Y006672D01*
X011437Y006672D02*
X011420Y006555D01*
X011420Y006555D02*
X011386Y006485D01*
X011335Y006462D01*
X011301Y006462D01*
X011249Y006485D01*
X011249Y006485D02*
X011215Y006555D01*
X011215Y006555D02*
X011198Y006672D01*
X011198Y006672D02*
X011198Y006743D01*
X011198Y006743D02*
X011215Y006860D01*
X011215Y006860D02*
X011249Y006930D01*
X011249Y006930D02*
X011301Y006954D01*
X011335Y006954D01*
X011795Y005954D02*
X011607Y005954D01*
X011607Y005954D02*
X011710Y005766D01*
X011710Y005766D02*
X011658Y005766D01*
X011658Y005766D02*
X011624Y005743D01*
X011624Y005743D02*
X011607Y005719D01*
X011607Y005719D02*
X011590Y005649D01*
X011590Y005649D02*
X011590Y005602D01*
X011590Y005602D02*
X011607Y005532D01*
X011607Y005532D02*
X011641Y005485D01*
X011641Y005485D02*
X011693Y005462D01*
X011744Y005462D01*
X011795Y005485D01*
X011812Y005508D01*
X011812Y005508D02*
X011829Y005555D01*
X011420Y005837D02*
X011420Y005860D01*
X011403Y005907D01*
X011386Y005930D01*
X011386Y005930D02*
X011352Y005954D01*
X011283Y005954D01*
X011283Y005954D02*
X011249Y005930D01*
X011249Y005930D02*
X011232Y005907D01*
X011232Y005907D02*
X011215Y005860D01*
X011215Y005860D02*
X011215Y005813D01*
X011215Y005813D02*
X011232Y005766D01*
X011232Y005766D02*
X011266Y005696D01*
X011266Y005696D02*
X011437Y005462D01*
X011198Y005462D01*
X009457Y016687D02*
X009411Y016704D01*
X009364Y016738D01*
X009340Y016772D01*
X009340Y016772D02*
X009340Y016840D01*
X009340Y016840D02*
X009364Y016874D01*
X009364Y016874D02*
X009411Y016908D01*
X009411Y016908D02*
X009457Y016925D01*
X009457Y016925D02*
X009528Y016942D01*
X009528Y016942D02*
X009645Y016942D01*
X009645Y016942D02*
X009715Y016925D01*
X009715Y016925D02*
X009762Y016908D01*
X009762Y016908D02*
X009809Y016874D01*
X009809Y016874D02*
X009832Y016840D01*
X009832Y016840D02*
X009832Y016772D01*
X009832Y016772D02*
X009809Y016738D01*
X009809Y016738D02*
X009762Y016704D01*
X009762Y016704D02*
X009715Y016687D01*
X009715Y016687D02*
X009645Y016687D01*
X009645Y016772D02*
X009645Y016687D01*
X009340Y016533D02*
X009832Y016533D01*
X009340Y016533D02*
X009832Y016295D01*
X009340Y016295D02*
X009832Y016295D01*
X009340Y016141D02*
X009832Y016141D01*
X009340Y016141D02*
X009340Y016022D01*
X009340Y016022D02*
X009364Y015971D01*
X009411Y015937D01*
X009457Y015920D01*
X009457Y015920D02*
X009528Y015903D01*
X009645Y015903D01*
X009715Y015920D01*
X009715Y015920D02*
X009762Y015937D01*
X009762Y015937D02*
X009809Y015971D01*
X009809Y015971D02*
X009832Y016022D01*
X009832Y016022D02*
X009832Y016141D01*
X011457Y017113D02*
X011411Y017130D01*
X011364Y017164D01*
X011364Y017164D02*
X011340Y017198D01*
X011340Y017198D02*
X011340Y017266D01*
X011340Y017266D02*
X011364Y017300D01*
X011364Y017300D02*
X011411Y017335D01*
X011457Y017352D01*
X011457Y017352D02*
X011528Y017369D01*
X011645Y017369D01*
X011715Y017352D01*
X011715Y017352D02*
X011762Y017335D01*
X011762Y017335D02*
X011809Y017300D01*
X011809Y017300D02*
X011832Y017266D01*
X011832Y017266D02*
X011832Y017198D01*
X011832Y017198D02*
X011809Y017164D01*
X011809Y017164D02*
X011762Y017130D01*
X011762Y017130D02*
X011715Y017113D01*
X011340Y016823D02*
X011832Y016960D01*
X011340Y016823D02*
X011832Y016687D01*
X011668Y016908D02*
X011668Y016738D01*
X011340Y016533D02*
X011832Y016533D01*
X011340Y016533D02*
X011832Y016295D01*
X011340Y016295D02*
X011832Y016295D01*
X011340Y016141D02*
X011832Y016141D01*
X011340Y015903D02*
X011832Y015903D01*
X011575Y016141D02*
X011575Y015903D01*
X013457Y017113D02*
X013411Y017130D01*
X013364Y017164D01*
X013364Y017164D02*
X013340Y017198D01*
X013340Y017198D02*
X013340Y017266D01*
X013340Y017266D02*
X013364Y017300D01*
X013364Y017300D02*
X013411Y017335D01*
X013457Y017352D01*
X013457Y017352D02*
X013528Y017369D01*
X013645Y017369D01*
X013715Y017352D01*
X013715Y017352D02*
X013762Y017335D01*
X013762Y017335D02*
X013809Y017300D01*
X013809Y017300D02*
X013832Y017266D01*
X013832Y017266D02*
X013832Y017198D01*
X013832Y017198D02*
X013809Y017164D01*
X013809Y017164D02*
X013762Y017130D01*
X013762Y017130D02*
X013715Y017113D01*
X013340Y016823D02*
X013832Y016960D01*
X013340Y016823D02*
X013832Y016687D01*
X013668Y016908D02*
X013668Y016738D01*
X013340Y016533D02*
X013832Y016533D01*
X013340Y016533D02*
X013832Y016295D01*
X013340Y016295D02*
X013832Y016295D01*
X013340Y016141D02*
X013832Y016141D01*
X013340Y015903D02*
X013668Y016141D01*
X013551Y016056D02*
X013832Y015903D01*
X013684Y004305D02*
X013661Y004270D01*
X013661Y004270D02*
X013590Y004219D01*
X013590Y004219D02*
X014082Y004219D01*
X013707Y004049D02*
X013684Y004049D01*
X013684Y004049D02*
X013637Y004032D01*
X013637Y004032D02*
X013614Y004015D01*
X013590Y003981D01*
X013590Y003981D02*
X013590Y003912D01*
X013590Y003912D02*
X013614Y003878D01*
X013614Y003878D02*
X013637Y003861D01*
X013637Y003861D02*
X013684Y003844D01*
X013684Y003844D02*
X013731Y003844D01*
X013731Y003844D02*
X013778Y003861D01*
X013778Y003861D02*
X013848Y003895D01*
X013848Y003895D02*
X014082Y004066D01*
X014082Y004066D02*
X014082Y003827D01*
X012684Y004305D02*
X012661Y004270D01*
X012661Y004270D02*
X012590Y004219D01*
X012590Y004219D02*
X013082Y004219D01*
X012684Y004066D02*
X012661Y004032D01*
X012590Y003981D01*
X012590Y003981D02*
X013082Y003981D01*
X011684Y004305D02*
X011661Y004270D01*
X011661Y004270D02*
X011590Y004219D01*
X011590Y004219D02*
X012082Y004219D01*
X011590Y003964D02*
X011614Y004015D01*
X011684Y004049D01*
X011684Y004049D02*
X011801Y004066D01*
X011801Y004066D02*
X011872Y004066D01*
X011989Y004049D01*
X012059Y004015D01*
X012059Y004015D02*
X012082Y003964D01*
X012082Y003964D02*
X012082Y003930D01*
X012082Y003930D02*
X012059Y003878D01*
X012059Y003878D02*
X011989Y003844D01*
X011989Y003844D02*
X011872Y003827D01*
X011872Y003827D02*
X011801Y003827D01*
X011801Y003827D02*
X011684Y003844D01*
X011684Y003844D02*
X011614Y003878D01*
X011614Y003878D02*
X011590Y003930D01*
X011590Y003930D02*
X011590Y003964D01*
X010754Y004083D02*
X010825Y004100D01*
X010872Y004134D01*
X010872Y004134D02*
X010895Y004185D01*
X010895Y004185D02*
X010895Y004202D01*
X010895Y004202D02*
X010872Y004253D01*
X010872Y004253D02*
X010825Y004287D01*
X010825Y004287D02*
X010754Y004305D01*
X010754Y004305D02*
X010731Y004305D01*
X010661Y004287D01*
X010661Y004287D02*
X010614Y004253D01*
X010614Y004253D02*
X010590Y004202D01*
X010590Y004202D02*
X010590Y004185D01*
X010590Y004185D02*
X010614Y004134D01*
X010614Y004134D02*
X010661Y004100D01*
X010754Y004083D01*
X010754Y004083D02*
X010872Y004083D01*
X010989Y004100D01*
X011059Y004134D01*
X011059Y004134D02*
X011082Y004185D01*
X011082Y004185D02*
X011082Y004219D01*
X011082Y004219D02*
X011059Y004270D01*
X011059Y004270D02*
X011012Y004287D01*
X009590Y004219D02*
X009614Y004270D01*
X009614Y004270D02*
X009661Y004287D01*
X009661Y004287D02*
X009707Y004287D01*
X009707Y004287D02*
X009754Y004270D01*
X009754Y004270D02*
X009778Y004236D01*
X009778Y004236D02*
X009801Y004168D01*
X009801Y004168D02*
X009825Y004117D01*
X009825Y004117D02*
X009872Y004083D01*
X009918Y004066D01*
X009918Y004066D02*
X009989Y004066D01*
X010036Y004083D01*
X010059Y004100D01*
X010059Y004100D02*
X010082Y004151D01*
X010082Y004151D02*
X010082Y004219D01*
X010082Y004219D02*
X010059Y004270D01*
X010059Y004270D02*
X010036Y004287D01*
X010036Y004287D02*
X009989Y004305D01*
X009918Y004305D01*
X009918Y004305D02*
X009872Y004287D01*
X009872Y004287D02*
X009825Y004253D01*
X009825Y004253D02*
X009801Y004202D01*
X009801Y004202D02*
X009778Y004134D01*
X009778Y004134D02*
X009754Y004100D01*
X009754Y004100D02*
X009707Y004083D01*
X009707Y004083D02*
X009661Y004083D01*
X009614Y004100D01*
X009590Y004151D01*
X009590Y004151D02*
X009590Y004219D01*
X008590Y004066D02*
X009082Y004236D01*
X008590Y004305D02*
X008590Y004066D01*
X007661Y004100D02*
X007614Y004117D01*
X007614Y004117D02*
X007590Y004168D01*
X007590Y004168D02*
X007590Y004202D01*
X007590Y004202D02*
X007614Y004253D01*
X007614Y004253D02*
X007684Y004287D01*
X007684Y004287D02*
X007801Y004305D01*
X007801Y004305D02*
X007918Y004305D01*
X007918Y004305D02*
X008012Y004287D01*
X008012Y004287D02*
X008059Y004253D01*
X008059Y004253D02*
X008082Y004202D01*
X008082Y004202D02*
X008082Y004185D01*
X008082Y004185D02*
X008059Y004134D01*
X008059Y004134D02*
X008012Y004100D01*
X008012Y004100D02*
X007942Y004083D01*
X007918Y004083D01*
X007918Y004083D02*
X007848Y004100D01*
X007848Y004100D02*
X007801Y004134D01*
X007801Y004134D02*
X007778Y004185D01*
X007778Y004185D02*
X007778Y004202D01*
X007778Y004202D02*
X007801Y004253D01*
X007801Y004253D02*
X007848Y004287D01*
X007848Y004287D02*
X007918Y004305D01*
X006590Y004083D02*
X006590Y004253D01*
X006590Y004253D02*
X006801Y004270D01*
X006801Y004270D02*
X006778Y004253D01*
X006778Y004253D02*
X006754Y004202D01*
X006754Y004202D02*
X006754Y004151D01*
X006754Y004151D02*
X006778Y004100D01*
X006825Y004066D01*
X006895Y004049D01*
X006942Y004066D01*
X007012Y004083D01*
X007012Y004083D02*
X007059Y004117D01*
X007059Y004117D02*
X007082Y004168D01*
X007082Y004168D02*
X007082Y004219D01*
X007082Y004219D02*
X007059Y004270D01*
X007059Y004270D02*
X007036Y004287D01*
X007036Y004287D02*
X006989Y004305D01*
X005590Y004134D02*
X005918Y004305D01*
X005918Y004305D02*
X005918Y004049D01*
X005590Y004134D02*
X006082Y004134D01*
X004590Y004270D02*
X004590Y004083D01*
X004590Y004083D02*
X004778Y004185D01*
X004778Y004185D02*
X004778Y004134D01*
X004778Y004134D02*
X004801Y004100D01*
X004801Y004100D02*
X004825Y004083D01*
X004895Y004066D01*
X004942Y004066D01*
X005012Y004083D01*
X005012Y004083D02*
X005059Y004117D01*
X005059Y004117D02*
X005082Y004168D01*
X005082Y004168D02*
X005082Y004219D01*
X005082Y004219D02*
X005059Y004270D01*
X005059Y004270D02*
X005036Y004287D01*
X005036Y004287D02*
X004989Y004305D01*
X003707Y004287D02*
X003684Y004287D01*
X003684Y004287D02*
X003637Y004270D01*
X003637Y004270D02*
X003614Y004253D01*
X003614Y004253D02*
X003590Y004219D01*
X003590Y004219D02*
X003590Y004151D01*
X003590Y004151D02*
X003614Y004117D01*
X003614Y004117D02*
X003637Y004100D01*
X003637Y004100D02*
X003684Y004083D01*
X003684Y004083D02*
X003731Y004083D01*
X003778Y004100D01*
X003848Y004134D01*
X003848Y004134D02*
X004082Y004305D01*
X004082Y004305D02*
X004082Y004066D01*
X002684Y004305D02*
X002661Y004270D01*
X002661Y004270D02*
X002590Y004219D01*
X002590Y004219D02*
X003082Y004219D01*
X001590Y004202D02*
X001614Y004253D01*
X001614Y004253D02*
X001684Y004287D01*
X001684Y004287D02*
X001801Y004305D01*
X001801Y004305D02*
X001872Y004305D01*
X001989Y004287D01*
X001989Y004287D02*
X002059Y004253D01*
X002059Y004253D02*
X002082Y004202D01*
X002082Y004202D02*
X002082Y004168D01*
X002082Y004168D02*
X002059Y004117D01*
X002059Y004117D02*
X001989Y004083D01*
X001872Y004066D01*
X001801Y004066D01*
X001801Y004066D02*
X001684Y004083D01*
X001684Y004083D02*
X001614Y004117D01*
X001614Y004117D02*
X001590Y004168D01*
X001590Y004168D02*
X001590Y004202D01*
X000707Y004049D02*
X000661Y004066D01*
X000614Y004100D01*
X000590Y004134D01*
X000590Y004134D02*
X000590Y004202D01*
X000590Y004202D02*
X000614Y004236D01*
X000614Y004236D02*
X000661Y004270D01*
X000661Y004270D02*
X000707Y004287D01*
X000707Y004287D02*
X000778Y004305D01*
X000895Y004305D01*
X000965Y004287D01*
X000965Y004287D02*
X001012Y004270D01*
X001012Y004270D02*
X001059Y004236D01*
X001059Y004236D02*
X001082Y004202D01*
X001082Y004202D02*
X001082Y004134D01*
X001082Y004134D02*
X001059Y004100D01*
X001059Y004100D02*
X001012Y004066D01*
X001012Y004066D02*
X000965Y004049D01*
X000965Y004049D02*
X000895Y004049D01*
X000895Y004134D02*
X000895Y004049D01*
X000590Y003895D02*
X001082Y003895D01*
X000590Y003895D02*
X001082Y003657D01*
X000590Y003657D02*
X001082Y003657D01*
X000590Y003503D02*
X001082Y003503D01*
X000590Y003503D02*
X000590Y003384D01*
X000590Y003384D02*
X000614Y003333D01*
X000661Y003299D01*
X000707Y003282D01*
X000707Y003282D02*
X000778Y003265D01*
X000895Y003265D01*
X000965Y003282D01*
X000965Y003282D02*
X001012Y003299D01*
X001012Y003299D02*
X001059Y003333D01*
X001059Y003333D02*
X001082Y003384D01*
X001082Y003384D02*
X001082Y003503D01*
X013684Y011730D02*
X013661Y011696D01*
X013590Y011645D01*
X013590Y011645D02*
X014082Y011645D01*
X013590Y011457D02*
X013590Y011270D01*
X013590Y011270D02*
X013778Y011372D01*
X013778Y011372D02*
X013778Y011321D01*
X013801Y011287D01*
X013801Y011287D02*
X013825Y011270D01*
X013895Y011253D01*
X013942Y011253D01*
X014012Y011270D01*
X014012Y011270D02*
X014059Y011304D01*
X014059Y011304D02*
X014082Y011355D01*
X014082Y011355D02*
X014082Y011406D01*
X014082Y011406D02*
X014059Y011457D01*
X014059Y011457D02*
X014036Y011474D01*
X014036Y011474D02*
X013989Y011491D01*
X012684Y011747D02*
X012661Y011713D01*
X012590Y011662D01*
X012590Y011662D02*
X013082Y011662D01*
X012590Y011338D02*
X012918Y011508D01*
X012918Y011508D02*
X012918Y011253D01*
X012590Y011338D02*
X013082Y011338D01*
X010684Y011713D02*
X010661Y011679D01*
X010590Y011628D01*
X010590Y011628D02*
X011082Y011628D01*
X010661Y011270D02*
X010614Y011287D01*
X010590Y011338D01*
X010590Y011338D02*
X010590Y011372D01*
X010590Y011372D02*
X010614Y011423D01*
X010614Y011423D02*
X010684Y011457D01*
X010684Y011457D02*
X010801Y011474D01*
X010801Y011474D02*
X010918Y011474D01*
X010918Y011474D02*
X011012Y011457D01*
X011012Y011457D02*
X011059Y011423D01*
X011059Y011423D02*
X011082Y011372D01*
X011082Y011372D02*
X011082Y011355D01*
X011082Y011355D02*
X011059Y011304D01*
X011059Y011304D02*
X011012Y011270D01*
X011012Y011270D02*
X010942Y011253D01*
X010918Y011253D01*
X010918Y011253D02*
X010848Y011270D01*
X010848Y011270D02*
X010801Y011304D01*
X010801Y011304D02*
X010778Y011355D01*
X010778Y011372D01*
X010778Y011372D02*
X010801Y011423D01*
X010801Y011423D02*
X010848Y011457D01*
X010848Y011457D02*
X010918Y011474D01*
X011684Y011747D02*
X011661Y011713D01*
X011590Y011662D01*
X011590Y011662D02*
X012082Y011662D01*
X011590Y011287D02*
X011590Y011457D01*
X011590Y011457D02*
X011801Y011474D01*
X011801Y011474D02*
X011778Y011457D01*
X011778Y011457D02*
X011754Y011406D01*
X011754Y011406D02*
X011754Y011355D01*
X011754Y011355D02*
X011778Y011304D01*
X011825Y011270D01*
X011895Y011253D01*
X011942Y011270D01*
X012012Y011287D01*
X012012Y011287D02*
X012059Y011321D01*
X012059Y011321D02*
X012082Y011372D01*
X012082Y011372D02*
X012082Y011423D01*
X012082Y011423D02*
X012059Y011474D01*
X012059Y011474D02*
X012036Y011491D01*
X012036Y011491D02*
X011989Y011508D01*
X007684Y011713D02*
X007661Y011679D01*
X007590Y011628D01*
X007590Y011628D02*
X008082Y011628D01*
X007754Y011253D02*
X007825Y011270D01*
X007872Y011304D01*
X007895Y011355D01*
X007895Y011372D01*
X007895Y011372D02*
X007872Y011423D01*
X007872Y011423D02*
X007825Y011457D01*
X007825Y011457D02*
X007754Y011474D01*
X007754Y011474D02*
X007731Y011474D01*
X007731Y011474D02*
X007661Y011457D01*
X007661Y011457D02*
X007614Y011423D01*
X007614Y011423D02*
X007590Y011372D01*
X007590Y011372D02*
X007590Y011355D01*
X007590Y011355D02*
X007614Y011304D01*
X007661Y011270D01*
X007754Y011253D01*
X007754Y011253D02*
X007872Y011253D01*
X007989Y011270D01*
X008059Y011304D01*
X008059Y011304D02*
X008082Y011355D01*
X008082Y011355D02*
X008082Y011389D01*
X008082Y011389D02*
X008059Y011440D01*
X008059Y011440D02*
X008012Y011457D01*
X006707Y011866D02*
X006684Y011866D01*
X006684Y011866D02*
X006637Y011849D01*
X006637Y011849D02*
X006614Y011832D01*
X006614Y011832D02*
X006590Y011798D01*
X006590Y011798D02*
X006590Y011730D01*
X006590Y011730D02*
X006614Y011696D01*
X006637Y011679D01*
X006637Y011679D02*
X006684Y011662D01*
X006684Y011662D02*
X006731Y011662D01*
X006778Y011679D01*
X006848Y011713D01*
X006848Y011713D02*
X007082Y011883D01*
X007082Y011883D02*
X007082Y011645D01*
X006590Y011389D02*
X006614Y011440D01*
X006614Y011440D02*
X006684Y011474D01*
X006684Y011474D02*
X006801Y011491D01*
X006801Y011491D02*
X006872Y011491D01*
X006872Y011491D02*
X006989Y011474D01*
X006989Y011474D02*
X007059Y011440D01*
X007059Y011440D02*
X007082Y011389D01*
X007082Y011389D02*
X007082Y011355D01*
X007082Y011355D02*
X007059Y011304D01*
X007059Y011304D02*
X006989Y011270D01*
X006872Y011253D01*
X006801Y011253D01*
X006801Y011253D02*
X006684Y011270D01*
X006684Y011270D02*
X006614Y011304D01*
X006590Y011355D01*
X006590Y011355D02*
X006590Y011389D01*
X008684Y011730D02*
X008661Y011696D01*
X008590Y011645D01*
X008590Y011645D02*
X009082Y011645D01*
X008590Y011406D02*
X008614Y011457D01*
X008614Y011457D02*
X008661Y011474D01*
X008661Y011474D02*
X008707Y011474D01*
X008707Y011474D02*
X008754Y011457D01*
X008754Y011457D02*
X008778Y011423D01*
X008778Y011423D02*
X008801Y011355D01*
X008801Y011355D02*
X008825Y011304D01*
X008872Y011270D01*
X008918Y011253D01*
X008918Y011253D02*
X008989Y011253D01*
X009036Y011270D01*
X009059Y011287D01*
X009059Y011287D02*
X009082Y011338D01*
X009082Y011338D02*
X009082Y011406D01*
X009082Y011406D02*
X009059Y011457D01*
X009059Y011457D02*
X009036Y011474D01*
X009036Y011474D02*
X008989Y011491D01*
X008989Y011491D02*
X008918Y011491D01*
X008918Y011491D02*
X008872Y011474D01*
X008872Y011474D02*
X008825Y011440D01*
X008825Y011440D02*
X008801Y011389D01*
X008801Y011389D02*
X008778Y011321D01*
X008754Y011287D01*
X008754Y011287D02*
X008707Y011270D01*
X008707Y011270D02*
X008661Y011270D01*
X008614Y011287D01*
X008590Y011338D01*
X008590Y011338D02*
X008590Y011406D01*
X009684Y011730D02*
X009661Y011696D01*
X009590Y011645D01*
X009590Y011645D02*
X010082Y011645D01*
X009590Y011253D02*
X010082Y011423D01*
X009590Y011491D02*
X009590Y011253D01*
X003707Y011866D02*
X003684Y011866D01*
X003684Y011866D02*
X003637Y011849D01*
X003637Y011849D02*
X003614Y011832D01*
X003614Y011832D02*
X003590Y011798D01*
X003590Y011798D02*
X003590Y011730D01*
X003590Y011730D02*
X003614Y011696D01*
X003637Y011679D01*
X003637Y011679D02*
X003684Y011662D01*
X003684Y011662D02*
X003731Y011662D01*
X003778Y011679D01*
X003848Y011713D01*
X003848Y011713D02*
X004082Y011883D01*
X004082Y011883D02*
X004082Y011645D01*
X003590Y011457D02*
X003590Y011270D01*
X003590Y011270D02*
X003778Y011372D01*
X003778Y011372D02*
X003778Y011321D01*
X003801Y011287D01*
X003801Y011287D02*
X003825Y011270D01*
X003895Y011253D01*
X003942Y011253D01*
X004012Y011270D01*
X004012Y011270D02*
X004059Y011304D01*
X004059Y011304D02*
X004082Y011355D01*
X004082Y011355D02*
X004082Y011406D01*
X004082Y011406D02*
X004059Y011457D01*
X004059Y011457D02*
X004036Y011474D01*
X004036Y011474D02*
X003989Y011491D01*
X002590Y012463D02*
X002590Y012275D01*
X002590Y012275D02*
X002778Y012378D01*
X002778Y012327D01*
X002801Y012292D01*
X002801Y012292D02*
X002825Y012275D01*
X002825Y012275D02*
X002895Y012258D01*
X002895Y012258D02*
X002942Y012258D01*
X002942Y012258D02*
X003012Y012275D01*
X003012Y012275D02*
X003059Y012310D01*
X003059Y012310D02*
X003082Y012361D01*
X003082Y012361D02*
X003082Y012412D01*
X003082Y012412D02*
X003059Y012463D01*
X003059Y012463D02*
X003036Y012480D01*
X002989Y012497D01*
X003036Y012088D02*
X003059Y012105D01*
X003059Y012105D02*
X003082Y012088D01*
X003082Y012088D02*
X003059Y012071D01*
X003059Y012071D02*
X003036Y012088D01*
X002590Y011883D02*
X002590Y011696D01*
X002590Y011696D02*
X002778Y011798D01*
X002778Y011798D02*
X002778Y011747D01*
X002778Y011747D02*
X002801Y011713D01*
X002801Y011713D02*
X002825Y011696D01*
X002895Y011679D01*
X002942Y011679D01*
X003012Y011696D01*
X003012Y011696D02*
X003059Y011730D01*
X003059Y011730D02*
X003082Y011781D01*
X003082Y011781D02*
X003082Y011832D01*
X003082Y011832D02*
X003059Y011883D01*
X003059Y011883D02*
X003036Y011900D01*
X003036Y011900D02*
X002989Y011917D01*
X002590Y011525D02*
X003082Y011389D01*
X002590Y011253D02*
X003082Y011389D01*
X004707Y011866D02*
X004684Y011866D01*
X004684Y011866D02*
X004637Y011849D01*
X004637Y011849D02*
X004614Y011832D01*
X004614Y011832D02*
X004590Y011798D01*
X004590Y011798D02*
X004590Y011730D01*
X004590Y011730D02*
X004614Y011696D01*
X004637Y011679D01*
X004637Y011679D02*
X004684Y011662D01*
X004684Y011662D02*
X004731Y011662D01*
X004778Y011679D01*
X004848Y011713D01*
X004848Y011713D02*
X005082Y011883D01*
X005082Y011883D02*
X005082Y011645D01*
X004707Y011474D02*
X004684Y011474D01*
X004684Y011474D02*
X004637Y011457D01*
X004637Y011457D02*
X004614Y011440D01*
X004614Y011440D02*
X004590Y011406D01*
X004590Y011406D02*
X004590Y011338D01*
X004590Y011338D02*
X004614Y011304D01*
X004637Y011287D01*
X004637Y011287D02*
X004684Y011270D01*
X004684Y011270D02*
X004731Y011270D01*
X004778Y011287D01*
X004848Y011321D01*
X004848Y011321D02*
X005082Y011491D01*
X005082Y011491D02*
X005082Y011253D01*
X005707Y011713D02*
X005684Y011713D01*
X005684Y011713D02*
X005637Y011696D01*
X005637Y011696D02*
X005614Y011679D01*
X005590Y011645D01*
X005590Y011645D02*
X005590Y011577D01*
X005590Y011577D02*
X005614Y011542D01*
X005614Y011542D02*
X005637Y011525D01*
X005637Y011525D02*
X005684Y011508D01*
X005684Y011508D02*
X005731Y011508D01*
X005731Y011508D02*
X005778Y011525D01*
X005778Y011525D02*
X005848Y011560D01*
X005848Y011560D02*
X006082Y011730D01*
X006082Y011730D02*
X006082Y011491D01*
X005684Y011338D02*
X005661Y011304D01*
X005590Y011253D01*
X005590Y011253D02*
X006082Y011253D01*
X000590Y012071D02*
X001082Y011935D01*
X000590Y011798D02*
X001082Y011935D01*
X000590Y011645D02*
X001082Y011645D01*
X000590Y011491D02*
X001082Y011491D01*
X000590Y011491D02*
X001082Y011253D01*
X000590Y011253D02*
X001082Y011253D01*
X001707Y012037D02*
X001661Y012054D01*
X001614Y012088D01*
X001590Y012122D01*
X001590Y012122D02*
X001590Y012190D01*
X001590Y012190D02*
X001614Y012224D01*
X001614Y012224D02*
X001661Y012258D01*
X001661Y012258D02*
X001707Y012275D01*
X001707Y012275D02*
X001778Y012292D01*
X001778Y012292D02*
X001895Y012292D01*
X001895Y012292D02*
X001965Y012275D01*
X001965Y012275D02*
X002012Y012258D01*
X002012Y012258D02*
X002059Y012224D01*
X002059Y012224D02*
X002082Y012190D01*
X002082Y012190D02*
X002082Y012122D01*
X002082Y012122D02*
X002059Y012088D01*
X002059Y012088D02*
X002012Y012054D01*
X002012Y012054D02*
X001965Y012037D01*
X001965Y012037D02*
X001895Y012037D01*
X001895Y012122D02*
X001895Y012037D01*
X001590Y011883D02*
X002082Y011883D01*
X001590Y011883D02*
X002082Y011645D01*
X001590Y011645D02*
X002082Y011645D01*
X001590Y011491D02*
X002082Y011491D01*
X001590Y011491D02*
X001590Y011372D01*
X001590Y011372D02*
X001614Y011321D01*
X001661Y011287D01*
X001707Y011270D01*
X001707Y011270D02*
X001778Y011253D01*
X001895Y011253D01*
X001965Y011270D01*
X001965Y011270D02*
X002012Y011287D01*
X002012Y011287D02*
X002059Y011321D01*
X002059Y011321D02*
X002082Y011372D01*
X002082Y011372D02*
X002082Y011491D01*
X021040Y002704D02*
X021040Y002212D01*
X021040Y002704D02*
X020903Y002212D01*
X020767Y002704D02*
X020903Y002212D01*
X020767Y002704D02*
X020767Y002212D01*
X020613Y002704D02*
X020613Y002212D01*
X020221Y002633D02*
X020255Y002680D01*
X020255Y002680D02*
X020307Y002704D01*
X020375Y002704D01*
X020426Y002680D01*
X020426Y002680D02*
X020460Y002633D01*
X020460Y002633D02*
X020460Y002587D01*
X020443Y002540D01*
X020426Y002516D01*
X020426Y002516D02*
X020392Y002493D01*
X020290Y002446D01*
X020255Y002422D01*
X020255Y002422D02*
X020238Y002399D01*
X020238Y002399D02*
X020221Y002352D01*
X020221Y002352D02*
X020221Y002282D01*
X020221Y002282D02*
X020255Y002235D01*
X020255Y002235D02*
X020307Y002212D01*
X020375Y002212D01*
X020426Y002235D01*
X020460Y002282D01*
X019966Y002704D02*
X020000Y002680D01*
X020000Y002680D02*
X020034Y002633D01*
X020034Y002633D02*
X020051Y002587D01*
X020068Y002516D01*
X020068Y002516D02*
X020068Y002399D01*
X020068Y002399D02*
X020051Y002329D01*
X020034Y002282D01*
X020000Y002235D01*
X019966Y002212D01*
X019897Y002212D01*
X019897Y002212D02*
X019863Y002235D01*
X019863Y002235D02*
X019829Y002282D01*
X019829Y002282D02*
X019812Y002329D01*
X019812Y002329D02*
X019795Y002399D01*
X019795Y002399D02*
X019795Y002516D01*
X019795Y002516D02*
X019812Y002587D01*
X019812Y002587D02*
X019829Y002633D01*
X019829Y002633D02*
X019863Y002680D01*
X019863Y002680D02*
X019897Y002704D01*
X019897Y002704D02*
X019966Y002704D01*
X021040Y003604D02*
X021040Y003112D01*
X021040Y003604D02*
X020903Y003112D01*
X020767Y003604D02*
X020903Y003112D01*
X020767Y003604D02*
X020767Y003112D01*
X020358Y003487D02*
X020375Y003533D01*
X020375Y003533D02*
X020409Y003580D01*
X020409Y003580D02*
X020443Y003604D01*
X020511Y003604D01*
X020511Y003604D02*
X020545Y003580D01*
X020545Y003580D02*
X020579Y003533D01*
X020579Y003533D02*
X020596Y003487D01*
X020596Y003487D02*
X020613Y003416D01*
X020613Y003416D02*
X020613Y003299D01*
X020613Y003299D02*
X020596Y003229D01*
X020596Y003229D02*
X020579Y003182D01*
X020579Y003182D02*
X020545Y003135D01*
X020545Y003135D02*
X020511Y003112D01*
X020511Y003112D02*
X020443Y003112D01*
X020409Y003135D01*
X020375Y003182D01*
X020358Y003229D01*
X020204Y003604D02*
X020204Y003112D01*
X020204Y003112D02*
X020000Y003112D01*
X019846Y003604D02*
X019846Y003112D01*
X019608Y003604D02*
X019846Y003276D01*
X019761Y003393D02*
X019608Y003112D01*
X020784Y004587D02*
X020801Y004633D01*
X020801Y004633D02*
X020835Y004680D01*
X020835Y004680D02*
X020869Y004704D01*
X020869Y004704D02*
X020937Y004704D01*
X020937Y004704D02*
X020971Y004680D01*
X020971Y004680D02*
X021005Y004633D01*
X021005Y004633D02*
X021022Y004587D01*
X021022Y004587D02*
X021040Y004516D01*
X021040Y004516D02*
X021040Y004399D01*
X021040Y004399D02*
X021022Y004329D01*
X021022Y004329D02*
X021005Y004282D01*
X021005Y004282D02*
X020971Y004235D01*
X020971Y004235D02*
X020937Y004212D01*
X020937Y004212D02*
X020869Y004212D01*
X020869Y004212D02*
X020835Y004235D01*
X020801Y004282D01*
X020784Y004329D01*
X020392Y004633D02*
X020426Y004680D01*
X020426Y004680D02*
X020477Y004704D01*
X020477Y004704D02*
X020545Y004704D01*
X020545Y004704D02*
X020596Y004680D01*
X020596Y004680D02*
X020630Y004633D01*
X020630Y004633D02*
X020630Y004587D01*
X020630Y004587D02*
X020613Y004540D01*
X020613Y004540D02*
X020596Y004516D01*
X020596Y004516D02*
X020562Y004493D01*
X020562Y004493D02*
X020460Y004446D01*
X020426Y004422D01*
X020426Y004422D02*
X020409Y004399D01*
X020409Y004399D02*
X020392Y004352D01*
X020392Y004352D02*
X020392Y004282D01*
X020426Y004235D01*
X020477Y004212D01*
X020477Y004212D02*
X020545Y004212D01*
X020545Y004212D02*
X020596Y004235D01*
X020596Y004235D02*
X020630Y004282D01*
X021040Y005754D02*
X021040Y005262D01*
X021040Y005754D02*
X020886Y005754D01*
X020886Y005754D02*
X020835Y005730D01*
X020835Y005730D02*
X020818Y005707D01*
X020801Y005660D01*
X020801Y005613D01*
X020801Y005613D02*
X020818Y005566D01*
X020818Y005566D02*
X020835Y005543D01*
X020886Y005519D01*
X021040Y005519D02*
X020886Y005519D01*
X020886Y005519D02*
X020835Y005496D01*
X020818Y005472D01*
X020818Y005472D02*
X020801Y005426D01*
X020801Y005355D01*
X020801Y005355D02*
X020818Y005308D01*
X020818Y005308D02*
X020835Y005285D01*
X020886Y005262D01*
X020886Y005262D02*
X021040Y005262D01*
X020392Y005637D02*
X020409Y005683D01*
X020409Y005683D02*
X020443Y005730D01*
X020443Y005730D02*
X020477Y005754D01*
X020477Y005754D02*
X020545Y005754D01*
X020545Y005754D02*
X020579Y005730D01*
X020579Y005730D02*
X020613Y005683D01*
X020613Y005683D02*
X020630Y005637D01*
X020630Y005637D02*
X020647Y005566D01*
X020647Y005566D02*
X020647Y005449D01*
X020647Y005449D02*
X020630Y005379D01*
X020630Y005379D02*
X020613Y005332D01*
X020613Y005332D02*
X020579Y005285D01*
X020579Y005285D02*
X020545Y005262D01*
X020545Y005262D02*
X020477Y005262D01*
X020477Y005262D02*
X020443Y005285D01*
X020409Y005332D01*
X020392Y005379D01*
X020238Y005754D02*
X020238Y005262D01*
X020238Y005262D02*
X020034Y005262D01*
X019880Y005754D02*
X019880Y005262D01*
X019642Y005754D02*
X019880Y005426D01*
X019795Y005543D02*
X019642Y005262D01*
X021040Y008704D02*
X021040Y008212D01*
X021040Y008704D02*
X020903Y008212D01*
X020767Y008704D02*
X020903Y008212D01*
X020767Y008704D02*
X020767Y008212D01*
X020613Y008704D02*
X020613Y008212D01*
X020613Y008704D02*
X020392Y008704D01*
X020613Y008469D02*
X020477Y008469D01*
X020613Y008212D02*
X020392Y008212D01*
X020238Y008704D02*
X020238Y008212D01*
X020238Y008704D02*
X020102Y008212D01*
X019966Y008704D02*
X020102Y008212D01*
X019966Y008704D02*
X019966Y008212D01*
X019557Y008587D02*
X019574Y008633D01*
X019574Y008633D02*
X019608Y008680D01*
X019608Y008680D02*
X019642Y008704D01*
X019710Y008704D01*
X019744Y008680D01*
X019744Y008680D02*
X019778Y008633D01*
X019778Y008633D02*
X019795Y008587D01*
X019795Y008587D02*
X019812Y008516D01*
X019812Y008516D02*
X019812Y008399D01*
X019812Y008399D02*
X019795Y008329D01*
X019795Y008329D02*
X019778Y008282D01*
X019778Y008282D02*
X019744Y008235D01*
X019744Y008235D02*
X019710Y008212D01*
X019642Y008212D01*
X019608Y008235D01*
X019574Y008282D01*
X019557Y008329D01*
X019165Y008633D02*
X019199Y008680D01*
X019199Y008680D02*
X019250Y008704D01*
X019318Y008704D01*
X019369Y008680D01*
X019369Y008680D02*
X019403Y008633D01*
X019403Y008633D02*
X019403Y008587D01*
X019403Y008587D02*
X019386Y008540D01*
X019386Y008540D02*
X019369Y008516D01*
X019369Y008516D02*
X019335Y008493D01*
X019233Y008446D01*
X019199Y008422D01*
X019199Y008422D02*
X019182Y008399D01*
X019182Y008399D02*
X019165Y008352D01*
X019165Y008352D02*
X019165Y008282D01*
X019199Y008235D01*
X019250Y008212D01*
X019318Y008212D01*
X019369Y008235D01*
X019369Y008235D02*
X019403Y008282D01*
X021040Y007704D02*
X021040Y007212D01*
X021040Y007704D02*
X020903Y007212D01*
X020767Y007704D02*
X020903Y007212D01*
X020767Y007704D02*
X020767Y007212D01*
X020511Y007704D02*
X020545Y007680D01*
X020545Y007680D02*
X020579Y007633D01*
X020579Y007633D02*
X020596Y007587D01*
X020596Y007587D02*
X020613Y007516D01*
X020613Y007516D02*
X020613Y007399D01*
X020613Y007399D02*
X020596Y007329D01*
X020596Y007329D02*
X020579Y007282D01*
X020579Y007282D02*
X020545Y007235D01*
X020545Y007235D02*
X020511Y007212D01*
X020511Y007212D02*
X020443Y007212D01*
X020409Y007235D01*
X020375Y007282D01*
X020358Y007329D01*
X020341Y007399D01*
X020341Y007399D02*
X020341Y007516D01*
X020341Y007516D02*
X020358Y007587D01*
X020375Y007633D01*
X020375Y007633D02*
X020409Y007680D01*
X020409Y007680D02*
X020443Y007704D01*
X020511Y007704D01*
X019949Y007633D02*
X019983Y007680D01*
X019983Y007680D02*
X020034Y007704D01*
X020102Y007704D01*
X020102Y007704D02*
X020153Y007680D01*
X020153Y007680D02*
X020187Y007633D01*
X020187Y007633D02*
X020187Y007587D01*
X020187Y007587D02*
X020170Y007540D01*
X020170Y007540D02*
X020153Y007516D01*
X020153Y007516D02*
X020119Y007493D01*
X020119Y007493D02*
X020017Y007446D01*
X019983Y007422D01*
X019983Y007422D02*
X019966Y007399D01*
X019966Y007399D02*
X019949Y007352D01*
X019949Y007352D02*
X019949Y007282D01*
X019983Y007235D01*
X020034Y007212D01*
X020102Y007212D01*
X020102Y007212D02*
X020153Y007235D01*
X020153Y007235D02*
X020187Y007282D01*
X019795Y007704D02*
X019795Y007212D01*
X029793Y012704D02*
X029793Y012212D01*
X029793Y012212D02*
X029589Y012212D01*
X029435Y012704D02*
X029435Y012212D01*
X029435Y012704D02*
X029282Y012704D01*
X029282Y012704D02*
X029231Y012680D01*
X029231Y012680D02*
X029214Y012657D01*
X029197Y012610D01*
X029197Y012563D01*
X029197Y012563D02*
X029214Y012516D01*
X029214Y012516D02*
X029231Y012493D01*
X029282Y012469D01*
X029282Y012469D02*
X029435Y012469D01*
X029316Y012469D02*
X029197Y012212D01*
X028788Y012587D02*
X028805Y012633D01*
X028805Y012633D02*
X028839Y012680D01*
X028839Y012680D02*
X028873Y012704D01*
X028941Y012704D01*
X028941Y012704D02*
X028975Y012680D01*
X028975Y012680D02*
X029009Y012633D01*
X029009Y012633D02*
X029026Y012587D01*
X029026Y012587D02*
X029043Y012516D01*
X029043Y012516D02*
X029043Y012399D01*
X029043Y012399D02*
X029026Y012329D01*
X029026Y012329D02*
X029009Y012282D01*
X029009Y012282D02*
X028975Y012235D01*
X028975Y012235D02*
X028941Y012212D01*
X028941Y012212D02*
X028873Y012212D01*
X028839Y012235D01*
X028805Y012282D01*
X028788Y012329D01*
X028634Y012704D02*
X028634Y012212D01*
X028634Y012212D02*
X028430Y012212D01*
X028276Y012704D02*
X028276Y012212D01*
X028038Y012704D02*
X028276Y012376D01*
X028191Y012493D02*
X028038Y012212D01*
X028668Y002704D02*
X028668Y002212D01*
X028668Y002704D02*
X028515Y002704D01*
X028464Y002680D01*
X028464Y002680D02*
X028447Y002657D01*
X028430Y002610D01*
X028430Y002563D01*
X028430Y002563D02*
X028447Y002516D01*
X028447Y002516D02*
X028464Y002493D01*
X028515Y002469D01*
X028515Y002469D02*
X028668Y002469D01*
X028549Y002469D02*
X028430Y002212D01*
X028276Y002704D02*
X028038Y002212D01*
X028038Y002704D02*
X028276Y002212D01*
X028549Y011704D02*
X028549Y011212D01*
X028668Y011704D02*
X028430Y011704D01*
X028276Y011704D02*
X028038Y011212D01*
X028038Y011704D02*
X028276Y011212D01*
X029248Y013704D02*
X029060Y013704D01*
X029060Y013704D02*
X029163Y013516D01*
X029163Y013516D02*
X029112Y013516D01*
X029112Y013516D02*
X029077Y013493D01*
X029077Y013493D02*
X029060Y013469D01*
X029060Y013469D02*
X029043Y013399D01*
X029043Y013399D02*
X029043Y013352D01*
X029043Y013352D02*
X029060Y013282D01*
X029060Y013282D02*
X029095Y013235D01*
X029146Y013212D01*
X029197Y013212D01*
X029248Y013235D01*
X029265Y013258D01*
X029265Y013258D02*
X029282Y013305D01*
X028873Y013258D02*
X028890Y013235D01*
X028873Y013212D01*
X028856Y013235D01*
X028873Y013258D01*
X028668Y013704D02*
X028481Y013704D01*
X028583Y013516D01*
X028583Y013516D02*
X028532Y013516D01*
X028532Y013516D02*
X028498Y013493D01*
X028481Y013469D01*
X028481Y013469D02*
X028464Y013399D01*
X028464Y013399D02*
X028464Y013352D01*
X028464Y013352D02*
X028481Y013282D01*
X028515Y013235D01*
X028566Y013212D01*
X028566Y013212D02*
X028617Y013212D01*
X028617Y013212D02*
X028668Y013235D01*
X028668Y013235D02*
X028685Y013258D01*
X028685Y013258D02*
X028702Y013305D01*
X028310Y013704D02*
X028174Y013212D01*
X028038Y013704D02*
X028174Y013212D01*
X028805Y008633D02*
X028839Y008680D01*
X028839Y008680D02*
X028890Y008704D01*
X028958Y008704D01*
X028958Y008704D02*
X029009Y008680D01*
X029009Y008680D02*
X029043Y008633D01*
X029043Y008633D02*
X029043Y008587D01*
X029043Y008587D02*
X029026Y008540D01*
X029026Y008540D02*
X029009Y008516D01*
X029009Y008516D02*
X028975Y008493D01*
X028975Y008493D02*
X028873Y008446D01*
X028839Y008422D01*
X028839Y008422D02*
X028822Y008399D01*
X028822Y008399D02*
X028805Y008352D01*
X028805Y008352D02*
X028805Y008282D01*
X028839Y008235D01*
X028890Y008212D01*
X028958Y008212D01*
X028958Y008212D02*
X029009Y008235D01*
X029009Y008235D02*
X029043Y008282D01*
X028396Y008587D02*
X028413Y008633D01*
X028413Y008633D02*
X028447Y008680D01*
X028447Y008680D02*
X028481Y008704D01*
X028549Y008704D01*
X028549Y008704D02*
X028583Y008680D01*
X028583Y008680D02*
X028617Y008633D01*
X028617Y008633D02*
X028634Y008587D01*
X028634Y008587D02*
X028651Y008516D01*
X028651Y008516D02*
X028651Y008399D01*
X028651Y008399D02*
X028634Y008329D01*
X028634Y008329D02*
X028617Y008282D01*
X028617Y008282D02*
X028583Y008235D01*
X028583Y008235D02*
X028549Y008212D01*
X028549Y008212D02*
X028481Y008212D01*
X028447Y008235D01*
X028413Y008282D01*
X028396Y008329D01*
X028242Y008704D02*
X028242Y008212D01*
X028242Y008212D02*
X028038Y008212D01*
X028856Y007633D02*
X028890Y007680D01*
X028890Y007680D02*
X028941Y007704D01*
X028941Y007704D02*
X029009Y007704D01*
X029009Y007704D02*
X029060Y007680D01*
X029060Y007680D02*
X029095Y007633D01*
X029095Y007633D02*
X029095Y007587D01*
X029077Y007540D01*
X029077Y007540D02*
X029060Y007516D01*
X029060Y007516D02*
X029026Y007493D01*
X029026Y007493D02*
X028924Y007446D01*
X028924Y007446D02*
X028890Y007422D01*
X028890Y007422D02*
X028873Y007399D01*
X028873Y007399D02*
X028856Y007352D01*
X028856Y007352D02*
X028856Y007282D01*
X028890Y007235D01*
X028941Y007212D01*
X028941Y007212D02*
X029009Y007212D01*
X029009Y007212D02*
X029060Y007235D01*
X029060Y007235D02*
X029095Y007282D01*
X028702Y007704D02*
X028702Y007212D01*
X028702Y007704D02*
X028583Y007704D01*
X028583Y007704D02*
X028532Y007680D01*
X028532Y007680D02*
X028498Y007633D01*
X028498Y007633D02*
X028481Y007587D01*
X028464Y007516D01*
X028464Y007516D02*
X028464Y007399D01*
X028464Y007399D02*
X028481Y007329D01*
X028498Y007282D01*
X028532Y007235D01*
X028532Y007235D02*
X028583Y007212D01*
X028583Y007212D02*
X028702Y007212D01*
X028174Y007704D02*
X028310Y007212D01*
X028174Y007704D02*
X028038Y007212D01*
X028259Y007376D02*
X028089Y007376D01*
X028839Y003633D02*
X028873Y003680D01*
X028873Y003680D02*
X028924Y003704D01*
X028924Y003704D02*
X028992Y003704D01*
X028992Y003704D02*
X029043Y003680D01*
X029043Y003680D02*
X029077Y003633D01*
X029077Y003633D02*
X029077Y003587D01*
X029077Y003587D02*
X029060Y003540D01*
X029060Y003540D02*
X029043Y003516D01*
X029043Y003516D02*
X029009Y003493D01*
X029009Y003493D02*
X028907Y003446D01*
X028907Y003446D02*
X028873Y003422D01*
X028873Y003422D02*
X028856Y003399D01*
X028856Y003399D02*
X028839Y003352D01*
X028839Y003352D02*
X028839Y003282D01*
X028873Y003235D01*
X028924Y003212D01*
X028924Y003212D02*
X028992Y003212D01*
X028992Y003212D02*
X029043Y003235D01*
X029043Y003235D02*
X029077Y003282D01*
X028430Y003587D02*
X028447Y003633D01*
X028447Y003633D02*
X028481Y003680D01*
X028481Y003680D02*
X028515Y003704D01*
X028583Y003704D01*
X028583Y003704D02*
X028617Y003680D01*
X028617Y003680D02*
X028651Y003633D01*
X028651Y003633D02*
X028668Y003587D01*
X028668Y003587D02*
X028685Y003516D01*
X028685Y003516D02*
X028685Y003399D01*
X028685Y003399D02*
X028668Y003329D01*
X028668Y003329D02*
X028651Y003282D01*
X028651Y003282D02*
X028617Y003235D01*
X028617Y003235D02*
X028583Y003212D01*
X028583Y003212D02*
X028515Y003212D01*
X028481Y003235D01*
X028447Y003282D01*
X028430Y003329D01*
X028276Y003704D02*
X028276Y003212D01*
X028038Y003704D02*
X028276Y003376D01*
X028191Y003493D02*
X028038Y003212D01*
X029095Y004704D02*
X028958Y004212D01*
X028822Y004704D02*
X028958Y004212D01*
X028566Y004704D02*
X028600Y004680D01*
X028600Y004680D02*
X028634Y004633D01*
X028634Y004633D02*
X028651Y004587D01*
X028651Y004587D02*
X028668Y004516D01*
X028668Y004516D02*
X028668Y004399D01*
X028668Y004399D02*
X028651Y004329D01*
X028651Y004329D02*
X028634Y004282D01*
X028634Y004282D02*
X028600Y004235D01*
X028600Y004235D02*
X028566Y004212D01*
X028566Y004212D02*
X028498Y004212D01*
X028464Y004235D01*
X028430Y004282D01*
X028413Y004329D01*
X028396Y004399D01*
X028396Y004399D02*
X028396Y004516D01*
X028396Y004516D02*
X028413Y004587D01*
X028430Y004633D01*
X028430Y004633D02*
X028464Y004680D01*
X028464Y004680D02*
X028498Y004704D01*
X028566Y004704D01*
X028242Y004704D02*
X028242Y004212D01*
X028242Y004212D02*
X028038Y004212D01*
X028822Y014587D02*
X028839Y014633D01*
X028839Y014633D02*
X028873Y014680D01*
X028873Y014680D02*
X028907Y014704D01*
X028907Y014704D02*
X028975Y014704D01*
X028975Y014704D02*
X029009Y014680D01*
X029009Y014680D02*
X029043Y014633D01*
X029043Y014633D02*
X029060Y014587D01*
X029060Y014587D02*
X029077Y014516D01*
X029077Y014516D02*
X029077Y014399D01*
X029077Y014399D02*
X029060Y014329D01*
X029060Y014329D02*
X029043Y014282D01*
X029043Y014282D02*
X029009Y014235D01*
X029009Y014235D02*
X028975Y014212D01*
X028975Y014212D02*
X028907Y014212D01*
X028907Y014212D02*
X028873Y014235D01*
X028839Y014282D01*
X028822Y014329D01*
X028822Y014399D01*
X028907Y014399D02*
X028822Y014399D01*
X028668Y014704D02*
X028668Y014212D01*
X028668Y014704D02*
X028430Y014212D01*
X028430Y014704D02*
X028430Y014212D01*
X028276Y014704D02*
X028276Y014212D01*
X028276Y014704D02*
X028157Y014704D01*
X028157Y014704D02*
X028106Y014680D01*
X028106Y014680D02*
X028072Y014633D01*
X028072Y014633D02*
X028055Y014587D01*
X028038Y014516D01*
X028038Y014516D02*
X028038Y014399D01*
X028038Y014399D02*
X028055Y014329D01*
X028072Y014282D01*
X028106Y014235D01*
X028157Y014212D01*
X028157Y014212D02*
X028276Y014212D01*
X033207Y014843D02*
X033161Y014860D01*
X033114Y014894D01*
X033090Y014928D01*
X033090Y014928D02*
X033090Y014996D01*
X033090Y014996D02*
X033114Y015030D01*
X033114Y015030D02*
X033161Y015064D01*
X033161Y015064D02*
X033207Y015081D01*
X033207Y015081D02*
X033278Y015098D01*
X033278Y015098D02*
X033395Y015098D01*
X033395Y015098D02*
X033465Y015081D01*
X033465Y015081D02*
X033512Y015064D01*
X033512Y015064D02*
X033559Y015030D01*
X033559Y015030D02*
X033582Y014996D01*
X033582Y014996D02*
X033582Y014928D01*
X033582Y014928D02*
X033559Y014894D01*
X033559Y014894D02*
X033512Y014860D01*
X033512Y014860D02*
X033465Y014843D01*
X033465Y014843D02*
X033395Y014843D01*
X033395Y014928D02*
X033395Y014843D01*
X033090Y014689D02*
X033582Y014689D01*
X033090Y014689D02*
X033582Y014451D01*
X033090Y014451D02*
X033582Y014451D01*
X033090Y014297D02*
X033582Y014297D01*
X033090Y014297D02*
X033090Y014178D01*
X033090Y014178D02*
X033114Y014127D01*
X033161Y014093D01*
X033207Y014076D01*
X033207Y014076D02*
X033278Y014059D01*
X033395Y014059D01*
X033465Y014076D01*
X033465Y014076D02*
X033512Y014093D01*
X033512Y014093D02*
X033559Y014127D01*
X033559Y014127D02*
X033582Y014178D01*
X033582Y014178D02*
X033582Y014297D01*
X033207Y012843D02*
X033161Y012860D01*
X033114Y012894D01*
X033090Y012928D01*
X033090Y012928D02*
X033090Y012996D01*
X033090Y012996D02*
X033114Y013030D01*
X033114Y013030D02*
X033161Y013064D01*
X033161Y013064D02*
X033207Y013081D01*
X033207Y013081D02*
X033278Y013098D01*
X033278Y013098D02*
X033395Y013098D01*
X033395Y013098D02*
X033465Y013081D01*
X033465Y013081D02*
X033512Y013064D01*
X033512Y013064D02*
X033559Y013030D01*
X033559Y013030D02*
X033582Y012996D01*
X033582Y012996D02*
X033582Y012928D01*
X033582Y012928D02*
X033559Y012894D01*
X033559Y012894D02*
X033512Y012860D01*
X033512Y012860D02*
X033465Y012843D01*
X033465Y012843D02*
X033395Y012843D01*
X033395Y012928D02*
X033395Y012843D01*
X033090Y012689D02*
X033582Y012689D01*
X033090Y012689D02*
X033582Y012451D01*
X033090Y012451D02*
X033582Y012451D01*
X033090Y012297D02*
X033582Y012297D01*
X033090Y012297D02*
X033090Y012178D01*
X033090Y012178D02*
X033114Y012127D01*
X033161Y012093D01*
X033207Y012076D01*
X033207Y012076D02*
X033278Y012059D01*
X033395Y012059D01*
X033465Y012076D01*
X033465Y012076D02*
X033512Y012093D01*
X033512Y012093D02*
X033559Y012127D01*
X033559Y012127D02*
X033582Y012178D01*
X033582Y012178D02*
X033582Y012297D01*
X033207Y010843D02*
X033161Y010860D01*
X033114Y010894D01*
X033090Y010928D01*
X033090Y010928D02*
X033090Y010996D01*
X033090Y010996D02*
X033114Y011030D01*
X033114Y011030D02*
X033161Y011064D01*
X033161Y011064D02*
X033207Y011081D01*
X033207Y011081D02*
X033278Y011098D01*
X033278Y011098D02*
X033395Y011098D01*
X033395Y011098D02*
X033465Y011081D01*
X033465Y011081D02*
X033512Y011064D01*
X033512Y011064D02*
X033559Y011030D01*
X033559Y011030D02*
X033582Y010996D01*
X033582Y010996D02*
X033582Y010928D01*
X033582Y010928D02*
X033559Y010894D01*
X033559Y010894D02*
X033512Y010860D01*
X033512Y010860D02*
X033465Y010843D01*
X033465Y010843D02*
X033395Y010843D01*
X033395Y010928D02*
X033395Y010843D01*
X033090Y010689D02*
X033582Y010689D01*
X033090Y010689D02*
X033582Y010451D01*
X033090Y010451D02*
X033582Y010451D01*
X033090Y010297D02*
X033582Y010297D01*
X033090Y010297D02*
X033090Y010178D01*
X033090Y010178D02*
X033114Y010127D01*
X033161Y010093D01*
X033207Y010076D01*
X033207Y010076D02*
X033278Y010059D01*
X033395Y010059D01*
X033465Y010076D01*
X033465Y010076D02*
X033512Y010093D01*
X033512Y010093D02*
X033559Y010127D01*
X033559Y010127D02*
X033582Y010178D01*
X033582Y010178D02*
X033582Y010297D01*
X033207Y008843D02*
X033161Y008860D01*
X033114Y008894D01*
X033090Y008928D01*
X033090Y008928D02*
X033090Y008996D01*
X033090Y008996D02*
X033114Y009030D01*
X033114Y009030D02*
X033161Y009064D01*
X033161Y009064D02*
X033207Y009081D01*
X033207Y009081D02*
X033278Y009098D01*
X033278Y009098D02*
X033395Y009098D01*
X033395Y009098D02*
X033465Y009081D01*
X033465Y009081D02*
X033512Y009064D01*
X033512Y009064D02*
X033559Y009030D01*
X033559Y009030D02*
X033582Y008996D01*
X033582Y008996D02*
X033582Y008928D01*
X033582Y008928D02*
X033559Y008894D01*
X033559Y008894D02*
X033512Y008860D01*
X033512Y008860D02*
X033465Y008843D01*
X033465Y008843D02*
X033395Y008843D01*
X033395Y008928D02*
X033395Y008843D01*
X033090Y008689D02*
X033582Y008689D01*
X033090Y008689D02*
X033582Y008451D01*
X033090Y008451D02*
X033582Y008451D01*
X033090Y008297D02*
X033582Y008297D01*
X033090Y008297D02*
X033090Y008178D01*
X033090Y008178D02*
X033114Y008127D01*
X033161Y008093D01*
X033207Y008076D01*
X033207Y008076D02*
X033278Y008059D01*
X033395Y008059D01*
X033465Y008076D01*
X033465Y008076D02*
X033512Y008093D01*
X033512Y008093D02*
X033559Y008127D01*
X033559Y008127D02*
X033582Y008178D01*
X033582Y008178D02*
X033582Y008297D01*
X033207Y006843D02*
X033161Y006860D01*
X033114Y006894D01*
X033090Y006928D01*
X033090Y006928D02*
X033090Y006996D01*
X033090Y006996D02*
X033114Y007030D01*
X033114Y007030D02*
X033161Y007064D01*
X033161Y007064D02*
X033207Y007081D01*
X033207Y007081D02*
X033278Y007098D01*
X033278Y007098D02*
X033395Y007098D01*
X033395Y007098D02*
X033465Y007081D01*
X033465Y007081D02*
X033512Y007064D01*
X033512Y007064D02*
X033559Y007030D01*
X033559Y007030D02*
X033582Y006996D01*
X033582Y006996D02*
X033582Y006928D01*
X033582Y006928D02*
X033559Y006894D01*
X033559Y006894D02*
X033512Y006860D01*
X033512Y006860D02*
X033465Y006843D01*
X033465Y006843D02*
X033395Y006843D01*
X033395Y006928D02*
X033395Y006843D01*
X033090Y006689D02*
X033582Y006689D01*
X033090Y006689D02*
X033582Y006451D01*
X033090Y006451D02*
X033582Y006451D01*
X033090Y006297D02*
X033582Y006297D01*
X033090Y006297D02*
X033090Y006178D01*
X033090Y006178D02*
X033114Y006127D01*
X033161Y006093D01*
X033207Y006076D01*
X033207Y006076D02*
X033278Y006059D01*
X033395Y006059D01*
X033465Y006076D01*
X033465Y006076D02*
X033512Y006093D01*
X033512Y006093D02*
X033559Y006127D01*
X033559Y006127D02*
X033582Y006178D01*
X033582Y006178D02*
X033582Y006297D01*
X033207Y004843D02*
X033161Y004860D01*
X033114Y004894D01*
X033090Y004928D01*
X033090Y004928D02*
X033090Y004996D01*
X033090Y004996D02*
X033114Y005030D01*
X033114Y005030D02*
X033161Y005064D01*
X033161Y005064D02*
X033207Y005081D01*
X033207Y005081D02*
X033278Y005098D01*
X033278Y005098D02*
X033395Y005098D01*
X033395Y005098D02*
X033465Y005081D01*
X033465Y005081D02*
X033512Y005064D01*
X033512Y005064D02*
X033559Y005030D01*
X033559Y005030D02*
X033582Y004996D01*
X033582Y004996D02*
X033582Y004928D01*
X033582Y004928D02*
X033559Y004894D01*
X033559Y004894D02*
X033512Y004860D01*
X033512Y004860D02*
X033465Y004843D01*
X033465Y004843D02*
X033395Y004843D01*
X033395Y004928D02*
X033395Y004843D01*
X033090Y004689D02*
X033582Y004689D01*
X033090Y004689D02*
X033582Y004451D01*
X033090Y004451D02*
X033582Y004451D01*
X033090Y004297D02*
X033582Y004297D01*
X033090Y004297D02*
X033090Y004178D01*
X033090Y004178D02*
X033114Y004127D01*
X033161Y004093D01*
X033207Y004076D01*
X033207Y004076D02*
X033278Y004059D01*
X033395Y004059D01*
X033465Y004076D01*
X033465Y004076D02*
X033512Y004093D01*
X033512Y004093D02*
X033559Y004127D01*
X033559Y004127D02*
X033582Y004178D01*
X033582Y004178D02*
X033582Y004297D01*
X036090Y004894D02*
X036582Y004894D01*
X036090Y004894D02*
X036090Y004741D01*
X036090Y004741D02*
X036114Y004689D01*
X036114Y004689D02*
X036137Y004672D01*
X036137Y004672D02*
X036184Y004655D01*
X036184Y004655D02*
X036231Y004655D01*
X036231Y004655D02*
X036278Y004672D01*
X036278Y004672D02*
X036301Y004689D01*
X036301Y004689D02*
X036325Y004741D01*
X036325Y004894D01*
X036325Y004775D02*
X036582Y004655D01*
X036090Y004502D02*
X036582Y004263D01*
X036090Y004263D02*
X036582Y004502D01*
X037090Y004775D02*
X037582Y004775D01*
X037090Y004894D02*
X037090Y004655D01*
X037090Y004502D02*
X037582Y004263D01*
X037090Y004263D02*
X037582Y004502D01*
X036090Y014894D02*
X036582Y014894D01*
X036090Y014894D02*
X036090Y014741D01*
X036090Y014741D02*
X036114Y014689D01*
X036114Y014689D02*
X036137Y014672D01*
X036137Y014672D02*
X036184Y014655D01*
X036184Y014655D02*
X036231Y014655D01*
X036231Y014655D02*
X036278Y014672D01*
X036278Y014672D02*
X036301Y014689D01*
X036301Y014689D02*
X036325Y014741D01*
X036325Y014894D01*
X036325Y014775D02*
X036582Y014655D01*
X036090Y014502D02*
X036582Y014263D01*
X036090Y014263D02*
X036582Y014502D01*
X037090Y014775D02*
X037582Y014775D01*
X037090Y014894D02*
X037090Y014655D01*
X037090Y014502D02*
X037582Y014263D01*
X037090Y014263D02*
X037582Y014502D01*
X036090Y012894D02*
X036582Y012894D01*
X036090Y012894D02*
X036090Y012741D01*
X036090Y012741D02*
X036114Y012689D01*
X036114Y012689D02*
X036137Y012672D01*
X036137Y012672D02*
X036184Y012655D01*
X036184Y012655D02*
X036231Y012655D01*
X036231Y012655D02*
X036278Y012672D01*
X036278Y012672D02*
X036301Y012689D01*
X036301Y012689D02*
X036325Y012741D01*
X036325Y012894D01*
X036325Y012775D02*
X036582Y012655D01*
X036090Y012502D02*
X036582Y012263D01*
X036090Y012263D02*
X036582Y012502D01*
X037090Y012775D02*
X037582Y012775D01*
X037090Y012894D02*
X037090Y012655D01*
X037090Y012502D02*
X037582Y012263D01*
X037090Y012263D02*
X037582Y012502D01*
X036090Y010894D02*
X036582Y010894D01*
X036090Y010894D02*
X036090Y010741D01*
X036090Y010741D02*
X036114Y010689D01*
X036114Y010689D02*
X036137Y010672D01*
X036137Y010672D02*
X036184Y010655D01*
X036184Y010655D02*
X036231Y010655D01*
X036231Y010655D02*
X036278Y010672D01*
X036278Y010672D02*
X036301Y010689D01*
X036301Y010689D02*
X036325Y010741D01*
X036325Y010894D01*
X036325Y010775D02*
X036582Y010655D01*
X036090Y010502D02*
X036582Y010263D01*
X036090Y010263D02*
X036582Y010502D01*
X037090Y010775D02*
X037582Y010775D01*
X037090Y010894D02*
X037090Y010655D01*
X037090Y010502D02*
X037582Y010263D01*
X037090Y010263D02*
X037582Y010502D01*
X036090Y008894D02*
X036582Y008894D01*
X036090Y008894D02*
X036090Y008741D01*
X036090Y008741D02*
X036114Y008689D01*
X036114Y008689D02*
X036137Y008672D01*
X036137Y008672D02*
X036184Y008655D01*
X036184Y008655D02*
X036231Y008655D01*
X036231Y008655D02*
X036278Y008672D01*
X036278Y008672D02*
X036301Y008689D01*
X036301Y008689D02*
X036325Y008741D01*
X036325Y008894D01*
X036325Y008775D02*
X036582Y008655D01*
X036090Y008502D02*
X036582Y008263D01*
X036090Y008263D02*
X036582Y008502D01*
X037090Y008775D02*
X037582Y008775D01*
X037090Y008894D02*
X037090Y008655D01*
X037090Y008502D02*
X037582Y008263D01*
X037090Y008263D02*
X037582Y008502D01*
X036090Y006894D02*
X036582Y006894D01*
X036090Y006894D02*
X036090Y006741D01*
X036090Y006741D02*
X036114Y006689D01*
X036114Y006689D02*
X036137Y006672D01*
X036137Y006672D02*
X036184Y006655D01*
X036184Y006655D02*
X036231Y006655D01*
X036231Y006655D02*
X036278Y006672D01*
X036278Y006672D02*
X036301Y006689D01*
X036301Y006689D02*
X036325Y006741D01*
X036325Y006894D01*
X036325Y006775D02*
X036582Y006655D01*
X036090Y006502D02*
X036582Y006263D01*
X036090Y006263D02*
X036582Y006502D01*
X037090Y006775D02*
X037582Y006775D01*
X037090Y006894D02*
X037090Y006655D01*
X037090Y006502D02*
X037582Y006263D01*
X037090Y006263D02*
X037582Y006502D01*
X020784Y015587D02*
X020801Y015633D01*
X020801Y015633D02*
X020835Y015680D01*
X020835Y015680D02*
X020869Y015704D01*
X020869Y015704D02*
X020937Y015704D01*
X020937Y015704D02*
X020971Y015680D01*
X020971Y015680D02*
X021005Y015633D01*
X021005Y015633D02*
X021022Y015587D01*
X021022Y015587D02*
X021040Y015516D01*
X021040Y015516D02*
X021040Y015399D01*
X021040Y015399D02*
X021022Y015329D01*
X021022Y015329D02*
X021005Y015282D01*
X021005Y015282D02*
X020971Y015235D01*
X020971Y015235D02*
X020937Y015212D01*
X020937Y015212D02*
X020869Y015212D01*
X020869Y015212D02*
X020835Y015235D01*
X020801Y015282D01*
X020784Y015329D01*
X020784Y015399D01*
X020869Y015399D02*
X020784Y015399D01*
X020630Y015704D02*
X020630Y015212D01*
X020630Y015704D02*
X020392Y015212D01*
X020392Y015704D02*
X020392Y015212D01*
X020238Y015704D02*
X020238Y015212D01*
X020238Y015704D02*
X020119Y015704D01*
X020119Y015704D02*
X020068Y015680D01*
X020068Y015680D02*
X020034Y015633D01*
X020034Y015633D02*
X020017Y015587D01*
X020000Y015516D01*
X020000Y015516D02*
X020000Y015399D01*
X020000Y015399D02*
X020017Y015329D01*
X020034Y015282D01*
X020068Y015235D01*
X020119Y015212D01*
X020119Y015212D02*
X020238Y015212D01*
D18*
X032382Y003687D02*
X032323Y003728D01*
X032323Y003728D02*
X032235Y003850D01*
X032235Y002997D01*
X032486Y005647D02*
X032486Y005687D01*
X032486Y005687D02*
X032456Y005769D01*
X032456Y005769D02*
X032427Y005809D01*
X032427Y005809D02*
X032368Y005850D01*
X032249Y005850D01*
X032249Y005850D02*
X032190Y005809D01*
X032190Y005809D02*
X032161Y005769D01*
X032131Y005687D01*
X032131Y005687D02*
X032131Y005606D01*
X032131Y005606D02*
X032161Y005525D01*
X032220Y005403D01*
X032515Y004997D01*
X032515Y004997D02*
X032102Y004997D01*
X032456Y007850D02*
X032131Y007850D01*
X032131Y007850D02*
X032309Y007525D01*
X032220Y007525D01*
X032161Y007484D01*
X032161Y007484D02*
X032131Y007444D01*
X032131Y007444D02*
X032102Y007322D01*
X032102Y007240D01*
X032102Y007240D02*
X032131Y007119D01*
X032131Y007119D02*
X032190Y007037D01*
X032190Y007037D02*
X032279Y006997D01*
X032279Y006997D02*
X032368Y006997D01*
X032456Y007037D01*
X032456Y007037D02*
X032486Y007078D01*
X032515Y007159D01*
X032235Y009850D02*
X032530Y009281D01*
X032530Y009281D02*
X032087Y009281D01*
X032235Y009850D02*
X032235Y008997D01*
X032146Y011850D02*
X032442Y011850D01*
X032471Y011484D01*
X032471Y011484D02*
X032442Y011525D01*
X032353Y011565D01*
X032353Y011565D02*
X032264Y011565D01*
X032264Y011565D02*
X032176Y011525D01*
X032117Y011444D01*
X032087Y011322D01*
X032117Y011240D01*
X032117Y011240D02*
X032146Y011119D01*
X032146Y011119D02*
X032205Y011037D01*
X032205Y011037D02*
X032294Y010997D01*
X032382Y010997D01*
X032382Y010997D02*
X032471Y011037D01*
X032471Y011037D02*
X032501Y011078D01*
X032530Y011159D01*
X032146Y013728D02*
X032176Y013809D01*
X032176Y013809D02*
X032264Y013850D01*
X032264Y013850D02*
X032323Y013850D01*
X032323Y013850D02*
X032412Y013809D01*
X032412Y013809D02*
X032471Y013687D01*
X032471Y013687D02*
X032501Y013484D01*
X032501Y013484D02*
X032501Y013281D01*
X032501Y013281D02*
X032471Y013119D01*
X032471Y013119D02*
X032412Y013037D01*
X032412Y013037D02*
X032323Y012997D01*
X032323Y012997D02*
X032294Y012997D01*
X032205Y013037D01*
X032205Y013037D02*
X032146Y013119D01*
X032146Y013119D02*
X032117Y013240D01*
X032117Y013240D02*
X032117Y013281D01*
X032117Y013281D02*
X032146Y013403D01*
X032146Y013403D02*
X032205Y013484D01*
X032205Y013484D02*
X032294Y013525D01*
X032323Y013525D01*
X032323Y013525D02*
X032412Y013484D01*
X032412Y013484D02*
X032471Y013403D01*
X032471Y013403D02*
X032501Y013281D01*
X032102Y015850D02*
X032397Y014997D01*
X032515Y015850D02*
X032102Y015850D01*
D25*
X001990Y013305D02*
X002458Y013305D01*
X002458Y013305D02*
X002458Y013423D01*
X002458Y013423D02*
X002621Y013423D01*
X002621Y013423D02*
X002621Y013305D01*
X003090Y013305D01*
X003090Y015205D01*
X001990Y015205D01*
X001990Y013305D01*
X002360Y013595D02*
X002347Y013647D01*
X002313Y013689D01*
X002265Y013712D01*
X002211Y013711D01*
X002163Y013687D01*
X002130Y013644D01*
X002120Y013591D01*
X002133Y013538D01*
X002169Y013498D01*
X002218Y013476D01*
X002272Y013479D01*
X002319Y013505D01*
X002351Y013549D01*
X002360Y013595D01*
X006240Y016555D02*
X006708Y016555D01*
X006708Y016555D02*
X006708Y016673D01*
X006708Y016673D02*
X006871Y016673D01*
X006871Y016673D02*
X006871Y016555D01*
X007340Y016555D01*
X007340Y018455D01*
X006240Y018455D01*
X006240Y016555D01*
X006610Y016845D02*
X006597Y016897D01*
X006563Y016939D01*
X006515Y016962D01*
X006461Y016961D01*
X006413Y016937D01*
X006380Y016894D01*
X006370Y016841D01*
X006383Y016788D01*
X006419Y016748D01*
X006468Y016726D01*
X006522Y016729D01*
X006569Y016755D01*
X006601Y016799D01*
X006610Y016845D01*
D53*
X000040Y000005D02*
X039040Y000005D01*
X039040Y019005D01*
X000040Y019005D01*
X000040Y000005D01*
X000000Y000000D02*
M02*
