G70*
%FSLAX24Y24*%
%IPPOS*%
%LPD*%
%ADD12C,0.059*%
%ADD47R,0.02762X0.02762*%
%ADD50C,0.069*%
%ADD53C,0.001*%
%ADD61R,0.03156X0.03156*%
%ADD62R,0.0355X0.0355*%
%ADD76R,0.04337X0.04337*%
%ADD77R,0.03943X0.03943*%
%ADD78R,0.04928X0.04928*%
%ADD79R,0.06306X0.06306*%
%ADD83C,0.058*%
%ADD89C,0.234*%
%ADD91R,0.064X0.064*%
%ADD92C,0.064*%
%ADD93C,0.074*%
%ADD97C,0.084*%
%ADD104C,0.063*%
%ADD105C,0.088*%
%ADD106C,0.091*%
%ADD107C,0.094*%
D12*
X004922Y014005D03*
X005709Y014005D03*
X006497Y014005D03*
X007284Y014005D03*
X005316Y014540D03*
D47*
X015505Y000434D02*
X015505Y000886D01*
X007591Y009132D02*
X008142Y009132D01*
X007591Y008739D02*
X008142Y008739D01*
X007591Y008345D02*
X008142Y008345D01*
X007591Y007951D02*
X008142Y007951D01*
X007591Y007558D02*
X008142Y007558D01*
X007591Y007164D02*
X008142Y007164D01*
X007591Y006770D02*
X008142Y006770D01*
X007591Y006377D02*
X008142Y006377D01*
D50*
X013755Y007755D03*
X013755Y008755D03*
X013755Y006755D03*
D53*
X000005Y000005D02*
X039005Y000005D01*
X039005Y019005D01*
X000005Y019005D01*
X000005Y000005D01*
D61*
X018536Y000453D02*
X018536Y000867D01*
X018103Y000453D02*
X018103Y000867D01*
X017670Y000453D02*
X017670Y000867D01*
X017237Y000453D02*
X017237Y000867D01*
X016804Y000453D02*
X016804Y000867D01*
X016371Y000453D02*
X016371Y000867D01*
X015938Y000453D02*
X015938Y000867D01*
X006351Y009526D02*
X007729Y009526D01*
X006351Y005983D02*
X007729Y005983D01*
D62*
X014934Y003564D02*
X014934Y003839D01*
X019638Y003839D02*
X019638Y004075D01*
D76*
X019481Y004695D02*
X019481Y004912D01*
D77*
X014953Y004292D02*
X015190Y004292D01*
D78*
X015003Y000640D02*
X015003Y000778D01*
D79*
X019501Y000709D03*
D83*
X015755Y017505D03*
X015755Y013505D03*
D89*
X001505Y017505D03*
X001505Y001505D03*
X037505Y017505D03*
X037505Y001505D03*
X019005Y014005D03*
D91*
X034255Y017005D03*
D92*
X034255Y018005D03*
D93*
X004634Y012934D03*
X007390Y012934D03*
X004634Y015075D03*
X007390Y015075D03*
X008255Y002505D03*
X006285Y001005D03*
X010225Y001005D03*
D97*
X023225Y018391D03*
X025785Y018391D03*
X023225Y016619D03*
X025785Y016619D03*
X024505Y015891D03*
D104*
X033255Y003505D03*
X034255Y003505D03*
X035255Y003505D03*
X036255Y003505D03*
X037255Y003505D03*
X038255Y003505D03*
X033255Y005505D03*
X034255Y005505D03*
X035255Y005505D03*
X036255Y005505D03*
X037255Y005505D03*
X038255Y005505D03*
X033255Y007505D03*
X034255Y007505D03*
X035255Y007505D03*
X036255Y007505D03*
X037255Y007505D03*
X038255Y007505D03*
X033255Y009505D03*
X034255Y009505D03*
X035255Y009505D03*
X036255Y009505D03*
X037255Y009505D03*
X038255Y009505D03*
X033255Y011505D03*
X034255Y011505D03*
X035255Y011505D03*
X036255Y011505D03*
X037255Y011505D03*
X038255Y011505D03*
X033255Y013505D03*
X034255Y013505D03*
X035255Y013505D03*
X036255Y013505D03*
X037255Y013505D03*
X038255Y013505D03*
X033255Y015505D03*
X034255Y015505D03*
X035255Y015505D03*
X036255Y015505D03*
X037255Y015505D03*
X038255Y015505D03*
X000755Y010755D03*
X001755Y010755D03*
X002755Y010755D03*
X003755Y010755D03*
X004755Y010755D03*
X005755Y010755D03*
X006755Y010755D03*
X007755Y010755D03*
X008755Y010755D03*
X009755Y010755D03*
X010755Y010755D03*
X011755Y010755D03*
X012755Y010755D03*
X013755Y010755D03*
X000755Y004755D03*
X001755Y004755D03*
X002755Y004755D03*
X003755Y004755D03*
X004755Y004755D03*
X005755Y004755D03*
X006755Y004755D03*
X007755Y004755D03*
X008755Y004755D03*
X009755Y004755D03*
X010755Y004755D03*
X011755Y004755D03*
X012755Y004755D03*
X013755Y004755D03*
X027505Y015505D03*
X027505Y014505D03*
X027505Y013505D03*
X027505Y012505D03*
X027505Y011505D03*
X027505Y010505D03*
X027505Y009505D03*
X027505Y008505D03*
X027505Y007505D03*
X027505Y006505D03*
X027505Y005505D03*
X027505Y004505D03*
X027505Y003505D03*
X027505Y002505D03*
X021505Y015505D03*
X021505Y014505D03*
X021505Y013505D03*
X021505Y012505D03*
X021505Y011505D03*
X021505Y010505D03*
X021505Y009505D03*
X021505Y008505D03*
X021505Y007505D03*
X021505Y006505D03*
X021505Y005505D03*
X021505Y004505D03*
X021505Y003505D03*
X021505Y002505D03*
D105*
X010235Y006755D03*
X012275Y009755D03*
X012275Y008755D03*
X012275Y006755D03*
X012275Y005755D03*
X012275Y007755D03*
X010235Y008755D03*
X010235Y009755D03*
X010235Y007755D03*
X010235Y005755D03*
X000755Y007285D03*
X000755Y008225D03*
X013775Y009755D03*
X013775Y005755D03*
D106*
X035005Y001255D03*
D107*
X009505Y015255D03*
X011505Y015255D03*
X013505Y015255D03*
X000000Y000000D02*
M02*
