%
M48
M72
T01C0.01500
T02C0.03000
T03C0.03500
T04C0.03600
T05C0.03800
T06C0.04000
T07C0.05200
T08C0.05600
T09C0.06300
T10C0.11500
%
T01
X004915Y009435
X007265Y012105
X005615Y016075
X007085Y016345
X006285Y017205
X008995Y017725
X008315Y016245
X008335Y015805
X013825Y002955
X013875Y000765
X020395Y000565
X016335Y001555
X017125Y001565
X020605Y003065
X020285Y005005
X020615Y005315
X019495Y005785
X018115Y006225
X018115Y008505
X025415Y013095
X024925Y012905
X022505Y012505
X022695Y009645
X023995Y008995
X023455Y008355
X022695Y007635
X023845Y006045
X024955Y005585
X024495Y004725
X027185Y001255
X028825Y004925
X026145Y006965
X030135Y007045
X029855Y008115
X030485Y008375
X029555Y009035
X025835Y010955
X030385Y011945
X030345Y013925
X029555Y014495
X029825Y014875
X026265Y015415
X030965Y014015
X031625Y012775
X030775Y010535
X031625Y010045
T02
X015755Y013505
X015755Y017505
T03
X006285Y001005
X005710Y014005
X007285Y014005
X006497Y014005
X004922Y014005
X005316Y014540
X008255Y002505
X010225Y001005
X034255Y017005
X034255Y018005
T04
X010235Y005755
X010235Y006755
X000755Y007285
X010235Y007755
X000755Y008225
X010235Y008755
X010235Y009755
X012275Y009755
X013775Y009755
X012275Y008755
X012275Y007755
X012275Y006755
X012275Y005755
X013775Y005755
T05
X000755Y004755
X001755Y004755
X002755Y004755
X003755Y004755
X004755Y004755
X002755Y010755
X003755Y010755
X004755Y010755
X000755Y010755
X001755Y010755
X005755Y010755
X006755Y010755
X007755Y010755
X008755Y010755
X009755Y010755
X007755Y004755
X005755Y004755
X006755Y004755
X008755Y004755
X009755Y004755
X010755Y004755
X011755Y004755
X012755Y004755
X013755Y004755
X013755Y006755
X013755Y007755
X013755Y008755
X013755Y010755
X010755Y010755
X012755Y010755
X011755Y010755
X021505Y015505
X021505Y014505
X021505Y013505
X021505Y012505
X021505Y011505
X021505Y010505
X021505Y009505
X021505Y008505
X021505Y007505
X021505Y006505
X021505Y005505
X021505Y004505
X021505Y003505
X021505Y002505
X027505Y002505
X027505Y003505
X027505Y004505
X027505Y005505
X027505Y006505
X027505Y007505
X027505Y008505
X027505Y009505
X027505Y010505
X027505Y011505
X027505Y012505
X027505Y013505
X027505Y014505
X027505Y015505
X033255Y015505
X034255Y015505
X035255Y015505
X033255Y013505
X034255Y013505
X035255Y013505
X033255Y011505
X035255Y011505
X034255Y011505
X034255Y009505
X035255Y009505
X033255Y009505
X034255Y007505
X035255Y007505
X033255Y007505
X034255Y005505
X035255Y005505
X033255Y005505
X035255Y003505
X034255Y003505
X033255Y003505
X036255Y003505
X037255Y003505
X036255Y005505
X037255Y005505
X037255Y007505
X036255Y007505
X037255Y009505
X036255Y009505
X036255Y011505
X037255Y011505
X036255Y013505
X037255Y013505
X037255Y015505
X036255Y015505
X038255Y015505
X038255Y013505
X038255Y011505
X038255Y009505
X038255Y007505
X038255Y005505
X038255Y003505
T06
X023225Y016619
X023225Y018391
X025785Y018391
X025785Y016619
X024505Y015891
T07
X004635Y012934
X007391Y012934
X004635Y015076
X007391Y015076
T08
X009505Y015255
X011505Y015255
X013505Y015255
T09
X035005Y001255
T10
X001505Y001505
X001505Y017505
X019005Y014005
X037505Y001505
X037505Y017505
M30
