M48
;Layer_Color=9474304
;FILE_FORMAT=2:4
INCH,LZ
;TYPE=PLATED
T1F00S00C0.0150
T2F00S00C0.0200
T3F00S00C0.0354
T4F00S00C0.1181
T5F00S00C0.1772
%
T01
X0363Y0261
X0366
X0368Y02635
Y0267
X0366Y02695
X0363
X0361Y0267
Y02635
Y0273
X0363Y02755
X0366
X0368Y0273
T02
X03335Y0242
X03545Y02415
X037972Y024798
X037439Y0281
X03535Y0282
X03445Y02985
X0348Y0304
X03335Y0292
X0383Y02985
X0381Y0304
X04215
X04335
X04465Y02795
X04425Y0226
X0433Y0232
X04215
X03685Y03265
T03
X03335Y0215
Y0225
X04565Y02255
Y02155
Y02525
Y02625
Y02895
Y02995
Y03265
Y03365
T04
X05105Y0215
X0423
X03495
X0265
Y03375
X03495
X0423
X05105
T05
X04835Y022633
Y025467
Y029833
X02975
Y025917
Y023083
Y032667
X04835
M30
